M48
;DRILL file {KiCad (5.0.0)} date 04/01/19 19:30:15
;FORMAT={-:-/ absolute / metric / decimal}
FMAT,2
METRIC,TZ
T1C0.400
T2C1.300
T3C5.000
T4C1.300
%
G90
G05
M71
T1
X130.5Y-114.
X135.5Y-118.25
X138.Y-120.
X138.5Y-96.55
X140.75Y-97.65
X142.Y-111.75
X142.84Y-124.84
X143.25Y-120.5
X144.25Y-116.5
X145.25Y-115.5
X145.25Y-116.75
X145.25Y-118.75
X147.5Y-120.75
X148.352Y-120.162
X149.75Y-114.75
X149.75Y-120.162
X150.5Y-121.
X150.75Y-117.
X150.75Y-124.45
X151.75Y-115.
X152.5Y-124.75
X152.75Y-108.5
X153.Y-110.75
X158.75Y-123.75
T2
X147.2Y-96.45
X147.2Y-101.75
X150.2Y-96.45
X150.2Y-101.75
X153.2Y-96.45
X153.2Y-101.75
X156.2Y-96.45
X156.2Y-101.75
T3
X168.23Y-99.5
X168.23Y-119.
X103.46Y-99.39
X103.46Y-118.89
T4
X145.8Y-94.4
X145.8Y-103.8
X157.6Y-94.4
X157.6Y-103.8
T0
M30
