G04 #@! TF.GenerationSoftware,KiCad,Pcbnew,(5.0.0)*
G04 #@! TF.CreationDate,2019-04-01T19:30:18+02:00*
G04 #@! TF.ProjectId,currentscaler,63757272656E747363616C65722E6B69,rev?*
G04 #@! TF.SameCoordinates,Original*
G04 #@! TF.FileFunction,Copper,L1,Top,Signal*
G04 #@! TF.FilePolarity,Positive*
%FSLAX46Y46*%
G04 Gerber Fmt 4.6, Leading zero omitted, Abs format (unit mm)*
G04 Created by KiCad (PCBNEW (5.0.0)) date 04/01/19 19:30:18*
%MOMM*%
%LPD*%
G01*
G04 APERTURE LIST*
G04 #@! TA.AperFunction,ComponentPad*
%ADD10C,7.000000*%
G04 #@! TD*
G04 #@! TA.AperFunction,WasherPad*
%ADD11C,1.600000*%
G04 #@! TD*
G04 #@! TA.AperFunction,ComponentPad*
%ADD12C,1.600000*%
G04 #@! TD*
G04 #@! TA.AperFunction,Conductor*
%ADD13C,0.100000*%
G04 #@! TD*
G04 #@! TA.AperFunction,SMDPad,CuDef*
%ADD14C,0.875000*%
G04 #@! TD*
G04 #@! TA.AperFunction,SMDPad,CuDef*
%ADD15R,0.650000X1.060000*%
G04 #@! TD*
G04 #@! TA.AperFunction,ViaPad*
%ADD16C,0.800000*%
G04 #@! TD*
G04 #@! TA.AperFunction,Conductor*
%ADD17C,0.500000*%
G04 #@! TD*
G04 #@! TA.AperFunction,Conductor*
%ADD18C,0.254000*%
G04 #@! TD*
G04 APERTURE END LIST*
D10*
G04 #@! TO.P,CON2,1*
G04 #@! TO.N,Net-(C6-Pad1)*
X168230000Y-119000000D03*
G04 #@! TO.P,CON2,2*
G04 #@! TO.N,GNDREF*
X168230000Y-99500000D03*
G04 #@! TD*
G04 #@! TO.P,CON1,1*
G04 #@! TO.N,Net-(CON1-Pad1)*
X103460000Y-99390000D03*
G04 #@! TO.P,CON1,2*
G04 #@! TO.N,GNDREF*
X103460000Y-118890000D03*
G04 #@! TD*
D11*
G04 #@! TO.P,DP3T1,*
G04 #@! TO.N,*
X145800000Y-103800000D03*
X157600000Y-103800000D03*
X157600000Y-94400000D03*
X145800000Y-94400000D03*
D12*
G04 #@! TO.P,DP3T1,4*
G04 #@! TO.N,Net-(DP3T1-Pad4)*
X153200000Y-96450000D03*
X147200000Y-96450000D03*
G04 #@! TO.P,DP3T1,3*
G04 #@! TO.N,Net-(CON1-Pad1)*
X150200000Y-96450000D03*
G04 #@! TO.P,DP3T1,5*
X156200000Y-96450000D03*
G04 #@! TO.P,DP3T1,4*
G04 #@! TO.N,Net-(DP3T1-Pad4)*
X147200000Y-101750000D03*
G04 #@! TO.P,DP3T1,3*
G04 #@! TO.N,Net-(CON1-Pad1)*
X150200000Y-101750000D03*
G04 #@! TO.P,DP3T1,2*
G04 #@! TO.N,Net-(DP3T1-Pad2)*
X153200000Y-101750000D03*
G04 #@! TO.P,DP3T1,1*
G04 #@! TO.N,Net-(DP3T1-Pad1)*
X156200000Y-101750000D03*
G04 #@! TD*
D13*
G04 #@! TO.N,Net-(C2-Pad1)*
G04 #@! TO.C,C2*
G36*
X150127691Y-123188553D02*
X150148926Y-123191703D01*
X150169750Y-123196919D01*
X150189962Y-123204151D01*
X150209368Y-123213330D01*
X150227781Y-123224366D01*
X150245024Y-123237154D01*
X150260930Y-123251570D01*
X150275346Y-123267476D01*
X150288134Y-123284719D01*
X150299170Y-123303132D01*
X150308349Y-123322538D01*
X150315581Y-123342750D01*
X150320797Y-123363574D01*
X150323947Y-123384809D01*
X150325000Y-123406250D01*
X150325000Y-123843750D01*
X150323947Y-123865191D01*
X150320797Y-123886426D01*
X150315581Y-123907250D01*
X150308349Y-123927462D01*
X150299170Y-123946868D01*
X150288134Y-123965281D01*
X150275346Y-123982524D01*
X150260930Y-123998430D01*
X150245024Y-124012846D01*
X150227781Y-124025634D01*
X150209368Y-124036670D01*
X150189962Y-124045849D01*
X150169750Y-124053081D01*
X150148926Y-124058297D01*
X150127691Y-124061447D01*
X150106250Y-124062500D01*
X149593750Y-124062500D01*
X149572309Y-124061447D01*
X149551074Y-124058297D01*
X149530250Y-124053081D01*
X149510038Y-124045849D01*
X149490632Y-124036670D01*
X149472219Y-124025634D01*
X149454976Y-124012846D01*
X149439070Y-123998430D01*
X149424654Y-123982524D01*
X149411866Y-123965281D01*
X149400830Y-123946868D01*
X149391651Y-123927462D01*
X149384419Y-123907250D01*
X149379203Y-123886426D01*
X149376053Y-123865191D01*
X149375000Y-123843750D01*
X149375000Y-123406250D01*
X149376053Y-123384809D01*
X149379203Y-123363574D01*
X149384419Y-123342750D01*
X149391651Y-123322538D01*
X149400830Y-123303132D01*
X149411866Y-123284719D01*
X149424654Y-123267476D01*
X149439070Y-123251570D01*
X149454976Y-123237154D01*
X149472219Y-123224366D01*
X149490632Y-123213330D01*
X149510038Y-123204151D01*
X149530250Y-123196919D01*
X149551074Y-123191703D01*
X149572309Y-123188553D01*
X149593750Y-123187500D01*
X150106250Y-123187500D01*
X150127691Y-123188553D01*
X150127691Y-123188553D01*
G37*
D14*
G04 #@! TD*
G04 #@! TO.P,C2,1*
G04 #@! TO.N,Net-(C2-Pad1)*
X149850000Y-123625000D03*
D13*
G04 #@! TO.N,Net-(C2-Pad2)*
G04 #@! TO.C,C2*
G36*
X150127691Y-121613553D02*
X150148926Y-121616703D01*
X150169750Y-121621919D01*
X150189962Y-121629151D01*
X150209368Y-121638330D01*
X150227781Y-121649366D01*
X150245024Y-121662154D01*
X150260930Y-121676570D01*
X150275346Y-121692476D01*
X150288134Y-121709719D01*
X150299170Y-121728132D01*
X150308349Y-121747538D01*
X150315581Y-121767750D01*
X150320797Y-121788574D01*
X150323947Y-121809809D01*
X150325000Y-121831250D01*
X150325000Y-122268750D01*
X150323947Y-122290191D01*
X150320797Y-122311426D01*
X150315581Y-122332250D01*
X150308349Y-122352462D01*
X150299170Y-122371868D01*
X150288134Y-122390281D01*
X150275346Y-122407524D01*
X150260930Y-122423430D01*
X150245024Y-122437846D01*
X150227781Y-122450634D01*
X150209368Y-122461670D01*
X150189962Y-122470849D01*
X150169750Y-122478081D01*
X150148926Y-122483297D01*
X150127691Y-122486447D01*
X150106250Y-122487500D01*
X149593750Y-122487500D01*
X149572309Y-122486447D01*
X149551074Y-122483297D01*
X149530250Y-122478081D01*
X149510038Y-122470849D01*
X149490632Y-122461670D01*
X149472219Y-122450634D01*
X149454976Y-122437846D01*
X149439070Y-122423430D01*
X149424654Y-122407524D01*
X149411866Y-122390281D01*
X149400830Y-122371868D01*
X149391651Y-122352462D01*
X149384419Y-122332250D01*
X149379203Y-122311426D01*
X149376053Y-122290191D01*
X149375000Y-122268750D01*
X149375000Y-121831250D01*
X149376053Y-121809809D01*
X149379203Y-121788574D01*
X149384419Y-121767750D01*
X149391651Y-121747538D01*
X149400830Y-121728132D01*
X149411866Y-121709719D01*
X149424654Y-121692476D01*
X149439070Y-121676570D01*
X149454976Y-121662154D01*
X149472219Y-121649366D01*
X149490632Y-121638330D01*
X149510038Y-121629151D01*
X149530250Y-121621919D01*
X149551074Y-121616703D01*
X149572309Y-121613553D01*
X149593750Y-121612500D01*
X150106250Y-121612500D01*
X150127691Y-121613553D01*
X150127691Y-121613553D01*
G37*
D14*
G04 #@! TD*
G04 #@! TO.P,C2,2*
G04 #@! TO.N,Net-(C2-Pad2)*
X149850000Y-122050000D03*
D15*
G04 #@! TO.P,U1,1*
G04 #@! TO.N,Net-(R2-Pad2)*
X141300000Y-119100000D03*
G04 #@! TO.P,U1,2*
G04 #@! TO.N,GND*
X142250000Y-119100000D03*
G04 #@! TO.P,U1,3*
G04 #@! TO.N,Net-(R6-Pad2)*
X143200000Y-119100000D03*
G04 #@! TO.P,U1,4*
X143200000Y-116900000D03*
G04 #@! TO.P,U1,5*
G04 #@! TO.N,+9V*
X141300000Y-116900000D03*
G04 #@! TD*
G04 #@! TO.P,U2,5*
G04 #@! TO.N,Net-(U2-Pad5)*
X147750000Y-119100000D03*
G04 #@! TO.P,U2,6*
G04 #@! TO.N,+9V*
X148700000Y-119100000D03*
G04 #@! TO.P,U2,4*
G04 #@! TO.N,Net-(C2-Pad2)*
X146800000Y-119100000D03*
G04 #@! TO.P,U2,3*
G04 #@! TO.N,Net-(R8-Pad1)*
X146800000Y-116900000D03*
G04 #@! TO.P,U2,2*
G04 #@! TO.N,GND*
X147750000Y-116900000D03*
G04 #@! TO.P,U2,1*
G04 #@! TO.N,Net-(C2-Pad1)*
X148700000Y-116900000D03*
G04 #@! TD*
G04 #@! TO.P,U3,1*
G04 #@! TO.N,Net-(C4-Pad1)*
X144700000Y-110850000D03*
G04 #@! TO.P,U3,2*
G04 #@! TO.N,GND*
X145650000Y-110850000D03*
G04 #@! TO.P,U3,3*
G04 #@! TO.N,Net-(C2-Pad1)*
X146600000Y-110850000D03*
G04 #@! TO.P,U3,4*
G04 #@! TO.N,Net-(C4-Pad2)*
X146600000Y-108650000D03*
G04 #@! TO.P,U3,6*
G04 #@! TO.N,+9V*
X144700000Y-108650000D03*
G04 #@! TO.P,U3,5*
G04 #@! TO.N,Net-(U3-Pad5)*
X145650000Y-108650000D03*
G04 #@! TD*
D13*
G04 #@! TO.N,Net-(R10-Pad2)*
G04 #@! TO.C,R9*
G36*
X148127691Y-123201053D02*
X148148926Y-123204203D01*
X148169750Y-123209419D01*
X148189962Y-123216651D01*
X148209368Y-123225830D01*
X148227781Y-123236866D01*
X148245024Y-123249654D01*
X148260930Y-123264070D01*
X148275346Y-123279976D01*
X148288134Y-123297219D01*
X148299170Y-123315632D01*
X148308349Y-123335038D01*
X148315581Y-123355250D01*
X148320797Y-123376074D01*
X148323947Y-123397309D01*
X148325000Y-123418750D01*
X148325000Y-123856250D01*
X148323947Y-123877691D01*
X148320797Y-123898926D01*
X148315581Y-123919750D01*
X148308349Y-123939962D01*
X148299170Y-123959368D01*
X148288134Y-123977781D01*
X148275346Y-123995024D01*
X148260930Y-124010930D01*
X148245024Y-124025346D01*
X148227781Y-124038134D01*
X148209368Y-124049170D01*
X148189962Y-124058349D01*
X148169750Y-124065581D01*
X148148926Y-124070797D01*
X148127691Y-124073947D01*
X148106250Y-124075000D01*
X147593750Y-124075000D01*
X147572309Y-124073947D01*
X147551074Y-124070797D01*
X147530250Y-124065581D01*
X147510038Y-124058349D01*
X147490632Y-124049170D01*
X147472219Y-124038134D01*
X147454976Y-124025346D01*
X147439070Y-124010930D01*
X147424654Y-123995024D01*
X147411866Y-123977781D01*
X147400830Y-123959368D01*
X147391651Y-123939962D01*
X147384419Y-123919750D01*
X147379203Y-123898926D01*
X147376053Y-123877691D01*
X147375000Y-123856250D01*
X147375000Y-123418750D01*
X147376053Y-123397309D01*
X147379203Y-123376074D01*
X147384419Y-123355250D01*
X147391651Y-123335038D01*
X147400830Y-123315632D01*
X147411866Y-123297219D01*
X147424654Y-123279976D01*
X147439070Y-123264070D01*
X147454976Y-123249654D01*
X147472219Y-123236866D01*
X147490632Y-123225830D01*
X147510038Y-123216651D01*
X147530250Y-123209419D01*
X147551074Y-123204203D01*
X147572309Y-123201053D01*
X147593750Y-123200000D01*
X148106250Y-123200000D01*
X148127691Y-123201053D01*
X148127691Y-123201053D01*
G37*
D14*
G04 #@! TD*
G04 #@! TO.P,R9,1*
G04 #@! TO.N,Net-(R10-Pad2)*
X147850000Y-123637500D03*
D13*
G04 #@! TO.N,Net-(C2-Pad2)*
G04 #@! TO.C,R9*
G36*
X148127691Y-121626053D02*
X148148926Y-121629203D01*
X148169750Y-121634419D01*
X148189962Y-121641651D01*
X148209368Y-121650830D01*
X148227781Y-121661866D01*
X148245024Y-121674654D01*
X148260930Y-121689070D01*
X148275346Y-121704976D01*
X148288134Y-121722219D01*
X148299170Y-121740632D01*
X148308349Y-121760038D01*
X148315581Y-121780250D01*
X148320797Y-121801074D01*
X148323947Y-121822309D01*
X148325000Y-121843750D01*
X148325000Y-122281250D01*
X148323947Y-122302691D01*
X148320797Y-122323926D01*
X148315581Y-122344750D01*
X148308349Y-122364962D01*
X148299170Y-122384368D01*
X148288134Y-122402781D01*
X148275346Y-122420024D01*
X148260930Y-122435930D01*
X148245024Y-122450346D01*
X148227781Y-122463134D01*
X148209368Y-122474170D01*
X148189962Y-122483349D01*
X148169750Y-122490581D01*
X148148926Y-122495797D01*
X148127691Y-122498947D01*
X148106250Y-122500000D01*
X147593750Y-122500000D01*
X147572309Y-122498947D01*
X147551074Y-122495797D01*
X147530250Y-122490581D01*
X147510038Y-122483349D01*
X147490632Y-122474170D01*
X147472219Y-122463134D01*
X147454976Y-122450346D01*
X147439070Y-122435930D01*
X147424654Y-122420024D01*
X147411866Y-122402781D01*
X147400830Y-122384368D01*
X147391651Y-122364962D01*
X147384419Y-122344750D01*
X147379203Y-122323926D01*
X147376053Y-122302691D01*
X147375000Y-122281250D01*
X147375000Y-121843750D01*
X147376053Y-121822309D01*
X147379203Y-121801074D01*
X147384419Y-121780250D01*
X147391651Y-121760038D01*
X147400830Y-121740632D01*
X147411866Y-121722219D01*
X147424654Y-121704976D01*
X147439070Y-121689070D01*
X147454976Y-121674654D01*
X147472219Y-121661866D01*
X147490632Y-121650830D01*
X147510038Y-121641651D01*
X147530250Y-121634419D01*
X147551074Y-121629203D01*
X147572309Y-121626053D01*
X147593750Y-121625000D01*
X148106250Y-121625000D01*
X148127691Y-121626053D01*
X148127691Y-121626053D01*
G37*
D14*
G04 #@! TD*
G04 #@! TO.P,R9,2*
G04 #@! TO.N,Net-(C2-Pad2)*
X147850000Y-122062500D03*
D13*
G04 #@! TO.N,Net-(R6-Pad2)*
G04 #@! TO.C,R6*
G36*
X144127691Y-123201053D02*
X144148926Y-123204203D01*
X144169750Y-123209419D01*
X144189962Y-123216651D01*
X144209368Y-123225830D01*
X144227781Y-123236866D01*
X144245024Y-123249654D01*
X144260930Y-123264070D01*
X144275346Y-123279976D01*
X144288134Y-123297219D01*
X144299170Y-123315632D01*
X144308349Y-123335038D01*
X144315581Y-123355250D01*
X144320797Y-123376074D01*
X144323947Y-123397309D01*
X144325000Y-123418750D01*
X144325000Y-123856250D01*
X144323947Y-123877691D01*
X144320797Y-123898926D01*
X144315581Y-123919750D01*
X144308349Y-123939962D01*
X144299170Y-123959368D01*
X144288134Y-123977781D01*
X144275346Y-123995024D01*
X144260930Y-124010930D01*
X144245024Y-124025346D01*
X144227781Y-124038134D01*
X144209368Y-124049170D01*
X144189962Y-124058349D01*
X144169750Y-124065581D01*
X144148926Y-124070797D01*
X144127691Y-124073947D01*
X144106250Y-124075000D01*
X143593750Y-124075000D01*
X143572309Y-124073947D01*
X143551074Y-124070797D01*
X143530250Y-124065581D01*
X143510038Y-124058349D01*
X143490632Y-124049170D01*
X143472219Y-124038134D01*
X143454976Y-124025346D01*
X143439070Y-124010930D01*
X143424654Y-123995024D01*
X143411866Y-123977781D01*
X143400830Y-123959368D01*
X143391651Y-123939962D01*
X143384419Y-123919750D01*
X143379203Y-123898926D01*
X143376053Y-123877691D01*
X143375000Y-123856250D01*
X143375000Y-123418750D01*
X143376053Y-123397309D01*
X143379203Y-123376074D01*
X143384419Y-123355250D01*
X143391651Y-123335038D01*
X143400830Y-123315632D01*
X143411866Y-123297219D01*
X143424654Y-123279976D01*
X143439070Y-123264070D01*
X143454976Y-123249654D01*
X143472219Y-123236866D01*
X143490632Y-123225830D01*
X143510038Y-123216651D01*
X143530250Y-123209419D01*
X143551074Y-123204203D01*
X143572309Y-123201053D01*
X143593750Y-123200000D01*
X144106250Y-123200000D01*
X144127691Y-123201053D01*
X144127691Y-123201053D01*
G37*
D14*
G04 #@! TD*
G04 #@! TO.P,R6,2*
G04 #@! TO.N,Net-(R6-Pad2)*
X143850000Y-123637500D03*
D13*
G04 #@! TO.N,GNDREF*
G04 #@! TO.C,R6*
G36*
X144127691Y-121626053D02*
X144148926Y-121629203D01*
X144169750Y-121634419D01*
X144189962Y-121641651D01*
X144209368Y-121650830D01*
X144227781Y-121661866D01*
X144245024Y-121674654D01*
X144260930Y-121689070D01*
X144275346Y-121704976D01*
X144288134Y-121722219D01*
X144299170Y-121740632D01*
X144308349Y-121760038D01*
X144315581Y-121780250D01*
X144320797Y-121801074D01*
X144323947Y-121822309D01*
X144325000Y-121843750D01*
X144325000Y-122281250D01*
X144323947Y-122302691D01*
X144320797Y-122323926D01*
X144315581Y-122344750D01*
X144308349Y-122364962D01*
X144299170Y-122384368D01*
X144288134Y-122402781D01*
X144275346Y-122420024D01*
X144260930Y-122435930D01*
X144245024Y-122450346D01*
X144227781Y-122463134D01*
X144209368Y-122474170D01*
X144189962Y-122483349D01*
X144169750Y-122490581D01*
X144148926Y-122495797D01*
X144127691Y-122498947D01*
X144106250Y-122500000D01*
X143593750Y-122500000D01*
X143572309Y-122498947D01*
X143551074Y-122495797D01*
X143530250Y-122490581D01*
X143510038Y-122483349D01*
X143490632Y-122474170D01*
X143472219Y-122463134D01*
X143454976Y-122450346D01*
X143439070Y-122435930D01*
X143424654Y-122420024D01*
X143411866Y-122402781D01*
X143400830Y-122384368D01*
X143391651Y-122364962D01*
X143384419Y-122344750D01*
X143379203Y-122323926D01*
X143376053Y-122302691D01*
X143375000Y-122281250D01*
X143375000Y-121843750D01*
X143376053Y-121822309D01*
X143379203Y-121801074D01*
X143384419Y-121780250D01*
X143391651Y-121760038D01*
X143400830Y-121740632D01*
X143411866Y-121722219D01*
X143424654Y-121704976D01*
X143439070Y-121689070D01*
X143454976Y-121674654D01*
X143472219Y-121661866D01*
X143490632Y-121650830D01*
X143510038Y-121641651D01*
X143530250Y-121634419D01*
X143551074Y-121629203D01*
X143572309Y-121626053D01*
X143593750Y-121625000D01*
X144106250Y-121625000D01*
X144127691Y-121626053D01*
X144127691Y-121626053D01*
G37*
D14*
G04 #@! TD*
G04 #@! TO.P,R6,1*
G04 #@! TO.N,GNDREF*
X143850000Y-122062500D03*
D13*
G04 #@! TO.N,Net-(C2-Pad1)*
G04 #@! TO.C,R10*
G36*
X151027691Y-111526053D02*
X151048926Y-111529203D01*
X151069750Y-111534419D01*
X151089962Y-111541651D01*
X151109368Y-111550830D01*
X151127781Y-111561866D01*
X151145024Y-111574654D01*
X151160930Y-111589070D01*
X151175346Y-111604976D01*
X151188134Y-111622219D01*
X151199170Y-111640632D01*
X151208349Y-111660038D01*
X151215581Y-111680250D01*
X151220797Y-111701074D01*
X151223947Y-111722309D01*
X151225000Y-111743750D01*
X151225000Y-112181250D01*
X151223947Y-112202691D01*
X151220797Y-112223926D01*
X151215581Y-112244750D01*
X151208349Y-112264962D01*
X151199170Y-112284368D01*
X151188134Y-112302781D01*
X151175346Y-112320024D01*
X151160930Y-112335930D01*
X151145024Y-112350346D01*
X151127781Y-112363134D01*
X151109368Y-112374170D01*
X151089962Y-112383349D01*
X151069750Y-112390581D01*
X151048926Y-112395797D01*
X151027691Y-112398947D01*
X151006250Y-112400000D01*
X150493750Y-112400000D01*
X150472309Y-112398947D01*
X150451074Y-112395797D01*
X150430250Y-112390581D01*
X150410038Y-112383349D01*
X150390632Y-112374170D01*
X150372219Y-112363134D01*
X150354976Y-112350346D01*
X150339070Y-112335930D01*
X150324654Y-112320024D01*
X150311866Y-112302781D01*
X150300830Y-112284368D01*
X150291651Y-112264962D01*
X150284419Y-112244750D01*
X150279203Y-112223926D01*
X150276053Y-112202691D01*
X150275000Y-112181250D01*
X150275000Y-111743750D01*
X150276053Y-111722309D01*
X150279203Y-111701074D01*
X150284419Y-111680250D01*
X150291651Y-111660038D01*
X150300830Y-111640632D01*
X150311866Y-111622219D01*
X150324654Y-111604976D01*
X150339070Y-111589070D01*
X150354976Y-111574654D01*
X150372219Y-111561866D01*
X150390632Y-111550830D01*
X150410038Y-111541651D01*
X150430250Y-111534419D01*
X150451074Y-111529203D01*
X150472309Y-111526053D01*
X150493750Y-111525000D01*
X151006250Y-111525000D01*
X151027691Y-111526053D01*
X151027691Y-111526053D01*
G37*
D14*
G04 #@! TD*
G04 #@! TO.P,R10,1*
G04 #@! TO.N,Net-(C2-Pad1)*
X150750000Y-111962500D03*
D13*
G04 #@! TO.N,Net-(R10-Pad2)*
G04 #@! TO.C,R10*
G36*
X151027691Y-113101053D02*
X151048926Y-113104203D01*
X151069750Y-113109419D01*
X151089962Y-113116651D01*
X151109368Y-113125830D01*
X151127781Y-113136866D01*
X151145024Y-113149654D01*
X151160930Y-113164070D01*
X151175346Y-113179976D01*
X151188134Y-113197219D01*
X151199170Y-113215632D01*
X151208349Y-113235038D01*
X151215581Y-113255250D01*
X151220797Y-113276074D01*
X151223947Y-113297309D01*
X151225000Y-113318750D01*
X151225000Y-113756250D01*
X151223947Y-113777691D01*
X151220797Y-113798926D01*
X151215581Y-113819750D01*
X151208349Y-113839962D01*
X151199170Y-113859368D01*
X151188134Y-113877781D01*
X151175346Y-113895024D01*
X151160930Y-113910930D01*
X151145024Y-113925346D01*
X151127781Y-113938134D01*
X151109368Y-113949170D01*
X151089962Y-113958349D01*
X151069750Y-113965581D01*
X151048926Y-113970797D01*
X151027691Y-113973947D01*
X151006250Y-113975000D01*
X150493750Y-113975000D01*
X150472309Y-113973947D01*
X150451074Y-113970797D01*
X150430250Y-113965581D01*
X150410038Y-113958349D01*
X150390632Y-113949170D01*
X150372219Y-113938134D01*
X150354976Y-113925346D01*
X150339070Y-113910930D01*
X150324654Y-113895024D01*
X150311866Y-113877781D01*
X150300830Y-113859368D01*
X150291651Y-113839962D01*
X150284419Y-113819750D01*
X150279203Y-113798926D01*
X150276053Y-113777691D01*
X150275000Y-113756250D01*
X150275000Y-113318750D01*
X150276053Y-113297309D01*
X150279203Y-113276074D01*
X150284419Y-113255250D01*
X150291651Y-113235038D01*
X150300830Y-113215632D01*
X150311866Y-113197219D01*
X150324654Y-113179976D01*
X150339070Y-113164070D01*
X150354976Y-113149654D01*
X150372219Y-113136866D01*
X150390632Y-113125830D01*
X150410038Y-113116651D01*
X150430250Y-113109419D01*
X150451074Y-113104203D01*
X150472309Y-113101053D01*
X150493750Y-113100000D01*
X151006250Y-113100000D01*
X151027691Y-113101053D01*
X151027691Y-113101053D01*
G37*
D14*
G04 #@! TD*
G04 #@! TO.P,R10,2*
G04 #@! TO.N,Net-(R10-Pad2)*
X150750000Y-113537500D03*
D13*
G04 #@! TO.N,GNDREF*
G04 #@! TO.C,R4*
G36*
X135327691Y-97801053D02*
X135348926Y-97804203D01*
X135369750Y-97809419D01*
X135389962Y-97816651D01*
X135409368Y-97825830D01*
X135427781Y-97836866D01*
X135445024Y-97849654D01*
X135460930Y-97864070D01*
X135475346Y-97879976D01*
X135488134Y-97897219D01*
X135499170Y-97915632D01*
X135508349Y-97935038D01*
X135515581Y-97955250D01*
X135520797Y-97976074D01*
X135523947Y-97997309D01*
X135525000Y-98018750D01*
X135525000Y-98456250D01*
X135523947Y-98477691D01*
X135520797Y-98498926D01*
X135515581Y-98519750D01*
X135508349Y-98539962D01*
X135499170Y-98559368D01*
X135488134Y-98577781D01*
X135475346Y-98595024D01*
X135460930Y-98610930D01*
X135445024Y-98625346D01*
X135427781Y-98638134D01*
X135409368Y-98649170D01*
X135389962Y-98658349D01*
X135369750Y-98665581D01*
X135348926Y-98670797D01*
X135327691Y-98673947D01*
X135306250Y-98675000D01*
X134793750Y-98675000D01*
X134772309Y-98673947D01*
X134751074Y-98670797D01*
X134730250Y-98665581D01*
X134710038Y-98658349D01*
X134690632Y-98649170D01*
X134672219Y-98638134D01*
X134654976Y-98625346D01*
X134639070Y-98610930D01*
X134624654Y-98595024D01*
X134611866Y-98577781D01*
X134600830Y-98559368D01*
X134591651Y-98539962D01*
X134584419Y-98519750D01*
X134579203Y-98498926D01*
X134576053Y-98477691D01*
X134575000Y-98456250D01*
X134575000Y-98018750D01*
X134576053Y-97997309D01*
X134579203Y-97976074D01*
X134584419Y-97955250D01*
X134591651Y-97935038D01*
X134600830Y-97915632D01*
X134611866Y-97897219D01*
X134624654Y-97879976D01*
X134639070Y-97864070D01*
X134654976Y-97849654D01*
X134672219Y-97836866D01*
X134690632Y-97825830D01*
X134710038Y-97816651D01*
X134730250Y-97809419D01*
X134751074Y-97804203D01*
X134772309Y-97801053D01*
X134793750Y-97800000D01*
X135306250Y-97800000D01*
X135327691Y-97801053D01*
X135327691Y-97801053D01*
G37*
D14*
G04 #@! TD*
G04 #@! TO.P,R4,2*
G04 #@! TO.N,GNDREF*
X135050000Y-98237500D03*
D13*
G04 #@! TO.N,Net-(DP3T1-Pad4)*
G04 #@! TO.C,R4*
G36*
X135327691Y-96226053D02*
X135348926Y-96229203D01*
X135369750Y-96234419D01*
X135389962Y-96241651D01*
X135409368Y-96250830D01*
X135427781Y-96261866D01*
X135445024Y-96274654D01*
X135460930Y-96289070D01*
X135475346Y-96304976D01*
X135488134Y-96322219D01*
X135499170Y-96340632D01*
X135508349Y-96360038D01*
X135515581Y-96380250D01*
X135520797Y-96401074D01*
X135523947Y-96422309D01*
X135525000Y-96443750D01*
X135525000Y-96881250D01*
X135523947Y-96902691D01*
X135520797Y-96923926D01*
X135515581Y-96944750D01*
X135508349Y-96964962D01*
X135499170Y-96984368D01*
X135488134Y-97002781D01*
X135475346Y-97020024D01*
X135460930Y-97035930D01*
X135445024Y-97050346D01*
X135427781Y-97063134D01*
X135409368Y-97074170D01*
X135389962Y-97083349D01*
X135369750Y-97090581D01*
X135348926Y-97095797D01*
X135327691Y-97098947D01*
X135306250Y-97100000D01*
X134793750Y-97100000D01*
X134772309Y-97098947D01*
X134751074Y-97095797D01*
X134730250Y-97090581D01*
X134710038Y-97083349D01*
X134690632Y-97074170D01*
X134672219Y-97063134D01*
X134654976Y-97050346D01*
X134639070Y-97035930D01*
X134624654Y-97020024D01*
X134611866Y-97002781D01*
X134600830Y-96984368D01*
X134591651Y-96964962D01*
X134584419Y-96944750D01*
X134579203Y-96923926D01*
X134576053Y-96902691D01*
X134575000Y-96881250D01*
X134575000Y-96443750D01*
X134576053Y-96422309D01*
X134579203Y-96401074D01*
X134584419Y-96380250D01*
X134591651Y-96360038D01*
X134600830Y-96340632D01*
X134611866Y-96322219D01*
X134624654Y-96304976D01*
X134639070Y-96289070D01*
X134654976Y-96274654D01*
X134672219Y-96261866D01*
X134690632Y-96250830D01*
X134710038Y-96241651D01*
X134730250Y-96234419D01*
X134751074Y-96229203D01*
X134772309Y-96226053D01*
X134793750Y-96225000D01*
X135306250Y-96225000D01*
X135327691Y-96226053D01*
X135327691Y-96226053D01*
G37*
D14*
G04 #@! TD*
G04 #@! TO.P,R4,1*
G04 #@! TO.N,Net-(DP3T1-Pad4)*
X135050000Y-96662500D03*
D13*
G04 #@! TO.N,GNDREF*
G04 #@! TO.C,R7*
G36*
X152127691Y-123201053D02*
X152148926Y-123204203D01*
X152169750Y-123209419D01*
X152189962Y-123216651D01*
X152209368Y-123225830D01*
X152227781Y-123236866D01*
X152245024Y-123249654D01*
X152260930Y-123264070D01*
X152275346Y-123279976D01*
X152288134Y-123297219D01*
X152299170Y-123315632D01*
X152308349Y-123335038D01*
X152315581Y-123355250D01*
X152320797Y-123376074D01*
X152323947Y-123397309D01*
X152325000Y-123418750D01*
X152325000Y-123856250D01*
X152323947Y-123877691D01*
X152320797Y-123898926D01*
X152315581Y-123919750D01*
X152308349Y-123939962D01*
X152299170Y-123959368D01*
X152288134Y-123977781D01*
X152275346Y-123995024D01*
X152260930Y-124010930D01*
X152245024Y-124025346D01*
X152227781Y-124038134D01*
X152209368Y-124049170D01*
X152189962Y-124058349D01*
X152169750Y-124065581D01*
X152148926Y-124070797D01*
X152127691Y-124073947D01*
X152106250Y-124075000D01*
X151593750Y-124075000D01*
X151572309Y-124073947D01*
X151551074Y-124070797D01*
X151530250Y-124065581D01*
X151510038Y-124058349D01*
X151490632Y-124049170D01*
X151472219Y-124038134D01*
X151454976Y-124025346D01*
X151439070Y-124010930D01*
X151424654Y-123995024D01*
X151411866Y-123977781D01*
X151400830Y-123959368D01*
X151391651Y-123939962D01*
X151384419Y-123919750D01*
X151379203Y-123898926D01*
X151376053Y-123877691D01*
X151375000Y-123856250D01*
X151375000Y-123418750D01*
X151376053Y-123397309D01*
X151379203Y-123376074D01*
X151384419Y-123355250D01*
X151391651Y-123335038D01*
X151400830Y-123315632D01*
X151411866Y-123297219D01*
X151424654Y-123279976D01*
X151439070Y-123264070D01*
X151454976Y-123249654D01*
X151472219Y-123236866D01*
X151490632Y-123225830D01*
X151510038Y-123216651D01*
X151530250Y-123209419D01*
X151551074Y-123204203D01*
X151572309Y-123201053D01*
X151593750Y-123200000D01*
X152106250Y-123200000D01*
X152127691Y-123201053D01*
X152127691Y-123201053D01*
G37*
D14*
G04 #@! TD*
G04 #@! TO.P,R7,1*
G04 #@! TO.N,GNDREF*
X151850000Y-123637500D03*
D13*
G04 #@! TO.N,Net-(C2-Pad2)*
G04 #@! TO.C,R7*
G36*
X152127691Y-121626053D02*
X152148926Y-121629203D01*
X152169750Y-121634419D01*
X152189962Y-121641651D01*
X152209368Y-121650830D01*
X152227781Y-121661866D01*
X152245024Y-121674654D01*
X152260930Y-121689070D01*
X152275346Y-121704976D01*
X152288134Y-121722219D01*
X152299170Y-121740632D01*
X152308349Y-121760038D01*
X152315581Y-121780250D01*
X152320797Y-121801074D01*
X152323947Y-121822309D01*
X152325000Y-121843750D01*
X152325000Y-122281250D01*
X152323947Y-122302691D01*
X152320797Y-122323926D01*
X152315581Y-122344750D01*
X152308349Y-122364962D01*
X152299170Y-122384368D01*
X152288134Y-122402781D01*
X152275346Y-122420024D01*
X152260930Y-122435930D01*
X152245024Y-122450346D01*
X152227781Y-122463134D01*
X152209368Y-122474170D01*
X152189962Y-122483349D01*
X152169750Y-122490581D01*
X152148926Y-122495797D01*
X152127691Y-122498947D01*
X152106250Y-122500000D01*
X151593750Y-122500000D01*
X151572309Y-122498947D01*
X151551074Y-122495797D01*
X151530250Y-122490581D01*
X151510038Y-122483349D01*
X151490632Y-122474170D01*
X151472219Y-122463134D01*
X151454976Y-122450346D01*
X151439070Y-122435930D01*
X151424654Y-122420024D01*
X151411866Y-122402781D01*
X151400830Y-122384368D01*
X151391651Y-122364962D01*
X151384419Y-122344750D01*
X151379203Y-122323926D01*
X151376053Y-122302691D01*
X151375000Y-122281250D01*
X151375000Y-121843750D01*
X151376053Y-121822309D01*
X151379203Y-121801074D01*
X151384419Y-121780250D01*
X151391651Y-121760038D01*
X151400830Y-121740632D01*
X151411866Y-121722219D01*
X151424654Y-121704976D01*
X151439070Y-121689070D01*
X151454976Y-121674654D01*
X151472219Y-121661866D01*
X151490632Y-121650830D01*
X151510038Y-121641651D01*
X151530250Y-121634419D01*
X151551074Y-121629203D01*
X151572309Y-121626053D01*
X151593750Y-121625000D01*
X152106250Y-121625000D01*
X152127691Y-121626053D01*
X152127691Y-121626053D01*
G37*
D14*
G04 #@! TD*
G04 #@! TO.P,R7,2*
G04 #@! TO.N,Net-(C2-Pad2)*
X151850000Y-122062500D03*
D13*
G04 #@! TO.N,Net-(DP3T1-Pad6)*
G04 #@! TO.C,R8*
G36*
X146127691Y-121626053D02*
X146148926Y-121629203D01*
X146169750Y-121634419D01*
X146189962Y-121641651D01*
X146209368Y-121650830D01*
X146227781Y-121661866D01*
X146245024Y-121674654D01*
X146260930Y-121689070D01*
X146275346Y-121704976D01*
X146288134Y-121722219D01*
X146299170Y-121740632D01*
X146308349Y-121760038D01*
X146315581Y-121780250D01*
X146320797Y-121801074D01*
X146323947Y-121822309D01*
X146325000Y-121843750D01*
X146325000Y-122281250D01*
X146323947Y-122302691D01*
X146320797Y-122323926D01*
X146315581Y-122344750D01*
X146308349Y-122364962D01*
X146299170Y-122384368D01*
X146288134Y-122402781D01*
X146275346Y-122420024D01*
X146260930Y-122435930D01*
X146245024Y-122450346D01*
X146227781Y-122463134D01*
X146209368Y-122474170D01*
X146189962Y-122483349D01*
X146169750Y-122490581D01*
X146148926Y-122495797D01*
X146127691Y-122498947D01*
X146106250Y-122500000D01*
X145593750Y-122500000D01*
X145572309Y-122498947D01*
X145551074Y-122495797D01*
X145530250Y-122490581D01*
X145510038Y-122483349D01*
X145490632Y-122474170D01*
X145472219Y-122463134D01*
X145454976Y-122450346D01*
X145439070Y-122435930D01*
X145424654Y-122420024D01*
X145411866Y-122402781D01*
X145400830Y-122384368D01*
X145391651Y-122364962D01*
X145384419Y-122344750D01*
X145379203Y-122323926D01*
X145376053Y-122302691D01*
X145375000Y-122281250D01*
X145375000Y-121843750D01*
X145376053Y-121822309D01*
X145379203Y-121801074D01*
X145384419Y-121780250D01*
X145391651Y-121760038D01*
X145400830Y-121740632D01*
X145411866Y-121722219D01*
X145424654Y-121704976D01*
X145439070Y-121689070D01*
X145454976Y-121674654D01*
X145472219Y-121661866D01*
X145490632Y-121650830D01*
X145510038Y-121641651D01*
X145530250Y-121634419D01*
X145551074Y-121629203D01*
X145572309Y-121626053D01*
X145593750Y-121625000D01*
X146106250Y-121625000D01*
X146127691Y-121626053D01*
X146127691Y-121626053D01*
G37*
D14*
G04 #@! TD*
G04 #@! TO.P,R8,2*
G04 #@! TO.N,Net-(DP3T1-Pad6)*
X145850000Y-122062500D03*
D13*
G04 #@! TO.N,Net-(R8-Pad1)*
G04 #@! TO.C,R8*
G36*
X146127691Y-123201053D02*
X146148926Y-123204203D01*
X146169750Y-123209419D01*
X146189962Y-123216651D01*
X146209368Y-123225830D01*
X146227781Y-123236866D01*
X146245024Y-123249654D01*
X146260930Y-123264070D01*
X146275346Y-123279976D01*
X146288134Y-123297219D01*
X146299170Y-123315632D01*
X146308349Y-123335038D01*
X146315581Y-123355250D01*
X146320797Y-123376074D01*
X146323947Y-123397309D01*
X146325000Y-123418750D01*
X146325000Y-123856250D01*
X146323947Y-123877691D01*
X146320797Y-123898926D01*
X146315581Y-123919750D01*
X146308349Y-123939962D01*
X146299170Y-123959368D01*
X146288134Y-123977781D01*
X146275346Y-123995024D01*
X146260930Y-124010930D01*
X146245024Y-124025346D01*
X146227781Y-124038134D01*
X146209368Y-124049170D01*
X146189962Y-124058349D01*
X146169750Y-124065581D01*
X146148926Y-124070797D01*
X146127691Y-124073947D01*
X146106250Y-124075000D01*
X145593750Y-124075000D01*
X145572309Y-124073947D01*
X145551074Y-124070797D01*
X145530250Y-124065581D01*
X145510038Y-124058349D01*
X145490632Y-124049170D01*
X145472219Y-124038134D01*
X145454976Y-124025346D01*
X145439070Y-124010930D01*
X145424654Y-123995024D01*
X145411866Y-123977781D01*
X145400830Y-123959368D01*
X145391651Y-123939962D01*
X145384419Y-123919750D01*
X145379203Y-123898926D01*
X145376053Y-123877691D01*
X145375000Y-123856250D01*
X145375000Y-123418750D01*
X145376053Y-123397309D01*
X145379203Y-123376074D01*
X145384419Y-123355250D01*
X145391651Y-123335038D01*
X145400830Y-123315632D01*
X145411866Y-123297219D01*
X145424654Y-123279976D01*
X145439070Y-123264070D01*
X145454976Y-123249654D01*
X145472219Y-123236866D01*
X145490632Y-123225830D01*
X145510038Y-123216651D01*
X145530250Y-123209419D01*
X145551074Y-123204203D01*
X145572309Y-123201053D01*
X145593750Y-123200000D01*
X146106250Y-123200000D01*
X146127691Y-123201053D01*
X146127691Y-123201053D01*
G37*
D14*
G04 #@! TD*
G04 #@! TO.P,R8,1*
G04 #@! TO.N,Net-(R8-Pad1)*
X145850000Y-123637500D03*
D13*
G04 #@! TO.N,Net-(DP3T1-Pad2)*
G04 #@! TO.C,R5*
G36*
X137327691Y-96226053D02*
X137348926Y-96229203D01*
X137369750Y-96234419D01*
X137389962Y-96241651D01*
X137409368Y-96250830D01*
X137427781Y-96261866D01*
X137445024Y-96274654D01*
X137460930Y-96289070D01*
X137475346Y-96304976D01*
X137488134Y-96322219D01*
X137499170Y-96340632D01*
X137508349Y-96360038D01*
X137515581Y-96380250D01*
X137520797Y-96401074D01*
X137523947Y-96422309D01*
X137525000Y-96443750D01*
X137525000Y-96881250D01*
X137523947Y-96902691D01*
X137520797Y-96923926D01*
X137515581Y-96944750D01*
X137508349Y-96964962D01*
X137499170Y-96984368D01*
X137488134Y-97002781D01*
X137475346Y-97020024D01*
X137460930Y-97035930D01*
X137445024Y-97050346D01*
X137427781Y-97063134D01*
X137409368Y-97074170D01*
X137389962Y-97083349D01*
X137369750Y-97090581D01*
X137348926Y-97095797D01*
X137327691Y-97098947D01*
X137306250Y-97100000D01*
X136793750Y-97100000D01*
X136772309Y-97098947D01*
X136751074Y-97095797D01*
X136730250Y-97090581D01*
X136710038Y-97083349D01*
X136690632Y-97074170D01*
X136672219Y-97063134D01*
X136654976Y-97050346D01*
X136639070Y-97035930D01*
X136624654Y-97020024D01*
X136611866Y-97002781D01*
X136600830Y-96984368D01*
X136591651Y-96964962D01*
X136584419Y-96944750D01*
X136579203Y-96923926D01*
X136576053Y-96902691D01*
X136575000Y-96881250D01*
X136575000Y-96443750D01*
X136576053Y-96422309D01*
X136579203Y-96401074D01*
X136584419Y-96380250D01*
X136591651Y-96360038D01*
X136600830Y-96340632D01*
X136611866Y-96322219D01*
X136624654Y-96304976D01*
X136639070Y-96289070D01*
X136654976Y-96274654D01*
X136672219Y-96261866D01*
X136690632Y-96250830D01*
X136710038Y-96241651D01*
X136730250Y-96234419D01*
X136751074Y-96229203D01*
X136772309Y-96226053D01*
X136793750Y-96225000D01*
X137306250Y-96225000D01*
X137327691Y-96226053D01*
X137327691Y-96226053D01*
G37*
D14*
G04 #@! TD*
G04 #@! TO.P,R5,1*
G04 #@! TO.N,Net-(DP3T1-Pad2)*
X137050000Y-96662500D03*
D13*
G04 #@! TO.N,Net-(DP3T1-Pad4)*
G04 #@! TO.C,R5*
G36*
X137327691Y-97801053D02*
X137348926Y-97804203D01*
X137369750Y-97809419D01*
X137389962Y-97816651D01*
X137409368Y-97825830D01*
X137427781Y-97836866D01*
X137445024Y-97849654D01*
X137460930Y-97864070D01*
X137475346Y-97879976D01*
X137488134Y-97897219D01*
X137499170Y-97915632D01*
X137508349Y-97935038D01*
X137515581Y-97955250D01*
X137520797Y-97976074D01*
X137523947Y-97997309D01*
X137525000Y-98018750D01*
X137525000Y-98456250D01*
X137523947Y-98477691D01*
X137520797Y-98498926D01*
X137515581Y-98519750D01*
X137508349Y-98539962D01*
X137499170Y-98559368D01*
X137488134Y-98577781D01*
X137475346Y-98595024D01*
X137460930Y-98610930D01*
X137445024Y-98625346D01*
X137427781Y-98638134D01*
X137409368Y-98649170D01*
X137389962Y-98658349D01*
X137369750Y-98665581D01*
X137348926Y-98670797D01*
X137327691Y-98673947D01*
X137306250Y-98675000D01*
X136793750Y-98675000D01*
X136772309Y-98673947D01*
X136751074Y-98670797D01*
X136730250Y-98665581D01*
X136710038Y-98658349D01*
X136690632Y-98649170D01*
X136672219Y-98638134D01*
X136654976Y-98625346D01*
X136639070Y-98610930D01*
X136624654Y-98595024D01*
X136611866Y-98577781D01*
X136600830Y-98559368D01*
X136591651Y-98539962D01*
X136584419Y-98519750D01*
X136579203Y-98498926D01*
X136576053Y-98477691D01*
X136575000Y-98456250D01*
X136575000Y-98018750D01*
X136576053Y-97997309D01*
X136579203Y-97976074D01*
X136584419Y-97955250D01*
X136591651Y-97935038D01*
X136600830Y-97915632D01*
X136611866Y-97897219D01*
X136624654Y-97879976D01*
X136639070Y-97864070D01*
X136654976Y-97849654D01*
X136672219Y-97836866D01*
X136690632Y-97825830D01*
X136710038Y-97816651D01*
X136730250Y-97809419D01*
X136751074Y-97804203D01*
X136772309Y-97801053D01*
X136793750Y-97800000D01*
X137306250Y-97800000D01*
X137327691Y-97801053D01*
X137327691Y-97801053D01*
G37*
D14*
G04 #@! TD*
G04 #@! TO.P,R5,2*
G04 #@! TO.N,Net-(DP3T1-Pad4)*
X137050000Y-98237500D03*
D13*
G04 #@! TO.N,Net-(C4-Pad1)*
G04 #@! TO.C,R14*
G36*
X157277691Y-108563553D02*
X157298926Y-108566703D01*
X157319750Y-108571919D01*
X157339962Y-108579151D01*
X157359368Y-108588330D01*
X157377781Y-108599366D01*
X157395024Y-108612154D01*
X157410930Y-108626570D01*
X157425346Y-108642476D01*
X157438134Y-108659719D01*
X157449170Y-108678132D01*
X157458349Y-108697538D01*
X157465581Y-108717750D01*
X157470797Y-108738574D01*
X157473947Y-108759809D01*
X157475000Y-108781250D01*
X157475000Y-109218750D01*
X157473947Y-109240191D01*
X157470797Y-109261426D01*
X157465581Y-109282250D01*
X157458349Y-109302462D01*
X157449170Y-109321868D01*
X157438134Y-109340281D01*
X157425346Y-109357524D01*
X157410930Y-109373430D01*
X157395024Y-109387846D01*
X157377781Y-109400634D01*
X157359368Y-109411670D01*
X157339962Y-109420849D01*
X157319750Y-109428081D01*
X157298926Y-109433297D01*
X157277691Y-109436447D01*
X157256250Y-109437500D01*
X156743750Y-109437500D01*
X156722309Y-109436447D01*
X156701074Y-109433297D01*
X156680250Y-109428081D01*
X156660038Y-109420849D01*
X156640632Y-109411670D01*
X156622219Y-109400634D01*
X156604976Y-109387846D01*
X156589070Y-109373430D01*
X156574654Y-109357524D01*
X156561866Y-109340281D01*
X156550830Y-109321868D01*
X156541651Y-109302462D01*
X156534419Y-109282250D01*
X156529203Y-109261426D01*
X156526053Y-109240191D01*
X156525000Y-109218750D01*
X156525000Y-108781250D01*
X156526053Y-108759809D01*
X156529203Y-108738574D01*
X156534419Y-108717750D01*
X156541651Y-108697538D01*
X156550830Y-108678132D01*
X156561866Y-108659719D01*
X156574654Y-108642476D01*
X156589070Y-108626570D01*
X156604976Y-108612154D01*
X156622219Y-108599366D01*
X156640632Y-108588330D01*
X156660038Y-108579151D01*
X156680250Y-108571919D01*
X156701074Y-108566703D01*
X156722309Y-108563553D01*
X156743750Y-108562500D01*
X157256250Y-108562500D01*
X157277691Y-108563553D01*
X157277691Y-108563553D01*
G37*
D14*
G04 #@! TD*
G04 #@! TO.P,R14,2*
G04 #@! TO.N,Net-(C4-Pad1)*
X157000000Y-109000000D03*
D13*
G04 #@! TO.N,Net-(C6-Pad1)*
G04 #@! TO.C,R14*
G36*
X157277691Y-106988553D02*
X157298926Y-106991703D01*
X157319750Y-106996919D01*
X157339962Y-107004151D01*
X157359368Y-107013330D01*
X157377781Y-107024366D01*
X157395024Y-107037154D01*
X157410930Y-107051570D01*
X157425346Y-107067476D01*
X157438134Y-107084719D01*
X157449170Y-107103132D01*
X157458349Y-107122538D01*
X157465581Y-107142750D01*
X157470797Y-107163574D01*
X157473947Y-107184809D01*
X157475000Y-107206250D01*
X157475000Y-107643750D01*
X157473947Y-107665191D01*
X157470797Y-107686426D01*
X157465581Y-107707250D01*
X157458349Y-107727462D01*
X157449170Y-107746868D01*
X157438134Y-107765281D01*
X157425346Y-107782524D01*
X157410930Y-107798430D01*
X157395024Y-107812846D01*
X157377781Y-107825634D01*
X157359368Y-107836670D01*
X157339962Y-107845849D01*
X157319750Y-107853081D01*
X157298926Y-107858297D01*
X157277691Y-107861447D01*
X157256250Y-107862500D01*
X156743750Y-107862500D01*
X156722309Y-107861447D01*
X156701074Y-107858297D01*
X156680250Y-107853081D01*
X156660038Y-107845849D01*
X156640632Y-107836670D01*
X156622219Y-107825634D01*
X156604976Y-107812846D01*
X156589070Y-107798430D01*
X156574654Y-107782524D01*
X156561866Y-107765281D01*
X156550830Y-107746868D01*
X156541651Y-107727462D01*
X156534419Y-107707250D01*
X156529203Y-107686426D01*
X156526053Y-107665191D01*
X156525000Y-107643750D01*
X156525000Y-107206250D01*
X156526053Y-107184809D01*
X156529203Y-107163574D01*
X156534419Y-107142750D01*
X156541651Y-107122538D01*
X156550830Y-107103132D01*
X156561866Y-107084719D01*
X156574654Y-107067476D01*
X156589070Y-107051570D01*
X156604976Y-107037154D01*
X156622219Y-107024366D01*
X156640632Y-107013330D01*
X156660038Y-107004151D01*
X156680250Y-106996919D01*
X156701074Y-106991703D01*
X156722309Y-106988553D01*
X156743750Y-106987500D01*
X157256250Y-106987500D01*
X157277691Y-106988553D01*
X157277691Y-106988553D01*
G37*
D14*
G04 #@! TD*
G04 #@! TO.P,R14,1*
G04 #@! TO.N,Net-(C6-Pad1)*
X157000000Y-107425000D03*
D13*
G04 #@! TO.N,Net-(C4-Pad1)*
G04 #@! TO.C,R13*
G36*
X154127691Y-123201053D02*
X154148926Y-123204203D01*
X154169750Y-123209419D01*
X154189962Y-123216651D01*
X154209368Y-123225830D01*
X154227781Y-123236866D01*
X154245024Y-123249654D01*
X154260930Y-123264070D01*
X154275346Y-123279976D01*
X154288134Y-123297219D01*
X154299170Y-123315632D01*
X154308349Y-123335038D01*
X154315581Y-123355250D01*
X154320797Y-123376074D01*
X154323947Y-123397309D01*
X154325000Y-123418750D01*
X154325000Y-123856250D01*
X154323947Y-123877691D01*
X154320797Y-123898926D01*
X154315581Y-123919750D01*
X154308349Y-123939962D01*
X154299170Y-123959368D01*
X154288134Y-123977781D01*
X154275346Y-123995024D01*
X154260930Y-124010930D01*
X154245024Y-124025346D01*
X154227781Y-124038134D01*
X154209368Y-124049170D01*
X154189962Y-124058349D01*
X154169750Y-124065581D01*
X154148926Y-124070797D01*
X154127691Y-124073947D01*
X154106250Y-124075000D01*
X153593750Y-124075000D01*
X153572309Y-124073947D01*
X153551074Y-124070797D01*
X153530250Y-124065581D01*
X153510038Y-124058349D01*
X153490632Y-124049170D01*
X153472219Y-124038134D01*
X153454976Y-124025346D01*
X153439070Y-124010930D01*
X153424654Y-123995024D01*
X153411866Y-123977781D01*
X153400830Y-123959368D01*
X153391651Y-123939962D01*
X153384419Y-123919750D01*
X153379203Y-123898926D01*
X153376053Y-123877691D01*
X153375000Y-123856250D01*
X153375000Y-123418750D01*
X153376053Y-123397309D01*
X153379203Y-123376074D01*
X153384419Y-123355250D01*
X153391651Y-123335038D01*
X153400830Y-123315632D01*
X153411866Y-123297219D01*
X153424654Y-123279976D01*
X153439070Y-123264070D01*
X153454976Y-123249654D01*
X153472219Y-123236866D01*
X153490632Y-123225830D01*
X153510038Y-123216651D01*
X153530250Y-123209419D01*
X153551074Y-123204203D01*
X153572309Y-123201053D01*
X153593750Y-123200000D01*
X154106250Y-123200000D01*
X154127691Y-123201053D01*
X154127691Y-123201053D01*
G37*
D14*
G04 #@! TD*
G04 #@! TO.P,R13,1*
G04 #@! TO.N,Net-(C4-Pad1)*
X153850000Y-123637500D03*
D13*
G04 #@! TO.N,Net-(R12-Pad1)*
G04 #@! TO.C,R13*
G36*
X154127691Y-121626053D02*
X154148926Y-121629203D01*
X154169750Y-121634419D01*
X154189962Y-121641651D01*
X154209368Y-121650830D01*
X154227781Y-121661866D01*
X154245024Y-121674654D01*
X154260930Y-121689070D01*
X154275346Y-121704976D01*
X154288134Y-121722219D01*
X154299170Y-121740632D01*
X154308349Y-121760038D01*
X154315581Y-121780250D01*
X154320797Y-121801074D01*
X154323947Y-121822309D01*
X154325000Y-121843750D01*
X154325000Y-122281250D01*
X154323947Y-122302691D01*
X154320797Y-122323926D01*
X154315581Y-122344750D01*
X154308349Y-122364962D01*
X154299170Y-122384368D01*
X154288134Y-122402781D01*
X154275346Y-122420024D01*
X154260930Y-122435930D01*
X154245024Y-122450346D01*
X154227781Y-122463134D01*
X154209368Y-122474170D01*
X154189962Y-122483349D01*
X154169750Y-122490581D01*
X154148926Y-122495797D01*
X154127691Y-122498947D01*
X154106250Y-122500000D01*
X153593750Y-122500000D01*
X153572309Y-122498947D01*
X153551074Y-122495797D01*
X153530250Y-122490581D01*
X153510038Y-122483349D01*
X153490632Y-122474170D01*
X153472219Y-122463134D01*
X153454976Y-122450346D01*
X153439070Y-122435930D01*
X153424654Y-122420024D01*
X153411866Y-122402781D01*
X153400830Y-122384368D01*
X153391651Y-122364962D01*
X153384419Y-122344750D01*
X153379203Y-122323926D01*
X153376053Y-122302691D01*
X153375000Y-122281250D01*
X153375000Y-121843750D01*
X153376053Y-121822309D01*
X153379203Y-121801074D01*
X153384419Y-121780250D01*
X153391651Y-121760038D01*
X153400830Y-121740632D01*
X153411866Y-121722219D01*
X153424654Y-121704976D01*
X153439070Y-121689070D01*
X153454976Y-121674654D01*
X153472219Y-121661866D01*
X153490632Y-121650830D01*
X153510038Y-121641651D01*
X153530250Y-121634419D01*
X153551074Y-121629203D01*
X153572309Y-121626053D01*
X153593750Y-121625000D01*
X154106250Y-121625000D01*
X154127691Y-121626053D01*
X154127691Y-121626053D01*
G37*
D14*
G04 #@! TD*
G04 #@! TO.P,R13,2*
G04 #@! TO.N,Net-(R12-Pad1)*
X153850000Y-122062500D03*
D13*
G04 #@! TO.N,GND*
G04 #@! TO.C,R3*
G36*
X142127691Y-123201053D02*
X142148926Y-123204203D01*
X142169750Y-123209419D01*
X142189962Y-123216651D01*
X142209368Y-123225830D01*
X142227781Y-123236866D01*
X142245024Y-123249654D01*
X142260930Y-123264070D01*
X142275346Y-123279976D01*
X142288134Y-123297219D01*
X142299170Y-123315632D01*
X142308349Y-123335038D01*
X142315581Y-123355250D01*
X142320797Y-123376074D01*
X142323947Y-123397309D01*
X142325000Y-123418750D01*
X142325000Y-123856250D01*
X142323947Y-123877691D01*
X142320797Y-123898926D01*
X142315581Y-123919750D01*
X142308349Y-123939962D01*
X142299170Y-123959368D01*
X142288134Y-123977781D01*
X142275346Y-123995024D01*
X142260930Y-124010930D01*
X142245024Y-124025346D01*
X142227781Y-124038134D01*
X142209368Y-124049170D01*
X142189962Y-124058349D01*
X142169750Y-124065581D01*
X142148926Y-124070797D01*
X142127691Y-124073947D01*
X142106250Y-124075000D01*
X141593750Y-124075000D01*
X141572309Y-124073947D01*
X141551074Y-124070797D01*
X141530250Y-124065581D01*
X141510038Y-124058349D01*
X141490632Y-124049170D01*
X141472219Y-124038134D01*
X141454976Y-124025346D01*
X141439070Y-124010930D01*
X141424654Y-123995024D01*
X141411866Y-123977781D01*
X141400830Y-123959368D01*
X141391651Y-123939962D01*
X141384419Y-123919750D01*
X141379203Y-123898926D01*
X141376053Y-123877691D01*
X141375000Y-123856250D01*
X141375000Y-123418750D01*
X141376053Y-123397309D01*
X141379203Y-123376074D01*
X141384419Y-123355250D01*
X141391651Y-123335038D01*
X141400830Y-123315632D01*
X141411866Y-123297219D01*
X141424654Y-123279976D01*
X141439070Y-123264070D01*
X141454976Y-123249654D01*
X141472219Y-123236866D01*
X141490632Y-123225830D01*
X141510038Y-123216651D01*
X141530250Y-123209419D01*
X141551074Y-123204203D01*
X141572309Y-123201053D01*
X141593750Y-123200000D01*
X142106250Y-123200000D01*
X142127691Y-123201053D01*
X142127691Y-123201053D01*
G37*
D14*
G04 #@! TD*
G04 #@! TO.P,R3,2*
G04 #@! TO.N,GND*
X141850000Y-123637500D03*
D13*
G04 #@! TO.N,Net-(R2-Pad2)*
G04 #@! TO.C,R3*
G36*
X142127691Y-121626053D02*
X142148926Y-121629203D01*
X142169750Y-121634419D01*
X142189962Y-121641651D01*
X142209368Y-121650830D01*
X142227781Y-121661866D01*
X142245024Y-121674654D01*
X142260930Y-121689070D01*
X142275346Y-121704976D01*
X142288134Y-121722219D01*
X142299170Y-121740632D01*
X142308349Y-121760038D01*
X142315581Y-121780250D01*
X142320797Y-121801074D01*
X142323947Y-121822309D01*
X142325000Y-121843750D01*
X142325000Y-122281250D01*
X142323947Y-122302691D01*
X142320797Y-122323926D01*
X142315581Y-122344750D01*
X142308349Y-122364962D01*
X142299170Y-122384368D01*
X142288134Y-122402781D01*
X142275346Y-122420024D01*
X142260930Y-122435930D01*
X142245024Y-122450346D01*
X142227781Y-122463134D01*
X142209368Y-122474170D01*
X142189962Y-122483349D01*
X142169750Y-122490581D01*
X142148926Y-122495797D01*
X142127691Y-122498947D01*
X142106250Y-122500000D01*
X141593750Y-122500000D01*
X141572309Y-122498947D01*
X141551074Y-122495797D01*
X141530250Y-122490581D01*
X141510038Y-122483349D01*
X141490632Y-122474170D01*
X141472219Y-122463134D01*
X141454976Y-122450346D01*
X141439070Y-122435930D01*
X141424654Y-122420024D01*
X141411866Y-122402781D01*
X141400830Y-122384368D01*
X141391651Y-122364962D01*
X141384419Y-122344750D01*
X141379203Y-122323926D01*
X141376053Y-122302691D01*
X141375000Y-122281250D01*
X141375000Y-121843750D01*
X141376053Y-121822309D01*
X141379203Y-121801074D01*
X141384419Y-121780250D01*
X141391651Y-121760038D01*
X141400830Y-121740632D01*
X141411866Y-121722219D01*
X141424654Y-121704976D01*
X141439070Y-121689070D01*
X141454976Y-121674654D01*
X141472219Y-121661866D01*
X141490632Y-121650830D01*
X141510038Y-121641651D01*
X141530250Y-121634419D01*
X141551074Y-121629203D01*
X141572309Y-121626053D01*
X141593750Y-121625000D01*
X142106250Y-121625000D01*
X142127691Y-121626053D01*
X142127691Y-121626053D01*
G37*
D14*
G04 #@! TD*
G04 #@! TO.P,R3,1*
G04 #@! TO.N,Net-(R2-Pad2)*
X141850000Y-122062500D03*
D13*
G04 #@! TO.N,Net-(R2-Pad2)*
G04 #@! TO.C,R2*
G36*
X140127691Y-123201053D02*
X140148926Y-123204203D01*
X140169750Y-123209419D01*
X140189962Y-123216651D01*
X140209368Y-123225830D01*
X140227781Y-123236866D01*
X140245024Y-123249654D01*
X140260930Y-123264070D01*
X140275346Y-123279976D01*
X140288134Y-123297219D01*
X140299170Y-123315632D01*
X140308349Y-123335038D01*
X140315581Y-123355250D01*
X140320797Y-123376074D01*
X140323947Y-123397309D01*
X140325000Y-123418750D01*
X140325000Y-123856250D01*
X140323947Y-123877691D01*
X140320797Y-123898926D01*
X140315581Y-123919750D01*
X140308349Y-123939962D01*
X140299170Y-123959368D01*
X140288134Y-123977781D01*
X140275346Y-123995024D01*
X140260930Y-124010930D01*
X140245024Y-124025346D01*
X140227781Y-124038134D01*
X140209368Y-124049170D01*
X140189962Y-124058349D01*
X140169750Y-124065581D01*
X140148926Y-124070797D01*
X140127691Y-124073947D01*
X140106250Y-124075000D01*
X139593750Y-124075000D01*
X139572309Y-124073947D01*
X139551074Y-124070797D01*
X139530250Y-124065581D01*
X139510038Y-124058349D01*
X139490632Y-124049170D01*
X139472219Y-124038134D01*
X139454976Y-124025346D01*
X139439070Y-124010930D01*
X139424654Y-123995024D01*
X139411866Y-123977781D01*
X139400830Y-123959368D01*
X139391651Y-123939962D01*
X139384419Y-123919750D01*
X139379203Y-123898926D01*
X139376053Y-123877691D01*
X139375000Y-123856250D01*
X139375000Y-123418750D01*
X139376053Y-123397309D01*
X139379203Y-123376074D01*
X139384419Y-123355250D01*
X139391651Y-123335038D01*
X139400830Y-123315632D01*
X139411866Y-123297219D01*
X139424654Y-123279976D01*
X139439070Y-123264070D01*
X139454976Y-123249654D01*
X139472219Y-123236866D01*
X139490632Y-123225830D01*
X139510038Y-123216651D01*
X139530250Y-123209419D01*
X139551074Y-123204203D01*
X139572309Y-123201053D01*
X139593750Y-123200000D01*
X140106250Y-123200000D01*
X140127691Y-123201053D01*
X140127691Y-123201053D01*
G37*
D14*
G04 #@! TD*
G04 #@! TO.P,R2,2*
G04 #@! TO.N,Net-(R2-Pad2)*
X139850000Y-123637500D03*
D13*
G04 #@! TO.N,+9V*
G04 #@! TO.C,R2*
G36*
X140127691Y-121626053D02*
X140148926Y-121629203D01*
X140169750Y-121634419D01*
X140189962Y-121641651D01*
X140209368Y-121650830D01*
X140227781Y-121661866D01*
X140245024Y-121674654D01*
X140260930Y-121689070D01*
X140275346Y-121704976D01*
X140288134Y-121722219D01*
X140299170Y-121740632D01*
X140308349Y-121760038D01*
X140315581Y-121780250D01*
X140320797Y-121801074D01*
X140323947Y-121822309D01*
X140325000Y-121843750D01*
X140325000Y-122281250D01*
X140323947Y-122302691D01*
X140320797Y-122323926D01*
X140315581Y-122344750D01*
X140308349Y-122364962D01*
X140299170Y-122384368D01*
X140288134Y-122402781D01*
X140275346Y-122420024D01*
X140260930Y-122435930D01*
X140245024Y-122450346D01*
X140227781Y-122463134D01*
X140209368Y-122474170D01*
X140189962Y-122483349D01*
X140169750Y-122490581D01*
X140148926Y-122495797D01*
X140127691Y-122498947D01*
X140106250Y-122500000D01*
X139593750Y-122500000D01*
X139572309Y-122498947D01*
X139551074Y-122495797D01*
X139530250Y-122490581D01*
X139510038Y-122483349D01*
X139490632Y-122474170D01*
X139472219Y-122463134D01*
X139454976Y-122450346D01*
X139439070Y-122435930D01*
X139424654Y-122420024D01*
X139411866Y-122402781D01*
X139400830Y-122384368D01*
X139391651Y-122364962D01*
X139384419Y-122344750D01*
X139379203Y-122323926D01*
X139376053Y-122302691D01*
X139375000Y-122281250D01*
X139375000Y-121843750D01*
X139376053Y-121822309D01*
X139379203Y-121801074D01*
X139384419Y-121780250D01*
X139391651Y-121760038D01*
X139400830Y-121740632D01*
X139411866Y-121722219D01*
X139424654Y-121704976D01*
X139439070Y-121689070D01*
X139454976Y-121674654D01*
X139472219Y-121661866D01*
X139490632Y-121650830D01*
X139510038Y-121641651D01*
X139530250Y-121634419D01*
X139551074Y-121629203D01*
X139572309Y-121626053D01*
X139593750Y-121625000D01*
X140106250Y-121625000D01*
X140127691Y-121626053D01*
X140127691Y-121626053D01*
G37*
D14*
G04 #@! TD*
G04 #@! TO.P,R2,1*
G04 #@! TO.N,+9V*
X139850000Y-122062500D03*
D13*
G04 #@! TO.N,Net-(CON1-Pad1)*
G04 #@! TO.C,R1*
G36*
X133327691Y-96186053D02*
X133348926Y-96189203D01*
X133369750Y-96194419D01*
X133389962Y-96201651D01*
X133409368Y-96210830D01*
X133427781Y-96221866D01*
X133445024Y-96234654D01*
X133460930Y-96249070D01*
X133475346Y-96264976D01*
X133488134Y-96282219D01*
X133499170Y-96300632D01*
X133508349Y-96320038D01*
X133515581Y-96340250D01*
X133520797Y-96361074D01*
X133523947Y-96382309D01*
X133525000Y-96403750D01*
X133525000Y-96841250D01*
X133523947Y-96862691D01*
X133520797Y-96883926D01*
X133515581Y-96904750D01*
X133508349Y-96924962D01*
X133499170Y-96944368D01*
X133488134Y-96962781D01*
X133475346Y-96980024D01*
X133460930Y-96995930D01*
X133445024Y-97010346D01*
X133427781Y-97023134D01*
X133409368Y-97034170D01*
X133389962Y-97043349D01*
X133369750Y-97050581D01*
X133348926Y-97055797D01*
X133327691Y-97058947D01*
X133306250Y-97060000D01*
X132793750Y-97060000D01*
X132772309Y-97058947D01*
X132751074Y-97055797D01*
X132730250Y-97050581D01*
X132710038Y-97043349D01*
X132690632Y-97034170D01*
X132672219Y-97023134D01*
X132654976Y-97010346D01*
X132639070Y-96995930D01*
X132624654Y-96980024D01*
X132611866Y-96962781D01*
X132600830Y-96944368D01*
X132591651Y-96924962D01*
X132584419Y-96904750D01*
X132579203Y-96883926D01*
X132576053Y-96862691D01*
X132575000Y-96841250D01*
X132575000Y-96403750D01*
X132576053Y-96382309D01*
X132579203Y-96361074D01*
X132584419Y-96340250D01*
X132591651Y-96320038D01*
X132600830Y-96300632D01*
X132611866Y-96282219D01*
X132624654Y-96264976D01*
X132639070Y-96249070D01*
X132654976Y-96234654D01*
X132672219Y-96221866D01*
X132690632Y-96210830D01*
X132710038Y-96201651D01*
X132730250Y-96194419D01*
X132751074Y-96189203D01*
X132772309Y-96186053D01*
X132793750Y-96185000D01*
X133306250Y-96185000D01*
X133327691Y-96186053D01*
X133327691Y-96186053D01*
G37*
D14*
G04 #@! TD*
G04 #@! TO.P,R1,1*
G04 #@! TO.N,Net-(CON1-Pad1)*
X133050000Y-96622500D03*
D13*
G04 #@! TO.N,GNDREF*
G04 #@! TO.C,R1*
G36*
X133327691Y-97761053D02*
X133348926Y-97764203D01*
X133369750Y-97769419D01*
X133389962Y-97776651D01*
X133409368Y-97785830D01*
X133427781Y-97796866D01*
X133445024Y-97809654D01*
X133460930Y-97824070D01*
X133475346Y-97839976D01*
X133488134Y-97857219D01*
X133499170Y-97875632D01*
X133508349Y-97895038D01*
X133515581Y-97915250D01*
X133520797Y-97936074D01*
X133523947Y-97957309D01*
X133525000Y-97978750D01*
X133525000Y-98416250D01*
X133523947Y-98437691D01*
X133520797Y-98458926D01*
X133515581Y-98479750D01*
X133508349Y-98499962D01*
X133499170Y-98519368D01*
X133488134Y-98537781D01*
X133475346Y-98555024D01*
X133460930Y-98570930D01*
X133445024Y-98585346D01*
X133427781Y-98598134D01*
X133409368Y-98609170D01*
X133389962Y-98618349D01*
X133369750Y-98625581D01*
X133348926Y-98630797D01*
X133327691Y-98633947D01*
X133306250Y-98635000D01*
X132793750Y-98635000D01*
X132772309Y-98633947D01*
X132751074Y-98630797D01*
X132730250Y-98625581D01*
X132710038Y-98618349D01*
X132690632Y-98609170D01*
X132672219Y-98598134D01*
X132654976Y-98585346D01*
X132639070Y-98570930D01*
X132624654Y-98555024D01*
X132611866Y-98537781D01*
X132600830Y-98519368D01*
X132591651Y-98499962D01*
X132584419Y-98479750D01*
X132579203Y-98458926D01*
X132576053Y-98437691D01*
X132575000Y-98416250D01*
X132575000Y-97978750D01*
X132576053Y-97957309D01*
X132579203Y-97936074D01*
X132584419Y-97915250D01*
X132591651Y-97895038D01*
X132600830Y-97875632D01*
X132611866Y-97857219D01*
X132624654Y-97839976D01*
X132639070Y-97824070D01*
X132654976Y-97809654D01*
X132672219Y-97796866D01*
X132690632Y-97785830D01*
X132710038Y-97776651D01*
X132730250Y-97769419D01*
X132751074Y-97764203D01*
X132772309Y-97761053D01*
X132793750Y-97760000D01*
X133306250Y-97760000D01*
X133327691Y-97761053D01*
X133327691Y-97761053D01*
G37*
D14*
G04 #@! TD*
G04 #@! TO.P,R1,2*
G04 #@! TO.N,GNDREF*
X133050000Y-98197500D03*
D13*
G04 #@! TO.N,Net-(R12-Pad1)*
G04 #@! TO.C,R12*
G36*
X153277691Y-113101053D02*
X153298926Y-113104203D01*
X153319750Y-113109419D01*
X153339962Y-113116651D01*
X153359368Y-113125830D01*
X153377781Y-113136866D01*
X153395024Y-113149654D01*
X153410930Y-113164070D01*
X153425346Y-113179976D01*
X153438134Y-113197219D01*
X153449170Y-113215632D01*
X153458349Y-113235038D01*
X153465581Y-113255250D01*
X153470797Y-113276074D01*
X153473947Y-113297309D01*
X153475000Y-113318750D01*
X153475000Y-113756250D01*
X153473947Y-113777691D01*
X153470797Y-113798926D01*
X153465581Y-113819750D01*
X153458349Y-113839962D01*
X153449170Y-113859368D01*
X153438134Y-113877781D01*
X153425346Y-113895024D01*
X153410930Y-113910930D01*
X153395024Y-113925346D01*
X153377781Y-113938134D01*
X153359368Y-113949170D01*
X153339962Y-113958349D01*
X153319750Y-113965581D01*
X153298926Y-113970797D01*
X153277691Y-113973947D01*
X153256250Y-113975000D01*
X152743750Y-113975000D01*
X152722309Y-113973947D01*
X152701074Y-113970797D01*
X152680250Y-113965581D01*
X152660038Y-113958349D01*
X152640632Y-113949170D01*
X152622219Y-113938134D01*
X152604976Y-113925346D01*
X152589070Y-113910930D01*
X152574654Y-113895024D01*
X152561866Y-113877781D01*
X152550830Y-113859368D01*
X152541651Y-113839962D01*
X152534419Y-113819750D01*
X152529203Y-113798926D01*
X152526053Y-113777691D01*
X152525000Y-113756250D01*
X152525000Y-113318750D01*
X152526053Y-113297309D01*
X152529203Y-113276074D01*
X152534419Y-113255250D01*
X152541651Y-113235038D01*
X152550830Y-113215632D01*
X152561866Y-113197219D01*
X152574654Y-113179976D01*
X152589070Y-113164070D01*
X152604976Y-113149654D01*
X152622219Y-113136866D01*
X152640632Y-113125830D01*
X152660038Y-113116651D01*
X152680250Y-113109419D01*
X152701074Y-113104203D01*
X152722309Y-113101053D01*
X152743750Y-113100000D01*
X153256250Y-113100000D01*
X153277691Y-113101053D01*
X153277691Y-113101053D01*
G37*
D14*
G04 #@! TD*
G04 #@! TO.P,R12,1*
G04 #@! TO.N,Net-(R12-Pad1)*
X153000000Y-113537500D03*
D13*
G04 #@! TO.N,Net-(C4-Pad2)*
G04 #@! TO.C,R12*
G36*
X153277691Y-111526053D02*
X153298926Y-111529203D01*
X153319750Y-111534419D01*
X153339962Y-111541651D01*
X153359368Y-111550830D01*
X153377781Y-111561866D01*
X153395024Y-111574654D01*
X153410930Y-111589070D01*
X153425346Y-111604976D01*
X153438134Y-111622219D01*
X153449170Y-111640632D01*
X153458349Y-111660038D01*
X153465581Y-111680250D01*
X153470797Y-111701074D01*
X153473947Y-111722309D01*
X153475000Y-111743750D01*
X153475000Y-112181250D01*
X153473947Y-112202691D01*
X153470797Y-112223926D01*
X153465581Y-112244750D01*
X153458349Y-112264962D01*
X153449170Y-112284368D01*
X153438134Y-112302781D01*
X153425346Y-112320024D01*
X153410930Y-112335930D01*
X153395024Y-112350346D01*
X153377781Y-112363134D01*
X153359368Y-112374170D01*
X153339962Y-112383349D01*
X153319750Y-112390581D01*
X153298926Y-112395797D01*
X153277691Y-112398947D01*
X153256250Y-112400000D01*
X152743750Y-112400000D01*
X152722309Y-112398947D01*
X152701074Y-112395797D01*
X152680250Y-112390581D01*
X152660038Y-112383349D01*
X152640632Y-112374170D01*
X152622219Y-112363134D01*
X152604976Y-112350346D01*
X152589070Y-112335930D01*
X152574654Y-112320024D01*
X152561866Y-112302781D01*
X152550830Y-112284368D01*
X152541651Y-112264962D01*
X152534419Y-112244750D01*
X152529203Y-112223926D01*
X152526053Y-112202691D01*
X152525000Y-112181250D01*
X152525000Y-111743750D01*
X152526053Y-111722309D01*
X152529203Y-111701074D01*
X152534419Y-111680250D01*
X152541651Y-111660038D01*
X152550830Y-111640632D01*
X152561866Y-111622219D01*
X152574654Y-111604976D01*
X152589070Y-111589070D01*
X152604976Y-111574654D01*
X152622219Y-111561866D01*
X152640632Y-111550830D01*
X152660038Y-111541651D01*
X152680250Y-111534419D01*
X152701074Y-111529203D01*
X152722309Y-111526053D01*
X152743750Y-111525000D01*
X153256250Y-111525000D01*
X153277691Y-111526053D01*
X153277691Y-111526053D01*
G37*
D14*
G04 #@! TD*
G04 #@! TO.P,R12,2*
G04 #@! TO.N,Net-(C4-Pad2)*
X153000000Y-111962500D03*
D13*
G04 #@! TO.N,GNDREF*
G04 #@! TO.C,C6*
G36*
X159277691Y-108601053D02*
X159298926Y-108604203D01*
X159319750Y-108609419D01*
X159339962Y-108616651D01*
X159359368Y-108625830D01*
X159377781Y-108636866D01*
X159395024Y-108649654D01*
X159410930Y-108664070D01*
X159425346Y-108679976D01*
X159438134Y-108697219D01*
X159449170Y-108715632D01*
X159458349Y-108735038D01*
X159465581Y-108755250D01*
X159470797Y-108776074D01*
X159473947Y-108797309D01*
X159475000Y-108818750D01*
X159475000Y-109256250D01*
X159473947Y-109277691D01*
X159470797Y-109298926D01*
X159465581Y-109319750D01*
X159458349Y-109339962D01*
X159449170Y-109359368D01*
X159438134Y-109377781D01*
X159425346Y-109395024D01*
X159410930Y-109410930D01*
X159395024Y-109425346D01*
X159377781Y-109438134D01*
X159359368Y-109449170D01*
X159339962Y-109458349D01*
X159319750Y-109465581D01*
X159298926Y-109470797D01*
X159277691Y-109473947D01*
X159256250Y-109475000D01*
X158743750Y-109475000D01*
X158722309Y-109473947D01*
X158701074Y-109470797D01*
X158680250Y-109465581D01*
X158660038Y-109458349D01*
X158640632Y-109449170D01*
X158622219Y-109438134D01*
X158604976Y-109425346D01*
X158589070Y-109410930D01*
X158574654Y-109395024D01*
X158561866Y-109377781D01*
X158550830Y-109359368D01*
X158541651Y-109339962D01*
X158534419Y-109319750D01*
X158529203Y-109298926D01*
X158526053Y-109277691D01*
X158525000Y-109256250D01*
X158525000Y-108818750D01*
X158526053Y-108797309D01*
X158529203Y-108776074D01*
X158534419Y-108755250D01*
X158541651Y-108735038D01*
X158550830Y-108715632D01*
X158561866Y-108697219D01*
X158574654Y-108679976D01*
X158589070Y-108664070D01*
X158604976Y-108649654D01*
X158622219Y-108636866D01*
X158640632Y-108625830D01*
X158660038Y-108616651D01*
X158680250Y-108609419D01*
X158701074Y-108604203D01*
X158722309Y-108601053D01*
X158743750Y-108600000D01*
X159256250Y-108600000D01*
X159277691Y-108601053D01*
X159277691Y-108601053D01*
G37*
D14*
G04 #@! TD*
G04 #@! TO.P,C6,2*
G04 #@! TO.N,GNDREF*
X159000000Y-109037500D03*
D13*
G04 #@! TO.N,Net-(C6-Pad1)*
G04 #@! TO.C,C6*
G36*
X159277691Y-107026053D02*
X159298926Y-107029203D01*
X159319750Y-107034419D01*
X159339962Y-107041651D01*
X159359368Y-107050830D01*
X159377781Y-107061866D01*
X159395024Y-107074654D01*
X159410930Y-107089070D01*
X159425346Y-107104976D01*
X159438134Y-107122219D01*
X159449170Y-107140632D01*
X159458349Y-107160038D01*
X159465581Y-107180250D01*
X159470797Y-107201074D01*
X159473947Y-107222309D01*
X159475000Y-107243750D01*
X159475000Y-107681250D01*
X159473947Y-107702691D01*
X159470797Y-107723926D01*
X159465581Y-107744750D01*
X159458349Y-107764962D01*
X159449170Y-107784368D01*
X159438134Y-107802781D01*
X159425346Y-107820024D01*
X159410930Y-107835930D01*
X159395024Y-107850346D01*
X159377781Y-107863134D01*
X159359368Y-107874170D01*
X159339962Y-107883349D01*
X159319750Y-107890581D01*
X159298926Y-107895797D01*
X159277691Y-107898947D01*
X159256250Y-107900000D01*
X158743750Y-107900000D01*
X158722309Y-107898947D01*
X158701074Y-107895797D01*
X158680250Y-107890581D01*
X158660038Y-107883349D01*
X158640632Y-107874170D01*
X158622219Y-107863134D01*
X158604976Y-107850346D01*
X158589070Y-107835930D01*
X158574654Y-107820024D01*
X158561866Y-107802781D01*
X158550830Y-107784368D01*
X158541651Y-107764962D01*
X158534419Y-107744750D01*
X158529203Y-107723926D01*
X158526053Y-107702691D01*
X158525000Y-107681250D01*
X158525000Y-107243750D01*
X158526053Y-107222309D01*
X158529203Y-107201074D01*
X158534419Y-107180250D01*
X158541651Y-107160038D01*
X158550830Y-107140632D01*
X158561866Y-107122219D01*
X158574654Y-107104976D01*
X158589070Y-107089070D01*
X158604976Y-107074654D01*
X158622219Y-107061866D01*
X158640632Y-107050830D01*
X158660038Y-107041651D01*
X158680250Y-107034419D01*
X158701074Y-107029203D01*
X158722309Y-107026053D01*
X158743750Y-107025000D01*
X159256250Y-107025000D01*
X159277691Y-107026053D01*
X159277691Y-107026053D01*
G37*
D14*
G04 #@! TD*
G04 #@! TO.P,C6,1*
G04 #@! TO.N,Net-(C6-Pad1)*
X159000000Y-107462500D03*
D13*
G04 #@! TO.N,Net-(C4-Pad2)*
G04 #@! TO.C,R11*
G36*
X158127691Y-121626053D02*
X158148926Y-121629203D01*
X158169750Y-121634419D01*
X158189962Y-121641651D01*
X158209368Y-121650830D01*
X158227781Y-121661866D01*
X158245024Y-121674654D01*
X158260930Y-121689070D01*
X158275346Y-121704976D01*
X158288134Y-121722219D01*
X158299170Y-121740632D01*
X158308349Y-121760038D01*
X158315581Y-121780250D01*
X158320797Y-121801074D01*
X158323947Y-121822309D01*
X158325000Y-121843750D01*
X158325000Y-122281250D01*
X158323947Y-122302691D01*
X158320797Y-122323926D01*
X158315581Y-122344750D01*
X158308349Y-122364962D01*
X158299170Y-122384368D01*
X158288134Y-122402781D01*
X158275346Y-122420024D01*
X158260930Y-122435930D01*
X158245024Y-122450346D01*
X158227781Y-122463134D01*
X158209368Y-122474170D01*
X158189962Y-122483349D01*
X158169750Y-122490581D01*
X158148926Y-122495797D01*
X158127691Y-122498947D01*
X158106250Y-122500000D01*
X157593750Y-122500000D01*
X157572309Y-122498947D01*
X157551074Y-122495797D01*
X157530250Y-122490581D01*
X157510038Y-122483349D01*
X157490632Y-122474170D01*
X157472219Y-122463134D01*
X157454976Y-122450346D01*
X157439070Y-122435930D01*
X157424654Y-122420024D01*
X157411866Y-122402781D01*
X157400830Y-122384368D01*
X157391651Y-122364962D01*
X157384419Y-122344750D01*
X157379203Y-122323926D01*
X157376053Y-122302691D01*
X157375000Y-122281250D01*
X157375000Y-121843750D01*
X157376053Y-121822309D01*
X157379203Y-121801074D01*
X157384419Y-121780250D01*
X157391651Y-121760038D01*
X157400830Y-121740632D01*
X157411866Y-121722219D01*
X157424654Y-121704976D01*
X157439070Y-121689070D01*
X157454976Y-121674654D01*
X157472219Y-121661866D01*
X157490632Y-121650830D01*
X157510038Y-121641651D01*
X157530250Y-121634419D01*
X157551074Y-121629203D01*
X157572309Y-121626053D01*
X157593750Y-121625000D01*
X158106250Y-121625000D01*
X158127691Y-121626053D01*
X158127691Y-121626053D01*
G37*
D14*
G04 #@! TD*
G04 #@! TO.P,R11,2*
G04 #@! TO.N,Net-(C4-Pad2)*
X157850000Y-122062500D03*
D13*
G04 #@! TO.N,GNDREF*
G04 #@! TO.C,R11*
G36*
X158127691Y-123201053D02*
X158148926Y-123204203D01*
X158169750Y-123209419D01*
X158189962Y-123216651D01*
X158209368Y-123225830D01*
X158227781Y-123236866D01*
X158245024Y-123249654D01*
X158260930Y-123264070D01*
X158275346Y-123279976D01*
X158288134Y-123297219D01*
X158299170Y-123315632D01*
X158308349Y-123335038D01*
X158315581Y-123355250D01*
X158320797Y-123376074D01*
X158323947Y-123397309D01*
X158325000Y-123418750D01*
X158325000Y-123856250D01*
X158323947Y-123877691D01*
X158320797Y-123898926D01*
X158315581Y-123919750D01*
X158308349Y-123939962D01*
X158299170Y-123959368D01*
X158288134Y-123977781D01*
X158275346Y-123995024D01*
X158260930Y-124010930D01*
X158245024Y-124025346D01*
X158227781Y-124038134D01*
X158209368Y-124049170D01*
X158189962Y-124058349D01*
X158169750Y-124065581D01*
X158148926Y-124070797D01*
X158127691Y-124073947D01*
X158106250Y-124075000D01*
X157593750Y-124075000D01*
X157572309Y-124073947D01*
X157551074Y-124070797D01*
X157530250Y-124065581D01*
X157510038Y-124058349D01*
X157490632Y-124049170D01*
X157472219Y-124038134D01*
X157454976Y-124025346D01*
X157439070Y-124010930D01*
X157424654Y-123995024D01*
X157411866Y-123977781D01*
X157400830Y-123959368D01*
X157391651Y-123939962D01*
X157384419Y-123919750D01*
X157379203Y-123898926D01*
X157376053Y-123877691D01*
X157375000Y-123856250D01*
X157375000Y-123418750D01*
X157376053Y-123397309D01*
X157379203Y-123376074D01*
X157384419Y-123355250D01*
X157391651Y-123335038D01*
X157400830Y-123315632D01*
X157411866Y-123297219D01*
X157424654Y-123279976D01*
X157439070Y-123264070D01*
X157454976Y-123249654D01*
X157472219Y-123236866D01*
X157490632Y-123225830D01*
X157510038Y-123216651D01*
X157530250Y-123209419D01*
X157551074Y-123204203D01*
X157572309Y-123201053D01*
X157593750Y-123200000D01*
X158106250Y-123200000D01*
X158127691Y-123201053D01*
X158127691Y-123201053D01*
G37*
D14*
G04 #@! TD*
G04 #@! TO.P,R11,1*
G04 #@! TO.N,GNDREF*
X157850000Y-123637500D03*
D13*
G04 #@! TO.N,+9V*
G04 #@! TO.C,C5*
G36*
X152277691Y-118351053D02*
X152298926Y-118354203D01*
X152319750Y-118359419D01*
X152339962Y-118366651D01*
X152359368Y-118375830D01*
X152377781Y-118386866D01*
X152395024Y-118399654D01*
X152410930Y-118414070D01*
X152425346Y-118429976D01*
X152438134Y-118447219D01*
X152449170Y-118465632D01*
X152458349Y-118485038D01*
X152465581Y-118505250D01*
X152470797Y-118526074D01*
X152473947Y-118547309D01*
X152475000Y-118568750D01*
X152475000Y-119006250D01*
X152473947Y-119027691D01*
X152470797Y-119048926D01*
X152465581Y-119069750D01*
X152458349Y-119089962D01*
X152449170Y-119109368D01*
X152438134Y-119127781D01*
X152425346Y-119145024D01*
X152410930Y-119160930D01*
X152395024Y-119175346D01*
X152377781Y-119188134D01*
X152359368Y-119199170D01*
X152339962Y-119208349D01*
X152319750Y-119215581D01*
X152298926Y-119220797D01*
X152277691Y-119223947D01*
X152256250Y-119225000D01*
X151743750Y-119225000D01*
X151722309Y-119223947D01*
X151701074Y-119220797D01*
X151680250Y-119215581D01*
X151660038Y-119208349D01*
X151640632Y-119199170D01*
X151622219Y-119188134D01*
X151604976Y-119175346D01*
X151589070Y-119160930D01*
X151574654Y-119145024D01*
X151561866Y-119127781D01*
X151550830Y-119109368D01*
X151541651Y-119089962D01*
X151534419Y-119069750D01*
X151529203Y-119048926D01*
X151526053Y-119027691D01*
X151525000Y-119006250D01*
X151525000Y-118568750D01*
X151526053Y-118547309D01*
X151529203Y-118526074D01*
X151534419Y-118505250D01*
X151541651Y-118485038D01*
X151550830Y-118465632D01*
X151561866Y-118447219D01*
X151574654Y-118429976D01*
X151589070Y-118414070D01*
X151604976Y-118399654D01*
X151622219Y-118386866D01*
X151640632Y-118375830D01*
X151660038Y-118366651D01*
X151680250Y-118359419D01*
X151701074Y-118354203D01*
X151722309Y-118351053D01*
X151743750Y-118350000D01*
X152256250Y-118350000D01*
X152277691Y-118351053D01*
X152277691Y-118351053D01*
G37*
D14*
G04 #@! TD*
G04 #@! TO.P,C5,1*
G04 #@! TO.N,+9V*
X152000000Y-118787500D03*
D13*
G04 #@! TO.N,GND*
G04 #@! TO.C,C5*
G36*
X152277691Y-116776053D02*
X152298926Y-116779203D01*
X152319750Y-116784419D01*
X152339962Y-116791651D01*
X152359368Y-116800830D01*
X152377781Y-116811866D01*
X152395024Y-116824654D01*
X152410930Y-116839070D01*
X152425346Y-116854976D01*
X152438134Y-116872219D01*
X152449170Y-116890632D01*
X152458349Y-116910038D01*
X152465581Y-116930250D01*
X152470797Y-116951074D01*
X152473947Y-116972309D01*
X152475000Y-116993750D01*
X152475000Y-117431250D01*
X152473947Y-117452691D01*
X152470797Y-117473926D01*
X152465581Y-117494750D01*
X152458349Y-117514962D01*
X152449170Y-117534368D01*
X152438134Y-117552781D01*
X152425346Y-117570024D01*
X152410930Y-117585930D01*
X152395024Y-117600346D01*
X152377781Y-117613134D01*
X152359368Y-117624170D01*
X152339962Y-117633349D01*
X152319750Y-117640581D01*
X152298926Y-117645797D01*
X152277691Y-117648947D01*
X152256250Y-117650000D01*
X151743750Y-117650000D01*
X151722309Y-117648947D01*
X151701074Y-117645797D01*
X151680250Y-117640581D01*
X151660038Y-117633349D01*
X151640632Y-117624170D01*
X151622219Y-117613134D01*
X151604976Y-117600346D01*
X151589070Y-117585930D01*
X151574654Y-117570024D01*
X151561866Y-117552781D01*
X151550830Y-117534368D01*
X151541651Y-117514962D01*
X151534419Y-117494750D01*
X151529203Y-117473926D01*
X151526053Y-117452691D01*
X151525000Y-117431250D01*
X151525000Y-116993750D01*
X151526053Y-116972309D01*
X151529203Y-116951074D01*
X151534419Y-116930250D01*
X151541651Y-116910038D01*
X151550830Y-116890632D01*
X151561866Y-116872219D01*
X151574654Y-116854976D01*
X151589070Y-116839070D01*
X151604976Y-116824654D01*
X151622219Y-116811866D01*
X151640632Y-116800830D01*
X151660038Y-116791651D01*
X151680250Y-116784419D01*
X151701074Y-116779203D01*
X151722309Y-116776053D01*
X151743750Y-116775000D01*
X152256250Y-116775000D01*
X152277691Y-116776053D01*
X152277691Y-116776053D01*
G37*
D14*
G04 #@! TD*
G04 #@! TO.P,C5,2*
G04 #@! TO.N,GND*
X152000000Y-117212500D03*
D13*
G04 #@! TO.N,Net-(C4-Pad2)*
G04 #@! TO.C,C4*
G36*
X156127691Y-121626053D02*
X156148926Y-121629203D01*
X156169750Y-121634419D01*
X156189962Y-121641651D01*
X156209368Y-121650830D01*
X156227781Y-121661866D01*
X156245024Y-121674654D01*
X156260930Y-121689070D01*
X156275346Y-121704976D01*
X156288134Y-121722219D01*
X156299170Y-121740632D01*
X156308349Y-121760038D01*
X156315581Y-121780250D01*
X156320797Y-121801074D01*
X156323947Y-121822309D01*
X156325000Y-121843750D01*
X156325000Y-122281250D01*
X156323947Y-122302691D01*
X156320797Y-122323926D01*
X156315581Y-122344750D01*
X156308349Y-122364962D01*
X156299170Y-122384368D01*
X156288134Y-122402781D01*
X156275346Y-122420024D01*
X156260930Y-122435930D01*
X156245024Y-122450346D01*
X156227781Y-122463134D01*
X156209368Y-122474170D01*
X156189962Y-122483349D01*
X156169750Y-122490581D01*
X156148926Y-122495797D01*
X156127691Y-122498947D01*
X156106250Y-122500000D01*
X155593750Y-122500000D01*
X155572309Y-122498947D01*
X155551074Y-122495797D01*
X155530250Y-122490581D01*
X155510038Y-122483349D01*
X155490632Y-122474170D01*
X155472219Y-122463134D01*
X155454976Y-122450346D01*
X155439070Y-122435930D01*
X155424654Y-122420024D01*
X155411866Y-122402781D01*
X155400830Y-122384368D01*
X155391651Y-122364962D01*
X155384419Y-122344750D01*
X155379203Y-122323926D01*
X155376053Y-122302691D01*
X155375000Y-122281250D01*
X155375000Y-121843750D01*
X155376053Y-121822309D01*
X155379203Y-121801074D01*
X155384419Y-121780250D01*
X155391651Y-121760038D01*
X155400830Y-121740632D01*
X155411866Y-121722219D01*
X155424654Y-121704976D01*
X155439070Y-121689070D01*
X155454976Y-121674654D01*
X155472219Y-121661866D01*
X155490632Y-121650830D01*
X155510038Y-121641651D01*
X155530250Y-121634419D01*
X155551074Y-121629203D01*
X155572309Y-121626053D01*
X155593750Y-121625000D01*
X156106250Y-121625000D01*
X156127691Y-121626053D01*
X156127691Y-121626053D01*
G37*
D14*
G04 #@! TD*
G04 #@! TO.P,C4,2*
G04 #@! TO.N,Net-(C4-Pad2)*
X155850000Y-122062500D03*
D13*
G04 #@! TO.N,Net-(C4-Pad1)*
G04 #@! TO.C,C4*
G36*
X156127691Y-123201053D02*
X156148926Y-123204203D01*
X156169750Y-123209419D01*
X156189962Y-123216651D01*
X156209368Y-123225830D01*
X156227781Y-123236866D01*
X156245024Y-123249654D01*
X156260930Y-123264070D01*
X156275346Y-123279976D01*
X156288134Y-123297219D01*
X156299170Y-123315632D01*
X156308349Y-123335038D01*
X156315581Y-123355250D01*
X156320797Y-123376074D01*
X156323947Y-123397309D01*
X156325000Y-123418750D01*
X156325000Y-123856250D01*
X156323947Y-123877691D01*
X156320797Y-123898926D01*
X156315581Y-123919750D01*
X156308349Y-123939962D01*
X156299170Y-123959368D01*
X156288134Y-123977781D01*
X156275346Y-123995024D01*
X156260930Y-124010930D01*
X156245024Y-124025346D01*
X156227781Y-124038134D01*
X156209368Y-124049170D01*
X156189962Y-124058349D01*
X156169750Y-124065581D01*
X156148926Y-124070797D01*
X156127691Y-124073947D01*
X156106250Y-124075000D01*
X155593750Y-124075000D01*
X155572309Y-124073947D01*
X155551074Y-124070797D01*
X155530250Y-124065581D01*
X155510038Y-124058349D01*
X155490632Y-124049170D01*
X155472219Y-124038134D01*
X155454976Y-124025346D01*
X155439070Y-124010930D01*
X155424654Y-123995024D01*
X155411866Y-123977781D01*
X155400830Y-123959368D01*
X155391651Y-123939962D01*
X155384419Y-123919750D01*
X155379203Y-123898926D01*
X155376053Y-123877691D01*
X155375000Y-123856250D01*
X155375000Y-123418750D01*
X155376053Y-123397309D01*
X155379203Y-123376074D01*
X155384419Y-123355250D01*
X155391651Y-123335038D01*
X155400830Y-123315632D01*
X155411866Y-123297219D01*
X155424654Y-123279976D01*
X155439070Y-123264070D01*
X155454976Y-123249654D01*
X155472219Y-123236866D01*
X155490632Y-123225830D01*
X155510038Y-123216651D01*
X155530250Y-123209419D01*
X155551074Y-123204203D01*
X155572309Y-123201053D01*
X155593750Y-123200000D01*
X156106250Y-123200000D01*
X156127691Y-123201053D01*
X156127691Y-123201053D01*
G37*
D14*
G04 #@! TD*
G04 #@! TO.P,C4,1*
G04 #@! TO.N,Net-(C4-Pad1)*
X155850000Y-123637500D03*
D13*
G04 #@! TO.N,+9V*
G04 #@! TO.C,C3*
G36*
X138277691Y-116776053D02*
X138298926Y-116779203D01*
X138319750Y-116784419D01*
X138339962Y-116791651D01*
X138359368Y-116800830D01*
X138377781Y-116811866D01*
X138395024Y-116824654D01*
X138410930Y-116839070D01*
X138425346Y-116854976D01*
X138438134Y-116872219D01*
X138449170Y-116890632D01*
X138458349Y-116910038D01*
X138465581Y-116930250D01*
X138470797Y-116951074D01*
X138473947Y-116972309D01*
X138475000Y-116993750D01*
X138475000Y-117431250D01*
X138473947Y-117452691D01*
X138470797Y-117473926D01*
X138465581Y-117494750D01*
X138458349Y-117514962D01*
X138449170Y-117534368D01*
X138438134Y-117552781D01*
X138425346Y-117570024D01*
X138410930Y-117585930D01*
X138395024Y-117600346D01*
X138377781Y-117613134D01*
X138359368Y-117624170D01*
X138339962Y-117633349D01*
X138319750Y-117640581D01*
X138298926Y-117645797D01*
X138277691Y-117648947D01*
X138256250Y-117650000D01*
X137743750Y-117650000D01*
X137722309Y-117648947D01*
X137701074Y-117645797D01*
X137680250Y-117640581D01*
X137660038Y-117633349D01*
X137640632Y-117624170D01*
X137622219Y-117613134D01*
X137604976Y-117600346D01*
X137589070Y-117585930D01*
X137574654Y-117570024D01*
X137561866Y-117552781D01*
X137550830Y-117534368D01*
X137541651Y-117514962D01*
X137534419Y-117494750D01*
X137529203Y-117473926D01*
X137526053Y-117452691D01*
X137525000Y-117431250D01*
X137525000Y-116993750D01*
X137526053Y-116972309D01*
X137529203Y-116951074D01*
X137534419Y-116930250D01*
X137541651Y-116910038D01*
X137550830Y-116890632D01*
X137561866Y-116872219D01*
X137574654Y-116854976D01*
X137589070Y-116839070D01*
X137604976Y-116824654D01*
X137622219Y-116811866D01*
X137640632Y-116800830D01*
X137660038Y-116791651D01*
X137680250Y-116784419D01*
X137701074Y-116779203D01*
X137722309Y-116776053D01*
X137743750Y-116775000D01*
X138256250Y-116775000D01*
X138277691Y-116776053D01*
X138277691Y-116776053D01*
G37*
D14*
G04 #@! TD*
G04 #@! TO.P,C3,1*
G04 #@! TO.N,+9V*
X138000000Y-117212500D03*
D13*
G04 #@! TO.N,GND*
G04 #@! TO.C,C3*
G36*
X138277691Y-118351053D02*
X138298926Y-118354203D01*
X138319750Y-118359419D01*
X138339962Y-118366651D01*
X138359368Y-118375830D01*
X138377781Y-118386866D01*
X138395024Y-118399654D01*
X138410930Y-118414070D01*
X138425346Y-118429976D01*
X138438134Y-118447219D01*
X138449170Y-118465632D01*
X138458349Y-118485038D01*
X138465581Y-118505250D01*
X138470797Y-118526074D01*
X138473947Y-118547309D01*
X138475000Y-118568750D01*
X138475000Y-119006250D01*
X138473947Y-119027691D01*
X138470797Y-119048926D01*
X138465581Y-119069750D01*
X138458349Y-119089962D01*
X138449170Y-119109368D01*
X138438134Y-119127781D01*
X138425346Y-119145024D01*
X138410930Y-119160930D01*
X138395024Y-119175346D01*
X138377781Y-119188134D01*
X138359368Y-119199170D01*
X138339962Y-119208349D01*
X138319750Y-119215581D01*
X138298926Y-119220797D01*
X138277691Y-119223947D01*
X138256250Y-119225000D01*
X137743750Y-119225000D01*
X137722309Y-119223947D01*
X137701074Y-119220797D01*
X137680250Y-119215581D01*
X137660038Y-119208349D01*
X137640632Y-119199170D01*
X137622219Y-119188134D01*
X137604976Y-119175346D01*
X137589070Y-119160930D01*
X137574654Y-119145024D01*
X137561866Y-119127781D01*
X137550830Y-119109368D01*
X137541651Y-119089962D01*
X137534419Y-119069750D01*
X137529203Y-119048926D01*
X137526053Y-119027691D01*
X137525000Y-119006250D01*
X137525000Y-118568750D01*
X137526053Y-118547309D01*
X137529203Y-118526074D01*
X137534419Y-118505250D01*
X137541651Y-118485038D01*
X137550830Y-118465632D01*
X137561866Y-118447219D01*
X137574654Y-118429976D01*
X137589070Y-118414070D01*
X137604976Y-118399654D01*
X137622219Y-118386866D01*
X137640632Y-118375830D01*
X137660038Y-118366651D01*
X137680250Y-118359419D01*
X137701074Y-118354203D01*
X137722309Y-118351053D01*
X137743750Y-118350000D01*
X138256250Y-118350000D01*
X138277691Y-118351053D01*
X138277691Y-118351053D01*
G37*
D14*
G04 #@! TD*
G04 #@! TO.P,C3,2*
G04 #@! TO.N,GND*
X138000000Y-118787500D03*
D13*
G04 #@! TO.N,GND*
G04 #@! TO.C,C1*
G36*
X138127691Y-123188553D02*
X138148926Y-123191703D01*
X138169750Y-123196919D01*
X138189962Y-123204151D01*
X138209368Y-123213330D01*
X138227781Y-123224366D01*
X138245024Y-123237154D01*
X138260930Y-123251570D01*
X138275346Y-123267476D01*
X138288134Y-123284719D01*
X138299170Y-123303132D01*
X138308349Y-123322538D01*
X138315581Y-123342750D01*
X138320797Y-123363574D01*
X138323947Y-123384809D01*
X138325000Y-123406250D01*
X138325000Y-123843750D01*
X138323947Y-123865191D01*
X138320797Y-123886426D01*
X138315581Y-123907250D01*
X138308349Y-123927462D01*
X138299170Y-123946868D01*
X138288134Y-123965281D01*
X138275346Y-123982524D01*
X138260930Y-123998430D01*
X138245024Y-124012846D01*
X138227781Y-124025634D01*
X138209368Y-124036670D01*
X138189962Y-124045849D01*
X138169750Y-124053081D01*
X138148926Y-124058297D01*
X138127691Y-124061447D01*
X138106250Y-124062500D01*
X137593750Y-124062500D01*
X137572309Y-124061447D01*
X137551074Y-124058297D01*
X137530250Y-124053081D01*
X137510038Y-124045849D01*
X137490632Y-124036670D01*
X137472219Y-124025634D01*
X137454976Y-124012846D01*
X137439070Y-123998430D01*
X137424654Y-123982524D01*
X137411866Y-123965281D01*
X137400830Y-123946868D01*
X137391651Y-123927462D01*
X137384419Y-123907250D01*
X137379203Y-123886426D01*
X137376053Y-123865191D01*
X137375000Y-123843750D01*
X137375000Y-123406250D01*
X137376053Y-123384809D01*
X137379203Y-123363574D01*
X137384419Y-123342750D01*
X137391651Y-123322538D01*
X137400830Y-123303132D01*
X137411866Y-123284719D01*
X137424654Y-123267476D01*
X137439070Y-123251570D01*
X137454976Y-123237154D01*
X137472219Y-123224366D01*
X137490632Y-123213330D01*
X137510038Y-123204151D01*
X137530250Y-123196919D01*
X137551074Y-123191703D01*
X137572309Y-123188553D01*
X137593750Y-123187500D01*
X138106250Y-123187500D01*
X138127691Y-123188553D01*
X138127691Y-123188553D01*
G37*
D14*
G04 #@! TD*
G04 #@! TO.P,C1,2*
G04 #@! TO.N,GND*
X137850000Y-123625000D03*
D13*
G04 #@! TO.N,+9V*
G04 #@! TO.C,C1*
G36*
X138127691Y-121613553D02*
X138148926Y-121616703D01*
X138169750Y-121621919D01*
X138189962Y-121629151D01*
X138209368Y-121638330D01*
X138227781Y-121649366D01*
X138245024Y-121662154D01*
X138260930Y-121676570D01*
X138275346Y-121692476D01*
X138288134Y-121709719D01*
X138299170Y-121728132D01*
X138308349Y-121747538D01*
X138315581Y-121767750D01*
X138320797Y-121788574D01*
X138323947Y-121809809D01*
X138325000Y-121831250D01*
X138325000Y-122268750D01*
X138323947Y-122290191D01*
X138320797Y-122311426D01*
X138315581Y-122332250D01*
X138308349Y-122352462D01*
X138299170Y-122371868D01*
X138288134Y-122390281D01*
X138275346Y-122407524D01*
X138260930Y-122423430D01*
X138245024Y-122437846D01*
X138227781Y-122450634D01*
X138209368Y-122461670D01*
X138189962Y-122470849D01*
X138169750Y-122478081D01*
X138148926Y-122483297D01*
X138127691Y-122486447D01*
X138106250Y-122487500D01*
X137593750Y-122487500D01*
X137572309Y-122486447D01*
X137551074Y-122483297D01*
X137530250Y-122478081D01*
X137510038Y-122470849D01*
X137490632Y-122461670D01*
X137472219Y-122450634D01*
X137454976Y-122437846D01*
X137439070Y-122423430D01*
X137424654Y-122407524D01*
X137411866Y-122390281D01*
X137400830Y-122371868D01*
X137391651Y-122352462D01*
X137384419Y-122332250D01*
X137379203Y-122311426D01*
X137376053Y-122290191D01*
X137375000Y-122268750D01*
X137375000Y-121831250D01*
X137376053Y-121809809D01*
X137379203Y-121788574D01*
X137384419Y-121767750D01*
X137391651Y-121747538D01*
X137400830Y-121728132D01*
X137411866Y-121709719D01*
X137424654Y-121692476D01*
X137439070Y-121676570D01*
X137454976Y-121662154D01*
X137472219Y-121649366D01*
X137490632Y-121638330D01*
X137510038Y-121629151D01*
X137530250Y-121621919D01*
X137551074Y-121616703D01*
X137572309Y-121613553D01*
X137593750Y-121612500D01*
X138106250Y-121612500D01*
X138127691Y-121613553D01*
X138127691Y-121613553D01*
G37*
D14*
G04 #@! TD*
G04 #@! TO.P,C1,1*
G04 #@! TO.N,+9V*
X137850000Y-122050000D03*
D16*
G04 #@! TO.N,GND*
X135500000Y-118250000D03*
X138000000Y-120000000D03*
X130500000Y-114000000D03*
G04 #@! TO.N,Net-(R10-Pad2)*
X149750000Y-114750000D03*
X149750000Y-120162490D03*
G04 #@! TO.N,+9V*
X145250000Y-115500000D03*
X148351505Y-120162490D03*
X142000000Y-111750008D03*
G04 #@! TO.N,Net-(DP3T1-Pad2)*
X140750000Y-97650010D03*
X138500000Y-96550010D03*
G04 #@! TO.N,GNDREF*
X158750000Y-123750000D03*
X152500000Y-124750000D03*
G04 #@! TO.N,Net-(C4-Pad2)*
X152750000Y-108500000D03*
X153000000Y-110750000D03*
G04 #@! TO.N,Net-(R8-Pad1)*
X145250000Y-116750000D03*
X145250000Y-118750000D03*
G04 #@! TO.N,Net-(C2-Pad1)*
X151750000Y-115000000D03*
X150750000Y-117000000D03*
X150750000Y-124449990D03*
G04 #@! TO.N,Net-(C2-Pad2)*
X150500000Y-121000000D03*
X147500000Y-120750000D03*
G04 #@! TO.N,Net-(R6-Pad2)*
X143250000Y-120500000D03*
X144250000Y-116500000D03*
X142840000Y-124840000D03*
G04 #@! TD*
D17*
G04 #@! TO.N,GND*
X148014999Y-115919999D02*
X147750000Y-116184998D01*
X151244999Y-115919999D02*
X148014999Y-115919999D01*
X152000000Y-116675000D02*
X151244999Y-115919999D01*
X152000000Y-117212500D02*
X152000000Y-116675000D01*
X138311612Y-124086612D02*
X137850000Y-123625000D01*
X138750010Y-124525010D02*
X138311612Y-124086612D01*
X140962490Y-124525010D02*
X138750010Y-124525010D01*
X141850000Y-123637500D02*
X140962490Y-124525010D01*
X142311612Y-123175888D02*
X141850000Y-123637500D01*
X142775010Y-122712490D02*
X142311612Y-123175888D01*
X142775010Y-121566738D02*
X142775010Y-122712490D01*
X142250000Y-121041728D02*
X142775010Y-121566738D01*
X142250000Y-119100000D02*
X142250000Y-121041728D01*
X142250000Y-118384998D02*
X142250000Y-119100000D01*
X141985001Y-118119999D02*
X142250000Y-118384998D01*
X138667501Y-118119999D02*
X141985001Y-118119999D01*
X138000000Y-118787500D02*
X138667501Y-118119999D01*
X142754997Y-117880001D02*
X142250000Y-118384998D01*
X147485001Y-117880001D02*
X142754997Y-117880001D01*
X147750000Y-117615002D02*
X147485001Y-117880001D01*
X147750000Y-116900000D02*
X147750000Y-117615002D01*
X147750000Y-116184998D02*
X147750000Y-116900000D01*
X138000000Y-120000000D02*
X138000000Y-118787500D01*
X135500000Y-121275000D02*
X137850000Y-123625000D01*
X135500000Y-120250000D02*
X135500000Y-121250000D01*
X134500000Y-119250000D02*
X135500000Y-120250000D01*
X134500000Y-118000000D02*
X134500000Y-119250000D01*
X130500000Y-114000000D02*
X134500000Y-118000000D01*
X145650000Y-114084998D02*
X147750000Y-116184998D01*
X145650000Y-110850000D02*
X145650000Y-114084998D01*
G04 #@! TO.N,Net-(R10-Pad2)*
X150750000Y-113537500D02*
X150750000Y-113750000D01*
X150750000Y-113750000D02*
X149750000Y-114750000D01*
X147850000Y-123637500D02*
X148775010Y-122712490D01*
X148775010Y-122712490D02*
X148775010Y-121137480D01*
X148775010Y-121137480D02*
X149350001Y-120562489D01*
X149350001Y-120562489D02*
X149750000Y-120162490D01*
G04 #@! TO.N,+9V*
X149012500Y-118787500D02*
X148700000Y-119100000D01*
X152000000Y-118787500D02*
X149012500Y-118787500D01*
X138312500Y-116900000D02*
X138000000Y-117212500D01*
X141300000Y-116900000D02*
X138312500Y-116900000D01*
X139837500Y-122050000D02*
X139850000Y-122062500D01*
X137850000Y-122050000D02*
X139837500Y-122050000D01*
X137388388Y-121588388D02*
X137850000Y-122050000D01*
X137074990Y-121274990D02*
X137388388Y-121588388D01*
X137074990Y-117562510D02*
X137074990Y-121274990D01*
X137425000Y-117212500D02*
X137074990Y-117562510D01*
X138000000Y-117212500D02*
X137425000Y-117212500D01*
X142700000Y-115500000D02*
X141300000Y-116900000D01*
X145250000Y-115500000D02*
X142700000Y-115500000D01*
X148667510Y-120162490D02*
X148351505Y-120162490D01*
X148700000Y-120130000D02*
X148667510Y-120162490D01*
X148700000Y-119100000D02*
X148700000Y-120130000D01*
X144700000Y-108650000D02*
X144700000Y-108855000D01*
X142000000Y-111555000D02*
X142000000Y-111750008D01*
X144700000Y-108855000D02*
X142000000Y-111555000D01*
X142000000Y-112315693D02*
X142000000Y-111750008D01*
X138000000Y-117212500D02*
X142000000Y-113212500D01*
X142000000Y-113212500D02*
X142000000Y-112315693D01*
G04 #@! TO.N,Net-(DP3T1-Pad2)*
X137262500Y-96662500D02*
X137050000Y-96662500D01*
X147165675Y-103200000D02*
X141615685Y-97650010D01*
X141315685Y-97650010D02*
X140750000Y-97650010D01*
X141615685Y-97650010D02*
X141315685Y-97650010D01*
X151100000Y-103200000D02*
X147165675Y-103200000D01*
X153100000Y-101200000D02*
X151100000Y-103200000D01*
X153200000Y-101200000D02*
X153100000Y-101200000D01*
X138387510Y-96662500D02*
X138500000Y-96550010D01*
X137050000Y-96662500D02*
X138387510Y-96662500D01*
G04 #@! TO.N,Net-(DP3T1-Pad4)*
X135475000Y-96662500D02*
X137050000Y-98237500D01*
X135050000Y-96662500D02*
X135475000Y-96662500D01*
X152450000Y-97000000D02*
X153200000Y-97000000D01*
X150950000Y-98500000D02*
X152450000Y-97000000D01*
X149550000Y-98500000D02*
X150950000Y-98500000D01*
X147300000Y-97000000D02*
X148050000Y-97000000D01*
X148050000Y-97000000D02*
X149550000Y-98500000D01*
X137625000Y-98237500D02*
X137050000Y-98237500D01*
X138070512Y-98237500D02*
X137625000Y-98237500D01*
X139508012Y-96800000D02*
X138070512Y-98237500D01*
X143550000Y-96800000D02*
X139508012Y-96800000D01*
X147200000Y-101250000D02*
X147200000Y-100450000D01*
X147200000Y-100450000D02*
X143550000Y-96800000D01*
X149550000Y-98900000D02*
X147200000Y-101250000D01*
X149550000Y-98500000D02*
X149550000Y-98900000D01*
G04 #@! TO.N,GNDREF*
X133090000Y-98237500D02*
X133050000Y-98197500D01*
X157850000Y-123637500D02*
X158637500Y-123637500D01*
X158637500Y-123637500D02*
X158750000Y-123750000D01*
X152500000Y-124287500D02*
X151850000Y-123637500D01*
X152500000Y-124750000D02*
X152500000Y-124287500D01*
X144425000Y-122062500D02*
X143850000Y-122062500D01*
X144924990Y-124424990D02*
X144924990Y-122562490D01*
X145800000Y-125300000D02*
X144924990Y-124424990D01*
X151950000Y-125300000D02*
X145800000Y-125300000D01*
X152500000Y-124750000D02*
X151950000Y-125300000D01*
X144924990Y-122562490D02*
X144425000Y-122062500D01*
G04 #@! TO.N,Net-(C6-Pad1)*
X157037500Y-107462500D02*
X157000000Y-107425000D01*
X159000000Y-107462500D02*
X157037500Y-107462500D01*
X159000000Y-107462500D02*
X159000000Y-106810000D01*
X168230000Y-116692500D02*
X168230000Y-119000000D01*
X159000000Y-107462500D02*
X168230000Y-116692500D01*
G04 #@! TO.N,Net-(C4-Pad2)*
X155850000Y-114812500D02*
X153000000Y-111962500D01*
X155850000Y-122062500D02*
X155850000Y-114812500D01*
X155850000Y-122062500D02*
X157850000Y-122062500D01*
X146600000Y-108650000D02*
X152600000Y-108650000D01*
X152600000Y-108650000D02*
X152750000Y-108500000D01*
X153000000Y-110750000D02*
X153000000Y-111962500D01*
G04 #@! TO.N,Net-(R8-Pad1)*
X146800000Y-116900000D02*
X145400000Y-116900000D01*
X145400000Y-116900000D02*
X145250000Y-116750000D01*
X145850000Y-123637500D02*
X146775010Y-122712490D01*
X146024999Y-119524999D02*
X145250000Y-118750000D01*
X146024999Y-120533001D02*
X146024999Y-119524999D01*
X146775010Y-121283012D02*
X146024999Y-120533001D01*
X146775010Y-122712490D02*
X146775010Y-121283012D01*
G04 #@! TO.N,Net-(R2-Pad2)*
X141425000Y-122062500D02*
X139850000Y-123637500D01*
X141850000Y-122062500D02*
X141425000Y-122062500D01*
X141300000Y-121512500D02*
X141300000Y-119100000D01*
X141850000Y-122062500D02*
X141300000Y-121512500D01*
G04 #@! TO.N,Net-(C4-Pad1)*
X153850000Y-123637500D02*
X155850000Y-123637500D01*
X159600002Y-123341998D02*
X159500000Y-123241996D01*
X159500000Y-111500000D02*
X157461612Y-109461612D01*
X157461612Y-109461612D02*
X157000000Y-109000000D01*
X159500000Y-123241996D02*
X159500000Y-110750000D01*
X159158002Y-124850002D02*
X159600002Y-124408002D01*
X157062502Y-124850002D02*
X159158002Y-124850002D01*
X155850000Y-123637500D02*
X157062502Y-124850002D01*
X159600002Y-124408002D02*
X159600002Y-123341998D01*
X156538388Y-109461612D02*
X157000000Y-109000000D01*
X156250000Y-109750000D02*
X156538388Y-109461612D01*
X145084998Y-109750000D02*
X156250000Y-109750000D01*
X144700000Y-110850000D02*
X144700000Y-110134998D01*
X144700000Y-110134998D02*
X145084998Y-109750000D01*
G04 #@! TO.N,Net-(R12-Pad1)*
X153000000Y-121212500D02*
X153850000Y-122062500D01*
X153000000Y-113537500D02*
X153000000Y-121212500D01*
G04 #@! TO.N,Net-(C2-Pad1)*
X146600000Y-111055000D02*
X146600000Y-110850000D01*
X148700000Y-116900000D02*
X150650000Y-116900000D01*
X150650000Y-116900000D02*
X150750000Y-117000000D01*
X147712500Y-111962500D02*
X146600000Y-110850000D01*
X150750000Y-111962500D02*
X147712500Y-111962500D01*
X151750000Y-112962500D02*
X151750000Y-115000000D01*
X150750000Y-111962500D02*
X151750000Y-112962500D01*
X149850000Y-123625000D02*
X150674990Y-124449990D01*
X150674990Y-124449990D02*
X150750000Y-124449990D01*
G04 #@! TO.N,Net-(C2-Pad2)*
X151837500Y-122050000D02*
X151850000Y-122062500D01*
X149850000Y-122050000D02*
X151837500Y-122050000D01*
X149850000Y-122050000D02*
X149850000Y-121650000D01*
X149850000Y-121650000D02*
X150500000Y-121000000D01*
X147420000Y-120750000D02*
X147500000Y-120750000D01*
X147850000Y-121100000D02*
X147500000Y-120750000D01*
X147850000Y-122062500D02*
X147850000Y-121100000D01*
X146800000Y-119100000D02*
X146800000Y-120130000D01*
X146800000Y-120130000D02*
X147420000Y-120750000D01*
G04 #@! TO.N,Net-(R6-Pad2)*
X143250000Y-119150000D02*
X143200000Y-119100000D01*
X143250000Y-120500000D02*
X143250000Y-119150000D01*
X143684315Y-116500000D02*
X143500000Y-116684315D01*
X144250000Y-116500000D02*
X143684315Y-116500000D01*
X143415685Y-116684315D02*
X143200000Y-116900000D01*
X143500000Y-116684315D02*
X143415685Y-116684315D01*
X143850000Y-123637500D02*
X142840000Y-124647500D01*
X142840000Y-124647500D02*
X142840000Y-124840000D01*
G04 #@! TO.N,Net-(CON1-Pad1)*
X107987500Y-96622500D02*
X133050000Y-96622500D01*
X104800000Y-99810000D02*
X107987500Y-96622500D01*
X133935000Y-95200000D02*
X133050000Y-96085000D01*
X144500000Y-95200000D02*
X133935000Y-95200000D01*
X133050000Y-96085000D02*
X133050000Y-96622500D01*
X150200000Y-95900000D02*
X149500000Y-95200000D01*
X150200000Y-97000000D02*
X150200000Y-95900000D01*
X149500000Y-95200000D02*
X147200000Y-95200000D01*
X147200000Y-95200000D02*
X146600000Y-95800000D01*
X146600000Y-95800000D02*
X145100000Y-95800000D01*
X145100000Y-95800000D02*
X144500000Y-95200000D01*
G04 #@! TD*
D18*
G04 #@! TO.N,GNDREF*
G36*
X171808221Y-93120601D02*
X172284512Y-93309178D01*
X172698941Y-93610278D01*
X173025470Y-94004984D01*
X173243579Y-94468491D01*
X173343609Y-94992866D01*
X173347200Y-95107126D01*
X173347201Y-123471502D01*
X173279397Y-124008224D01*
X173090821Y-124484513D01*
X172789721Y-124898942D01*
X172395017Y-125225469D01*
X171931509Y-125443579D01*
X171407134Y-125543609D01*
X171292874Y-125547200D01*
X143165157Y-125547200D01*
X143280588Y-125499387D01*
X143499387Y-125280588D01*
X143617800Y-124994714D01*
X143617800Y-124757542D01*
X143915142Y-124460201D01*
X144106250Y-124460201D01*
X144337372Y-124414228D01*
X144533308Y-124283308D01*
X144664228Y-124087372D01*
X144710201Y-123856250D01*
X144710201Y-123418750D01*
X144664228Y-123187628D01*
X144533308Y-122991692D01*
X144337372Y-122860772D01*
X144106250Y-122814799D01*
X143593750Y-122814799D01*
X143386561Y-122856012D01*
X143402810Y-122774321D01*
X143402810Y-122774317D01*
X143415108Y-122712490D01*
X143402810Y-122650663D01*
X143402810Y-121628563D01*
X143415108Y-121566737D01*
X143402810Y-121504911D01*
X143402810Y-121504907D01*
X143366384Y-121321783D01*
X143336995Y-121277800D01*
X143404714Y-121277800D01*
X143690588Y-121159387D01*
X143909387Y-120940588D01*
X144027800Y-120654714D01*
X144027800Y-120345286D01*
X143909387Y-120059412D01*
X143877800Y-120027825D01*
X143877800Y-119782018D01*
X143880879Y-119777410D01*
X143910201Y-119630000D01*
X143910201Y-118570000D01*
X143897829Y-118507801D01*
X144508438Y-118507801D01*
X144472200Y-118595286D01*
X144472200Y-118904714D01*
X144590613Y-119190588D01*
X144809412Y-119409387D01*
X145095286Y-119527800D01*
X145139958Y-119527800D01*
X145397200Y-119785042D01*
X145397199Y-120471175D01*
X145384901Y-120533001D01*
X145397199Y-120594827D01*
X145397199Y-120594831D01*
X145433625Y-120777955D01*
X145572381Y-120985619D01*
X145624800Y-121020645D01*
X145843955Y-121239799D01*
X145593750Y-121239799D01*
X145362628Y-121285772D01*
X145166692Y-121416692D01*
X145035772Y-121612628D01*
X144989799Y-121843750D01*
X144989799Y-122281250D01*
X145035772Y-122512372D01*
X145166692Y-122708308D01*
X145362628Y-122839228D01*
X145416783Y-122850000D01*
X145362628Y-122860772D01*
X145166692Y-122991692D01*
X145035772Y-123187628D01*
X144989799Y-123418750D01*
X144989799Y-123856250D01*
X145035772Y-124087372D01*
X145166692Y-124283308D01*
X145362628Y-124414228D01*
X145593750Y-124460201D01*
X146106250Y-124460201D01*
X146337372Y-124414228D01*
X146533308Y-124283308D01*
X146664228Y-124087372D01*
X146710201Y-123856250D01*
X146710201Y-123665141D01*
X146998044Y-123377299D01*
X146989799Y-123418750D01*
X146989799Y-123856250D01*
X147035772Y-124087372D01*
X147166692Y-124283308D01*
X147362628Y-124414228D01*
X147593750Y-124460201D01*
X148106250Y-124460201D01*
X148337372Y-124414228D01*
X148533308Y-124283308D01*
X148664228Y-124087372D01*
X148710201Y-123856250D01*
X148710201Y-123665141D01*
X148994940Y-123380402D01*
X148989799Y-123406250D01*
X148989799Y-123843750D01*
X149035772Y-124074872D01*
X149166692Y-124270808D01*
X149362628Y-124401728D01*
X149593750Y-124447701D01*
X149784859Y-124447701D01*
X149993653Y-124656495D01*
X150090613Y-124890578D01*
X150309412Y-125109377D01*
X150595286Y-125227790D01*
X150904714Y-125227790D01*
X151190588Y-125109377D01*
X151409387Y-124890578D01*
X151527800Y-124604704D01*
X151527800Y-124295276D01*
X151409387Y-124009402D01*
X151190588Y-123790603D01*
X150904714Y-123672190D01*
X150785033Y-123672190D01*
X150710201Y-123597358D01*
X150710201Y-123406250D01*
X150664228Y-123175128D01*
X150533308Y-122979192D01*
X150337372Y-122848272D01*
X150283217Y-122837500D01*
X150337372Y-122826728D01*
X150533308Y-122695808D01*
X150545341Y-122677800D01*
X151146307Y-122677800D01*
X151166692Y-122708308D01*
X151362628Y-122839228D01*
X151593750Y-122885201D01*
X152106250Y-122885201D01*
X152337372Y-122839228D01*
X152533308Y-122708308D01*
X152664228Y-122512372D01*
X152710201Y-122281250D01*
X152710201Y-121843750D01*
X152701956Y-121802298D01*
X152989799Y-122090142D01*
X152989799Y-122281250D01*
X153035772Y-122512372D01*
X153166692Y-122708308D01*
X153362628Y-122839228D01*
X153416783Y-122850000D01*
X153362628Y-122860772D01*
X153166692Y-122991692D01*
X153035772Y-123187628D01*
X152989799Y-123418750D01*
X152989799Y-123856250D01*
X153035772Y-124087372D01*
X153166692Y-124283308D01*
X153362628Y-124414228D01*
X153593750Y-124460201D01*
X154106250Y-124460201D01*
X154337372Y-124414228D01*
X154533308Y-124283308D01*
X154545341Y-124265300D01*
X155154659Y-124265300D01*
X155166692Y-124283308D01*
X155362628Y-124414228D01*
X155593750Y-124460201D01*
X155784859Y-124460201D01*
X156574860Y-125250203D01*
X156609884Y-125302620D01*
X156662301Y-125337644D01*
X156817546Y-125441376D01*
X156831407Y-125444133D01*
X157000671Y-125477802D01*
X157000675Y-125477802D01*
X157062502Y-125490100D01*
X157124329Y-125477802D01*
X159096176Y-125477802D01*
X159158002Y-125490100D01*
X159219828Y-125477802D01*
X159219833Y-125477802D01*
X159402957Y-125441376D01*
X159610620Y-125302620D01*
X159645645Y-125250201D01*
X160000203Y-124895644D01*
X160052620Y-124860620D01*
X160092015Y-124801662D01*
X160113194Y-124769964D01*
X160191376Y-124652957D01*
X160227802Y-124469833D01*
X160227802Y-124469829D01*
X160240100Y-124408003D01*
X160227802Y-124346177D01*
X160227802Y-123403823D01*
X160240100Y-123341997D01*
X160227802Y-123280172D01*
X160227802Y-123280167D01*
X160191376Y-123097043D01*
X160127800Y-123001895D01*
X160127800Y-111561826D01*
X160140098Y-111500000D01*
X160127800Y-111438174D01*
X160127800Y-110688169D01*
X160091374Y-110505045D01*
X159952618Y-110297382D01*
X159744955Y-110158626D01*
X159500000Y-110109901D01*
X159255046Y-110158626D01*
X159130013Y-110242170D01*
X157949256Y-109061414D01*
X157949254Y-109061411D01*
X157860201Y-108972358D01*
X157860201Y-108781250D01*
X157814228Y-108550128D01*
X157683308Y-108354192D01*
X157487372Y-108223272D01*
X157433217Y-108212500D01*
X157487372Y-108201728D01*
X157654136Y-108090300D01*
X158304659Y-108090300D01*
X158316692Y-108108308D01*
X158512628Y-108239228D01*
X158743750Y-108285201D01*
X158934859Y-108285201D01*
X166265910Y-115616253D01*
X166033403Y-115712560D01*
X164942560Y-116803403D01*
X164352200Y-118228658D01*
X164352200Y-119771342D01*
X164942560Y-121196597D01*
X166033403Y-122287440D01*
X167458658Y-122877800D01*
X169001342Y-122877800D01*
X170426597Y-122287440D01*
X171517440Y-121196597D01*
X172107800Y-119771342D01*
X172107800Y-118228658D01*
X171517440Y-116803403D01*
X170426597Y-115712560D01*
X169001342Y-115122200D01*
X167547543Y-115122200D01*
X159860201Y-107434859D01*
X159860201Y-107243750D01*
X159814228Y-107012628D01*
X159683308Y-106816692D01*
X159627800Y-106779603D01*
X159627800Y-106748169D01*
X159591374Y-106565045D01*
X159452618Y-106357382D01*
X159244955Y-106218626D01*
X159000000Y-106169901D01*
X158755046Y-106218626D01*
X158547383Y-106357382D01*
X158408626Y-106565045D01*
X158372200Y-106748169D01*
X158372200Y-106779603D01*
X158316692Y-106816692D01*
X158304659Y-106834700D01*
X157720397Y-106834700D01*
X157683308Y-106779192D01*
X157487372Y-106648272D01*
X157256250Y-106602299D01*
X156743750Y-106602299D01*
X156512628Y-106648272D01*
X156316692Y-106779192D01*
X156185772Y-106975128D01*
X156139799Y-107206250D01*
X156139799Y-107643750D01*
X156185772Y-107874872D01*
X156316692Y-108070808D01*
X156512628Y-108201728D01*
X156566783Y-108212500D01*
X156512628Y-108223272D01*
X156316692Y-108354192D01*
X156185772Y-108550128D01*
X156139799Y-108781250D01*
X156139799Y-108972359D01*
X155989958Y-109122200D01*
X153227775Y-109122200D01*
X153409387Y-108940588D01*
X153527800Y-108654714D01*
X153527800Y-108345286D01*
X153409387Y-108059412D01*
X153190588Y-107840613D01*
X152904714Y-107722200D01*
X152595286Y-107722200D01*
X152309412Y-107840613D01*
X152127825Y-108022200D01*
X147290747Y-108022200D01*
X147280879Y-107972590D01*
X147197378Y-107847622D01*
X147072410Y-107764121D01*
X146925000Y-107734799D01*
X146275000Y-107734799D01*
X146127590Y-107764121D01*
X146125000Y-107765852D01*
X146122410Y-107764121D01*
X145975000Y-107734799D01*
X145325000Y-107734799D01*
X145177590Y-107764121D01*
X145175000Y-107765852D01*
X145172410Y-107764121D01*
X145025000Y-107734799D01*
X144375000Y-107734799D01*
X144227590Y-107764121D01*
X144102622Y-107847622D01*
X144019121Y-107972590D01*
X143989799Y-108120000D01*
X143989799Y-108677357D01*
X141599802Y-111067356D01*
X141574071Y-111084549D01*
X141559412Y-111090621D01*
X141548193Y-111101840D01*
X141547382Y-111102382D01*
X141546840Y-111103193D01*
X141340613Y-111309420D01*
X141222200Y-111595294D01*
X141222200Y-111904722D01*
X141340613Y-112190596D01*
X141372200Y-112222183D01*
X141372200Y-112377523D01*
X141372201Y-112377527D01*
X141372200Y-112952457D01*
X137934859Y-116389799D01*
X137743750Y-116389799D01*
X137512628Y-116435772D01*
X137316692Y-116566692D01*
X137295691Y-116598122D01*
X137180045Y-116621126D01*
X136972382Y-116759882D01*
X136937356Y-116812302D01*
X136674792Y-117074866D01*
X136622372Y-117109892D01*
X136483616Y-117317556D01*
X136447190Y-117500680D01*
X136447190Y-117500684D01*
X136434892Y-117562510D01*
X136447190Y-117624336D01*
X136447191Y-121213159D01*
X136434892Y-121274990D01*
X136446577Y-121333735D01*
X136127800Y-121014958D01*
X136127800Y-120311827D01*
X136140098Y-120250000D01*
X136127800Y-120188173D01*
X136127800Y-120188169D01*
X136091374Y-120005045D01*
X136069428Y-119972200D01*
X135987643Y-119849799D01*
X135987640Y-119849796D01*
X135952618Y-119797382D01*
X135900204Y-119762360D01*
X135127800Y-118989958D01*
X135127800Y-118937714D01*
X135345286Y-119027800D01*
X135654714Y-119027800D01*
X135940588Y-118909387D01*
X136159387Y-118690588D01*
X136277800Y-118404714D01*
X136277800Y-118095286D01*
X136159387Y-117809412D01*
X135940588Y-117590613D01*
X135654714Y-117472200D01*
X135345286Y-117472200D01*
X135059412Y-117590613D01*
X135012710Y-117637315D01*
X134952618Y-117547382D01*
X134900202Y-117512359D01*
X131277800Y-113889958D01*
X131277800Y-113845286D01*
X131159387Y-113559412D01*
X130940588Y-113340613D01*
X130654714Y-113222200D01*
X130345286Y-113222200D01*
X130059412Y-113340613D01*
X129840613Y-113559412D01*
X129722200Y-113845286D01*
X129722200Y-114154714D01*
X129840613Y-114440588D01*
X130059412Y-114659387D01*
X130345286Y-114777800D01*
X130389958Y-114777800D01*
X133872200Y-118260043D01*
X133872201Y-119188170D01*
X133859902Y-119250000D01*
X133908627Y-119494955D01*
X134007119Y-119642358D01*
X134047383Y-119702618D01*
X134099799Y-119737641D01*
X134872200Y-120510044D01*
X134872201Y-121213170D01*
X134859902Y-121275000D01*
X134908627Y-121519955D01*
X135012358Y-121675200D01*
X136989799Y-123652642D01*
X136989799Y-123843750D01*
X137035772Y-124074872D01*
X137166692Y-124270808D01*
X137362628Y-124401728D01*
X137593750Y-124447701D01*
X137784858Y-124447701D01*
X137911411Y-124574254D01*
X137911414Y-124574256D01*
X138262368Y-124925211D01*
X138297392Y-124977628D01*
X138505055Y-125116384D01*
X138688179Y-125152810D01*
X138688183Y-125152810D01*
X138750009Y-125165108D01*
X138811835Y-125152810D01*
X140900664Y-125152810D01*
X140962490Y-125165108D01*
X141024316Y-125152810D01*
X141024321Y-125152810D01*
X141207445Y-125116384D01*
X141415108Y-124977628D01*
X141450134Y-124925208D01*
X141915142Y-124460201D01*
X142106250Y-124460201D01*
X142159850Y-124449539D01*
X142062200Y-124685286D01*
X142062200Y-124994714D01*
X142180613Y-125280588D01*
X142399412Y-125499387D01*
X142514843Y-125547200D01*
X100278491Y-125547200D01*
X99741776Y-125479397D01*
X99265487Y-125290821D01*
X98851058Y-124989721D01*
X98524531Y-124595017D01*
X98306421Y-124131509D01*
X98206391Y-123607134D01*
X98202812Y-123493250D01*
X98246605Y-98618658D01*
X99582200Y-98618658D01*
X99582200Y-100161342D01*
X100172560Y-101586597D01*
X101263403Y-102677440D01*
X102688658Y-103267800D01*
X104231342Y-103267800D01*
X105656597Y-102677440D01*
X106747440Y-101586597D01*
X107337800Y-100161342D01*
X107337800Y-98618658D01*
X107203475Y-98294368D01*
X108247543Y-97250300D01*
X132354659Y-97250300D01*
X132366692Y-97268308D01*
X132562628Y-97399228D01*
X132793750Y-97445201D01*
X133306250Y-97445201D01*
X133537372Y-97399228D01*
X133733308Y-97268308D01*
X133864228Y-97072372D01*
X133910201Y-96841250D01*
X133910201Y-96403750D01*
X133864228Y-96172628D01*
X133858615Y-96164227D01*
X134195043Y-95827800D01*
X138211080Y-95827800D01*
X138059412Y-95890623D01*
X137915335Y-96034700D01*
X137745341Y-96034700D01*
X137733308Y-96016692D01*
X137537372Y-95885772D01*
X137306250Y-95839799D01*
X136793750Y-95839799D01*
X136562628Y-95885772D01*
X136366692Y-96016692D01*
X136235772Y-96212628D01*
X136189799Y-96443750D01*
X136189799Y-96489457D01*
X135962644Y-96262302D01*
X135927618Y-96209882D01*
X135809785Y-96131149D01*
X135733308Y-96016692D01*
X135537372Y-95885772D01*
X135306250Y-95839799D01*
X134793750Y-95839799D01*
X134562628Y-95885772D01*
X134366692Y-96016692D01*
X134235772Y-96212628D01*
X134189799Y-96443750D01*
X134189799Y-96881250D01*
X134235772Y-97112372D01*
X134366692Y-97308308D01*
X134562628Y-97439228D01*
X134793750Y-97485201D01*
X135306250Y-97485201D01*
X135392669Y-97468011D01*
X136189799Y-98265142D01*
X136189799Y-98456250D01*
X136235772Y-98687372D01*
X136366692Y-98883308D01*
X136562628Y-99014228D01*
X136793750Y-99060201D01*
X137306250Y-99060201D01*
X137537372Y-99014228D01*
X137733308Y-98883308D01*
X137745341Y-98865300D01*
X138008686Y-98865300D01*
X138070512Y-98877598D01*
X138132338Y-98865300D01*
X138132343Y-98865300D01*
X138315467Y-98828874D01*
X138523130Y-98690118D01*
X138558156Y-98637698D01*
X139768055Y-97427800D01*
X140000158Y-97427800D01*
X139972200Y-97495296D01*
X139972200Y-97804724D01*
X140090613Y-98090598D01*
X140309412Y-98309397D01*
X140595286Y-98427810D01*
X140904714Y-98427810D01*
X141190588Y-98309397D01*
X141222175Y-98277810D01*
X141355643Y-98277810D01*
X145700032Y-102622200D01*
X145565721Y-102622200D01*
X145132830Y-102801510D01*
X144801510Y-103132830D01*
X144622200Y-103565721D01*
X144622200Y-104034279D01*
X144801510Y-104467170D01*
X145132830Y-104798490D01*
X145565721Y-104977800D01*
X146034279Y-104977800D01*
X146467170Y-104798490D01*
X146798490Y-104467170D01*
X146977800Y-104034279D01*
X146977800Y-103802728D01*
X147103844Y-103827800D01*
X147103848Y-103827800D01*
X147165674Y-103840098D01*
X147227500Y-103827800D01*
X151038174Y-103827800D01*
X151100000Y-103840098D01*
X151161826Y-103827800D01*
X151161831Y-103827800D01*
X151344955Y-103791374D01*
X151552618Y-103652618D01*
X151587644Y-103600198D01*
X151622121Y-103565721D01*
X156422200Y-103565721D01*
X156422200Y-104034279D01*
X156601510Y-104467170D01*
X156932830Y-104798490D01*
X157365721Y-104977800D01*
X157834279Y-104977800D01*
X158267170Y-104798490D01*
X158598490Y-104467170D01*
X158777800Y-104034279D01*
X158777800Y-103565721D01*
X158598490Y-103132830D01*
X158267170Y-102801510D01*
X157834279Y-102622200D01*
X157365721Y-102622200D01*
X156932830Y-102801510D01*
X156601510Y-103132830D01*
X156422200Y-103565721D01*
X151622121Y-103565721D01*
X152486091Y-102701751D01*
X152532830Y-102748490D01*
X152965721Y-102927800D01*
X153434279Y-102927800D01*
X153867170Y-102748490D01*
X154198490Y-102417170D01*
X154377800Y-101984279D01*
X154377800Y-101515721D01*
X155022200Y-101515721D01*
X155022200Y-101984279D01*
X155201510Y-102417170D01*
X155532830Y-102748490D01*
X155965721Y-102927800D01*
X156434279Y-102927800D01*
X156867170Y-102748490D01*
X157198490Y-102417170D01*
X157377800Y-101984279D01*
X157377800Y-101515721D01*
X157198490Y-101082830D01*
X156867170Y-100751510D01*
X156434279Y-100572200D01*
X155965721Y-100572200D01*
X155532830Y-100751510D01*
X155201510Y-101082830D01*
X155022200Y-101515721D01*
X154377800Y-101515721D01*
X154198490Y-101082830D01*
X153867170Y-100751510D01*
X153434279Y-100572200D01*
X153161825Y-100572200D01*
X153099999Y-100559902D01*
X153038173Y-100572200D01*
X152965721Y-100572200D01*
X152898787Y-100599925D01*
X152855045Y-100608626D01*
X152817962Y-100633404D01*
X152532830Y-100751510D01*
X152201510Y-101082830D01*
X152111129Y-101301028D01*
X151342389Y-102069769D01*
X151377800Y-101984279D01*
X151377800Y-101515721D01*
X151198490Y-101082830D01*
X150867170Y-100751510D01*
X150434279Y-100572200D01*
X149965721Y-100572200D01*
X149532830Y-100751510D01*
X149201510Y-101082830D01*
X149022200Y-101515721D01*
X149022200Y-101984279D01*
X149201510Y-102417170D01*
X149356540Y-102572200D01*
X148043460Y-102572200D01*
X148198490Y-102417170D01*
X148377800Y-101984279D01*
X148377800Y-101515721D01*
X148215045Y-101122797D01*
X149950201Y-99387642D01*
X150002618Y-99352618D01*
X150141374Y-99144955D01*
X150144786Y-99127800D01*
X150888174Y-99127800D01*
X150950000Y-99140098D01*
X151011826Y-99127800D01*
X151011831Y-99127800D01*
X151194955Y-99091374D01*
X151402618Y-98952618D01*
X151437644Y-98900198D01*
X152710043Y-97627800D01*
X153434279Y-97627800D01*
X153867170Y-97448490D01*
X154198490Y-97117170D01*
X154377800Y-96684279D01*
X154377800Y-96215721D01*
X155022200Y-96215721D01*
X155022200Y-96684279D01*
X155201510Y-97117170D01*
X155532830Y-97448490D01*
X155965721Y-97627800D01*
X156434279Y-97627800D01*
X156867170Y-97448490D01*
X157198490Y-97117170D01*
X157377800Y-96684279D01*
X157377800Y-96215721D01*
X157198490Y-95782830D01*
X156867170Y-95451510D01*
X156434279Y-95272200D01*
X155965721Y-95272200D01*
X155532830Y-95451510D01*
X155201510Y-95782830D01*
X155022200Y-96215721D01*
X154377800Y-96215721D01*
X154198490Y-95782830D01*
X153867170Y-95451510D01*
X153434279Y-95272200D01*
X152965721Y-95272200D01*
X152532830Y-95451510D01*
X152201510Y-95782830D01*
X152022200Y-96215721D01*
X152022200Y-96530799D01*
X151997382Y-96547382D01*
X151962358Y-96599799D01*
X150689958Y-97872200D01*
X149810043Y-97872200D01*
X148537644Y-96599802D01*
X148502618Y-96547382D01*
X148377800Y-96463981D01*
X148377800Y-96215721D01*
X148217117Y-95827800D01*
X149182883Y-95827800D01*
X149022200Y-96215721D01*
X149022200Y-96684279D01*
X149201510Y-97117170D01*
X149532830Y-97448490D01*
X149965721Y-97627800D01*
X150138169Y-97627800D01*
X150200000Y-97640099D01*
X150261830Y-97627800D01*
X150434279Y-97627800D01*
X150867170Y-97448490D01*
X151198490Y-97117170D01*
X151377800Y-96684279D01*
X151377800Y-96215721D01*
X151198490Y-95782830D01*
X150867170Y-95451510D01*
X150478261Y-95290418D01*
X149987644Y-94799801D01*
X149952618Y-94747382D01*
X149744955Y-94608626D01*
X149561831Y-94572200D01*
X149561826Y-94572200D01*
X149500000Y-94559902D01*
X149438174Y-94572200D01*
X147261825Y-94572200D01*
X147199999Y-94559902D01*
X147138173Y-94572200D01*
X147138169Y-94572200D01*
X146977800Y-94604100D01*
X146977800Y-94165721D01*
X156422200Y-94165721D01*
X156422200Y-94634279D01*
X156601510Y-95067170D01*
X156932830Y-95398490D01*
X157365721Y-95577800D01*
X157834279Y-95577800D01*
X158267170Y-95398490D01*
X158598490Y-95067170D01*
X158777800Y-94634279D01*
X158777800Y-94165721D01*
X158598490Y-93732830D01*
X158267170Y-93401510D01*
X157834279Y-93222200D01*
X157365721Y-93222200D01*
X156932830Y-93401510D01*
X156601510Y-93732830D01*
X156422200Y-94165721D01*
X146977800Y-94165721D01*
X146798490Y-93732830D01*
X146467170Y-93401510D01*
X146034279Y-93222200D01*
X145565721Y-93222200D01*
X145132830Y-93401510D01*
X144801510Y-93732830D01*
X144622200Y-94165721D01*
X144622200Y-94584208D01*
X144561831Y-94572200D01*
X144561826Y-94572200D01*
X144500000Y-94559902D01*
X144438174Y-94572200D01*
X133996825Y-94572200D01*
X133934999Y-94559902D01*
X133873173Y-94572200D01*
X133873169Y-94572200D01*
X133690045Y-94608626D01*
X133482382Y-94747382D01*
X133447358Y-94799799D01*
X132649802Y-95597356D01*
X132597382Y-95632382D01*
X132458626Y-95840046D01*
X132441371Y-95926793D01*
X132366692Y-95976692D01*
X132354659Y-95994700D01*
X108049327Y-95994700D01*
X107987500Y-95982402D01*
X107925673Y-95994700D01*
X107925669Y-95994700D01*
X107786403Y-96022402D01*
X107742544Y-96031126D01*
X107587299Y-96134858D01*
X107534882Y-96169882D01*
X107499858Y-96222299D01*
X106638097Y-97084060D01*
X105656597Y-96102560D01*
X104231342Y-95512200D01*
X102688658Y-95512200D01*
X101263403Y-96102560D01*
X100172560Y-97193403D01*
X99582200Y-98618658D01*
X98246605Y-98618658D01*
X98252749Y-95128895D01*
X98320601Y-94591779D01*
X98509178Y-94115488D01*
X98810278Y-93701059D01*
X99204984Y-93374530D01*
X99668491Y-93156421D01*
X100192866Y-93056391D01*
X100307126Y-93052800D01*
X171271509Y-93052800D01*
X171808221Y-93120601D01*
X171808221Y-93120601D01*
G37*
X171808221Y-93120601D02*
X172284512Y-93309178D01*
X172698941Y-93610278D01*
X173025470Y-94004984D01*
X173243579Y-94468491D01*
X173343609Y-94992866D01*
X173347200Y-95107126D01*
X173347201Y-123471502D01*
X173279397Y-124008224D01*
X173090821Y-124484513D01*
X172789721Y-124898942D01*
X172395017Y-125225469D01*
X171931509Y-125443579D01*
X171407134Y-125543609D01*
X171292874Y-125547200D01*
X143165157Y-125547200D01*
X143280588Y-125499387D01*
X143499387Y-125280588D01*
X143617800Y-124994714D01*
X143617800Y-124757542D01*
X143915142Y-124460201D01*
X144106250Y-124460201D01*
X144337372Y-124414228D01*
X144533308Y-124283308D01*
X144664228Y-124087372D01*
X144710201Y-123856250D01*
X144710201Y-123418750D01*
X144664228Y-123187628D01*
X144533308Y-122991692D01*
X144337372Y-122860772D01*
X144106250Y-122814799D01*
X143593750Y-122814799D01*
X143386561Y-122856012D01*
X143402810Y-122774321D01*
X143402810Y-122774317D01*
X143415108Y-122712490D01*
X143402810Y-122650663D01*
X143402810Y-121628563D01*
X143415108Y-121566737D01*
X143402810Y-121504911D01*
X143402810Y-121504907D01*
X143366384Y-121321783D01*
X143336995Y-121277800D01*
X143404714Y-121277800D01*
X143690588Y-121159387D01*
X143909387Y-120940588D01*
X144027800Y-120654714D01*
X144027800Y-120345286D01*
X143909387Y-120059412D01*
X143877800Y-120027825D01*
X143877800Y-119782018D01*
X143880879Y-119777410D01*
X143910201Y-119630000D01*
X143910201Y-118570000D01*
X143897829Y-118507801D01*
X144508438Y-118507801D01*
X144472200Y-118595286D01*
X144472200Y-118904714D01*
X144590613Y-119190588D01*
X144809412Y-119409387D01*
X145095286Y-119527800D01*
X145139958Y-119527800D01*
X145397200Y-119785042D01*
X145397199Y-120471175D01*
X145384901Y-120533001D01*
X145397199Y-120594827D01*
X145397199Y-120594831D01*
X145433625Y-120777955D01*
X145572381Y-120985619D01*
X145624800Y-121020645D01*
X145843955Y-121239799D01*
X145593750Y-121239799D01*
X145362628Y-121285772D01*
X145166692Y-121416692D01*
X145035772Y-121612628D01*
X144989799Y-121843750D01*
X144989799Y-122281250D01*
X145035772Y-122512372D01*
X145166692Y-122708308D01*
X145362628Y-122839228D01*
X145416783Y-122850000D01*
X145362628Y-122860772D01*
X145166692Y-122991692D01*
X145035772Y-123187628D01*
X144989799Y-123418750D01*
X144989799Y-123856250D01*
X145035772Y-124087372D01*
X145166692Y-124283308D01*
X145362628Y-124414228D01*
X145593750Y-124460201D01*
X146106250Y-124460201D01*
X146337372Y-124414228D01*
X146533308Y-124283308D01*
X146664228Y-124087372D01*
X146710201Y-123856250D01*
X146710201Y-123665141D01*
X146998044Y-123377299D01*
X146989799Y-123418750D01*
X146989799Y-123856250D01*
X147035772Y-124087372D01*
X147166692Y-124283308D01*
X147362628Y-124414228D01*
X147593750Y-124460201D01*
X148106250Y-124460201D01*
X148337372Y-124414228D01*
X148533308Y-124283308D01*
X148664228Y-124087372D01*
X148710201Y-123856250D01*
X148710201Y-123665141D01*
X148994940Y-123380402D01*
X148989799Y-123406250D01*
X148989799Y-123843750D01*
X149035772Y-124074872D01*
X149166692Y-124270808D01*
X149362628Y-124401728D01*
X149593750Y-124447701D01*
X149784859Y-124447701D01*
X149993653Y-124656495D01*
X150090613Y-124890578D01*
X150309412Y-125109377D01*
X150595286Y-125227790D01*
X150904714Y-125227790D01*
X151190588Y-125109377D01*
X151409387Y-124890578D01*
X151527800Y-124604704D01*
X151527800Y-124295276D01*
X151409387Y-124009402D01*
X151190588Y-123790603D01*
X150904714Y-123672190D01*
X150785033Y-123672190D01*
X150710201Y-123597358D01*
X150710201Y-123406250D01*
X150664228Y-123175128D01*
X150533308Y-122979192D01*
X150337372Y-122848272D01*
X150283217Y-122837500D01*
X150337372Y-122826728D01*
X150533308Y-122695808D01*
X150545341Y-122677800D01*
X151146307Y-122677800D01*
X151166692Y-122708308D01*
X151362628Y-122839228D01*
X151593750Y-122885201D01*
X152106250Y-122885201D01*
X152337372Y-122839228D01*
X152533308Y-122708308D01*
X152664228Y-122512372D01*
X152710201Y-122281250D01*
X152710201Y-121843750D01*
X152701956Y-121802298D01*
X152989799Y-122090142D01*
X152989799Y-122281250D01*
X153035772Y-122512372D01*
X153166692Y-122708308D01*
X153362628Y-122839228D01*
X153416783Y-122850000D01*
X153362628Y-122860772D01*
X153166692Y-122991692D01*
X153035772Y-123187628D01*
X152989799Y-123418750D01*
X152989799Y-123856250D01*
X153035772Y-124087372D01*
X153166692Y-124283308D01*
X153362628Y-124414228D01*
X153593750Y-124460201D01*
X154106250Y-124460201D01*
X154337372Y-124414228D01*
X154533308Y-124283308D01*
X154545341Y-124265300D01*
X155154659Y-124265300D01*
X155166692Y-124283308D01*
X155362628Y-124414228D01*
X155593750Y-124460201D01*
X155784859Y-124460201D01*
X156574860Y-125250203D01*
X156609884Y-125302620D01*
X156662301Y-125337644D01*
X156817546Y-125441376D01*
X156831407Y-125444133D01*
X157000671Y-125477802D01*
X157000675Y-125477802D01*
X157062502Y-125490100D01*
X157124329Y-125477802D01*
X159096176Y-125477802D01*
X159158002Y-125490100D01*
X159219828Y-125477802D01*
X159219833Y-125477802D01*
X159402957Y-125441376D01*
X159610620Y-125302620D01*
X159645645Y-125250201D01*
X160000203Y-124895644D01*
X160052620Y-124860620D01*
X160092015Y-124801662D01*
X160113194Y-124769964D01*
X160191376Y-124652957D01*
X160227802Y-124469833D01*
X160227802Y-124469829D01*
X160240100Y-124408003D01*
X160227802Y-124346177D01*
X160227802Y-123403823D01*
X160240100Y-123341997D01*
X160227802Y-123280172D01*
X160227802Y-123280167D01*
X160191376Y-123097043D01*
X160127800Y-123001895D01*
X160127800Y-111561826D01*
X160140098Y-111500000D01*
X160127800Y-111438174D01*
X160127800Y-110688169D01*
X160091374Y-110505045D01*
X159952618Y-110297382D01*
X159744955Y-110158626D01*
X159500000Y-110109901D01*
X159255046Y-110158626D01*
X159130013Y-110242170D01*
X157949256Y-109061414D01*
X157949254Y-109061411D01*
X157860201Y-108972358D01*
X157860201Y-108781250D01*
X157814228Y-108550128D01*
X157683308Y-108354192D01*
X157487372Y-108223272D01*
X157433217Y-108212500D01*
X157487372Y-108201728D01*
X157654136Y-108090300D01*
X158304659Y-108090300D01*
X158316692Y-108108308D01*
X158512628Y-108239228D01*
X158743750Y-108285201D01*
X158934859Y-108285201D01*
X166265910Y-115616253D01*
X166033403Y-115712560D01*
X164942560Y-116803403D01*
X164352200Y-118228658D01*
X164352200Y-119771342D01*
X164942560Y-121196597D01*
X166033403Y-122287440D01*
X167458658Y-122877800D01*
X169001342Y-122877800D01*
X170426597Y-122287440D01*
X171517440Y-121196597D01*
X172107800Y-119771342D01*
X172107800Y-118228658D01*
X171517440Y-116803403D01*
X170426597Y-115712560D01*
X169001342Y-115122200D01*
X167547543Y-115122200D01*
X159860201Y-107434859D01*
X159860201Y-107243750D01*
X159814228Y-107012628D01*
X159683308Y-106816692D01*
X159627800Y-106779603D01*
X159627800Y-106748169D01*
X159591374Y-106565045D01*
X159452618Y-106357382D01*
X159244955Y-106218626D01*
X159000000Y-106169901D01*
X158755046Y-106218626D01*
X158547383Y-106357382D01*
X158408626Y-106565045D01*
X158372200Y-106748169D01*
X158372200Y-106779603D01*
X158316692Y-106816692D01*
X158304659Y-106834700D01*
X157720397Y-106834700D01*
X157683308Y-106779192D01*
X157487372Y-106648272D01*
X157256250Y-106602299D01*
X156743750Y-106602299D01*
X156512628Y-106648272D01*
X156316692Y-106779192D01*
X156185772Y-106975128D01*
X156139799Y-107206250D01*
X156139799Y-107643750D01*
X156185772Y-107874872D01*
X156316692Y-108070808D01*
X156512628Y-108201728D01*
X156566783Y-108212500D01*
X156512628Y-108223272D01*
X156316692Y-108354192D01*
X156185772Y-108550128D01*
X156139799Y-108781250D01*
X156139799Y-108972359D01*
X155989958Y-109122200D01*
X153227775Y-109122200D01*
X153409387Y-108940588D01*
X153527800Y-108654714D01*
X153527800Y-108345286D01*
X153409387Y-108059412D01*
X153190588Y-107840613D01*
X152904714Y-107722200D01*
X152595286Y-107722200D01*
X152309412Y-107840613D01*
X152127825Y-108022200D01*
X147290747Y-108022200D01*
X147280879Y-107972590D01*
X147197378Y-107847622D01*
X147072410Y-107764121D01*
X146925000Y-107734799D01*
X146275000Y-107734799D01*
X146127590Y-107764121D01*
X146125000Y-107765852D01*
X146122410Y-107764121D01*
X145975000Y-107734799D01*
X145325000Y-107734799D01*
X145177590Y-107764121D01*
X145175000Y-107765852D01*
X145172410Y-107764121D01*
X145025000Y-107734799D01*
X144375000Y-107734799D01*
X144227590Y-107764121D01*
X144102622Y-107847622D01*
X144019121Y-107972590D01*
X143989799Y-108120000D01*
X143989799Y-108677357D01*
X141599802Y-111067356D01*
X141574071Y-111084549D01*
X141559412Y-111090621D01*
X141548193Y-111101840D01*
X141547382Y-111102382D01*
X141546840Y-111103193D01*
X141340613Y-111309420D01*
X141222200Y-111595294D01*
X141222200Y-111904722D01*
X141340613Y-112190596D01*
X141372200Y-112222183D01*
X141372200Y-112377523D01*
X141372201Y-112377527D01*
X141372200Y-112952457D01*
X137934859Y-116389799D01*
X137743750Y-116389799D01*
X137512628Y-116435772D01*
X137316692Y-116566692D01*
X137295691Y-116598122D01*
X137180045Y-116621126D01*
X136972382Y-116759882D01*
X136937356Y-116812302D01*
X136674792Y-117074866D01*
X136622372Y-117109892D01*
X136483616Y-117317556D01*
X136447190Y-117500680D01*
X136447190Y-117500684D01*
X136434892Y-117562510D01*
X136447190Y-117624336D01*
X136447191Y-121213159D01*
X136434892Y-121274990D01*
X136446577Y-121333735D01*
X136127800Y-121014958D01*
X136127800Y-120311827D01*
X136140098Y-120250000D01*
X136127800Y-120188173D01*
X136127800Y-120188169D01*
X136091374Y-120005045D01*
X136069428Y-119972200D01*
X135987643Y-119849799D01*
X135987640Y-119849796D01*
X135952618Y-119797382D01*
X135900204Y-119762360D01*
X135127800Y-118989958D01*
X135127800Y-118937714D01*
X135345286Y-119027800D01*
X135654714Y-119027800D01*
X135940588Y-118909387D01*
X136159387Y-118690588D01*
X136277800Y-118404714D01*
X136277800Y-118095286D01*
X136159387Y-117809412D01*
X135940588Y-117590613D01*
X135654714Y-117472200D01*
X135345286Y-117472200D01*
X135059412Y-117590613D01*
X135012710Y-117637315D01*
X134952618Y-117547382D01*
X134900202Y-117512359D01*
X131277800Y-113889958D01*
X131277800Y-113845286D01*
X131159387Y-113559412D01*
X130940588Y-113340613D01*
X130654714Y-113222200D01*
X130345286Y-113222200D01*
X130059412Y-113340613D01*
X129840613Y-113559412D01*
X129722200Y-113845286D01*
X129722200Y-114154714D01*
X129840613Y-114440588D01*
X130059412Y-114659387D01*
X130345286Y-114777800D01*
X130389958Y-114777800D01*
X133872200Y-118260043D01*
X133872201Y-119188170D01*
X133859902Y-119250000D01*
X133908627Y-119494955D01*
X134007119Y-119642358D01*
X134047383Y-119702618D01*
X134099799Y-119737641D01*
X134872200Y-120510044D01*
X134872201Y-121213170D01*
X134859902Y-121275000D01*
X134908627Y-121519955D01*
X135012358Y-121675200D01*
X136989799Y-123652642D01*
X136989799Y-123843750D01*
X137035772Y-124074872D01*
X137166692Y-124270808D01*
X137362628Y-124401728D01*
X137593750Y-124447701D01*
X137784858Y-124447701D01*
X137911411Y-124574254D01*
X137911414Y-124574256D01*
X138262368Y-124925211D01*
X138297392Y-124977628D01*
X138505055Y-125116384D01*
X138688179Y-125152810D01*
X138688183Y-125152810D01*
X138750009Y-125165108D01*
X138811835Y-125152810D01*
X140900664Y-125152810D01*
X140962490Y-125165108D01*
X141024316Y-125152810D01*
X141024321Y-125152810D01*
X141207445Y-125116384D01*
X141415108Y-124977628D01*
X141450134Y-124925208D01*
X141915142Y-124460201D01*
X142106250Y-124460201D01*
X142159850Y-124449539D01*
X142062200Y-124685286D01*
X142062200Y-124994714D01*
X142180613Y-125280588D01*
X142399412Y-125499387D01*
X142514843Y-125547200D01*
X100278491Y-125547200D01*
X99741776Y-125479397D01*
X99265487Y-125290821D01*
X98851058Y-124989721D01*
X98524531Y-124595017D01*
X98306421Y-124131509D01*
X98206391Y-123607134D01*
X98202812Y-123493250D01*
X98246605Y-98618658D01*
X99582200Y-98618658D01*
X99582200Y-100161342D01*
X100172560Y-101586597D01*
X101263403Y-102677440D01*
X102688658Y-103267800D01*
X104231342Y-103267800D01*
X105656597Y-102677440D01*
X106747440Y-101586597D01*
X107337800Y-100161342D01*
X107337800Y-98618658D01*
X107203475Y-98294368D01*
X108247543Y-97250300D01*
X132354659Y-97250300D01*
X132366692Y-97268308D01*
X132562628Y-97399228D01*
X132793750Y-97445201D01*
X133306250Y-97445201D01*
X133537372Y-97399228D01*
X133733308Y-97268308D01*
X133864228Y-97072372D01*
X133910201Y-96841250D01*
X133910201Y-96403750D01*
X133864228Y-96172628D01*
X133858615Y-96164227D01*
X134195043Y-95827800D01*
X138211080Y-95827800D01*
X138059412Y-95890623D01*
X137915335Y-96034700D01*
X137745341Y-96034700D01*
X137733308Y-96016692D01*
X137537372Y-95885772D01*
X137306250Y-95839799D01*
X136793750Y-95839799D01*
X136562628Y-95885772D01*
X136366692Y-96016692D01*
X136235772Y-96212628D01*
X136189799Y-96443750D01*
X136189799Y-96489457D01*
X135962644Y-96262302D01*
X135927618Y-96209882D01*
X135809785Y-96131149D01*
X135733308Y-96016692D01*
X135537372Y-95885772D01*
X135306250Y-95839799D01*
X134793750Y-95839799D01*
X134562628Y-95885772D01*
X134366692Y-96016692D01*
X134235772Y-96212628D01*
X134189799Y-96443750D01*
X134189799Y-96881250D01*
X134235772Y-97112372D01*
X134366692Y-97308308D01*
X134562628Y-97439228D01*
X134793750Y-97485201D01*
X135306250Y-97485201D01*
X135392669Y-97468011D01*
X136189799Y-98265142D01*
X136189799Y-98456250D01*
X136235772Y-98687372D01*
X136366692Y-98883308D01*
X136562628Y-99014228D01*
X136793750Y-99060201D01*
X137306250Y-99060201D01*
X137537372Y-99014228D01*
X137733308Y-98883308D01*
X137745341Y-98865300D01*
X138008686Y-98865300D01*
X138070512Y-98877598D01*
X138132338Y-98865300D01*
X138132343Y-98865300D01*
X138315467Y-98828874D01*
X138523130Y-98690118D01*
X138558156Y-98637698D01*
X139768055Y-97427800D01*
X140000158Y-97427800D01*
X139972200Y-97495296D01*
X139972200Y-97804724D01*
X140090613Y-98090598D01*
X140309412Y-98309397D01*
X140595286Y-98427810D01*
X140904714Y-98427810D01*
X141190588Y-98309397D01*
X141222175Y-98277810D01*
X141355643Y-98277810D01*
X145700032Y-102622200D01*
X145565721Y-102622200D01*
X145132830Y-102801510D01*
X144801510Y-103132830D01*
X144622200Y-103565721D01*
X144622200Y-104034279D01*
X144801510Y-104467170D01*
X145132830Y-104798490D01*
X145565721Y-104977800D01*
X146034279Y-104977800D01*
X146467170Y-104798490D01*
X146798490Y-104467170D01*
X146977800Y-104034279D01*
X146977800Y-103802728D01*
X147103844Y-103827800D01*
X147103848Y-103827800D01*
X147165674Y-103840098D01*
X147227500Y-103827800D01*
X151038174Y-103827800D01*
X151100000Y-103840098D01*
X151161826Y-103827800D01*
X151161831Y-103827800D01*
X151344955Y-103791374D01*
X151552618Y-103652618D01*
X151587644Y-103600198D01*
X151622121Y-103565721D01*
X156422200Y-103565721D01*
X156422200Y-104034279D01*
X156601510Y-104467170D01*
X156932830Y-104798490D01*
X157365721Y-104977800D01*
X157834279Y-104977800D01*
X158267170Y-104798490D01*
X158598490Y-104467170D01*
X158777800Y-104034279D01*
X158777800Y-103565721D01*
X158598490Y-103132830D01*
X158267170Y-102801510D01*
X157834279Y-102622200D01*
X157365721Y-102622200D01*
X156932830Y-102801510D01*
X156601510Y-103132830D01*
X156422200Y-103565721D01*
X151622121Y-103565721D01*
X152486091Y-102701751D01*
X152532830Y-102748490D01*
X152965721Y-102927800D01*
X153434279Y-102927800D01*
X153867170Y-102748490D01*
X154198490Y-102417170D01*
X154377800Y-101984279D01*
X154377800Y-101515721D01*
X155022200Y-101515721D01*
X155022200Y-101984279D01*
X155201510Y-102417170D01*
X155532830Y-102748490D01*
X155965721Y-102927800D01*
X156434279Y-102927800D01*
X156867170Y-102748490D01*
X157198490Y-102417170D01*
X157377800Y-101984279D01*
X157377800Y-101515721D01*
X157198490Y-101082830D01*
X156867170Y-100751510D01*
X156434279Y-100572200D01*
X155965721Y-100572200D01*
X155532830Y-100751510D01*
X155201510Y-101082830D01*
X155022200Y-101515721D01*
X154377800Y-101515721D01*
X154198490Y-101082830D01*
X153867170Y-100751510D01*
X153434279Y-100572200D01*
X153161825Y-100572200D01*
X153099999Y-100559902D01*
X153038173Y-100572200D01*
X152965721Y-100572200D01*
X152898787Y-100599925D01*
X152855045Y-100608626D01*
X152817962Y-100633404D01*
X152532830Y-100751510D01*
X152201510Y-101082830D01*
X152111129Y-101301028D01*
X151342389Y-102069769D01*
X151377800Y-101984279D01*
X151377800Y-101515721D01*
X151198490Y-101082830D01*
X150867170Y-100751510D01*
X150434279Y-100572200D01*
X149965721Y-100572200D01*
X149532830Y-100751510D01*
X149201510Y-101082830D01*
X149022200Y-101515721D01*
X149022200Y-101984279D01*
X149201510Y-102417170D01*
X149356540Y-102572200D01*
X148043460Y-102572200D01*
X148198490Y-102417170D01*
X148377800Y-101984279D01*
X148377800Y-101515721D01*
X148215045Y-101122797D01*
X149950201Y-99387642D01*
X150002618Y-99352618D01*
X150141374Y-99144955D01*
X150144786Y-99127800D01*
X150888174Y-99127800D01*
X150950000Y-99140098D01*
X151011826Y-99127800D01*
X151011831Y-99127800D01*
X151194955Y-99091374D01*
X151402618Y-98952618D01*
X151437644Y-98900198D01*
X152710043Y-97627800D01*
X153434279Y-97627800D01*
X153867170Y-97448490D01*
X154198490Y-97117170D01*
X154377800Y-96684279D01*
X154377800Y-96215721D01*
X155022200Y-96215721D01*
X155022200Y-96684279D01*
X155201510Y-97117170D01*
X155532830Y-97448490D01*
X155965721Y-97627800D01*
X156434279Y-97627800D01*
X156867170Y-97448490D01*
X157198490Y-97117170D01*
X157377800Y-96684279D01*
X157377800Y-96215721D01*
X157198490Y-95782830D01*
X156867170Y-95451510D01*
X156434279Y-95272200D01*
X155965721Y-95272200D01*
X155532830Y-95451510D01*
X155201510Y-95782830D01*
X155022200Y-96215721D01*
X154377800Y-96215721D01*
X154198490Y-95782830D01*
X153867170Y-95451510D01*
X153434279Y-95272200D01*
X152965721Y-95272200D01*
X152532830Y-95451510D01*
X152201510Y-95782830D01*
X152022200Y-96215721D01*
X152022200Y-96530799D01*
X151997382Y-96547382D01*
X151962358Y-96599799D01*
X150689958Y-97872200D01*
X149810043Y-97872200D01*
X148537644Y-96599802D01*
X148502618Y-96547382D01*
X148377800Y-96463981D01*
X148377800Y-96215721D01*
X148217117Y-95827800D01*
X149182883Y-95827800D01*
X149022200Y-96215721D01*
X149022200Y-96684279D01*
X149201510Y-97117170D01*
X149532830Y-97448490D01*
X149965721Y-97627800D01*
X150138169Y-97627800D01*
X150200000Y-97640099D01*
X150261830Y-97627800D01*
X150434279Y-97627800D01*
X150867170Y-97448490D01*
X151198490Y-97117170D01*
X151377800Y-96684279D01*
X151377800Y-96215721D01*
X151198490Y-95782830D01*
X150867170Y-95451510D01*
X150478261Y-95290418D01*
X149987644Y-94799801D01*
X149952618Y-94747382D01*
X149744955Y-94608626D01*
X149561831Y-94572200D01*
X149561826Y-94572200D01*
X149500000Y-94559902D01*
X149438174Y-94572200D01*
X147261825Y-94572200D01*
X147199999Y-94559902D01*
X147138173Y-94572200D01*
X147138169Y-94572200D01*
X146977800Y-94604100D01*
X146977800Y-94165721D01*
X156422200Y-94165721D01*
X156422200Y-94634279D01*
X156601510Y-95067170D01*
X156932830Y-95398490D01*
X157365721Y-95577800D01*
X157834279Y-95577800D01*
X158267170Y-95398490D01*
X158598490Y-95067170D01*
X158777800Y-94634279D01*
X158777800Y-94165721D01*
X158598490Y-93732830D01*
X158267170Y-93401510D01*
X157834279Y-93222200D01*
X157365721Y-93222200D01*
X156932830Y-93401510D01*
X156601510Y-93732830D01*
X156422200Y-94165721D01*
X146977800Y-94165721D01*
X146798490Y-93732830D01*
X146467170Y-93401510D01*
X146034279Y-93222200D01*
X145565721Y-93222200D01*
X145132830Y-93401510D01*
X144801510Y-93732830D01*
X144622200Y-94165721D01*
X144622200Y-94584208D01*
X144561831Y-94572200D01*
X144561826Y-94572200D01*
X144500000Y-94559902D01*
X144438174Y-94572200D01*
X133996825Y-94572200D01*
X133934999Y-94559902D01*
X133873173Y-94572200D01*
X133873169Y-94572200D01*
X133690045Y-94608626D01*
X133482382Y-94747382D01*
X133447358Y-94799799D01*
X132649802Y-95597356D01*
X132597382Y-95632382D01*
X132458626Y-95840046D01*
X132441371Y-95926793D01*
X132366692Y-95976692D01*
X132354659Y-95994700D01*
X108049327Y-95994700D01*
X107987500Y-95982402D01*
X107925673Y-95994700D01*
X107925669Y-95994700D01*
X107786403Y-96022402D01*
X107742544Y-96031126D01*
X107587299Y-96134858D01*
X107534882Y-96169882D01*
X107499858Y-96222299D01*
X106638097Y-97084060D01*
X105656597Y-96102560D01*
X104231342Y-95512200D01*
X102688658Y-95512200D01*
X101263403Y-96102560D01*
X100172560Y-97193403D01*
X99582200Y-98618658D01*
X98246605Y-98618658D01*
X98252749Y-95128895D01*
X98320601Y-94591779D01*
X98509178Y-94115488D01*
X98810278Y-93701059D01*
X99204984Y-93374530D01*
X99668491Y-93156421D01*
X100192866Y-93056391D01*
X100307126Y-93052800D01*
X171271509Y-93052800D01*
X171808221Y-93120601D01*
G36*
X157061411Y-109949254D02*
X157061414Y-109949256D01*
X158872201Y-111760044D01*
X158872200Y-123180170D01*
X158859902Y-123241996D01*
X158872200Y-123303822D01*
X158872200Y-123303826D01*
X158908626Y-123486950D01*
X158972203Y-123582100D01*
X158972202Y-124147959D01*
X158897960Y-124222202D01*
X157322545Y-124222202D01*
X156710201Y-123609859D01*
X156710201Y-123418750D01*
X156664228Y-123187628D01*
X156533308Y-122991692D01*
X156337372Y-122860772D01*
X156283217Y-122850000D01*
X156337372Y-122839228D01*
X156533308Y-122708308D01*
X156545341Y-122690300D01*
X157154659Y-122690300D01*
X157166692Y-122708308D01*
X157362628Y-122839228D01*
X157593750Y-122885201D01*
X158106250Y-122885201D01*
X158337372Y-122839228D01*
X158533308Y-122708308D01*
X158664228Y-122512372D01*
X158710201Y-122281250D01*
X158710201Y-121843750D01*
X158664228Y-121612628D01*
X158533308Y-121416692D01*
X158337372Y-121285772D01*
X158106250Y-121239799D01*
X157593750Y-121239799D01*
X157362628Y-121285772D01*
X157166692Y-121416692D01*
X157154659Y-121434700D01*
X156545341Y-121434700D01*
X156533308Y-121416692D01*
X156477800Y-121379603D01*
X156477800Y-114874327D01*
X156490098Y-114812500D01*
X156477800Y-114750673D01*
X156477800Y-114750669D01*
X156441374Y-114567545D01*
X156399613Y-114505045D01*
X156337643Y-114412299D01*
X156337640Y-114412296D01*
X156302618Y-114359882D01*
X156250204Y-114324860D01*
X153860201Y-111934859D01*
X153860201Y-111743750D01*
X153814228Y-111512628D01*
X153683308Y-111316692D01*
X153627800Y-111279603D01*
X153627800Y-111222175D01*
X153659387Y-111190588D01*
X153777800Y-110904714D01*
X153777800Y-110595286D01*
X153687714Y-110377800D01*
X156188174Y-110377800D01*
X156250000Y-110390098D01*
X156311826Y-110377800D01*
X156311831Y-110377800D01*
X156494955Y-110341374D01*
X156702618Y-110202618D01*
X156737644Y-110150198D01*
X157000000Y-109887842D01*
X157061411Y-109949254D01*
X157061411Y-109949254D01*
G37*
X157061411Y-109949254D02*
X157061414Y-109949256D01*
X158872201Y-111760044D01*
X158872200Y-123180170D01*
X158859902Y-123241996D01*
X158872200Y-123303822D01*
X158872200Y-123303826D01*
X158908626Y-123486950D01*
X158972203Y-123582100D01*
X158972202Y-124147959D01*
X158897960Y-124222202D01*
X157322545Y-124222202D01*
X156710201Y-123609859D01*
X156710201Y-123418750D01*
X156664228Y-123187628D01*
X156533308Y-122991692D01*
X156337372Y-122860772D01*
X156283217Y-122850000D01*
X156337372Y-122839228D01*
X156533308Y-122708308D01*
X156545341Y-122690300D01*
X157154659Y-122690300D01*
X157166692Y-122708308D01*
X157362628Y-122839228D01*
X157593750Y-122885201D01*
X158106250Y-122885201D01*
X158337372Y-122839228D01*
X158533308Y-122708308D01*
X158664228Y-122512372D01*
X158710201Y-122281250D01*
X158710201Y-121843750D01*
X158664228Y-121612628D01*
X158533308Y-121416692D01*
X158337372Y-121285772D01*
X158106250Y-121239799D01*
X157593750Y-121239799D01*
X157362628Y-121285772D01*
X157166692Y-121416692D01*
X157154659Y-121434700D01*
X156545341Y-121434700D01*
X156533308Y-121416692D01*
X156477800Y-121379603D01*
X156477800Y-114874327D01*
X156490098Y-114812500D01*
X156477800Y-114750673D01*
X156477800Y-114750669D01*
X156441374Y-114567545D01*
X156399613Y-114505045D01*
X156337643Y-114412299D01*
X156337640Y-114412296D01*
X156302618Y-114359882D01*
X156250204Y-114324860D01*
X153860201Y-111934859D01*
X153860201Y-111743750D01*
X153814228Y-111512628D01*
X153683308Y-111316692D01*
X153627800Y-111279603D01*
X153627800Y-111222175D01*
X153659387Y-111190588D01*
X153777800Y-110904714D01*
X153777800Y-110595286D01*
X153687714Y-110377800D01*
X156188174Y-110377800D01*
X156250000Y-110390098D01*
X156311826Y-110377800D01*
X156311831Y-110377800D01*
X156494955Y-110341374D01*
X156702618Y-110202618D01*
X156737644Y-110150198D01*
X157000000Y-109887842D01*
X157061411Y-109949254D01*
G04 #@! TD*
M02*
