G04 #@! TF.GenerationSoftware,KiCad,Pcbnew,(5.0.0)*
G04 #@! TF.CreationDate,2019-04-01T19:30:18+02:00*
G04 #@! TF.ProjectId,currentscaler,63757272656E747363616C65722E6B69,rev?*
G04 #@! TF.SameCoordinates,Original*
G04 #@! TF.FileFunction,Paste,Top*
G04 #@! TF.FilePolarity,Positive*
%FSLAX46Y46*%
G04 Gerber Fmt 4.6, Leading zero omitted, Abs format (unit mm)*
G04 Created by KiCad (PCBNEW (5.0.0)) date 04/01/19 19:30:18*
%MOMM*%
%LPD*%
G01*
G04 APERTURE LIST*
%ADD10C,0.100000*%
%ADD11C,0.875000*%
%ADD12R,0.650000X1.060000*%
G04 APERTURE END LIST*
D10*
G04 #@! TO.C,C2*
G36*
X150127691Y-123188553D02*
X150148926Y-123191703D01*
X150169750Y-123196919D01*
X150189962Y-123204151D01*
X150209368Y-123213330D01*
X150227781Y-123224366D01*
X150245024Y-123237154D01*
X150260930Y-123251570D01*
X150275346Y-123267476D01*
X150288134Y-123284719D01*
X150299170Y-123303132D01*
X150308349Y-123322538D01*
X150315581Y-123342750D01*
X150320797Y-123363574D01*
X150323947Y-123384809D01*
X150325000Y-123406250D01*
X150325000Y-123843750D01*
X150323947Y-123865191D01*
X150320797Y-123886426D01*
X150315581Y-123907250D01*
X150308349Y-123927462D01*
X150299170Y-123946868D01*
X150288134Y-123965281D01*
X150275346Y-123982524D01*
X150260930Y-123998430D01*
X150245024Y-124012846D01*
X150227781Y-124025634D01*
X150209368Y-124036670D01*
X150189962Y-124045849D01*
X150169750Y-124053081D01*
X150148926Y-124058297D01*
X150127691Y-124061447D01*
X150106250Y-124062500D01*
X149593750Y-124062500D01*
X149572309Y-124061447D01*
X149551074Y-124058297D01*
X149530250Y-124053081D01*
X149510038Y-124045849D01*
X149490632Y-124036670D01*
X149472219Y-124025634D01*
X149454976Y-124012846D01*
X149439070Y-123998430D01*
X149424654Y-123982524D01*
X149411866Y-123965281D01*
X149400830Y-123946868D01*
X149391651Y-123927462D01*
X149384419Y-123907250D01*
X149379203Y-123886426D01*
X149376053Y-123865191D01*
X149375000Y-123843750D01*
X149375000Y-123406250D01*
X149376053Y-123384809D01*
X149379203Y-123363574D01*
X149384419Y-123342750D01*
X149391651Y-123322538D01*
X149400830Y-123303132D01*
X149411866Y-123284719D01*
X149424654Y-123267476D01*
X149439070Y-123251570D01*
X149454976Y-123237154D01*
X149472219Y-123224366D01*
X149490632Y-123213330D01*
X149510038Y-123204151D01*
X149530250Y-123196919D01*
X149551074Y-123191703D01*
X149572309Y-123188553D01*
X149593750Y-123187500D01*
X150106250Y-123187500D01*
X150127691Y-123188553D01*
X150127691Y-123188553D01*
G37*
D11*
X149850000Y-123625000D03*
D10*
G36*
X150127691Y-121613553D02*
X150148926Y-121616703D01*
X150169750Y-121621919D01*
X150189962Y-121629151D01*
X150209368Y-121638330D01*
X150227781Y-121649366D01*
X150245024Y-121662154D01*
X150260930Y-121676570D01*
X150275346Y-121692476D01*
X150288134Y-121709719D01*
X150299170Y-121728132D01*
X150308349Y-121747538D01*
X150315581Y-121767750D01*
X150320797Y-121788574D01*
X150323947Y-121809809D01*
X150325000Y-121831250D01*
X150325000Y-122268750D01*
X150323947Y-122290191D01*
X150320797Y-122311426D01*
X150315581Y-122332250D01*
X150308349Y-122352462D01*
X150299170Y-122371868D01*
X150288134Y-122390281D01*
X150275346Y-122407524D01*
X150260930Y-122423430D01*
X150245024Y-122437846D01*
X150227781Y-122450634D01*
X150209368Y-122461670D01*
X150189962Y-122470849D01*
X150169750Y-122478081D01*
X150148926Y-122483297D01*
X150127691Y-122486447D01*
X150106250Y-122487500D01*
X149593750Y-122487500D01*
X149572309Y-122486447D01*
X149551074Y-122483297D01*
X149530250Y-122478081D01*
X149510038Y-122470849D01*
X149490632Y-122461670D01*
X149472219Y-122450634D01*
X149454976Y-122437846D01*
X149439070Y-122423430D01*
X149424654Y-122407524D01*
X149411866Y-122390281D01*
X149400830Y-122371868D01*
X149391651Y-122352462D01*
X149384419Y-122332250D01*
X149379203Y-122311426D01*
X149376053Y-122290191D01*
X149375000Y-122268750D01*
X149375000Y-121831250D01*
X149376053Y-121809809D01*
X149379203Y-121788574D01*
X149384419Y-121767750D01*
X149391651Y-121747538D01*
X149400830Y-121728132D01*
X149411866Y-121709719D01*
X149424654Y-121692476D01*
X149439070Y-121676570D01*
X149454976Y-121662154D01*
X149472219Y-121649366D01*
X149490632Y-121638330D01*
X149510038Y-121629151D01*
X149530250Y-121621919D01*
X149551074Y-121616703D01*
X149572309Y-121613553D01*
X149593750Y-121612500D01*
X150106250Y-121612500D01*
X150127691Y-121613553D01*
X150127691Y-121613553D01*
G37*
D11*
X149850000Y-122050000D03*
G04 #@! TD*
D12*
G04 #@! TO.C,U1*
X141300000Y-119100000D03*
X142250000Y-119100000D03*
X143200000Y-119100000D03*
X143200000Y-116900000D03*
X141300000Y-116900000D03*
G04 #@! TD*
G04 #@! TO.C,U2*
X147750000Y-119100000D03*
X148700000Y-119100000D03*
X146800000Y-119100000D03*
X146800000Y-116900000D03*
X147750000Y-116900000D03*
X148700000Y-116900000D03*
G04 #@! TD*
G04 #@! TO.C,U3*
X144700000Y-110850000D03*
X145650000Y-110850000D03*
X146600000Y-110850000D03*
X146600000Y-108650000D03*
X144700000Y-108650000D03*
X145650000Y-108650000D03*
G04 #@! TD*
D10*
G04 #@! TO.C,R9*
G36*
X148127691Y-123201053D02*
X148148926Y-123204203D01*
X148169750Y-123209419D01*
X148189962Y-123216651D01*
X148209368Y-123225830D01*
X148227781Y-123236866D01*
X148245024Y-123249654D01*
X148260930Y-123264070D01*
X148275346Y-123279976D01*
X148288134Y-123297219D01*
X148299170Y-123315632D01*
X148308349Y-123335038D01*
X148315581Y-123355250D01*
X148320797Y-123376074D01*
X148323947Y-123397309D01*
X148325000Y-123418750D01*
X148325000Y-123856250D01*
X148323947Y-123877691D01*
X148320797Y-123898926D01*
X148315581Y-123919750D01*
X148308349Y-123939962D01*
X148299170Y-123959368D01*
X148288134Y-123977781D01*
X148275346Y-123995024D01*
X148260930Y-124010930D01*
X148245024Y-124025346D01*
X148227781Y-124038134D01*
X148209368Y-124049170D01*
X148189962Y-124058349D01*
X148169750Y-124065581D01*
X148148926Y-124070797D01*
X148127691Y-124073947D01*
X148106250Y-124075000D01*
X147593750Y-124075000D01*
X147572309Y-124073947D01*
X147551074Y-124070797D01*
X147530250Y-124065581D01*
X147510038Y-124058349D01*
X147490632Y-124049170D01*
X147472219Y-124038134D01*
X147454976Y-124025346D01*
X147439070Y-124010930D01*
X147424654Y-123995024D01*
X147411866Y-123977781D01*
X147400830Y-123959368D01*
X147391651Y-123939962D01*
X147384419Y-123919750D01*
X147379203Y-123898926D01*
X147376053Y-123877691D01*
X147375000Y-123856250D01*
X147375000Y-123418750D01*
X147376053Y-123397309D01*
X147379203Y-123376074D01*
X147384419Y-123355250D01*
X147391651Y-123335038D01*
X147400830Y-123315632D01*
X147411866Y-123297219D01*
X147424654Y-123279976D01*
X147439070Y-123264070D01*
X147454976Y-123249654D01*
X147472219Y-123236866D01*
X147490632Y-123225830D01*
X147510038Y-123216651D01*
X147530250Y-123209419D01*
X147551074Y-123204203D01*
X147572309Y-123201053D01*
X147593750Y-123200000D01*
X148106250Y-123200000D01*
X148127691Y-123201053D01*
X148127691Y-123201053D01*
G37*
D11*
X147850000Y-123637500D03*
D10*
G36*
X148127691Y-121626053D02*
X148148926Y-121629203D01*
X148169750Y-121634419D01*
X148189962Y-121641651D01*
X148209368Y-121650830D01*
X148227781Y-121661866D01*
X148245024Y-121674654D01*
X148260930Y-121689070D01*
X148275346Y-121704976D01*
X148288134Y-121722219D01*
X148299170Y-121740632D01*
X148308349Y-121760038D01*
X148315581Y-121780250D01*
X148320797Y-121801074D01*
X148323947Y-121822309D01*
X148325000Y-121843750D01*
X148325000Y-122281250D01*
X148323947Y-122302691D01*
X148320797Y-122323926D01*
X148315581Y-122344750D01*
X148308349Y-122364962D01*
X148299170Y-122384368D01*
X148288134Y-122402781D01*
X148275346Y-122420024D01*
X148260930Y-122435930D01*
X148245024Y-122450346D01*
X148227781Y-122463134D01*
X148209368Y-122474170D01*
X148189962Y-122483349D01*
X148169750Y-122490581D01*
X148148926Y-122495797D01*
X148127691Y-122498947D01*
X148106250Y-122500000D01*
X147593750Y-122500000D01*
X147572309Y-122498947D01*
X147551074Y-122495797D01*
X147530250Y-122490581D01*
X147510038Y-122483349D01*
X147490632Y-122474170D01*
X147472219Y-122463134D01*
X147454976Y-122450346D01*
X147439070Y-122435930D01*
X147424654Y-122420024D01*
X147411866Y-122402781D01*
X147400830Y-122384368D01*
X147391651Y-122364962D01*
X147384419Y-122344750D01*
X147379203Y-122323926D01*
X147376053Y-122302691D01*
X147375000Y-122281250D01*
X147375000Y-121843750D01*
X147376053Y-121822309D01*
X147379203Y-121801074D01*
X147384419Y-121780250D01*
X147391651Y-121760038D01*
X147400830Y-121740632D01*
X147411866Y-121722219D01*
X147424654Y-121704976D01*
X147439070Y-121689070D01*
X147454976Y-121674654D01*
X147472219Y-121661866D01*
X147490632Y-121650830D01*
X147510038Y-121641651D01*
X147530250Y-121634419D01*
X147551074Y-121629203D01*
X147572309Y-121626053D01*
X147593750Y-121625000D01*
X148106250Y-121625000D01*
X148127691Y-121626053D01*
X148127691Y-121626053D01*
G37*
D11*
X147850000Y-122062500D03*
G04 #@! TD*
D10*
G04 #@! TO.C,R6*
G36*
X144127691Y-123201053D02*
X144148926Y-123204203D01*
X144169750Y-123209419D01*
X144189962Y-123216651D01*
X144209368Y-123225830D01*
X144227781Y-123236866D01*
X144245024Y-123249654D01*
X144260930Y-123264070D01*
X144275346Y-123279976D01*
X144288134Y-123297219D01*
X144299170Y-123315632D01*
X144308349Y-123335038D01*
X144315581Y-123355250D01*
X144320797Y-123376074D01*
X144323947Y-123397309D01*
X144325000Y-123418750D01*
X144325000Y-123856250D01*
X144323947Y-123877691D01*
X144320797Y-123898926D01*
X144315581Y-123919750D01*
X144308349Y-123939962D01*
X144299170Y-123959368D01*
X144288134Y-123977781D01*
X144275346Y-123995024D01*
X144260930Y-124010930D01*
X144245024Y-124025346D01*
X144227781Y-124038134D01*
X144209368Y-124049170D01*
X144189962Y-124058349D01*
X144169750Y-124065581D01*
X144148926Y-124070797D01*
X144127691Y-124073947D01*
X144106250Y-124075000D01*
X143593750Y-124075000D01*
X143572309Y-124073947D01*
X143551074Y-124070797D01*
X143530250Y-124065581D01*
X143510038Y-124058349D01*
X143490632Y-124049170D01*
X143472219Y-124038134D01*
X143454976Y-124025346D01*
X143439070Y-124010930D01*
X143424654Y-123995024D01*
X143411866Y-123977781D01*
X143400830Y-123959368D01*
X143391651Y-123939962D01*
X143384419Y-123919750D01*
X143379203Y-123898926D01*
X143376053Y-123877691D01*
X143375000Y-123856250D01*
X143375000Y-123418750D01*
X143376053Y-123397309D01*
X143379203Y-123376074D01*
X143384419Y-123355250D01*
X143391651Y-123335038D01*
X143400830Y-123315632D01*
X143411866Y-123297219D01*
X143424654Y-123279976D01*
X143439070Y-123264070D01*
X143454976Y-123249654D01*
X143472219Y-123236866D01*
X143490632Y-123225830D01*
X143510038Y-123216651D01*
X143530250Y-123209419D01*
X143551074Y-123204203D01*
X143572309Y-123201053D01*
X143593750Y-123200000D01*
X144106250Y-123200000D01*
X144127691Y-123201053D01*
X144127691Y-123201053D01*
G37*
D11*
X143850000Y-123637500D03*
D10*
G36*
X144127691Y-121626053D02*
X144148926Y-121629203D01*
X144169750Y-121634419D01*
X144189962Y-121641651D01*
X144209368Y-121650830D01*
X144227781Y-121661866D01*
X144245024Y-121674654D01*
X144260930Y-121689070D01*
X144275346Y-121704976D01*
X144288134Y-121722219D01*
X144299170Y-121740632D01*
X144308349Y-121760038D01*
X144315581Y-121780250D01*
X144320797Y-121801074D01*
X144323947Y-121822309D01*
X144325000Y-121843750D01*
X144325000Y-122281250D01*
X144323947Y-122302691D01*
X144320797Y-122323926D01*
X144315581Y-122344750D01*
X144308349Y-122364962D01*
X144299170Y-122384368D01*
X144288134Y-122402781D01*
X144275346Y-122420024D01*
X144260930Y-122435930D01*
X144245024Y-122450346D01*
X144227781Y-122463134D01*
X144209368Y-122474170D01*
X144189962Y-122483349D01*
X144169750Y-122490581D01*
X144148926Y-122495797D01*
X144127691Y-122498947D01*
X144106250Y-122500000D01*
X143593750Y-122500000D01*
X143572309Y-122498947D01*
X143551074Y-122495797D01*
X143530250Y-122490581D01*
X143510038Y-122483349D01*
X143490632Y-122474170D01*
X143472219Y-122463134D01*
X143454976Y-122450346D01*
X143439070Y-122435930D01*
X143424654Y-122420024D01*
X143411866Y-122402781D01*
X143400830Y-122384368D01*
X143391651Y-122364962D01*
X143384419Y-122344750D01*
X143379203Y-122323926D01*
X143376053Y-122302691D01*
X143375000Y-122281250D01*
X143375000Y-121843750D01*
X143376053Y-121822309D01*
X143379203Y-121801074D01*
X143384419Y-121780250D01*
X143391651Y-121760038D01*
X143400830Y-121740632D01*
X143411866Y-121722219D01*
X143424654Y-121704976D01*
X143439070Y-121689070D01*
X143454976Y-121674654D01*
X143472219Y-121661866D01*
X143490632Y-121650830D01*
X143510038Y-121641651D01*
X143530250Y-121634419D01*
X143551074Y-121629203D01*
X143572309Y-121626053D01*
X143593750Y-121625000D01*
X144106250Y-121625000D01*
X144127691Y-121626053D01*
X144127691Y-121626053D01*
G37*
D11*
X143850000Y-122062500D03*
G04 #@! TD*
D10*
G04 #@! TO.C,R10*
G36*
X151027691Y-111526053D02*
X151048926Y-111529203D01*
X151069750Y-111534419D01*
X151089962Y-111541651D01*
X151109368Y-111550830D01*
X151127781Y-111561866D01*
X151145024Y-111574654D01*
X151160930Y-111589070D01*
X151175346Y-111604976D01*
X151188134Y-111622219D01*
X151199170Y-111640632D01*
X151208349Y-111660038D01*
X151215581Y-111680250D01*
X151220797Y-111701074D01*
X151223947Y-111722309D01*
X151225000Y-111743750D01*
X151225000Y-112181250D01*
X151223947Y-112202691D01*
X151220797Y-112223926D01*
X151215581Y-112244750D01*
X151208349Y-112264962D01*
X151199170Y-112284368D01*
X151188134Y-112302781D01*
X151175346Y-112320024D01*
X151160930Y-112335930D01*
X151145024Y-112350346D01*
X151127781Y-112363134D01*
X151109368Y-112374170D01*
X151089962Y-112383349D01*
X151069750Y-112390581D01*
X151048926Y-112395797D01*
X151027691Y-112398947D01*
X151006250Y-112400000D01*
X150493750Y-112400000D01*
X150472309Y-112398947D01*
X150451074Y-112395797D01*
X150430250Y-112390581D01*
X150410038Y-112383349D01*
X150390632Y-112374170D01*
X150372219Y-112363134D01*
X150354976Y-112350346D01*
X150339070Y-112335930D01*
X150324654Y-112320024D01*
X150311866Y-112302781D01*
X150300830Y-112284368D01*
X150291651Y-112264962D01*
X150284419Y-112244750D01*
X150279203Y-112223926D01*
X150276053Y-112202691D01*
X150275000Y-112181250D01*
X150275000Y-111743750D01*
X150276053Y-111722309D01*
X150279203Y-111701074D01*
X150284419Y-111680250D01*
X150291651Y-111660038D01*
X150300830Y-111640632D01*
X150311866Y-111622219D01*
X150324654Y-111604976D01*
X150339070Y-111589070D01*
X150354976Y-111574654D01*
X150372219Y-111561866D01*
X150390632Y-111550830D01*
X150410038Y-111541651D01*
X150430250Y-111534419D01*
X150451074Y-111529203D01*
X150472309Y-111526053D01*
X150493750Y-111525000D01*
X151006250Y-111525000D01*
X151027691Y-111526053D01*
X151027691Y-111526053D01*
G37*
D11*
X150750000Y-111962500D03*
D10*
G36*
X151027691Y-113101053D02*
X151048926Y-113104203D01*
X151069750Y-113109419D01*
X151089962Y-113116651D01*
X151109368Y-113125830D01*
X151127781Y-113136866D01*
X151145024Y-113149654D01*
X151160930Y-113164070D01*
X151175346Y-113179976D01*
X151188134Y-113197219D01*
X151199170Y-113215632D01*
X151208349Y-113235038D01*
X151215581Y-113255250D01*
X151220797Y-113276074D01*
X151223947Y-113297309D01*
X151225000Y-113318750D01*
X151225000Y-113756250D01*
X151223947Y-113777691D01*
X151220797Y-113798926D01*
X151215581Y-113819750D01*
X151208349Y-113839962D01*
X151199170Y-113859368D01*
X151188134Y-113877781D01*
X151175346Y-113895024D01*
X151160930Y-113910930D01*
X151145024Y-113925346D01*
X151127781Y-113938134D01*
X151109368Y-113949170D01*
X151089962Y-113958349D01*
X151069750Y-113965581D01*
X151048926Y-113970797D01*
X151027691Y-113973947D01*
X151006250Y-113975000D01*
X150493750Y-113975000D01*
X150472309Y-113973947D01*
X150451074Y-113970797D01*
X150430250Y-113965581D01*
X150410038Y-113958349D01*
X150390632Y-113949170D01*
X150372219Y-113938134D01*
X150354976Y-113925346D01*
X150339070Y-113910930D01*
X150324654Y-113895024D01*
X150311866Y-113877781D01*
X150300830Y-113859368D01*
X150291651Y-113839962D01*
X150284419Y-113819750D01*
X150279203Y-113798926D01*
X150276053Y-113777691D01*
X150275000Y-113756250D01*
X150275000Y-113318750D01*
X150276053Y-113297309D01*
X150279203Y-113276074D01*
X150284419Y-113255250D01*
X150291651Y-113235038D01*
X150300830Y-113215632D01*
X150311866Y-113197219D01*
X150324654Y-113179976D01*
X150339070Y-113164070D01*
X150354976Y-113149654D01*
X150372219Y-113136866D01*
X150390632Y-113125830D01*
X150410038Y-113116651D01*
X150430250Y-113109419D01*
X150451074Y-113104203D01*
X150472309Y-113101053D01*
X150493750Y-113100000D01*
X151006250Y-113100000D01*
X151027691Y-113101053D01*
X151027691Y-113101053D01*
G37*
D11*
X150750000Y-113537500D03*
G04 #@! TD*
D10*
G04 #@! TO.C,R4*
G36*
X135327691Y-97801053D02*
X135348926Y-97804203D01*
X135369750Y-97809419D01*
X135389962Y-97816651D01*
X135409368Y-97825830D01*
X135427781Y-97836866D01*
X135445024Y-97849654D01*
X135460930Y-97864070D01*
X135475346Y-97879976D01*
X135488134Y-97897219D01*
X135499170Y-97915632D01*
X135508349Y-97935038D01*
X135515581Y-97955250D01*
X135520797Y-97976074D01*
X135523947Y-97997309D01*
X135525000Y-98018750D01*
X135525000Y-98456250D01*
X135523947Y-98477691D01*
X135520797Y-98498926D01*
X135515581Y-98519750D01*
X135508349Y-98539962D01*
X135499170Y-98559368D01*
X135488134Y-98577781D01*
X135475346Y-98595024D01*
X135460930Y-98610930D01*
X135445024Y-98625346D01*
X135427781Y-98638134D01*
X135409368Y-98649170D01*
X135389962Y-98658349D01*
X135369750Y-98665581D01*
X135348926Y-98670797D01*
X135327691Y-98673947D01*
X135306250Y-98675000D01*
X134793750Y-98675000D01*
X134772309Y-98673947D01*
X134751074Y-98670797D01*
X134730250Y-98665581D01*
X134710038Y-98658349D01*
X134690632Y-98649170D01*
X134672219Y-98638134D01*
X134654976Y-98625346D01*
X134639070Y-98610930D01*
X134624654Y-98595024D01*
X134611866Y-98577781D01*
X134600830Y-98559368D01*
X134591651Y-98539962D01*
X134584419Y-98519750D01*
X134579203Y-98498926D01*
X134576053Y-98477691D01*
X134575000Y-98456250D01*
X134575000Y-98018750D01*
X134576053Y-97997309D01*
X134579203Y-97976074D01*
X134584419Y-97955250D01*
X134591651Y-97935038D01*
X134600830Y-97915632D01*
X134611866Y-97897219D01*
X134624654Y-97879976D01*
X134639070Y-97864070D01*
X134654976Y-97849654D01*
X134672219Y-97836866D01*
X134690632Y-97825830D01*
X134710038Y-97816651D01*
X134730250Y-97809419D01*
X134751074Y-97804203D01*
X134772309Y-97801053D01*
X134793750Y-97800000D01*
X135306250Y-97800000D01*
X135327691Y-97801053D01*
X135327691Y-97801053D01*
G37*
D11*
X135050000Y-98237500D03*
D10*
G36*
X135327691Y-96226053D02*
X135348926Y-96229203D01*
X135369750Y-96234419D01*
X135389962Y-96241651D01*
X135409368Y-96250830D01*
X135427781Y-96261866D01*
X135445024Y-96274654D01*
X135460930Y-96289070D01*
X135475346Y-96304976D01*
X135488134Y-96322219D01*
X135499170Y-96340632D01*
X135508349Y-96360038D01*
X135515581Y-96380250D01*
X135520797Y-96401074D01*
X135523947Y-96422309D01*
X135525000Y-96443750D01*
X135525000Y-96881250D01*
X135523947Y-96902691D01*
X135520797Y-96923926D01*
X135515581Y-96944750D01*
X135508349Y-96964962D01*
X135499170Y-96984368D01*
X135488134Y-97002781D01*
X135475346Y-97020024D01*
X135460930Y-97035930D01*
X135445024Y-97050346D01*
X135427781Y-97063134D01*
X135409368Y-97074170D01*
X135389962Y-97083349D01*
X135369750Y-97090581D01*
X135348926Y-97095797D01*
X135327691Y-97098947D01*
X135306250Y-97100000D01*
X134793750Y-97100000D01*
X134772309Y-97098947D01*
X134751074Y-97095797D01*
X134730250Y-97090581D01*
X134710038Y-97083349D01*
X134690632Y-97074170D01*
X134672219Y-97063134D01*
X134654976Y-97050346D01*
X134639070Y-97035930D01*
X134624654Y-97020024D01*
X134611866Y-97002781D01*
X134600830Y-96984368D01*
X134591651Y-96964962D01*
X134584419Y-96944750D01*
X134579203Y-96923926D01*
X134576053Y-96902691D01*
X134575000Y-96881250D01*
X134575000Y-96443750D01*
X134576053Y-96422309D01*
X134579203Y-96401074D01*
X134584419Y-96380250D01*
X134591651Y-96360038D01*
X134600830Y-96340632D01*
X134611866Y-96322219D01*
X134624654Y-96304976D01*
X134639070Y-96289070D01*
X134654976Y-96274654D01*
X134672219Y-96261866D01*
X134690632Y-96250830D01*
X134710038Y-96241651D01*
X134730250Y-96234419D01*
X134751074Y-96229203D01*
X134772309Y-96226053D01*
X134793750Y-96225000D01*
X135306250Y-96225000D01*
X135327691Y-96226053D01*
X135327691Y-96226053D01*
G37*
D11*
X135050000Y-96662500D03*
G04 #@! TD*
D10*
G04 #@! TO.C,R7*
G36*
X152127691Y-123201053D02*
X152148926Y-123204203D01*
X152169750Y-123209419D01*
X152189962Y-123216651D01*
X152209368Y-123225830D01*
X152227781Y-123236866D01*
X152245024Y-123249654D01*
X152260930Y-123264070D01*
X152275346Y-123279976D01*
X152288134Y-123297219D01*
X152299170Y-123315632D01*
X152308349Y-123335038D01*
X152315581Y-123355250D01*
X152320797Y-123376074D01*
X152323947Y-123397309D01*
X152325000Y-123418750D01*
X152325000Y-123856250D01*
X152323947Y-123877691D01*
X152320797Y-123898926D01*
X152315581Y-123919750D01*
X152308349Y-123939962D01*
X152299170Y-123959368D01*
X152288134Y-123977781D01*
X152275346Y-123995024D01*
X152260930Y-124010930D01*
X152245024Y-124025346D01*
X152227781Y-124038134D01*
X152209368Y-124049170D01*
X152189962Y-124058349D01*
X152169750Y-124065581D01*
X152148926Y-124070797D01*
X152127691Y-124073947D01*
X152106250Y-124075000D01*
X151593750Y-124075000D01*
X151572309Y-124073947D01*
X151551074Y-124070797D01*
X151530250Y-124065581D01*
X151510038Y-124058349D01*
X151490632Y-124049170D01*
X151472219Y-124038134D01*
X151454976Y-124025346D01*
X151439070Y-124010930D01*
X151424654Y-123995024D01*
X151411866Y-123977781D01*
X151400830Y-123959368D01*
X151391651Y-123939962D01*
X151384419Y-123919750D01*
X151379203Y-123898926D01*
X151376053Y-123877691D01*
X151375000Y-123856250D01*
X151375000Y-123418750D01*
X151376053Y-123397309D01*
X151379203Y-123376074D01*
X151384419Y-123355250D01*
X151391651Y-123335038D01*
X151400830Y-123315632D01*
X151411866Y-123297219D01*
X151424654Y-123279976D01*
X151439070Y-123264070D01*
X151454976Y-123249654D01*
X151472219Y-123236866D01*
X151490632Y-123225830D01*
X151510038Y-123216651D01*
X151530250Y-123209419D01*
X151551074Y-123204203D01*
X151572309Y-123201053D01*
X151593750Y-123200000D01*
X152106250Y-123200000D01*
X152127691Y-123201053D01*
X152127691Y-123201053D01*
G37*
D11*
X151850000Y-123637500D03*
D10*
G36*
X152127691Y-121626053D02*
X152148926Y-121629203D01*
X152169750Y-121634419D01*
X152189962Y-121641651D01*
X152209368Y-121650830D01*
X152227781Y-121661866D01*
X152245024Y-121674654D01*
X152260930Y-121689070D01*
X152275346Y-121704976D01*
X152288134Y-121722219D01*
X152299170Y-121740632D01*
X152308349Y-121760038D01*
X152315581Y-121780250D01*
X152320797Y-121801074D01*
X152323947Y-121822309D01*
X152325000Y-121843750D01*
X152325000Y-122281250D01*
X152323947Y-122302691D01*
X152320797Y-122323926D01*
X152315581Y-122344750D01*
X152308349Y-122364962D01*
X152299170Y-122384368D01*
X152288134Y-122402781D01*
X152275346Y-122420024D01*
X152260930Y-122435930D01*
X152245024Y-122450346D01*
X152227781Y-122463134D01*
X152209368Y-122474170D01*
X152189962Y-122483349D01*
X152169750Y-122490581D01*
X152148926Y-122495797D01*
X152127691Y-122498947D01*
X152106250Y-122500000D01*
X151593750Y-122500000D01*
X151572309Y-122498947D01*
X151551074Y-122495797D01*
X151530250Y-122490581D01*
X151510038Y-122483349D01*
X151490632Y-122474170D01*
X151472219Y-122463134D01*
X151454976Y-122450346D01*
X151439070Y-122435930D01*
X151424654Y-122420024D01*
X151411866Y-122402781D01*
X151400830Y-122384368D01*
X151391651Y-122364962D01*
X151384419Y-122344750D01*
X151379203Y-122323926D01*
X151376053Y-122302691D01*
X151375000Y-122281250D01*
X151375000Y-121843750D01*
X151376053Y-121822309D01*
X151379203Y-121801074D01*
X151384419Y-121780250D01*
X151391651Y-121760038D01*
X151400830Y-121740632D01*
X151411866Y-121722219D01*
X151424654Y-121704976D01*
X151439070Y-121689070D01*
X151454976Y-121674654D01*
X151472219Y-121661866D01*
X151490632Y-121650830D01*
X151510038Y-121641651D01*
X151530250Y-121634419D01*
X151551074Y-121629203D01*
X151572309Y-121626053D01*
X151593750Y-121625000D01*
X152106250Y-121625000D01*
X152127691Y-121626053D01*
X152127691Y-121626053D01*
G37*
D11*
X151850000Y-122062500D03*
G04 #@! TD*
D10*
G04 #@! TO.C,R8*
G36*
X146127691Y-121626053D02*
X146148926Y-121629203D01*
X146169750Y-121634419D01*
X146189962Y-121641651D01*
X146209368Y-121650830D01*
X146227781Y-121661866D01*
X146245024Y-121674654D01*
X146260930Y-121689070D01*
X146275346Y-121704976D01*
X146288134Y-121722219D01*
X146299170Y-121740632D01*
X146308349Y-121760038D01*
X146315581Y-121780250D01*
X146320797Y-121801074D01*
X146323947Y-121822309D01*
X146325000Y-121843750D01*
X146325000Y-122281250D01*
X146323947Y-122302691D01*
X146320797Y-122323926D01*
X146315581Y-122344750D01*
X146308349Y-122364962D01*
X146299170Y-122384368D01*
X146288134Y-122402781D01*
X146275346Y-122420024D01*
X146260930Y-122435930D01*
X146245024Y-122450346D01*
X146227781Y-122463134D01*
X146209368Y-122474170D01*
X146189962Y-122483349D01*
X146169750Y-122490581D01*
X146148926Y-122495797D01*
X146127691Y-122498947D01*
X146106250Y-122500000D01*
X145593750Y-122500000D01*
X145572309Y-122498947D01*
X145551074Y-122495797D01*
X145530250Y-122490581D01*
X145510038Y-122483349D01*
X145490632Y-122474170D01*
X145472219Y-122463134D01*
X145454976Y-122450346D01*
X145439070Y-122435930D01*
X145424654Y-122420024D01*
X145411866Y-122402781D01*
X145400830Y-122384368D01*
X145391651Y-122364962D01*
X145384419Y-122344750D01*
X145379203Y-122323926D01*
X145376053Y-122302691D01*
X145375000Y-122281250D01*
X145375000Y-121843750D01*
X145376053Y-121822309D01*
X145379203Y-121801074D01*
X145384419Y-121780250D01*
X145391651Y-121760038D01*
X145400830Y-121740632D01*
X145411866Y-121722219D01*
X145424654Y-121704976D01*
X145439070Y-121689070D01*
X145454976Y-121674654D01*
X145472219Y-121661866D01*
X145490632Y-121650830D01*
X145510038Y-121641651D01*
X145530250Y-121634419D01*
X145551074Y-121629203D01*
X145572309Y-121626053D01*
X145593750Y-121625000D01*
X146106250Y-121625000D01*
X146127691Y-121626053D01*
X146127691Y-121626053D01*
G37*
D11*
X145850000Y-122062500D03*
D10*
G36*
X146127691Y-123201053D02*
X146148926Y-123204203D01*
X146169750Y-123209419D01*
X146189962Y-123216651D01*
X146209368Y-123225830D01*
X146227781Y-123236866D01*
X146245024Y-123249654D01*
X146260930Y-123264070D01*
X146275346Y-123279976D01*
X146288134Y-123297219D01*
X146299170Y-123315632D01*
X146308349Y-123335038D01*
X146315581Y-123355250D01*
X146320797Y-123376074D01*
X146323947Y-123397309D01*
X146325000Y-123418750D01*
X146325000Y-123856250D01*
X146323947Y-123877691D01*
X146320797Y-123898926D01*
X146315581Y-123919750D01*
X146308349Y-123939962D01*
X146299170Y-123959368D01*
X146288134Y-123977781D01*
X146275346Y-123995024D01*
X146260930Y-124010930D01*
X146245024Y-124025346D01*
X146227781Y-124038134D01*
X146209368Y-124049170D01*
X146189962Y-124058349D01*
X146169750Y-124065581D01*
X146148926Y-124070797D01*
X146127691Y-124073947D01*
X146106250Y-124075000D01*
X145593750Y-124075000D01*
X145572309Y-124073947D01*
X145551074Y-124070797D01*
X145530250Y-124065581D01*
X145510038Y-124058349D01*
X145490632Y-124049170D01*
X145472219Y-124038134D01*
X145454976Y-124025346D01*
X145439070Y-124010930D01*
X145424654Y-123995024D01*
X145411866Y-123977781D01*
X145400830Y-123959368D01*
X145391651Y-123939962D01*
X145384419Y-123919750D01*
X145379203Y-123898926D01*
X145376053Y-123877691D01*
X145375000Y-123856250D01*
X145375000Y-123418750D01*
X145376053Y-123397309D01*
X145379203Y-123376074D01*
X145384419Y-123355250D01*
X145391651Y-123335038D01*
X145400830Y-123315632D01*
X145411866Y-123297219D01*
X145424654Y-123279976D01*
X145439070Y-123264070D01*
X145454976Y-123249654D01*
X145472219Y-123236866D01*
X145490632Y-123225830D01*
X145510038Y-123216651D01*
X145530250Y-123209419D01*
X145551074Y-123204203D01*
X145572309Y-123201053D01*
X145593750Y-123200000D01*
X146106250Y-123200000D01*
X146127691Y-123201053D01*
X146127691Y-123201053D01*
G37*
D11*
X145850000Y-123637500D03*
G04 #@! TD*
D10*
G04 #@! TO.C,R5*
G36*
X137327691Y-96226053D02*
X137348926Y-96229203D01*
X137369750Y-96234419D01*
X137389962Y-96241651D01*
X137409368Y-96250830D01*
X137427781Y-96261866D01*
X137445024Y-96274654D01*
X137460930Y-96289070D01*
X137475346Y-96304976D01*
X137488134Y-96322219D01*
X137499170Y-96340632D01*
X137508349Y-96360038D01*
X137515581Y-96380250D01*
X137520797Y-96401074D01*
X137523947Y-96422309D01*
X137525000Y-96443750D01*
X137525000Y-96881250D01*
X137523947Y-96902691D01*
X137520797Y-96923926D01*
X137515581Y-96944750D01*
X137508349Y-96964962D01*
X137499170Y-96984368D01*
X137488134Y-97002781D01*
X137475346Y-97020024D01*
X137460930Y-97035930D01*
X137445024Y-97050346D01*
X137427781Y-97063134D01*
X137409368Y-97074170D01*
X137389962Y-97083349D01*
X137369750Y-97090581D01*
X137348926Y-97095797D01*
X137327691Y-97098947D01*
X137306250Y-97100000D01*
X136793750Y-97100000D01*
X136772309Y-97098947D01*
X136751074Y-97095797D01*
X136730250Y-97090581D01*
X136710038Y-97083349D01*
X136690632Y-97074170D01*
X136672219Y-97063134D01*
X136654976Y-97050346D01*
X136639070Y-97035930D01*
X136624654Y-97020024D01*
X136611866Y-97002781D01*
X136600830Y-96984368D01*
X136591651Y-96964962D01*
X136584419Y-96944750D01*
X136579203Y-96923926D01*
X136576053Y-96902691D01*
X136575000Y-96881250D01*
X136575000Y-96443750D01*
X136576053Y-96422309D01*
X136579203Y-96401074D01*
X136584419Y-96380250D01*
X136591651Y-96360038D01*
X136600830Y-96340632D01*
X136611866Y-96322219D01*
X136624654Y-96304976D01*
X136639070Y-96289070D01*
X136654976Y-96274654D01*
X136672219Y-96261866D01*
X136690632Y-96250830D01*
X136710038Y-96241651D01*
X136730250Y-96234419D01*
X136751074Y-96229203D01*
X136772309Y-96226053D01*
X136793750Y-96225000D01*
X137306250Y-96225000D01*
X137327691Y-96226053D01*
X137327691Y-96226053D01*
G37*
D11*
X137050000Y-96662500D03*
D10*
G36*
X137327691Y-97801053D02*
X137348926Y-97804203D01*
X137369750Y-97809419D01*
X137389962Y-97816651D01*
X137409368Y-97825830D01*
X137427781Y-97836866D01*
X137445024Y-97849654D01*
X137460930Y-97864070D01*
X137475346Y-97879976D01*
X137488134Y-97897219D01*
X137499170Y-97915632D01*
X137508349Y-97935038D01*
X137515581Y-97955250D01*
X137520797Y-97976074D01*
X137523947Y-97997309D01*
X137525000Y-98018750D01*
X137525000Y-98456250D01*
X137523947Y-98477691D01*
X137520797Y-98498926D01*
X137515581Y-98519750D01*
X137508349Y-98539962D01*
X137499170Y-98559368D01*
X137488134Y-98577781D01*
X137475346Y-98595024D01*
X137460930Y-98610930D01*
X137445024Y-98625346D01*
X137427781Y-98638134D01*
X137409368Y-98649170D01*
X137389962Y-98658349D01*
X137369750Y-98665581D01*
X137348926Y-98670797D01*
X137327691Y-98673947D01*
X137306250Y-98675000D01*
X136793750Y-98675000D01*
X136772309Y-98673947D01*
X136751074Y-98670797D01*
X136730250Y-98665581D01*
X136710038Y-98658349D01*
X136690632Y-98649170D01*
X136672219Y-98638134D01*
X136654976Y-98625346D01*
X136639070Y-98610930D01*
X136624654Y-98595024D01*
X136611866Y-98577781D01*
X136600830Y-98559368D01*
X136591651Y-98539962D01*
X136584419Y-98519750D01*
X136579203Y-98498926D01*
X136576053Y-98477691D01*
X136575000Y-98456250D01*
X136575000Y-98018750D01*
X136576053Y-97997309D01*
X136579203Y-97976074D01*
X136584419Y-97955250D01*
X136591651Y-97935038D01*
X136600830Y-97915632D01*
X136611866Y-97897219D01*
X136624654Y-97879976D01*
X136639070Y-97864070D01*
X136654976Y-97849654D01*
X136672219Y-97836866D01*
X136690632Y-97825830D01*
X136710038Y-97816651D01*
X136730250Y-97809419D01*
X136751074Y-97804203D01*
X136772309Y-97801053D01*
X136793750Y-97800000D01*
X137306250Y-97800000D01*
X137327691Y-97801053D01*
X137327691Y-97801053D01*
G37*
D11*
X137050000Y-98237500D03*
G04 #@! TD*
D10*
G04 #@! TO.C,R14*
G36*
X157277691Y-108563553D02*
X157298926Y-108566703D01*
X157319750Y-108571919D01*
X157339962Y-108579151D01*
X157359368Y-108588330D01*
X157377781Y-108599366D01*
X157395024Y-108612154D01*
X157410930Y-108626570D01*
X157425346Y-108642476D01*
X157438134Y-108659719D01*
X157449170Y-108678132D01*
X157458349Y-108697538D01*
X157465581Y-108717750D01*
X157470797Y-108738574D01*
X157473947Y-108759809D01*
X157475000Y-108781250D01*
X157475000Y-109218750D01*
X157473947Y-109240191D01*
X157470797Y-109261426D01*
X157465581Y-109282250D01*
X157458349Y-109302462D01*
X157449170Y-109321868D01*
X157438134Y-109340281D01*
X157425346Y-109357524D01*
X157410930Y-109373430D01*
X157395024Y-109387846D01*
X157377781Y-109400634D01*
X157359368Y-109411670D01*
X157339962Y-109420849D01*
X157319750Y-109428081D01*
X157298926Y-109433297D01*
X157277691Y-109436447D01*
X157256250Y-109437500D01*
X156743750Y-109437500D01*
X156722309Y-109436447D01*
X156701074Y-109433297D01*
X156680250Y-109428081D01*
X156660038Y-109420849D01*
X156640632Y-109411670D01*
X156622219Y-109400634D01*
X156604976Y-109387846D01*
X156589070Y-109373430D01*
X156574654Y-109357524D01*
X156561866Y-109340281D01*
X156550830Y-109321868D01*
X156541651Y-109302462D01*
X156534419Y-109282250D01*
X156529203Y-109261426D01*
X156526053Y-109240191D01*
X156525000Y-109218750D01*
X156525000Y-108781250D01*
X156526053Y-108759809D01*
X156529203Y-108738574D01*
X156534419Y-108717750D01*
X156541651Y-108697538D01*
X156550830Y-108678132D01*
X156561866Y-108659719D01*
X156574654Y-108642476D01*
X156589070Y-108626570D01*
X156604976Y-108612154D01*
X156622219Y-108599366D01*
X156640632Y-108588330D01*
X156660038Y-108579151D01*
X156680250Y-108571919D01*
X156701074Y-108566703D01*
X156722309Y-108563553D01*
X156743750Y-108562500D01*
X157256250Y-108562500D01*
X157277691Y-108563553D01*
X157277691Y-108563553D01*
G37*
D11*
X157000000Y-109000000D03*
D10*
G36*
X157277691Y-106988553D02*
X157298926Y-106991703D01*
X157319750Y-106996919D01*
X157339962Y-107004151D01*
X157359368Y-107013330D01*
X157377781Y-107024366D01*
X157395024Y-107037154D01*
X157410930Y-107051570D01*
X157425346Y-107067476D01*
X157438134Y-107084719D01*
X157449170Y-107103132D01*
X157458349Y-107122538D01*
X157465581Y-107142750D01*
X157470797Y-107163574D01*
X157473947Y-107184809D01*
X157475000Y-107206250D01*
X157475000Y-107643750D01*
X157473947Y-107665191D01*
X157470797Y-107686426D01*
X157465581Y-107707250D01*
X157458349Y-107727462D01*
X157449170Y-107746868D01*
X157438134Y-107765281D01*
X157425346Y-107782524D01*
X157410930Y-107798430D01*
X157395024Y-107812846D01*
X157377781Y-107825634D01*
X157359368Y-107836670D01*
X157339962Y-107845849D01*
X157319750Y-107853081D01*
X157298926Y-107858297D01*
X157277691Y-107861447D01*
X157256250Y-107862500D01*
X156743750Y-107862500D01*
X156722309Y-107861447D01*
X156701074Y-107858297D01*
X156680250Y-107853081D01*
X156660038Y-107845849D01*
X156640632Y-107836670D01*
X156622219Y-107825634D01*
X156604976Y-107812846D01*
X156589070Y-107798430D01*
X156574654Y-107782524D01*
X156561866Y-107765281D01*
X156550830Y-107746868D01*
X156541651Y-107727462D01*
X156534419Y-107707250D01*
X156529203Y-107686426D01*
X156526053Y-107665191D01*
X156525000Y-107643750D01*
X156525000Y-107206250D01*
X156526053Y-107184809D01*
X156529203Y-107163574D01*
X156534419Y-107142750D01*
X156541651Y-107122538D01*
X156550830Y-107103132D01*
X156561866Y-107084719D01*
X156574654Y-107067476D01*
X156589070Y-107051570D01*
X156604976Y-107037154D01*
X156622219Y-107024366D01*
X156640632Y-107013330D01*
X156660038Y-107004151D01*
X156680250Y-106996919D01*
X156701074Y-106991703D01*
X156722309Y-106988553D01*
X156743750Y-106987500D01*
X157256250Y-106987500D01*
X157277691Y-106988553D01*
X157277691Y-106988553D01*
G37*
D11*
X157000000Y-107425000D03*
G04 #@! TD*
D10*
G04 #@! TO.C,R13*
G36*
X154127691Y-123201053D02*
X154148926Y-123204203D01*
X154169750Y-123209419D01*
X154189962Y-123216651D01*
X154209368Y-123225830D01*
X154227781Y-123236866D01*
X154245024Y-123249654D01*
X154260930Y-123264070D01*
X154275346Y-123279976D01*
X154288134Y-123297219D01*
X154299170Y-123315632D01*
X154308349Y-123335038D01*
X154315581Y-123355250D01*
X154320797Y-123376074D01*
X154323947Y-123397309D01*
X154325000Y-123418750D01*
X154325000Y-123856250D01*
X154323947Y-123877691D01*
X154320797Y-123898926D01*
X154315581Y-123919750D01*
X154308349Y-123939962D01*
X154299170Y-123959368D01*
X154288134Y-123977781D01*
X154275346Y-123995024D01*
X154260930Y-124010930D01*
X154245024Y-124025346D01*
X154227781Y-124038134D01*
X154209368Y-124049170D01*
X154189962Y-124058349D01*
X154169750Y-124065581D01*
X154148926Y-124070797D01*
X154127691Y-124073947D01*
X154106250Y-124075000D01*
X153593750Y-124075000D01*
X153572309Y-124073947D01*
X153551074Y-124070797D01*
X153530250Y-124065581D01*
X153510038Y-124058349D01*
X153490632Y-124049170D01*
X153472219Y-124038134D01*
X153454976Y-124025346D01*
X153439070Y-124010930D01*
X153424654Y-123995024D01*
X153411866Y-123977781D01*
X153400830Y-123959368D01*
X153391651Y-123939962D01*
X153384419Y-123919750D01*
X153379203Y-123898926D01*
X153376053Y-123877691D01*
X153375000Y-123856250D01*
X153375000Y-123418750D01*
X153376053Y-123397309D01*
X153379203Y-123376074D01*
X153384419Y-123355250D01*
X153391651Y-123335038D01*
X153400830Y-123315632D01*
X153411866Y-123297219D01*
X153424654Y-123279976D01*
X153439070Y-123264070D01*
X153454976Y-123249654D01*
X153472219Y-123236866D01*
X153490632Y-123225830D01*
X153510038Y-123216651D01*
X153530250Y-123209419D01*
X153551074Y-123204203D01*
X153572309Y-123201053D01*
X153593750Y-123200000D01*
X154106250Y-123200000D01*
X154127691Y-123201053D01*
X154127691Y-123201053D01*
G37*
D11*
X153850000Y-123637500D03*
D10*
G36*
X154127691Y-121626053D02*
X154148926Y-121629203D01*
X154169750Y-121634419D01*
X154189962Y-121641651D01*
X154209368Y-121650830D01*
X154227781Y-121661866D01*
X154245024Y-121674654D01*
X154260930Y-121689070D01*
X154275346Y-121704976D01*
X154288134Y-121722219D01*
X154299170Y-121740632D01*
X154308349Y-121760038D01*
X154315581Y-121780250D01*
X154320797Y-121801074D01*
X154323947Y-121822309D01*
X154325000Y-121843750D01*
X154325000Y-122281250D01*
X154323947Y-122302691D01*
X154320797Y-122323926D01*
X154315581Y-122344750D01*
X154308349Y-122364962D01*
X154299170Y-122384368D01*
X154288134Y-122402781D01*
X154275346Y-122420024D01*
X154260930Y-122435930D01*
X154245024Y-122450346D01*
X154227781Y-122463134D01*
X154209368Y-122474170D01*
X154189962Y-122483349D01*
X154169750Y-122490581D01*
X154148926Y-122495797D01*
X154127691Y-122498947D01*
X154106250Y-122500000D01*
X153593750Y-122500000D01*
X153572309Y-122498947D01*
X153551074Y-122495797D01*
X153530250Y-122490581D01*
X153510038Y-122483349D01*
X153490632Y-122474170D01*
X153472219Y-122463134D01*
X153454976Y-122450346D01*
X153439070Y-122435930D01*
X153424654Y-122420024D01*
X153411866Y-122402781D01*
X153400830Y-122384368D01*
X153391651Y-122364962D01*
X153384419Y-122344750D01*
X153379203Y-122323926D01*
X153376053Y-122302691D01*
X153375000Y-122281250D01*
X153375000Y-121843750D01*
X153376053Y-121822309D01*
X153379203Y-121801074D01*
X153384419Y-121780250D01*
X153391651Y-121760038D01*
X153400830Y-121740632D01*
X153411866Y-121722219D01*
X153424654Y-121704976D01*
X153439070Y-121689070D01*
X153454976Y-121674654D01*
X153472219Y-121661866D01*
X153490632Y-121650830D01*
X153510038Y-121641651D01*
X153530250Y-121634419D01*
X153551074Y-121629203D01*
X153572309Y-121626053D01*
X153593750Y-121625000D01*
X154106250Y-121625000D01*
X154127691Y-121626053D01*
X154127691Y-121626053D01*
G37*
D11*
X153850000Y-122062500D03*
G04 #@! TD*
D10*
G04 #@! TO.C,R3*
G36*
X142127691Y-123201053D02*
X142148926Y-123204203D01*
X142169750Y-123209419D01*
X142189962Y-123216651D01*
X142209368Y-123225830D01*
X142227781Y-123236866D01*
X142245024Y-123249654D01*
X142260930Y-123264070D01*
X142275346Y-123279976D01*
X142288134Y-123297219D01*
X142299170Y-123315632D01*
X142308349Y-123335038D01*
X142315581Y-123355250D01*
X142320797Y-123376074D01*
X142323947Y-123397309D01*
X142325000Y-123418750D01*
X142325000Y-123856250D01*
X142323947Y-123877691D01*
X142320797Y-123898926D01*
X142315581Y-123919750D01*
X142308349Y-123939962D01*
X142299170Y-123959368D01*
X142288134Y-123977781D01*
X142275346Y-123995024D01*
X142260930Y-124010930D01*
X142245024Y-124025346D01*
X142227781Y-124038134D01*
X142209368Y-124049170D01*
X142189962Y-124058349D01*
X142169750Y-124065581D01*
X142148926Y-124070797D01*
X142127691Y-124073947D01*
X142106250Y-124075000D01*
X141593750Y-124075000D01*
X141572309Y-124073947D01*
X141551074Y-124070797D01*
X141530250Y-124065581D01*
X141510038Y-124058349D01*
X141490632Y-124049170D01*
X141472219Y-124038134D01*
X141454976Y-124025346D01*
X141439070Y-124010930D01*
X141424654Y-123995024D01*
X141411866Y-123977781D01*
X141400830Y-123959368D01*
X141391651Y-123939962D01*
X141384419Y-123919750D01*
X141379203Y-123898926D01*
X141376053Y-123877691D01*
X141375000Y-123856250D01*
X141375000Y-123418750D01*
X141376053Y-123397309D01*
X141379203Y-123376074D01*
X141384419Y-123355250D01*
X141391651Y-123335038D01*
X141400830Y-123315632D01*
X141411866Y-123297219D01*
X141424654Y-123279976D01*
X141439070Y-123264070D01*
X141454976Y-123249654D01*
X141472219Y-123236866D01*
X141490632Y-123225830D01*
X141510038Y-123216651D01*
X141530250Y-123209419D01*
X141551074Y-123204203D01*
X141572309Y-123201053D01*
X141593750Y-123200000D01*
X142106250Y-123200000D01*
X142127691Y-123201053D01*
X142127691Y-123201053D01*
G37*
D11*
X141850000Y-123637500D03*
D10*
G36*
X142127691Y-121626053D02*
X142148926Y-121629203D01*
X142169750Y-121634419D01*
X142189962Y-121641651D01*
X142209368Y-121650830D01*
X142227781Y-121661866D01*
X142245024Y-121674654D01*
X142260930Y-121689070D01*
X142275346Y-121704976D01*
X142288134Y-121722219D01*
X142299170Y-121740632D01*
X142308349Y-121760038D01*
X142315581Y-121780250D01*
X142320797Y-121801074D01*
X142323947Y-121822309D01*
X142325000Y-121843750D01*
X142325000Y-122281250D01*
X142323947Y-122302691D01*
X142320797Y-122323926D01*
X142315581Y-122344750D01*
X142308349Y-122364962D01*
X142299170Y-122384368D01*
X142288134Y-122402781D01*
X142275346Y-122420024D01*
X142260930Y-122435930D01*
X142245024Y-122450346D01*
X142227781Y-122463134D01*
X142209368Y-122474170D01*
X142189962Y-122483349D01*
X142169750Y-122490581D01*
X142148926Y-122495797D01*
X142127691Y-122498947D01*
X142106250Y-122500000D01*
X141593750Y-122500000D01*
X141572309Y-122498947D01*
X141551074Y-122495797D01*
X141530250Y-122490581D01*
X141510038Y-122483349D01*
X141490632Y-122474170D01*
X141472219Y-122463134D01*
X141454976Y-122450346D01*
X141439070Y-122435930D01*
X141424654Y-122420024D01*
X141411866Y-122402781D01*
X141400830Y-122384368D01*
X141391651Y-122364962D01*
X141384419Y-122344750D01*
X141379203Y-122323926D01*
X141376053Y-122302691D01*
X141375000Y-122281250D01*
X141375000Y-121843750D01*
X141376053Y-121822309D01*
X141379203Y-121801074D01*
X141384419Y-121780250D01*
X141391651Y-121760038D01*
X141400830Y-121740632D01*
X141411866Y-121722219D01*
X141424654Y-121704976D01*
X141439070Y-121689070D01*
X141454976Y-121674654D01*
X141472219Y-121661866D01*
X141490632Y-121650830D01*
X141510038Y-121641651D01*
X141530250Y-121634419D01*
X141551074Y-121629203D01*
X141572309Y-121626053D01*
X141593750Y-121625000D01*
X142106250Y-121625000D01*
X142127691Y-121626053D01*
X142127691Y-121626053D01*
G37*
D11*
X141850000Y-122062500D03*
G04 #@! TD*
D10*
G04 #@! TO.C,R2*
G36*
X140127691Y-123201053D02*
X140148926Y-123204203D01*
X140169750Y-123209419D01*
X140189962Y-123216651D01*
X140209368Y-123225830D01*
X140227781Y-123236866D01*
X140245024Y-123249654D01*
X140260930Y-123264070D01*
X140275346Y-123279976D01*
X140288134Y-123297219D01*
X140299170Y-123315632D01*
X140308349Y-123335038D01*
X140315581Y-123355250D01*
X140320797Y-123376074D01*
X140323947Y-123397309D01*
X140325000Y-123418750D01*
X140325000Y-123856250D01*
X140323947Y-123877691D01*
X140320797Y-123898926D01*
X140315581Y-123919750D01*
X140308349Y-123939962D01*
X140299170Y-123959368D01*
X140288134Y-123977781D01*
X140275346Y-123995024D01*
X140260930Y-124010930D01*
X140245024Y-124025346D01*
X140227781Y-124038134D01*
X140209368Y-124049170D01*
X140189962Y-124058349D01*
X140169750Y-124065581D01*
X140148926Y-124070797D01*
X140127691Y-124073947D01*
X140106250Y-124075000D01*
X139593750Y-124075000D01*
X139572309Y-124073947D01*
X139551074Y-124070797D01*
X139530250Y-124065581D01*
X139510038Y-124058349D01*
X139490632Y-124049170D01*
X139472219Y-124038134D01*
X139454976Y-124025346D01*
X139439070Y-124010930D01*
X139424654Y-123995024D01*
X139411866Y-123977781D01*
X139400830Y-123959368D01*
X139391651Y-123939962D01*
X139384419Y-123919750D01*
X139379203Y-123898926D01*
X139376053Y-123877691D01*
X139375000Y-123856250D01*
X139375000Y-123418750D01*
X139376053Y-123397309D01*
X139379203Y-123376074D01*
X139384419Y-123355250D01*
X139391651Y-123335038D01*
X139400830Y-123315632D01*
X139411866Y-123297219D01*
X139424654Y-123279976D01*
X139439070Y-123264070D01*
X139454976Y-123249654D01*
X139472219Y-123236866D01*
X139490632Y-123225830D01*
X139510038Y-123216651D01*
X139530250Y-123209419D01*
X139551074Y-123204203D01*
X139572309Y-123201053D01*
X139593750Y-123200000D01*
X140106250Y-123200000D01*
X140127691Y-123201053D01*
X140127691Y-123201053D01*
G37*
D11*
X139850000Y-123637500D03*
D10*
G36*
X140127691Y-121626053D02*
X140148926Y-121629203D01*
X140169750Y-121634419D01*
X140189962Y-121641651D01*
X140209368Y-121650830D01*
X140227781Y-121661866D01*
X140245024Y-121674654D01*
X140260930Y-121689070D01*
X140275346Y-121704976D01*
X140288134Y-121722219D01*
X140299170Y-121740632D01*
X140308349Y-121760038D01*
X140315581Y-121780250D01*
X140320797Y-121801074D01*
X140323947Y-121822309D01*
X140325000Y-121843750D01*
X140325000Y-122281250D01*
X140323947Y-122302691D01*
X140320797Y-122323926D01*
X140315581Y-122344750D01*
X140308349Y-122364962D01*
X140299170Y-122384368D01*
X140288134Y-122402781D01*
X140275346Y-122420024D01*
X140260930Y-122435930D01*
X140245024Y-122450346D01*
X140227781Y-122463134D01*
X140209368Y-122474170D01*
X140189962Y-122483349D01*
X140169750Y-122490581D01*
X140148926Y-122495797D01*
X140127691Y-122498947D01*
X140106250Y-122500000D01*
X139593750Y-122500000D01*
X139572309Y-122498947D01*
X139551074Y-122495797D01*
X139530250Y-122490581D01*
X139510038Y-122483349D01*
X139490632Y-122474170D01*
X139472219Y-122463134D01*
X139454976Y-122450346D01*
X139439070Y-122435930D01*
X139424654Y-122420024D01*
X139411866Y-122402781D01*
X139400830Y-122384368D01*
X139391651Y-122364962D01*
X139384419Y-122344750D01*
X139379203Y-122323926D01*
X139376053Y-122302691D01*
X139375000Y-122281250D01*
X139375000Y-121843750D01*
X139376053Y-121822309D01*
X139379203Y-121801074D01*
X139384419Y-121780250D01*
X139391651Y-121760038D01*
X139400830Y-121740632D01*
X139411866Y-121722219D01*
X139424654Y-121704976D01*
X139439070Y-121689070D01*
X139454976Y-121674654D01*
X139472219Y-121661866D01*
X139490632Y-121650830D01*
X139510038Y-121641651D01*
X139530250Y-121634419D01*
X139551074Y-121629203D01*
X139572309Y-121626053D01*
X139593750Y-121625000D01*
X140106250Y-121625000D01*
X140127691Y-121626053D01*
X140127691Y-121626053D01*
G37*
D11*
X139850000Y-122062500D03*
G04 #@! TD*
D10*
G04 #@! TO.C,R1*
G36*
X133327691Y-96186053D02*
X133348926Y-96189203D01*
X133369750Y-96194419D01*
X133389962Y-96201651D01*
X133409368Y-96210830D01*
X133427781Y-96221866D01*
X133445024Y-96234654D01*
X133460930Y-96249070D01*
X133475346Y-96264976D01*
X133488134Y-96282219D01*
X133499170Y-96300632D01*
X133508349Y-96320038D01*
X133515581Y-96340250D01*
X133520797Y-96361074D01*
X133523947Y-96382309D01*
X133525000Y-96403750D01*
X133525000Y-96841250D01*
X133523947Y-96862691D01*
X133520797Y-96883926D01*
X133515581Y-96904750D01*
X133508349Y-96924962D01*
X133499170Y-96944368D01*
X133488134Y-96962781D01*
X133475346Y-96980024D01*
X133460930Y-96995930D01*
X133445024Y-97010346D01*
X133427781Y-97023134D01*
X133409368Y-97034170D01*
X133389962Y-97043349D01*
X133369750Y-97050581D01*
X133348926Y-97055797D01*
X133327691Y-97058947D01*
X133306250Y-97060000D01*
X132793750Y-97060000D01*
X132772309Y-97058947D01*
X132751074Y-97055797D01*
X132730250Y-97050581D01*
X132710038Y-97043349D01*
X132690632Y-97034170D01*
X132672219Y-97023134D01*
X132654976Y-97010346D01*
X132639070Y-96995930D01*
X132624654Y-96980024D01*
X132611866Y-96962781D01*
X132600830Y-96944368D01*
X132591651Y-96924962D01*
X132584419Y-96904750D01*
X132579203Y-96883926D01*
X132576053Y-96862691D01*
X132575000Y-96841250D01*
X132575000Y-96403750D01*
X132576053Y-96382309D01*
X132579203Y-96361074D01*
X132584419Y-96340250D01*
X132591651Y-96320038D01*
X132600830Y-96300632D01*
X132611866Y-96282219D01*
X132624654Y-96264976D01*
X132639070Y-96249070D01*
X132654976Y-96234654D01*
X132672219Y-96221866D01*
X132690632Y-96210830D01*
X132710038Y-96201651D01*
X132730250Y-96194419D01*
X132751074Y-96189203D01*
X132772309Y-96186053D01*
X132793750Y-96185000D01*
X133306250Y-96185000D01*
X133327691Y-96186053D01*
X133327691Y-96186053D01*
G37*
D11*
X133050000Y-96622500D03*
D10*
G36*
X133327691Y-97761053D02*
X133348926Y-97764203D01*
X133369750Y-97769419D01*
X133389962Y-97776651D01*
X133409368Y-97785830D01*
X133427781Y-97796866D01*
X133445024Y-97809654D01*
X133460930Y-97824070D01*
X133475346Y-97839976D01*
X133488134Y-97857219D01*
X133499170Y-97875632D01*
X133508349Y-97895038D01*
X133515581Y-97915250D01*
X133520797Y-97936074D01*
X133523947Y-97957309D01*
X133525000Y-97978750D01*
X133525000Y-98416250D01*
X133523947Y-98437691D01*
X133520797Y-98458926D01*
X133515581Y-98479750D01*
X133508349Y-98499962D01*
X133499170Y-98519368D01*
X133488134Y-98537781D01*
X133475346Y-98555024D01*
X133460930Y-98570930D01*
X133445024Y-98585346D01*
X133427781Y-98598134D01*
X133409368Y-98609170D01*
X133389962Y-98618349D01*
X133369750Y-98625581D01*
X133348926Y-98630797D01*
X133327691Y-98633947D01*
X133306250Y-98635000D01*
X132793750Y-98635000D01*
X132772309Y-98633947D01*
X132751074Y-98630797D01*
X132730250Y-98625581D01*
X132710038Y-98618349D01*
X132690632Y-98609170D01*
X132672219Y-98598134D01*
X132654976Y-98585346D01*
X132639070Y-98570930D01*
X132624654Y-98555024D01*
X132611866Y-98537781D01*
X132600830Y-98519368D01*
X132591651Y-98499962D01*
X132584419Y-98479750D01*
X132579203Y-98458926D01*
X132576053Y-98437691D01*
X132575000Y-98416250D01*
X132575000Y-97978750D01*
X132576053Y-97957309D01*
X132579203Y-97936074D01*
X132584419Y-97915250D01*
X132591651Y-97895038D01*
X132600830Y-97875632D01*
X132611866Y-97857219D01*
X132624654Y-97839976D01*
X132639070Y-97824070D01*
X132654976Y-97809654D01*
X132672219Y-97796866D01*
X132690632Y-97785830D01*
X132710038Y-97776651D01*
X132730250Y-97769419D01*
X132751074Y-97764203D01*
X132772309Y-97761053D01*
X132793750Y-97760000D01*
X133306250Y-97760000D01*
X133327691Y-97761053D01*
X133327691Y-97761053D01*
G37*
D11*
X133050000Y-98197500D03*
G04 #@! TD*
D10*
G04 #@! TO.C,R12*
G36*
X153277691Y-113101053D02*
X153298926Y-113104203D01*
X153319750Y-113109419D01*
X153339962Y-113116651D01*
X153359368Y-113125830D01*
X153377781Y-113136866D01*
X153395024Y-113149654D01*
X153410930Y-113164070D01*
X153425346Y-113179976D01*
X153438134Y-113197219D01*
X153449170Y-113215632D01*
X153458349Y-113235038D01*
X153465581Y-113255250D01*
X153470797Y-113276074D01*
X153473947Y-113297309D01*
X153475000Y-113318750D01*
X153475000Y-113756250D01*
X153473947Y-113777691D01*
X153470797Y-113798926D01*
X153465581Y-113819750D01*
X153458349Y-113839962D01*
X153449170Y-113859368D01*
X153438134Y-113877781D01*
X153425346Y-113895024D01*
X153410930Y-113910930D01*
X153395024Y-113925346D01*
X153377781Y-113938134D01*
X153359368Y-113949170D01*
X153339962Y-113958349D01*
X153319750Y-113965581D01*
X153298926Y-113970797D01*
X153277691Y-113973947D01*
X153256250Y-113975000D01*
X152743750Y-113975000D01*
X152722309Y-113973947D01*
X152701074Y-113970797D01*
X152680250Y-113965581D01*
X152660038Y-113958349D01*
X152640632Y-113949170D01*
X152622219Y-113938134D01*
X152604976Y-113925346D01*
X152589070Y-113910930D01*
X152574654Y-113895024D01*
X152561866Y-113877781D01*
X152550830Y-113859368D01*
X152541651Y-113839962D01*
X152534419Y-113819750D01*
X152529203Y-113798926D01*
X152526053Y-113777691D01*
X152525000Y-113756250D01*
X152525000Y-113318750D01*
X152526053Y-113297309D01*
X152529203Y-113276074D01*
X152534419Y-113255250D01*
X152541651Y-113235038D01*
X152550830Y-113215632D01*
X152561866Y-113197219D01*
X152574654Y-113179976D01*
X152589070Y-113164070D01*
X152604976Y-113149654D01*
X152622219Y-113136866D01*
X152640632Y-113125830D01*
X152660038Y-113116651D01*
X152680250Y-113109419D01*
X152701074Y-113104203D01*
X152722309Y-113101053D01*
X152743750Y-113100000D01*
X153256250Y-113100000D01*
X153277691Y-113101053D01*
X153277691Y-113101053D01*
G37*
D11*
X153000000Y-113537500D03*
D10*
G36*
X153277691Y-111526053D02*
X153298926Y-111529203D01*
X153319750Y-111534419D01*
X153339962Y-111541651D01*
X153359368Y-111550830D01*
X153377781Y-111561866D01*
X153395024Y-111574654D01*
X153410930Y-111589070D01*
X153425346Y-111604976D01*
X153438134Y-111622219D01*
X153449170Y-111640632D01*
X153458349Y-111660038D01*
X153465581Y-111680250D01*
X153470797Y-111701074D01*
X153473947Y-111722309D01*
X153475000Y-111743750D01*
X153475000Y-112181250D01*
X153473947Y-112202691D01*
X153470797Y-112223926D01*
X153465581Y-112244750D01*
X153458349Y-112264962D01*
X153449170Y-112284368D01*
X153438134Y-112302781D01*
X153425346Y-112320024D01*
X153410930Y-112335930D01*
X153395024Y-112350346D01*
X153377781Y-112363134D01*
X153359368Y-112374170D01*
X153339962Y-112383349D01*
X153319750Y-112390581D01*
X153298926Y-112395797D01*
X153277691Y-112398947D01*
X153256250Y-112400000D01*
X152743750Y-112400000D01*
X152722309Y-112398947D01*
X152701074Y-112395797D01*
X152680250Y-112390581D01*
X152660038Y-112383349D01*
X152640632Y-112374170D01*
X152622219Y-112363134D01*
X152604976Y-112350346D01*
X152589070Y-112335930D01*
X152574654Y-112320024D01*
X152561866Y-112302781D01*
X152550830Y-112284368D01*
X152541651Y-112264962D01*
X152534419Y-112244750D01*
X152529203Y-112223926D01*
X152526053Y-112202691D01*
X152525000Y-112181250D01*
X152525000Y-111743750D01*
X152526053Y-111722309D01*
X152529203Y-111701074D01*
X152534419Y-111680250D01*
X152541651Y-111660038D01*
X152550830Y-111640632D01*
X152561866Y-111622219D01*
X152574654Y-111604976D01*
X152589070Y-111589070D01*
X152604976Y-111574654D01*
X152622219Y-111561866D01*
X152640632Y-111550830D01*
X152660038Y-111541651D01*
X152680250Y-111534419D01*
X152701074Y-111529203D01*
X152722309Y-111526053D01*
X152743750Y-111525000D01*
X153256250Y-111525000D01*
X153277691Y-111526053D01*
X153277691Y-111526053D01*
G37*
D11*
X153000000Y-111962500D03*
G04 #@! TD*
D10*
G04 #@! TO.C,C6*
G36*
X159277691Y-108601053D02*
X159298926Y-108604203D01*
X159319750Y-108609419D01*
X159339962Y-108616651D01*
X159359368Y-108625830D01*
X159377781Y-108636866D01*
X159395024Y-108649654D01*
X159410930Y-108664070D01*
X159425346Y-108679976D01*
X159438134Y-108697219D01*
X159449170Y-108715632D01*
X159458349Y-108735038D01*
X159465581Y-108755250D01*
X159470797Y-108776074D01*
X159473947Y-108797309D01*
X159475000Y-108818750D01*
X159475000Y-109256250D01*
X159473947Y-109277691D01*
X159470797Y-109298926D01*
X159465581Y-109319750D01*
X159458349Y-109339962D01*
X159449170Y-109359368D01*
X159438134Y-109377781D01*
X159425346Y-109395024D01*
X159410930Y-109410930D01*
X159395024Y-109425346D01*
X159377781Y-109438134D01*
X159359368Y-109449170D01*
X159339962Y-109458349D01*
X159319750Y-109465581D01*
X159298926Y-109470797D01*
X159277691Y-109473947D01*
X159256250Y-109475000D01*
X158743750Y-109475000D01*
X158722309Y-109473947D01*
X158701074Y-109470797D01*
X158680250Y-109465581D01*
X158660038Y-109458349D01*
X158640632Y-109449170D01*
X158622219Y-109438134D01*
X158604976Y-109425346D01*
X158589070Y-109410930D01*
X158574654Y-109395024D01*
X158561866Y-109377781D01*
X158550830Y-109359368D01*
X158541651Y-109339962D01*
X158534419Y-109319750D01*
X158529203Y-109298926D01*
X158526053Y-109277691D01*
X158525000Y-109256250D01*
X158525000Y-108818750D01*
X158526053Y-108797309D01*
X158529203Y-108776074D01*
X158534419Y-108755250D01*
X158541651Y-108735038D01*
X158550830Y-108715632D01*
X158561866Y-108697219D01*
X158574654Y-108679976D01*
X158589070Y-108664070D01*
X158604976Y-108649654D01*
X158622219Y-108636866D01*
X158640632Y-108625830D01*
X158660038Y-108616651D01*
X158680250Y-108609419D01*
X158701074Y-108604203D01*
X158722309Y-108601053D01*
X158743750Y-108600000D01*
X159256250Y-108600000D01*
X159277691Y-108601053D01*
X159277691Y-108601053D01*
G37*
D11*
X159000000Y-109037500D03*
D10*
G36*
X159277691Y-107026053D02*
X159298926Y-107029203D01*
X159319750Y-107034419D01*
X159339962Y-107041651D01*
X159359368Y-107050830D01*
X159377781Y-107061866D01*
X159395024Y-107074654D01*
X159410930Y-107089070D01*
X159425346Y-107104976D01*
X159438134Y-107122219D01*
X159449170Y-107140632D01*
X159458349Y-107160038D01*
X159465581Y-107180250D01*
X159470797Y-107201074D01*
X159473947Y-107222309D01*
X159475000Y-107243750D01*
X159475000Y-107681250D01*
X159473947Y-107702691D01*
X159470797Y-107723926D01*
X159465581Y-107744750D01*
X159458349Y-107764962D01*
X159449170Y-107784368D01*
X159438134Y-107802781D01*
X159425346Y-107820024D01*
X159410930Y-107835930D01*
X159395024Y-107850346D01*
X159377781Y-107863134D01*
X159359368Y-107874170D01*
X159339962Y-107883349D01*
X159319750Y-107890581D01*
X159298926Y-107895797D01*
X159277691Y-107898947D01*
X159256250Y-107900000D01*
X158743750Y-107900000D01*
X158722309Y-107898947D01*
X158701074Y-107895797D01*
X158680250Y-107890581D01*
X158660038Y-107883349D01*
X158640632Y-107874170D01*
X158622219Y-107863134D01*
X158604976Y-107850346D01*
X158589070Y-107835930D01*
X158574654Y-107820024D01*
X158561866Y-107802781D01*
X158550830Y-107784368D01*
X158541651Y-107764962D01*
X158534419Y-107744750D01*
X158529203Y-107723926D01*
X158526053Y-107702691D01*
X158525000Y-107681250D01*
X158525000Y-107243750D01*
X158526053Y-107222309D01*
X158529203Y-107201074D01*
X158534419Y-107180250D01*
X158541651Y-107160038D01*
X158550830Y-107140632D01*
X158561866Y-107122219D01*
X158574654Y-107104976D01*
X158589070Y-107089070D01*
X158604976Y-107074654D01*
X158622219Y-107061866D01*
X158640632Y-107050830D01*
X158660038Y-107041651D01*
X158680250Y-107034419D01*
X158701074Y-107029203D01*
X158722309Y-107026053D01*
X158743750Y-107025000D01*
X159256250Y-107025000D01*
X159277691Y-107026053D01*
X159277691Y-107026053D01*
G37*
D11*
X159000000Y-107462500D03*
G04 #@! TD*
D10*
G04 #@! TO.C,R11*
G36*
X158127691Y-121626053D02*
X158148926Y-121629203D01*
X158169750Y-121634419D01*
X158189962Y-121641651D01*
X158209368Y-121650830D01*
X158227781Y-121661866D01*
X158245024Y-121674654D01*
X158260930Y-121689070D01*
X158275346Y-121704976D01*
X158288134Y-121722219D01*
X158299170Y-121740632D01*
X158308349Y-121760038D01*
X158315581Y-121780250D01*
X158320797Y-121801074D01*
X158323947Y-121822309D01*
X158325000Y-121843750D01*
X158325000Y-122281250D01*
X158323947Y-122302691D01*
X158320797Y-122323926D01*
X158315581Y-122344750D01*
X158308349Y-122364962D01*
X158299170Y-122384368D01*
X158288134Y-122402781D01*
X158275346Y-122420024D01*
X158260930Y-122435930D01*
X158245024Y-122450346D01*
X158227781Y-122463134D01*
X158209368Y-122474170D01*
X158189962Y-122483349D01*
X158169750Y-122490581D01*
X158148926Y-122495797D01*
X158127691Y-122498947D01*
X158106250Y-122500000D01*
X157593750Y-122500000D01*
X157572309Y-122498947D01*
X157551074Y-122495797D01*
X157530250Y-122490581D01*
X157510038Y-122483349D01*
X157490632Y-122474170D01*
X157472219Y-122463134D01*
X157454976Y-122450346D01*
X157439070Y-122435930D01*
X157424654Y-122420024D01*
X157411866Y-122402781D01*
X157400830Y-122384368D01*
X157391651Y-122364962D01*
X157384419Y-122344750D01*
X157379203Y-122323926D01*
X157376053Y-122302691D01*
X157375000Y-122281250D01*
X157375000Y-121843750D01*
X157376053Y-121822309D01*
X157379203Y-121801074D01*
X157384419Y-121780250D01*
X157391651Y-121760038D01*
X157400830Y-121740632D01*
X157411866Y-121722219D01*
X157424654Y-121704976D01*
X157439070Y-121689070D01*
X157454976Y-121674654D01*
X157472219Y-121661866D01*
X157490632Y-121650830D01*
X157510038Y-121641651D01*
X157530250Y-121634419D01*
X157551074Y-121629203D01*
X157572309Y-121626053D01*
X157593750Y-121625000D01*
X158106250Y-121625000D01*
X158127691Y-121626053D01*
X158127691Y-121626053D01*
G37*
D11*
X157850000Y-122062500D03*
D10*
G36*
X158127691Y-123201053D02*
X158148926Y-123204203D01*
X158169750Y-123209419D01*
X158189962Y-123216651D01*
X158209368Y-123225830D01*
X158227781Y-123236866D01*
X158245024Y-123249654D01*
X158260930Y-123264070D01*
X158275346Y-123279976D01*
X158288134Y-123297219D01*
X158299170Y-123315632D01*
X158308349Y-123335038D01*
X158315581Y-123355250D01*
X158320797Y-123376074D01*
X158323947Y-123397309D01*
X158325000Y-123418750D01*
X158325000Y-123856250D01*
X158323947Y-123877691D01*
X158320797Y-123898926D01*
X158315581Y-123919750D01*
X158308349Y-123939962D01*
X158299170Y-123959368D01*
X158288134Y-123977781D01*
X158275346Y-123995024D01*
X158260930Y-124010930D01*
X158245024Y-124025346D01*
X158227781Y-124038134D01*
X158209368Y-124049170D01*
X158189962Y-124058349D01*
X158169750Y-124065581D01*
X158148926Y-124070797D01*
X158127691Y-124073947D01*
X158106250Y-124075000D01*
X157593750Y-124075000D01*
X157572309Y-124073947D01*
X157551074Y-124070797D01*
X157530250Y-124065581D01*
X157510038Y-124058349D01*
X157490632Y-124049170D01*
X157472219Y-124038134D01*
X157454976Y-124025346D01*
X157439070Y-124010930D01*
X157424654Y-123995024D01*
X157411866Y-123977781D01*
X157400830Y-123959368D01*
X157391651Y-123939962D01*
X157384419Y-123919750D01*
X157379203Y-123898926D01*
X157376053Y-123877691D01*
X157375000Y-123856250D01*
X157375000Y-123418750D01*
X157376053Y-123397309D01*
X157379203Y-123376074D01*
X157384419Y-123355250D01*
X157391651Y-123335038D01*
X157400830Y-123315632D01*
X157411866Y-123297219D01*
X157424654Y-123279976D01*
X157439070Y-123264070D01*
X157454976Y-123249654D01*
X157472219Y-123236866D01*
X157490632Y-123225830D01*
X157510038Y-123216651D01*
X157530250Y-123209419D01*
X157551074Y-123204203D01*
X157572309Y-123201053D01*
X157593750Y-123200000D01*
X158106250Y-123200000D01*
X158127691Y-123201053D01*
X158127691Y-123201053D01*
G37*
D11*
X157850000Y-123637500D03*
G04 #@! TD*
D10*
G04 #@! TO.C,C5*
G36*
X152277691Y-118351053D02*
X152298926Y-118354203D01*
X152319750Y-118359419D01*
X152339962Y-118366651D01*
X152359368Y-118375830D01*
X152377781Y-118386866D01*
X152395024Y-118399654D01*
X152410930Y-118414070D01*
X152425346Y-118429976D01*
X152438134Y-118447219D01*
X152449170Y-118465632D01*
X152458349Y-118485038D01*
X152465581Y-118505250D01*
X152470797Y-118526074D01*
X152473947Y-118547309D01*
X152475000Y-118568750D01*
X152475000Y-119006250D01*
X152473947Y-119027691D01*
X152470797Y-119048926D01*
X152465581Y-119069750D01*
X152458349Y-119089962D01*
X152449170Y-119109368D01*
X152438134Y-119127781D01*
X152425346Y-119145024D01*
X152410930Y-119160930D01*
X152395024Y-119175346D01*
X152377781Y-119188134D01*
X152359368Y-119199170D01*
X152339962Y-119208349D01*
X152319750Y-119215581D01*
X152298926Y-119220797D01*
X152277691Y-119223947D01*
X152256250Y-119225000D01*
X151743750Y-119225000D01*
X151722309Y-119223947D01*
X151701074Y-119220797D01*
X151680250Y-119215581D01*
X151660038Y-119208349D01*
X151640632Y-119199170D01*
X151622219Y-119188134D01*
X151604976Y-119175346D01*
X151589070Y-119160930D01*
X151574654Y-119145024D01*
X151561866Y-119127781D01*
X151550830Y-119109368D01*
X151541651Y-119089962D01*
X151534419Y-119069750D01*
X151529203Y-119048926D01*
X151526053Y-119027691D01*
X151525000Y-119006250D01*
X151525000Y-118568750D01*
X151526053Y-118547309D01*
X151529203Y-118526074D01*
X151534419Y-118505250D01*
X151541651Y-118485038D01*
X151550830Y-118465632D01*
X151561866Y-118447219D01*
X151574654Y-118429976D01*
X151589070Y-118414070D01*
X151604976Y-118399654D01*
X151622219Y-118386866D01*
X151640632Y-118375830D01*
X151660038Y-118366651D01*
X151680250Y-118359419D01*
X151701074Y-118354203D01*
X151722309Y-118351053D01*
X151743750Y-118350000D01*
X152256250Y-118350000D01*
X152277691Y-118351053D01*
X152277691Y-118351053D01*
G37*
D11*
X152000000Y-118787500D03*
D10*
G36*
X152277691Y-116776053D02*
X152298926Y-116779203D01*
X152319750Y-116784419D01*
X152339962Y-116791651D01*
X152359368Y-116800830D01*
X152377781Y-116811866D01*
X152395024Y-116824654D01*
X152410930Y-116839070D01*
X152425346Y-116854976D01*
X152438134Y-116872219D01*
X152449170Y-116890632D01*
X152458349Y-116910038D01*
X152465581Y-116930250D01*
X152470797Y-116951074D01*
X152473947Y-116972309D01*
X152475000Y-116993750D01*
X152475000Y-117431250D01*
X152473947Y-117452691D01*
X152470797Y-117473926D01*
X152465581Y-117494750D01*
X152458349Y-117514962D01*
X152449170Y-117534368D01*
X152438134Y-117552781D01*
X152425346Y-117570024D01*
X152410930Y-117585930D01*
X152395024Y-117600346D01*
X152377781Y-117613134D01*
X152359368Y-117624170D01*
X152339962Y-117633349D01*
X152319750Y-117640581D01*
X152298926Y-117645797D01*
X152277691Y-117648947D01*
X152256250Y-117650000D01*
X151743750Y-117650000D01*
X151722309Y-117648947D01*
X151701074Y-117645797D01*
X151680250Y-117640581D01*
X151660038Y-117633349D01*
X151640632Y-117624170D01*
X151622219Y-117613134D01*
X151604976Y-117600346D01*
X151589070Y-117585930D01*
X151574654Y-117570024D01*
X151561866Y-117552781D01*
X151550830Y-117534368D01*
X151541651Y-117514962D01*
X151534419Y-117494750D01*
X151529203Y-117473926D01*
X151526053Y-117452691D01*
X151525000Y-117431250D01*
X151525000Y-116993750D01*
X151526053Y-116972309D01*
X151529203Y-116951074D01*
X151534419Y-116930250D01*
X151541651Y-116910038D01*
X151550830Y-116890632D01*
X151561866Y-116872219D01*
X151574654Y-116854976D01*
X151589070Y-116839070D01*
X151604976Y-116824654D01*
X151622219Y-116811866D01*
X151640632Y-116800830D01*
X151660038Y-116791651D01*
X151680250Y-116784419D01*
X151701074Y-116779203D01*
X151722309Y-116776053D01*
X151743750Y-116775000D01*
X152256250Y-116775000D01*
X152277691Y-116776053D01*
X152277691Y-116776053D01*
G37*
D11*
X152000000Y-117212500D03*
G04 #@! TD*
D10*
G04 #@! TO.C,C4*
G36*
X156127691Y-121626053D02*
X156148926Y-121629203D01*
X156169750Y-121634419D01*
X156189962Y-121641651D01*
X156209368Y-121650830D01*
X156227781Y-121661866D01*
X156245024Y-121674654D01*
X156260930Y-121689070D01*
X156275346Y-121704976D01*
X156288134Y-121722219D01*
X156299170Y-121740632D01*
X156308349Y-121760038D01*
X156315581Y-121780250D01*
X156320797Y-121801074D01*
X156323947Y-121822309D01*
X156325000Y-121843750D01*
X156325000Y-122281250D01*
X156323947Y-122302691D01*
X156320797Y-122323926D01*
X156315581Y-122344750D01*
X156308349Y-122364962D01*
X156299170Y-122384368D01*
X156288134Y-122402781D01*
X156275346Y-122420024D01*
X156260930Y-122435930D01*
X156245024Y-122450346D01*
X156227781Y-122463134D01*
X156209368Y-122474170D01*
X156189962Y-122483349D01*
X156169750Y-122490581D01*
X156148926Y-122495797D01*
X156127691Y-122498947D01*
X156106250Y-122500000D01*
X155593750Y-122500000D01*
X155572309Y-122498947D01*
X155551074Y-122495797D01*
X155530250Y-122490581D01*
X155510038Y-122483349D01*
X155490632Y-122474170D01*
X155472219Y-122463134D01*
X155454976Y-122450346D01*
X155439070Y-122435930D01*
X155424654Y-122420024D01*
X155411866Y-122402781D01*
X155400830Y-122384368D01*
X155391651Y-122364962D01*
X155384419Y-122344750D01*
X155379203Y-122323926D01*
X155376053Y-122302691D01*
X155375000Y-122281250D01*
X155375000Y-121843750D01*
X155376053Y-121822309D01*
X155379203Y-121801074D01*
X155384419Y-121780250D01*
X155391651Y-121760038D01*
X155400830Y-121740632D01*
X155411866Y-121722219D01*
X155424654Y-121704976D01*
X155439070Y-121689070D01*
X155454976Y-121674654D01*
X155472219Y-121661866D01*
X155490632Y-121650830D01*
X155510038Y-121641651D01*
X155530250Y-121634419D01*
X155551074Y-121629203D01*
X155572309Y-121626053D01*
X155593750Y-121625000D01*
X156106250Y-121625000D01*
X156127691Y-121626053D01*
X156127691Y-121626053D01*
G37*
D11*
X155850000Y-122062500D03*
D10*
G36*
X156127691Y-123201053D02*
X156148926Y-123204203D01*
X156169750Y-123209419D01*
X156189962Y-123216651D01*
X156209368Y-123225830D01*
X156227781Y-123236866D01*
X156245024Y-123249654D01*
X156260930Y-123264070D01*
X156275346Y-123279976D01*
X156288134Y-123297219D01*
X156299170Y-123315632D01*
X156308349Y-123335038D01*
X156315581Y-123355250D01*
X156320797Y-123376074D01*
X156323947Y-123397309D01*
X156325000Y-123418750D01*
X156325000Y-123856250D01*
X156323947Y-123877691D01*
X156320797Y-123898926D01*
X156315581Y-123919750D01*
X156308349Y-123939962D01*
X156299170Y-123959368D01*
X156288134Y-123977781D01*
X156275346Y-123995024D01*
X156260930Y-124010930D01*
X156245024Y-124025346D01*
X156227781Y-124038134D01*
X156209368Y-124049170D01*
X156189962Y-124058349D01*
X156169750Y-124065581D01*
X156148926Y-124070797D01*
X156127691Y-124073947D01*
X156106250Y-124075000D01*
X155593750Y-124075000D01*
X155572309Y-124073947D01*
X155551074Y-124070797D01*
X155530250Y-124065581D01*
X155510038Y-124058349D01*
X155490632Y-124049170D01*
X155472219Y-124038134D01*
X155454976Y-124025346D01*
X155439070Y-124010930D01*
X155424654Y-123995024D01*
X155411866Y-123977781D01*
X155400830Y-123959368D01*
X155391651Y-123939962D01*
X155384419Y-123919750D01*
X155379203Y-123898926D01*
X155376053Y-123877691D01*
X155375000Y-123856250D01*
X155375000Y-123418750D01*
X155376053Y-123397309D01*
X155379203Y-123376074D01*
X155384419Y-123355250D01*
X155391651Y-123335038D01*
X155400830Y-123315632D01*
X155411866Y-123297219D01*
X155424654Y-123279976D01*
X155439070Y-123264070D01*
X155454976Y-123249654D01*
X155472219Y-123236866D01*
X155490632Y-123225830D01*
X155510038Y-123216651D01*
X155530250Y-123209419D01*
X155551074Y-123204203D01*
X155572309Y-123201053D01*
X155593750Y-123200000D01*
X156106250Y-123200000D01*
X156127691Y-123201053D01*
X156127691Y-123201053D01*
G37*
D11*
X155850000Y-123637500D03*
G04 #@! TD*
D10*
G04 #@! TO.C,C3*
G36*
X138277691Y-116776053D02*
X138298926Y-116779203D01*
X138319750Y-116784419D01*
X138339962Y-116791651D01*
X138359368Y-116800830D01*
X138377781Y-116811866D01*
X138395024Y-116824654D01*
X138410930Y-116839070D01*
X138425346Y-116854976D01*
X138438134Y-116872219D01*
X138449170Y-116890632D01*
X138458349Y-116910038D01*
X138465581Y-116930250D01*
X138470797Y-116951074D01*
X138473947Y-116972309D01*
X138475000Y-116993750D01*
X138475000Y-117431250D01*
X138473947Y-117452691D01*
X138470797Y-117473926D01*
X138465581Y-117494750D01*
X138458349Y-117514962D01*
X138449170Y-117534368D01*
X138438134Y-117552781D01*
X138425346Y-117570024D01*
X138410930Y-117585930D01*
X138395024Y-117600346D01*
X138377781Y-117613134D01*
X138359368Y-117624170D01*
X138339962Y-117633349D01*
X138319750Y-117640581D01*
X138298926Y-117645797D01*
X138277691Y-117648947D01*
X138256250Y-117650000D01*
X137743750Y-117650000D01*
X137722309Y-117648947D01*
X137701074Y-117645797D01*
X137680250Y-117640581D01*
X137660038Y-117633349D01*
X137640632Y-117624170D01*
X137622219Y-117613134D01*
X137604976Y-117600346D01*
X137589070Y-117585930D01*
X137574654Y-117570024D01*
X137561866Y-117552781D01*
X137550830Y-117534368D01*
X137541651Y-117514962D01*
X137534419Y-117494750D01*
X137529203Y-117473926D01*
X137526053Y-117452691D01*
X137525000Y-117431250D01*
X137525000Y-116993750D01*
X137526053Y-116972309D01*
X137529203Y-116951074D01*
X137534419Y-116930250D01*
X137541651Y-116910038D01*
X137550830Y-116890632D01*
X137561866Y-116872219D01*
X137574654Y-116854976D01*
X137589070Y-116839070D01*
X137604976Y-116824654D01*
X137622219Y-116811866D01*
X137640632Y-116800830D01*
X137660038Y-116791651D01*
X137680250Y-116784419D01*
X137701074Y-116779203D01*
X137722309Y-116776053D01*
X137743750Y-116775000D01*
X138256250Y-116775000D01*
X138277691Y-116776053D01*
X138277691Y-116776053D01*
G37*
D11*
X138000000Y-117212500D03*
D10*
G36*
X138277691Y-118351053D02*
X138298926Y-118354203D01*
X138319750Y-118359419D01*
X138339962Y-118366651D01*
X138359368Y-118375830D01*
X138377781Y-118386866D01*
X138395024Y-118399654D01*
X138410930Y-118414070D01*
X138425346Y-118429976D01*
X138438134Y-118447219D01*
X138449170Y-118465632D01*
X138458349Y-118485038D01*
X138465581Y-118505250D01*
X138470797Y-118526074D01*
X138473947Y-118547309D01*
X138475000Y-118568750D01*
X138475000Y-119006250D01*
X138473947Y-119027691D01*
X138470797Y-119048926D01*
X138465581Y-119069750D01*
X138458349Y-119089962D01*
X138449170Y-119109368D01*
X138438134Y-119127781D01*
X138425346Y-119145024D01*
X138410930Y-119160930D01*
X138395024Y-119175346D01*
X138377781Y-119188134D01*
X138359368Y-119199170D01*
X138339962Y-119208349D01*
X138319750Y-119215581D01*
X138298926Y-119220797D01*
X138277691Y-119223947D01*
X138256250Y-119225000D01*
X137743750Y-119225000D01*
X137722309Y-119223947D01*
X137701074Y-119220797D01*
X137680250Y-119215581D01*
X137660038Y-119208349D01*
X137640632Y-119199170D01*
X137622219Y-119188134D01*
X137604976Y-119175346D01*
X137589070Y-119160930D01*
X137574654Y-119145024D01*
X137561866Y-119127781D01*
X137550830Y-119109368D01*
X137541651Y-119089962D01*
X137534419Y-119069750D01*
X137529203Y-119048926D01*
X137526053Y-119027691D01*
X137525000Y-119006250D01*
X137525000Y-118568750D01*
X137526053Y-118547309D01*
X137529203Y-118526074D01*
X137534419Y-118505250D01*
X137541651Y-118485038D01*
X137550830Y-118465632D01*
X137561866Y-118447219D01*
X137574654Y-118429976D01*
X137589070Y-118414070D01*
X137604976Y-118399654D01*
X137622219Y-118386866D01*
X137640632Y-118375830D01*
X137660038Y-118366651D01*
X137680250Y-118359419D01*
X137701074Y-118354203D01*
X137722309Y-118351053D01*
X137743750Y-118350000D01*
X138256250Y-118350000D01*
X138277691Y-118351053D01*
X138277691Y-118351053D01*
G37*
D11*
X138000000Y-118787500D03*
G04 #@! TD*
D10*
G04 #@! TO.C,C1*
G36*
X138127691Y-123188553D02*
X138148926Y-123191703D01*
X138169750Y-123196919D01*
X138189962Y-123204151D01*
X138209368Y-123213330D01*
X138227781Y-123224366D01*
X138245024Y-123237154D01*
X138260930Y-123251570D01*
X138275346Y-123267476D01*
X138288134Y-123284719D01*
X138299170Y-123303132D01*
X138308349Y-123322538D01*
X138315581Y-123342750D01*
X138320797Y-123363574D01*
X138323947Y-123384809D01*
X138325000Y-123406250D01*
X138325000Y-123843750D01*
X138323947Y-123865191D01*
X138320797Y-123886426D01*
X138315581Y-123907250D01*
X138308349Y-123927462D01*
X138299170Y-123946868D01*
X138288134Y-123965281D01*
X138275346Y-123982524D01*
X138260930Y-123998430D01*
X138245024Y-124012846D01*
X138227781Y-124025634D01*
X138209368Y-124036670D01*
X138189962Y-124045849D01*
X138169750Y-124053081D01*
X138148926Y-124058297D01*
X138127691Y-124061447D01*
X138106250Y-124062500D01*
X137593750Y-124062500D01*
X137572309Y-124061447D01*
X137551074Y-124058297D01*
X137530250Y-124053081D01*
X137510038Y-124045849D01*
X137490632Y-124036670D01*
X137472219Y-124025634D01*
X137454976Y-124012846D01*
X137439070Y-123998430D01*
X137424654Y-123982524D01*
X137411866Y-123965281D01*
X137400830Y-123946868D01*
X137391651Y-123927462D01*
X137384419Y-123907250D01*
X137379203Y-123886426D01*
X137376053Y-123865191D01*
X137375000Y-123843750D01*
X137375000Y-123406250D01*
X137376053Y-123384809D01*
X137379203Y-123363574D01*
X137384419Y-123342750D01*
X137391651Y-123322538D01*
X137400830Y-123303132D01*
X137411866Y-123284719D01*
X137424654Y-123267476D01*
X137439070Y-123251570D01*
X137454976Y-123237154D01*
X137472219Y-123224366D01*
X137490632Y-123213330D01*
X137510038Y-123204151D01*
X137530250Y-123196919D01*
X137551074Y-123191703D01*
X137572309Y-123188553D01*
X137593750Y-123187500D01*
X138106250Y-123187500D01*
X138127691Y-123188553D01*
X138127691Y-123188553D01*
G37*
D11*
X137850000Y-123625000D03*
D10*
G36*
X138127691Y-121613553D02*
X138148926Y-121616703D01*
X138169750Y-121621919D01*
X138189962Y-121629151D01*
X138209368Y-121638330D01*
X138227781Y-121649366D01*
X138245024Y-121662154D01*
X138260930Y-121676570D01*
X138275346Y-121692476D01*
X138288134Y-121709719D01*
X138299170Y-121728132D01*
X138308349Y-121747538D01*
X138315581Y-121767750D01*
X138320797Y-121788574D01*
X138323947Y-121809809D01*
X138325000Y-121831250D01*
X138325000Y-122268750D01*
X138323947Y-122290191D01*
X138320797Y-122311426D01*
X138315581Y-122332250D01*
X138308349Y-122352462D01*
X138299170Y-122371868D01*
X138288134Y-122390281D01*
X138275346Y-122407524D01*
X138260930Y-122423430D01*
X138245024Y-122437846D01*
X138227781Y-122450634D01*
X138209368Y-122461670D01*
X138189962Y-122470849D01*
X138169750Y-122478081D01*
X138148926Y-122483297D01*
X138127691Y-122486447D01*
X138106250Y-122487500D01*
X137593750Y-122487500D01*
X137572309Y-122486447D01*
X137551074Y-122483297D01*
X137530250Y-122478081D01*
X137510038Y-122470849D01*
X137490632Y-122461670D01*
X137472219Y-122450634D01*
X137454976Y-122437846D01*
X137439070Y-122423430D01*
X137424654Y-122407524D01*
X137411866Y-122390281D01*
X137400830Y-122371868D01*
X137391651Y-122352462D01*
X137384419Y-122332250D01*
X137379203Y-122311426D01*
X137376053Y-122290191D01*
X137375000Y-122268750D01*
X137375000Y-121831250D01*
X137376053Y-121809809D01*
X137379203Y-121788574D01*
X137384419Y-121767750D01*
X137391651Y-121747538D01*
X137400830Y-121728132D01*
X137411866Y-121709719D01*
X137424654Y-121692476D01*
X137439070Y-121676570D01*
X137454976Y-121662154D01*
X137472219Y-121649366D01*
X137490632Y-121638330D01*
X137510038Y-121629151D01*
X137530250Y-121621919D01*
X137551074Y-121616703D01*
X137572309Y-121613553D01*
X137593750Y-121612500D01*
X138106250Y-121612500D01*
X138127691Y-121613553D01*
X138127691Y-121613553D01*
G37*
D11*
X137850000Y-122050000D03*
G04 #@! TD*
M02*
