G04 #@! TF.GenerationSoftware,KiCad,Pcbnew,(5.0.0)*
G04 #@! TF.CreationDate,2019-03-27T19:33:42+01:00*
G04 #@! TF.ProjectId,currentscaler,63757272656E747363616C65722E6B69,rev?*
G04 #@! TF.SameCoordinates,Original*
G04 #@! TF.FileFunction,Legend,Bot*
G04 #@! TF.FilePolarity,Positive*
%FSLAX46Y46*%
G04 Gerber Fmt 4.6, Leading zero omitted, Abs format (unit mm)*
G04 Created by KiCad (PCBNEW (5.0.0)) date 03/27/19 19:33:42*
%MOMM*%
%LPD*%
G01*
G04 APERTURE LIST*
%ADD10C,0.120000*%
%ADD11C,0.150000*%
G04 APERTURE END LIST*
D10*
G04 #@! TO.C,BT1*
X121059556Y-119138071D02*
G75*
G02X140050000Y-119230000I9440444J-11361929D01*
G01*
X121021751Y-119171751D02*
G75*
G02X120350000Y-119450000I-671751J671751D01*
G01*
X139978249Y-119171751D02*
G75*
G03X140650000Y-119450000I671751J671751D01*
G01*
X143350000Y-116750000D02*
G75*
G02X140650000Y-119450000I-2700000J0D01*
G01*
X117650000Y-116750000D02*
G75*
G03X120350000Y-119450000I2700000J0D01*
G01*
X117650000Y-112600000D02*
X117650000Y-116800000D01*
X143350000Y-112600000D02*
X143350000Y-116800000D01*
X117650000Y-103100000D02*
X117650000Y-106400000D01*
X126550000Y-97250000D02*
X117650000Y-103100000D01*
X126550000Y-96450000D02*
X126550000Y-97250000D01*
X134450000Y-96450000D02*
X126550000Y-96450000D01*
X134450000Y-96450000D02*
X134450000Y-97250000D01*
X134450000Y-97250000D02*
X143350000Y-103100000D01*
X143350000Y-103100000D02*
X143350000Y-106400000D01*
D11*
X131285714Y-95028571D02*
X131142857Y-95076190D01*
X131095238Y-95123809D01*
X131047619Y-95219047D01*
X131047619Y-95361904D01*
X131095238Y-95457142D01*
X131142857Y-95504761D01*
X131238095Y-95552380D01*
X131619047Y-95552380D01*
X131619047Y-94552380D01*
X131285714Y-94552380D01*
X131190476Y-94600000D01*
X131142857Y-94647619D01*
X131095238Y-94742857D01*
X131095238Y-94838095D01*
X131142857Y-94933333D01*
X131190476Y-94980952D01*
X131285714Y-95028571D01*
X131619047Y-95028571D01*
X130761904Y-94552380D02*
X130190476Y-94552380D01*
X130476190Y-95552380D02*
X130476190Y-94552380D01*
X129333333Y-95552380D02*
X129904761Y-95552380D01*
X129619047Y-95552380D02*
X129619047Y-94552380D01*
X129714285Y-94695238D01*
X129809523Y-94790476D01*
X129904761Y-94838095D01*
G04 #@! TD*
M02*
