G04 #@! TF.GenerationSoftware,KiCad,Pcbnew,(5.1.0)-1*
G04 #@! TF.CreationDate,2019-05-30T16:04:32+02:00*
G04 #@! TF.ProjectId,currentscaler,63757272-656e-4747-9363-616c65722e6b,rev?*
G04 #@! TF.SameCoordinates,Original*
G04 #@! TF.FileFunction,Copper,L1,Top*
G04 #@! TF.FilePolarity,Positive*
%FSLAX46Y46*%
G04 Gerber Fmt 4.6, Leading zero omitted, Abs format (unit mm)*
G04 Created by KiCad (PCBNEW (5.1.0)-1) date 2019-05-30 16:04:32*
%MOMM*%
%LPD*%
G04 APERTURE LIST*
%ADD10R,0.660000X0.360000*%
%ADD11C,0.100000*%
%ADD12C,0.875000*%
%ADD13O,1.750000X1.200000*%
%ADD14C,1.200000*%
%ADD15C,0.975000*%
%ADD16C,1.600000*%
%ADD17C,7.000000*%
%ADD18R,0.650000X1.060000*%
%ADD19C,0.800000*%
%ADD20C,0.500000*%
%ADD21C,0.250000*%
%ADD22C,0.254000*%
G04 APERTURE END LIST*
D10*
X133714999Y-111850000D03*
X133714999Y-112500000D03*
X133714999Y-113800000D03*
X133714999Y-113145000D03*
X138164999Y-113155000D03*
X138164999Y-113810000D03*
X138164999Y-112510000D03*
X138164999Y-111860000D03*
D11*
G36*
X141265191Y-113126053D02*
G01*
X141286426Y-113129203D01*
X141307250Y-113134419D01*
X141327462Y-113141651D01*
X141346868Y-113150830D01*
X141365281Y-113161866D01*
X141382524Y-113174654D01*
X141398430Y-113189070D01*
X141412846Y-113204976D01*
X141425634Y-113222219D01*
X141436670Y-113240632D01*
X141445849Y-113260038D01*
X141453081Y-113280250D01*
X141458297Y-113301074D01*
X141461447Y-113322309D01*
X141462500Y-113343750D01*
X141462500Y-113856250D01*
X141461447Y-113877691D01*
X141458297Y-113898926D01*
X141453081Y-113919750D01*
X141445849Y-113939962D01*
X141436670Y-113959368D01*
X141425634Y-113977781D01*
X141412846Y-113995024D01*
X141398430Y-114010930D01*
X141382524Y-114025346D01*
X141365281Y-114038134D01*
X141346868Y-114049170D01*
X141327462Y-114058349D01*
X141307250Y-114065581D01*
X141286426Y-114070797D01*
X141265191Y-114073947D01*
X141243750Y-114075000D01*
X140806250Y-114075000D01*
X140784809Y-114073947D01*
X140763574Y-114070797D01*
X140742750Y-114065581D01*
X140722538Y-114058349D01*
X140703132Y-114049170D01*
X140684719Y-114038134D01*
X140667476Y-114025346D01*
X140651570Y-114010930D01*
X140637154Y-113995024D01*
X140624366Y-113977781D01*
X140613330Y-113959368D01*
X140604151Y-113939962D01*
X140596919Y-113919750D01*
X140591703Y-113898926D01*
X140588553Y-113877691D01*
X140587500Y-113856250D01*
X140587500Y-113343750D01*
X140588553Y-113322309D01*
X140591703Y-113301074D01*
X140596919Y-113280250D01*
X140604151Y-113260038D01*
X140613330Y-113240632D01*
X140624366Y-113222219D01*
X140637154Y-113204976D01*
X140651570Y-113189070D01*
X140667476Y-113174654D01*
X140684719Y-113161866D01*
X140703132Y-113150830D01*
X140722538Y-113141651D01*
X140742750Y-113134419D01*
X140763574Y-113129203D01*
X140784809Y-113126053D01*
X140806250Y-113125000D01*
X141243750Y-113125000D01*
X141265191Y-113126053D01*
X141265191Y-113126053D01*
G37*
D12*
X141025000Y-113600000D03*
D11*
G36*
X142840191Y-113126053D02*
G01*
X142861426Y-113129203D01*
X142882250Y-113134419D01*
X142902462Y-113141651D01*
X142921868Y-113150830D01*
X142940281Y-113161866D01*
X142957524Y-113174654D01*
X142973430Y-113189070D01*
X142987846Y-113204976D01*
X143000634Y-113222219D01*
X143011670Y-113240632D01*
X143020849Y-113260038D01*
X143028081Y-113280250D01*
X143033297Y-113301074D01*
X143036447Y-113322309D01*
X143037500Y-113343750D01*
X143037500Y-113856250D01*
X143036447Y-113877691D01*
X143033297Y-113898926D01*
X143028081Y-113919750D01*
X143020849Y-113939962D01*
X143011670Y-113959368D01*
X143000634Y-113977781D01*
X142987846Y-113995024D01*
X142973430Y-114010930D01*
X142957524Y-114025346D01*
X142940281Y-114038134D01*
X142921868Y-114049170D01*
X142902462Y-114058349D01*
X142882250Y-114065581D01*
X142861426Y-114070797D01*
X142840191Y-114073947D01*
X142818750Y-114075000D01*
X142381250Y-114075000D01*
X142359809Y-114073947D01*
X142338574Y-114070797D01*
X142317750Y-114065581D01*
X142297538Y-114058349D01*
X142278132Y-114049170D01*
X142259719Y-114038134D01*
X142242476Y-114025346D01*
X142226570Y-114010930D01*
X142212154Y-113995024D01*
X142199366Y-113977781D01*
X142188330Y-113959368D01*
X142179151Y-113939962D01*
X142171919Y-113919750D01*
X142166703Y-113898926D01*
X142163553Y-113877691D01*
X142162500Y-113856250D01*
X142162500Y-113343750D01*
X142163553Y-113322309D01*
X142166703Y-113301074D01*
X142171919Y-113280250D01*
X142179151Y-113260038D01*
X142188330Y-113240632D01*
X142199366Y-113222219D01*
X142212154Y-113204976D01*
X142226570Y-113189070D01*
X142242476Y-113174654D01*
X142259719Y-113161866D01*
X142278132Y-113150830D01*
X142297538Y-113141651D01*
X142317750Y-113134419D01*
X142338574Y-113129203D01*
X142359809Y-113126053D01*
X142381250Y-113125000D01*
X142818750Y-113125000D01*
X142840191Y-113126053D01*
X142840191Y-113126053D01*
G37*
D12*
X142600000Y-113600000D03*
D13*
X125600000Y-107800000D03*
D11*
G36*
X126249505Y-109201204D02*
G01*
X126273773Y-109204804D01*
X126297572Y-109210765D01*
X126320671Y-109219030D01*
X126342850Y-109229520D01*
X126363893Y-109242132D01*
X126383599Y-109256747D01*
X126401777Y-109273223D01*
X126418253Y-109291401D01*
X126432868Y-109311107D01*
X126445480Y-109332150D01*
X126455970Y-109354329D01*
X126464235Y-109377428D01*
X126470196Y-109401227D01*
X126473796Y-109425495D01*
X126475000Y-109449999D01*
X126475000Y-110150001D01*
X126473796Y-110174505D01*
X126470196Y-110198773D01*
X126464235Y-110222572D01*
X126455970Y-110245671D01*
X126445480Y-110267850D01*
X126432868Y-110288893D01*
X126418253Y-110308599D01*
X126401777Y-110326777D01*
X126383599Y-110343253D01*
X126363893Y-110357868D01*
X126342850Y-110370480D01*
X126320671Y-110380970D01*
X126297572Y-110389235D01*
X126273773Y-110395196D01*
X126249505Y-110398796D01*
X126225001Y-110400000D01*
X124974999Y-110400000D01*
X124950495Y-110398796D01*
X124926227Y-110395196D01*
X124902428Y-110389235D01*
X124879329Y-110380970D01*
X124857150Y-110370480D01*
X124836107Y-110357868D01*
X124816401Y-110343253D01*
X124798223Y-110326777D01*
X124781747Y-110308599D01*
X124767132Y-110288893D01*
X124754520Y-110267850D01*
X124744030Y-110245671D01*
X124735765Y-110222572D01*
X124729804Y-110198773D01*
X124726204Y-110174505D01*
X124725000Y-110150001D01*
X124725000Y-109449999D01*
X124726204Y-109425495D01*
X124729804Y-109401227D01*
X124735765Y-109377428D01*
X124744030Y-109354329D01*
X124754520Y-109332150D01*
X124767132Y-109311107D01*
X124781747Y-109291401D01*
X124798223Y-109273223D01*
X124816401Y-109256747D01*
X124836107Y-109242132D01*
X124857150Y-109229520D01*
X124879329Y-109219030D01*
X124902428Y-109210765D01*
X124926227Y-109204804D01*
X124950495Y-109201204D01*
X124974999Y-109200000D01*
X126225001Y-109200000D01*
X126249505Y-109201204D01*
X126249505Y-109201204D01*
G37*
D14*
X125600000Y-109800000D03*
D11*
G36*
X156680142Y-108663674D02*
G01*
X156703803Y-108667184D01*
X156727007Y-108672996D01*
X156749529Y-108681054D01*
X156771153Y-108691282D01*
X156791670Y-108703579D01*
X156810883Y-108717829D01*
X156828607Y-108733893D01*
X156844671Y-108751617D01*
X156858921Y-108770830D01*
X156871218Y-108791347D01*
X156881446Y-108812971D01*
X156889504Y-108835493D01*
X156895316Y-108858697D01*
X156898826Y-108882358D01*
X156900000Y-108906250D01*
X156900000Y-109393750D01*
X156898826Y-109417642D01*
X156895316Y-109441303D01*
X156889504Y-109464507D01*
X156881446Y-109487029D01*
X156871218Y-109508653D01*
X156858921Y-109529170D01*
X156844671Y-109548383D01*
X156828607Y-109566107D01*
X156810883Y-109582171D01*
X156791670Y-109596421D01*
X156771153Y-109608718D01*
X156749529Y-109618946D01*
X156727007Y-109627004D01*
X156703803Y-109632816D01*
X156680142Y-109636326D01*
X156656250Y-109637500D01*
X155743750Y-109637500D01*
X155719858Y-109636326D01*
X155696197Y-109632816D01*
X155672993Y-109627004D01*
X155650471Y-109618946D01*
X155628847Y-109608718D01*
X155608330Y-109596421D01*
X155589117Y-109582171D01*
X155571393Y-109566107D01*
X155555329Y-109548383D01*
X155541079Y-109529170D01*
X155528782Y-109508653D01*
X155518554Y-109487029D01*
X155510496Y-109464507D01*
X155504684Y-109441303D01*
X155501174Y-109417642D01*
X155500000Y-109393750D01*
X155500000Y-108906250D01*
X155501174Y-108882358D01*
X155504684Y-108858697D01*
X155510496Y-108835493D01*
X155518554Y-108812971D01*
X155528782Y-108791347D01*
X155541079Y-108770830D01*
X155555329Y-108751617D01*
X155571393Y-108733893D01*
X155589117Y-108717829D01*
X155608330Y-108703579D01*
X155628847Y-108691282D01*
X155650471Y-108681054D01*
X155672993Y-108672996D01*
X155696197Y-108667184D01*
X155719858Y-108663674D01*
X155743750Y-108662500D01*
X156656250Y-108662500D01*
X156680142Y-108663674D01*
X156680142Y-108663674D01*
G37*
D15*
X156200000Y-109150000D03*
D11*
G36*
X156680142Y-106788674D02*
G01*
X156703803Y-106792184D01*
X156727007Y-106797996D01*
X156749529Y-106806054D01*
X156771153Y-106816282D01*
X156791670Y-106828579D01*
X156810883Y-106842829D01*
X156828607Y-106858893D01*
X156844671Y-106876617D01*
X156858921Y-106895830D01*
X156871218Y-106916347D01*
X156881446Y-106937971D01*
X156889504Y-106960493D01*
X156895316Y-106983697D01*
X156898826Y-107007358D01*
X156900000Y-107031250D01*
X156900000Y-107518750D01*
X156898826Y-107542642D01*
X156895316Y-107566303D01*
X156889504Y-107589507D01*
X156881446Y-107612029D01*
X156871218Y-107633653D01*
X156858921Y-107654170D01*
X156844671Y-107673383D01*
X156828607Y-107691107D01*
X156810883Y-107707171D01*
X156791670Y-107721421D01*
X156771153Y-107733718D01*
X156749529Y-107743946D01*
X156727007Y-107752004D01*
X156703803Y-107757816D01*
X156680142Y-107761326D01*
X156656250Y-107762500D01*
X155743750Y-107762500D01*
X155719858Y-107761326D01*
X155696197Y-107757816D01*
X155672993Y-107752004D01*
X155650471Y-107743946D01*
X155628847Y-107733718D01*
X155608330Y-107721421D01*
X155589117Y-107707171D01*
X155571393Y-107691107D01*
X155555329Y-107673383D01*
X155541079Y-107654170D01*
X155528782Y-107633653D01*
X155518554Y-107612029D01*
X155510496Y-107589507D01*
X155504684Y-107566303D01*
X155501174Y-107542642D01*
X155500000Y-107518750D01*
X155500000Y-107031250D01*
X155501174Y-107007358D01*
X155504684Y-106983697D01*
X155510496Y-106960493D01*
X155518554Y-106937971D01*
X155528782Y-106916347D01*
X155541079Y-106895830D01*
X155555329Y-106876617D01*
X155571393Y-106858893D01*
X155589117Y-106842829D01*
X155608330Y-106828579D01*
X155628847Y-106816282D01*
X155650471Y-106806054D01*
X155672993Y-106797996D01*
X155696197Y-106792184D01*
X155719858Y-106788674D01*
X155743750Y-106787500D01*
X156656250Y-106787500D01*
X156680142Y-106788674D01*
X156680142Y-106788674D01*
G37*
D15*
X156200000Y-107275000D03*
D11*
G36*
X146330142Y-121426174D02*
G01*
X146353803Y-121429684D01*
X146377007Y-121435496D01*
X146399529Y-121443554D01*
X146421153Y-121453782D01*
X146441670Y-121466079D01*
X146460883Y-121480329D01*
X146478607Y-121496393D01*
X146494671Y-121514117D01*
X146508921Y-121533330D01*
X146521218Y-121553847D01*
X146531446Y-121575471D01*
X146539504Y-121597993D01*
X146545316Y-121621197D01*
X146548826Y-121644858D01*
X146550000Y-121668750D01*
X146550000Y-122156250D01*
X146548826Y-122180142D01*
X146545316Y-122203803D01*
X146539504Y-122227007D01*
X146531446Y-122249529D01*
X146521218Y-122271153D01*
X146508921Y-122291670D01*
X146494671Y-122310883D01*
X146478607Y-122328607D01*
X146460883Y-122344671D01*
X146441670Y-122358921D01*
X146421153Y-122371218D01*
X146399529Y-122381446D01*
X146377007Y-122389504D01*
X146353803Y-122395316D01*
X146330142Y-122398826D01*
X146306250Y-122400000D01*
X145393750Y-122400000D01*
X145369858Y-122398826D01*
X145346197Y-122395316D01*
X145322993Y-122389504D01*
X145300471Y-122381446D01*
X145278847Y-122371218D01*
X145258330Y-122358921D01*
X145239117Y-122344671D01*
X145221393Y-122328607D01*
X145205329Y-122310883D01*
X145191079Y-122291670D01*
X145178782Y-122271153D01*
X145168554Y-122249529D01*
X145160496Y-122227007D01*
X145154684Y-122203803D01*
X145151174Y-122180142D01*
X145150000Y-122156250D01*
X145150000Y-121668750D01*
X145151174Y-121644858D01*
X145154684Y-121621197D01*
X145160496Y-121597993D01*
X145168554Y-121575471D01*
X145178782Y-121553847D01*
X145191079Y-121533330D01*
X145205329Y-121514117D01*
X145221393Y-121496393D01*
X145239117Y-121480329D01*
X145258330Y-121466079D01*
X145278847Y-121453782D01*
X145300471Y-121443554D01*
X145322993Y-121435496D01*
X145346197Y-121429684D01*
X145369858Y-121426174D01*
X145393750Y-121425000D01*
X146306250Y-121425000D01*
X146330142Y-121426174D01*
X146330142Y-121426174D01*
G37*
D15*
X145850000Y-121912500D03*
D11*
G36*
X146330142Y-123301174D02*
G01*
X146353803Y-123304684D01*
X146377007Y-123310496D01*
X146399529Y-123318554D01*
X146421153Y-123328782D01*
X146441670Y-123341079D01*
X146460883Y-123355329D01*
X146478607Y-123371393D01*
X146494671Y-123389117D01*
X146508921Y-123408330D01*
X146521218Y-123428847D01*
X146531446Y-123450471D01*
X146539504Y-123472993D01*
X146545316Y-123496197D01*
X146548826Y-123519858D01*
X146550000Y-123543750D01*
X146550000Y-124031250D01*
X146548826Y-124055142D01*
X146545316Y-124078803D01*
X146539504Y-124102007D01*
X146531446Y-124124529D01*
X146521218Y-124146153D01*
X146508921Y-124166670D01*
X146494671Y-124185883D01*
X146478607Y-124203607D01*
X146460883Y-124219671D01*
X146441670Y-124233921D01*
X146421153Y-124246218D01*
X146399529Y-124256446D01*
X146377007Y-124264504D01*
X146353803Y-124270316D01*
X146330142Y-124273826D01*
X146306250Y-124275000D01*
X145393750Y-124275000D01*
X145369858Y-124273826D01*
X145346197Y-124270316D01*
X145322993Y-124264504D01*
X145300471Y-124256446D01*
X145278847Y-124246218D01*
X145258330Y-124233921D01*
X145239117Y-124219671D01*
X145221393Y-124203607D01*
X145205329Y-124185883D01*
X145191079Y-124166670D01*
X145178782Y-124146153D01*
X145168554Y-124124529D01*
X145160496Y-124102007D01*
X145154684Y-124078803D01*
X145151174Y-124055142D01*
X145150000Y-124031250D01*
X145150000Y-123543750D01*
X145151174Y-123519858D01*
X145154684Y-123496197D01*
X145160496Y-123472993D01*
X145168554Y-123450471D01*
X145178782Y-123428847D01*
X145191079Y-123408330D01*
X145205329Y-123389117D01*
X145221393Y-123371393D01*
X145239117Y-123355329D01*
X145258330Y-123341079D01*
X145278847Y-123328782D01*
X145300471Y-123318554D01*
X145322993Y-123310496D01*
X145346197Y-123304684D01*
X145369858Y-123301174D01*
X145393750Y-123300000D01*
X146306250Y-123300000D01*
X146330142Y-123301174D01*
X146330142Y-123301174D01*
G37*
D15*
X145850000Y-123787500D03*
D11*
G36*
X143880142Y-123301174D02*
G01*
X143903803Y-123304684D01*
X143927007Y-123310496D01*
X143949529Y-123318554D01*
X143971153Y-123328782D01*
X143991670Y-123341079D01*
X144010883Y-123355329D01*
X144028607Y-123371393D01*
X144044671Y-123389117D01*
X144058921Y-123408330D01*
X144071218Y-123428847D01*
X144081446Y-123450471D01*
X144089504Y-123472993D01*
X144095316Y-123496197D01*
X144098826Y-123519858D01*
X144100000Y-123543750D01*
X144100000Y-124031250D01*
X144098826Y-124055142D01*
X144095316Y-124078803D01*
X144089504Y-124102007D01*
X144081446Y-124124529D01*
X144071218Y-124146153D01*
X144058921Y-124166670D01*
X144044671Y-124185883D01*
X144028607Y-124203607D01*
X144010883Y-124219671D01*
X143991670Y-124233921D01*
X143971153Y-124246218D01*
X143949529Y-124256446D01*
X143927007Y-124264504D01*
X143903803Y-124270316D01*
X143880142Y-124273826D01*
X143856250Y-124275000D01*
X142943750Y-124275000D01*
X142919858Y-124273826D01*
X142896197Y-124270316D01*
X142872993Y-124264504D01*
X142850471Y-124256446D01*
X142828847Y-124246218D01*
X142808330Y-124233921D01*
X142789117Y-124219671D01*
X142771393Y-124203607D01*
X142755329Y-124185883D01*
X142741079Y-124166670D01*
X142728782Y-124146153D01*
X142718554Y-124124529D01*
X142710496Y-124102007D01*
X142704684Y-124078803D01*
X142701174Y-124055142D01*
X142700000Y-124031250D01*
X142700000Y-123543750D01*
X142701174Y-123519858D01*
X142704684Y-123496197D01*
X142710496Y-123472993D01*
X142718554Y-123450471D01*
X142728782Y-123428847D01*
X142741079Y-123408330D01*
X142755329Y-123389117D01*
X142771393Y-123371393D01*
X142789117Y-123355329D01*
X142808330Y-123341079D01*
X142828847Y-123328782D01*
X142850471Y-123318554D01*
X142872993Y-123310496D01*
X142896197Y-123304684D01*
X142919858Y-123301174D01*
X142943750Y-123300000D01*
X143856250Y-123300000D01*
X143880142Y-123301174D01*
X143880142Y-123301174D01*
G37*
D15*
X143400000Y-123787500D03*
D11*
G36*
X143880142Y-121426174D02*
G01*
X143903803Y-121429684D01*
X143927007Y-121435496D01*
X143949529Y-121443554D01*
X143971153Y-121453782D01*
X143991670Y-121466079D01*
X144010883Y-121480329D01*
X144028607Y-121496393D01*
X144044671Y-121514117D01*
X144058921Y-121533330D01*
X144071218Y-121553847D01*
X144081446Y-121575471D01*
X144089504Y-121597993D01*
X144095316Y-121621197D01*
X144098826Y-121644858D01*
X144100000Y-121668750D01*
X144100000Y-122156250D01*
X144098826Y-122180142D01*
X144095316Y-122203803D01*
X144089504Y-122227007D01*
X144081446Y-122249529D01*
X144071218Y-122271153D01*
X144058921Y-122291670D01*
X144044671Y-122310883D01*
X144028607Y-122328607D01*
X144010883Y-122344671D01*
X143991670Y-122358921D01*
X143971153Y-122371218D01*
X143949529Y-122381446D01*
X143927007Y-122389504D01*
X143903803Y-122395316D01*
X143880142Y-122398826D01*
X143856250Y-122400000D01*
X142943750Y-122400000D01*
X142919858Y-122398826D01*
X142896197Y-122395316D01*
X142872993Y-122389504D01*
X142850471Y-122381446D01*
X142828847Y-122371218D01*
X142808330Y-122358921D01*
X142789117Y-122344671D01*
X142771393Y-122328607D01*
X142755329Y-122310883D01*
X142741079Y-122291670D01*
X142728782Y-122271153D01*
X142718554Y-122249529D01*
X142710496Y-122227007D01*
X142704684Y-122203803D01*
X142701174Y-122180142D01*
X142700000Y-122156250D01*
X142700000Y-121668750D01*
X142701174Y-121644858D01*
X142704684Y-121621197D01*
X142710496Y-121597993D01*
X142718554Y-121575471D01*
X142728782Y-121553847D01*
X142741079Y-121533330D01*
X142755329Y-121514117D01*
X142771393Y-121496393D01*
X142789117Y-121480329D01*
X142808330Y-121466079D01*
X142828847Y-121453782D01*
X142850471Y-121443554D01*
X142872993Y-121435496D01*
X142896197Y-121429684D01*
X142919858Y-121426174D01*
X142943750Y-121425000D01*
X143856250Y-121425000D01*
X143880142Y-121426174D01*
X143880142Y-121426174D01*
G37*
D15*
X143400000Y-121912500D03*
D16*
X156200000Y-101750000D03*
X153200000Y-101750000D03*
X150200000Y-101750000D03*
X147200000Y-101750000D03*
X156200000Y-96450000D03*
X150200000Y-96450000D03*
X147200000Y-96450000D03*
X153200000Y-96450000D03*
X145800000Y-94400000D03*
X157600000Y-94400000D03*
X157600000Y-103800000D03*
X145800000Y-103800000D03*
D17*
X168230000Y-119000000D03*
X168230000Y-99500000D03*
X103460000Y-99390000D03*
X103460000Y-118890000D03*
D11*
G36*
X150127691Y-123188553D02*
G01*
X150148926Y-123191703D01*
X150169750Y-123196919D01*
X150189962Y-123204151D01*
X150209368Y-123213330D01*
X150227781Y-123224366D01*
X150245024Y-123237154D01*
X150260930Y-123251570D01*
X150275346Y-123267476D01*
X150288134Y-123284719D01*
X150299170Y-123303132D01*
X150308349Y-123322538D01*
X150315581Y-123342750D01*
X150320797Y-123363574D01*
X150323947Y-123384809D01*
X150325000Y-123406250D01*
X150325000Y-123843750D01*
X150323947Y-123865191D01*
X150320797Y-123886426D01*
X150315581Y-123907250D01*
X150308349Y-123927462D01*
X150299170Y-123946868D01*
X150288134Y-123965281D01*
X150275346Y-123982524D01*
X150260930Y-123998430D01*
X150245024Y-124012846D01*
X150227781Y-124025634D01*
X150209368Y-124036670D01*
X150189962Y-124045849D01*
X150169750Y-124053081D01*
X150148926Y-124058297D01*
X150127691Y-124061447D01*
X150106250Y-124062500D01*
X149593750Y-124062500D01*
X149572309Y-124061447D01*
X149551074Y-124058297D01*
X149530250Y-124053081D01*
X149510038Y-124045849D01*
X149490632Y-124036670D01*
X149472219Y-124025634D01*
X149454976Y-124012846D01*
X149439070Y-123998430D01*
X149424654Y-123982524D01*
X149411866Y-123965281D01*
X149400830Y-123946868D01*
X149391651Y-123927462D01*
X149384419Y-123907250D01*
X149379203Y-123886426D01*
X149376053Y-123865191D01*
X149375000Y-123843750D01*
X149375000Y-123406250D01*
X149376053Y-123384809D01*
X149379203Y-123363574D01*
X149384419Y-123342750D01*
X149391651Y-123322538D01*
X149400830Y-123303132D01*
X149411866Y-123284719D01*
X149424654Y-123267476D01*
X149439070Y-123251570D01*
X149454976Y-123237154D01*
X149472219Y-123224366D01*
X149490632Y-123213330D01*
X149510038Y-123204151D01*
X149530250Y-123196919D01*
X149551074Y-123191703D01*
X149572309Y-123188553D01*
X149593750Y-123187500D01*
X150106250Y-123187500D01*
X150127691Y-123188553D01*
X150127691Y-123188553D01*
G37*
D12*
X149850000Y-123625000D03*
D11*
G36*
X150127691Y-121613553D02*
G01*
X150148926Y-121616703D01*
X150169750Y-121621919D01*
X150189962Y-121629151D01*
X150209368Y-121638330D01*
X150227781Y-121649366D01*
X150245024Y-121662154D01*
X150260930Y-121676570D01*
X150275346Y-121692476D01*
X150288134Y-121709719D01*
X150299170Y-121728132D01*
X150308349Y-121747538D01*
X150315581Y-121767750D01*
X150320797Y-121788574D01*
X150323947Y-121809809D01*
X150325000Y-121831250D01*
X150325000Y-122268750D01*
X150323947Y-122290191D01*
X150320797Y-122311426D01*
X150315581Y-122332250D01*
X150308349Y-122352462D01*
X150299170Y-122371868D01*
X150288134Y-122390281D01*
X150275346Y-122407524D01*
X150260930Y-122423430D01*
X150245024Y-122437846D01*
X150227781Y-122450634D01*
X150209368Y-122461670D01*
X150189962Y-122470849D01*
X150169750Y-122478081D01*
X150148926Y-122483297D01*
X150127691Y-122486447D01*
X150106250Y-122487500D01*
X149593750Y-122487500D01*
X149572309Y-122486447D01*
X149551074Y-122483297D01*
X149530250Y-122478081D01*
X149510038Y-122470849D01*
X149490632Y-122461670D01*
X149472219Y-122450634D01*
X149454976Y-122437846D01*
X149439070Y-122423430D01*
X149424654Y-122407524D01*
X149411866Y-122390281D01*
X149400830Y-122371868D01*
X149391651Y-122352462D01*
X149384419Y-122332250D01*
X149379203Y-122311426D01*
X149376053Y-122290191D01*
X149375000Y-122268750D01*
X149375000Y-121831250D01*
X149376053Y-121809809D01*
X149379203Y-121788574D01*
X149384419Y-121767750D01*
X149391651Y-121747538D01*
X149400830Y-121728132D01*
X149411866Y-121709719D01*
X149424654Y-121692476D01*
X149439070Y-121676570D01*
X149454976Y-121662154D01*
X149472219Y-121649366D01*
X149490632Y-121638330D01*
X149510038Y-121629151D01*
X149530250Y-121621919D01*
X149551074Y-121616703D01*
X149572309Y-121613553D01*
X149593750Y-121612500D01*
X150106250Y-121612500D01*
X150127691Y-121613553D01*
X150127691Y-121613553D01*
G37*
D12*
X149850000Y-122050000D03*
D18*
X141300000Y-119100000D03*
X142250000Y-119100000D03*
X143200000Y-119100000D03*
X143200000Y-116900000D03*
X141300000Y-116900000D03*
X147750000Y-119100000D03*
X148700000Y-119100000D03*
X146800000Y-119100000D03*
X146800000Y-116900000D03*
X147750000Y-116900000D03*
X148700000Y-116900000D03*
X144700000Y-110850000D03*
X145650000Y-110850000D03*
X146600000Y-110850000D03*
X146600000Y-108650000D03*
X144700000Y-108650000D03*
X145650000Y-108650000D03*
D11*
G36*
X148127691Y-123201053D02*
G01*
X148148926Y-123204203D01*
X148169750Y-123209419D01*
X148189962Y-123216651D01*
X148209368Y-123225830D01*
X148227781Y-123236866D01*
X148245024Y-123249654D01*
X148260930Y-123264070D01*
X148275346Y-123279976D01*
X148288134Y-123297219D01*
X148299170Y-123315632D01*
X148308349Y-123335038D01*
X148315581Y-123355250D01*
X148320797Y-123376074D01*
X148323947Y-123397309D01*
X148325000Y-123418750D01*
X148325000Y-123856250D01*
X148323947Y-123877691D01*
X148320797Y-123898926D01*
X148315581Y-123919750D01*
X148308349Y-123939962D01*
X148299170Y-123959368D01*
X148288134Y-123977781D01*
X148275346Y-123995024D01*
X148260930Y-124010930D01*
X148245024Y-124025346D01*
X148227781Y-124038134D01*
X148209368Y-124049170D01*
X148189962Y-124058349D01*
X148169750Y-124065581D01*
X148148926Y-124070797D01*
X148127691Y-124073947D01*
X148106250Y-124075000D01*
X147593750Y-124075000D01*
X147572309Y-124073947D01*
X147551074Y-124070797D01*
X147530250Y-124065581D01*
X147510038Y-124058349D01*
X147490632Y-124049170D01*
X147472219Y-124038134D01*
X147454976Y-124025346D01*
X147439070Y-124010930D01*
X147424654Y-123995024D01*
X147411866Y-123977781D01*
X147400830Y-123959368D01*
X147391651Y-123939962D01*
X147384419Y-123919750D01*
X147379203Y-123898926D01*
X147376053Y-123877691D01*
X147375000Y-123856250D01*
X147375000Y-123418750D01*
X147376053Y-123397309D01*
X147379203Y-123376074D01*
X147384419Y-123355250D01*
X147391651Y-123335038D01*
X147400830Y-123315632D01*
X147411866Y-123297219D01*
X147424654Y-123279976D01*
X147439070Y-123264070D01*
X147454976Y-123249654D01*
X147472219Y-123236866D01*
X147490632Y-123225830D01*
X147510038Y-123216651D01*
X147530250Y-123209419D01*
X147551074Y-123204203D01*
X147572309Y-123201053D01*
X147593750Y-123200000D01*
X148106250Y-123200000D01*
X148127691Y-123201053D01*
X148127691Y-123201053D01*
G37*
D12*
X147850000Y-123637500D03*
D11*
G36*
X148127691Y-121626053D02*
G01*
X148148926Y-121629203D01*
X148169750Y-121634419D01*
X148189962Y-121641651D01*
X148209368Y-121650830D01*
X148227781Y-121661866D01*
X148245024Y-121674654D01*
X148260930Y-121689070D01*
X148275346Y-121704976D01*
X148288134Y-121722219D01*
X148299170Y-121740632D01*
X148308349Y-121760038D01*
X148315581Y-121780250D01*
X148320797Y-121801074D01*
X148323947Y-121822309D01*
X148325000Y-121843750D01*
X148325000Y-122281250D01*
X148323947Y-122302691D01*
X148320797Y-122323926D01*
X148315581Y-122344750D01*
X148308349Y-122364962D01*
X148299170Y-122384368D01*
X148288134Y-122402781D01*
X148275346Y-122420024D01*
X148260930Y-122435930D01*
X148245024Y-122450346D01*
X148227781Y-122463134D01*
X148209368Y-122474170D01*
X148189962Y-122483349D01*
X148169750Y-122490581D01*
X148148926Y-122495797D01*
X148127691Y-122498947D01*
X148106250Y-122500000D01*
X147593750Y-122500000D01*
X147572309Y-122498947D01*
X147551074Y-122495797D01*
X147530250Y-122490581D01*
X147510038Y-122483349D01*
X147490632Y-122474170D01*
X147472219Y-122463134D01*
X147454976Y-122450346D01*
X147439070Y-122435930D01*
X147424654Y-122420024D01*
X147411866Y-122402781D01*
X147400830Y-122384368D01*
X147391651Y-122364962D01*
X147384419Y-122344750D01*
X147379203Y-122323926D01*
X147376053Y-122302691D01*
X147375000Y-122281250D01*
X147375000Y-121843750D01*
X147376053Y-121822309D01*
X147379203Y-121801074D01*
X147384419Y-121780250D01*
X147391651Y-121760038D01*
X147400830Y-121740632D01*
X147411866Y-121722219D01*
X147424654Y-121704976D01*
X147439070Y-121689070D01*
X147454976Y-121674654D01*
X147472219Y-121661866D01*
X147490632Y-121650830D01*
X147510038Y-121641651D01*
X147530250Y-121634419D01*
X147551074Y-121629203D01*
X147572309Y-121626053D01*
X147593750Y-121625000D01*
X148106250Y-121625000D01*
X148127691Y-121626053D01*
X148127691Y-121626053D01*
G37*
D12*
X147850000Y-122062500D03*
D11*
G36*
X151027691Y-111526053D02*
G01*
X151048926Y-111529203D01*
X151069750Y-111534419D01*
X151089962Y-111541651D01*
X151109368Y-111550830D01*
X151127781Y-111561866D01*
X151145024Y-111574654D01*
X151160930Y-111589070D01*
X151175346Y-111604976D01*
X151188134Y-111622219D01*
X151199170Y-111640632D01*
X151208349Y-111660038D01*
X151215581Y-111680250D01*
X151220797Y-111701074D01*
X151223947Y-111722309D01*
X151225000Y-111743750D01*
X151225000Y-112181250D01*
X151223947Y-112202691D01*
X151220797Y-112223926D01*
X151215581Y-112244750D01*
X151208349Y-112264962D01*
X151199170Y-112284368D01*
X151188134Y-112302781D01*
X151175346Y-112320024D01*
X151160930Y-112335930D01*
X151145024Y-112350346D01*
X151127781Y-112363134D01*
X151109368Y-112374170D01*
X151089962Y-112383349D01*
X151069750Y-112390581D01*
X151048926Y-112395797D01*
X151027691Y-112398947D01*
X151006250Y-112400000D01*
X150493750Y-112400000D01*
X150472309Y-112398947D01*
X150451074Y-112395797D01*
X150430250Y-112390581D01*
X150410038Y-112383349D01*
X150390632Y-112374170D01*
X150372219Y-112363134D01*
X150354976Y-112350346D01*
X150339070Y-112335930D01*
X150324654Y-112320024D01*
X150311866Y-112302781D01*
X150300830Y-112284368D01*
X150291651Y-112264962D01*
X150284419Y-112244750D01*
X150279203Y-112223926D01*
X150276053Y-112202691D01*
X150275000Y-112181250D01*
X150275000Y-111743750D01*
X150276053Y-111722309D01*
X150279203Y-111701074D01*
X150284419Y-111680250D01*
X150291651Y-111660038D01*
X150300830Y-111640632D01*
X150311866Y-111622219D01*
X150324654Y-111604976D01*
X150339070Y-111589070D01*
X150354976Y-111574654D01*
X150372219Y-111561866D01*
X150390632Y-111550830D01*
X150410038Y-111541651D01*
X150430250Y-111534419D01*
X150451074Y-111529203D01*
X150472309Y-111526053D01*
X150493750Y-111525000D01*
X151006250Y-111525000D01*
X151027691Y-111526053D01*
X151027691Y-111526053D01*
G37*
D12*
X150750000Y-111962500D03*
D11*
G36*
X151027691Y-113101053D02*
G01*
X151048926Y-113104203D01*
X151069750Y-113109419D01*
X151089962Y-113116651D01*
X151109368Y-113125830D01*
X151127781Y-113136866D01*
X151145024Y-113149654D01*
X151160930Y-113164070D01*
X151175346Y-113179976D01*
X151188134Y-113197219D01*
X151199170Y-113215632D01*
X151208349Y-113235038D01*
X151215581Y-113255250D01*
X151220797Y-113276074D01*
X151223947Y-113297309D01*
X151225000Y-113318750D01*
X151225000Y-113756250D01*
X151223947Y-113777691D01*
X151220797Y-113798926D01*
X151215581Y-113819750D01*
X151208349Y-113839962D01*
X151199170Y-113859368D01*
X151188134Y-113877781D01*
X151175346Y-113895024D01*
X151160930Y-113910930D01*
X151145024Y-113925346D01*
X151127781Y-113938134D01*
X151109368Y-113949170D01*
X151089962Y-113958349D01*
X151069750Y-113965581D01*
X151048926Y-113970797D01*
X151027691Y-113973947D01*
X151006250Y-113975000D01*
X150493750Y-113975000D01*
X150472309Y-113973947D01*
X150451074Y-113970797D01*
X150430250Y-113965581D01*
X150410038Y-113958349D01*
X150390632Y-113949170D01*
X150372219Y-113938134D01*
X150354976Y-113925346D01*
X150339070Y-113910930D01*
X150324654Y-113895024D01*
X150311866Y-113877781D01*
X150300830Y-113859368D01*
X150291651Y-113839962D01*
X150284419Y-113819750D01*
X150279203Y-113798926D01*
X150276053Y-113777691D01*
X150275000Y-113756250D01*
X150275000Y-113318750D01*
X150276053Y-113297309D01*
X150279203Y-113276074D01*
X150284419Y-113255250D01*
X150291651Y-113235038D01*
X150300830Y-113215632D01*
X150311866Y-113197219D01*
X150324654Y-113179976D01*
X150339070Y-113164070D01*
X150354976Y-113149654D01*
X150372219Y-113136866D01*
X150390632Y-113125830D01*
X150410038Y-113116651D01*
X150430250Y-113109419D01*
X150451074Y-113104203D01*
X150472309Y-113101053D01*
X150493750Y-113100000D01*
X151006250Y-113100000D01*
X151027691Y-113101053D01*
X151027691Y-113101053D01*
G37*
D12*
X150750000Y-113537500D03*
D11*
G36*
X133027691Y-97801053D02*
G01*
X133048926Y-97804203D01*
X133069750Y-97809419D01*
X133089962Y-97816651D01*
X133109368Y-97825830D01*
X133127781Y-97836866D01*
X133145024Y-97849654D01*
X133160930Y-97864070D01*
X133175346Y-97879976D01*
X133188134Y-97897219D01*
X133199170Y-97915632D01*
X133208349Y-97935038D01*
X133215581Y-97955250D01*
X133220797Y-97976074D01*
X133223947Y-97997309D01*
X133225000Y-98018750D01*
X133225000Y-98456250D01*
X133223947Y-98477691D01*
X133220797Y-98498926D01*
X133215581Y-98519750D01*
X133208349Y-98539962D01*
X133199170Y-98559368D01*
X133188134Y-98577781D01*
X133175346Y-98595024D01*
X133160930Y-98610930D01*
X133145024Y-98625346D01*
X133127781Y-98638134D01*
X133109368Y-98649170D01*
X133089962Y-98658349D01*
X133069750Y-98665581D01*
X133048926Y-98670797D01*
X133027691Y-98673947D01*
X133006250Y-98675000D01*
X132493750Y-98675000D01*
X132472309Y-98673947D01*
X132451074Y-98670797D01*
X132430250Y-98665581D01*
X132410038Y-98658349D01*
X132390632Y-98649170D01*
X132372219Y-98638134D01*
X132354976Y-98625346D01*
X132339070Y-98610930D01*
X132324654Y-98595024D01*
X132311866Y-98577781D01*
X132300830Y-98559368D01*
X132291651Y-98539962D01*
X132284419Y-98519750D01*
X132279203Y-98498926D01*
X132276053Y-98477691D01*
X132275000Y-98456250D01*
X132275000Y-98018750D01*
X132276053Y-97997309D01*
X132279203Y-97976074D01*
X132284419Y-97955250D01*
X132291651Y-97935038D01*
X132300830Y-97915632D01*
X132311866Y-97897219D01*
X132324654Y-97879976D01*
X132339070Y-97864070D01*
X132354976Y-97849654D01*
X132372219Y-97836866D01*
X132390632Y-97825830D01*
X132410038Y-97816651D01*
X132430250Y-97809419D01*
X132451074Y-97804203D01*
X132472309Y-97801053D01*
X132493750Y-97800000D01*
X133006250Y-97800000D01*
X133027691Y-97801053D01*
X133027691Y-97801053D01*
G37*
D12*
X132750000Y-98237500D03*
D11*
G36*
X133027691Y-96226053D02*
G01*
X133048926Y-96229203D01*
X133069750Y-96234419D01*
X133089962Y-96241651D01*
X133109368Y-96250830D01*
X133127781Y-96261866D01*
X133145024Y-96274654D01*
X133160930Y-96289070D01*
X133175346Y-96304976D01*
X133188134Y-96322219D01*
X133199170Y-96340632D01*
X133208349Y-96360038D01*
X133215581Y-96380250D01*
X133220797Y-96401074D01*
X133223947Y-96422309D01*
X133225000Y-96443750D01*
X133225000Y-96881250D01*
X133223947Y-96902691D01*
X133220797Y-96923926D01*
X133215581Y-96944750D01*
X133208349Y-96964962D01*
X133199170Y-96984368D01*
X133188134Y-97002781D01*
X133175346Y-97020024D01*
X133160930Y-97035930D01*
X133145024Y-97050346D01*
X133127781Y-97063134D01*
X133109368Y-97074170D01*
X133089962Y-97083349D01*
X133069750Y-97090581D01*
X133048926Y-97095797D01*
X133027691Y-97098947D01*
X133006250Y-97100000D01*
X132493750Y-97100000D01*
X132472309Y-97098947D01*
X132451074Y-97095797D01*
X132430250Y-97090581D01*
X132410038Y-97083349D01*
X132390632Y-97074170D01*
X132372219Y-97063134D01*
X132354976Y-97050346D01*
X132339070Y-97035930D01*
X132324654Y-97020024D01*
X132311866Y-97002781D01*
X132300830Y-96984368D01*
X132291651Y-96964962D01*
X132284419Y-96944750D01*
X132279203Y-96923926D01*
X132276053Y-96902691D01*
X132275000Y-96881250D01*
X132275000Y-96443750D01*
X132276053Y-96422309D01*
X132279203Y-96401074D01*
X132284419Y-96380250D01*
X132291651Y-96360038D01*
X132300830Y-96340632D01*
X132311866Y-96322219D01*
X132324654Y-96304976D01*
X132339070Y-96289070D01*
X132354976Y-96274654D01*
X132372219Y-96261866D01*
X132390632Y-96250830D01*
X132410038Y-96241651D01*
X132430250Y-96234419D01*
X132451074Y-96229203D01*
X132472309Y-96226053D01*
X132493750Y-96225000D01*
X133006250Y-96225000D01*
X133027691Y-96226053D01*
X133027691Y-96226053D01*
G37*
D12*
X132750000Y-96662500D03*
D11*
G36*
X152127691Y-123201053D02*
G01*
X152148926Y-123204203D01*
X152169750Y-123209419D01*
X152189962Y-123216651D01*
X152209368Y-123225830D01*
X152227781Y-123236866D01*
X152245024Y-123249654D01*
X152260930Y-123264070D01*
X152275346Y-123279976D01*
X152288134Y-123297219D01*
X152299170Y-123315632D01*
X152308349Y-123335038D01*
X152315581Y-123355250D01*
X152320797Y-123376074D01*
X152323947Y-123397309D01*
X152325000Y-123418750D01*
X152325000Y-123856250D01*
X152323947Y-123877691D01*
X152320797Y-123898926D01*
X152315581Y-123919750D01*
X152308349Y-123939962D01*
X152299170Y-123959368D01*
X152288134Y-123977781D01*
X152275346Y-123995024D01*
X152260930Y-124010930D01*
X152245024Y-124025346D01*
X152227781Y-124038134D01*
X152209368Y-124049170D01*
X152189962Y-124058349D01*
X152169750Y-124065581D01*
X152148926Y-124070797D01*
X152127691Y-124073947D01*
X152106250Y-124075000D01*
X151593750Y-124075000D01*
X151572309Y-124073947D01*
X151551074Y-124070797D01*
X151530250Y-124065581D01*
X151510038Y-124058349D01*
X151490632Y-124049170D01*
X151472219Y-124038134D01*
X151454976Y-124025346D01*
X151439070Y-124010930D01*
X151424654Y-123995024D01*
X151411866Y-123977781D01*
X151400830Y-123959368D01*
X151391651Y-123939962D01*
X151384419Y-123919750D01*
X151379203Y-123898926D01*
X151376053Y-123877691D01*
X151375000Y-123856250D01*
X151375000Y-123418750D01*
X151376053Y-123397309D01*
X151379203Y-123376074D01*
X151384419Y-123355250D01*
X151391651Y-123335038D01*
X151400830Y-123315632D01*
X151411866Y-123297219D01*
X151424654Y-123279976D01*
X151439070Y-123264070D01*
X151454976Y-123249654D01*
X151472219Y-123236866D01*
X151490632Y-123225830D01*
X151510038Y-123216651D01*
X151530250Y-123209419D01*
X151551074Y-123204203D01*
X151572309Y-123201053D01*
X151593750Y-123200000D01*
X152106250Y-123200000D01*
X152127691Y-123201053D01*
X152127691Y-123201053D01*
G37*
D12*
X151850000Y-123637500D03*
D11*
G36*
X152127691Y-121626053D02*
G01*
X152148926Y-121629203D01*
X152169750Y-121634419D01*
X152189962Y-121641651D01*
X152209368Y-121650830D01*
X152227781Y-121661866D01*
X152245024Y-121674654D01*
X152260930Y-121689070D01*
X152275346Y-121704976D01*
X152288134Y-121722219D01*
X152299170Y-121740632D01*
X152308349Y-121760038D01*
X152315581Y-121780250D01*
X152320797Y-121801074D01*
X152323947Y-121822309D01*
X152325000Y-121843750D01*
X152325000Y-122281250D01*
X152323947Y-122302691D01*
X152320797Y-122323926D01*
X152315581Y-122344750D01*
X152308349Y-122364962D01*
X152299170Y-122384368D01*
X152288134Y-122402781D01*
X152275346Y-122420024D01*
X152260930Y-122435930D01*
X152245024Y-122450346D01*
X152227781Y-122463134D01*
X152209368Y-122474170D01*
X152189962Y-122483349D01*
X152169750Y-122490581D01*
X152148926Y-122495797D01*
X152127691Y-122498947D01*
X152106250Y-122500000D01*
X151593750Y-122500000D01*
X151572309Y-122498947D01*
X151551074Y-122495797D01*
X151530250Y-122490581D01*
X151510038Y-122483349D01*
X151490632Y-122474170D01*
X151472219Y-122463134D01*
X151454976Y-122450346D01*
X151439070Y-122435930D01*
X151424654Y-122420024D01*
X151411866Y-122402781D01*
X151400830Y-122384368D01*
X151391651Y-122364962D01*
X151384419Y-122344750D01*
X151379203Y-122323926D01*
X151376053Y-122302691D01*
X151375000Y-122281250D01*
X151375000Y-121843750D01*
X151376053Y-121822309D01*
X151379203Y-121801074D01*
X151384419Y-121780250D01*
X151391651Y-121760038D01*
X151400830Y-121740632D01*
X151411866Y-121722219D01*
X151424654Y-121704976D01*
X151439070Y-121689070D01*
X151454976Y-121674654D01*
X151472219Y-121661866D01*
X151490632Y-121650830D01*
X151510038Y-121641651D01*
X151530250Y-121634419D01*
X151551074Y-121629203D01*
X151572309Y-121626053D01*
X151593750Y-121625000D01*
X152106250Y-121625000D01*
X152127691Y-121626053D01*
X152127691Y-121626053D01*
G37*
D12*
X151850000Y-122062500D03*
D11*
G36*
X137327691Y-96226053D02*
G01*
X137348926Y-96229203D01*
X137369750Y-96234419D01*
X137389962Y-96241651D01*
X137409368Y-96250830D01*
X137427781Y-96261866D01*
X137445024Y-96274654D01*
X137460930Y-96289070D01*
X137475346Y-96304976D01*
X137488134Y-96322219D01*
X137499170Y-96340632D01*
X137508349Y-96360038D01*
X137515581Y-96380250D01*
X137520797Y-96401074D01*
X137523947Y-96422309D01*
X137525000Y-96443750D01*
X137525000Y-96881250D01*
X137523947Y-96902691D01*
X137520797Y-96923926D01*
X137515581Y-96944750D01*
X137508349Y-96964962D01*
X137499170Y-96984368D01*
X137488134Y-97002781D01*
X137475346Y-97020024D01*
X137460930Y-97035930D01*
X137445024Y-97050346D01*
X137427781Y-97063134D01*
X137409368Y-97074170D01*
X137389962Y-97083349D01*
X137369750Y-97090581D01*
X137348926Y-97095797D01*
X137327691Y-97098947D01*
X137306250Y-97100000D01*
X136793750Y-97100000D01*
X136772309Y-97098947D01*
X136751074Y-97095797D01*
X136730250Y-97090581D01*
X136710038Y-97083349D01*
X136690632Y-97074170D01*
X136672219Y-97063134D01*
X136654976Y-97050346D01*
X136639070Y-97035930D01*
X136624654Y-97020024D01*
X136611866Y-97002781D01*
X136600830Y-96984368D01*
X136591651Y-96964962D01*
X136584419Y-96944750D01*
X136579203Y-96923926D01*
X136576053Y-96902691D01*
X136575000Y-96881250D01*
X136575000Y-96443750D01*
X136576053Y-96422309D01*
X136579203Y-96401074D01*
X136584419Y-96380250D01*
X136591651Y-96360038D01*
X136600830Y-96340632D01*
X136611866Y-96322219D01*
X136624654Y-96304976D01*
X136639070Y-96289070D01*
X136654976Y-96274654D01*
X136672219Y-96261866D01*
X136690632Y-96250830D01*
X136710038Y-96241651D01*
X136730250Y-96234419D01*
X136751074Y-96229203D01*
X136772309Y-96226053D01*
X136793750Y-96225000D01*
X137306250Y-96225000D01*
X137327691Y-96226053D01*
X137327691Y-96226053D01*
G37*
D12*
X137050000Y-96662500D03*
D11*
G36*
X137327691Y-97801053D02*
G01*
X137348926Y-97804203D01*
X137369750Y-97809419D01*
X137389962Y-97816651D01*
X137409368Y-97825830D01*
X137427781Y-97836866D01*
X137445024Y-97849654D01*
X137460930Y-97864070D01*
X137475346Y-97879976D01*
X137488134Y-97897219D01*
X137499170Y-97915632D01*
X137508349Y-97935038D01*
X137515581Y-97955250D01*
X137520797Y-97976074D01*
X137523947Y-97997309D01*
X137525000Y-98018750D01*
X137525000Y-98456250D01*
X137523947Y-98477691D01*
X137520797Y-98498926D01*
X137515581Y-98519750D01*
X137508349Y-98539962D01*
X137499170Y-98559368D01*
X137488134Y-98577781D01*
X137475346Y-98595024D01*
X137460930Y-98610930D01*
X137445024Y-98625346D01*
X137427781Y-98638134D01*
X137409368Y-98649170D01*
X137389962Y-98658349D01*
X137369750Y-98665581D01*
X137348926Y-98670797D01*
X137327691Y-98673947D01*
X137306250Y-98675000D01*
X136793750Y-98675000D01*
X136772309Y-98673947D01*
X136751074Y-98670797D01*
X136730250Y-98665581D01*
X136710038Y-98658349D01*
X136690632Y-98649170D01*
X136672219Y-98638134D01*
X136654976Y-98625346D01*
X136639070Y-98610930D01*
X136624654Y-98595024D01*
X136611866Y-98577781D01*
X136600830Y-98559368D01*
X136591651Y-98539962D01*
X136584419Y-98519750D01*
X136579203Y-98498926D01*
X136576053Y-98477691D01*
X136575000Y-98456250D01*
X136575000Y-98018750D01*
X136576053Y-97997309D01*
X136579203Y-97976074D01*
X136584419Y-97955250D01*
X136591651Y-97935038D01*
X136600830Y-97915632D01*
X136611866Y-97897219D01*
X136624654Y-97879976D01*
X136639070Y-97864070D01*
X136654976Y-97849654D01*
X136672219Y-97836866D01*
X136690632Y-97825830D01*
X136710038Y-97816651D01*
X136730250Y-97809419D01*
X136751074Y-97804203D01*
X136772309Y-97801053D01*
X136793750Y-97800000D01*
X137306250Y-97800000D01*
X137327691Y-97801053D01*
X137327691Y-97801053D01*
G37*
D12*
X137050000Y-98237500D03*
D11*
G36*
X154127691Y-123201053D02*
G01*
X154148926Y-123204203D01*
X154169750Y-123209419D01*
X154189962Y-123216651D01*
X154209368Y-123225830D01*
X154227781Y-123236866D01*
X154245024Y-123249654D01*
X154260930Y-123264070D01*
X154275346Y-123279976D01*
X154288134Y-123297219D01*
X154299170Y-123315632D01*
X154308349Y-123335038D01*
X154315581Y-123355250D01*
X154320797Y-123376074D01*
X154323947Y-123397309D01*
X154325000Y-123418750D01*
X154325000Y-123856250D01*
X154323947Y-123877691D01*
X154320797Y-123898926D01*
X154315581Y-123919750D01*
X154308349Y-123939962D01*
X154299170Y-123959368D01*
X154288134Y-123977781D01*
X154275346Y-123995024D01*
X154260930Y-124010930D01*
X154245024Y-124025346D01*
X154227781Y-124038134D01*
X154209368Y-124049170D01*
X154189962Y-124058349D01*
X154169750Y-124065581D01*
X154148926Y-124070797D01*
X154127691Y-124073947D01*
X154106250Y-124075000D01*
X153593750Y-124075000D01*
X153572309Y-124073947D01*
X153551074Y-124070797D01*
X153530250Y-124065581D01*
X153510038Y-124058349D01*
X153490632Y-124049170D01*
X153472219Y-124038134D01*
X153454976Y-124025346D01*
X153439070Y-124010930D01*
X153424654Y-123995024D01*
X153411866Y-123977781D01*
X153400830Y-123959368D01*
X153391651Y-123939962D01*
X153384419Y-123919750D01*
X153379203Y-123898926D01*
X153376053Y-123877691D01*
X153375000Y-123856250D01*
X153375000Y-123418750D01*
X153376053Y-123397309D01*
X153379203Y-123376074D01*
X153384419Y-123355250D01*
X153391651Y-123335038D01*
X153400830Y-123315632D01*
X153411866Y-123297219D01*
X153424654Y-123279976D01*
X153439070Y-123264070D01*
X153454976Y-123249654D01*
X153472219Y-123236866D01*
X153490632Y-123225830D01*
X153510038Y-123216651D01*
X153530250Y-123209419D01*
X153551074Y-123204203D01*
X153572309Y-123201053D01*
X153593750Y-123200000D01*
X154106250Y-123200000D01*
X154127691Y-123201053D01*
X154127691Y-123201053D01*
G37*
D12*
X153850000Y-123637500D03*
D11*
G36*
X154127691Y-121626053D02*
G01*
X154148926Y-121629203D01*
X154169750Y-121634419D01*
X154189962Y-121641651D01*
X154209368Y-121650830D01*
X154227781Y-121661866D01*
X154245024Y-121674654D01*
X154260930Y-121689070D01*
X154275346Y-121704976D01*
X154288134Y-121722219D01*
X154299170Y-121740632D01*
X154308349Y-121760038D01*
X154315581Y-121780250D01*
X154320797Y-121801074D01*
X154323947Y-121822309D01*
X154325000Y-121843750D01*
X154325000Y-122281250D01*
X154323947Y-122302691D01*
X154320797Y-122323926D01*
X154315581Y-122344750D01*
X154308349Y-122364962D01*
X154299170Y-122384368D01*
X154288134Y-122402781D01*
X154275346Y-122420024D01*
X154260930Y-122435930D01*
X154245024Y-122450346D01*
X154227781Y-122463134D01*
X154209368Y-122474170D01*
X154189962Y-122483349D01*
X154169750Y-122490581D01*
X154148926Y-122495797D01*
X154127691Y-122498947D01*
X154106250Y-122500000D01*
X153593750Y-122500000D01*
X153572309Y-122498947D01*
X153551074Y-122495797D01*
X153530250Y-122490581D01*
X153510038Y-122483349D01*
X153490632Y-122474170D01*
X153472219Y-122463134D01*
X153454976Y-122450346D01*
X153439070Y-122435930D01*
X153424654Y-122420024D01*
X153411866Y-122402781D01*
X153400830Y-122384368D01*
X153391651Y-122364962D01*
X153384419Y-122344750D01*
X153379203Y-122323926D01*
X153376053Y-122302691D01*
X153375000Y-122281250D01*
X153375000Y-121843750D01*
X153376053Y-121822309D01*
X153379203Y-121801074D01*
X153384419Y-121780250D01*
X153391651Y-121760038D01*
X153400830Y-121740632D01*
X153411866Y-121722219D01*
X153424654Y-121704976D01*
X153439070Y-121689070D01*
X153454976Y-121674654D01*
X153472219Y-121661866D01*
X153490632Y-121650830D01*
X153510038Y-121641651D01*
X153530250Y-121634419D01*
X153551074Y-121629203D01*
X153572309Y-121626053D01*
X153593750Y-121625000D01*
X154106250Y-121625000D01*
X154127691Y-121626053D01*
X154127691Y-121626053D01*
G37*
D12*
X153850000Y-122062500D03*
D11*
G36*
X141277691Y-123201053D02*
G01*
X141298926Y-123204203D01*
X141319750Y-123209419D01*
X141339962Y-123216651D01*
X141359368Y-123225830D01*
X141377781Y-123236866D01*
X141395024Y-123249654D01*
X141410930Y-123264070D01*
X141425346Y-123279976D01*
X141438134Y-123297219D01*
X141449170Y-123315632D01*
X141458349Y-123335038D01*
X141465581Y-123355250D01*
X141470797Y-123376074D01*
X141473947Y-123397309D01*
X141475000Y-123418750D01*
X141475000Y-123856250D01*
X141473947Y-123877691D01*
X141470797Y-123898926D01*
X141465581Y-123919750D01*
X141458349Y-123939962D01*
X141449170Y-123959368D01*
X141438134Y-123977781D01*
X141425346Y-123995024D01*
X141410930Y-124010930D01*
X141395024Y-124025346D01*
X141377781Y-124038134D01*
X141359368Y-124049170D01*
X141339962Y-124058349D01*
X141319750Y-124065581D01*
X141298926Y-124070797D01*
X141277691Y-124073947D01*
X141256250Y-124075000D01*
X140743750Y-124075000D01*
X140722309Y-124073947D01*
X140701074Y-124070797D01*
X140680250Y-124065581D01*
X140660038Y-124058349D01*
X140640632Y-124049170D01*
X140622219Y-124038134D01*
X140604976Y-124025346D01*
X140589070Y-124010930D01*
X140574654Y-123995024D01*
X140561866Y-123977781D01*
X140550830Y-123959368D01*
X140541651Y-123939962D01*
X140534419Y-123919750D01*
X140529203Y-123898926D01*
X140526053Y-123877691D01*
X140525000Y-123856250D01*
X140525000Y-123418750D01*
X140526053Y-123397309D01*
X140529203Y-123376074D01*
X140534419Y-123355250D01*
X140541651Y-123335038D01*
X140550830Y-123315632D01*
X140561866Y-123297219D01*
X140574654Y-123279976D01*
X140589070Y-123264070D01*
X140604976Y-123249654D01*
X140622219Y-123236866D01*
X140640632Y-123225830D01*
X140660038Y-123216651D01*
X140680250Y-123209419D01*
X140701074Y-123204203D01*
X140722309Y-123201053D01*
X140743750Y-123200000D01*
X141256250Y-123200000D01*
X141277691Y-123201053D01*
X141277691Y-123201053D01*
G37*
D12*
X141000000Y-123637500D03*
D11*
G36*
X141277691Y-121626053D02*
G01*
X141298926Y-121629203D01*
X141319750Y-121634419D01*
X141339962Y-121641651D01*
X141359368Y-121650830D01*
X141377781Y-121661866D01*
X141395024Y-121674654D01*
X141410930Y-121689070D01*
X141425346Y-121704976D01*
X141438134Y-121722219D01*
X141449170Y-121740632D01*
X141458349Y-121760038D01*
X141465581Y-121780250D01*
X141470797Y-121801074D01*
X141473947Y-121822309D01*
X141475000Y-121843750D01*
X141475000Y-122281250D01*
X141473947Y-122302691D01*
X141470797Y-122323926D01*
X141465581Y-122344750D01*
X141458349Y-122364962D01*
X141449170Y-122384368D01*
X141438134Y-122402781D01*
X141425346Y-122420024D01*
X141410930Y-122435930D01*
X141395024Y-122450346D01*
X141377781Y-122463134D01*
X141359368Y-122474170D01*
X141339962Y-122483349D01*
X141319750Y-122490581D01*
X141298926Y-122495797D01*
X141277691Y-122498947D01*
X141256250Y-122500000D01*
X140743750Y-122500000D01*
X140722309Y-122498947D01*
X140701074Y-122495797D01*
X140680250Y-122490581D01*
X140660038Y-122483349D01*
X140640632Y-122474170D01*
X140622219Y-122463134D01*
X140604976Y-122450346D01*
X140589070Y-122435930D01*
X140574654Y-122420024D01*
X140561866Y-122402781D01*
X140550830Y-122384368D01*
X140541651Y-122364962D01*
X140534419Y-122344750D01*
X140529203Y-122323926D01*
X140526053Y-122302691D01*
X140525000Y-122281250D01*
X140525000Y-121843750D01*
X140526053Y-121822309D01*
X140529203Y-121801074D01*
X140534419Y-121780250D01*
X140541651Y-121760038D01*
X140550830Y-121740632D01*
X140561866Y-121722219D01*
X140574654Y-121704976D01*
X140589070Y-121689070D01*
X140604976Y-121674654D01*
X140622219Y-121661866D01*
X140640632Y-121650830D01*
X140660038Y-121641651D01*
X140680250Y-121634419D01*
X140701074Y-121629203D01*
X140722309Y-121626053D01*
X140743750Y-121625000D01*
X141256250Y-121625000D01*
X141277691Y-121626053D01*
X141277691Y-121626053D01*
G37*
D12*
X141000000Y-122062500D03*
D11*
G36*
X139327691Y-123201053D02*
G01*
X139348926Y-123204203D01*
X139369750Y-123209419D01*
X139389962Y-123216651D01*
X139409368Y-123225830D01*
X139427781Y-123236866D01*
X139445024Y-123249654D01*
X139460930Y-123264070D01*
X139475346Y-123279976D01*
X139488134Y-123297219D01*
X139499170Y-123315632D01*
X139508349Y-123335038D01*
X139515581Y-123355250D01*
X139520797Y-123376074D01*
X139523947Y-123397309D01*
X139525000Y-123418750D01*
X139525000Y-123856250D01*
X139523947Y-123877691D01*
X139520797Y-123898926D01*
X139515581Y-123919750D01*
X139508349Y-123939962D01*
X139499170Y-123959368D01*
X139488134Y-123977781D01*
X139475346Y-123995024D01*
X139460930Y-124010930D01*
X139445024Y-124025346D01*
X139427781Y-124038134D01*
X139409368Y-124049170D01*
X139389962Y-124058349D01*
X139369750Y-124065581D01*
X139348926Y-124070797D01*
X139327691Y-124073947D01*
X139306250Y-124075000D01*
X138793750Y-124075000D01*
X138772309Y-124073947D01*
X138751074Y-124070797D01*
X138730250Y-124065581D01*
X138710038Y-124058349D01*
X138690632Y-124049170D01*
X138672219Y-124038134D01*
X138654976Y-124025346D01*
X138639070Y-124010930D01*
X138624654Y-123995024D01*
X138611866Y-123977781D01*
X138600830Y-123959368D01*
X138591651Y-123939962D01*
X138584419Y-123919750D01*
X138579203Y-123898926D01*
X138576053Y-123877691D01*
X138575000Y-123856250D01*
X138575000Y-123418750D01*
X138576053Y-123397309D01*
X138579203Y-123376074D01*
X138584419Y-123355250D01*
X138591651Y-123335038D01*
X138600830Y-123315632D01*
X138611866Y-123297219D01*
X138624654Y-123279976D01*
X138639070Y-123264070D01*
X138654976Y-123249654D01*
X138672219Y-123236866D01*
X138690632Y-123225830D01*
X138710038Y-123216651D01*
X138730250Y-123209419D01*
X138751074Y-123204203D01*
X138772309Y-123201053D01*
X138793750Y-123200000D01*
X139306250Y-123200000D01*
X139327691Y-123201053D01*
X139327691Y-123201053D01*
G37*
D12*
X139050000Y-123637500D03*
D11*
G36*
X139327691Y-121626053D02*
G01*
X139348926Y-121629203D01*
X139369750Y-121634419D01*
X139389962Y-121641651D01*
X139409368Y-121650830D01*
X139427781Y-121661866D01*
X139445024Y-121674654D01*
X139460930Y-121689070D01*
X139475346Y-121704976D01*
X139488134Y-121722219D01*
X139499170Y-121740632D01*
X139508349Y-121760038D01*
X139515581Y-121780250D01*
X139520797Y-121801074D01*
X139523947Y-121822309D01*
X139525000Y-121843750D01*
X139525000Y-122281250D01*
X139523947Y-122302691D01*
X139520797Y-122323926D01*
X139515581Y-122344750D01*
X139508349Y-122364962D01*
X139499170Y-122384368D01*
X139488134Y-122402781D01*
X139475346Y-122420024D01*
X139460930Y-122435930D01*
X139445024Y-122450346D01*
X139427781Y-122463134D01*
X139409368Y-122474170D01*
X139389962Y-122483349D01*
X139369750Y-122490581D01*
X139348926Y-122495797D01*
X139327691Y-122498947D01*
X139306250Y-122500000D01*
X138793750Y-122500000D01*
X138772309Y-122498947D01*
X138751074Y-122495797D01*
X138730250Y-122490581D01*
X138710038Y-122483349D01*
X138690632Y-122474170D01*
X138672219Y-122463134D01*
X138654976Y-122450346D01*
X138639070Y-122435930D01*
X138624654Y-122420024D01*
X138611866Y-122402781D01*
X138600830Y-122384368D01*
X138591651Y-122364962D01*
X138584419Y-122344750D01*
X138579203Y-122323926D01*
X138576053Y-122302691D01*
X138575000Y-122281250D01*
X138575000Y-121843750D01*
X138576053Y-121822309D01*
X138579203Y-121801074D01*
X138584419Y-121780250D01*
X138591651Y-121760038D01*
X138600830Y-121740632D01*
X138611866Y-121722219D01*
X138624654Y-121704976D01*
X138639070Y-121689070D01*
X138654976Y-121674654D01*
X138672219Y-121661866D01*
X138690632Y-121650830D01*
X138710038Y-121641651D01*
X138730250Y-121634419D01*
X138751074Y-121629203D01*
X138772309Y-121626053D01*
X138793750Y-121625000D01*
X139306250Y-121625000D01*
X139327691Y-121626053D01*
X139327691Y-121626053D01*
G37*
D12*
X139050000Y-122062500D03*
D11*
G36*
X129277691Y-96186053D02*
G01*
X129298926Y-96189203D01*
X129319750Y-96194419D01*
X129339962Y-96201651D01*
X129359368Y-96210830D01*
X129377781Y-96221866D01*
X129395024Y-96234654D01*
X129410930Y-96249070D01*
X129425346Y-96264976D01*
X129438134Y-96282219D01*
X129449170Y-96300632D01*
X129458349Y-96320038D01*
X129465581Y-96340250D01*
X129470797Y-96361074D01*
X129473947Y-96382309D01*
X129475000Y-96403750D01*
X129475000Y-96841250D01*
X129473947Y-96862691D01*
X129470797Y-96883926D01*
X129465581Y-96904750D01*
X129458349Y-96924962D01*
X129449170Y-96944368D01*
X129438134Y-96962781D01*
X129425346Y-96980024D01*
X129410930Y-96995930D01*
X129395024Y-97010346D01*
X129377781Y-97023134D01*
X129359368Y-97034170D01*
X129339962Y-97043349D01*
X129319750Y-97050581D01*
X129298926Y-97055797D01*
X129277691Y-97058947D01*
X129256250Y-97060000D01*
X128743750Y-97060000D01*
X128722309Y-97058947D01*
X128701074Y-97055797D01*
X128680250Y-97050581D01*
X128660038Y-97043349D01*
X128640632Y-97034170D01*
X128622219Y-97023134D01*
X128604976Y-97010346D01*
X128589070Y-96995930D01*
X128574654Y-96980024D01*
X128561866Y-96962781D01*
X128550830Y-96944368D01*
X128541651Y-96924962D01*
X128534419Y-96904750D01*
X128529203Y-96883926D01*
X128526053Y-96862691D01*
X128525000Y-96841250D01*
X128525000Y-96403750D01*
X128526053Y-96382309D01*
X128529203Y-96361074D01*
X128534419Y-96340250D01*
X128541651Y-96320038D01*
X128550830Y-96300632D01*
X128561866Y-96282219D01*
X128574654Y-96264976D01*
X128589070Y-96249070D01*
X128604976Y-96234654D01*
X128622219Y-96221866D01*
X128640632Y-96210830D01*
X128660038Y-96201651D01*
X128680250Y-96194419D01*
X128701074Y-96189203D01*
X128722309Y-96186053D01*
X128743750Y-96185000D01*
X129256250Y-96185000D01*
X129277691Y-96186053D01*
X129277691Y-96186053D01*
G37*
D12*
X129000000Y-96622500D03*
D11*
G36*
X129277691Y-97761053D02*
G01*
X129298926Y-97764203D01*
X129319750Y-97769419D01*
X129339962Y-97776651D01*
X129359368Y-97785830D01*
X129377781Y-97796866D01*
X129395024Y-97809654D01*
X129410930Y-97824070D01*
X129425346Y-97839976D01*
X129438134Y-97857219D01*
X129449170Y-97875632D01*
X129458349Y-97895038D01*
X129465581Y-97915250D01*
X129470797Y-97936074D01*
X129473947Y-97957309D01*
X129475000Y-97978750D01*
X129475000Y-98416250D01*
X129473947Y-98437691D01*
X129470797Y-98458926D01*
X129465581Y-98479750D01*
X129458349Y-98499962D01*
X129449170Y-98519368D01*
X129438134Y-98537781D01*
X129425346Y-98555024D01*
X129410930Y-98570930D01*
X129395024Y-98585346D01*
X129377781Y-98598134D01*
X129359368Y-98609170D01*
X129339962Y-98618349D01*
X129319750Y-98625581D01*
X129298926Y-98630797D01*
X129277691Y-98633947D01*
X129256250Y-98635000D01*
X128743750Y-98635000D01*
X128722309Y-98633947D01*
X128701074Y-98630797D01*
X128680250Y-98625581D01*
X128660038Y-98618349D01*
X128640632Y-98609170D01*
X128622219Y-98598134D01*
X128604976Y-98585346D01*
X128589070Y-98570930D01*
X128574654Y-98555024D01*
X128561866Y-98537781D01*
X128550830Y-98519368D01*
X128541651Y-98499962D01*
X128534419Y-98479750D01*
X128529203Y-98458926D01*
X128526053Y-98437691D01*
X128525000Y-98416250D01*
X128525000Y-97978750D01*
X128526053Y-97957309D01*
X128529203Y-97936074D01*
X128534419Y-97915250D01*
X128541651Y-97895038D01*
X128550830Y-97875632D01*
X128561866Y-97857219D01*
X128574654Y-97839976D01*
X128589070Y-97824070D01*
X128604976Y-97809654D01*
X128622219Y-97796866D01*
X128640632Y-97785830D01*
X128660038Y-97776651D01*
X128680250Y-97769419D01*
X128701074Y-97764203D01*
X128722309Y-97761053D01*
X128743750Y-97760000D01*
X129256250Y-97760000D01*
X129277691Y-97761053D01*
X129277691Y-97761053D01*
G37*
D12*
X129000000Y-98197500D03*
D11*
G36*
X153277691Y-113101053D02*
G01*
X153298926Y-113104203D01*
X153319750Y-113109419D01*
X153339962Y-113116651D01*
X153359368Y-113125830D01*
X153377781Y-113136866D01*
X153395024Y-113149654D01*
X153410930Y-113164070D01*
X153425346Y-113179976D01*
X153438134Y-113197219D01*
X153449170Y-113215632D01*
X153458349Y-113235038D01*
X153465581Y-113255250D01*
X153470797Y-113276074D01*
X153473947Y-113297309D01*
X153475000Y-113318750D01*
X153475000Y-113756250D01*
X153473947Y-113777691D01*
X153470797Y-113798926D01*
X153465581Y-113819750D01*
X153458349Y-113839962D01*
X153449170Y-113859368D01*
X153438134Y-113877781D01*
X153425346Y-113895024D01*
X153410930Y-113910930D01*
X153395024Y-113925346D01*
X153377781Y-113938134D01*
X153359368Y-113949170D01*
X153339962Y-113958349D01*
X153319750Y-113965581D01*
X153298926Y-113970797D01*
X153277691Y-113973947D01*
X153256250Y-113975000D01*
X152743750Y-113975000D01*
X152722309Y-113973947D01*
X152701074Y-113970797D01*
X152680250Y-113965581D01*
X152660038Y-113958349D01*
X152640632Y-113949170D01*
X152622219Y-113938134D01*
X152604976Y-113925346D01*
X152589070Y-113910930D01*
X152574654Y-113895024D01*
X152561866Y-113877781D01*
X152550830Y-113859368D01*
X152541651Y-113839962D01*
X152534419Y-113819750D01*
X152529203Y-113798926D01*
X152526053Y-113777691D01*
X152525000Y-113756250D01*
X152525000Y-113318750D01*
X152526053Y-113297309D01*
X152529203Y-113276074D01*
X152534419Y-113255250D01*
X152541651Y-113235038D01*
X152550830Y-113215632D01*
X152561866Y-113197219D01*
X152574654Y-113179976D01*
X152589070Y-113164070D01*
X152604976Y-113149654D01*
X152622219Y-113136866D01*
X152640632Y-113125830D01*
X152660038Y-113116651D01*
X152680250Y-113109419D01*
X152701074Y-113104203D01*
X152722309Y-113101053D01*
X152743750Y-113100000D01*
X153256250Y-113100000D01*
X153277691Y-113101053D01*
X153277691Y-113101053D01*
G37*
D12*
X153000000Y-113537500D03*
D11*
G36*
X153277691Y-111526053D02*
G01*
X153298926Y-111529203D01*
X153319750Y-111534419D01*
X153339962Y-111541651D01*
X153359368Y-111550830D01*
X153377781Y-111561866D01*
X153395024Y-111574654D01*
X153410930Y-111589070D01*
X153425346Y-111604976D01*
X153438134Y-111622219D01*
X153449170Y-111640632D01*
X153458349Y-111660038D01*
X153465581Y-111680250D01*
X153470797Y-111701074D01*
X153473947Y-111722309D01*
X153475000Y-111743750D01*
X153475000Y-112181250D01*
X153473947Y-112202691D01*
X153470797Y-112223926D01*
X153465581Y-112244750D01*
X153458349Y-112264962D01*
X153449170Y-112284368D01*
X153438134Y-112302781D01*
X153425346Y-112320024D01*
X153410930Y-112335930D01*
X153395024Y-112350346D01*
X153377781Y-112363134D01*
X153359368Y-112374170D01*
X153339962Y-112383349D01*
X153319750Y-112390581D01*
X153298926Y-112395797D01*
X153277691Y-112398947D01*
X153256250Y-112400000D01*
X152743750Y-112400000D01*
X152722309Y-112398947D01*
X152701074Y-112395797D01*
X152680250Y-112390581D01*
X152660038Y-112383349D01*
X152640632Y-112374170D01*
X152622219Y-112363134D01*
X152604976Y-112350346D01*
X152589070Y-112335930D01*
X152574654Y-112320024D01*
X152561866Y-112302781D01*
X152550830Y-112284368D01*
X152541651Y-112264962D01*
X152534419Y-112244750D01*
X152529203Y-112223926D01*
X152526053Y-112202691D01*
X152525000Y-112181250D01*
X152525000Y-111743750D01*
X152526053Y-111722309D01*
X152529203Y-111701074D01*
X152534419Y-111680250D01*
X152541651Y-111660038D01*
X152550830Y-111640632D01*
X152561866Y-111622219D01*
X152574654Y-111604976D01*
X152589070Y-111589070D01*
X152604976Y-111574654D01*
X152622219Y-111561866D01*
X152640632Y-111550830D01*
X152660038Y-111541651D01*
X152680250Y-111534419D01*
X152701074Y-111529203D01*
X152722309Y-111526053D01*
X152743750Y-111525000D01*
X153256250Y-111525000D01*
X153277691Y-111526053D01*
X153277691Y-111526053D01*
G37*
D12*
X153000000Y-111962500D03*
D11*
G36*
X158677691Y-108601053D02*
G01*
X158698926Y-108604203D01*
X158719750Y-108609419D01*
X158739962Y-108616651D01*
X158759368Y-108625830D01*
X158777781Y-108636866D01*
X158795024Y-108649654D01*
X158810930Y-108664070D01*
X158825346Y-108679976D01*
X158838134Y-108697219D01*
X158849170Y-108715632D01*
X158858349Y-108735038D01*
X158865581Y-108755250D01*
X158870797Y-108776074D01*
X158873947Y-108797309D01*
X158875000Y-108818750D01*
X158875000Y-109256250D01*
X158873947Y-109277691D01*
X158870797Y-109298926D01*
X158865581Y-109319750D01*
X158858349Y-109339962D01*
X158849170Y-109359368D01*
X158838134Y-109377781D01*
X158825346Y-109395024D01*
X158810930Y-109410930D01*
X158795024Y-109425346D01*
X158777781Y-109438134D01*
X158759368Y-109449170D01*
X158739962Y-109458349D01*
X158719750Y-109465581D01*
X158698926Y-109470797D01*
X158677691Y-109473947D01*
X158656250Y-109475000D01*
X158143750Y-109475000D01*
X158122309Y-109473947D01*
X158101074Y-109470797D01*
X158080250Y-109465581D01*
X158060038Y-109458349D01*
X158040632Y-109449170D01*
X158022219Y-109438134D01*
X158004976Y-109425346D01*
X157989070Y-109410930D01*
X157974654Y-109395024D01*
X157961866Y-109377781D01*
X157950830Y-109359368D01*
X157941651Y-109339962D01*
X157934419Y-109319750D01*
X157929203Y-109298926D01*
X157926053Y-109277691D01*
X157925000Y-109256250D01*
X157925000Y-108818750D01*
X157926053Y-108797309D01*
X157929203Y-108776074D01*
X157934419Y-108755250D01*
X157941651Y-108735038D01*
X157950830Y-108715632D01*
X157961866Y-108697219D01*
X157974654Y-108679976D01*
X157989070Y-108664070D01*
X158004976Y-108649654D01*
X158022219Y-108636866D01*
X158040632Y-108625830D01*
X158060038Y-108616651D01*
X158080250Y-108609419D01*
X158101074Y-108604203D01*
X158122309Y-108601053D01*
X158143750Y-108600000D01*
X158656250Y-108600000D01*
X158677691Y-108601053D01*
X158677691Y-108601053D01*
G37*
D12*
X158400000Y-109037500D03*
D11*
G36*
X158677691Y-107026053D02*
G01*
X158698926Y-107029203D01*
X158719750Y-107034419D01*
X158739962Y-107041651D01*
X158759368Y-107050830D01*
X158777781Y-107061866D01*
X158795024Y-107074654D01*
X158810930Y-107089070D01*
X158825346Y-107104976D01*
X158838134Y-107122219D01*
X158849170Y-107140632D01*
X158858349Y-107160038D01*
X158865581Y-107180250D01*
X158870797Y-107201074D01*
X158873947Y-107222309D01*
X158875000Y-107243750D01*
X158875000Y-107681250D01*
X158873947Y-107702691D01*
X158870797Y-107723926D01*
X158865581Y-107744750D01*
X158858349Y-107764962D01*
X158849170Y-107784368D01*
X158838134Y-107802781D01*
X158825346Y-107820024D01*
X158810930Y-107835930D01*
X158795024Y-107850346D01*
X158777781Y-107863134D01*
X158759368Y-107874170D01*
X158739962Y-107883349D01*
X158719750Y-107890581D01*
X158698926Y-107895797D01*
X158677691Y-107898947D01*
X158656250Y-107900000D01*
X158143750Y-107900000D01*
X158122309Y-107898947D01*
X158101074Y-107895797D01*
X158080250Y-107890581D01*
X158060038Y-107883349D01*
X158040632Y-107874170D01*
X158022219Y-107863134D01*
X158004976Y-107850346D01*
X157989070Y-107835930D01*
X157974654Y-107820024D01*
X157961866Y-107802781D01*
X157950830Y-107784368D01*
X157941651Y-107764962D01*
X157934419Y-107744750D01*
X157929203Y-107723926D01*
X157926053Y-107702691D01*
X157925000Y-107681250D01*
X157925000Y-107243750D01*
X157926053Y-107222309D01*
X157929203Y-107201074D01*
X157934419Y-107180250D01*
X157941651Y-107160038D01*
X157950830Y-107140632D01*
X157961866Y-107122219D01*
X157974654Y-107104976D01*
X157989070Y-107089070D01*
X158004976Y-107074654D01*
X158022219Y-107061866D01*
X158040632Y-107050830D01*
X158060038Y-107041651D01*
X158080250Y-107034419D01*
X158101074Y-107029203D01*
X158122309Y-107026053D01*
X158143750Y-107025000D01*
X158656250Y-107025000D01*
X158677691Y-107026053D01*
X158677691Y-107026053D01*
G37*
D12*
X158400000Y-107462500D03*
D11*
G36*
X158127691Y-121626053D02*
G01*
X158148926Y-121629203D01*
X158169750Y-121634419D01*
X158189962Y-121641651D01*
X158209368Y-121650830D01*
X158227781Y-121661866D01*
X158245024Y-121674654D01*
X158260930Y-121689070D01*
X158275346Y-121704976D01*
X158288134Y-121722219D01*
X158299170Y-121740632D01*
X158308349Y-121760038D01*
X158315581Y-121780250D01*
X158320797Y-121801074D01*
X158323947Y-121822309D01*
X158325000Y-121843750D01*
X158325000Y-122281250D01*
X158323947Y-122302691D01*
X158320797Y-122323926D01*
X158315581Y-122344750D01*
X158308349Y-122364962D01*
X158299170Y-122384368D01*
X158288134Y-122402781D01*
X158275346Y-122420024D01*
X158260930Y-122435930D01*
X158245024Y-122450346D01*
X158227781Y-122463134D01*
X158209368Y-122474170D01*
X158189962Y-122483349D01*
X158169750Y-122490581D01*
X158148926Y-122495797D01*
X158127691Y-122498947D01*
X158106250Y-122500000D01*
X157593750Y-122500000D01*
X157572309Y-122498947D01*
X157551074Y-122495797D01*
X157530250Y-122490581D01*
X157510038Y-122483349D01*
X157490632Y-122474170D01*
X157472219Y-122463134D01*
X157454976Y-122450346D01*
X157439070Y-122435930D01*
X157424654Y-122420024D01*
X157411866Y-122402781D01*
X157400830Y-122384368D01*
X157391651Y-122364962D01*
X157384419Y-122344750D01*
X157379203Y-122323926D01*
X157376053Y-122302691D01*
X157375000Y-122281250D01*
X157375000Y-121843750D01*
X157376053Y-121822309D01*
X157379203Y-121801074D01*
X157384419Y-121780250D01*
X157391651Y-121760038D01*
X157400830Y-121740632D01*
X157411866Y-121722219D01*
X157424654Y-121704976D01*
X157439070Y-121689070D01*
X157454976Y-121674654D01*
X157472219Y-121661866D01*
X157490632Y-121650830D01*
X157510038Y-121641651D01*
X157530250Y-121634419D01*
X157551074Y-121629203D01*
X157572309Y-121626053D01*
X157593750Y-121625000D01*
X158106250Y-121625000D01*
X158127691Y-121626053D01*
X158127691Y-121626053D01*
G37*
D12*
X157850000Y-122062500D03*
D11*
G36*
X158127691Y-123201053D02*
G01*
X158148926Y-123204203D01*
X158169750Y-123209419D01*
X158189962Y-123216651D01*
X158209368Y-123225830D01*
X158227781Y-123236866D01*
X158245024Y-123249654D01*
X158260930Y-123264070D01*
X158275346Y-123279976D01*
X158288134Y-123297219D01*
X158299170Y-123315632D01*
X158308349Y-123335038D01*
X158315581Y-123355250D01*
X158320797Y-123376074D01*
X158323947Y-123397309D01*
X158325000Y-123418750D01*
X158325000Y-123856250D01*
X158323947Y-123877691D01*
X158320797Y-123898926D01*
X158315581Y-123919750D01*
X158308349Y-123939962D01*
X158299170Y-123959368D01*
X158288134Y-123977781D01*
X158275346Y-123995024D01*
X158260930Y-124010930D01*
X158245024Y-124025346D01*
X158227781Y-124038134D01*
X158209368Y-124049170D01*
X158189962Y-124058349D01*
X158169750Y-124065581D01*
X158148926Y-124070797D01*
X158127691Y-124073947D01*
X158106250Y-124075000D01*
X157593750Y-124075000D01*
X157572309Y-124073947D01*
X157551074Y-124070797D01*
X157530250Y-124065581D01*
X157510038Y-124058349D01*
X157490632Y-124049170D01*
X157472219Y-124038134D01*
X157454976Y-124025346D01*
X157439070Y-124010930D01*
X157424654Y-123995024D01*
X157411866Y-123977781D01*
X157400830Y-123959368D01*
X157391651Y-123939962D01*
X157384419Y-123919750D01*
X157379203Y-123898926D01*
X157376053Y-123877691D01*
X157375000Y-123856250D01*
X157375000Y-123418750D01*
X157376053Y-123397309D01*
X157379203Y-123376074D01*
X157384419Y-123355250D01*
X157391651Y-123335038D01*
X157400830Y-123315632D01*
X157411866Y-123297219D01*
X157424654Y-123279976D01*
X157439070Y-123264070D01*
X157454976Y-123249654D01*
X157472219Y-123236866D01*
X157490632Y-123225830D01*
X157510038Y-123216651D01*
X157530250Y-123209419D01*
X157551074Y-123204203D01*
X157572309Y-123201053D01*
X157593750Y-123200000D01*
X158106250Y-123200000D01*
X158127691Y-123201053D01*
X158127691Y-123201053D01*
G37*
D12*
X157850000Y-123637500D03*
D11*
G36*
X152277691Y-118351053D02*
G01*
X152298926Y-118354203D01*
X152319750Y-118359419D01*
X152339962Y-118366651D01*
X152359368Y-118375830D01*
X152377781Y-118386866D01*
X152395024Y-118399654D01*
X152410930Y-118414070D01*
X152425346Y-118429976D01*
X152438134Y-118447219D01*
X152449170Y-118465632D01*
X152458349Y-118485038D01*
X152465581Y-118505250D01*
X152470797Y-118526074D01*
X152473947Y-118547309D01*
X152475000Y-118568750D01*
X152475000Y-119006250D01*
X152473947Y-119027691D01*
X152470797Y-119048926D01*
X152465581Y-119069750D01*
X152458349Y-119089962D01*
X152449170Y-119109368D01*
X152438134Y-119127781D01*
X152425346Y-119145024D01*
X152410930Y-119160930D01*
X152395024Y-119175346D01*
X152377781Y-119188134D01*
X152359368Y-119199170D01*
X152339962Y-119208349D01*
X152319750Y-119215581D01*
X152298926Y-119220797D01*
X152277691Y-119223947D01*
X152256250Y-119225000D01*
X151743750Y-119225000D01*
X151722309Y-119223947D01*
X151701074Y-119220797D01*
X151680250Y-119215581D01*
X151660038Y-119208349D01*
X151640632Y-119199170D01*
X151622219Y-119188134D01*
X151604976Y-119175346D01*
X151589070Y-119160930D01*
X151574654Y-119145024D01*
X151561866Y-119127781D01*
X151550830Y-119109368D01*
X151541651Y-119089962D01*
X151534419Y-119069750D01*
X151529203Y-119048926D01*
X151526053Y-119027691D01*
X151525000Y-119006250D01*
X151525000Y-118568750D01*
X151526053Y-118547309D01*
X151529203Y-118526074D01*
X151534419Y-118505250D01*
X151541651Y-118485038D01*
X151550830Y-118465632D01*
X151561866Y-118447219D01*
X151574654Y-118429976D01*
X151589070Y-118414070D01*
X151604976Y-118399654D01*
X151622219Y-118386866D01*
X151640632Y-118375830D01*
X151660038Y-118366651D01*
X151680250Y-118359419D01*
X151701074Y-118354203D01*
X151722309Y-118351053D01*
X151743750Y-118350000D01*
X152256250Y-118350000D01*
X152277691Y-118351053D01*
X152277691Y-118351053D01*
G37*
D12*
X152000000Y-118787500D03*
D11*
G36*
X152277691Y-116776053D02*
G01*
X152298926Y-116779203D01*
X152319750Y-116784419D01*
X152339962Y-116791651D01*
X152359368Y-116800830D01*
X152377781Y-116811866D01*
X152395024Y-116824654D01*
X152410930Y-116839070D01*
X152425346Y-116854976D01*
X152438134Y-116872219D01*
X152449170Y-116890632D01*
X152458349Y-116910038D01*
X152465581Y-116930250D01*
X152470797Y-116951074D01*
X152473947Y-116972309D01*
X152475000Y-116993750D01*
X152475000Y-117431250D01*
X152473947Y-117452691D01*
X152470797Y-117473926D01*
X152465581Y-117494750D01*
X152458349Y-117514962D01*
X152449170Y-117534368D01*
X152438134Y-117552781D01*
X152425346Y-117570024D01*
X152410930Y-117585930D01*
X152395024Y-117600346D01*
X152377781Y-117613134D01*
X152359368Y-117624170D01*
X152339962Y-117633349D01*
X152319750Y-117640581D01*
X152298926Y-117645797D01*
X152277691Y-117648947D01*
X152256250Y-117650000D01*
X151743750Y-117650000D01*
X151722309Y-117648947D01*
X151701074Y-117645797D01*
X151680250Y-117640581D01*
X151660038Y-117633349D01*
X151640632Y-117624170D01*
X151622219Y-117613134D01*
X151604976Y-117600346D01*
X151589070Y-117585930D01*
X151574654Y-117570024D01*
X151561866Y-117552781D01*
X151550830Y-117534368D01*
X151541651Y-117514962D01*
X151534419Y-117494750D01*
X151529203Y-117473926D01*
X151526053Y-117452691D01*
X151525000Y-117431250D01*
X151525000Y-116993750D01*
X151526053Y-116972309D01*
X151529203Y-116951074D01*
X151534419Y-116930250D01*
X151541651Y-116910038D01*
X151550830Y-116890632D01*
X151561866Y-116872219D01*
X151574654Y-116854976D01*
X151589070Y-116839070D01*
X151604976Y-116824654D01*
X151622219Y-116811866D01*
X151640632Y-116800830D01*
X151660038Y-116791651D01*
X151680250Y-116784419D01*
X151701074Y-116779203D01*
X151722309Y-116776053D01*
X151743750Y-116775000D01*
X152256250Y-116775000D01*
X152277691Y-116776053D01*
X152277691Y-116776053D01*
G37*
D12*
X152000000Y-117212500D03*
D11*
G36*
X156127691Y-121626053D02*
G01*
X156148926Y-121629203D01*
X156169750Y-121634419D01*
X156189962Y-121641651D01*
X156209368Y-121650830D01*
X156227781Y-121661866D01*
X156245024Y-121674654D01*
X156260930Y-121689070D01*
X156275346Y-121704976D01*
X156288134Y-121722219D01*
X156299170Y-121740632D01*
X156308349Y-121760038D01*
X156315581Y-121780250D01*
X156320797Y-121801074D01*
X156323947Y-121822309D01*
X156325000Y-121843750D01*
X156325000Y-122281250D01*
X156323947Y-122302691D01*
X156320797Y-122323926D01*
X156315581Y-122344750D01*
X156308349Y-122364962D01*
X156299170Y-122384368D01*
X156288134Y-122402781D01*
X156275346Y-122420024D01*
X156260930Y-122435930D01*
X156245024Y-122450346D01*
X156227781Y-122463134D01*
X156209368Y-122474170D01*
X156189962Y-122483349D01*
X156169750Y-122490581D01*
X156148926Y-122495797D01*
X156127691Y-122498947D01*
X156106250Y-122500000D01*
X155593750Y-122500000D01*
X155572309Y-122498947D01*
X155551074Y-122495797D01*
X155530250Y-122490581D01*
X155510038Y-122483349D01*
X155490632Y-122474170D01*
X155472219Y-122463134D01*
X155454976Y-122450346D01*
X155439070Y-122435930D01*
X155424654Y-122420024D01*
X155411866Y-122402781D01*
X155400830Y-122384368D01*
X155391651Y-122364962D01*
X155384419Y-122344750D01*
X155379203Y-122323926D01*
X155376053Y-122302691D01*
X155375000Y-122281250D01*
X155375000Y-121843750D01*
X155376053Y-121822309D01*
X155379203Y-121801074D01*
X155384419Y-121780250D01*
X155391651Y-121760038D01*
X155400830Y-121740632D01*
X155411866Y-121722219D01*
X155424654Y-121704976D01*
X155439070Y-121689070D01*
X155454976Y-121674654D01*
X155472219Y-121661866D01*
X155490632Y-121650830D01*
X155510038Y-121641651D01*
X155530250Y-121634419D01*
X155551074Y-121629203D01*
X155572309Y-121626053D01*
X155593750Y-121625000D01*
X156106250Y-121625000D01*
X156127691Y-121626053D01*
X156127691Y-121626053D01*
G37*
D12*
X155850000Y-122062500D03*
D11*
G36*
X156127691Y-123201053D02*
G01*
X156148926Y-123204203D01*
X156169750Y-123209419D01*
X156189962Y-123216651D01*
X156209368Y-123225830D01*
X156227781Y-123236866D01*
X156245024Y-123249654D01*
X156260930Y-123264070D01*
X156275346Y-123279976D01*
X156288134Y-123297219D01*
X156299170Y-123315632D01*
X156308349Y-123335038D01*
X156315581Y-123355250D01*
X156320797Y-123376074D01*
X156323947Y-123397309D01*
X156325000Y-123418750D01*
X156325000Y-123856250D01*
X156323947Y-123877691D01*
X156320797Y-123898926D01*
X156315581Y-123919750D01*
X156308349Y-123939962D01*
X156299170Y-123959368D01*
X156288134Y-123977781D01*
X156275346Y-123995024D01*
X156260930Y-124010930D01*
X156245024Y-124025346D01*
X156227781Y-124038134D01*
X156209368Y-124049170D01*
X156189962Y-124058349D01*
X156169750Y-124065581D01*
X156148926Y-124070797D01*
X156127691Y-124073947D01*
X156106250Y-124075000D01*
X155593750Y-124075000D01*
X155572309Y-124073947D01*
X155551074Y-124070797D01*
X155530250Y-124065581D01*
X155510038Y-124058349D01*
X155490632Y-124049170D01*
X155472219Y-124038134D01*
X155454976Y-124025346D01*
X155439070Y-124010930D01*
X155424654Y-123995024D01*
X155411866Y-123977781D01*
X155400830Y-123959368D01*
X155391651Y-123939962D01*
X155384419Y-123919750D01*
X155379203Y-123898926D01*
X155376053Y-123877691D01*
X155375000Y-123856250D01*
X155375000Y-123418750D01*
X155376053Y-123397309D01*
X155379203Y-123376074D01*
X155384419Y-123355250D01*
X155391651Y-123335038D01*
X155400830Y-123315632D01*
X155411866Y-123297219D01*
X155424654Y-123279976D01*
X155439070Y-123264070D01*
X155454976Y-123249654D01*
X155472219Y-123236866D01*
X155490632Y-123225830D01*
X155510038Y-123216651D01*
X155530250Y-123209419D01*
X155551074Y-123204203D01*
X155572309Y-123201053D01*
X155593750Y-123200000D01*
X156106250Y-123200000D01*
X156127691Y-123201053D01*
X156127691Y-123201053D01*
G37*
D12*
X155850000Y-123637500D03*
D11*
G36*
X142677691Y-108776053D02*
G01*
X142698926Y-108779203D01*
X142719750Y-108784419D01*
X142739962Y-108791651D01*
X142759368Y-108800830D01*
X142777781Y-108811866D01*
X142795024Y-108824654D01*
X142810930Y-108839070D01*
X142825346Y-108854976D01*
X142838134Y-108872219D01*
X142849170Y-108890632D01*
X142858349Y-108910038D01*
X142865581Y-108930250D01*
X142870797Y-108951074D01*
X142873947Y-108972309D01*
X142875000Y-108993750D01*
X142875000Y-109431250D01*
X142873947Y-109452691D01*
X142870797Y-109473926D01*
X142865581Y-109494750D01*
X142858349Y-109514962D01*
X142849170Y-109534368D01*
X142838134Y-109552781D01*
X142825346Y-109570024D01*
X142810930Y-109585930D01*
X142795024Y-109600346D01*
X142777781Y-109613134D01*
X142759368Y-109624170D01*
X142739962Y-109633349D01*
X142719750Y-109640581D01*
X142698926Y-109645797D01*
X142677691Y-109648947D01*
X142656250Y-109650000D01*
X142143750Y-109650000D01*
X142122309Y-109648947D01*
X142101074Y-109645797D01*
X142080250Y-109640581D01*
X142060038Y-109633349D01*
X142040632Y-109624170D01*
X142022219Y-109613134D01*
X142004976Y-109600346D01*
X141989070Y-109585930D01*
X141974654Y-109570024D01*
X141961866Y-109552781D01*
X141950830Y-109534368D01*
X141941651Y-109514962D01*
X141934419Y-109494750D01*
X141929203Y-109473926D01*
X141926053Y-109452691D01*
X141925000Y-109431250D01*
X141925000Y-108993750D01*
X141926053Y-108972309D01*
X141929203Y-108951074D01*
X141934419Y-108930250D01*
X141941651Y-108910038D01*
X141950830Y-108890632D01*
X141961866Y-108872219D01*
X141974654Y-108854976D01*
X141989070Y-108839070D01*
X142004976Y-108824654D01*
X142022219Y-108811866D01*
X142040632Y-108800830D01*
X142060038Y-108791651D01*
X142080250Y-108784419D01*
X142101074Y-108779203D01*
X142122309Y-108776053D01*
X142143750Y-108775000D01*
X142656250Y-108775000D01*
X142677691Y-108776053D01*
X142677691Y-108776053D01*
G37*
D12*
X142400000Y-109212500D03*
D11*
G36*
X142677691Y-110351053D02*
G01*
X142698926Y-110354203D01*
X142719750Y-110359419D01*
X142739962Y-110366651D01*
X142759368Y-110375830D01*
X142777781Y-110386866D01*
X142795024Y-110399654D01*
X142810930Y-110414070D01*
X142825346Y-110429976D01*
X142838134Y-110447219D01*
X142849170Y-110465632D01*
X142858349Y-110485038D01*
X142865581Y-110505250D01*
X142870797Y-110526074D01*
X142873947Y-110547309D01*
X142875000Y-110568750D01*
X142875000Y-111006250D01*
X142873947Y-111027691D01*
X142870797Y-111048926D01*
X142865581Y-111069750D01*
X142858349Y-111089962D01*
X142849170Y-111109368D01*
X142838134Y-111127781D01*
X142825346Y-111145024D01*
X142810930Y-111160930D01*
X142795024Y-111175346D01*
X142777781Y-111188134D01*
X142759368Y-111199170D01*
X142739962Y-111208349D01*
X142719750Y-111215581D01*
X142698926Y-111220797D01*
X142677691Y-111223947D01*
X142656250Y-111225000D01*
X142143750Y-111225000D01*
X142122309Y-111223947D01*
X142101074Y-111220797D01*
X142080250Y-111215581D01*
X142060038Y-111208349D01*
X142040632Y-111199170D01*
X142022219Y-111188134D01*
X142004976Y-111175346D01*
X141989070Y-111160930D01*
X141974654Y-111145024D01*
X141961866Y-111127781D01*
X141950830Y-111109368D01*
X141941651Y-111089962D01*
X141934419Y-111069750D01*
X141929203Y-111048926D01*
X141926053Y-111027691D01*
X141925000Y-111006250D01*
X141925000Y-110568750D01*
X141926053Y-110547309D01*
X141929203Y-110526074D01*
X141934419Y-110505250D01*
X141941651Y-110485038D01*
X141950830Y-110465632D01*
X141961866Y-110447219D01*
X141974654Y-110429976D01*
X141989070Y-110414070D01*
X142004976Y-110399654D01*
X142022219Y-110386866D01*
X142040632Y-110375830D01*
X142060038Y-110366651D01*
X142080250Y-110359419D01*
X142101074Y-110354203D01*
X142122309Y-110351053D01*
X142143750Y-110350000D01*
X142656250Y-110350000D01*
X142677691Y-110351053D01*
X142677691Y-110351053D01*
G37*
D12*
X142400000Y-110787500D03*
D11*
G36*
X137327691Y-123188553D02*
G01*
X137348926Y-123191703D01*
X137369750Y-123196919D01*
X137389962Y-123204151D01*
X137409368Y-123213330D01*
X137427781Y-123224366D01*
X137445024Y-123237154D01*
X137460930Y-123251570D01*
X137475346Y-123267476D01*
X137488134Y-123284719D01*
X137499170Y-123303132D01*
X137508349Y-123322538D01*
X137515581Y-123342750D01*
X137520797Y-123363574D01*
X137523947Y-123384809D01*
X137525000Y-123406250D01*
X137525000Y-123843750D01*
X137523947Y-123865191D01*
X137520797Y-123886426D01*
X137515581Y-123907250D01*
X137508349Y-123927462D01*
X137499170Y-123946868D01*
X137488134Y-123965281D01*
X137475346Y-123982524D01*
X137460930Y-123998430D01*
X137445024Y-124012846D01*
X137427781Y-124025634D01*
X137409368Y-124036670D01*
X137389962Y-124045849D01*
X137369750Y-124053081D01*
X137348926Y-124058297D01*
X137327691Y-124061447D01*
X137306250Y-124062500D01*
X136793750Y-124062500D01*
X136772309Y-124061447D01*
X136751074Y-124058297D01*
X136730250Y-124053081D01*
X136710038Y-124045849D01*
X136690632Y-124036670D01*
X136672219Y-124025634D01*
X136654976Y-124012846D01*
X136639070Y-123998430D01*
X136624654Y-123982524D01*
X136611866Y-123965281D01*
X136600830Y-123946868D01*
X136591651Y-123927462D01*
X136584419Y-123907250D01*
X136579203Y-123886426D01*
X136576053Y-123865191D01*
X136575000Y-123843750D01*
X136575000Y-123406250D01*
X136576053Y-123384809D01*
X136579203Y-123363574D01*
X136584419Y-123342750D01*
X136591651Y-123322538D01*
X136600830Y-123303132D01*
X136611866Y-123284719D01*
X136624654Y-123267476D01*
X136639070Y-123251570D01*
X136654976Y-123237154D01*
X136672219Y-123224366D01*
X136690632Y-123213330D01*
X136710038Y-123204151D01*
X136730250Y-123196919D01*
X136751074Y-123191703D01*
X136772309Y-123188553D01*
X136793750Y-123187500D01*
X137306250Y-123187500D01*
X137327691Y-123188553D01*
X137327691Y-123188553D01*
G37*
D12*
X137050000Y-123625000D03*
D11*
G36*
X137327691Y-121613553D02*
G01*
X137348926Y-121616703D01*
X137369750Y-121621919D01*
X137389962Y-121629151D01*
X137409368Y-121638330D01*
X137427781Y-121649366D01*
X137445024Y-121662154D01*
X137460930Y-121676570D01*
X137475346Y-121692476D01*
X137488134Y-121709719D01*
X137499170Y-121728132D01*
X137508349Y-121747538D01*
X137515581Y-121767750D01*
X137520797Y-121788574D01*
X137523947Y-121809809D01*
X137525000Y-121831250D01*
X137525000Y-122268750D01*
X137523947Y-122290191D01*
X137520797Y-122311426D01*
X137515581Y-122332250D01*
X137508349Y-122352462D01*
X137499170Y-122371868D01*
X137488134Y-122390281D01*
X137475346Y-122407524D01*
X137460930Y-122423430D01*
X137445024Y-122437846D01*
X137427781Y-122450634D01*
X137409368Y-122461670D01*
X137389962Y-122470849D01*
X137369750Y-122478081D01*
X137348926Y-122483297D01*
X137327691Y-122486447D01*
X137306250Y-122487500D01*
X136793750Y-122487500D01*
X136772309Y-122486447D01*
X136751074Y-122483297D01*
X136730250Y-122478081D01*
X136710038Y-122470849D01*
X136690632Y-122461670D01*
X136672219Y-122450634D01*
X136654976Y-122437846D01*
X136639070Y-122423430D01*
X136624654Y-122407524D01*
X136611866Y-122390281D01*
X136600830Y-122371868D01*
X136591651Y-122352462D01*
X136584419Y-122332250D01*
X136579203Y-122311426D01*
X136576053Y-122290191D01*
X136575000Y-122268750D01*
X136575000Y-121831250D01*
X136576053Y-121809809D01*
X136579203Y-121788574D01*
X136584419Y-121767750D01*
X136591651Y-121747538D01*
X136600830Y-121728132D01*
X136611866Y-121709719D01*
X136624654Y-121692476D01*
X136639070Y-121676570D01*
X136654976Y-121662154D01*
X136672219Y-121649366D01*
X136690632Y-121638330D01*
X136710038Y-121629151D01*
X136730250Y-121621919D01*
X136751074Y-121616703D01*
X136772309Y-121613553D01*
X136793750Y-121612500D01*
X137306250Y-121612500D01*
X137327691Y-121613553D01*
X137327691Y-121613553D01*
G37*
D12*
X137050000Y-122050000D03*
D19*
X135500000Y-118250000D03*
X138000000Y-120000000D03*
X130500000Y-114000000D03*
X149750000Y-114750000D03*
X149750000Y-120162490D03*
X158750000Y-123750000D03*
X152500000Y-124750000D03*
X152750000Y-108500000D03*
X153000000Y-110750000D03*
X139600000Y-109200000D03*
X139600000Y-113200000D03*
X144500000Y-120250000D03*
X145250000Y-118750000D03*
X145470306Y-116832457D03*
X146024999Y-120533001D03*
X145850000Y-123787500D03*
X151750000Y-115000000D03*
X150750000Y-117000000D03*
X150750000Y-124449990D03*
X146600000Y-113200000D03*
X148762500Y-111962500D03*
X150500000Y-121000000D03*
X147500000Y-120750000D03*
X146200000Y-115200000D03*
X143250000Y-120500000D03*
X142840000Y-124840000D03*
X143524990Y-116973909D03*
X134750000Y-95500000D03*
X153250000Y-119250000D03*
X148400000Y-120200000D03*
X141000000Y-109200000D03*
X141487733Y-116375021D03*
D20*
X148014999Y-115919999D02*
X147750000Y-116184998D01*
X151244999Y-115919999D02*
X148014999Y-115919999D01*
X152000000Y-116675000D02*
X151244999Y-115919999D01*
X152000000Y-117212500D02*
X152000000Y-116675000D01*
X137511612Y-124086612D02*
X137050000Y-123625000D01*
X137950010Y-124525010D02*
X137511612Y-124086612D01*
X140162490Y-124525010D02*
X137950010Y-124525010D01*
X141050000Y-123637500D02*
X140162490Y-124525010D01*
X142250000Y-118384998D02*
X142250000Y-119100000D01*
X141985001Y-118119999D02*
X142250000Y-118384998D01*
X138667501Y-118119999D02*
X141985001Y-118119999D01*
X138000000Y-118787500D02*
X138667501Y-118119999D01*
X142754997Y-117880001D02*
X142250000Y-118384998D01*
X147485001Y-117880001D02*
X142754997Y-117880001D01*
X147750000Y-117615002D02*
X147485001Y-117880001D01*
X147750000Y-116900000D02*
X147750000Y-117615002D01*
X147750000Y-116184998D02*
X147750000Y-116900000D01*
X138000000Y-120000000D02*
X138000000Y-118787500D01*
X135500000Y-120250000D02*
X135500000Y-121250000D01*
X134500000Y-119250000D02*
X135500000Y-120250000D01*
X134500000Y-118000000D02*
X134500000Y-119250000D01*
X130500000Y-114000000D02*
X134500000Y-118000000D01*
X136625000Y-123625000D02*
X137250000Y-123625000D01*
X148400000Y-115534998D02*
X147750000Y-116184998D01*
X148400000Y-113600000D02*
X148400000Y-115534998D01*
X145824999Y-111024999D02*
X145824999Y-111740001D01*
X145650000Y-110850000D02*
X145824999Y-111024999D01*
X145824999Y-111740001D02*
X145914999Y-111830001D01*
X147462508Y-112662508D02*
X148400000Y-113600000D01*
X145914999Y-111830001D02*
X146590039Y-111830001D01*
X146590039Y-111830001D02*
X147422546Y-112662508D01*
X147422546Y-112662508D02*
X147462508Y-112662508D01*
X142861612Y-111249112D02*
X142400000Y-110787500D01*
X143442501Y-111830001D02*
X142861612Y-111249112D01*
X145385001Y-111830001D02*
X143442501Y-111830001D01*
X145650000Y-111565002D02*
X145385001Y-111830001D01*
X145650000Y-110850000D02*
X145650000Y-111565002D01*
X136625000Y-123625000D02*
X137225000Y-123625000D01*
X135500000Y-121275000D02*
X135500000Y-122500000D01*
X135500000Y-122500000D02*
X136625000Y-123625000D01*
X141850000Y-123637500D02*
X141000000Y-123637500D01*
X142000000Y-123487500D02*
X141850000Y-123637500D01*
X142075001Y-119274999D02*
X142075001Y-119990001D01*
X142250000Y-119100000D02*
X142075001Y-119274999D01*
X142000010Y-120064992D02*
X142000010Y-121589953D01*
X142075001Y-119990001D02*
X142000010Y-120064992D01*
X142000010Y-121589953D02*
X142000000Y-121589963D01*
X142000000Y-121589963D02*
X142000000Y-123487500D01*
X142600000Y-112672502D02*
X143442501Y-111830001D01*
X142600000Y-113600000D02*
X142600000Y-112672502D01*
D21*
X130700000Y-113800000D02*
X130500000Y-114000000D01*
X133714999Y-113800000D02*
X130700000Y-113800000D01*
D20*
X150750000Y-113537500D02*
X150750000Y-113750000D01*
X150750000Y-113750000D02*
X149750000Y-114750000D01*
X149350001Y-120562489D02*
X149750000Y-120162490D01*
X148856245Y-121056245D02*
X149350001Y-120562489D01*
X147850000Y-123637500D02*
X148856245Y-122631255D01*
X148856245Y-122631255D02*
X148856245Y-121056245D01*
D21*
X152400001Y-100950001D02*
X153200000Y-101750000D01*
X149450000Y-98000000D02*
X152400001Y-100950001D01*
X137050000Y-96662500D02*
X138387500Y-98000000D01*
X138387500Y-98000000D02*
X149450000Y-98000000D01*
X149400001Y-97950001D02*
X149450000Y-98000000D01*
X149400001Y-97249999D02*
X149400001Y-97950001D01*
X150200000Y-96450000D02*
X149400001Y-97249999D01*
X140562500Y-101750000D02*
X147200000Y-101750000D01*
X137050000Y-98237500D02*
X140562500Y-101750000D01*
X134162500Y-96662500D02*
X132750000Y-96662500D01*
X137050000Y-98237500D02*
X135737500Y-98237500D01*
X135737500Y-98237500D02*
X134162500Y-96662500D01*
D20*
X157850000Y-123637500D02*
X158637500Y-123637500D01*
X158637500Y-123637500D02*
X158750000Y-123750000D01*
X152500000Y-124287500D02*
X151850000Y-123637500D01*
X152500000Y-124750000D02*
X152500000Y-124287500D01*
X144425000Y-122062500D02*
X143850000Y-122062500D01*
X144600000Y-122237500D02*
X144425000Y-122062500D01*
X144600000Y-124800000D02*
X144600000Y-122237500D01*
X145100000Y-125300000D02*
X144600000Y-124800000D01*
X152500000Y-124750000D02*
X151950000Y-125300000D01*
X151950000Y-125300000D02*
X145100000Y-125300000D01*
X156237500Y-107462500D02*
X156200000Y-107425000D01*
X158200000Y-107462500D02*
X156237500Y-107462500D01*
X168230000Y-116692500D02*
X168230000Y-119000000D01*
X158400000Y-107462500D02*
X159000000Y-107462500D01*
X159000000Y-107462500D02*
X168230000Y-116692500D01*
X155850000Y-114812500D02*
X153000000Y-111962500D01*
X155850000Y-122062500D02*
X155850000Y-114812500D01*
X155850000Y-122062500D02*
X157850000Y-122062500D01*
X146600000Y-108650000D02*
X152600000Y-108650000D01*
X152600000Y-108650000D02*
X152750000Y-108500000D01*
X153000000Y-110750000D02*
X153000000Y-111962500D01*
D21*
X146524999Y-107794999D02*
X141205001Y-107794999D01*
X146600000Y-108650000D02*
X146600000Y-107870000D01*
X146600000Y-107870000D02*
X146524999Y-107794999D01*
X141205001Y-107794999D02*
X139800000Y-109200000D01*
X139800000Y-109200000D02*
X139600000Y-109200000D01*
X138209999Y-113200000D02*
X138164999Y-113155000D01*
X139600000Y-113200000D02*
X138209999Y-113200000D01*
X147999999Y-95650001D02*
X147200000Y-96450000D01*
X148325001Y-95324999D02*
X147999999Y-95650001D01*
X152074999Y-95324999D02*
X148325001Y-95324999D01*
X153200000Y-96450000D02*
X152074999Y-95324999D01*
X144500000Y-120712500D02*
X145850000Y-122062500D01*
X144500000Y-120250000D02*
X144500000Y-120712500D01*
D20*
X146024999Y-119524999D02*
X145250000Y-118750000D01*
X146024999Y-120533001D02*
X146024999Y-119524999D01*
X145537849Y-116900000D02*
X145470306Y-116832457D01*
X146800000Y-116900000D02*
X145537849Y-116900000D01*
D21*
X134294999Y-113145000D02*
X133714999Y-113145000D01*
X134749989Y-114186400D02*
X134749989Y-113599990D01*
X145470306Y-116832457D02*
X144287860Y-115650011D01*
X134749989Y-113599990D02*
X134294999Y-113145000D01*
X136213600Y-115650011D02*
X134749989Y-114186400D01*
X144287860Y-115650011D02*
X136213600Y-115650011D01*
D20*
X140625000Y-122062500D02*
X141000000Y-122062500D01*
X139050000Y-123637500D02*
X140625000Y-122062500D01*
X141000000Y-122062500D02*
X141000000Y-121600000D01*
X141300000Y-121300000D02*
X141300000Y-119100000D01*
X141000000Y-121600000D02*
X141300000Y-121300000D01*
X153850000Y-123637500D02*
X155850000Y-123637500D01*
X157000000Y-109150000D02*
X155250000Y-109150000D01*
X155250000Y-109150000D02*
X154600000Y-109800000D01*
X144720000Y-109800000D02*
X144700000Y-109820000D01*
X154600000Y-109800000D02*
X144720000Y-109800000D01*
X157062502Y-124850002D02*
X155850000Y-123637500D01*
X157000000Y-109600000D02*
X159500000Y-112100000D01*
X157000000Y-109000000D02*
X157000000Y-109600000D01*
X159500000Y-112100000D02*
X159500000Y-123241996D01*
X159500000Y-123241996D02*
X159600002Y-123341998D01*
X159600002Y-123341998D02*
X159600002Y-124408002D01*
X159158002Y-124850002D02*
X157062502Y-124850002D01*
X159600002Y-124408002D02*
X159158002Y-124850002D01*
X144700000Y-110100000D02*
X144700000Y-110850000D01*
X144700000Y-109820000D02*
X144700000Y-110100000D01*
D21*
X137910000Y-112510000D02*
X137765001Y-112365001D01*
X138164999Y-112510000D02*
X137910000Y-112510000D01*
X137765001Y-112365001D02*
X137365001Y-112365001D01*
X137365001Y-112365001D02*
X136600000Y-111600000D01*
X144624990Y-110024990D02*
X144700000Y-110100000D01*
X136600000Y-111600000D02*
X138175010Y-110024990D01*
X138175010Y-110024990D02*
X144624990Y-110024990D01*
D20*
X154250000Y-121662500D02*
X153850000Y-122062500D01*
X153000000Y-113537500D02*
X154250000Y-114787500D01*
X154250000Y-114787500D02*
X154250000Y-121662500D01*
X146600000Y-111055000D02*
X146600000Y-110850000D01*
X148700000Y-116900000D02*
X150650000Y-116900000D01*
X150650000Y-116900000D02*
X150750000Y-117000000D01*
X147712500Y-111962500D02*
X146600000Y-110850000D01*
X150750000Y-111962500D02*
X147712500Y-111962500D01*
X151750000Y-112962500D02*
X151750000Y-115000000D01*
X150750000Y-111962500D02*
X151750000Y-112962500D01*
X149850000Y-123625000D02*
X150674990Y-124449990D01*
X150674990Y-124449990D02*
X150750000Y-124449990D01*
D21*
X134294999Y-111850000D02*
X133714999Y-111850000D01*
X135624999Y-111850000D02*
X134294999Y-111850000D01*
X137584999Y-113810000D02*
X135624999Y-111850000D01*
X138164999Y-113810000D02*
X137584999Y-113810000D01*
X138744999Y-113810000D02*
X139534999Y-114600000D01*
X138164999Y-113810000D02*
X138744999Y-113810000D01*
X139534999Y-114600000D02*
X144000000Y-114600000D01*
X144000000Y-114600000D02*
X145400000Y-113200000D01*
X145400000Y-113200000D02*
X146600000Y-113200000D01*
D20*
X151837500Y-122050000D02*
X151850000Y-122062500D01*
X149850000Y-122050000D02*
X151837500Y-122050000D01*
X149850000Y-122050000D02*
X149850000Y-121650000D01*
X149850000Y-121650000D02*
X150500000Y-121000000D01*
X147420000Y-120750000D02*
X147500000Y-120750000D01*
X147850000Y-121100000D02*
X147500000Y-120750000D01*
X147850000Y-122062500D02*
X147850000Y-121100000D01*
X146800000Y-119100000D02*
X146800000Y-120130000D01*
X146800000Y-120130000D02*
X147420000Y-120750000D01*
D21*
X134294999Y-112500000D02*
X135200000Y-113405001D01*
X133714999Y-112500000D02*
X134294999Y-112500000D01*
X135200000Y-113405001D02*
X135200000Y-114000000D01*
X135200000Y-114000000D02*
X136400000Y-115200000D01*
X136400000Y-115200000D02*
X146200000Y-115200000D01*
D20*
X143250000Y-119150000D02*
X143200000Y-119100000D01*
X143250000Y-120500000D02*
X143250000Y-119150000D01*
X143850000Y-123637500D02*
X142840000Y-124647500D01*
X142840000Y-124647500D02*
X142840000Y-124840000D01*
X143200000Y-116964604D02*
X143209305Y-116973909D01*
X143209305Y-116973909D02*
X143524990Y-116973909D01*
X143200000Y-116900000D02*
X143200000Y-116964604D01*
D21*
X151325001Y-102875001D02*
X153874999Y-102875001D01*
X150200000Y-101750000D02*
X151325001Y-102875001D01*
X155400001Y-97249999D02*
X156200000Y-96450000D01*
X155074999Y-97575001D02*
X155400001Y-97249999D01*
X155074999Y-101675001D02*
X155074999Y-97575001D01*
X153874999Y-102875001D02*
X155074999Y-101675001D01*
D20*
X107987500Y-96622500D02*
X129000000Y-96622500D01*
X104800000Y-99810000D02*
X107987500Y-96622500D01*
D21*
X129000000Y-96622500D02*
X130122500Y-95500000D01*
X130122500Y-95500000D02*
X134184315Y-95500000D01*
X134184315Y-95500000D02*
X134750000Y-95500000D01*
D20*
X137062500Y-122062500D02*
X137050000Y-122050000D01*
X139050000Y-122062500D02*
X137062500Y-122062500D01*
X149012500Y-118787500D02*
X148700000Y-119100000D01*
X152000000Y-118787500D02*
X149012500Y-118787500D01*
X148700000Y-119100000D02*
X147750000Y-119100000D01*
X152787500Y-118787500D02*
X153250000Y-119250000D01*
X152000000Y-118787500D02*
X152787500Y-118787500D01*
X145650000Y-108650000D02*
X144700000Y-108650000D01*
X147750000Y-119100000D02*
X147750000Y-119550000D01*
X147750000Y-119550000D02*
X148400000Y-120200000D01*
X143875000Y-108650000D02*
X144700000Y-108650000D01*
X143600000Y-108925000D02*
X143875000Y-108650000D01*
X143587500Y-109212500D02*
X142400000Y-109212500D01*
X143600000Y-109200000D02*
X143587500Y-109212500D01*
X143600000Y-109200000D02*
X143600000Y-108925000D01*
X137074990Y-118525010D02*
X137074990Y-121474990D01*
X141300000Y-116900000D02*
X138700000Y-116900000D01*
X138700000Y-116900000D02*
X137074990Y-118525010D01*
X142400000Y-109212500D02*
X141012500Y-109212500D01*
X141012500Y-109212500D02*
X141000000Y-109200000D01*
X137074990Y-122025010D02*
X137050000Y-122050000D01*
X137074990Y-121474990D02*
X137074990Y-122025010D01*
X141300000Y-116900000D02*
X141328439Y-116900000D01*
X141487733Y-116740706D02*
X141487733Y-116375021D01*
X141328439Y-116900000D02*
X141487733Y-116740706D01*
D21*
X141025000Y-113600000D02*
X141025000Y-113025000D01*
X141025000Y-113025000D02*
X139860000Y-111860000D01*
X138744999Y-111860000D02*
X138164999Y-111860000D01*
X139860000Y-111860000D02*
X138744999Y-111860000D01*
D22*
G36*
X171697216Y-93093919D02*
G01*
X172079297Y-93209276D01*
X172431701Y-93396652D01*
X172740996Y-93648906D01*
X172995405Y-93956433D01*
X173185238Y-94307522D01*
X173303259Y-94688787D01*
X173347200Y-95106854D01*
X173347201Y-123477844D01*
X173306081Y-123897217D01*
X173190723Y-124279301D01*
X173003347Y-124631702D01*
X172751092Y-124940998D01*
X172443566Y-125195405D01*
X172092479Y-125385237D01*
X171711213Y-125503259D01*
X171293138Y-125547200D01*
X143165156Y-125547200D01*
X143208426Y-125529277D01*
X143335818Y-125444156D01*
X143444156Y-125335818D01*
X143529277Y-125208426D01*
X143587909Y-125066876D01*
X143617800Y-124916607D01*
X143617800Y-124763393D01*
X143616829Y-124758513D01*
X143720715Y-124654628D01*
X143856250Y-124654628D01*
X143977865Y-124642650D01*
X144094806Y-124607176D01*
X144202580Y-124549570D01*
X144297045Y-124472045D01*
X144374570Y-124377580D01*
X144432176Y-124269806D01*
X144467650Y-124152865D01*
X144479628Y-124031250D01*
X144479628Y-123649775D01*
X144480837Y-123637500D01*
X144479628Y-123625225D01*
X144479628Y-123543750D01*
X144770372Y-123543750D01*
X144770372Y-124031250D01*
X144782350Y-124152865D01*
X144817824Y-124269806D01*
X144875430Y-124377580D01*
X144952955Y-124472045D01*
X145047420Y-124549570D01*
X145155194Y-124607176D01*
X145272135Y-124642650D01*
X145393750Y-124654628D01*
X146306250Y-124654628D01*
X146427865Y-124642650D01*
X146544806Y-124607176D01*
X146652580Y-124549570D01*
X146747045Y-124472045D01*
X146824570Y-124377580D01*
X146882176Y-124269806D01*
X146917650Y-124152865D01*
X146929628Y-124031250D01*
X146929628Y-123543750D01*
X146917650Y-123422135D01*
X146882176Y-123305194D01*
X146824570Y-123197420D01*
X146747045Y-123102955D01*
X146652580Y-123025430D01*
X146544806Y-122967824D01*
X146427865Y-122932350D01*
X146306250Y-122920372D01*
X145393750Y-122920372D01*
X145272135Y-122932350D01*
X145155194Y-122967824D01*
X145047420Y-123025430D01*
X144952955Y-123102955D01*
X144875430Y-123197420D01*
X144817824Y-123305194D01*
X144782350Y-123422135D01*
X144770372Y-123543750D01*
X144479628Y-123543750D01*
X144467650Y-123422135D01*
X144432176Y-123305194D01*
X144374570Y-123197420D01*
X144297045Y-123102955D01*
X144202580Y-123025430D01*
X144094806Y-122967824D01*
X143977865Y-122932350D01*
X143856250Y-122920372D01*
X142943750Y-122920372D01*
X142822135Y-122932350D01*
X142705194Y-122967824D01*
X142627800Y-123009192D01*
X142627800Y-121620891D01*
X142627810Y-121620789D01*
X142627810Y-121620780D01*
X142630846Y-121589954D01*
X142627810Y-121559127D01*
X142627810Y-120968828D01*
X142645844Y-120995818D01*
X142754182Y-121104156D01*
X142881574Y-121189277D01*
X143023124Y-121247909D01*
X143173393Y-121277800D01*
X143326607Y-121277800D01*
X143476876Y-121247909D01*
X143618426Y-121189277D01*
X143745818Y-121104156D01*
X143854156Y-120995818D01*
X143939277Y-120868426D01*
X143962467Y-120812441D01*
X144004182Y-120854156D01*
X144020945Y-120865357D01*
X144033227Y-120905844D01*
X144079915Y-120993191D01*
X144121437Y-121043785D01*
X144142748Y-121069753D01*
X144161926Y-121085492D01*
X144770372Y-121693938D01*
X144770372Y-122156250D01*
X144782350Y-122277865D01*
X144817824Y-122394806D01*
X144875430Y-122502580D01*
X144952955Y-122597045D01*
X145047420Y-122674570D01*
X145155194Y-122732176D01*
X145272135Y-122767650D01*
X145393750Y-122779628D01*
X146306250Y-122779628D01*
X146427865Y-122767650D01*
X146544806Y-122732176D01*
X146652580Y-122674570D01*
X146747045Y-122597045D01*
X146824570Y-122502580D01*
X146882176Y-122394806D01*
X146917650Y-122277865D01*
X146929628Y-122156250D01*
X146929628Y-121668750D01*
X146917650Y-121547135D01*
X146882176Y-121430194D01*
X146824570Y-121322420D01*
X146747045Y-121227955D01*
X146652580Y-121150430D01*
X146558064Y-121099910D01*
X146629155Y-121028819D01*
X146701983Y-120919825D01*
X146750367Y-120968210D01*
X146752091Y-120976876D01*
X146810723Y-121118426D01*
X146895844Y-121245818D01*
X147004182Y-121354156D01*
X147131574Y-121439277D01*
X147149305Y-121446621D01*
X147096217Y-121511309D01*
X147040921Y-121614761D01*
X147006870Y-121727012D01*
X146995372Y-121843750D01*
X146995372Y-122281250D01*
X147006870Y-122397988D01*
X147040921Y-122510239D01*
X147096217Y-122613691D01*
X147170633Y-122704367D01*
X147261309Y-122778783D01*
X147364761Y-122834079D01*
X147417245Y-122850000D01*
X147364761Y-122865921D01*
X147261309Y-122921217D01*
X147170633Y-122995633D01*
X147096217Y-123086309D01*
X147040921Y-123189761D01*
X147006870Y-123302012D01*
X146995372Y-123418750D01*
X146995372Y-123856250D01*
X147006870Y-123972988D01*
X147040921Y-124085239D01*
X147096217Y-124188691D01*
X147170633Y-124279367D01*
X147261309Y-124353783D01*
X147364761Y-124409079D01*
X147477012Y-124443130D01*
X147593750Y-124454628D01*
X148106250Y-124454628D01*
X148222988Y-124443130D01*
X148335239Y-124409079D01*
X148438691Y-124353783D01*
X148529367Y-124279367D01*
X148603783Y-124188691D01*
X148659079Y-124085239D01*
X148693130Y-123972988D01*
X148704628Y-123856250D01*
X148704628Y-123670714D01*
X148998243Y-123377100D01*
X148995372Y-123406250D01*
X148995372Y-123843750D01*
X149006870Y-123960488D01*
X149040921Y-124072739D01*
X149096217Y-124176191D01*
X149170633Y-124266867D01*
X149261309Y-124341283D01*
X149364761Y-124396579D01*
X149477012Y-124430630D01*
X149593750Y-124442128D01*
X149779286Y-124442128D01*
X149999128Y-124661971D01*
X150002091Y-124676866D01*
X150060723Y-124818416D01*
X150145844Y-124945808D01*
X150254182Y-125054146D01*
X150381574Y-125139267D01*
X150523124Y-125197899D01*
X150673393Y-125227790D01*
X150826607Y-125227790D01*
X150976876Y-125197899D01*
X151118426Y-125139267D01*
X151245818Y-125054146D01*
X151354156Y-124945808D01*
X151439277Y-124818416D01*
X151497909Y-124676866D01*
X151527800Y-124526597D01*
X151527800Y-124373383D01*
X151497909Y-124223114D01*
X151439277Y-124081564D01*
X151354156Y-123954172D01*
X151245818Y-123845834D01*
X151118426Y-123760713D01*
X150976876Y-123702081D01*
X150826607Y-123672190D01*
X150785033Y-123672190D01*
X150704628Y-123591786D01*
X150704628Y-123406250D01*
X150693130Y-123289512D01*
X150659079Y-123177261D01*
X150603783Y-123073809D01*
X150529367Y-122983133D01*
X150438691Y-122908717D01*
X150335239Y-122853421D01*
X150282755Y-122837500D01*
X150335239Y-122821579D01*
X150438691Y-122766283D01*
X150529367Y-122691867D01*
X150540912Y-122677800D01*
X151148830Y-122677800D01*
X151170633Y-122704367D01*
X151261309Y-122778783D01*
X151364761Y-122834079D01*
X151477012Y-122868130D01*
X151593750Y-122879628D01*
X152106250Y-122879628D01*
X152222988Y-122868130D01*
X152335239Y-122834079D01*
X152438691Y-122778783D01*
X152529367Y-122704367D01*
X152603783Y-122613691D01*
X152659079Y-122510239D01*
X152693130Y-122397988D01*
X152704628Y-122281250D01*
X152704628Y-121843750D01*
X152693130Y-121727012D01*
X152659079Y-121614761D01*
X152603783Y-121511309D01*
X152529367Y-121420633D01*
X152438691Y-121346217D01*
X152335239Y-121290921D01*
X152222988Y-121256870D01*
X152106250Y-121245372D01*
X151593750Y-121245372D01*
X151477012Y-121256870D01*
X151364761Y-121290921D01*
X151261309Y-121346217D01*
X151170633Y-121420633D01*
X151169347Y-121422200D01*
X151153346Y-121422200D01*
X151189277Y-121368426D01*
X151247909Y-121226876D01*
X151277800Y-121076607D01*
X151277800Y-120923393D01*
X151247909Y-120773124D01*
X151189277Y-120631574D01*
X151104156Y-120504182D01*
X150995818Y-120395844D01*
X150868426Y-120310723D01*
X150726876Y-120252091D01*
X150576607Y-120222200D01*
X150527800Y-120222200D01*
X150527800Y-120085883D01*
X150497909Y-119935614D01*
X150439277Y-119794064D01*
X150354156Y-119666672D01*
X150245818Y-119558334D01*
X150118426Y-119473213D01*
X149978612Y-119415300D01*
X151309088Y-119415300D01*
X151320633Y-119429367D01*
X151411309Y-119503783D01*
X151514761Y-119559079D01*
X151627012Y-119593130D01*
X151743750Y-119604628D01*
X152256250Y-119604628D01*
X152372988Y-119593130D01*
X152485239Y-119559079D01*
X152526914Y-119536803D01*
X152560723Y-119618426D01*
X152645844Y-119745818D01*
X152754182Y-119854156D01*
X152881574Y-119939277D01*
X153023124Y-119997909D01*
X153173393Y-120027800D01*
X153326607Y-120027800D01*
X153476876Y-119997909D01*
X153618426Y-119939277D01*
X153622201Y-119936755D01*
X153622201Y-121245372D01*
X153593750Y-121245372D01*
X153477012Y-121256870D01*
X153364761Y-121290921D01*
X153261309Y-121346217D01*
X153170633Y-121420633D01*
X153096217Y-121511309D01*
X153040921Y-121614761D01*
X153006870Y-121727012D01*
X152995372Y-121843750D01*
X152995372Y-122281250D01*
X153006870Y-122397988D01*
X153040921Y-122510239D01*
X153096217Y-122613691D01*
X153170633Y-122704367D01*
X153261309Y-122778783D01*
X153364761Y-122834079D01*
X153417245Y-122850000D01*
X153364761Y-122865921D01*
X153261309Y-122921217D01*
X153170633Y-122995633D01*
X153096217Y-123086309D01*
X153040921Y-123189761D01*
X153006870Y-123302012D01*
X152995372Y-123418750D01*
X152995372Y-123856250D01*
X153006870Y-123972988D01*
X153040921Y-124085239D01*
X153096217Y-124188691D01*
X153170633Y-124279367D01*
X153261309Y-124353783D01*
X153364761Y-124409079D01*
X153477012Y-124443130D01*
X153593750Y-124454628D01*
X154106250Y-124454628D01*
X154222988Y-124443130D01*
X154335239Y-124409079D01*
X154438691Y-124353783D01*
X154529367Y-124279367D01*
X154540912Y-124265300D01*
X155159088Y-124265300D01*
X155170633Y-124279367D01*
X155261309Y-124353783D01*
X155364761Y-124409079D01*
X155477012Y-124443130D01*
X155593750Y-124454628D01*
X155779285Y-124454628D01*
X156596781Y-125272124D01*
X156616433Y-125296071D01*
X156640379Y-125315723D01*
X156640384Y-125315728D01*
X156712027Y-125374524D01*
X156771576Y-125406353D01*
X156821091Y-125432819D01*
X156939432Y-125468718D01*
X157031666Y-125477802D01*
X157031676Y-125477802D01*
X157062502Y-125480838D01*
X157093328Y-125477802D01*
X159127176Y-125477802D01*
X159158002Y-125480838D01*
X159188828Y-125477802D01*
X159188838Y-125477802D01*
X159281072Y-125468718D01*
X159399413Y-125432819D01*
X159508476Y-125374524D01*
X159604071Y-125296071D01*
X159623732Y-125272114D01*
X160022119Y-124873728D01*
X160046071Y-124854071D01*
X160124524Y-124758476D01*
X160182819Y-124649413D01*
X160218718Y-124531072D01*
X160227802Y-124438838D01*
X160227802Y-124438829D01*
X160230838Y-124408003D01*
X160227802Y-124377177D01*
X160227802Y-123372823D01*
X160230838Y-123341997D01*
X160227802Y-123311171D01*
X160227802Y-123311162D01*
X160218718Y-123218928D01*
X160182819Y-123100587D01*
X160127800Y-122997653D01*
X160127800Y-112130826D01*
X160130836Y-112100000D01*
X160127800Y-112069174D01*
X160127800Y-112069164D01*
X160118716Y-111976930D01*
X160082817Y-111858589D01*
X160024522Y-111749526D01*
X160001185Y-111721090D01*
X159965726Y-111677882D01*
X159965721Y-111677877D01*
X159946069Y-111653931D01*
X159922124Y-111634280D01*
X157627800Y-109339958D01*
X157627800Y-109180836D01*
X157630837Y-109150000D01*
X157627800Y-109119164D01*
X157627800Y-108969164D01*
X157618716Y-108876930D01*
X157582817Y-108758589D01*
X157524522Y-108649526D01*
X157446069Y-108553931D01*
X157350473Y-108475478D01*
X157241410Y-108417183D01*
X157123069Y-108381284D01*
X157000000Y-108369163D01*
X156972531Y-108371868D01*
X156894806Y-108330324D01*
X156777865Y-108294850D01*
X156656250Y-108282872D01*
X155743750Y-108282872D01*
X155622135Y-108294850D01*
X155505194Y-108330324D01*
X155397420Y-108387930D01*
X155302955Y-108465455D01*
X155258214Y-108519973D01*
X155250000Y-108519164D01*
X155219174Y-108522200D01*
X155219164Y-108522200D01*
X155126930Y-108531284D01*
X155008589Y-108567183D01*
X154899525Y-108625478D01*
X154827882Y-108684274D01*
X154827877Y-108684279D01*
X154803931Y-108703931D01*
X154784278Y-108727878D01*
X154339957Y-109172200D01*
X153143983Y-109172200D01*
X153245818Y-109104156D01*
X153354156Y-108995818D01*
X153439277Y-108868426D01*
X153497909Y-108726876D01*
X153527800Y-108576607D01*
X153527800Y-108423393D01*
X153497909Y-108273124D01*
X153439277Y-108131574D01*
X153354156Y-108004182D01*
X153245818Y-107895844D01*
X153118426Y-107810723D01*
X152976876Y-107752091D01*
X152826607Y-107722200D01*
X152673393Y-107722200D01*
X152523124Y-107752091D01*
X152381574Y-107810723D01*
X152254182Y-107895844D01*
X152145844Y-108004182D01*
X152133805Y-108022200D01*
X147290133Y-108022200D01*
X147275731Y-107974723D01*
X147240649Y-107909090D01*
X147193438Y-107851562D01*
X147135910Y-107804351D01*
X147096702Y-107783394D01*
X147095524Y-107771434D01*
X147066774Y-107676656D01*
X147020085Y-107589308D01*
X146957253Y-107512747D01*
X146938066Y-107497000D01*
X146897997Y-107456931D01*
X146882252Y-107437746D01*
X146805691Y-107374914D01*
X146718343Y-107328225D01*
X146623565Y-107299475D01*
X146549691Y-107292199D01*
X146524999Y-107289767D01*
X146500307Y-107292199D01*
X141229682Y-107292199D01*
X141205000Y-107289768D01*
X141180318Y-107292199D01*
X141180309Y-107292199D01*
X141106435Y-107299475D01*
X141011657Y-107328225D01*
X140924309Y-107374914D01*
X140847748Y-107437746D01*
X140832005Y-107456929D01*
X139833924Y-108455010D01*
X139826876Y-108452091D01*
X139676607Y-108422200D01*
X139523393Y-108422200D01*
X139373124Y-108452091D01*
X139231574Y-108510723D01*
X139104182Y-108595844D01*
X138995844Y-108704182D01*
X138910723Y-108831574D01*
X138852091Y-108973124D01*
X138822200Y-109123393D01*
X138822200Y-109276607D01*
X138852091Y-109426876D01*
X138891571Y-109522190D01*
X138199702Y-109522190D01*
X138175010Y-109519758D01*
X138076444Y-109529466D01*
X137981666Y-109558216D01*
X137894318Y-109604905D01*
X137844160Y-109646069D01*
X137817757Y-109667737D01*
X137802018Y-109686915D01*
X136261922Y-111227012D01*
X136242748Y-111242748D01*
X136227012Y-111261922D01*
X136227007Y-111261927D01*
X136198708Y-111296410D01*
X136179915Y-111319309D01*
X136133227Y-111406656D01*
X136104476Y-111501435D01*
X136094768Y-111600000D01*
X136095719Y-111609654D01*
X135997995Y-111511930D01*
X135982252Y-111492747D01*
X135905691Y-111429915D01*
X135818343Y-111383226D01*
X135723565Y-111354476D01*
X135649691Y-111347200D01*
X135624999Y-111344768D01*
X135600307Y-111347200D01*
X134242531Y-111347200D01*
X134190276Y-111319269D01*
X134119061Y-111297666D01*
X134044999Y-111290372D01*
X133384999Y-111290372D01*
X133310937Y-111297666D01*
X133239722Y-111319269D01*
X133174089Y-111354351D01*
X133116561Y-111401562D01*
X133069350Y-111459090D01*
X133034268Y-111524723D01*
X133012665Y-111595938D01*
X133005371Y-111670000D01*
X133005371Y-112030000D01*
X133012665Y-112104062D01*
X133034184Y-112175000D01*
X133012665Y-112245938D01*
X133005371Y-112320000D01*
X133005371Y-112680000D01*
X133012665Y-112754062D01*
X133033426Y-112822500D01*
X133012665Y-112890938D01*
X133005371Y-112965000D01*
X133005371Y-113297200D01*
X130835779Y-113297200D01*
X130726876Y-113252091D01*
X130576607Y-113222200D01*
X130423393Y-113222200D01*
X130273124Y-113252091D01*
X130131574Y-113310723D01*
X130004182Y-113395844D01*
X129895844Y-113504182D01*
X129810723Y-113631574D01*
X129752091Y-113773124D01*
X129722200Y-113923393D01*
X129722200Y-114076607D01*
X129752091Y-114226876D01*
X129810723Y-114368426D01*
X129895844Y-114495818D01*
X130004182Y-114604156D01*
X130131574Y-114689277D01*
X130273124Y-114747909D01*
X130381656Y-114769498D01*
X133872200Y-118260043D01*
X133872201Y-119219164D01*
X133869164Y-119250000D01*
X133881285Y-119373070D01*
X133917183Y-119491410D01*
X133948500Y-119550000D01*
X133975479Y-119600474D01*
X134053932Y-119696069D01*
X134077883Y-119715726D01*
X134872200Y-120510043D01*
X134872201Y-121244155D01*
X134872200Y-121244165D01*
X134872201Y-122469164D01*
X134869164Y-122500000D01*
X134881285Y-122623070D01*
X134917183Y-122741410D01*
X134937611Y-122779628D01*
X134975479Y-122850474D01*
X135053932Y-122946069D01*
X135077884Y-122965726D01*
X136159274Y-124047117D01*
X136178931Y-124071069D01*
X136274526Y-124149522D01*
X136284936Y-124155086D01*
X136296217Y-124176191D01*
X136370633Y-124266867D01*
X136461309Y-124341283D01*
X136564761Y-124396579D01*
X136677012Y-124430630D01*
X136793750Y-124442128D01*
X136979284Y-124442128D01*
X137089494Y-124552338D01*
X137089505Y-124552347D01*
X137484284Y-124947127D01*
X137503941Y-124971079D01*
X137599536Y-125049532D01*
X137708599Y-125107827D01*
X137826940Y-125143726D01*
X137919174Y-125152810D01*
X137919183Y-125152810D01*
X137950009Y-125155846D01*
X137980835Y-125152810D01*
X140131664Y-125152810D01*
X140162490Y-125155846D01*
X140193316Y-125152810D01*
X140193326Y-125152810D01*
X140285560Y-125143726D01*
X140403901Y-125107827D01*
X140512964Y-125049532D01*
X140608559Y-124971079D01*
X140628220Y-124947122D01*
X141120715Y-124454628D01*
X141256250Y-124454628D01*
X141372988Y-124443130D01*
X141485239Y-124409079D01*
X141588691Y-124353783D01*
X141679367Y-124279367D01*
X141690912Y-124265300D01*
X141819174Y-124265300D01*
X141850000Y-124268336D01*
X141880826Y-124265300D01*
X141880836Y-124265300D01*
X141973070Y-124256216D01*
X142091411Y-124220317D01*
X142200474Y-124162022D01*
X142296069Y-124083569D01*
X142315730Y-124059612D01*
X142322499Y-124052843D01*
X142332350Y-124152865D01*
X142355273Y-124228433D01*
X142344182Y-124235844D01*
X142235844Y-124344182D01*
X142150723Y-124471574D01*
X142092091Y-124613124D01*
X142062200Y-124763393D01*
X142062200Y-124916607D01*
X142092091Y-125066876D01*
X142150723Y-125208426D01*
X142235844Y-125335818D01*
X142344182Y-125444156D01*
X142471574Y-125529277D01*
X142514844Y-125547200D01*
X100272146Y-125547200D01*
X99852783Y-125506081D01*
X99470699Y-125390723D01*
X99118298Y-125203347D01*
X98809002Y-124951092D01*
X98554595Y-124643566D01*
X98364763Y-124292479D01*
X98246741Y-123911213D01*
X98202812Y-123493256D01*
X98227536Y-109449999D01*
X124345372Y-109449999D01*
X124345372Y-110150001D01*
X124357470Y-110272835D01*
X124393300Y-110390949D01*
X124451483Y-110499803D01*
X124529785Y-110595215D01*
X124625197Y-110673517D01*
X124734051Y-110731700D01*
X124852165Y-110767530D01*
X124974999Y-110779628D01*
X126225001Y-110779628D01*
X126347835Y-110767530D01*
X126465949Y-110731700D01*
X126574803Y-110673517D01*
X126670215Y-110595215D01*
X126748517Y-110499803D01*
X126806700Y-110390949D01*
X126842530Y-110272835D01*
X126854628Y-110150001D01*
X126854628Y-109449999D01*
X126842530Y-109327165D01*
X126806700Y-109209051D01*
X126748517Y-109100197D01*
X126670215Y-109004785D01*
X126574803Y-108926483D01*
X126465949Y-108868300D01*
X126347835Y-108832470D01*
X126225001Y-108820372D01*
X124974999Y-108820372D01*
X124852165Y-108832470D01*
X124734051Y-108868300D01*
X124625197Y-108926483D01*
X124529785Y-109004785D01*
X124451483Y-109100197D01*
X124393300Y-109209051D01*
X124357470Y-109327165D01*
X124345372Y-109449999D01*
X98227536Y-109449999D01*
X98230441Y-107800000D01*
X124342469Y-107800000D01*
X124361348Y-107991682D01*
X124417260Y-108175998D01*
X124508055Y-108345865D01*
X124630246Y-108494754D01*
X124779135Y-108616945D01*
X124949002Y-108707740D01*
X125133318Y-108763652D01*
X125276965Y-108777800D01*
X125923035Y-108777800D01*
X126066682Y-108763652D01*
X126250998Y-108707740D01*
X126420865Y-108616945D01*
X126569754Y-108494754D01*
X126691945Y-108345865D01*
X126782740Y-108175998D01*
X126838652Y-107991682D01*
X126857531Y-107800000D01*
X126838652Y-107608318D01*
X126782740Y-107424002D01*
X126691945Y-107254135D01*
X126569754Y-107105246D01*
X126479591Y-107031250D01*
X155120372Y-107031250D01*
X155120372Y-107518750D01*
X155132350Y-107640365D01*
X155167824Y-107757306D01*
X155225430Y-107865080D01*
X155302955Y-107959545D01*
X155397420Y-108037070D01*
X155505194Y-108094676D01*
X155622135Y-108130150D01*
X155743750Y-108142128D01*
X156656250Y-108142128D01*
X156777865Y-108130150D01*
X156894806Y-108094676D01*
X156902993Y-108090300D01*
X157709088Y-108090300D01*
X157720633Y-108104367D01*
X157811309Y-108178783D01*
X157914761Y-108234079D01*
X158027012Y-108268130D01*
X158143750Y-108279628D01*
X158656250Y-108279628D01*
X158772988Y-108268130D01*
X158884087Y-108234429D01*
X166285284Y-115635627D01*
X165758047Y-115987916D01*
X165217916Y-116528047D01*
X164793538Y-117163173D01*
X164501222Y-117868887D01*
X164352200Y-118618070D01*
X164352200Y-119381930D01*
X164501222Y-120131113D01*
X164793538Y-120836827D01*
X165217916Y-121471953D01*
X165758047Y-122012084D01*
X166393173Y-122436462D01*
X167098887Y-122728778D01*
X167848070Y-122877800D01*
X168611930Y-122877800D01*
X169361113Y-122728778D01*
X170066827Y-122436462D01*
X170701953Y-122012084D01*
X171242084Y-121471953D01*
X171666462Y-120836827D01*
X171958778Y-120131113D01*
X172107800Y-119381930D01*
X172107800Y-118618070D01*
X171958778Y-117868887D01*
X171666462Y-117163173D01*
X171242084Y-116528047D01*
X170701953Y-115987916D01*
X170066827Y-115563538D01*
X169361113Y-115271222D01*
X168611930Y-115122200D01*
X167848070Y-115122200D01*
X167597404Y-115172061D01*
X159465730Y-107040388D01*
X159446069Y-107016431D01*
X159350474Y-106937978D01*
X159241411Y-106879683D01*
X159123070Y-106843784D01*
X159096194Y-106841137D01*
X159079367Y-106820633D01*
X158988691Y-106746217D01*
X158885239Y-106690921D01*
X158772988Y-106656870D01*
X158656250Y-106645372D01*
X158143750Y-106645372D01*
X158027012Y-106656870D01*
X157914761Y-106690921D01*
X157811309Y-106746217D01*
X157720633Y-106820633D01*
X157709088Y-106834700D01*
X157244919Y-106834700D01*
X157232176Y-106792694D01*
X157174570Y-106684920D01*
X157097045Y-106590455D01*
X157002580Y-106512930D01*
X156894806Y-106455324D01*
X156777865Y-106419850D01*
X156656250Y-106407872D01*
X155743750Y-106407872D01*
X155622135Y-106419850D01*
X155505194Y-106455324D01*
X155397420Y-106512930D01*
X155302955Y-106590455D01*
X155225430Y-106684920D01*
X155167824Y-106792694D01*
X155132350Y-106909635D01*
X155120372Y-107031250D01*
X126479591Y-107031250D01*
X126420865Y-106983055D01*
X126250998Y-106892260D01*
X126066682Y-106836348D01*
X125923035Y-106822200D01*
X125276965Y-106822200D01*
X125133318Y-106836348D01*
X124949002Y-106892260D01*
X124779135Y-106983055D01*
X124630246Y-107105246D01*
X124508055Y-107254135D01*
X124417260Y-107424002D01*
X124361348Y-107608318D01*
X124342469Y-107800000D01*
X98230441Y-107800000D01*
X98237687Y-103683997D01*
X144622200Y-103683997D01*
X144622200Y-103916003D01*
X144667462Y-104143552D01*
X144756247Y-104357898D01*
X144885143Y-104550804D01*
X145049196Y-104714857D01*
X145242102Y-104843753D01*
X145456448Y-104932538D01*
X145683997Y-104977800D01*
X145916003Y-104977800D01*
X146143552Y-104932538D01*
X146357898Y-104843753D01*
X146550804Y-104714857D01*
X146714857Y-104550804D01*
X146843753Y-104357898D01*
X146932538Y-104143552D01*
X146977800Y-103916003D01*
X146977800Y-103683997D01*
X156422200Y-103683997D01*
X156422200Y-103916003D01*
X156467462Y-104143552D01*
X156556247Y-104357898D01*
X156685143Y-104550804D01*
X156849196Y-104714857D01*
X157042102Y-104843753D01*
X157256448Y-104932538D01*
X157483997Y-104977800D01*
X157716003Y-104977800D01*
X157943552Y-104932538D01*
X158157898Y-104843753D01*
X158350804Y-104714857D01*
X158514857Y-104550804D01*
X158643753Y-104357898D01*
X158732538Y-104143552D01*
X158777800Y-103916003D01*
X158777800Y-103683997D01*
X158732538Y-103456448D01*
X158643753Y-103242102D01*
X158514857Y-103049196D01*
X158350804Y-102885143D01*
X158157898Y-102756247D01*
X157943552Y-102667462D01*
X157716003Y-102622200D01*
X157483997Y-102622200D01*
X157256448Y-102667462D01*
X157042102Y-102756247D01*
X156849196Y-102885143D01*
X156685143Y-103049196D01*
X156556247Y-103242102D01*
X156467462Y-103456448D01*
X156422200Y-103683997D01*
X146977800Y-103683997D01*
X146932538Y-103456448D01*
X146843753Y-103242102D01*
X146714857Y-103049196D01*
X146550804Y-102885143D01*
X146357898Y-102756247D01*
X146143552Y-102667462D01*
X145916003Y-102622200D01*
X145683997Y-102622200D01*
X145456448Y-102667462D01*
X145242102Y-102756247D01*
X145049196Y-102885143D01*
X144885143Y-103049196D01*
X144756247Y-103242102D01*
X144667462Y-103456448D01*
X144622200Y-103683997D01*
X98237687Y-103683997D01*
X98245920Y-99008070D01*
X99582200Y-99008070D01*
X99582200Y-99771930D01*
X99731222Y-100521113D01*
X100023538Y-101226827D01*
X100447916Y-101861953D01*
X100988047Y-102402084D01*
X101623173Y-102826462D01*
X102328887Y-103118778D01*
X103078070Y-103267800D01*
X103841930Y-103267800D01*
X104591113Y-103118778D01*
X105296827Y-102826462D01*
X105931953Y-102402084D01*
X106472084Y-101861953D01*
X106896462Y-101226827D01*
X107188778Y-100521113D01*
X107337800Y-99771930D01*
X107337800Y-99008070D01*
X107197103Y-98300740D01*
X108247544Y-97250300D01*
X128309088Y-97250300D01*
X128320633Y-97264367D01*
X128411309Y-97338783D01*
X128514761Y-97394079D01*
X128627012Y-97428130D01*
X128743750Y-97439628D01*
X129256250Y-97439628D01*
X129372988Y-97428130D01*
X129485239Y-97394079D01*
X129588691Y-97338783D01*
X129679367Y-97264367D01*
X129753783Y-97173691D01*
X129809079Y-97070239D01*
X129843130Y-96957988D01*
X129854628Y-96841250D01*
X129854628Y-96478938D01*
X130330767Y-96002800D01*
X132092363Y-96002800D01*
X132070633Y-96020633D01*
X131996217Y-96111309D01*
X131940921Y-96214761D01*
X131906870Y-96327012D01*
X131895372Y-96443750D01*
X131895372Y-96881250D01*
X131906870Y-96997988D01*
X131940921Y-97110239D01*
X131996217Y-97213691D01*
X132070633Y-97304367D01*
X132161309Y-97378783D01*
X132264761Y-97434079D01*
X132377012Y-97468130D01*
X132493750Y-97479628D01*
X133006250Y-97479628D01*
X133122988Y-97468130D01*
X133235239Y-97434079D01*
X133338691Y-97378783D01*
X133429367Y-97304367D01*
X133503783Y-97213691D01*
X133529648Y-97165300D01*
X133954234Y-97165300D01*
X135364504Y-98575570D01*
X135380247Y-98594753D01*
X135456808Y-98657585D01*
X135544156Y-98704274D01*
X135638934Y-98733024D01*
X135712808Y-98740300D01*
X135712817Y-98740300D01*
X135737499Y-98742731D01*
X135762181Y-98740300D01*
X136270352Y-98740300D01*
X136296217Y-98788691D01*
X136370633Y-98879367D01*
X136461309Y-98953783D01*
X136564761Y-99009079D01*
X136677012Y-99043130D01*
X136793750Y-99054628D01*
X137156062Y-99054628D01*
X140189506Y-102088073D01*
X140205247Y-102107253D01*
X140281808Y-102170085D01*
X140369156Y-102216774D01*
X140463934Y-102245524D01*
X140537808Y-102252800D01*
X140537815Y-102252800D01*
X140562499Y-102255231D01*
X140587184Y-102252800D01*
X146133425Y-102252800D01*
X146156247Y-102307898D01*
X146285143Y-102500804D01*
X146449196Y-102664857D01*
X146642102Y-102793753D01*
X146856448Y-102882538D01*
X147083997Y-102927800D01*
X147316003Y-102927800D01*
X147543552Y-102882538D01*
X147757898Y-102793753D01*
X147950804Y-102664857D01*
X148114857Y-102500804D01*
X148243753Y-102307898D01*
X148332538Y-102093552D01*
X148377800Y-101866003D01*
X148377800Y-101633997D01*
X148332538Y-101406448D01*
X148243753Y-101192102D01*
X148114857Y-100999196D01*
X147950804Y-100835143D01*
X147757898Y-100706247D01*
X147543552Y-100617462D01*
X147316003Y-100572200D01*
X147083997Y-100572200D01*
X146856448Y-100617462D01*
X146642102Y-100706247D01*
X146449196Y-100835143D01*
X146285143Y-100999196D01*
X146156247Y-101192102D01*
X146133425Y-101247200D01*
X140770767Y-101247200D01*
X137904628Y-98381062D01*
X137904628Y-98228195D01*
X138014506Y-98338073D01*
X138030247Y-98357253D01*
X138049425Y-98372992D01*
X138049426Y-98372993D01*
X138106808Y-98420085D01*
X138194156Y-98466774D01*
X138288934Y-98495524D01*
X138387500Y-98505232D01*
X138412192Y-98502800D01*
X149241734Y-98502800D01*
X152090284Y-101351350D01*
X152067462Y-101406448D01*
X152022200Y-101633997D01*
X152022200Y-101866003D01*
X152067462Y-102093552D01*
X152156247Y-102307898D01*
X152199213Y-102372201D01*
X151533268Y-102372201D01*
X151309716Y-102148649D01*
X151332538Y-102093552D01*
X151377800Y-101866003D01*
X151377800Y-101633997D01*
X151332538Y-101406448D01*
X151243753Y-101192102D01*
X151114857Y-100999196D01*
X150950804Y-100835143D01*
X150757898Y-100706247D01*
X150543552Y-100617462D01*
X150316003Y-100572200D01*
X150083997Y-100572200D01*
X149856448Y-100617462D01*
X149642102Y-100706247D01*
X149449196Y-100835143D01*
X149285143Y-100999196D01*
X149156247Y-101192102D01*
X149067462Y-101406448D01*
X149022200Y-101633997D01*
X149022200Y-101866003D01*
X149067462Y-102093552D01*
X149156247Y-102307898D01*
X149285143Y-102500804D01*
X149449196Y-102664857D01*
X149642102Y-102793753D01*
X149856448Y-102882538D01*
X150083997Y-102927800D01*
X150316003Y-102927800D01*
X150543552Y-102882538D01*
X150598649Y-102859716D01*
X150952009Y-103213076D01*
X150967748Y-103232254D01*
X150986926Y-103247993D01*
X150986927Y-103247994D01*
X151044309Y-103295086D01*
X151131657Y-103341775D01*
X151226435Y-103370525D01*
X151325001Y-103380233D01*
X151349693Y-103377801D01*
X153850307Y-103377801D01*
X153874999Y-103380233D01*
X153899691Y-103377801D01*
X153973565Y-103370525D01*
X154068343Y-103341775D01*
X154155691Y-103295086D01*
X154232252Y-103232254D01*
X154247995Y-103213071D01*
X155155345Y-102305721D01*
X155156247Y-102307898D01*
X155285143Y-102500804D01*
X155449196Y-102664857D01*
X155642102Y-102793753D01*
X155856448Y-102882538D01*
X156083997Y-102927800D01*
X156316003Y-102927800D01*
X156543552Y-102882538D01*
X156757898Y-102793753D01*
X156950804Y-102664857D01*
X157114857Y-102500804D01*
X157243753Y-102307898D01*
X157332538Y-102093552D01*
X157377800Y-101866003D01*
X157377800Y-101633997D01*
X157332538Y-101406448D01*
X157243753Y-101192102D01*
X157114857Y-100999196D01*
X156950804Y-100835143D01*
X156757898Y-100706247D01*
X156543552Y-100617462D01*
X156316003Y-100572200D01*
X156083997Y-100572200D01*
X155856448Y-100617462D01*
X155642102Y-100706247D01*
X155577799Y-100749213D01*
X155577799Y-97783267D01*
X155801350Y-97559716D01*
X155856448Y-97582538D01*
X156083997Y-97627800D01*
X156316003Y-97627800D01*
X156543552Y-97582538D01*
X156757898Y-97493753D01*
X156950804Y-97364857D01*
X157114857Y-97200804D01*
X157243753Y-97007898D01*
X157332538Y-96793552D01*
X157377800Y-96566003D01*
X157377800Y-96333997D01*
X157332538Y-96106448D01*
X157243753Y-95892102D01*
X157114857Y-95699196D01*
X156950804Y-95535143D01*
X156757898Y-95406247D01*
X156543552Y-95317462D01*
X156316003Y-95272200D01*
X156083997Y-95272200D01*
X155856448Y-95317462D01*
X155642102Y-95406247D01*
X155449196Y-95535143D01*
X155285143Y-95699196D01*
X155156247Y-95892102D01*
X155067462Y-96106448D01*
X155022200Y-96333997D01*
X155022200Y-96566003D01*
X155067462Y-96793552D01*
X155090284Y-96848650D01*
X154736925Y-97202009D01*
X154717747Y-97217748D01*
X154702008Y-97236926D01*
X154702006Y-97236928D01*
X154654914Y-97294310D01*
X154608226Y-97381657D01*
X154579475Y-97476436D01*
X154569767Y-97575001D01*
X154572200Y-97599703D01*
X154572199Y-101466735D01*
X154377800Y-101661134D01*
X154377800Y-101633997D01*
X154332538Y-101406448D01*
X154243753Y-101192102D01*
X154114857Y-100999196D01*
X153950804Y-100835143D01*
X153757898Y-100706247D01*
X153543552Y-100617462D01*
X153316003Y-100572200D01*
X153083997Y-100572200D01*
X152856448Y-100617462D01*
X152801350Y-100640284D01*
X149902801Y-97741735D01*
X149902801Y-97591758D01*
X150083997Y-97627800D01*
X150316003Y-97627800D01*
X150543552Y-97582538D01*
X150757898Y-97493753D01*
X150950804Y-97364857D01*
X151114857Y-97200804D01*
X151243753Y-97007898D01*
X151332538Y-96793552D01*
X151377800Y-96566003D01*
X151377800Y-96333997D01*
X151332538Y-96106448D01*
X151243753Y-95892102D01*
X151200787Y-95827799D01*
X151866733Y-95827799D01*
X152090284Y-96051350D01*
X152067462Y-96106448D01*
X152022200Y-96333997D01*
X152022200Y-96566003D01*
X152067462Y-96793552D01*
X152156247Y-97007898D01*
X152285143Y-97200804D01*
X152449196Y-97364857D01*
X152642102Y-97493753D01*
X152856448Y-97582538D01*
X153083997Y-97627800D01*
X153316003Y-97627800D01*
X153543552Y-97582538D01*
X153757898Y-97493753D01*
X153950804Y-97364857D01*
X154114857Y-97200804D01*
X154243753Y-97007898D01*
X154332538Y-96793552D01*
X154377800Y-96566003D01*
X154377800Y-96333997D01*
X154332538Y-96106448D01*
X154243753Y-95892102D01*
X154114857Y-95699196D01*
X153950804Y-95535143D01*
X153757898Y-95406247D01*
X153543552Y-95317462D01*
X153316003Y-95272200D01*
X153083997Y-95272200D01*
X152856448Y-95317462D01*
X152801350Y-95340284D01*
X152447995Y-94986929D01*
X152432252Y-94967746D01*
X152355691Y-94904914D01*
X152268343Y-94858225D01*
X152173565Y-94829475D01*
X152099691Y-94822199D01*
X152074999Y-94819767D01*
X152050307Y-94822199D01*
X148349685Y-94822199D01*
X148325000Y-94819768D01*
X148300316Y-94822199D01*
X148300309Y-94822199D01*
X148226435Y-94829475D01*
X148131657Y-94858225D01*
X148044309Y-94904914D01*
X147967748Y-94967746D01*
X147952005Y-94986929D01*
X147598650Y-95340284D01*
X147543552Y-95317462D01*
X147316003Y-95272200D01*
X147083997Y-95272200D01*
X146856448Y-95317462D01*
X146642102Y-95406247D01*
X146449196Y-95535143D01*
X146285143Y-95699196D01*
X146156247Y-95892102D01*
X146067462Y-96106448D01*
X146022200Y-96333997D01*
X146022200Y-96566003D01*
X146067462Y-96793552D01*
X146156247Y-97007898D01*
X146285143Y-97200804D01*
X146449196Y-97364857D01*
X146642102Y-97493753D01*
X146650424Y-97497200D01*
X138595767Y-97497200D01*
X137904628Y-96806062D01*
X137904628Y-96443750D01*
X137893130Y-96327012D01*
X137859079Y-96214761D01*
X137803783Y-96111309D01*
X137729367Y-96020633D01*
X137638691Y-95946217D01*
X137535239Y-95890921D01*
X137422988Y-95856870D01*
X137306250Y-95845372D01*
X136793750Y-95845372D01*
X136677012Y-95856870D01*
X136564761Y-95890921D01*
X136461309Y-95946217D01*
X136370633Y-96020633D01*
X136296217Y-96111309D01*
X136240921Y-96214761D01*
X136206870Y-96327012D01*
X136195372Y-96443750D01*
X136195372Y-96881250D01*
X136206870Y-96997988D01*
X136240921Y-97110239D01*
X136296217Y-97213691D01*
X136370633Y-97304367D01*
X136461309Y-97378783D01*
X136564761Y-97434079D01*
X136617245Y-97450000D01*
X136564761Y-97465921D01*
X136461309Y-97521217D01*
X136370633Y-97595633D01*
X136296217Y-97686309D01*
X136270352Y-97734700D01*
X135945766Y-97734700D01*
X134535496Y-96324430D01*
X134519753Y-96305247D01*
X134443192Y-96242415D01*
X134355844Y-96195726D01*
X134261066Y-96166976D01*
X134187192Y-96159700D01*
X134162500Y-96157268D01*
X134137808Y-96159700D01*
X133529648Y-96159700D01*
X133503783Y-96111309D01*
X133429367Y-96020633D01*
X133407637Y-96002800D01*
X134152826Y-96002800D01*
X134254182Y-96104156D01*
X134381574Y-96189277D01*
X134523124Y-96247909D01*
X134673393Y-96277800D01*
X134826607Y-96277800D01*
X134976876Y-96247909D01*
X135118426Y-96189277D01*
X135245818Y-96104156D01*
X135354156Y-95995818D01*
X135439277Y-95868426D01*
X135497909Y-95726876D01*
X135527800Y-95576607D01*
X135527800Y-95423393D01*
X135497909Y-95273124D01*
X135439277Y-95131574D01*
X135354156Y-95004182D01*
X135245818Y-94895844D01*
X135118426Y-94810723D01*
X134976876Y-94752091D01*
X134826607Y-94722200D01*
X134673393Y-94722200D01*
X134523124Y-94752091D01*
X134381574Y-94810723D01*
X134254182Y-94895844D01*
X134152826Y-94997200D01*
X130147192Y-94997200D01*
X130122500Y-94994768D01*
X130023934Y-95004476D01*
X129929155Y-95033226D01*
X129841808Y-95079915D01*
X129765247Y-95142747D01*
X129749508Y-95161925D01*
X129106062Y-95805372D01*
X128743750Y-95805372D01*
X128627012Y-95816870D01*
X128514761Y-95850921D01*
X128411309Y-95906217D01*
X128320633Y-95980633D01*
X128309088Y-95994700D01*
X108018333Y-95994700D01*
X107987500Y-95991663D01*
X107956666Y-95994700D01*
X107956664Y-95994700D01*
X107864430Y-96003784D01*
X107746089Y-96039683D01*
X107637025Y-96097978D01*
X107565382Y-96156774D01*
X107565377Y-96156779D01*
X107541431Y-96176431D01*
X107521779Y-96200377D01*
X106605075Y-97117082D01*
X106472084Y-96918047D01*
X105931953Y-96377916D01*
X105296827Y-95953538D01*
X104591113Y-95661222D01*
X103841930Y-95512200D01*
X103078070Y-95512200D01*
X102328887Y-95661222D01*
X101623173Y-95953538D01*
X100988047Y-96377916D01*
X100447916Y-96918047D01*
X100023538Y-97553173D01*
X99731222Y-98258887D01*
X99582200Y-99008070D01*
X98245920Y-99008070D01*
X98252761Y-95122548D01*
X98293919Y-94702784D01*
X98409276Y-94320703D01*
X98428792Y-94283997D01*
X144622200Y-94283997D01*
X144622200Y-94516003D01*
X144667462Y-94743552D01*
X144756247Y-94957898D01*
X144885143Y-95150804D01*
X145049196Y-95314857D01*
X145242102Y-95443753D01*
X145456448Y-95532538D01*
X145683997Y-95577800D01*
X145916003Y-95577800D01*
X146143552Y-95532538D01*
X146357898Y-95443753D01*
X146550804Y-95314857D01*
X146714857Y-95150804D01*
X146843753Y-94957898D01*
X146932538Y-94743552D01*
X146977800Y-94516003D01*
X146977800Y-94283997D01*
X156422200Y-94283997D01*
X156422200Y-94516003D01*
X156467462Y-94743552D01*
X156556247Y-94957898D01*
X156685143Y-95150804D01*
X156849196Y-95314857D01*
X157042102Y-95443753D01*
X157256448Y-95532538D01*
X157483997Y-95577800D01*
X157716003Y-95577800D01*
X157943552Y-95532538D01*
X158157898Y-95443753D01*
X158350804Y-95314857D01*
X158514857Y-95150804D01*
X158643753Y-94957898D01*
X158732538Y-94743552D01*
X158777800Y-94516003D01*
X158777800Y-94283997D01*
X158732538Y-94056448D01*
X158643753Y-93842102D01*
X158514857Y-93649196D01*
X158350804Y-93485143D01*
X158157898Y-93356247D01*
X157943552Y-93267462D01*
X157716003Y-93222200D01*
X157483997Y-93222200D01*
X157256448Y-93267462D01*
X157042102Y-93356247D01*
X156849196Y-93485143D01*
X156685143Y-93649196D01*
X156556247Y-93842102D01*
X156467462Y-94056448D01*
X156422200Y-94283997D01*
X146977800Y-94283997D01*
X146932538Y-94056448D01*
X146843753Y-93842102D01*
X146714857Y-93649196D01*
X146550804Y-93485143D01*
X146357898Y-93356247D01*
X146143552Y-93267462D01*
X145916003Y-93222200D01*
X145683997Y-93222200D01*
X145456448Y-93267462D01*
X145242102Y-93356247D01*
X145049196Y-93485143D01*
X144885143Y-93649196D01*
X144756247Y-93842102D01*
X144667462Y-94056448D01*
X144622200Y-94283997D01*
X98428792Y-94283997D01*
X98596652Y-93968299D01*
X98848906Y-93659004D01*
X99156433Y-93404595D01*
X99507522Y-93214762D01*
X99888787Y-93096741D01*
X100306854Y-93052800D01*
X171277855Y-93052800D01*
X171697216Y-93093919D01*
X171697216Y-93093919D01*
G37*
X171697216Y-93093919D02*
X172079297Y-93209276D01*
X172431701Y-93396652D01*
X172740996Y-93648906D01*
X172995405Y-93956433D01*
X173185238Y-94307522D01*
X173303259Y-94688787D01*
X173347200Y-95106854D01*
X173347201Y-123477844D01*
X173306081Y-123897217D01*
X173190723Y-124279301D01*
X173003347Y-124631702D01*
X172751092Y-124940998D01*
X172443566Y-125195405D01*
X172092479Y-125385237D01*
X171711213Y-125503259D01*
X171293138Y-125547200D01*
X143165156Y-125547200D01*
X143208426Y-125529277D01*
X143335818Y-125444156D01*
X143444156Y-125335818D01*
X143529277Y-125208426D01*
X143587909Y-125066876D01*
X143617800Y-124916607D01*
X143617800Y-124763393D01*
X143616829Y-124758513D01*
X143720715Y-124654628D01*
X143856250Y-124654628D01*
X143977865Y-124642650D01*
X144094806Y-124607176D01*
X144202580Y-124549570D01*
X144297045Y-124472045D01*
X144374570Y-124377580D01*
X144432176Y-124269806D01*
X144467650Y-124152865D01*
X144479628Y-124031250D01*
X144479628Y-123649775D01*
X144480837Y-123637500D01*
X144479628Y-123625225D01*
X144479628Y-123543750D01*
X144770372Y-123543750D01*
X144770372Y-124031250D01*
X144782350Y-124152865D01*
X144817824Y-124269806D01*
X144875430Y-124377580D01*
X144952955Y-124472045D01*
X145047420Y-124549570D01*
X145155194Y-124607176D01*
X145272135Y-124642650D01*
X145393750Y-124654628D01*
X146306250Y-124654628D01*
X146427865Y-124642650D01*
X146544806Y-124607176D01*
X146652580Y-124549570D01*
X146747045Y-124472045D01*
X146824570Y-124377580D01*
X146882176Y-124269806D01*
X146917650Y-124152865D01*
X146929628Y-124031250D01*
X146929628Y-123543750D01*
X146917650Y-123422135D01*
X146882176Y-123305194D01*
X146824570Y-123197420D01*
X146747045Y-123102955D01*
X146652580Y-123025430D01*
X146544806Y-122967824D01*
X146427865Y-122932350D01*
X146306250Y-122920372D01*
X145393750Y-122920372D01*
X145272135Y-122932350D01*
X145155194Y-122967824D01*
X145047420Y-123025430D01*
X144952955Y-123102955D01*
X144875430Y-123197420D01*
X144817824Y-123305194D01*
X144782350Y-123422135D01*
X144770372Y-123543750D01*
X144479628Y-123543750D01*
X144467650Y-123422135D01*
X144432176Y-123305194D01*
X144374570Y-123197420D01*
X144297045Y-123102955D01*
X144202580Y-123025430D01*
X144094806Y-122967824D01*
X143977865Y-122932350D01*
X143856250Y-122920372D01*
X142943750Y-122920372D01*
X142822135Y-122932350D01*
X142705194Y-122967824D01*
X142627800Y-123009192D01*
X142627800Y-121620891D01*
X142627810Y-121620789D01*
X142627810Y-121620780D01*
X142630846Y-121589954D01*
X142627810Y-121559127D01*
X142627810Y-120968828D01*
X142645844Y-120995818D01*
X142754182Y-121104156D01*
X142881574Y-121189277D01*
X143023124Y-121247909D01*
X143173393Y-121277800D01*
X143326607Y-121277800D01*
X143476876Y-121247909D01*
X143618426Y-121189277D01*
X143745818Y-121104156D01*
X143854156Y-120995818D01*
X143939277Y-120868426D01*
X143962467Y-120812441D01*
X144004182Y-120854156D01*
X144020945Y-120865357D01*
X144033227Y-120905844D01*
X144079915Y-120993191D01*
X144121437Y-121043785D01*
X144142748Y-121069753D01*
X144161926Y-121085492D01*
X144770372Y-121693938D01*
X144770372Y-122156250D01*
X144782350Y-122277865D01*
X144817824Y-122394806D01*
X144875430Y-122502580D01*
X144952955Y-122597045D01*
X145047420Y-122674570D01*
X145155194Y-122732176D01*
X145272135Y-122767650D01*
X145393750Y-122779628D01*
X146306250Y-122779628D01*
X146427865Y-122767650D01*
X146544806Y-122732176D01*
X146652580Y-122674570D01*
X146747045Y-122597045D01*
X146824570Y-122502580D01*
X146882176Y-122394806D01*
X146917650Y-122277865D01*
X146929628Y-122156250D01*
X146929628Y-121668750D01*
X146917650Y-121547135D01*
X146882176Y-121430194D01*
X146824570Y-121322420D01*
X146747045Y-121227955D01*
X146652580Y-121150430D01*
X146558064Y-121099910D01*
X146629155Y-121028819D01*
X146701983Y-120919825D01*
X146750367Y-120968210D01*
X146752091Y-120976876D01*
X146810723Y-121118426D01*
X146895844Y-121245818D01*
X147004182Y-121354156D01*
X147131574Y-121439277D01*
X147149305Y-121446621D01*
X147096217Y-121511309D01*
X147040921Y-121614761D01*
X147006870Y-121727012D01*
X146995372Y-121843750D01*
X146995372Y-122281250D01*
X147006870Y-122397988D01*
X147040921Y-122510239D01*
X147096217Y-122613691D01*
X147170633Y-122704367D01*
X147261309Y-122778783D01*
X147364761Y-122834079D01*
X147417245Y-122850000D01*
X147364761Y-122865921D01*
X147261309Y-122921217D01*
X147170633Y-122995633D01*
X147096217Y-123086309D01*
X147040921Y-123189761D01*
X147006870Y-123302012D01*
X146995372Y-123418750D01*
X146995372Y-123856250D01*
X147006870Y-123972988D01*
X147040921Y-124085239D01*
X147096217Y-124188691D01*
X147170633Y-124279367D01*
X147261309Y-124353783D01*
X147364761Y-124409079D01*
X147477012Y-124443130D01*
X147593750Y-124454628D01*
X148106250Y-124454628D01*
X148222988Y-124443130D01*
X148335239Y-124409079D01*
X148438691Y-124353783D01*
X148529367Y-124279367D01*
X148603783Y-124188691D01*
X148659079Y-124085239D01*
X148693130Y-123972988D01*
X148704628Y-123856250D01*
X148704628Y-123670714D01*
X148998243Y-123377100D01*
X148995372Y-123406250D01*
X148995372Y-123843750D01*
X149006870Y-123960488D01*
X149040921Y-124072739D01*
X149096217Y-124176191D01*
X149170633Y-124266867D01*
X149261309Y-124341283D01*
X149364761Y-124396579D01*
X149477012Y-124430630D01*
X149593750Y-124442128D01*
X149779286Y-124442128D01*
X149999128Y-124661971D01*
X150002091Y-124676866D01*
X150060723Y-124818416D01*
X150145844Y-124945808D01*
X150254182Y-125054146D01*
X150381574Y-125139267D01*
X150523124Y-125197899D01*
X150673393Y-125227790D01*
X150826607Y-125227790D01*
X150976876Y-125197899D01*
X151118426Y-125139267D01*
X151245818Y-125054146D01*
X151354156Y-124945808D01*
X151439277Y-124818416D01*
X151497909Y-124676866D01*
X151527800Y-124526597D01*
X151527800Y-124373383D01*
X151497909Y-124223114D01*
X151439277Y-124081564D01*
X151354156Y-123954172D01*
X151245818Y-123845834D01*
X151118426Y-123760713D01*
X150976876Y-123702081D01*
X150826607Y-123672190D01*
X150785033Y-123672190D01*
X150704628Y-123591786D01*
X150704628Y-123406250D01*
X150693130Y-123289512D01*
X150659079Y-123177261D01*
X150603783Y-123073809D01*
X150529367Y-122983133D01*
X150438691Y-122908717D01*
X150335239Y-122853421D01*
X150282755Y-122837500D01*
X150335239Y-122821579D01*
X150438691Y-122766283D01*
X150529367Y-122691867D01*
X150540912Y-122677800D01*
X151148830Y-122677800D01*
X151170633Y-122704367D01*
X151261309Y-122778783D01*
X151364761Y-122834079D01*
X151477012Y-122868130D01*
X151593750Y-122879628D01*
X152106250Y-122879628D01*
X152222988Y-122868130D01*
X152335239Y-122834079D01*
X152438691Y-122778783D01*
X152529367Y-122704367D01*
X152603783Y-122613691D01*
X152659079Y-122510239D01*
X152693130Y-122397988D01*
X152704628Y-122281250D01*
X152704628Y-121843750D01*
X152693130Y-121727012D01*
X152659079Y-121614761D01*
X152603783Y-121511309D01*
X152529367Y-121420633D01*
X152438691Y-121346217D01*
X152335239Y-121290921D01*
X152222988Y-121256870D01*
X152106250Y-121245372D01*
X151593750Y-121245372D01*
X151477012Y-121256870D01*
X151364761Y-121290921D01*
X151261309Y-121346217D01*
X151170633Y-121420633D01*
X151169347Y-121422200D01*
X151153346Y-121422200D01*
X151189277Y-121368426D01*
X151247909Y-121226876D01*
X151277800Y-121076607D01*
X151277800Y-120923393D01*
X151247909Y-120773124D01*
X151189277Y-120631574D01*
X151104156Y-120504182D01*
X150995818Y-120395844D01*
X150868426Y-120310723D01*
X150726876Y-120252091D01*
X150576607Y-120222200D01*
X150527800Y-120222200D01*
X150527800Y-120085883D01*
X150497909Y-119935614D01*
X150439277Y-119794064D01*
X150354156Y-119666672D01*
X150245818Y-119558334D01*
X150118426Y-119473213D01*
X149978612Y-119415300D01*
X151309088Y-119415300D01*
X151320633Y-119429367D01*
X151411309Y-119503783D01*
X151514761Y-119559079D01*
X151627012Y-119593130D01*
X151743750Y-119604628D01*
X152256250Y-119604628D01*
X152372988Y-119593130D01*
X152485239Y-119559079D01*
X152526914Y-119536803D01*
X152560723Y-119618426D01*
X152645844Y-119745818D01*
X152754182Y-119854156D01*
X152881574Y-119939277D01*
X153023124Y-119997909D01*
X153173393Y-120027800D01*
X153326607Y-120027800D01*
X153476876Y-119997909D01*
X153618426Y-119939277D01*
X153622201Y-119936755D01*
X153622201Y-121245372D01*
X153593750Y-121245372D01*
X153477012Y-121256870D01*
X153364761Y-121290921D01*
X153261309Y-121346217D01*
X153170633Y-121420633D01*
X153096217Y-121511309D01*
X153040921Y-121614761D01*
X153006870Y-121727012D01*
X152995372Y-121843750D01*
X152995372Y-122281250D01*
X153006870Y-122397988D01*
X153040921Y-122510239D01*
X153096217Y-122613691D01*
X153170633Y-122704367D01*
X153261309Y-122778783D01*
X153364761Y-122834079D01*
X153417245Y-122850000D01*
X153364761Y-122865921D01*
X153261309Y-122921217D01*
X153170633Y-122995633D01*
X153096217Y-123086309D01*
X153040921Y-123189761D01*
X153006870Y-123302012D01*
X152995372Y-123418750D01*
X152995372Y-123856250D01*
X153006870Y-123972988D01*
X153040921Y-124085239D01*
X153096217Y-124188691D01*
X153170633Y-124279367D01*
X153261309Y-124353783D01*
X153364761Y-124409079D01*
X153477012Y-124443130D01*
X153593750Y-124454628D01*
X154106250Y-124454628D01*
X154222988Y-124443130D01*
X154335239Y-124409079D01*
X154438691Y-124353783D01*
X154529367Y-124279367D01*
X154540912Y-124265300D01*
X155159088Y-124265300D01*
X155170633Y-124279367D01*
X155261309Y-124353783D01*
X155364761Y-124409079D01*
X155477012Y-124443130D01*
X155593750Y-124454628D01*
X155779285Y-124454628D01*
X156596781Y-125272124D01*
X156616433Y-125296071D01*
X156640379Y-125315723D01*
X156640384Y-125315728D01*
X156712027Y-125374524D01*
X156771576Y-125406353D01*
X156821091Y-125432819D01*
X156939432Y-125468718D01*
X157031666Y-125477802D01*
X157031676Y-125477802D01*
X157062502Y-125480838D01*
X157093328Y-125477802D01*
X159127176Y-125477802D01*
X159158002Y-125480838D01*
X159188828Y-125477802D01*
X159188838Y-125477802D01*
X159281072Y-125468718D01*
X159399413Y-125432819D01*
X159508476Y-125374524D01*
X159604071Y-125296071D01*
X159623732Y-125272114D01*
X160022119Y-124873728D01*
X160046071Y-124854071D01*
X160124524Y-124758476D01*
X160182819Y-124649413D01*
X160218718Y-124531072D01*
X160227802Y-124438838D01*
X160227802Y-124438829D01*
X160230838Y-124408003D01*
X160227802Y-124377177D01*
X160227802Y-123372823D01*
X160230838Y-123341997D01*
X160227802Y-123311171D01*
X160227802Y-123311162D01*
X160218718Y-123218928D01*
X160182819Y-123100587D01*
X160127800Y-122997653D01*
X160127800Y-112130826D01*
X160130836Y-112100000D01*
X160127800Y-112069174D01*
X160127800Y-112069164D01*
X160118716Y-111976930D01*
X160082817Y-111858589D01*
X160024522Y-111749526D01*
X160001185Y-111721090D01*
X159965726Y-111677882D01*
X159965721Y-111677877D01*
X159946069Y-111653931D01*
X159922124Y-111634280D01*
X157627800Y-109339958D01*
X157627800Y-109180836D01*
X157630837Y-109150000D01*
X157627800Y-109119164D01*
X157627800Y-108969164D01*
X157618716Y-108876930D01*
X157582817Y-108758589D01*
X157524522Y-108649526D01*
X157446069Y-108553931D01*
X157350473Y-108475478D01*
X157241410Y-108417183D01*
X157123069Y-108381284D01*
X157000000Y-108369163D01*
X156972531Y-108371868D01*
X156894806Y-108330324D01*
X156777865Y-108294850D01*
X156656250Y-108282872D01*
X155743750Y-108282872D01*
X155622135Y-108294850D01*
X155505194Y-108330324D01*
X155397420Y-108387930D01*
X155302955Y-108465455D01*
X155258214Y-108519973D01*
X155250000Y-108519164D01*
X155219174Y-108522200D01*
X155219164Y-108522200D01*
X155126930Y-108531284D01*
X155008589Y-108567183D01*
X154899525Y-108625478D01*
X154827882Y-108684274D01*
X154827877Y-108684279D01*
X154803931Y-108703931D01*
X154784278Y-108727878D01*
X154339957Y-109172200D01*
X153143983Y-109172200D01*
X153245818Y-109104156D01*
X153354156Y-108995818D01*
X153439277Y-108868426D01*
X153497909Y-108726876D01*
X153527800Y-108576607D01*
X153527800Y-108423393D01*
X153497909Y-108273124D01*
X153439277Y-108131574D01*
X153354156Y-108004182D01*
X153245818Y-107895844D01*
X153118426Y-107810723D01*
X152976876Y-107752091D01*
X152826607Y-107722200D01*
X152673393Y-107722200D01*
X152523124Y-107752091D01*
X152381574Y-107810723D01*
X152254182Y-107895844D01*
X152145844Y-108004182D01*
X152133805Y-108022200D01*
X147290133Y-108022200D01*
X147275731Y-107974723D01*
X147240649Y-107909090D01*
X147193438Y-107851562D01*
X147135910Y-107804351D01*
X147096702Y-107783394D01*
X147095524Y-107771434D01*
X147066774Y-107676656D01*
X147020085Y-107589308D01*
X146957253Y-107512747D01*
X146938066Y-107497000D01*
X146897997Y-107456931D01*
X146882252Y-107437746D01*
X146805691Y-107374914D01*
X146718343Y-107328225D01*
X146623565Y-107299475D01*
X146549691Y-107292199D01*
X146524999Y-107289767D01*
X146500307Y-107292199D01*
X141229682Y-107292199D01*
X141205000Y-107289768D01*
X141180318Y-107292199D01*
X141180309Y-107292199D01*
X141106435Y-107299475D01*
X141011657Y-107328225D01*
X140924309Y-107374914D01*
X140847748Y-107437746D01*
X140832005Y-107456929D01*
X139833924Y-108455010D01*
X139826876Y-108452091D01*
X139676607Y-108422200D01*
X139523393Y-108422200D01*
X139373124Y-108452091D01*
X139231574Y-108510723D01*
X139104182Y-108595844D01*
X138995844Y-108704182D01*
X138910723Y-108831574D01*
X138852091Y-108973124D01*
X138822200Y-109123393D01*
X138822200Y-109276607D01*
X138852091Y-109426876D01*
X138891571Y-109522190D01*
X138199702Y-109522190D01*
X138175010Y-109519758D01*
X138076444Y-109529466D01*
X137981666Y-109558216D01*
X137894318Y-109604905D01*
X137844160Y-109646069D01*
X137817757Y-109667737D01*
X137802018Y-109686915D01*
X136261922Y-111227012D01*
X136242748Y-111242748D01*
X136227012Y-111261922D01*
X136227007Y-111261927D01*
X136198708Y-111296410D01*
X136179915Y-111319309D01*
X136133227Y-111406656D01*
X136104476Y-111501435D01*
X136094768Y-111600000D01*
X136095719Y-111609654D01*
X135997995Y-111511930D01*
X135982252Y-111492747D01*
X135905691Y-111429915D01*
X135818343Y-111383226D01*
X135723565Y-111354476D01*
X135649691Y-111347200D01*
X135624999Y-111344768D01*
X135600307Y-111347200D01*
X134242531Y-111347200D01*
X134190276Y-111319269D01*
X134119061Y-111297666D01*
X134044999Y-111290372D01*
X133384999Y-111290372D01*
X133310937Y-111297666D01*
X133239722Y-111319269D01*
X133174089Y-111354351D01*
X133116561Y-111401562D01*
X133069350Y-111459090D01*
X133034268Y-111524723D01*
X133012665Y-111595938D01*
X133005371Y-111670000D01*
X133005371Y-112030000D01*
X133012665Y-112104062D01*
X133034184Y-112175000D01*
X133012665Y-112245938D01*
X133005371Y-112320000D01*
X133005371Y-112680000D01*
X133012665Y-112754062D01*
X133033426Y-112822500D01*
X133012665Y-112890938D01*
X133005371Y-112965000D01*
X133005371Y-113297200D01*
X130835779Y-113297200D01*
X130726876Y-113252091D01*
X130576607Y-113222200D01*
X130423393Y-113222200D01*
X130273124Y-113252091D01*
X130131574Y-113310723D01*
X130004182Y-113395844D01*
X129895844Y-113504182D01*
X129810723Y-113631574D01*
X129752091Y-113773124D01*
X129722200Y-113923393D01*
X129722200Y-114076607D01*
X129752091Y-114226876D01*
X129810723Y-114368426D01*
X129895844Y-114495818D01*
X130004182Y-114604156D01*
X130131574Y-114689277D01*
X130273124Y-114747909D01*
X130381656Y-114769498D01*
X133872200Y-118260043D01*
X133872201Y-119219164D01*
X133869164Y-119250000D01*
X133881285Y-119373070D01*
X133917183Y-119491410D01*
X133948500Y-119550000D01*
X133975479Y-119600474D01*
X134053932Y-119696069D01*
X134077883Y-119715726D01*
X134872200Y-120510043D01*
X134872201Y-121244155D01*
X134872200Y-121244165D01*
X134872201Y-122469164D01*
X134869164Y-122500000D01*
X134881285Y-122623070D01*
X134917183Y-122741410D01*
X134937611Y-122779628D01*
X134975479Y-122850474D01*
X135053932Y-122946069D01*
X135077884Y-122965726D01*
X136159274Y-124047117D01*
X136178931Y-124071069D01*
X136274526Y-124149522D01*
X136284936Y-124155086D01*
X136296217Y-124176191D01*
X136370633Y-124266867D01*
X136461309Y-124341283D01*
X136564761Y-124396579D01*
X136677012Y-124430630D01*
X136793750Y-124442128D01*
X136979284Y-124442128D01*
X137089494Y-124552338D01*
X137089505Y-124552347D01*
X137484284Y-124947127D01*
X137503941Y-124971079D01*
X137599536Y-125049532D01*
X137708599Y-125107827D01*
X137826940Y-125143726D01*
X137919174Y-125152810D01*
X137919183Y-125152810D01*
X137950009Y-125155846D01*
X137980835Y-125152810D01*
X140131664Y-125152810D01*
X140162490Y-125155846D01*
X140193316Y-125152810D01*
X140193326Y-125152810D01*
X140285560Y-125143726D01*
X140403901Y-125107827D01*
X140512964Y-125049532D01*
X140608559Y-124971079D01*
X140628220Y-124947122D01*
X141120715Y-124454628D01*
X141256250Y-124454628D01*
X141372988Y-124443130D01*
X141485239Y-124409079D01*
X141588691Y-124353783D01*
X141679367Y-124279367D01*
X141690912Y-124265300D01*
X141819174Y-124265300D01*
X141850000Y-124268336D01*
X141880826Y-124265300D01*
X141880836Y-124265300D01*
X141973070Y-124256216D01*
X142091411Y-124220317D01*
X142200474Y-124162022D01*
X142296069Y-124083569D01*
X142315730Y-124059612D01*
X142322499Y-124052843D01*
X142332350Y-124152865D01*
X142355273Y-124228433D01*
X142344182Y-124235844D01*
X142235844Y-124344182D01*
X142150723Y-124471574D01*
X142092091Y-124613124D01*
X142062200Y-124763393D01*
X142062200Y-124916607D01*
X142092091Y-125066876D01*
X142150723Y-125208426D01*
X142235844Y-125335818D01*
X142344182Y-125444156D01*
X142471574Y-125529277D01*
X142514844Y-125547200D01*
X100272146Y-125547200D01*
X99852783Y-125506081D01*
X99470699Y-125390723D01*
X99118298Y-125203347D01*
X98809002Y-124951092D01*
X98554595Y-124643566D01*
X98364763Y-124292479D01*
X98246741Y-123911213D01*
X98202812Y-123493256D01*
X98227536Y-109449999D01*
X124345372Y-109449999D01*
X124345372Y-110150001D01*
X124357470Y-110272835D01*
X124393300Y-110390949D01*
X124451483Y-110499803D01*
X124529785Y-110595215D01*
X124625197Y-110673517D01*
X124734051Y-110731700D01*
X124852165Y-110767530D01*
X124974999Y-110779628D01*
X126225001Y-110779628D01*
X126347835Y-110767530D01*
X126465949Y-110731700D01*
X126574803Y-110673517D01*
X126670215Y-110595215D01*
X126748517Y-110499803D01*
X126806700Y-110390949D01*
X126842530Y-110272835D01*
X126854628Y-110150001D01*
X126854628Y-109449999D01*
X126842530Y-109327165D01*
X126806700Y-109209051D01*
X126748517Y-109100197D01*
X126670215Y-109004785D01*
X126574803Y-108926483D01*
X126465949Y-108868300D01*
X126347835Y-108832470D01*
X126225001Y-108820372D01*
X124974999Y-108820372D01*
X124852165Y-108832470D01*
X124734051Y-108868300D01*
X124625197Y-108926483D01*
X124529785Y-109004785D01*
X124451483Y-109100197D01*
X124393300Y-109209051D01*
X124357470Y-109327165D01*
X124345372Y-109449999D01*
X98227536Y-109449999D01*
X98230441Y-107800000D01*
X124342469Y-107800000D01*
X124361348Y-107991682D01*
X124417260Y-108175998D01*
X124508055Y-108345865D01*
X124630246Y-108494754D01*
X124779135Y-108616945D01*
X124949002Y-108707740D01*
X125133318Y-108763652D01*
X125276965Y-108777800D01*
X125923035Y-108777800D01*
X126066682Y-108763652D01*
X126250998Y-108707740D01*
X126420865Y-108616945D01*
X126569754Y-108494754D01*
X126691945Y-108345865D01*
X126782740Y-108175998D01*
X126838652Y-107991682D01*
X126857531Y-107800000D01*
X126838652Y-107608318D01*
X126782740Y-107424002D01*
X126691945Y-107254135D01*
X126569754Y-107105246D01*
X126479591Y-107031250D01*
X155120372Y-107031250D01*
X155120372Y-107518750D01*
X155132350Y-107640365D01*
X155167824Y-107757306D01*
X155225430Y-107865080D01*
X155302955Y-107959545D01*
X155397420Y-108037070D01*
X155505194Y-108094676D01*
X155622135Y-108130150D01*
X155743750Y-108142128D01*
X156656250Y-108142128D01*
X156777865Y-108130150D01*
X156894806Y-108094676D01*
X156902993Y-108090300D01*
X157709088Y-108090300D01*
X157720633Y-108104367D01*
X157811309Y-108178783D01*
X157914761Y-108234079D01*
X158027012Y-108268130D01*
X158143750Y-108279628D01*
X158656250Y-108279628D01*
X158772988Y-108268130D01*
X158884087Y-108234429D01*
X166285284Y-115635627D01*
X165758047Y-115987916D01*
X165217916Y-116528047D01*
X164793538Y-117163173D01*
X164501222Y-117868887D01*
X164352200Y-118618070D01*
X164352200Y-119381930D01*
X164501222Y-120131113D01*
X164793538Y-120836827D01*
X165217916Y-121471953D01*
X165758047Y-122012084D01*
X166393173Y-122436462D01*
X167098887Y-122728778D01*
X167848070Y-122877800D01*
X168611930Y-122877800D01*
X169361113Y-122728778D01*
X170066827Y-122436462D01*
X170701953Y-122012084D01*
X171242084Y-121471953D01*
X171666462Y-120836827D01*
X171958778Y-120131113D01*
X172107800Y-119381930D01*
X172107800Y-118618070D01*
X171958778Y-117868887D01*
X171666462Y-117163173D01*
X171242084Y-116528047D01*
X170701953Y-115987916D01*
X170066827Y-115563538D01*
X169361113Y-115271222D01*
X168611930Y-115122200D01*
X167848070Y-115122200D01*
X167597404Y-115172061D01*
X159465730Y-107040388D01*
X159446069Y-107016431D01*
X159350474Y-106937978D01*
X159241411Y-106879683D01*
X159123070Y-106843784D01*
X159096194Y-106841137D01*
X159079367Y-106820633D01*
X158988691Y-106746217D01*
X158885239Y-106690921D01*
X158772988Y-106656870D01*
X158656250Y-106645372D01*
X158143750Y-106645372D01*
X158027012Y-106656870D01*
X157914761Y-106690921D01*
X157811309Y-106746217D01*
X157720633Y-106820633D01*
X157709088Y-106834700D01*
X157244919Y-106834700D01*
X157232176Y-106792694D01*
X157174570Y-106684920D01*
X157097045Y-106590455D01*
X157002580Y-106512930D01*
X156894806Y-106455324D01*
X156777865Y-106419850D01*
X156656250Y-106407872D01*
X155743750Y-106407872D01*
X155622135Y-106419850D01*
X155505194Y-106455324D01*
X155397420Y-106512930D01*
X155302955Y-106590455D01*
X155225430Y-106684920D01*
X155167824Y-106792694D01*
X155132350Y-106909635D01*
X155120372Y-107031250D01*
X126479591Y-107031250D01*
X126420865Y-106983055D01*
X126250998Y-106892260D01*
X126066682Y-106836348D01*
X125923035Y-106822200D01*
X125276965Y-106822200D01*
X125133318Y-106836348D01*
X124949002Y-106892260D01*
X124779135Y-106983055D01*
X124630246Y-107105246D01*
X124508055Y-107254135D01*
X124417260Y-107424002D01*
X124361348Y-107608318D01*
X124342469Y-107800000D01*
X98230441Y-107800000D01*
X98237687Y-103683997D01*
X144622200Y-103683997D01*
X144622200Y-103916003D01*
X144667462Y-104143552D01*
X144756247Y-104357898D01*
X144885143Y-104550804D01*
X145049196Y-104714857D01*
X145242102Y-104843753D01*
X145456448Y-104932538D01*
X145683997Y-104977800D01*
X145916003Y-104977800D01*
X146143552Y-104932538D01*
X146357898Y-104843753D01*
X146550804Y-104714857D01*
X146714857Y-104550804D01*
X146843753Y-104357898D01*
X146932538Y-104143552D01*
X146977800Y-103916003D01*
X146977800Y-103683997D01*
X156422200Y-103683997D01*
X156422200Y-103916003D01*
X156467462Y-104143552D01*
X156556247Y-104357898D01*
X156685143Y-104550804D01*
X156849196Y-104714857D01*
X157042102Y-104843753D01*
X157256448Y-104932538D01*
X157483997Y-104977800D01*
X157716003Y-104977800D01*
X157943552Y-104932538D01*
X158157898Y-104843753D01*
X158350804Y-104714857D01*
X158514857Y-104550804D01*
X158643753Y-104357898D01*
X158732538Y-104143552D01*
X158777800Y-103916003D01*
X158777800Y-103683997D01*
X158732538Y-103456448D01*
X158643753Y-103242102D01*
X158514857Y-103049196D01*
X158350804Y-102885143D01*
X158157898Y-102756247D01*
X157943552Y-102667462D01*
X157716003Y-102622200D01*
X157483997Y-102622200D01*
X157256448Y-102667462D01*
X157042102Y-102756247D01*
X156849196Y-102885143D01*
X156685143Y-103049196D01*
X156556247Y-103242102D01*
X156467462Y-103456448D01*
X156422200Y-103683997D01*
X146977800Y-103683997D01*
X146932538Y-103456448D01*
X146843753Y-103242102D01*
X146714857Y-103049196D01*
X146550804Y-102885143D01*
X146357898Y-102756247D01*
X146143552Y-102667462D01*
X145916003Y-102622200D01*
X145683997Y-102622200D01*
X145456448Y-102667462D01*
X145242102Y-102756247D01*
X145049196Y-102885143D01*
X144885143Y-103049196D01*
X144756247Y-103242102D01*
X144667462Y-103456448D01*
X144622200Y-103683997D01*
X98237687Y-103683997D01*
X98245920Y-99008070D01*
X99582200Y-99008070D01*
X99582200Y-99771930D01*
X99731222Y-100521113D01*
X100023538Y-101226827D01*
X100447916Y-101861953D01*
X100988047Y-102402084D01*
X101623173Y-102826462D01*
X102328887Y-103118778D01*
X103078070Y-103267800D01*
X103841930Y-103267800D01*
X104591113Y-103118778D01*
X105296827Y-102826462D01*
X105931953Y-102402084D01*
X106472084Y-101861953D01*
X106896462Y-101226827D01*
X107188778Y-100521113D01*
X107337800Y-99771930D01*
X107337800Y-99008070D01*
X107197103Y-98300740D01*
X108247544Y-97250300D01*
X128309088Y-97250300D01*
X128320633Y-97264367D01*
X128411309Y-97338783D01*
X128514761Y-97394079D01*
X128627012Y-97428130D01*
X128743750Y-97439628D01*
X129256250Y-97439628D01*
X129372988Y-97428130D01*
X129485239Y-97394079D01*
X129588691Y-97338783D01*
X129679367Y-97264367D01*
X129753783Y-97173691D01*
X129809079Y-97070239D01*
X129843130Y-96957988D01*
X129854628Y-96841250D01*
X129854628Y-96478938D01*
X130330767Y-96002800D01*
X132092363Y-96002800D01*
X132070633Y-96020633D01*
X131996217Y-96111309D01*
X131940921Y-96214761D01*
X131906870Y-96327012D01*
X131895372Y-96443750D01*
X131895372Y-96881250D01*
X131906870Y-96997988D01*
X131940921Y-97110239D01*
X131996217Y-97213691D01*
X132070633Y-97304367D01*
X132161309Y-97378783D01*
X132264761Y-97434079D01*
X132377012Y-97468130D01*
X132493750Y-97479628D01*
X133006250Y-97479628D01*
X133122988Y-97468130D01*
X133235239Y-97434079D01*
X133338691Y-97378783D01*
X133429367Y-97304367D01*
X133503783Y-97213691D01*
X133529648Y-97165300D01*
X133954234Y-97165300D01*
X135364504Y-98575570D01*
X135380247Y-98594753D01*
X135456808Y-98657585D01*
X135544156Y-98704274D01*
X135638934Y-98733024D01*
X135712808Y-98740300D01*
X135712817Y-98740300D01*
X135737499Y-98742731D01*
X135762181Y-98740300D01*
X136270352Y-98740300D01*
X136296217Y-98788691D01*
X136370633Y-98879367D01*
X136461309Y-98953783D01*
X136564761Y-99009079D01*
X136677012Y-99043130D01*
X136793750Y-99054628D01*
X137156062Y-99054628D01*
X140189506Y-102088073D01*
X140205247Y-102107253D01*
X140281808Y-102170085D01*
X140369156Y-102216774D01*
X140463934Y-102245524D01*
X140537808Y-102252800D01*
X140537815Y-102252800D01*
X140562499Y-102255231D01*
X140587184Y-102252800D01*
X146133425Y-102252800D01*
X146156247Y-102307898D01*
X146285143Y-102500804D01*
X146449196Y-102664857D01*
X146642102Y-102793753D01*
X146856448Y-102882538D01*
X147083997Y-102927800D01*
X147316003Y-102927800D01*
X147543552Y-102882538D01*
X147757898Y-102793753D01*
X147950804Y-102664857D01*
X148114857Y-102500804D01*
X148243753Y-102307898D01*
X148332538Y-102093552D01*
X148377800Y-101866003D01*
X148377800Y-101633997D01*
X148332538Y-101406448D01*
X148243753Y-101192102D01*
X148114857Y-100999196D01*
X147950804Y-100835143D01*
X147757898Y-100706247D01*
X147543552Y-100617462D01*
X147316003Y-100572200D01*
X147083997Y-100572200D01*
X146856448Y-100617462D01*
X146642102Y-100706247D01*
X146449196Y-100835143D01*
X146285143Y-100999196D01*
X146156247Y-101192102D01*
X146133425Y-101247200D01*
X140770767Y-101247200D01*
X137904628Y-98381062D01*
X137904628Y-98228195D01*
X138014506Y-98338073D01*
X138030247Y-98357253D01*
X138049425Y-98372992D01*
X138049426Y-98372993D01*
X138106808Y-98420085D01*
X138194156Y-98466774D01*
X138288934Y-98495524D01*
X138387500Y-98505232D01*
X138412192Y-98502800D01*
X149241734Y-98502800D01*
X152090284Y-101351350D01*
X152067462Y-101406448D01*
X152022200Y-101633997D01*
X152022200Y-101866003D01*
X152067462Y-102093552D01*
X152156247Y-102307898D01*
X152199213Y-102372201D01*
X151533268Y-102372201D01*
X151309716Y-102148649D01*
X151332538Y-102093552D01*
X151377800Y-101866003D01*
X151377800Y-101633997D01*
X151332538Y-101406448D01*
X151243753Y-101192102D01*
X151114857Y-100999196D01*
X150950804Y-100835143D01*
X150757898Y-100706247D01*
X150543552Y-100617462D01*
X150316003Y-100572200D01*
X150083997Y-100572200D01*
X149856448Y-100617462D01*
X149642102Y-100706247D01*
X149449196Y-100835143D01*
X149285143Y-100999196D01*
X149156247Y-101192102D01*
X149067462Y-101406448D01*
X149022200Y-101633997D01*
X149022200Y-101866003D01*
X149067462Y-102093552D01*
X149156247Y-102307898D01*
X149285143Y-102500804D01*
X149449196Y-102664857D01*
X149642102Y-102793753D01*
X149856448Y-102882538D01*
X150083997Y-102927800D01*
X150316003Y-102927800D01*
X150543552Y-102882538D01*
X150598649Y-102859716D01*
X150952009Y-103213076D01*
X150967748Y-103232254D01*
X150986926Y-103247993D01*
X150986927Y-103247994D01*
X151044309Y-103295086D01*
X151131657Y-103341775D01*
X151226435Y-103370525D01*
X151325001Y-103380233D01*
X151349693Y-103377801D01*
X153850307Y-103377801D01*
X153874999Y-103380233D01*
X153899691Y-103377801D01*
X153973565Y-103370525D01*
X154068343Y-103341775D01*
X154155691Y-103295086D01*
X154232252Y-103232254D01*
X154247995Y-103213071D01*
X155155345Y-102305721D01*
X155156247Y-102307898D01*
X155285143Y-102500804D01*
X155449196Y-102664857D01*
X155642102Y-102793753D01*
X155856448Y-102882538D01*
X156083997Y-102927800D01*
X156316003Y-102927800D01*
X156543552Y-102882538D01*
X156757898Y-102793753D01*
X156950804Y-102664857D01*
X157114857Y-102500804D01*
X157243753Y-102307898D01*
X157332538Y-102093552D01*
X157377800Y-101866003D01*
X157377800Y-101633997D01*
X157332538Y-101406448D01*
X157243753Y-101192102D01*
X157114857Y-100999196D01*
X156950804Y-100835143D01*
X156757898Y-100706247D01*
X156543552Y-100617462D01*
X156316003Y-100572200D01*
X156083997Y-100572200D01*
X155856448Y-100617462D01*
X155642102Y-100706247D01*
X155577799Y-100749213D01*
X155577799Y-97783267D01*
X155801350Y-97559716D01*
X155856448Y-97582538D01*
X156083997Y-97627800D01*
X156316003Y-97627800D01*
X156543552Y-97582538D01*
X156757898Y-97493753D01*
X156950804Y-97364857D01*
X157114857Y-97200804D01*
X157243753Y-97007898D01*
X157332538Y-96793552D01*
X157377800Y-96566003D01*
X157377800Y-96333997D01*
X157332538Y-96106448D01*
X157243753Y-95892102D01*
X157114857Y-95699196D01*
X156950804Y-95535143D01*
X156757898Y-95406247D01*
X156543552Y-95317462D01*
X156316003Y-95272200D01*
X156083997Y-95272200D01*
X155856448Y-95317462D01*
X155642102Y-95406247D01*
X155449196Y-95535143D01*
X155285143Y-95699196D01*
X155156247Y-95892102D01*
X155067462Y-96106448D01*
X155022200Y-96333997D01*
X155022200Y-96566003D01*
X155067462Y-96793552D01*
X155090284Y-96848650D01*
X154736925Y-97202009D01*
X154717747Y-97217748D01*
X154702008Y-97236926D01*
X154702006Y-97236928D01*
X154654914Y-97294310D01*
X154608226Y-97381657D01*
X154579475Y-97476436D01*
X154569767Y-97575001D01*
X154572200Y-97599703D01*
X154572199Y-101466735D01*
X154377800Y-101661134D01*
X154377800Y-101633997D01*
X154332538Y-101406448D01*
X154243753Y-101192102D01*
X154114857Y-100999196D01*
X153950804Y-100835143D01*
X153757898Y-100706247D01*
X153543552Y-100617462D01*
X153316003Y-100572200D01*
X153083997Y-100572200D01*
X152856448Y-100617462D01*
X152801350Y-100640284D01*
X149902801Y-97741735D01*
X149902801Y-97591758D01*
X150083997Y-97627800D01*
X150316003Y-97627800D01*
X150543552Y-97582538D01*
X150757898Y-97493753D01*
X150950804Y-97364857D01*
X151114857Y-97200804D01*
X151243753Y-97007898D01*
X151332538Y-96793552D01*
X151377800Y-96566003D01*
X151377800Y-96333997D01*
X151332538Y-96106448D01*
X151243753Y-95892102D01*
X151200787Y-95827799D01*
X151866733Y-95827799D01*
X152090284Y-96051350D01*
X152067462Y-96106448D01*
X152022200Y-96333997D01*
X152022200Y-96566003D01*
X152067462Y-96793552D01*
X152156247Y-97007898D01*
X152285143Y-97200804D01*
X152449196Y-97364857D01*
X152642102Y-97493753D01*
X152856448Y-97582538D01*
X153083997Y-97627800D01*
X153316003Y-97627800D01*
X153543552Y-97582538D01*
X153757898Y-97493753D01*
X153950804Y-97364857D01*
X154114857Y-97200804D01*
X154243753Y-97007898D01*
X154332538Y-96793552D01*
X154377800Y-96566003D01*
X154377800Y-96333997D01*
X154332538Y-96106448D01*
X154243753Y-95892102D01*
X154114857Y-95699196D01*
X153950804Y-95535143D01*
X153757898Y-95406247D01*
X153543552Y-95317462D01*
X153316003Y-95272200D01*
X153083997Y-95272200D01*
X152856448Y-95317462D01*
X152801350Y-95340284D01*
X152447995Y-94986929D01*
X152432252Y-94967746D01*
X152355691Y-94904914D01*
X152268343Y-94858225D01*
X152173565Y-94829475D01*
X152099691Y-94822199D01*
X152074999Y-94819767D01*
X152050307Y-94822199D01*
X148349685Y-94822199D01*
X148325000Y-94819768D01*
X148300316Y-94822199D01*
X148300309Y-94822199D01*
X148226435Y-94829475D01*
X148131657Y-94858225D01*
X148044309Y-94904914D01*
X147967748Y-94967746D01*
X147952005Y-94986929D01*
X147598650Y-95340284D01*
X147543552Y-95317462D01*
X147316003Y-95272200D01*
X147083997Y-95272200D01*
X146856448Y-95317462D01*
X146642102Y-95406247D01*
X146449196Y-95535143D01*
X146285143Y-95699196D01*
X146156247Y-95892102D01*
X146067462Y-96106448D01*
X146022200Y-96333997D01*
X146022200Y-96566003D01*
X146067462Y-96793552D01*
X146156247Y-97007898D01*
X146285143Y-97200804D01*
X146449196Y-97364857D01*
X146642102Y-97493753D01*
X146650424Y-97497200D01*
X138595767Y-97497200D01*
X137904628Y-96806062D01*
X137904628Y-96443750D01*
X137893130Y-96327012D01*
X137859079Y-96214761D01*
X137803783Y-96111309D01*
X137729367Y-96020633D01*
X137638691Y-95946217D01*
X137535239Y-95890921D01*
X137422988Y-95856870D01*
X137306250Y-95845372D01*
X136793750Y-95845372D01*
X136677012Y-95856870D01*
X136564761Y-95890921D01*
X136461309Y-95946217D01*
X136370633Y-96020633D01*
X136296217Y-96111309D01*
X136240921Y-96214761D01*
X136206870Y-96327012D01*
X136195372Y-96443750D01*
X136195372Y-96881250D01*
X136206870Y-96997988D01*
X136240921Y-97110239D01*
X136296217Y-97213691D01*
X136370633Y-97304367D01*
X136461309Y-97378783D01*
X136564761Y-97434079D01*
X136617245Y-97450000D01*
X136564761Y-97465921D01*
X136461309Y-97521217D01*
X136370633Y-97595633D01*
X136296217Y-97686309D01*
X136270352Y-97734700D01*
X135945766Y-97734700D01*
X134535496Y-96324430D01*
X134519753Y-96305247D01*
X134443192Y-96242415D01*
X134355844Y-96195726D01*
X134261066Y-96166976D01*
X134187192Y-96159700D01*
X134162500Y-96157268D01*
X134137808Y-96159700D01*
X133529648Y-96159700D01*
X133503783Y-96111309D01*
X133429367Y-96020633D01*
X133407637Y-96002800D01*
X134152826Y-96002800D01*
X134254182Y-96104156D01*
X134381574Y-96189277D01*
X134523124Y-96247909D01*
X134673393Y-96277800D01*
X134826607Y-96277800D01*
X134976876Y-96247909D01*
X135118426Y-96189277D01*
X135245818Y-96104156D01*
X135354156Y-95995818D01*
X135439277Y-95868426D01*
X135497909Y-95726876D01*
X135527800Y-95576607D01*
X135527800Y-95423393D01*
X135497909Y-95273124D01*
X135439277Y-95131574D01*
X135354156Y-95004182D01*
X135245818Y-94895844D01*
X135118426Y-94810723D01*
X134976876Y-94752091D01*
X134826607Y-94722200D01*
X134673393Y-94722200D01*
X134523124Y-94752091D01*
X134381574Y-94810723D01*
X134254182Y-94895844D01*
X134152826Y-94997200D01*
X130147192Y-94997200D01*
X130122500Y-94994768D01*
X130023934Y-95004476D01*
X129929155Y-95033226D01*
X129841808Y-95079915D01*
X129765247Y-95142747D01*
X129749508Y-95161925D01*
X129106062Y-95805372D01*
X128743750Y-95805372D01*
X128627012Y-95816870D01*
X128514761Y-95850921D01*
X128411309Y-95906217D01*
X128320633Y-95980633D01*
X128309088Y-95994700D01*
X108018333Y-95994700D01*
X107987500Y-95991663D01*
X107956666Y-95994700D01*
X107956664Y-95994700D01*
X107864430Y-96003784D01*
X107746089Y-96039683D01*
X107637025Y-96097978D01*
X107565382Y-96156774D01*
X107565377Y-96156779D01*
X107541431Y-96176431D01*
X107521779Y-96200377D01*
X106605075Y-97117082D01*
X106472084Y-96918047D01*
X105931953Y-96377916D01*
X105296827Y-95953538D01*
X104591113Y-95661222D01*
X103841930Y-95512200D01*
X103078070Y-95512200D01*
X102328887Y-95661222D01*
X101623173Y-95953538D01*
X100988047Y-96377916D01*
X100447916Y-96918047D01*
X100023538Y-97553173D01*
X99731222Y-98258887D01*
X99582200Y-99008070D01*
X98245920Y-99008070D01*
X98252761Y-95122548D01*
X98293919Y-94702784D01*
X98409276Y-94320703D01*
X98428792Y-94283997D01*
X144622200Y-94283997D01*
X144622200Y-94516003D01*
X144667462Y-94743552D01*
X144756247Y-94957898D01*
X144885143Y-95150804D01*
X145049196Y-95314857D01*
X145242102Y-95443753D01*
X145456448Y-95532538D01*
X145683997Y-95577800D01*
X145916003Y-95577800D01*
X146143552Y-95532538D01*
X146357898Y-95443753D01*
X146550804Y-95314857D01*
X146714857Y-95150804D01*
X146843753Y-94957898D01*
X146932538Y-94743552D01*
X146977800Y-94516003D01*
X146977800Y-94283997D01*
X156422200Y-94283997D01*
X156422200Y-94516003D01*
X156467462Y-94743552D01*
X156556247Y-94957898D01*
X156685143Y-95150804D01*
X156849196Y-95314857D01*
X157042102Y-95443753D01*
X157256448Y-95532538D01*
X157483997Y-95577800D01*
X157716003Y-95577800D01*
X157943552Y-95532538D01*
X158157898Y-95443753D01*
X158350804Y-95314857D01*
X158514857Y-95150804D01*
X158643753Y-94957898D01*
X158732538Y-94743552D01*
X158777800Y-94516003D01*
X158777800Y-94283997D01*
X158732538Y-94056448D01*
X158643753Y-93842102D01*
X158514857Y-93649196D01*
X158350804Y-93485143D01*
X158157898Y-93356247D01*
X157943552Y-93267462D01*
X157716003Y-93222200D01*
X157483997Y-93222200D01*
X157256448Y-93267462D01*
X157042102Y-93356247D01*
X156849196Y-93485143D01*
X156685143Y-93649196D01*
X156556247Y-93842102D01*
X156467462Y-94056448D01*
X156422200Y-94283997D01*
X146977800Y-94283997D01*
X146932538Y-94056448D01*
X146843753Y-93842102D01*
X146714857Y-93649196D01*
X146550804Y-93485143D01*
X146357898Y-93356247D01*
X146143552Y-93267462D01*
X145916003Y-93222200D01*
X145683997Y-93222200D01*
X145456448Y-93267462D01*
X145242102Y-93356247D01*
X145049196Y-93485143D01*
X144885143Y-93649196D01*
X144756247Y-93842102D01*
X144667462Y-94056448D01*
X144622200Y-94283997D01*
X98428792Y-94283997D01*
X98596652Y-93968299D01*
X98848906Y-93659004D01*
X99156433Y-93404595D01*
X99507522Y-93214762D01*
X99888787Y-93096741D01*
X100306854Y-93052800D01*
X171277855Y-93052800D01*
X171697216Y-93093919D01*
G36*
X155397420Y-109912070D02*
G01*
X155505194Y-109969676D01*
X155622135Y-110005150D01*
X155743750Y-110017128D01*
X156530180Y-110017128D01*
X156553932Y-110046069D01*
X156577884Y-110065726D01*
X158872200Y-112360044D01*
X158872201Y-123211160D01*
X158869164Y-123241996D01*
X158881285Y-123365066D01*
X158917183Y-123483406D01*
X158958457Y-123560624D01*
X158972202Y-123586340D01*
X158972203Y-124147959D01*
X158897960Y-124222202D01*
X157322546Y-124222202D01*
X156704628Y-123604285D01*
X156704628Y-123418750D01*
X156693130Y-123302012D01*
X156659079Y-123189761D01*
X156603783Y-123086309D01*
X156529367Y-122995633D01*
X156438691Y-122921217D01*
X156335239Y-122865921D01*
X156282755Y-122850000D01*
X156335239Y-122834079D01*
X156438691Y-122778783D01*
X156529367Y-122704367D01*
X156540912Y-122690300D01*
X157159088Y-122690300D01*
X157170633Y-122704367D01*
X157261309Y-122778783D01*
X157364761Y-122834079D01*
X157477012Y-122868130D01*
X157593750Y-122879628D01*
X158106250Y-122879628D01*
X158222988Y-122868130D01*
X158335239Y-122834079D01*
X158438691Y-122778783D01*
X158529367Y-122704367D01*
X158603783Y-122613691D01*
X158659079Y-122510239D01*
X158693130Y-122397988D01*
X158704628Y-122281250D01*
X158704628Y-121843750D01*
X158693130Y-121727012D01*
X158659079Y-121614761D01*
X158603783Y-121511309D01*
X158529367Y-121420633D01*
X158438691Y-121346217D01*
X158335239Y-121290921D01*
X158222988Y-121256870D01*
X158106250Y-121245372D01*
X157593750Y-121245372D01*
X157477012Y-121256870D01*
X157364761Y-121290921D01*
X157261309Y-121346217D01*
X157170633Y-121420633D01*
X157159088Y-121434700D01*
X156540912Y-121434700D01*
X156529367Y-121420633D01*
X156477800Y-121378313D01*
X156477800Y-114843333D01*
X156480837Y-114812500D01*
X156476959Y-114773124D01*
X156468716Y-114689430D01*
X156432817Y-114571089D01*
X156418152Y-114543653D01*
X156374522Y-114462025D01*
X156315726Y-114390382D01*
X156315721Y-114390377D01*
X156296069Y-114366431D01*
X156272123Y-114346779D01*
X153854628Y-111929286D01*
X153854628Y-111743750D01*
X153843130Y-111627012D01*
X153809079Y-111514761D01*
X153753783Y-111411309D01*
X153679367Y-111320633D01*
X153627800Y-111278313D01*
X153627800Y-111210432D01*
X153689277Y-111118426D01*
X153747909Y-110976876D01*
X153777800Y-110826607D01*
X153777800Y-110673393D01*
X153747909Y-110523124D01*
X153708424Y-110427800D01*
X154569174Y-110427800D01*
X154600000Y-110430836D01*
X154630826Y-110427800D01*
X154630836Y-110427800D01*
X154723070Y-110418716D01*
X154841411Y-110382817D01*
X154950474Y-110324522D01*
X155046069Y-110246069D01*
X155065730Y-110222112D01*
X155385530Y-109902313D01*
X155397420Y-109912070D01*
X155397420Y-109912070D01*
G37*
X155397420Y-109912070D02*
X155505194Y-109969676D01*
X155622135Y-110005150D01*
X155743750Y-110017128D01*
X156530180Y-110017128D01*
X156553932Y-110046069D01*
X156577884Y-110065726D01*
X158872200Y-112360044D01*
X158872201Y-123211160D01*
X158869164Y-123241996D01*
X158881285Y-123365066D01*
X158917183Y-123483406D01*
X158958457Y-123560624D01*
X158972202Y-123586340D01*
X158972203Y-124147959D01*
X158897960Y-124222202D01*
X157322546Y-124222202D01*
X156704628Y-123604285D01*
X156704628Y-123418750D01*
X156693130Y-123302012D01*
X156659079Y-123189761D01*
X156603783Y-123086309D01*
X156529367Y-122995633D01*
X156438691Y-122921217D01*
X156335239Y-122865921D01*
X156282755Y-122850000D01*
X156335239Y-122834079D01*
X156438691Y-122778783D01*
X156529367Y-122704367D01*
X156540912Y-122690300D01*
X157159088Y-122690300D01*
X157170633Y-122704367D01*
X157261309Y-122778783D01*
X157364761Y-122834079D01*
X157477012Y-122868130D01*
X157593750Y-122879628D01*
X158106250Y-122879628D01*
X158222988Y-122868130D01*
X158335239Y-122834079D01*
X158438691Y-122778783D01*
X158529367Y-122704367D01*
X158603783Y-122613691D01*
X158659079Y-122510239D01*
X158693130Y-122397988D01*
X158704628Y-122281250D01*
X158704628Y-121843750D01*
X158693130Y-121727012D01*
X158659079Y-121614761D01*
X158603783Y-121511309D01*
X158529367Y-121420633D01*
X158438691Y-121346217D01*
X158335239Y-121290921D01*
X158222988Y-121256870D01*
X158106250Y-121245372D01*
X157593750Y-121245372D01*
X157477012Y-121256870D01*
X157364761Y-121290921D01*
X157261309Y-121346217D01*
X157170633Y-121420633D01*
X157159088Y-121434700D01*
X156540912Y-121434700D01*
X156529367Y-121420633D01*
X156477800Y-121378313D01*
X156477800Y-114843333D01*
X156480837Y-114812500D01*
X156476959Y-114773124D01*
X156468716Y-114689430D01*
X156432817Y-114571089D01*
X156418152Y-114543653D01*
X156374522Y-114462025D01*
X156315726Y-114390382D01*
X156315721Y-114390377D01*
X156296069Y-114366431D01*
X156272123Y-114346779D01*
X153854628Y-111929286D01*
X153854628Y-111743750D01*
X153843130Y-111627012D01*
X153809079Y-111514761D01*
X153753783Y-111411309D01*
X153679367Y-111320633D01*
X153627800Y-111278313D01*
X153627800Y-111210432D01*
X153689277Y-111118426D01*
X153747909Y-110976876D01*
X153777800Y-110826607D01*
X153777800Y-110673393D01*
X153747909Y-110523124D01*
X153708424Y-110427800D01*
X154569174Y-110427800D01*
X154600000Y-110430836D01*
X154630826Y-110427800D01*
X154630836Y-110427800D01*
X154723070Y-110418716D01*
X154841411Y-110382817D01*
X154950474Y-110324522D01*
X155046069Y-110246069D01*
X155065730Y-110222112D01*
X155385530Y-109902313D01*
X155397420Y-109912070D01*
M02*
