G04 #@! TF.GenerationSoftware,KiCad,Pcbnew,(5.1.0)-1*
G04 #@! TF.CreationDate,2019-05-30T16:04:32+02:00*
G04 #@! TF.ProjectId,currentscaler,63757272-656e-4747-9363-616c65722e6b,rev?*
G04 #@! TF.SameCoordinates,Original*
G04 #@! TF.FileFunction,Paste,Top*
G04 #@! TF.FilePolarity,Positive*
%FSLAX46Y46*%
G04 Gerber Fmt 4.6, Leading zero omitted, Abs format (unit mm)*
G04 Created by KiCad (PCBNEW (5.1.0)-1) date 2019-05-30 16:04:32*
%MOMM*%
%LPD*%
G04 APERTURE LIST*
%ADD10R,0.660000X0.360000*%
%ADD11C,0.100000*%
%ADD12C,0.875000*%
%ADD13C,0.975000*%
%ADD14R,0.650000X1.060000*%
G04 APERTURE END LIST*
D10*
X133714999Y-111850000D03*
X133714999Y-112500000D03*
X133714999Y-113800000D03*
X133714999Y-113145000D03*
X138164999Y-113155000D03*
X138164999Y-113810000D03*
X138164999Y-112510000D03*
X138164999Y-111860000D03*
D11*
G36*
X141265191Y-113126053D02*
G01*
X141286426Y-113129203D01*
X141307250Y-113134419D01*
X141327462Y-113141651D01*
X141346868Y-113150830D01*
X141365281Y-113161866D01*
X141382524Y-113174654D01*
X141398430Y-113189070D01*
X141412846Y-113204976D01*
X141425634Y-113222219D01*
X141436670Y-113240632D01*
X141445849Y-113260038D01*
X141453081Y-113280250D01*
X141458297Y-113301074D01*
X141461447Y-113322309D01*
X141462500Y-113343750D01*
X141462500Y-113856250D01*
X141461447Y-113877691D01*
X141458297Y-113898926D01*
X141453081Y-113919750D01*
X141445849Y-113939962D01*
X141436670Y-113959368D01*
X141425634Y-113977781D01*
X141412846Y-113995024D01*
X141398430Y-114010930D01*
X141382524Y-114025346D01*
X141365281Y-114038134D01*
X141346868Y-114049170D01*
X141327462Y-114058349D01*
X141307250Y-114065581D01*
X141286426Y-114070797D01*
X141265191Y-114073947D01*
X141243750Y-114075000D01*
X140806250Y-114075000D01*
X140784809Y-114073947D01*
X140763574Y-114070797D01*
X140742750Y-114065581D01*
X140722538Y-114058349D01*
X140703132Y-114049170D01*
X140684719Y-114038134D01*
X140667476Y-114025346D01*
X140651570Y-114010930D01*
X140637154Y-113995024D01*
X140624366Y-113977781D01*
X140613330Y-113959368D01*
X140604151Y-113939962D01*
X140596919Y-113919750D01*
X140591703Y-113898926D01*
X140588553Y-113877691D01*
X140587500Y-113856250D01*
X140587500Y-113343750D01*
X140588553Y-113322309D01*
X140591703Y-113301074D01*
X140596919Y-113280250D01*
X140604151Y-113260038D01*
X140613330Y-113240632D01*
X140624366Y-113222219D01*
X140637154Y-113204976D01*
X140651570Y-113189070D01*
X140667476Y-113174654D01*
X140684719Y-113161866D01*
X140703132Y-113150830D01*
X140722538Y-113141651D01*
X140742750Y-113134419D01*
X140763574Y-113129203D01*
X140784809Y-113126053D01*
X140806250Y-113125000D01*
X141243750Y-113125000D01*
X141265191Y-113126053D01*
X141265191Y-113126053D01*
G37*
D12*
X141025000Y-113600000D03*
D11*
G36*
X142840191Y-113126053D02*
G01*
X142861426Y-113129203D01*
X142882250Y-113134419D01*
X142902462Y-113141651D01*
X142921868Y-113150830D01*
X142940281Y-113161866D01*
X142957524Y-113174654D01*
X142973430Y-113189070D01*
X142987846Y-113204976D01*
X143000634Y-113222219D01*
X143011670Y-113240632D01*
X143020849Y-113260038D01*
X143028081Y-113280250D01*
X143033297Y-113301074D01*
X143036447Y-113322309D01*
X143037500Y-113343750D01*
X143037500Y-113856250D01*
X143036447Y-113877691D01*
X143033297Y-113898926D01*
X143028081Y-113919750D01*
X143020849Y-113939962D01*
X143011670Y-113959368D01*
X143000634Y-113977781D01*
X142987846Y-113995024D01*
X142973430Y-114010930D01*
X142957524Y-114025346D01*
X142940281Y-114038134D01*
X142921868Y-114049170D01*
X142902462Y-114058349D01*
X142882250Y-114065581D01*
X142861426Y-114070797D01*
X142840191Y-114073947D01*
X142818750Y-114075000D01*
X142381250Y-114075000D01*
X142359809Y-114073947D01*
X142338574Y-114070797D01*
X142317750Y-114065581D01*
X142297538Y-114058349D01*
X142278132Y-114049170D01*
X142259719Y-114038134D01*
X142242476Y-114025346D01*
X142226570Y-114010930D01*
X142212154Y-113995024D01*
X142199366Y-113977781D01*
X142188330Y-113959368D01*
X142179151Y-113939962D01*
X142171919Y-113919750D01*
X142166703Y-113898926D01*
X142163553Y-113877691D01*
X142162500Y-113856250D01*
X142162500Y-113343750D01*
X142163553Y-113322309D01*
X142166703Y-113301074D01*
X142171919Y-113280250D01*
X142179151Y-113260038D01*
X142188330Y-113240632D01*
X142199366Y-113222219D01*
X142212154Y-113204976D01*
X142226570Y-113189070D01*
X142242476Y-113174654D01*
X142259719Y-113161866D01*
X142278132Y-113150830D01*
X142297538Y-113141651D01*
X142317750Y-113134419D01*
X142338574Y-113129203D01*
X142359809Y-113126053D01*
X142381250Y-113125000D01*
X142818750Y-113125000D01*
X142840191Y-113126053D01*
X142840191Y-113126053D01*
G37*
D12*
X142600000Y-113600000D03*
D11*
G36*
X156680142Y-108663674D02*
G01*
X156703803Y-108667184D01*
X156727007Y-108672996D01*
X156749529Y-108681054D01*
X156771153Y-108691282D01*
X156791670Y-108703579D01*
X156810883Y-108717829D01*
X156828607Y-108733893D01*
X156844671Y-108751617D01*
X156858921Y-108770830D01*
X156871218Y-108791347D01*
X156881446Y-108812971D01*
X156889504Y-108835493D01*
X156895316Y-108858697D01*
X156898826Y-108882358D01*
X156900000Y-108906250D01*
X156900000Y-109393750D01*
X156898826Y-109417642D01*
X156895316Y-109441303D01*
X156889504Y-109464507D01*
X156881446Y-109487029D01*
X156871218Y-109508653D01*
X156858921Y-109529170D01*
X156844671Y-109548383D01*
X156828607Y-109566107D01*
X156810883Y-109582171D01*
X156791670Y-109596421D01*
X156771153Y-109608718D01*
X156749529Y-109618946D01*
X156727007Y-109627004D01*
X156703803Y-109632816D01*
X156680142Y-109636326D01*
X156656250Y-109637500D01*
X155743750Y-109637500D01*
X155719858Y-109636326D01*
X155696197Y-109632816D01*
X155672993Y-109627004D01*
X155650471Y-109618946D01*
X155628847Y-109608718D01*
X155608330Y-109596421D01*
X155589117Y-109582171D01*
X155571393Y-109566107D01*
X155555329Y-109548383D01*
X155541079Y-109529170D01*
X155528782Y-109508653D01*
X155518554Y-109487029D01*
X155510496Y-109464507D01*
X155504684Y-109441303D01*
X155501174Y-109417642D01*
X155500000Y-109393750D01*
X155500000Y-108906250D01*
X155501174Y-108882358D01*
X155504684Y-108858697D01*
X155510496Y-108835493D01*
X155518554Y-108812971D01*
X155528782Y-108791347D01*
X155541079Y-108770830D01*
X155555329Y-108751617D01*
X155571393Y-108733893D01*
X155589117Y-108717829D01*
X155608330Y-108703579D01*
X155628847Y-108691282D01*
X155650471Y-108681054D01*
X155672993Y-108672996D01*
X155696197Y-108667184D01*
X155719858Y-108663674D01*
X155743750Y-108662500D01*
X156656250Y-108662500D01*
X156680142Y-108663674D01*
X156680142Y-108663674D01*
G37*
D13*
X156200000Y-109150000D03*
D11*
G36*
X156680142Y-106788674D02*
G01*
X156703803Y-106792184D01*
X156727007Y-106797996D01*
X156749529Y-106806054D01*
X156771153Y-106816282D01*
X156791670Y-106828579D01*
X156810883Y-106842829D01*
X156828607Y-106858893D01*
X156844671Y-106876617D01*
X156858921Y-106895830D01*
X156871218Y-106916347D01*
X156881446Y-106937971D01*
X156889504Y-106960493D01*
X156895316Y-106983697D01*
X156898826Y-107007358D01*
X156900000Y-107031250D01*
X156900000Y-107518750D01*
X156898826Y-107542642D01*
X156895316Y-107566303D01*
X156889504Y-107589507D01*
X156881446Y-107612029D01*
X156871218Y-107633653D01*
X156858921Y-107654170D01*
X156844671Y-107673383D01*
X156828607Y-107691107D01*
X156810883Y-107707171D01*
X156791670Y-107721421D01*
X156771153Y-107733718D01*
X156749529Y-107743946D01*
X156727007Y-107752004D01*
X156703803Y-107757816D01*
X156680142Y-107761326D01*
X156656250Y-107762500D01*
X155743750Y-107762500D01*
X155719858Y-107761326D01*
X155696197Y-107757816D01*
X155672993Y-107752004D01*
X155650471Y-107743946D01*
X155628847Y-107733718D01*
X155608330Y-107721421D01*
X155589117Y-107707171D01*
X155571393Y-107691107D01*
X155555329Y-107673383D01*
X155541079Y-107654170D01*
X155528782Y-107633653D01*
X155518554Y-107612029D01*
X155510496Y-107589507D01*
X155504684Y-107566303D01*
X155501174Y-107542642D01*
X155500000Y-107518750D01*
X155500000Y-107031250D01*
X155501174Y-107007358D01*
X155504684Y-106983697D01*
X155510496Y-106960493D01*
X155518554Y-106937971D01*
X155528782Y-106916347D01*
X155541079Y-106895830D01*
X155555329Y-106876617D01*
X155571393Y-106858893D01*
X155589117Y-106842829D01*
X155608330Y-106828579D01*
X155628847Y-106816282D01*
X155650471Y-106806054D01*
X155672993Y-106797996D01*
X155696197Y-106792184D01*
X155719858Y-106788674D01*
X155743750Y-106787500D01*
X156656250Y-106787500D01*
X156680142Y-106788674D01*
X156680142Y-106788674D01*
G37*
D13*
X156200000Y-107275000D03*
D11*
G36*
X146330142Y-121426174D02*
G01*
X146353803Y-121429684D01*
X146377007Y-121435496D01*
X146399529Y-121443554D01*
X146421153Y-121453782D01*
X146441670Y-121466079D01*
X146460883Y-121480329D01*
X146478607Y-121496393D01*
X146494671Y-121514117D01*
X146508921Y-121533330D01*
X146521218Y-121553847D01*
X146531446Y-121575471D01*
X146539504Y-121597993D01*
X146545316Y-121621197D01*
X146548826Y-121644858D01*
X146550000Y-121668750D01*
X146550000Y-122156250D01*
X146548826Y-122180142D01*
X146545316Y-122203803D01*
X146539504Y-122227007D01*
X146531446Y-122249529D01*
X146521218Y-122271153D01*
X146508921Y-122291670D01*
X146494671Y-122310883D01*
X146478607Y-122328607D01*
X146460883Y-122344671D01*
X146441670Y-122358921D01*
X146421153Y-122371218D01*
X146399529Y-122381446D01*
X146377007Y-122389504D01*
X146353803Y-122395316D01*
X146330142Y-122398826D01*
X146306250Y-122400000D01*
X145393750Y-122400000D01*
X145369858Y-122398826D01*
X145346197Y-122395316D01*
X145322993Y-122389504D01*
X145300471Y-122381446D01*
X145278847Y-122371218D01*
X145258330Y-122358921D01*
X145239117Y-122344671D01*
X145221393Y-122328607D01*
X145205329Y-122310883D01*
X145191079Y-122291670D01*
X145178782Y-122271153D01*
X145168554Y-122249529D01*
X145160496Y-122227007D01*
X145154684Y-122203803D01*
X145151174Y-122180142D01*
X145150000Y-122156250D01*
X145150000Y-121668750D01*
X145151174Y-121644858D01*
X145154684Y-121621197D01*
X145160496Y-121597993D01*
X145168554Y-121575471D01*
X145178782Y-121553847D01*
X145191079Y-121533330D01*
X145205329Y-121514117D01*
X145221393Y-121496393D01*
X145239117Y-121480329D01*
X145258330Y-121466079D01*
X145278847Y-121453782D01*
X145300471Y-121443554D01*
X145322993Y-121435496D01*
X145346197Y-121429684D01*
X145369858Y-121426174D01*
X145393750Y-121425000D01*
X146306250Y-121425000D01*
X146330142Y-121426174D01*
X146330142Y-121426174D01*
G37*
D13*
X145850000Y-121912500D03*
D11*
G36*
X146330142Y-123301174D02*
G01*
X146353803Y-123304684D01*
X146377007Y-123310496D01*
X146399529Y-123318554D01*
X146421153Y-123328782D01*
X146441670Y-123341079D01*
X146460883Y-123355329D01*
X146478607Y-123371393D01*
X146494671Y-123389117D01*
X146508921Y-123408330D01*
X146521218Y-123428847D01*
X146531446Y-123450471D01*
X146539504Y-123472993D01*
X146545316Y-123496197D01*
X146548826Y-123519858D01*
X146550000Y-123543750D01*
X146550000Y-124031250D01*
X146548826Y-124055142D01*
X146545316Y-124078803D01*
X146539504Y-124102007D01*
X146531446Y-124124529D01*
X146521218Y-124146153D01*
X146508921Y-124166670D01*
X146494671Y-124185883D01*
X146478607Y-124203607D01*
X146460883Y-124219671D01*
X146441670Y-124233921D01*
X146421153Y-124246218D01*
X146399529Y-124256446D01*
X146377007Y-124264504D01*
X146353803Y-124270316D01*
X146330142Y-124273826D01*
X146306250Y-124275000D01*
X145393750Y-124275000D01*
X145369858Y-124273826D01*
X145346197Y-124270316D01*
X145322993Y-124264504D01*
X145300471Y-124256446D01*
X145278847Y-124246218D01*
X145258330Y-124233921D01*
X145239117Y-124219671D01*
X145221393Y-124203607D01*
X145205329Y-124185883D01*
X145191079Y-124166670D01*
X145178782Y-124146153D01*
X145168554Y-124124529D01*
X145160496Y-124102007D01*
X145154684Y-124078803D01*
X145151174Y-124055142D01*
X145150000Y-124031250D01*
X145150000Y-123543750D01*
X145151174Y-123519858D01*
X145154684Y-123496197D01*
X145160496Y-123472993D01*
X145168554Y-123450471D01*
X145178782Y-123428847D01*
X145191079Y-123408330D01*
X145205329Y-123389117D01*
X145221393Y-123371393D01*
X145239117Y-123355329D01*
X145258330Y-123341079D01*
X145278847Y-123328782D01*
X145300471Y-123318554D01*
X145322993Y-123310496D01*
X145346197Y-123304684D01*
X145369858Y-123301174D01*
X145393750Y-123300000D01*
X146306250Y-123300000D01*
X146330142Y-123301174D01*
X146330142Y-123301174D01*
G37*
D13*
X145850000Y-123787500D03*
D11*
G36*
X143880142Y-123301174D02*
G01*
X143903803Y-123304684D01*
X143927007Y-123310496D01*
X143949529Y-123318554D01*
X143971153Y-123328782D01*
X143991670Y-123341079D01*
X144010883Y-123355329D01*
X144028607Y-123371393D01*
X144044671Y-123389117D01*
X144058921Y-123408330D01*
X144071218Y-123428847D01*
X144081446Y-123450471D01*
X144089504Y-123472993D01*
X144095316Y-123496197D01*
X144098826Y-123519858D01*
X144100000Y-123543750D01*
X144100000Y-124031250D01*
X144098826Y-124055142D01*
X144095316Y-124078803D01*
X144089504Y-124102007D01*
X144081446Y-124124529D01*
X144071218Y-124146153D01*
X144058921Y-124166670D01*
X144044671Y-124185883D01*
X144028607Y-124203607D01*
X144010883Y-124219671D01*
X143991670Y-124233921D01*
X143971153Y-124246218D01*
X143949529Y-124256446D01*
X143927007Y-124264504D01*
X143903803Y-124270316D01*
X143880142Y-124273826D01*
X143856250Y-124275000D01*
X142943750Y-124275000D01*
X142919858Y-124273826D01*
X142896197Y-124270316D01*
X142872993Y-124264504D01*
X142850471Y-124256446D01*
X142828847Y-124246218D01*
X142808330Y-124233921D01*
X142789117Y-124219671D01*
X142771393Y-124203607D01*
X142755329Y-124185883D01*
X142741079Y-124166670D01*
X142728782Y-124146153D01*
X142718554Y-124124529D01*
X142710496Y-124102007D01*
X142704684Y-124078803D01*
X142701174Y-124055142D01*
X142700000Y-124031250D01*
X142700000Y-123543750D01*
X142701174Y-123519858D01*
X142704684Y-123496197D01*
X142710496Y-123472993D01*
X142718554Y-123450471D01*
X142728782Y-123428847D01*
X142741079Y-123408330D01*
X142755329Y-123389117D01*
X142771393Y-123371393D01*
X142789117Y-123355329D01*
X142808330Y-123341079D01*
X142828847Y-123328782D01*
X142850471Y-123318554D01*
X142872993Y-123310496D01*
X142896197Y-123304684D01*
X142919858Y-123301174D01*
X142943750Y-123300000D01*
X143856250Y-123300000D01*
X143880142Y-123301174D01*
X143880142Y-123301174D01*
G37*
D13*
X143400000Y-123787500D03*
D11*
G36*
X143880142Y-121426174D02*
G01*
X143903803Y-121429684D01*
X143927007Y-121435496D01*
X143949529Y-121443554D01*
X143971153Y-121453782D01*
X143991670Y-121466079D01*
X144010883Y-121480329D01*
X144028607Y-121496393D01*
X144044671Y-121514117D01*
X144058921Y-121533330D01*
X144071218Y-121553847D01*
X144081446Y-121575471D01*
X144089504Y-121597993D01*
X144095316Y-121621197D01*
X144098826Y-121644858D01*
X144100000Y-121668750D01*
X144100000Y-122156250D01*
X144098826Y-122180142D01*
X144095316Y-122203803D01*
X144089504Y-122227007D01*
X144081446Y-122249529D01*
X144071218Y-122271153D01*
X144058921Y-122291670D01*
X144044671Y-122310883D01*
X144028607Y-122328607D01*
X144010883Y-122344671D01*
X143991670Y-122358921D01*
X143971153Y-122371218D01*
X143949529Y-122381446D01*
X143927007Y-122389504D01*
X143903803Y-122395316D01*
X143880142Y-122398826D01*
X143856250Y-122400000D01*
X142943750Y-122400000D01*
X142919858Y-122398826D01*
X142896197Y-122395316D01*
X142872993Y-122389504D01*
X142850471Y-122381446D01*
X142828847Y-122371218D01*
X142808330Y-122358921D01*
X142789117Y-122344671D01*
X142771393Y-122328607D01*
X142755329Y-122310883D01*
X142741079Y-122291670D01*
X142728782Y-122271153D01*
X142718554Y-122249529D01*
X142710496Y-122227007D01*
X142704684Y-122203803D01*
X142701174Y-122180142D01*
X142700000Y-122156250D01*
X142700000Y-121668750D01*
X142701174Y-121644858D01*
X142704684Y-121621197D01*
X142710496Y-121597993D01*
X142718554Y-121575471D01*
X142728782Y-121553847D01*
X142741079Y-121533330D01*
X142755329Y-121514117D01*
X142771393Y-121496393D01*
X142789117Y-121480329D01*
X142808330Y-121466079D01*
X142828847Y-121453782D01*
X142850471Y-121443554D01*
X142872993Y-121435496D01*
X142896197Y-121429684D01*
X142919858Y-121426174D01*
X142943750Y-121425000D01*
X143856250Y-121425000D01*
X143880142Y-121426174D01*
X143880142Y-121426174D01*
G37*
D13*
X143400000Y-121912500D03*
D11*
G36*
X150127691Y-123188553D02*
G01*
X150148926Y-123191703D01*
X150169750Y-123196919D01*
X150189962Y-123204151D01*
X150209368Y-123213330D01*
X150227781Y-123224366D01*
X150245024Y-123237154D01*
X150260930Y-123251570D01*
X150275346Y-123267476D01*
X150288134Y-123284719D01*
X150299170Y-123303132D01*
X150308349Y-123322538D01*
X150315581Y-123342750D01*
X150320797Y-123363574D01*
X150323947Y-123384809D01*
X150325000Y-123406250D01*
X150325000Y-123843750D01*
X150323947Y-123865191D01*
X150320797Y-123886426D01*
X150315581Y-123907250D01*
X150308349Y-123927462D01*
X150299170Y-123946868D01*
X150288134Y-123965281D01*
X150275346Y-123982524D01*
X150260930Y-123998430D01*
X150245024Y-124012846D01*
X150227781Y-124025634D01*
X150209368Y-124036670D01*
X150189962Y-124045849D01*
X150169750Y-124053081D01*
X150148926Y-124058297D01*
X150127691Y-124061447D01*
X150106250Y-124062500D01*
X149593750Y-124062500D01*
X149572309Y-124061447D01*
X149551074Y-124058297D01*
X149530250Y-124053081D01*
X149510038Y-124045849D01*
X149490632Y-124036670D01*
X149472219Y-124025634D01*
X149454976Y-124012846D01*
X149439070Y-123998430D01*
X149424654Y-123982524D01*
X149411866Y-123965281D01*
X149400830Y-123946868D01*
X149391651Y-123927462D01*
X149384419Y-123907250D01*
X149379203Y-123886426D01*
X149376053Y-123865191D01*
X149375000Y-123843750D01*
X149375000Y-123406250D01*
X149376053Y-123384809D01*
X149379203Y-123363574D01*
X149384419Y-123342750D01*
X149391651Y-123322538D01*
X149400830Y-123303132D01*
X149411866Y-123284719D01*
X149424654Y-123267476D01*
X149439070Y-123251570D01*
X149454976Y-123237154D01*
X149472219Y-123224366D01*
X149490632Y-123213330D01*
X149510038Y-123204151D01*
X149530250Y-123196919D01*
X149551074Y-123191703D01*
X149572309Y-123188553D01*
X149593750Y-123187500D01*
X150106250Y-123187500D01*
X150127691Y-123188553D01*
X150127691Y-123188553D01*
G37*
D12*
X149850000Y-123625000D03*
D11*
G36*
X150127691Y-121613553D02*
G01*
X150148926Y-121616703D01*
X150169750Y-121621919D01*
X150189962Y-121629151D01*
X150209368Y-121638330D01*
X150227781Y-121649366D01*
X150245024Y-121662154D01*
X150260930Y-121676570D01*
X150275346Y-121692476D01*
X150288134Y-121709719D01*
X150299170Y-121728132D01*
X150308349Y-121747538D01*
X150315581Y-121767750D01*
X150320797Y-121788574D01*
X150323947Y-121809809D01*
X150325000Y-121831250D01*
X150325000Y-122268750D01*
X150323947Y-122290191D01*
X150320797Y-122311426D01*
X150315581Y-122332250D01*
X150308349Y-122352462D01*
X150299170Y-122371868D01*
X150288134Y-122390281D01*
X150275346Y-122407524D01*
X150260930Y-122423430D01*
X150245024Y-122437846D01*
X150227781Y-122450634D01*
X150209368Y-122461670D01*
X150189962Y-122470849D01*
X150169750Y-122478081D01*
X150148926Y-122483297D01*
X150127691Y-122486447D01*
X150106250Y-122487500D01*
X149593750Y-122487500D01*
X149572309Y-122486447D01*
X149551074Y-122483297D01*
X149530250Y-122478081D01*
X149510038Y-122470849D01*
X149490632Y-122461670D01*
X149472219Y-122450634D01*
X149454976Y-122437846D01*
X149439070Y-122423430D01*
X149424654Y-122407524D01*
X149411866Y-122390281D01*
X149400830Y-122371868D01*
X149391651Y-122352462D01*
X149384419Y-122332250D01*
X149379203Y-122311426D01*
X149376053Y-122290191D01*
X149375000Y-122268750D01*
X149375000Y-121831250D01*
X149376053Y-121809809D01*
X149379203Y-121788574D01*
X149384419Y-121767750D01*
X149391651Y-121747538D01*
X149400830Y-121728132D01*
X149411866Y-121709719D01*
X149424654Y-121692476D01*
X149439070Y-121676570D01*
X149454976Y-121662154D01*
X149472219Y-121649366D01*
X149490632Y-121638330D01*
X149510038Y-121629151D01*
X149530250Y-121621919D01*
X149551074Y-121616703D01*
X149572309Y-121613553D01*
X149593750Y-121612500D01*
X150106250Y-121612500D01*
X150127691Y-121613553D01*
X150127691Y-121613553D01*
G37*
D12*
X149850000Y-122050000D03*
D14*
X141300000Y-119100000D03*
X142250000Y-119100000D03*
X143200000Y-119100000D03*
X143200000Y-116900000D03*
X141300000Y-116900000D03*
X147750000Y-119100000D03*
X148700000Y-119100000D03*
X146800000Y-119100000D03*
X146800000Y-116900000D03*
X147750000Y-116900000D03*
X148700000Y-116900000D03*
X144700000Y-110850000D03*
X145650000Y-110850000D03*
X146600000Y-110850000D03*
X146600000Y-108650000D03*
X144700000Y-108650000D03*
X145650000Y-108650000D03*
D11*
G36*
X148127691Y-123201053D02*
G01*
X148148926Y-123204203D01*
X148169750Y-123209419D01*
X148189962Y-123216651D01*
X148209368Y-123225830D01*
X148227781Y-123236866D01*
X148245024Y-123249654D01*
X148260930Y-123264070D01*
X148275346Y-123279976D01*
X148288134Y-123297219D01*
X148299170Y-123315632D01*
X148308349Y-123335038D01*
X148315581Y-123355250D01*
X148320797Y-123376074D01*
X148323947Y-123397309D01*
X148325000Y-123418750D01*
X148325000Y-123856250D01*
X148323947Y-123877691D01*
X148320797Y-123898926D01*
X148315581Y-123919750D01*
X148308349Y-123939962D01*
X148299170Y-123959368D01*
X148288134Y-123977781D01*
X148275346Y-123995024D01*
X148260930Y-124010930D01*
X148245024Y-124025346D01*
X148227781Y-124038134D01*
X148209368Y-124049170D01*
X148189962Y-124058349D01*
X148169750Y-124065581D01*
X148148926Y-124070797D01*
X148127691Y-124073947D01*
X148106250Y-124075000D01*
X147593750Y-124075000D01*
X147572309Y-124073947D01*
X147551074Y-124070797D01*
X147530250Y-124065581D01*
X147510038Y-124058349D01*
X147490632Y-124049170D01*
X147472219Y-124038134D01*
X147454976Y-124025346D01*
X147439070Y-124010930D01*
X147424654Y-123995024D01*
X147411866Y-123977781D01*
X147400830Y-123959368D01*
X147391651Y-123939962D01*
X147384419Y-123919750D01*
X147379203Y-123898926D01*
X147376053Y-123877691D01*
X147375000Y-123856250D01*
X147375000Y-123418750D01*
X147376053Y-123397309D01*
X147379203Y-123376074D01*
X147384419Y-123355250D01*
X147391651Y-123335038D01*
X147400830Y-123315632D01*
X147411866Y-123297219D01*
X147424654Y-123279976D01*
X147439070Y-123264070D01*
X147454976Y-123249654D01*
X147472219Y-123236866D01*
X147490632Y-123225830D01*
X147510038Y-123216651D01*
X147530250Y-123209419D01*
X147551074Y-123204203D01*
X147572309Y-123201053D01*
X147593750Y-123200000D01*
X148106250Y-123200000D01*
X148127691Y-123201053D01*
X148127691Y-123201053D01*
G37*
D12*
X147850000Y-123637500D03*
D11*
G36*
X148127691Y-121626053D02*
G01*
X148148926Y-121629203D01*
X148169750Y-121634419D01*
X148189962Y-121641651D01*
X148209368Y-121650830D01*
X148227781Y-121661866D01*
X148245024Y-121674654D01*
X148260930Y-121689070D01*
X148275346Y-121704976D01*
X148288134Y-121722219D01*
X148299170Y-121740632D01*
X148308349Y-121760038D01*
X148315581Y-121780250D01*
X148320797Y-121801074D01*
X148323947Y-121822309D01*
X148325000Y-121843750D01*
X148325000Y-122281250D01*
X148323947Y-122302691D01*
X148320797Y-122323926D01*
X148315581Y-122344750D01*
X148308349Y-122364962D01*
X148299170Y-122384368D01*
X148288134Y-122402781D01*
X148275346Y-122420024D01*
X148260930Y-122435930D01*
X148245024Y-122450346D01*
X148227781Y-122463134D01*
X148209368Y-122474170D01*
X148189962Y-122483349D01*
X148169750Y-122490581D01*
X148148926Y-122495797D01*
X148127691Y-122498947D01*
X148106250Y-122500000D01*
X147593750Y-122500000D01*
X147572309Y-122498947D01*
X147551074Y-122495797D01*
X147530250Y-122490581D01*
X147510038Y-122483349D01*
X147490632Y-122474170D01*
X147472219Y-122463134D01*
X147454976Y-122450346D01*
X147439070Y-122435930D01*
X147424654Y-122420024D01*
X147411866Y-122402781D01*
X147400830Y-122384368D01*
X147391651Y-122364962D01*
X147384419Y-122344750D01*
X147379203Y-122323926D01*
X147376053Y-122302691D01*
X147375000Y-122281250D01*
X147375000Y-121843750D01*
X147376053Y-121822309D01*
X147379203Y-121801074D01*
X147384419Y-121780250D01*
X147391651Y-121760038D01*
X147400830Y-121740632D01*
X147411866Y-121722219D01*
X147424654Y-121704976D01*
X147439070Y-121689070D01*
X147454976Y-121674654D01*
X147472219Y-121661866D01*
X147490632Y-121650830D01*
X147510038Y-121641651D01*
X147530250Y-121634419D01*
X147551074Y-121629203D01*
X147572309Y-121626053D01*
X147593750Y-121625000D01*
X148106250Y-121625000D01*
X148127691Y-121626053D01*
X148127691Y-121626053D01*
G37*
D12*
X147850000Y-122062500D03*
D11*
G36*
X151027691Y-111526053D02*
G01*
X151048926Y-111529203D01*
X151069750Y-111534419D01*
X151089962Y-111541651D01*
X151109368Y-111550830D01*
X151127781Y-111561866D01*
X151145024Y-111574654D01*
X151160930Y-111589070D01*
X151175346Y-111604976D01*
X151188134Y-111622219D01*
X151199170Y-111640632D01*
X151208349Y-111660038D01*
X151215581Y-111680250D01*
X151220797Y-111701074D01*
X151223947Y-111722309D01*
X151225000Y-111743750D01*
X151225000Y-112181250D01*
X151223947Y-112202691D01*
X151220797Y-112223926D01*
X151215581Y-112244750D01*
X151208349Y-112264962D01*
X151199170Y-112284368D01*
X151188134Y-112302781D01*
X151175346Y-112320024D01*
X151160930Y-112335930D01*
X151145024Y-112350346D01*
X151127781Y-112363134D01*
X151109368Y-112374170D01*
X151089962Y-112383349D01*
X151069750Y-112390581D01*
X151048926Y-112395797D01*
X151027691Y-112398947D01*
X151006250Y-112400000D01*
X150493750Y-112400000D01*
X150472309Y-112398947D01*
X150451074Y-112395797D01*
X150430250Y-112390581D01*
X150410038Y-112383349D01*
X150390632Y-112374170D01*
X150372219Y-112363134D01*
X150354976Y-112350346D01*
X150339070Y-112335930D01*
X150324654Y-112320024D01*
X150311866Y-112302781D01*
X150300830Y-112284368D01*
X150291651Y-112264962D01*
X150284419Y-112244750D01*
X150279203Y-112223926D01*
X150276053Y-112202691D01*
X150275000Y-112181250D01*
X150275000Y-111743750D01*
X150276053Y-111722309D01*
X150279203Y-111701074D01*
X150284419Y-111680250D01*
X150291651Y-111660038D01*
X150300830Y-111640632D01*
X150311866Y-111622219D01*
X150324654Y-111604976D01*
X150339070Y-111589070D01*
X150354976Y-111574654D01*
X150372219Y-111561866D01*
X150390632Y-111550830D01*
X150410038Y-111541651D01*
X150430250Y-111534419D01*
X150451074Y-111529203D01*
X150472309Y-111526053D01*
X150493750Y-111525000D01*
X151006250Y-111525000D01*
X151027691Y-111526053D01*
X151027691Y-111526053D01*
G37*
D12*
X150750000Y-111962500D03*
D11*
G36*
X151027691Y-113101053D02*
G01*
X151048926Y-113104203D01*
X151069750Y-113109419D01*
X151089962Y-113116651D01*
X151109368Y-113125830D01*
X151127781Y-113136866D01*
X151145024Y-113149654D01*
X151160930Y-113164070D01*
X151175346Y-113179976D01*
X151188134Y-113197219D01*
X151199170Y-113215632D01*
X151208349Y-113235038D01*
X151215581Y-113255250D01*
X151220797Y-113276074D01*
X151223947Y-113297309D01*
X151225000Y-113318750D01*
X151225000Y-113756250D01*
X151223947Y-113777691D01*
X151220797Y-113798926D01*
X151215581Y-113819750D01*
X151208349Y-113839962D01*
X151199170Y-113859368D01*
X151188134Y-113877781D01*
X151175346Y-113895024D01*
X151160930Y-113910930D01*
X151145024Y-113925346D01*
X151127781Y-113938134D01*
X151109368Y-113949170D01*
X151089962Y-113958349D01*
X151069750Y-113965581D01*
X151048926Y-113970797D01*
X151027691Y-113973947D01*
X151006250Y-113975000D01*
X150493750Y-113975000D01*
X150472309Y-113973947D01*
X150451074Y-113970797D01*
X150430250Y-113965581D01*
X150410038Y-113958349D01*
X150390632Y-113949170D01*
X150372219Y-113938134D01*
X150354976Y-113925346D01*
X150339070Y-113910930D01*
X150324654Y-113895024D01*
X150311866Y-113877781D01*
X150300830Y-113859368D01*
X150291651Y-113839962D01*
X150284419Y-113819750D01*
X150279203Y-113798926D01*
X150276053Y-113777691D01*
X150275000Y-113756250D01*
X150275000Y-113318750D01*
X150276053Y-113297309D01*
X150279203Y-113276074D01*
X150284419Y-113255250D01*
X150291651Y-113235038D01*
X150300830Y-113215632D01*
X150311866Y-113197219D01*
X150324654Y-113179976D01*
X150339070Y-113164070D01*
X150354976Y-113149654D01*
X150372219Y-113136866D01*
X150390632Y-113125830D01*
X150410038Y-113116651D01*
X150430250Y-113109419D01*
X150451074Y-113104203D01*
X150472309Y-113101053D01*
X150493750Y-113100000D01*
X151006250Y-113100000D01*
X151027691Y-113101053D01*
X151027691Y-113101053D01*
G37*
D12*
X150750000Y-113537500D03*
D11*
G36*
X133027691Y-97801053D02*
G01*
X133048926Y-97804203D01*
X133069750Y-97809419D01*
X133089962Y-97816651D01*
X133109368Y-97825830D01*
X133127781Y-97836866D01*
X133145024Y-97849654D01*
X133160930Y-97864070D01*
X133175346Y-97879976D01*
X133188134Y-97897219D01*
X133199170Y-97915632D01*
X133208349Y-97935038D01*
X133215581Y-97955250D01*
X133220797Y-97976074D01*
X133223947Y-97997309D01*
X133225000Y-98018750D01*
X133225000Y-98456250D01*
X133223947Y-98477691D01*
X133220797Y-98498926D01*
X133215581Y-98519750D01*
X133208349Y-98539962D01*
X133199170Y-98559368D01*
X133188134Y-98577781D01*
X133175346Y-98595024D01*
X133160930Y-98610930D01*
X133145024Y-98625346D01*
X133127781Y-98638134D01*
X133109368Y-98649170D01*
X133089962Y-98658349D01*
X133069750Y-98665581D01*
X133048926Y-98670797D01*
X133027691Y-98673947D01*
X133006250Y-98675000D01*
X132493750Y-98675000D01*
X132472309Y-98673947D01*
X132451074Y-98670797D01*
X132430250Y-98665581D01*
X132410038Y-98658349D01*
X132390632Y-98649170D01*
X132372219Y-98638134D01*
X132354976Y-98625346D01*
X132339070Y-98610930D01*
X132324654Y-98595024D01*
X132311866Y-98577781D01*
X132300830Y-98559368D01*
X132291651Y-98539962D01*
X132284419Y-98519750D01*
X132279203Y-98498926D01*
X132276053Y-98477691D01*
X132275000Y-98456250D01*
X132275000Y-98018750D01*
X132276053Y-97997309D01*
X132279203Y-97976074D01*
X132284419Y-97955250D01*
X132291651Y-97935038D01*
X132300830Y-97915632D01*
X132311866Y-97897219D01*
X132324654Y-97879976D01*
X132339070Y-97864070D01*
X132354976Y-97849654D01*
X132372219Y-97836866D01*
X132390632Y-97825830D01*
X132410038Y-97816651D01*
X132430250Y-97809419D01*
X132451074Y-97804203D01*
X132472309Y-97801053D01*
X132493750Y-97800000D01*
X133006250Y-97800000D01*
X133027691Y-97801053D01*
X133027691Y-97801053D01*
G37*
D12*
X132750000Y-98237500D03*
D11*
G36*
X133027691Y-96226053D02*
G01*
X133048926Y-96229203D01*
X133069750Y-96234419D01*
X133089962Y-96241651D01*
X133109368Y-96250830D01*
X133127781Y-96261866D01*
X133145024Y-96274654D01*
X133160930Y-96289070D01*
X133175346Y-96304976D01*
X133188134Y-96322219D01*
X133199170Y-96340632D01*
X133208349Y-96360038D01*
X133215581Y-96380250D01*
X133220797Y-96401074D01*
X133223947Y-96422309D01*
X133225000Y-96443750D01*
X133225000Y-96881250D01*
X133223947Y-96902691D01*
X133220797Y-96923926D01*
X133215581Y-96944750D01*
X133208349Y-96964962D01*
X133199170Y-96984368D01*
X133188134Y-97002781D01*
X133175346Y-97020024D01*
X133160930Y-97035930D01*
X133145024Y-97050346D01*
X133127781Y-97063134D01*
X133109368Y-97074170D01*
X133089962Y-97083349D01*
X133069750Y-97090581D01*
X133048926Y-97095797D01*
X133027691Y-97098947D01*
X133006250Y-97100000D01*
X132493750Y-97100000D01*
X132472309Y-97098947D01*
X132451074Y-97095797D01*
X132430250Y-97090581D01*
X132410038Y-97083349D01*
X132390632Y-97074170D01*
X132372219Y-97063134D01*
X132354976Y-97050346D01*
X132339070Y-97035930D01*
X132324654Y-97020024D01*
X132311866Y-97002781D01*
X132300830Y-96984368D01*
X132291651Y-96964962D01*
X132284419Y-96944750D01*
X132279203Y-96923926D01*
X132276053Y-96902691D01*
X132275000Y-96881250D01*
X132275000Y-96443750D01*
X132276053Y-96422309D01*
X132279203Y-96401074D01*
X132284419Y-96380250D01*
X132291651Y-96360038D01*
X132300830Y-96340632D01*
X132311866Y-96322219D01*
X132324654Y-96304976D01*
X132339070Y-96289070D01*
X132354976Y-96274654D01*
X132372219Y-96261866D01*
X132390632Y-96250830D01*
X132410038Y-96241651D01*
X132430250Y-96234419D01*
X132451074Y-96229203D01*
X132472309Y-96226053D01*
X132493750Y-96225000D01*
X133006250Y-96225000D01*
X133027691Y-96226053D01*
X133027691Y-96226053D01*
G37*
D12*
X132750000Y-96662500D03*
D11*
G36*
X152127691Y-123201053D02*
G01*
X152148926Y-123204203D01*
X152169750Y-123209419D01*
X152189962Y-123216651D01*
X152209368Y-123225830D01*
X152227781Y-123236866D01*
X152245024Y-123249654D01*
X152260930Y-123264070D01*
X152275346Y-123279976D01*
X152288134Y-123297219D01*
X152299170Y-123315632D01*
X152308349Y-123335038D01*
X152315581Y-123355250D01*
X152320797Y-123376074D01*
X152323947Y-123397309D01*
X152325000Y-123418750D01*
X152325000Y-123856250D01*
X152323947Y-123877691D01*
X152320797Y-123898926D01*
X152315581Y-123919750D01*
X152308349Y-123939962D01*
X152299170Y-123959368D01*
X152288134Y-123977781D01*
X152275346Y-123995024D01*
X152260930Y-124010930D01*
X152245024Y-124025346D01*
X152227781Y-124038134D01*
X152209368Y-124049170D01*
X152189962Y-124058349D01*
X152169750Y-124065581D01*
X152148926Y-124070797D01*
X152127691Y-124073947D01*
X152106250Y-124075000D01*
X151593750Y-124075000D01*
X151572309Y-124073947D01*
X151551074Y-124070797D01*
X151530250Y-124065581D01*
X151510038Y-124058349D01*
X151490632Y-124049170D01*
X151472219Y-124038134D01*
X151454976Y-124025346D01*
X151439070Y-124010930D01*
X151424654Y-123995024D01*
X151411866Y-123977781D01*
X151400830Y-123959368D01*
X151391651Y-123939962D01*
X151384419Y-123919750D01*
X151379203Y-123898926D01*
X151376053Y-123877691D01*
X151375000Y-123856250D01*
X151375000Y-123418750D01*
X151376053Y-123397309D01*
X151379203Y-123376074D01*
X151384419Y-123355250D01*
X151391651Y-123335038D01*
X151400830Y-123315632D01*
X151411866Y-123297219D01*
X151424654Y-123279976D01*
X151439070Y-123264070D01*
X151454976Y-123249654D01*
X151472219Y-123236866D01*
X151490632Y-123225830D01*
X151510038Y-123216651D01*
X151530250Y-123209419D01*
X151551074Y-123204203D01*
X151572309Y-123201053D01*
X151593750Y-123200000D01*
X152106250Y-123200000D01*
X152127691Y-123201053D01*
X152127691Y-123201053D01*
G37*
D12*
X151850000Y-123637500D03*
D11*
G36*
X152127691Y-121626053D02*
G01*
X152148926Y-121629203D01*
X152169750Y-121634419D01*
X152189962Y-121641651D01*
X152209368Y-121650830D01*
X152227781Y-121661866D01*
X152245024Y-121674654D01*
X152260930Y-121689070D01*
X152275346Y-121704976D01*
X152288134Y-121722219D01*
X152299170Y-121740632D01*
X152308349Y-121760038D01*
X152315581Y-121780250D01*
X152320797Y-121801074D01*
X152323947Y-121822309D01*
X152325000Y-121843750D01*
X152325000Y-122281250D01*
X152323947Y-122302691D01*
X152320797Y-122323926D01*
X152315581Y-122344750D01*
X152308349Y-122364962D01*
X152299170Y-122384368D01*
X152288134Y-122402781D01*
X152275346Y-122420024D01*
X152260930Y-122435930D01*
X152245024Y-122450346D01*
X152227781Y-122463134D01*
X152209368Y-122474170D01*
X152189962Y-122483349D01*
X152169750Y-122490581D01*
X152148926Y-122495797D01*
X152127691Y-122498947D01*
X152106250Y-122500000D01*
X151593750Y-122500000D01*
X151572309Y-122498947D01*
X151551074Y-122495797D01*
X151530250Y-122490581D01*
X151510038Y-122483349D01*
X151490632Y-122474170D01*
X151472219Y-122463134D01*
X151454976Y-122450346D01*
X151439070Y-122435930D01*
X151424654Y-122420024D01*
X151411866Y-122402781D01*
X151400830Y-122384368D01*
X151391651Y-122364962D01*
X151384419Y-122344750D01*
X151379203Y-122323926D01*
X151376053Y-122302691D01*
X151375000Y-122281250D01*
X151375000Y-121843750D01*
X151376053Y-121822309D01*
X151379203Y-121801074D01*
X151384419Y-121780250D01*
X151391651Y-121760038D01*
X151400830Y-121740632D01*
X151411866Y-121722219D01*
X151424654Y-121704976D01*
X151439070Y-121689070D01*
X151454976Y-121674654D01*
X151472219Y-121661866D01*
X151490632Y-121650830D01*
X151510038Y-121641651D01*
X151530250Y-121634419D01*
X151551074Y-121629203D01*
X151572309Y-121626053D01*
X151593750Y-121625000D01*
X152106250Y-121625000D01*
X152127691Y-121626053D01*
X152127691Y-121626053D01*
G37*
D12*
X151850000Y-122062500D03*
D11*
G36*
X137327691Y-96226053D02*
G01*
X137348926Y-96229203D01*
X137369750Y-96234419D01*
X137389962Y-96241651D01*
X137409368Y-96250830D01*
X137427781Y-96261866D01*
X137445024Y-96274654D01*
X137460930Y-96289070D01*
X137475346Y-96304976D01*
X137488134Y-96322219D01*
X137499170Y-96340632D01*
X137508349Y-96360038D01*
X137515581Y-96380250D01*
X137520797Y-96401074D01*
X137523947Y-96422309D01*
X137525000Y-96443750D01*
X137525000Y-96881250D01*
X137523947Y-96902691D01*
X137520797Y-96923926D01*
X137515581Y-96944750D01*
X137508349Y-96964962D01*
X137499170Y-96984368D01*
X137488134Y-97002781D01*
X137475346Y-97020024D01*
X137460930Y-97035930D01*
X137445024Y-97050346D01*
X137427781Y-97063134D01*
X137409368Y-97074170D01*
X137389962Y-97083349D01*
X137369750Y-97090581D01*
X137348926Y-97095797D01*
X137327691Y-97098947D01*
X137306250Y-97100000D01*
X136793750Y-97100000D01*
X136772309Y-97098947D01*
X136751074Y-97095797D01*
X136730250Y-97090581D01*
X136710038Y-97083349D01*
X136690632Y-97074170D01*
X136672219Y-97063134D01*
X136654976Y-97050346D01*
X136639070Y-97035930D01*
X136624654Y-97020024D01*
X136611866Y-97002781D01*
X136600830Y-96984368D01*
X136591651Y-96964962D01*
X136584419Y-96944750D01*
X136579203Y-96923926D01*
X136576053Y-96902691D01*
X136575000Y-96881250D01*
X136575000Y-96443750D01*
X136576053Y-96422309D01*
X136579203Y-96401074D01*
X136584419Y-96380250D01*
X136591651Y-96360038D01*
X136600830Y-96340632D01*
X136611866Y-96322219D01*
X136624654Y-96304976D01*
X136639070Y-96289070D01*
X136654976Y-96274654D01*
X136672219Y-96261866D01*
X136690632Y-96250830D01*
X136710038Y-96241651D01*
X136730250Y-96234419D01*
X136751074Y-96229203D01*
X136772309Y-96226053D01*
X136793750Y-96225000D01*
X137306250Y-96225000D01*
X137327691Y-96226053D01*
X137327691Y-96226053D01*
G37*
D12*
X137050000Y-96662500D03*
D11*
G36*
X137327691Y-97801053D02*
G01*
X137348926Y-97804203D01*
X137369750Y-97809419D01*
X137389962Y-97816651D01*
X137409368Y-97825830D01*
X137427781Y-97836866D01*
X137445024Y-97849654D01*
X137460930Y-97864070D01*
X137475346Y-97879976D01*
X137488134Y-97897219D01*
X137499170Y-97915632D01*
X137508349Y-97935038D01*
X137515581Y-97955250D01*
X137520797Y-97976074D01*
X137523947Y-97997309D01*
X137525000Y-98018750D01*
X137525000Y-98456250D01*
X137523947Y-98477691D01*
X137520797Y-98498926D01*
X137515581Y-98519750D01*
X137508349Y-98539962D01*
X137499170Y-98559368D01*
X137488134Y-98577781D01*
X137475346Y-98595024D01*
X137460930Y-98610930D01*
X137445024Y-98625346D01*
X137427781Y-98638134D01*
X137409368Y-98649170D01*
X137389962Y-98658349D01*
X137369750Y-98665581D01*
X137348926Y-98670797D01*
X137327691Y-98673947D01*
X137306250Y-98675000D01*
X136793750Y-98675000D01*
X136772309Y-98673947D01*
X136751074Y-98670797D01*
X136730250Y-98665581D01*
X136710038Y-98658349D01*
X136690632Y-98649170D01*
X136672219Y-98638134D01*
X136654976Y-98625346D01*
X136639070Y-98610930D01*
X136624654Y-98595024D01*
X136611866Y-98577781D01*
X136600830Y-98559368D01*
X136591651Y-98539962D01*
X136584419Y-98519750D01*
X136579203Y-98498926D01*
X136576053Y-98477691D01*
X136575000Y-98456250D01*
X136575000Y-98018750D01*
X136576053Y-97997309D01*
X136579203Y-97976074D01*
X136584419Y-97955250D01*
X136591651Y-97935038D01*
X136600830Y-97915632D01*
X136611866Y-97897219D01*
X136624654Y-97879976D01*
X136639070Y-97864070D01*
X136654976Y-97849654D01*
X136672219Y-97836866D01*
X136690632Y-97825830D01*
X136710038Y-97816651D01*
X136730250Y-97809419D01*
X136751074Y-97804203D01*
X136772309Y-97801053D01*
X136793750Y-97800000D01*
X137306250Y-97800000D01*
X137327691Y-97801053D01*
X137327691Y-97801053D01*
G37*
D12*
X137050000Y-98237500D03*
D11*
G36*
X154127691Y-123201053D02*
G01*
X154148926Y-123204203D01*
X154169750Y-123209419D01*
X154189962Y-123216651D01*
X154209368Y-123225830D01*
X154227781Y-123236866D01*
X154245024Y-123249654D01*
X154260930Y-123264070D01*
X154275346Y-123279976D01*
X154288134Y-123297219D01*
X154299170Y-123315632D01*
X154308349Y-123335038D01*
X154315581Y-123355250D01*
X154320797Y-123376074D01*
X154323947Y-123397309D01*
X154325000Y-123418750D01*
X154325000Y-123856250D01*
X154323947Y-123877691D01*
X154320797Y-123898926D01*
X154315581Y-123919750D01*
X154308349Y-123939962D01*
X154299170Y-123959368D01*
X154288134Y-123977781D01*
X154275346Y-123995024D01*
X154260930Y-124010930D01*
X154245024Y-124025346D01*
X154227781Y-124038134D01*
X154209368Y-124049170D01*
X154189962Y-124058349D01*
X154169750Y-124065581D01*
X154148926Y-124070797D01*
X154127691Y-124073947D01*
X154106250Y-124075000D01*
X153593750Y-124075000D01*
X153572309Y-124073947D01*
X153551074Y-124070797D01*
X153530250Y-124065581D01*
X153510038Y-124058349D01*
X153490632Y-124049170D01*
X153472219Y-124038134D01*
X153454976Y-124025346D01*
X153439070Y-124010930D01*
X153424654Y-123995024D01*
X153411866Y-123977781D01*
X153400830Y-123959368D01*
X153391651Y-123939962D01*
X153384419Y-123919750D01*
X153379203Y-123898926D01*
X153376053Y-123877691D01*
X153375000Y-123856250D01*
X153375000Y-123418750D01*
X153376053Y-123397309D01*
X153379203Y-123376074D01*
X153384419Y-123355250D01*
X153391651Y-123335038D01*
X153400830Y-123315632D01*
X153411866Y-123297219D01*
X153424654Y-123279976D01*
X153439070Y-123264070D01*
X153454976Y-123249654D01*
X153472219Y-123236866D01*
X153490632Y-123225830D01*
X153510038Y-123216651D01*
X153530250Y-123209419D01*
X153551074Y-123204203D01*
X153572309Y-123201053D01*
X153593750Y-123200000D01*
X154106250Y-123200000D01*
X154127691Y-123201053D01*
X154127691Y-123201053D01*
G37*
D12*
X153850000Y-123637500D03*
D11*
G36*
X154127691Y-121626053D02*
G01*
X154148926Y-121629203D01*
X154169750Y-121634419D01*
X154189962Y-121641651D01*
X154209368Y-121650830D01*
X154227781Y-121661866D01*
X154245024Y-121674654D01*
X154260930Y-121689070D01*
X154275346Y-121704976D01*
X154288134Y-121722219D01*
X154299170Y-121740632D01*
X154308349Y-121760038D01*
X154315581Y-121780250D01*
X154320797Y-121801074D01*
X154323947Y-121822309D01*
X154325000Y-121843750D01*
X154325000Y-122281250D01*
X154323947Y-122302691D01*
X154320797Y-122323926D01*
X154315581Y-122344750D01*
X154308349Y-122364962D01*
X154299170Y-122384368D01*
X154288134Y-122402781D01*
X154275346Y-122420024D01*
X154260930Y-122435930D01*
X154245024Y-122450346D01*
X154227781Y-122463134D01*
X154209368Y-122474170D01*
X154189962Y-122483349D01*
X154169750Y-122490581D01*
X154148926Y-122495797D01*
X154127691Y-122498947D01*
X154106250Y-122500000D01*
X153593750Y-122500000D01*
X153572309Y-122498947D01*
X153551074Y-122495797D01*
X153530250Y-122490581D01*
X153510038Y-122483349D01*
X153490632Y-122474170D01*
X153472219Y-122463134D01*
X153454976Y-122450346D01*
X153439070Y-122435930D01*
X153424654Y-122420024D01*
X153411866Y-122402781D01*
X153400830Y-122384368D01*
X153391651Y-122364962D01*
X153384419Y-122344750D01*
X153379203Y-122323926D01*
X153376053Y-122302691D01*
X153375000Y-122281250D01*
X153375000Y-121843750D01*
X153376053Y-121822309D01*
X153379203Y-121801074D01*
X153384419Y-121780250D01*
X153391651Y-121760038D01*
X153400830Y-121740632D01*
X153411866Y-121722219D01*
X153424654Y-121704976D01*
X153439070Y-121689070D01*
X153454976Y-121674654D01*
X153472219Y-121661866D01*
X153490632Y-121650830D01*
X153510038Y-121641651D01*
X153530250Y-121634419D01*
X153551074Y-121629203D01*
X153572309Y-121626053D01*
X153593750Y-121625000D01*
X154106250Y-121625000D01*
X154127691Y-121626053D01*
X154127691Y-121626053D01*
G37*
D12*
X153850000Y-122062500D03*
D11*
G36*
X141277691Y-123201053D02*
G01*
X141298926Y-123204203D01*
X141319750Y-123209419D01*
X141339962Y-123216651D01*
X141359368Y-123225830D01*
X141377781Y-123236866D01*
X141395024Y-123249654D01*
X141410930Y-123264070D01*
X141425346Y-123279976D01*
X141438134Y-123297219D01*
X141449170Y-123315632D01*
X141458349Y-123335038D01*
X141465581Y-123355250D01*
X141470797Y-123376074D01*
X141473947Y-123397309D01*
X141475000Y-123418750D01*
X141475000Y-123856250D01*
X141473947Y-123877691D01*
X141470797Y-123898926D01*
X141465581Y-123919750D01*
X141458349Y-123939962D01*
X141449170Y-123959368D01*
X141438134Y-123977781D01*
X141425346Y-123995024D01*
X141410930Y-124010930D01*
X141395024Y-124025346D01*
X141377781Y-124038134D01*
X141359368Y-124049170D01*
X141339962Y-124058349D01*
X141319750Y-124065581D01*
X141298926Y-124070797D01*
X141277691Y-124073947D01*
X141256250Y-124075000D01*
X140743750Y-124075000D01*
X140722309Y-124073947D01*
X140701074Y-124070797D01*
X140680250Y-124065581D01*
X140660038Y-124058349D01*
X140640632Y-124049170D01*
X140622219Y-124038134D01*
X140604976Y-124025346D01*
X140589070Y-124010930D01*
X140574654Y-123995024D01*
X140561866Y-123977781D01*
X140550830Y-123959368D01*
X140541651Y-123939962D01*
X140534419Y-123919750D01*
X140529203Y-123898926D01*
X140526053Y-123877691D01*
X140525000Y-123856250D01*
X140525000Y-123418750D01*
X140526053Y-123397309D01*
X140529203Y-123376074D01*
X140534419Y-123355250D01*
X140541651Y-123335038D01*
X140550830Y-123315632D01*
X140561866Y-123297219D01*
X140574654Y-123279976D01*
X140589070Y-123264070D01*
X140604976Y-123249654D01*
X140622219Y-123236866D01*
X140640632Y-123225830D01*
X140660038Y-123216651D01*
X140680250Y-123209419D01*
X140701074Y-123204203D01*
X140722309Y-123201053D01*
X140743750Y-123200000D01*
X141256250Y-123200000D01*
X141277691Y-123201053D01*
X141277691Y-123201053D01*
G37*
D12*
X141000000Y-123637500D03*
D11*
G36*
X141277691Y-121626053D02*
G01*
X141298926Y-121629203D01*
X141319750Y-121634419D01*
X141339962Y-121641651D01*
X141359368Y-121650830D01*
X141377781Y-121661866D01*
X141395024Y-121674654D01*
X141410930Y-121689070D01*
X141425346Y-121704976D01*
X141438134Y-121722219D01*
X141449170Y-121740632D01*
X141458349Y-121760038D01*
X141465581Y-121780250D01*
X141470797Y-121801074D01*
X141473947Y-121822309D01*
X141475000Y-121843750D01*
X141475000Y-122281250D01*
X141473947Y-122302691D01*
X141470797Y-122323926D01*
X141465581Y-122344750D01*
X141458349Y-122364962D01*
X141449170Y-122384368D01*
X141438134Y-122402781D01*
X141425346Y-122420024D01*
X141410930Y-122435930D01*
X141395024Y-122450346D01*
X141377781Y-122463134D01*
X141359368Y-122474170D01*
X141339962Y-122483349D01*
X141319750Y-122490581D01*
X141298926Y-122495797D01*
X141277691Y-122498947D01*
X141256250Y-122500000D01*
X140743750Y-122500000D01*
X140722309Y-122498947D01*
X140701074Y-122495797D01*
X140680250Y-122490581D01*
X140660038Y-122483349D01*
X140640632Y-122474170D01*
X140622219Y-122463134D01*
X140604976Y-122450346D01*
X140589070Y-122435930D01*
X140574654Y-122420024D01*
X140561866Y-122402781D01*
X140550830Y-122384368D01*
X140541651Y-122364962D01*
X140534419Y-122344750D01*
X140529203Y-122323926D01*
X140526053Y-122302691D01*
X140525000Y-122281250D01*
X140525000Y-121843750D01*
X140526053Y-121822309D01*
X140529203Y-121801074D01*
X140534419Y-121780250D01*
X140541651Y-121760038D01*
X140550830Y-121740632D01*
X140561866Y-121722219D01*
X140574654Y-121704976D01*
X140589070Y-121689070D01*
X140604976Y-121674654D01*
X140622219Y-121661866D01*
X140640632Y-121650830D01*
X140660038Y-121641651D01*
X140680250Y-121634419D01*
X140701074Y-121629203D01*
X140722309Y-121626053D01*
X140743750Y-121625000D01*
X141256250Y-121625000D01*
X141277691Y-121626053D01*
X141277691Y-121626053D01*
G37*
D12*
X141000000Y-122062500D03*
D11*
G36*
X139327691Y-123201053D02*
G01*
X139348926Y-123204203D01*
X139369750Y-123209419D01*
X139389962Y-123216651D01*
X139409368Y-123225830D01*
X139427781Y-123236866D01*
X139445024Y-123249654D01*
X139460930Y-123264070D01*
X139475346Y-123279976D01*
X139488134Y-123297219D01*
X139499170Y-123315632D01*
X139508349Y-123335038D01*
X139515581Y-123355250D01*
X139520797Y-123376074D01*
X139523947Y-123397309D01*
X139525000Y-123418750D01*
X139525000Y-123856250D01*
X139523947Y-123877691D01*
X139520797Y-123898926D01*
X139515581Y-123919750D01*
X139508349Y-123939962D01*
X139499170Y-123959368D01*
X139488134Y-123977781D01*
X139475346Y-123995024D01*
X139460930Y-124010930D01*
X139445024Y-124025346D01*
X139427781Y-124038134D01*
X139409368Y-124049170D01*
X139389962Y-124058349D01*
X139369750Y-124065581D01*
X139348926Y-124070797D01*
X139327691Y-124073947D01*
X139306250Y-124075000D01*
X138793750Y-124075000D01*
X138772309Y-124073947D01*
X138751074Y-124070797D01*
X138730250Y-124065581D01*
X138710038Y-124058349D01*
X138690632Y-124049170D01*
X138672219Y-124038134D01*
X138654976Y-124025346D01*
X138639070Y-124010930D01*
X138624654Y-123995024D01*
X138611866Y-123977781D01*
X138600830Y-123959368D01*
X138591651Y-123939962D01*
X138584419Y-123919750D01*
X138579203Y-123898926D01*
X138576053Y-123877691D01*
X138575000Y-123856250D01*
X138575000Y-123418750D01*
X138576053Y-123397309D01*
X138579203Y-123376074D01*
X138584419Y-123355250D01*
X138591651Y-123335038D01*
X138600830Y-123315632D01*
X138611866Y-123297219D01*
X138624654Y-123279976D01*
X138639070Y-123264070D01*
X138654976Y-123249654D01*
X138672219Y-123236866D01*
X138690632Y-123225830D01*
X138710038Y-123216651D01*
X138730250Y-123209419D01*
X138751074Y-123204203D01*
X138772309Y-123201053D01*
X138793750Y-123200000D01*
X139306250Y-123200000D01*
X139327691Y-123201053D01*
X139327691Y-123201053D01*
G37*
D12*
X139050000Y-123637500D03*
D11*
G36*
X139327691Y-121626053D02*
G01*
X139348926Y-121629203D01*
X139369750Y-121634419D01*
X139389962Y-121641651D01*
X139409368Y-121650830D01*
X139427781Y-121661866D01*
X139445024Y-121674654D01*
X139460930Y-121689070D01*
X139475346Y-121704976D01*
X139488134Y-121722219D01*
X139499170Y-121740632D01*
X139508349Y-121760038D01*
X139515581Y-121780250D01*
X139520797Y-121801074D01*
X139523947Y-121822309D01*
X139525000Y-121843750D01*
X139525000Y-122281250D01*
X139523947Y-122302691D01*
X139520797Y-122323926D01*
X139515581Y-122344750D01*
X139508349Y-122364962D01*
X139499170Y-122384368D01*
X139488134Y-122402781D01*
X139475346Y-122420024D01*
X139460930Y-122435930D01*
X139445024Y-122450346D01*
X139427781Y-122463134D01*
X139409368Y-122474170D01*
X139389962Y-122483349D01*
X139369750Y-122490581D01*
X139348926Y-122495797D01*
X139327691Y-122498947D01*
X139306250Y-122500000D01*
X138793750Y-122500000D01*
X138772309Y-122498947D01*
X138751074Y-122495797D01*
X138730250Y-122490581D01*
X138710038Y-122483349D01*
X138690632Y-122474170D01*
X138672219Y-122463134D01*
X138654976Y-122450346D01*
X138639070Y-122435930D01*
X138624654Y-122420024D01*
X138611866Y-122402781D01*
X138600830Y-122384368D01*
X138591651Y-122364962D01*
X138584419Y-122344750D01*
X138579203Y-122323926D01*
X138576053Y-122302691D01*
X138575000Y-122281250D01*
X138575000Y-121843750D01*
X138576053Y-121822309D01*
X138579203Y-121801074D01*
X138584419Y-121780250D01*
X138591651Y-121760038D01*
X138600830Y-121740632D01*
X138611866Y-121722219D01*
X138624654Y-121704976D01*
X138639070Y-121689070D01*
X138654976Y-121674654D01*
X138672219Y-121661866D01*
X138690632Y-121650830D01*
X138710038Y-121641651D01*
X138730250Y-121634419D01*
X138751074Y-121629203D01*
X138772309Y-121626053D01*
X138793750Y-121625000D01*
X139306250Y-121625000D01*
X139327691Y-121626053D01*
X139327691Y-121626053D01*
G37*
D12*
X139050000Y-122062500D03*
D11*
G36*
X129277691Y-96186053D02*
G01*
X129298926Y-96189203D01*
X129319750Y-96194419D01*
X129339962Y-96201651D01*
X129359368Y-96210830D01*
X129377781Y-96221866D01*
X129395024Y-96234654D01*
X129410930Y-96249070D01*
X129425346Y-96264976D01*
X129438134Y-96282219D01*
X129449170Y-96300632D01*
X129458349Y-96320038D01*
X129465581Y-96340250D01*
X129470797Y-96361074D01*
X129473947Y-96382309D01*
X129475000Y-96403750D01*
X129475000Y-96841250D01*
X129473947Y-96862691D01*
X129470797Y-96883926D01*
X129465581Y-96904750D01*
X129458349Y-96924962D01*
X129449170Y-96944368D01*
X129438134Y-96962781D01*
X129425346Y-96980024D01*
X129410930Y-96995930D01*
X129395024Y-97010346D01*
X129377781Y-97023134D01*
X129359368Y-97034170D01*
X129339962Y-97043349D01*
X129319750Y-97050581D01*
X129298926Y-97055797D01*
X129277691Y-97058947D01*
X129256250Y-97060000D01*
X128743750Y-97060000D01*
X128722309Y-97058947D01*
X128701074Y-97055797D01*
X128680250Y-97050581D01*
X128660038Y-97043349D01*
X128640632Y-97034170D01*
X128622219Y-97023134D01*
X128604976Y-97010346D01*
X128589070Y-96995930D01*
X128574654Y-96980024D01*
X128561866Y-96962781D01*
X128550830Y-96944368D01*
X128541651Y-96924962D01*
X128534419Y-96904750D01*
X128529203Y-96883926D01*
X128526053Y-96862691D01*
X128525000Y-96841250D01*
X128525000Y-96403750D01*
X128526053Y-96382309D01*
X128529203Y-96361074D01*
X128534419Y-96340250D01*
X128541651Y-96320038D01*
X128550830Y-96300632D01*
X128561866Y-96282219D01*
X128574654Y-96264976D01*
X128589070Y-96249070D01*
X128604976Y-96234654D01*
X128622219Y-96221866D01*
X128640632Y-96210830D01*
X128660038Y-96201651D01*
X128680250Y-96194419D01*
X128701074Y-96189203D01*
X128722309Y-96186053D01*
X128743750Y-96185000D01*
X129256250Y-96185000D01*
X129277691Y-96186053D01*
X129277691Y-96186053D01*
G37*
D12*
X129000000Y-96622500D03*
D11*
G36*
X129277691Y-97761053D02*
G01*
X129298926Y-97764203D01*
X129319750Y-97769419D01*
X129339962Y-97776651D01*
X129359368Y-97785830D01*
X129377781Y-97796866D01*
X129395024Y-97809654D01*
X129410930Y-97824070D01*
X129425346Y-97839976D01*
X129438134Y-97857219D01*
X129449170Y-97875632D01*
X129458349Y-97895038D01*
X129465581Y-97915250D01*
X129470797Y-97936074D01*
X129473947Y-97957309D01*
X129475000Y-97978750D01*
X129475000Y-98416250D01*
X129473947Y-98437691D01*
X129470797Y-98458926D01*
X129465581Y-98479750D01*
X129458349Y-98499962D01*
X129449170Y-98519368D01*
X129438134Y-98537781D01*
X129425346Y-98555024D01*
X129410930Y-98570930D01*
X129395024Y-98585346D01*
X129377781Y-98598134D01*
X129359368Y-98609170D01*
X129339962Y-98618349D01*
X129319750Y-98625581D01*
X129298926Y-98630797D01*
X129277691Y-98633947D01*
X129256250Y-98635000D01*
X128743750Y-98635000D01*
X128722309Y-98633947D01*
X128701074Y-98630797D01*
X128680250Y-98625581D01*
X128660038Y-98618349D01*
X128640632Y-98609170D01*
X128622219Y-98598134D01*
X128604976Y-98585346D01*
X128589070Y-98570930D01*
X128574654Y-98555024D01*
X128561866Y-98537781D01*
X128550830Y-98519368D01*
X128541651Y-98499962D01*
X128534419Y-98479750D01*
X128529203Y-98458926D01*
X128526053Y-98437691D01*
X128525000Y-98416250D01*
X128525000Y-97978750D01*
X128526053Y-97957309D01*
X128529203Y-97936074D01*
X128534419Y-97915250D01*
X128541651Y-97895038D01*
X128550830Y-97875632D01*
X128561866Y-97857219D01*
X128574654Y-97839976D01*
X128589070Y-97824070D01*
X128604976Y-97809654D01*
X128622219Y-97796866D01*
X128640632Y-97785830D01*
X128660038Y-97776651D01*
X128680250Y-97769419D01*
X128701074Y-97764203D01*
X128722309Y-97761053D01*
X128743750Y-97760000D01*
X129256250Y-97760000D01*
X129277691Y-97761053D01*
X129277691Y-97761053D01*
G37*
D12*
X129000000Y-98197500D03*
D11*
G36*
X153277691Y-113101053D02*
G01*
X153298926Y-113104203D01*
X153319750Y-113109419D01*
X153339962Y-113116651D01*
X153359368Y-113125830D01*
X153377781Y-113136866D01*
X153395024Y-113149654D01*
X153410930Y-113164070D01*
X153425346Y-113179976D01*
X153438134Y-113197219D01*
X153449170Y-113215632D01*
X153458349Y-113235038D01*
X153465581Y-113255250D01*
X153470797Y-113276074D01*
X153473947Y-113297309D01*
X153475000Y-113318750D01*
X153475000Y-113756250D01*
X153473947Y-113777691D01*
X153470797Y-113798926D01*
X153465581Y-113819750D01*
X153458349Y-113839962D01*
X153449170Y-113859368D01*
X153438134Y-113877781D01*
X153425346Y-113895024D01*
X153410930Y-113910930D01*
X153395024Y-113925346D01*
X153377781Y-113938134D01*
X153359368Y-113949170D01*
X153339962Y-113958349D01*
X153319750Y-113965581D01*
X153298926Y-113970797D01*
X153277691Y-113973947D01*
X153256250Y-113975000D01*
X152743750Y-113975000D01*
X152722309Y-113973947D01*
X152701074Y-113970797D01*
X152680250Y-113965581D01*
X152660038Y-113958349D01*
X152640632Y-113949170D01*
X152622219Y-113938134D01*
X152604976Y-113925346D01*
X152589070Y-113910930D01*
X152574654Y-113895024D01*
X152561866Y-113877781D01*
X152550830Y-113859368D01*
X152541651Y-113839962D01*
X152534419Y-113819750D01*
X152529203Y-113798926D01*
X152526053Y-113777691D01*
X152525000Y-113756250D01*
X152525000Y-113318750D01*
X152526053Y-113297309D01*
X152529203Y-113276074D01*
X152534419Y-113255250D01*
X152541651Y-113235038D01*
X152550830Y-113215632D01*
X152561866Y-113197219D01*
X152574654Y-113179976D01*
X152589070Y-113164070D01*
X152604976Y-113149654D01*
X152622219Y-113136866D01*
X152640632Y-113125830D01*
X152660038Y-113116651D01*
X152680250Y-113109419D01*
X152701074Y-113104203D01*
X152722309Y-113101053D01*
X152743750Y-113100000D01*
X153256250Y-113100000D01*
X153277691Y-113101053D01*
X153277691Y-113101053D01*
G37*
D12*
X153000000Y-113537500D03*
D11*
G36*
X153277691Y-111526053D02*
G01*
X153298926Y-111529203D01*
X153319750Y-111534419D01*
X153339962Y-111541651D01*
X153359368Y-111550830D01*
X153377781Y-111561866D01*
X153395024Y-111574654D01*
X153410930Y-111589070D01*
X153425346Y-111604976D01*
X153438134Y-111622219D01*
X153449170Y-111640632D01*
X153458349Y-111660038D01*
X153465581Y-111680250D01*
X153470797Y-111701074D01*
X153473947Y-111722309D01*
X153475000Y-111743750D01*
X153475000Y-112181250D01*
X153473947Y-112202691D01*
X153470797Y-112223926D01*
X153465581Y-112244750D01*
X153458349Y-112264962D01*
X153449170Y-112284368D01*
X153438134Y-112302781D01*
X153425346Y-112320024D01*
X153410930Y-112335930D01*
X153395024Y-112350346D01*
X153377781Y-112363134D01*
X153359368Y-112374170D01*
X153339962Y-112383349D01*
X153319750Y-112390581D01*
X153298926Y-112395797D01*
X153277691Y-112398947D01*
X153256250Y-112400000D01*
X152743750Y-112400000D01*
X152722309Y-112398947D01*
X152701074Y-112395797D01*
X152680250Y-112390581D01*
X152660038Y-112383349D01*
X152640632Y-112374170D01*
X152622219Y-112363134D01*
X152604976Y-112350346D01*
X152589070Y-112335930D01*
X152574654Y-112320024D01*
X152561866Y-112302781D01*
X152550830Y-112284368D01*
X152541651Y-112264962D01*
X152534419Y-112244750D01*
X152529203Y-112223926D01*
X152526053Y-112202691D01*
X152525000Y-112181250D01*
X152525000Y-111743750D01*
X152526053Y-111722309D01*
X152529203Y-111701074D01*
X152534419Y-111680250D01*
X152541651Y-111660038D01*
X152550830Y-111640632D01*
X152561866Y-111622219D01*
X152574654Y-111604976D01*
X152589070Y-111589070D01*
X152604976Y-111574654D01*
X152622219Y-111561866D01*
X152640632Y-111550830D01*
X152660038Y-111541651D01*
X152680250Y-111534419D01*
X152701074Y-111529203D01*
X152722309Y-111526053D01*
X152743750Y-111525000D01*
X153256250Y-111525000D01*
X153277691Y-111526053D01*
X153277691Y-111526053D01*
G37*
D12*
X153000000Y-111962500D03*
D11*
G36*
X158677691Y-108601053D02*
G01*
X158698926Y-108604203D01*
X158719750Y-108609419D01*
X158739962Y-108616651D01*
X158759368Y-108625830D01*
X158777781Y-108636866D01*
X158795024Y-108649654D01*
X158810930Y-108664070D01*
X158825346Y-108679976D01*
X158838134Y-108697219D01*
X158849170Y-108715632D01*
X158858349Y-108735038D01*
X158865581Y-108755250D01*
X158870797Y-108776074D01*
X158873947Y-108797309D01*
X158875000Y-108818750D01*
X158875000Y-109256250D01*
X158873947Y-109277691D01*
X158870797Y-109298926D01*
X158865581Y-109319750D01*
X158858349Y-109339962D01*
X158849170Y-109359368D01*
X158838134Y-109377781D01*
X158825346Y-109395024D01*
X158810930Y-109410930D01*
X158795024Y-109425346D01*
X158777781Y-109438134D01*
X158759368Y-109449170D01*
X158739962Y-109458349D01*
X158719750Y-109465581D01*
X158698926Y-109470797D01*
X158677691Y-109473947D01*
X158656250Y-109475000D01*
X158143750Y-109475000D01*
X158122309Y-109473947D01*
X158101074Y-109470797D01*
X158080250Y-109465581D01*
X158060038Y-109458349D01*
X158040632Y-109449170D01*
X158022219Y-109438134D01*
X158004976Y-109425346D01*
X157989070Y-109410930D01*
X157974654Y-109395024D01*
X157961866Y-109377781D01*
X157950830Y-109359368D01*
X157941651Y-109339962D01*
X157934419Y-109319750D01*
X157929203Y-109298926D01*
X157926053Y-109277691D01*
X157925000Y-109256250D01*
X157925000Y-108818750D01*
X157926053Y-108797309D01*
X157929203Y-108776074D01*
X157934419Y-108755250D01*
X157941651Y-108735038D01*
X157950830Y-108715632D01*
X157961866Y-108697219D01*
X157974654Y-108679976D01*
X157989070Y-108664070D01*
X158004976Y-108649654D01*
X158022219Y-108636866D01*
X158040632Y-108625830D01*
X158060038Y-108616651D01*
X158080250Y-108609419D01*
X158101074Y-108604203D01*
X158122309Y-108601053D01*
X158143750Y-108600000D01*
X158656250Y-108600000D01*
X158677691Y-108601053D01*
X158677691Y-108601053D01*
G37*
D12*
X158400000Y-109037500D03*
D11*
G36*
X158677691Y-107026053D02*
G01*
X158698926Y-107029203D01*
X158719750Y-107034419D01*
X158739962Y-107041651D01*
X158759368Y-107050830D01*
X158777781Y-107061866D01*
X158795024Y-107074654D01*
X158810930Y-107089070D01*
X158825346Y-107104976D01*
X158838134Y-107122219D01*
X158849170Y-107140632D01*
X158858349Y-107160038D01*
X158865581Y-107180250D01*
X158870797Y-107201074D01*
X158873947Y-107222309D01*
X158875000Y-107243750D01*
X158875000Y-107681250D01*
X158873947Y-107702691D01*
X158870797Y-107723926D01*
X158865581Y-107744750D01*
X158858349Y-107764962D01*
X158849170Y-107784368D01*
X158838134Y-107802781D01*
X158825346Y-107820024D01*
X158810930Y-107835930D01*
X158795024Y-107850346D01*
X158777781Y-107863134D01*
X158759368Y-107874170D01*
X158739962Y-107883349D01*
X158719750Y-107890581D01*
X158698926Y-107895797D01*
X158677691Y-107898947D01*
X158656250Y-107900000D01*
X158143750Y-107900000D01*
X158122309Y-107898947D01*
X158101074Y-107895797D01*
X158080250Y-107890581D01*
X158060038Y-107883349D01*
X158040632Y-107874170D01*
X158022219Y-107863134D01*
X158004976Y-107850346D01*
X157989070Y-107835930D01*
X157974654Y-107820024D01*
X157961866Y-107802781D01*
X157950830Y-107784368D01*
X157941651Y-107764962D01*
X157934419Y-107744750D01*
X157929203Y-107723926D01*
X157926053Y-107702691D01*
X157925000Y-107681250D01*
X157925000Y-107243750D01*
X157926053Y-107222309D01*
X157929203Y-107201074D01*
X157934419Y-107180250D01*
X157941651Y-107160038D01*
X157950830Y-107140632D01*
X157961866Y-107122219D01*
X157974654Y-107104976D01*
X157989070Y-107089070D01*
X158004976Y-107074654D01*
X158022219Y-107061866D01*
X158040632Y-107050830D01*
X158060038Y-107041651D01*
X158080250Y-107034419D01*
X158101074Y-107029203D01*
X158122309Y-107026053D01*
X158143750Y-107025000D01*
X158656250Y-107025000D01*
X158677691Y-107026053D01*
X158677691Y-107026053D01*
G37*
D12*
X158400000Y-107462500D03*
D11*
G36*
X158127691Y-121626053D02*
G01*
X158148926Y-121629203D01*
X158169750Y-121634419D01*
X158189962Y-121641651D01*
X158209368Y-121650830D01*
X158227781Y-121661866D01*
X158245024Y-121674654D01*
X158260930Y-121689070D01*
X158275346Y-121704976D01*
X158288134Y-121722219D01*
X158299170Y-121740632D01*
X158308349Y-121760038D01*
X158315581Y-121780250D01*
X158320797Y-121801074D01*
X158323947Y-121822309D01*
X158325000Y-121843750D01*
X158325000Y-122281250D01*
X158323947Y-122302691D01*
X158320797Y-122323926D01*
X158315581Y-122344750D01*
X158308349Y-122364962D01*
X158299170Y-122384368D01*
X158288134Y-122402781D01*
X158275346Y-122420024D01*
X158260930Y-122435930D01*
X158245024Y-122450346D01*
X158227781Y-122463134D01*
X158209368Y-122474170D01*
X158189962Y-122483349D01*
X158169750Y-122490581D01*
X158148926Y-122495797D01*
X158127691Y-122498947D01*
X158106250Y-122500000D01*
X157593750Y-122500000D01*
X157572309Y-122498947D01*
X157551074Y-122495797D01*
X157530250Y-122490581D01*
X157510038Y-122483349D01*
X157490632Y-122474170D01*
X157472219Y-122463134D01*
X157454976Y-122450346D01*
X157439070Y-122435930D01*
X157424654Y-122420024D01*
X157411866Y-122402781D01*
X157400830Y-122384368D01*
X157391651Y-122364962D01*
X157384419Y-122344750D01*
X157379203Y-122323926D01*
X157376053Y-122302691D01*
X157375000Y-122281250D01*
X157375000Y-121843750D01*
X157376053Y-121822309D01*
X157379203Y-121801074D01*
X157384419Y-121780250D01*
X157391651Y-121760038D01*
X157400830Y-121740632D01*
X157411866Y-121722219D01*
X157424654Y-121704976D01*
X157439070Y-121689070D01*
X157454976Y-121674654D01*
X157472219Y-121661866D01*
X157490632Y-121650830D01*
X157510038Y-121641651D01*
X157530250Y-121634419D01*
X157551074Y-121629203D01*
X157572309Y-121626053D01*
X157593750Y-121625000D01*
X158106250Y-121625000D01*
X158127691Y-121626053D01*
X158127691Y-121626053D01*
G37*
D12*
X157850000Y-122062500D03*
D11*
G36*
X158127691Y-123201053D02*
G01*
X158148926Y-123204203D01*
X158169750Y-123209419D01*
X158189962Y-123216651D01*
X158209368Y-123225830D01*
X158227781Y-123236866D01*
X158245024Y-123249654D01*
X158260930Y-123264070D01*
X158275346Y-123279976D01*
X158288134Y-123297219D01*
X158299170Y-123315632D01*
X158308349Y-123335038D01*
X158315581Y-123355250D01*
X158320797Y-123376074D01*
X158323947Y-123397309D01*
X158325000Y-123418750D01*
X158325000Y-123856250D01*
X158323947Y-123877691D01*
X158320797Y-123898926D01*
X158315581Y-123919750D01*
X158308349Y-123939962D01*
X158299170Y-123959368D01*
X158288134Y-123977781D01*
X158275346Y-123995024D01*
X158260930Y-124010930D01*
X158245024Y-124025346D01*
X158227781Y-124038134D01*
X158209368Y-124049170D01*
X158189962Y-124058349D01*
X158169750Y-124065581D01*
X158148926Y-124070797D01*
X158127691Y-124073947D01*
X158106250Y-124075000D01*
X157593750Y-124075000D01*
X157572309Y-124073947D01*
X157551074Y-124070797D01*
X157530250Y-124065581D01*
X157510038Y-124058349D01*
X157490632Y-124049170D01*
X157472219Y-124038134D01*
X157454976Y-124025346D01*
X157439070Y-124010930D01*
X157424654Y-123995024D01*
X157411866Y-123977781D01*
X157400830Y-123959368D01*
X157391651Y-123939962D01*
X157384419Y-123919750D01*
X157379203Y-123898926D01*
X157376053Y-123877691D01*
X157375000Y-123856250D01*
X157375000Y-123418750D01*
X157376053Y-123397309D01*
X157379203Y-123376074D01*
X157384419Y-123355250D01*
X157391651Y-123335038D01*
X157400830Y-123315632D01*
X157411866Y-123297219D01*
X157424654Y-123279976D01*
X157439070Y-123264070D01*
X157454976Y-123249654D01*
X157472219Y-123236866D01*
X157490632Y-123225830D01*
X157510038Y-123216651D01*
X157530250Y-123209419D01*
X157551074Y-123204203D01*
X157572309Y-123201053D01*
X157593750Y-123200000D01*
X158106250Y-123200000D01*
X158127691Y-123201053D01*
X158127691Y-123201053D01*
G37*
D12*
X157850000Y-123637500D03*
D11*
G36*
X152277691Y-118351053D02*
G01*
X152298926Y-118354203D01*
X152319750Y-118359419D01*
X152339962Y-118366651D01*
X152359368Y-118375830D01*
X152377781Y-118386866D01*
X152395024Y-118399654D01*
X152410930Y-118414070D01*
X152425346Y-118429976D01*
X152438134Y-118447219D01*
X152449170Y-118465632D01*
X152458349Y-118485038D01*
X152465581Y-118505250D01*
X152470797Y-118526074D01*
X152473947Y-118547309D01*
X152475000Y-118568750D01*
X152475000Y-119006250D01*
X152473947Y-119027691D01*
X152470797Y-119048926D01*
X152465581Y-119069750D01*
X152458349Y-119089962D01*
X152449170Y-119109368D01*
X152438134Y-119127781D01*
X152425346Y-119145024D01*
X152410930Y-119160930D01*
X152395024Y-119175346D01*
X152377781Y-119188134D01*
X152359368Y-119199170D01*
X152339962Y-119208349D01*
X152319750Y-119215581D01*
X152298926Y-119220797D01*
X152277691Y-119223947D01*
X152256250Y-119225000D01*
X151743750Y-119225000D01*
X151722309Y-119223947D01*
X151701074Y-119220797D01*
X151680250Y-119215581D01*
X151660038Y-119208349D01*
X151640632Y-119199170D01*
X151622219Y-119188134D01*
X151604976Y-119175346D01*
X151589070Y-119160930D01*
X151574654Y-119145024D01*
X151561866Y-119127781D01*
X151550830Y-119109368D01*
X151541651Y-119089962D01*
X151534419Y-119069750D01*
X151529203Y-119048926D01*
X151526053Y-119027691D01*
X151525000Y-119006250D01*
X151525000Y-118568750D01*
X151526053Y-118547309D01*
X151529203Y-118526074D01*
X151534419Y-118505250D01*
X151541651Y-118485038D01*
X151550830Y-118465632D01*
X151561866Y-118447219D01*
X151574654Y-118429976D01*
X151589070Y-118414070D01*
X151604976Y-118399654D01*
X151622219Y-118386866D01*
X151640632Y-118375830D01*
X151660038Y-118366651D01*
X151680250Y-118359419D01*
X151701074Y-118354203D01*
X151722309Y-118351053D01*
X151743750Y-118350000D01*
X152256250Y-118350000D01*
X152277691Y-118351053D01*
X152277691Y-118351053D01*
G37*
D12*
X152000000Y-118787500D03*
D11*
G36*
X152277691Y-116776053D02*
G01*
X152298926Y-116779203D01*
X152319750Y-116784419D01*
X152339962Y-116791651D01*
X152359368Y-116800830D01*
X152377781Y-116811866D01*
X152395024Y-116824654D01*
X152410930Y-116839070D01*
X152425346Y-116854976D01*
X152438134Y-116872219D01*
X152449170Y-116890632D01*
X152458349Y-116910038D01*
X152465581Y-116930250D01*
X152470797Y-116951074D01*
X152473947Y-116972309D01*
X152475000Y-116993750D01*
X152475000Y-117431250D01*
X152473947Y-117452691D01*
X152470797Y-117473926D01*
X152465581Y-117494750D01*
X152458349Y-117514962D01*
X152449170Y-117534368D01*
X152438134Y-117552781D01*
X152425346Y-117570024D01*
X152410930Y-117585930D01*
X152395024Y-117600346D01*
X152377781Y-117613134D01*
X152359368Y-117624170D01*
X152339962Y-117633349D01*
X152319750Y-117640581D01*
X152298926Y-117645797D01*
X152277691Y-117648947D01*
X152256250Y-117650000D01*
X151743750Y-117650000D01*
X151722309Y-117648947D01*
X151701074Y-117645797D01*
X151680250Y-117640581D01*
X151660038Y-117633349D01*
X151640632Y-117624170D01*
X151622219Y-117613134D01*
X151604976Y-117600346D01*
X151589070Y-117585930D01*
X151574654Y-117570024D01*
X151561866Y-117552781D01*
X151550830Y-117534368D01*
X151541651Y-117514962D01*
X151534419Y-117494750D01*
X151529203Y-117473926D01*
X151526053Y-117452691D01*
X151525000Y-117431250D01*
X151525000Y-116993750D01*
X151526053Y-116972309D01*
X151529203Y-116951074D01*
X151534419Y-116930250D01*
X151541651Y-116910038D01*
X151550830Y-116890632D01*
X151561866Y-116872219D01*
X151574654Y-116854976D01*
X151589070Y-116839070D01*
X151604976Y-116824654D01*
X151622219Y-116811866D01*
X151640632Y-116800830D01*
X151660038Y-116791651D01*
X151680250Y-116784419D01*
X151701074Y-116779203D01*
X151722309Y-116776053D01*
X151743750Y-116775000D01*
X152256250Y-116775000D01*
X152277691Y-116776053D01*
X152277691Y-116776053D01*
G37*
D12*
X152000000Y-117212500D03*
D11*
G36*
X156127691Y-121626053D02*
G01*
X156148926Y-121629203D01*
X156169750Y-121634419D01*
X156189962Y-121641651D01*
X156209368Y-121650830D01*
X156227781Y-121661866D01*
X156245024Y-121674654D01*
X156260930Y-121689070D01*
X156275346Y-121704976D01*
X156288134Y-121722219D01*
X156299170Y-121740632D01*
X156308349Y-121760038D01*
X156315581Y-121780250D01*
X156320797Y-121801074D01*
X156323947Y-121822309D01*
X156325000Y-121843750D01*
X156325000Y-122281250D01*
X156323947Y-122302691D01*
X156320797Y-122323926D01*
X156315581Y-122344750D01*
X156308349Y-122364962D01*
X156299170Y-122384368D01*
X156288134Y-122402781D01*
X156275346Y-122420024D01*
X156260930Y-122435930D01*
X156245024Y-122450346D01*
X156227781Y-122463134D01*
X156209368Y-122474170D01*
X156189962Y-122483349D01*
X156169750Y-122490581D01*
X156148926Y-122495797D01*
X156127691Y-122498947D01*
X156106250Y-122500000D01*
X155593750Y-122500000D01*
X155572309Y-122498947D01*
X155551074Y-122495797D01*
X155530250Y-122490581D01*
X155510038Y-122483349D01*
X155490632Y-122474170D01*
X155472219Y-122463134D01*
X155454976Y-122450346D01*
X155439070Y-122435930D01*
X155424654Y-122420024D01*
X155411866Y-122402781D01*
X155400830Y-122384368D01*
X155391651Y-122364962D01*
X155384419Y-122344750D01*
X155379203Y-122323926D01*
X155376053Y-122302691D01*
X155375000Y-122281250D01*
X155375000Y-121843750D01*
X155376053Y-121822309D01*
X155379203Y-121801074D01*
X155384419Y-121780250D01*
X155391651Y-121760038D01*
X155400830Y-121740632D01*
X155411866Y-121722219D01*
X155424654Y-121704976D01*
X155439070Y-121689070D01*
X155454976Y-121674654D01*
X155472219Y-121661866D01*
X155490632Y-121650830D01*
X155510038Y-121641651D01*
X155530250Y-121634419D01*
X155551074Y-121629203D01*
X155572309Y-121626053D01*
X155593750Y-121625000D01*
X156106250Y-121625000D01*
X156127691Y-121626053D01*
X156127691Y-121626053D01*
G37*
D12*
X155850000Y-122062500D03*
D11*
G36*
X156127691Y-123201053D02*
G01*
X156148926Y-123204203D01*
X156169750Y-123209419D01*
X156189962Y-123216651D01*
X156209368Y-123225830D01*
X156227781Y-123236866D01*
X156245024Y-123249654D01*
X156260930Y-123264070D01*
X156275346Y-123279976D01*
X156288134Y-123297219D01*
X156299170Y-123315632D01*
X156308349Y-123335038D01*
X156315581Y-123355250D01*
X156320797Y-123376074D01*
X156323947Y-123397309D01*
X156325000Y-123418750D01*
X156325000Y-123856250D01*
X156323947Y-123877691D01*
X156320797Y-123898926D01*
X156315581Y-123919750D01*
X156308349Y-123939962D01*
X156299170Y-123959368D01*
X156288134Y-123977781D01*
X156275346Y-123995024D01*
X156260930Y-124010930D01*
X156245024Y-124025346D01*
X156227781Y-124038134D01*
X156209368Y-124049170D01*
X156189962Y-124058349D01*
X156169750Y-124065581D01*
X156148926Y-124070797D01*
X156127691Y-124073947D01*
X156106250Y-124075000D01*
X155593750Y-124075000D01*
X155572309Y-124073947D01*
X155551074Y-124070797D01*
X155530250Y-124065581D01*
X155510038Y-124058349D01*
X155490632Y-124049170D01*
X155472219Y-124038134D01*
X155454976Y-124025346D01*
X155439070Y-124010930D01*
X155424654Y-123995024D01*
X155411866Y-123977781D01*
X155400830Y-123959368D01*
X155391651Y-123939962D01*
X155384419Y-123919750D01*
X155379203Y-123898926D01*
X155376053Y-123877691D01*
X155375000Y-123856250D01*
X155375000Y-123418750D01*
X155376053Y-123397309D01*
X155379203Y-123376074D01*
X155384419Y-123355250D01*
X155391651Y-123335038D01*
X155400830Y-123315632D01*
X155411866Y-123297219D01*
X155424654Y-123279976D01*
X155439070Y-123264070D01*
X155454976Y-123249654D01*
X155472219Y-123236866D01*
X155490632Y-123225830D01*
X155510038Y-123216651D01*
X155530250Y-123209419D01*
X155551074Y-123204203D01*
X155572309Y-123201053D01*
X155593750Y-123200000D01*
X156106250Y-123200000D01*
X156127691Y-123201053D01*
X156127691Y-123201053D01*
G37*
D12*
X155850000Y-123637500D03*
D11*
G36*
X142677691Y-108776053D02*
G01*
X142698926Y-108779203D01*
X142719750Y-108784419D01*
X142739962Y-108791651D01*
X142759368Y-108800830D01*
X142777781Y-108811866D01*
X142795024Y-108824654D01*
X142810930Y-108839070D01*
X142825346Y-108854976D01*
X142838134Y-108872219D01*
X142849170Y-108890632D01*
X142858349Y-108910038D01*
X142865581Y-108930250D01*
X142870797Y-108951074D01*
X142873947Y-108972309D01*
X142875000Y-108993750D01*
X142875000Y-109431250D01*
X142873947Y-109452691D01*
X142870797Y-109473926D01*
X142865581Y-109494750D01*
X142858349Y-109514962D01*
X142849170Y-109534368D01*
X142838134Y-109552781D01*
X142825346Y-109570024D01*
X142810930Y-109585930D01*
X142795024Y-109600346D01*
X142777781Y-109613134D01*
X142759368Y-109624170D01*
X142739962Y-109633349D01*
X142719750Y-109640581D01*
X142698926Y-109645797D01*
X142677691Y-109648947D01*
X142656250Y-109650000D01*
X142143750Y-109650000D01*
X142122309Y-109648947D01*
X142101074Y-109645797D01*
X142080250Y-109640581D01*
X142060038Y-109633349D01*
X142040632Y-109624170D01*
X142022219Y-109613134D01*
X142004976Y-109600346D01*
X141989070Y-109585930D01*
X141974654Y-109570024D01*
X141961866Y-109552781D01*
X141950830Y-109534368D01*
X141941651Y-109514962D01*
X141934419Y-109494750D01*
X141929203Y-109473926D01*
X141926053Y-109452691D01*
X141925000Y-109431250D01*
X141925000Y-108993750D01*
X141926053Y-108972309D01*
X141929203Y-108951074D01*
X141934419Y-108930250D01*
X141941651Y-108910038D01*
X141950830Y-108890632D01*
X141961866Y-108872219D01*
X141974654Y-108854976D01*
X141989070Y-108839070D01*
X142004976Y-108824654D01*
X142022219Y-108811866D01*
X142040632Y-108800830D01*
X142060038Y-108791651D01*
X142080250Y-108784419D01*
X142101074Y-108779203D01*
X142122309Y-108776053D01*
X142143750Y-108775000D01*
X142656250Y-108775000D01*
X142677691Y-108776053D01*
X142677691Y-108776053D01*
G37*
D12*
X142400000Y-109212500D03*
D11*
G36*
X142677691Y-110351053D02*
G01*
X142698926Y-110354203D01*
X142719750Y-110359419D01*
X142739962Y-110366651D01*
X142759368Y-110375830D01*
X142777781Y-110386866D01*
X142795024Y-110399654D01*
X142810930Y-110414070D01*
X142825346Y-110429976D01*
X142838134Y-110447219D01*
X142849170Y-110465632D01*
X142858349Y-110485038D01*
X142865581Y-110505250D01*
X142870797Y-110526074D01*
X142873947Y-110547309D01*
X142875000Y-110568750D01*
X142875000Y-111006250D01*
X142873947Y-111027691D01*
X142870797Y-111048926D01*
X142865581Y-111069750D01*
X142858349Y-111089962D01*
X142849170Y-111109368D01*
X142838134Y-111127781D01*
X142825346Y-111145024D01*
X142810930Y-111160930D01*
X142795024Y-111175346D01*
X142777781Y-111188134D01*
X142759368Y-111199170D01*
X142739962Y-111208349D01*
X142719750Y-111215581D01*
X142698926Y-111220797D01*
X142677691Y-111223947D01*
X142656250Y-111225000D01*
X142143750Y-111225000D01*
X142122309Y-111223947D01*
X142101074Y-111220797D01*
X142080250Y-111215581D01*
X142060038Y-111208349D01*
X142040632Y-111199170D01*
X142022219Y-111188134D01*
X142004976Y-111175346D01*
X141989070Y-111160930D01*
X141974654Y-111145024D01*
X141961866Y-111127781D01*
X141950830Y-111109368D01*
X141941651Y-111089962D01*
X141934419Y-111069750D01*
X141929203Y-111048926D01*
X141926053Y-111027691D01*
X141925000Y-111006250D01*
X141925000Y-110568750D01*
X141926053Y-110547309D01*
X141929203Y-110526074D01*
X141934419Y-110505250D01*
X141941651Y-110485038D01*
X141950830Y-110465632D01*
X141961866Y-110447219D01*
X141974654Y-110429976D01*
X141989070Y-110414070D01*
X142004976Y-110399654D01*
X142022219Y-110386866D01*
X142040632Y-110375830D01*
X142060038Y-110366651D01*
X142080250Y-110359419D01*
X142101074Y-110354203D01*
X142122309Y-110351053D01*
X142143750Y-110350000D01*
X142656250Y-110350000D01*
X142677691Y-110351053D01*
X142677691Y-110351053D01*
G37*
D12*
X142400000Y-110787500D03*
D11*
G36*
X137327691Y-123188553D02*
G01*
X137348926Y-123191703D01*
X137369750Y-123196919D01*
X137389962Y-123204151D01*
X137409368Y-123213330D01*
X137427781Y-123224366D01*
X137445024Y-123237154D01*
X137460930Y-123251570D01*
X137475346Y-123267476D01*
X137488134Y-123284719D01*
X137499170Y-123303132D01*
X137508349Y-123322538D01*
X137515581Y-123342750D01*
X137520797Y-123363574D01*
X137523947Y-123384809D01*
X137525000Y-123406250D01*
X137525000Y-123843750D01*
X137523947Y-123865191D01*
X137520797Y-123886426D01*
X137515581Y-123907250D01*
X137508349Y-123927462D01*
X137499170Y-123946868D01*
X137488134Y-123965281D01*
X137475346Y-123982524D01*
X137460930Y-123998430D01*
X137445024Y-124012846D01*
X137427781Y-124025634D01*
X137409368Y-124036670D01*
X137389962Y-124045849D01*
X137369750Y-124053081D01*
X137348926Y-124058297D01*
X137327691Y-124061447D01*
X137306250Y-124062500D01*
X136793750Y-124062500D01*
X136772309Y-124061447D01*
X136751074Y-124058297D01*
X136730250Y-124053081D01*
X136710038Y-124045849D01*
X136690632Y-124036670D01*
X136672219Y-124025634D01*
X136654976Y-124012846D01*
X136639070Y-123998430D01*
X136624654Y-123982524D01*
X136611866Y-123965281D01*
X136600830Y-123946868D01*
X136591651Y-123927462D01*
X136584419Y-123907250D01*
X136579203Y-123886426D01*
X136576053Y-123865191D01*
X136575000Y-123843750D01*
X136575000Y-123406250D01*
X136576053Y-123384809D01*
X136579203Y-123363574D01*
X136584419Y-123342750D01*
X136591651Y-123322538D01*
X136600830Y-123303132D01*
X136611866Y-123284719D01*
X136624654Y-123267476D01*
X136639070Y-123251570D01*
X136654976Y-123237154D01*
X136672219Y-123224366D01*
X136690632Y-123213330D01*
X136710038Y-123204151D01*
X136730250Y-123196919D01*
X136751074Y-123191703D01*
X136772309Y-123188553D01*
X136793750Y-123187500D01*
X137306250Y-123187500D01*
X137327691Y-123188553D01*
X137327691Y-123188553D01*
G37*
D12*
X137050000Y-123625000D03*
D11*
G36*
X137327691Y-121613553D02*
G01*
X137348926Y-121616703D01*
X137369750Y-121621919D01*
X137389962Y-121629151D01*
X137409368Y-121638330D01*
X137427781Y-121649366D01*
X137445024Y-121662154D01*
X137460930Y-121676570D01*
X137475346Y-121692476D01*
X137488134Y-121709719D01*
X137499170Y-121728132D01*
X137508349Y-121747538D01*
X137515581Y-121767750D01*
X137520797Y-121788574D01*
X137523947Y-121809809D01*
X137525000Y-121831250D01*
X137525000Y-122268750D01*
X137523947Y-122290191D01*
X137520797Y-122311426D01*
X137515581Y-122332250D01*
X137508349Y-122352462D01*
X137499170Y-122371868D01*
X137488134Y-122390281D01*
X137475346Y-122407524D01*
X137460930Y-122423430D01*
X137445024Y-122437846D01*
X137427781Y-122450634D01*
X137409368Y-122461670D01*
X137389962Y-122470849D01*
X137369750Y-122478081D01*
X137348926Y-122483297D01*
X137327691Y-122486447D01*
X137306250Y-122487500D01*
X136793750Y-122487500D01*
X136772309Y-122486447D01*
X136751074Y-122483297D01*
X136730250Y-122478081D01*
X136710038Y-122470849D01*
X136690632Y-122461670D01*
X136672219Y-122450634D01*
X136654976Y-122437846D01*
X136639070Y-122423430D01*
X136624654Y-122407524D01*
X136611866Y-122390281D01*
X136600830Y-122371868D01*
X136591651Y-122352462D01*
X136584419Y-122332250D01*
X136579203Y-122311426D01*
X136576053Y-122290191D01*
X136575000Y-122268750D01*
X136575000Y-121831250D01*
X136576053Y-121809809D01*
X136579203Y-121788574D01*
X136584419Y-121767750D01*
X136591651Y-121747538D01*
X136600830Y-121728132D01*
X136611866Y-121709719D01*
X136624654Y-121692476D01*
X136639070Y-121676570D01*
X136654976Y-121662154D01*
X136672219Y-121649366D01*
X136690632Y-121638330D01*
X136710038Y-121629151D01*
X136730250Y-121621919D01*
X136751074Y-121616703D01*
X136772309Y-121613553D01*
X136793750Y-121612500D01*
X137306250Y-121612500D01*
X137327691Y-121613553D01*
X137327691Y-121613553D01*
G37*
D12*
X137050000Y-122050000D03*
M02*
