G04 #@! TF.GenerationSoftware,KiCad,Pcbnew,(5.1.0)-1*
G04 #@! TF.CreationDate,2019-05-30T16:04:32+02:00*
G04 #@! TF.ProjectId,currentscaler,63757272-656e-4747-9363-616c65722e6b,rev?*
G04 #@! TF.SameCoordinates,Original*
G04 #@! TF.FileFunction,Legend,Bot*
G04 #@! TF.FilePolarity,Positive*
%FSLAX46Y46*%
G04 Gerber Fmt 4.6, Leading zero omitted, Abs format (unit mm)*
G04 Created by KiCad (PCBNEW (5.1.0)-1) date 2019-05-30 16:04:32*
%MOMM*%
%LPD*%
G04 APERTURE LIST*
%ADD10C,0.300000*%
%ADD11C,0.120000*%
G04 APERTURE END LIST*
D10*
X118685714Y-101178571D02*
X119400000Y-101178571D01*
X119471428Y-101892857D01*
X119400000Y-101821428D01*
X119257142Y-101750000D01*
X118900000Y-101750000D01*
X118757142Y-101821428D01*
X118685714Y-101892857D01*
X118614285Y-102035714D01*
X118614285Y-102392857D01*
X118685714Y-102535714D01*
X118757142Y-102607142D01*
X118900000Y-102678571D01*
X119257142Y-102678571D01*
X119400000Y-102607142D01*
X119471428Y-102535714D01*
X118185714Y-101178571D02*
X117685714Y-102678571D01*
X117185714Y-101178571D01*
X119542857Y-115250000D02*
X119685714Y-115178571D01*
X119900000Y-115178571D01*
X120114285Y-115250000D01*
X120257142Y-115392857D01*
X120328571Y-115535714D01*
X120400000Y-115821428D01*
X120400000Y-116035714D01*
X120328571Y-116321428D01*
X120257142Y-116464285D01*
X120114285Y-116607142D01*
X119900000Y-116678571D01*
X119757142Y-116678571D01*
X119542857Y-116607142D01*
X119471428Y-116535714D01*
X119471428Y-116035714D01*
X119757142Y-116035714D01*
X118828571Y-116678571D02*
X118828571Y-115178571D01*
X117971428Y-116678571D01*
X117971428Y-115178571D01*
X117257142Y-116678571D02*
X117257142Y-115178571D01*
X116900000Y-115178571D01*
X116685714Y-115250000D01*
X116542857Y-115392857D01*
X116471428Y-115535714D01*
X116400000Y-115821428D01*
X116400000Y-116035714D01*
X116471428Y-116321428D01*
X116542857Y-116464285D01*
X116685714Y-116607142D01*
X116900000Y-116678571D01*
X117257142Y-116678571D01*
D11*
X127710000Y-112160000D02*
X126460000Y-112160000D01*
X127710000Y-110910000D02*
X127710000Y-112160000D01*
X123300000Y-108800000D02*
X123800000Y-108800000D01*
X123800000Y-108700000D02*
X123300000Y-108700000D01*
X123800000Y-108900000D02*
X123800000Y-108700000D01*
X123300000Y-108900000D02*
X123800000Y-108900000D01*
X124800000Y-105740000D02*
X124800000Y-106350000D01*
X126100000Y-105740000D02*
X126100000Y-106350000D01*
X124800000Y-111860000D02*
X124800000Y-111250000D01*
X126100000Y-111860000D02*
X126100000Y-111250000D01*
X126800000Y-108300000D02*
X127410000Y-108300000D01*
X126800000Y-106350000D02*
X126800000Y-108300000D01*
X123300000Y-106350000D02*
X126800000Y-106350000D01*
X123300000Y-111250000D02*
X123300000Y-106350000D01*
X126800000Y-111250000D02*
X123300000Y-111250000D01*
X126800000Y-109300000D02*
X126800000Y-111250000D01*
X127410000Y-109300000D02*
X126800000Y-109300000D01*
X127510000Y-110100000D02*
X127510000Y-110400000D01*
X127610000Y-110400000D02*
X127410000Y-110400000D01*
X127610000Y-110100000D02*
X127610000Y-110400000D01*
X127410000Y-110100000D02*
X127610000Y-110100000D01*
X127410000Y-105740000D02*
X127410000Y-111860000D01*
X122690000Y-105740000D02*
X127410000Y-105740000D01*
X122690000Y-111860000D02*
X122690000Y-105740000D01*
X127410000Y-111860000D02*
X122690000Y-111860000D01*
X121110000Y-105063748D02*
X121110000Y-112836252D01*
X115790000Y-105063748D02*
X115790000Y-112836252D01*
M02*
