G04 #@! TF.GenerationSoftware,KiCad,Pcbnew,(5.0.0)*
G04 #@! TF.CreationDate,2019-03-27T19:33:42+01:00*
G04 #@! TF.ProjectId,currentscaler,63757272656E747363616C65722E6B69,rev?*
G04 #@! TF.SameCoordinates,Original*
G04 #@! TF.FileFunction,Copper,L2,Bot,Signal*
G04 #@! TF.FilePolarity,Positive*
%FSLAX46Y46*%
G04 Gerber Fmt 4.6, Leading zero omitted, Abs format (unit mm)*
G04 Created by KiCad (PCBNEW (5.0.0)) date 03/27/19 19:33:42*
%MOMM*%
%LPD*%
G01*
G04 APERTURE LIST*
G04 #@! TA.AperFunction,SMDPad,CuDef*
%ADD10R,6.000000X5.500000*%
G04 #@! TD*
G04 #@! TA.AperFunction,SMDPad,CuDef*
%ADD11R,8.000000X8.000000*%
G04 #@! TD*
G04 #@! TA.AperFunction,ComponentPad*
%ADD12C,1.600000*%
G04 #@! TD*
G04 #@! TA.AperFunction,WasherPad*
%ADD13C,1.600000*%
G04 #@! TD*
G04 #@! TA.AperFunction,ComponentPad*
%ADD14C,4.000000*%
G04 #@! TD*
G04 #@! TA.AperFunction,ViaPad*
%ADD15C,0.800000*%
G04 #@! TD*
G04 #@! TA.AperFunction,Conductor*
%ADD16C,0.500000*%
G04 #@! TD*
G04 #@! TA.AperFunction,Conductor*
%ADD17C,0.254000*%
G04 #@! TD*
G04 APERTURE END LIST*
D10*
G04 #@! TO.P,BT1,1*
G04 #@! TO.N,+9V*
X145800000Y-109500000D03*
X115200000Y-109500000D03*
D11*
G04 #@! TO.P,BT1,2*
G04 #@! TO.N,GND*
X130500000Y-109500000D03*
G04 #@! TD*
D12*
G04 #@! TO.P,DP3T1,1*
G04 #@! TO.N,Net-(DP3T1-Pad1)*
X156200000Y-101250000D03*
G04 #@! TO.P,DP3T1,2*
G04 #@! TO.N,Net-(DP3T1-Pad2)*
X153200000Y-101250000D03*
G04 #@! TO.P,DP3T1,3*
G04 #@! TO.N,Net-(DP3T1-Pad3)*
X150200000Y-101250000D03*
G04 #@! TO.P,DP3T1,4*
G04 #@! TO.N,Net-(DP3T1-Pad4)*
X147200000Y-101250000D03*
G04 #@! TO.P,DP3T1,5*
G04 #@! TO.N,Net-(DP3T1-Pad3)*
X156200000Y-96950000D03*
G04 #@! TO.P,DP3T1,3*
X150200000Y-96950000D03*
G04 #@! TO.P,DP3T1,4*
G04 #@! TO.N,Net-(DP3T1-Pad4)*
X147200000Y-96950000D03*
X153200000Y-96950000D03*
D13*
G04 #@! TO.P,DP3T1,*
G04 #@! TO.N,*
X145800000Y-94400000D03*
X157600000Y-94400000D03*
X157600000Y-103800000D03*
X145800000Y-103800000D03*
G04 #@! TD*
D14*
G04 #@! TO.P,TP3,1*
G04 #@! TO.N,Net-(C6-Pad1)*
X167000000Y-98810000D03*
G04 #@! TD*
G04 #@! TO.P,TP4,1*
G04 #@! TO.N,GNDREF*
X167000000Y-117860000D03*
G04 #@! TD*
G04 #@! TO.P,TP1,1*
G04 #@! TO.N,Net-(DP3T1-Pad3)*
X104800000Y-99810000D03*
G04 #@! TD*
G04 #@! TO.P,TP2,1*
G04 #@! TO.N,GNDREF*
X104800000Y-118860000D03*
G04 #@! TD*
D15*
G04 #@! TO.N,GND*
X135500000Y-118250000D03*
X138000000Y-120000000D03*
X130500000Y-114000000D03*
G04 #@! TO.N,Net-(R10-Pad2)*
X149750000Y-114750000D03*
X149750000Y-120162490D03*
G04 #@! TO.N,+9V*
X145250000Y-115500000D03*
X148351505Y-120162490D03*
X142000000Y-111750008D03*
G04 #@! TO.N,Net-(DP3T1-Pad2)*
X140750000Y-97650010D03*
X138500000Y-96550010D03*
G04 #@! TO.N,GNDREF*
X158750000Y-123750000D03*
X152500000Y-124750000D03*
G04 #@! TO.N,Net-(C4-Pad2)*
X152750000Y-108500000D03*
X153000000Y-110750000D03*
G04 #@! TO.N,Net-(R8-Pad1)*
X145250000Y-116750000D03*
X145250000Y-118750000D03*
G04 #@! TO.N,Net-(C2-Pad1)*
X151750000Y-115000000D03*
X150750000Y-117000000D03*
X150750000Y-124449990D03*
G04 #@! TO.N,Net-(C2-Pad2)*
X150500000Y-121000000D03*
X147500000Y-120750000D03*
G04 #@! TO.N,Net-(R6-Pad2)*
X143000000Y-124750000D03*
X143250000Y-120500000D03*
X144250000Y-116500000D03*
G04 #@! TD*
D16*
G04 #@! TO.N,GND*
X135500000Y-118250000D02*
X136250000Y-118250000D01*
X136250000Y-118250000D02*
X138000000Y-120000000D01*
X130500000Y-109500000D02*
X130500000Y-114000000D01*
G04 #@! TO.N,Net-(R10-Pad2)*
X149750000Y-114750000D02*
X149750000Y-120162490D01*
G04 #@! TO.N,+9V*
X148351505Y-118601505D02*
X148351505Y-119596805D01*
X148351505Y-119596805D02*
X148351505Y-120162490D01*
X145250000Y-115500000D02*
X148351505Y-118601505D01*
G04 #@! TO.N,Net-(DP3T1-Pad2)*
X140750000Y-97650010D02*
X139600000Y-97650010D01*
X138899999Y-96950009D02*
X138500000Y-96550010D01*
X139600000Y-97650010D02*
X138899999Y-96950009D01*
G04 #@! TO.N,Net-(DP3T1-Pad3)*
X150250000Y-96950000D02*
X150250000Y-100500000D01*
X155550000Y-96900000D02*
X154050000Y-98400000D01*
X156200000Y-96900000D02*
X155550000Y-96900000D01*
X154050000Y-98400000D02*
X152450000Y-98400000D01*
X152450000Y-98400000D02*
X150950000Y-96900000D01*
X150950000Y-96900000D02*
X150200000Y-96900000D01*
X150200000Y-96900000D02*
X150250000Y-96950000D01*
G04 #@! TO.N,GNDREF*
X158750000Y-123750000D02*
X157750000Y-124750000D01*
X157750000Y-124750000D02*
X152500000Y-124750000D01*
G04 #@! TO.N,Net-(C4-Pad2)*
X152750000Y-108500000D02*
X152750000Y-110500000D01*
X152750000Y-110500000D02*
X153000000Y-110750000D01*
G04 #@! TO.N,Net-(R8-Pad1)*
X145250000Y-116750000D02*
X145250000Y-118750000D01*
G04 #@! TO.N,Net-(C2-Pad1)*
X151500000Y-115250000D02*
X151750000Y-115000000D01*
X150750000Y-117000000D02*
X151500000Y-117000000D01*
X151500000Y-117000000D02*
X151500000Y-115250000D01*
X151149999Y-124049991D02*
X150750000Y-124449990D01*
X151500000Y-123699990D02*
X151149999Y-124049991D01*
X151500000Y-117000000D02*
X151500000Y-123699990D01*
G04 #@! TO.N,Net-(C2-Pad2)*
X148149999Y-121399999D02*
X147899999Y-121149999D01*
X147899999Y-121149999D02*
X147500000Y-120750000D01*
X150500000Y-121000000D02*
X150100001Y-121399999D01*
X150100001Y-121399999D02*
X148149999Y-121399999D01*
G04 #@! TO.N,Net-(R6-Pad2)*
X143000000Y-124750000D02*
X143000000Y-120750000D01*
X143000000Y-120750000D02*
X143250000Y-120500000D01*
X143250000Y-120500000D02*
X143250000Y-117500000D01*
X143250000Y-117500000D02*
X144250000Y-116500000D01*
G04 #@! TD*
D17*
G04 #@! TO.N,+9V*
G36*
X171808221Y-93120601D02*
X172284512Y-93309178D01*
X172698941Y-93610278D01*
X173025470Y-94004984D01*
X173243579Y-94468491D01*
X173343609Y-94992866D01*
X173347200Y-95107126D01*
X173347201Y-123471502D01*
X173279397Y-124008224D01*
X173090821Y-124484513D01*
X172789721Y-124898942D01*
X172395017Y-125225469D01*
X171931509Y-125443579D01*
X171407134Y-125543609D01*
X171292874Y-125547200D01*
X100278491Y-125547200D01*
X99741776Y-125479397D01*
X99265487Y-125290821D01*
X98851058Y-124989721D01*
X98524754Y-124595286D01*
X142222200Y-124595286D01*
X142222200Y-124904714D01*
X142340613Y-125190588D01*
X142559412Y-125409387D01*
X142845286Y-125527800D01*
X143154714Y-125527800D01*
X143440588Y-125409387D01*
X143659387Y-125190588D01*
X143777800Y-124904714D01*
X143777800Y-124595286D01*
X143659387Y-124309412D01*
X143627800Y-124277825D01*
X143627800Y-121185395D01*
X143690588Y-121159387D01*
X143909387Y-120940588D01*
X144027800Y-120654714D01*
X144027800Y-120595286D01*
X146722200Y-120595286D01*
X146722200Y-120904714D01*
X146840613Y-121190588D01*
X147059412Y-121409387D01*
X147345286Y-121527800D01*
X147389958Y-121527800D01*
X147662355Y-121800197D01*
X147697381Y-121852617D01*
X147905044Y-121991373D01*
X148088168Y-122027799D01*
X148088172Y-122027799D01*
X148149998Y-122040097D01*
X148211824Y-122027799D01*
X150038175Y-122027799D01*
X150100001Y-122040097D01*
X150161827Y-122027799D01*
X150161832Y-122027799D01*
X150344956Y-121991373D01*
X150552619Y-121852617D01*
X150587645Y-121800197D01*
X150610042Y-121777800D01*
X150654714Y-121777800D01*
X150872201Y-121687714D01*
X150872201Y-123439947D01*
X150639958Y-123672190D01*
X150595286Y-123672190D01*
X150309412Y-123790603D01*
X150090613Y-124009402D01*
X149972200Y-124295276D01*
X149972200Y-124604704D01*
X150090613Y-124890578D01*
X150309412Y-125109377D01*
X150595286Y-125227790D01*
X150904714Y-125227790D01*
X151190588Y-125109377D01*
X151409387Y-124890578D01*
X151527800Y-124604704D01*
X151527800Y-124595286D01*
X151722200Y-124595286D01*
X151722200Y-124904714D01*
X151840613Y-125190588D01*
X152059412Y-125409387D01*
X152345286Y-125527800D01*
X152654714Y-125527800D01*
X152940588Y-125409387D01*
X152972175Y-125377800D01*
X157688174Y-125377800D01*
X157750000Y-125390098D01*
X157811826Y-125377800D01*
X157811831Y-125377800D01*
X157994955Y-125341374D01*
X158202618Y-125202618D01*
X158237643Y-125150199D01*
X158860043Y-124527800D01*
X158904714Y-124527800D01*
X159190588Y-124409387D01*
X159409387Y-124190588D01*
X159527800Y-123904714D01*
X159527800Y-123595286D01*
X159409387Y-123309412D01*
X159190588Y-123090613D01*
X158904714Y-122972200D01*
X158595286Y-122972200D01*
X158309412Y-123090613D01*
X158090613Y-123309412D01*
X157972200Y-123595286D01*
X157972200Y-123639957D01*
X157489958Y-124122200D01*
X152972175Y-124122200D01*
X152940588Y-124090613D01*
X152654714Y-123972200D01*
X152345286Y-123972200D01*
X152059412Y-124090613D01*
X151840613Y-124309412D01*
X151722200Y-124595286D01*
X151527800Y-124595286D01*
X151527800Y-124560032D01*
X151900198Y-124187634D01*
X151952618Y-124152608D01*
X152091374Y-123944945D01*
X152127800Y-123761821D01*
X152127800Y-123761817D01*
X152140098Y-123699991D01*
X152127800Y-123638165D01*
X152127800Y-117387026D01*
X164622200Y-117387026D01*
X164622200Y-118332974D01*
X164984198Y-119206916D01*
X165653084Y-119875802D01*
X166527026Y-120237800D01*
X167472974Y-120237800D01*
X168346916Y-119875802D01*
X169015802Y-119206916D01*
X169377800Y-118332974D01*
X169377800Y-117387026D01*
X169015802Y-116513084D01*
X168346916Y-115844198D01*
X167472974Y-115482200D01*
X166527026Y-115482200D01*
X165653084Y-115844198D01*
X164984198Y-116513084D01*
X164622200Y-117387026D01*
X152127800Y-117387026D01*
X152127800Y-117061830D01*
X152140099Y-117000000D01*
X152127800Y-116938169D01*
X152127800Y-115685395D01*
X152190588Y-115659387D01*
X152409387Y-115440588D01*
X152527800Y-115154714D01*
X152527800Y-114845286D01*
X152409387Y-114559412D01*
X152190588Y-114340613D01*
X151904714Y-114222200D01*
X151595286Y-114222200D01*
X151309412Y-114340613D01*
X151090613Y-114559412D01*
X150972200Y-114845286D01*
X150972200Y-114909901D01*
X150908627Y-115005045D01*
X150859902Y-115250000D01*
X150872201Y-115311830D01*
X150872200Y-116222200D01*
X150595286Y-116222200D01*
X150377800Y-116312286D01*
X150377800Y-115222175D01*
X150409387Y-115190588D01*
X150527800Y-114904714D01*
X150527800Y-114595286D01*
X150409387Y-114309412D01*
X150190588Y-114090613D01*
X149904714Y-113972200D01*
X149595286Y-113972200D01*
X149309412Y-114090613D01*
X149090613Y-114309412D01*
X148972200Y-114595286D01*
X148972200Y-114904714D01*
X149090613Y-115190588D01*
X149122200Y-115222175D01*
X149122201Y-119690314D01*
X149090613Y-119721902D01*
X148972200Y-120007776D01*
X148972200Y-120317204D01*
X149090613Y-120603078D01*
X149259734Y-120772199D01*
X148410041Y-120772199D01*
X148277800Y-120639958D01*
X148277800Y-120595286D01*
X148159387Y-120309412D01*
X147940588Y-120090613D01*
X147654714Y-119972200D01*
X147345286Y-119972200D01*
X147059412Y-120090613D01*
X146840613Y-120309412D01*
X146722200Y-120595286D01*
X144027800Y-120595286D01*
X144027800Y-120345286D01*
X143909387Y-120059412D01*
X143877800Y-120027825D01*
X143877800Y-117760042D01*
X144360043Y-117277800D01*
X144404714Y-117277800D01*
X144597833Y-117197808D01*
X144622200Y-117222175D01*
X144622201Y-118277824D01*
X144590613Y-118309412D01*
X144472200Y-118595286D01*
X144472200Y-118904714D01*
X144590613Y-119190588D01*
X144809412Y-119409387D01*
X145095286Y-119527800D01*
X145404714Y-119527800D01*
X145690588Y-119409387D01*
X145909387Y-119190588D01*
X146027800Y-118904714D01*
X146027800Y-118595286D01*
X145909387Y-118309412D01*
X145877800Y-118277825D01*
X145877800Y-117222175D01*
X145909387Y-117190588D01*
X146027800Y-116904714D01*
X146027800Y-116595286D01*
X145909387Y-116309412D01*
X145690588Y-116090613D01*
X145404714Y-115972200D01*
X145095286Y-115972200D01*
X144902167Y-116052192D01*
X144690588Y-115840613D01*
X144404714Y-115722200D01*
X144095286Y-115722200D01*
X143809412Y-115840613D01*
X143590613Y-116059412D01*
X143472200Y-116345286D01*
X143472200Y-116389957D01*
X142849799Y-117012359D01*
X142797383Y-117047382D01*
X142762359Y-117099799D01*
X142762358Y-117099800D01*
X142658627Y-117255045D01*
X142609902Y-117500000D01*
X142622201Y-117561831D01*
X142622200Y-120027825D01*
X142590613Y-120059412D01*
X142472200Y-120345286D01*
X142472200Y-120409901D01*
X142408627Y-120505045D01*
X142359902Y-120750000D01*
X142372201Y-120811831D01*
X142372200Y-124277825D01*
X142340613Y-124309412D01*
X142222200Y-124595286D01*
X98524754Y-124595286D01*
X98524531Y-124595017D01*
X98306421Y-124131509D01*
X98206391Y-123607134D01*
X98202812Y-123493250D01*
X98211801Y-118387026D01*
X102422200Y-118387026D01*
X102422200Y-119332974D01*
X102784198Y-120206916D01*
X103453084Y-120875802D01*
X104327026Y-121237800D01*
X105272974Y-121237800D01*
X106146916Y-120875802D01*
X106815802Y-120206916D01*
X107177800Y-119332974D01*
X107177800Y-118387026D01*
X107056958Y-118095286D01*
X134722200Y-118095286D01*
X134722200Y-118404714D01*
X134840613Y-118690588D01*
X135059412Y-118909387D01*
X135345286Y-119027800D01*
X135654714Y-119027800D01*
X135940588Y-118909387D01*
X135972175Y-118877800D01*
X135989958Y-118877800D01*
X137222200Y-120110043D01*
X137222200Y-120154714D01*
X137340613Y-120440588D01*
X137559412Y-120659387D01*
X137845286Y-120777800D01*
X138154714Y-120777800D01*
X138440588Y-120659387D01*
X138659387Y-120440588D01*
X138777800Y-120154714D01*
X138777800Y-119845286D01*
X138659387Y-119559412D01*
X138440588Y-119340613D01*
X138154714Y-119222200D01*
X138110043Y-119222200D01*
X136737644Y-117849802D01*
X136702618Y-117797382D01*
X136494955Y-117658626D01*
X136311831Y-117622200D01*
X136311826Y-117622200D01*
X136250000Y-117609902D01*
X136188174Y-117622200D01*
X135972175Y-117622200D01*
X135940588Y-117590613D01*
X135654714Y-117472200D01*
X135345286Y-117472200D01*
X135059412Y-117590613D01*
X134840613Y-117809412D01*
X134722200Y-118095286D01*
X107056958Y-118095286D01*
X106815802Y-117513084D01*
X106146916Y-116844198D01*
X105272974Y-116482200D01*
X104327026Y-116482200D01*
X103453084Y-116844198D01*
X102784198Y-117513084D01*
X102422200Y-118387026D01*
X98211801Y-118387026D01*
X98234489Y-105500000D01*
X126114799Y-105500000D01*
X126114799Y-113500000D01*
X126144121Y-113647410D01*
X126227622Y-113772378D01*
X126352590Y-113855879D01*
X126500000Y-113885201D01*
X129722200Y-113885201D01*
X129722200Y-114154714D01*
X129840613Y-114440588D01*
X130059412Y-114659387D01*
X130345286Y-114777800D01*
X130654714Y-114777800D01*
X130940588Y-114659387D01*
X131159387Y-114440588D01*
X131277800Y-114154714D01*
X131277800Y-113885201D01*
X134500000Y-113885201D01*
X134647410Y-113855879D01*
X134772378Y-113772378D01*
X134855879Y-113647410D01*
X134885201Y-113500000D01*
X134885201Y-108345286D01*
X151972200Y-108345286D01*
X151972200Y-108654714D01*
X152090613Y-108940588D01*
X152122200Y-108972175D01*
X152122201Y-110438170D01*
X152109902Y-110500000D01*
X152122201Y-110561831D01*
X152158627Y-110744955D01*
X152222200Y-110840099D01*
X152222200Y-110904714D01*
X152340613Y-111190588D01*
X152559412Y-111409387D01*
X152845286Y-111527800D01*
X153154714Y-111527800D01*
X153440588Y-111409387D01*
X153659387Y-111190588D01*
X153777800Y-110904714D01*
X153777800Y-110595286D01*
X153659387Y-110309412D01*
X153440588Y-110090613D01*
X153377800Y-110064605D01*
X153377800Y-108972175D01*
X153409387Y-108940588D01*
X153527800Y-108654714D01*
X153527800Y-108345286D01*
X153409387Y-108059412D01*
X153190588Y-107840613D01*
X152904714Y-107722200D01*
X152595286Y-107722200D01*
X152309412Y-107840613D01*
X152090613Y-108059412D01*
X151972200Y-108345286D01*
X134885201Y-108345286D01*
X134885201Y-105500000D01*
X134855879Y-105352590D01*
X134772378Y-105227622D01*
X134647410Y-105144121D01*
X134500000Y-105114799D01*
X126500000Y-105114799D01*
X126352590Y-105144121D01*
X126227622Y-105227622D01*
X126144121Y-105352590D01*
X126114799Y-105500000D01*
X98234489Y-105500000D01*
X98237894Y-103565721D01*
X144622200Y-103565721D01*
X144622200Y-104034279D01*
X144801510Y-104467170D01*
X145132830Y-104798490D01*
X145565721Y-104977800D01*
X146034279Y-104977800D01*
X146467170Y-104798490D01*
X146798490Y-104467170D01*
X146977800Y-104034279D01*
X146977800Y-103565721D01*
X156422200Y-103565721D01*
X156422200Y-104034279D01*
X156601510Y-104467170D01*
X156932830Y-104798490D01*
X157365721Y-104977800D01*
X157834279Y-104977800D01*
X158267170Y-104798490D01*
X158598490Y-104467170D01*
X158777800Y-104034279D01*
X158777800Y-103565721D01*
X158598490Y-103132830D01*
X158267170Y-102801510D01*
X157834279Y-102622200D01*
X157365721Y-102622200D01*
X156932830Y-102801510D01*
X156601510Y-103132830D01*
X156422200Y-103565721D01*
X146977800Y-103565721D01*
X146798490Y-103132830D01*
X146467170Y-102801510D01*
X146034279Y-102622200D01*
X145565721Y-102622200D01*
X145132830Y-102801510D01*
X144801510Y-103132830D01*
X144622200Y-103565721D01*
X98237894Y-103565721D01*
X98245340Y-99337026D01*
X102422200Y-99337026D01*
X102422200Y-100282974D01*
X102784198Y-101156916D01*
X103453084Y-101825802D01*
X104327026Y-102187800D01*
X105272974Y-102187800D01*
X106146916Y-101825802D01*
X106815802Y-101156916D01*
X106874286Y-101015721D01*
X146022200Y-101015721D01*
X146022200Y-101484279D01*
X146201510Y-101917170D01*
X146532830Y-102248490D01*
X146965721Y-102427800D01*
X147434279Y-102427800D01*
X147867170Y-102248490D01*
X148198490Y-101917170D01*
X148377800Y-101484279D01*
X148377800Y-101015721D01*
X148198490Y-100582830D01*
X147867170Y-100251510D01*
X147434279Y-100072200D01*
X146965721Y-100072200D01*
X146532830Y-100251510D01*
X146201510Y-100582830D01*
X146022200Y-101015721D01*
X106874286Y-101015721D01*
X107177800Y-100282974D01*
X107177800Y-99337026D01*
X106815802Y-98463084D01*
X106146916Y-97794198D01*
X105272974Y-97432200D01*
X104327026Y-97432200D01*
X103453084Y-97794198D01*
X102784198Y-98463084D01*
X102422200Y-99337026D01*
X98245340Y-99337026D01*
X98250519Y-96395296D01*
X137722200Y-96395296D01*
X137722200Y-96704724D01*
X137840613Y-96990598D01*
X138059412Y-97209397D01*
X138345286Y-97327810D01*
X138389958Y-97327810D01*
X138412357Y-97350209D01*
X139112358Y-98050211D01*
X139147382Y-98102628D01*
X139355045Y-98241384D01*
X139538169Y-98277810D01*
X139538174Y-98277810D01*
X139600000Y-98290108D01*
X139661826Y-98277810D01*
X140277825Y-98277810D01*
X140309412Y-98309397D01*
X140595286Y-98427810D01*
X140904714Y-98427810D01*
X141190588Y-98309397D01*
X141409387Y-98090598D01*
X141527800Y-97804724D01*
X141527800Y-97495296D01*
X141409387Y-97209422D01*
X141190588Y-96990623D01*
X140904714Y-96872210D01*
X140595286Y-96872210D01*
X140309412Y-96990623D01*
X140277825Y-97022210D01*
X139860043Y-97022210D01*
X139553554Y-96715721D01*
X146022200Y-96715721D01*
X146022200Y-97184279D01*
X146201510Y-97617170D01*
X146532830Y-97948490D01*
X146965721Y-98127800D01*
X147434279Y-98127800D01*
X147867170Y-97948490D01*
X148198490Y-97617170D01*
X148377800Y-97184279D01*
X148377800Y-96715721D01*
X149022200Y-96715721D01*
X149022200Y-97184279D01*
X149201510Y-97617170D01*
X149532830Y-97948490D01*
X149622200Y-97985509D01*
X149622201Y-100214491D01*
X149532830Y-100251510D01*
X149201510Y-100582830D01*
X149022200Y-101015721D01*
X149022200Y-101484279D01*
X149201510Y-101917170D01*
X149532830Y-102248490D01*
X149965721Y-102427800D01*
X150434279Y-102427800D01*
X150867170Y-102248490D01*
X151198490Y-101917170D01*
X151377800Y-101484279D01*
X151377800Y-101015721D01*
X152022200Y-101015721D01*
X152022200Y-101484279D01*
X152201510Y-101917170D01*
X152532830Y-102248490D01*
X152965721Y-102427800D01*
X153434279Y-102427800D01*
X153867170Y-102248490D01*
X154198490Y-101917170D01*
X154377800Y-101484279D01*
X154377800Y-101015721D01*
X155022200Y-101015721D01*
X155022200Y-101484279D01*
X155201510Y-101917170D01*
X155532830Y-102248490D01*
X155965721Y-102427800D01*
X156434279Y-102427800D01*
X156867170Y-102248490D01*
X157198490Y-101917170D01*
X157377800Y-101484279D01*
X157377800Y-101015721D01*
X157198490Y-100582830D01*
X156867170Y-100251510D01*
X156434279Y-100072200D01*
X155965721Y-100072200D01*
X155532830Y-100251510D01*
X155201510Y-100582830D01*
X155022200Y-101015721D01*
X154377800Y-101015721D01*
X154198490Y-100582830D01*
X153867170Y-100251510D01*
X153434279Y-100072200D01*
X152965721Y-100072200D01*
X152532830Y-100251510D01*
X152201510Y-100582830D01*
X152022200Y-101015721D01*
X151377800Y-101015721D01*
X151198490Y-100582830D01*
X150877800Y-100262140D01*
X150877800Y-97937860D01*
X150988909Y-97826751D01*
X151962358Y-98800201D01*
X151997382Y-98852618D01*
X152205045Y-98991374D01*
X152388169Y-99027800D01*
X152388173Y-99027800D01*
X152449999Y-99040098D01*
X152511825Y-99027800D01*
X153988174Y-99027800D01*
X154050000Y-99040098D01*
X154111826Y-99027800D01*
X154111831Y-99027800D01*
X154294955Y-98991374D01*
X154502618Y-98852618D01*
X154537644Y-98800198D01*
X155000816Y-98337026D01*
X164622200Y-98337026D01*
X164622200Y-99282974D01*
X164984198Y-100156916D01*
X165653084Y-100825802D01*
X166527026Y-101187800D01*
X167472974Y-101187800D01*
X168346916Y-100825802D01*
X169015802Y-100156916D01*
X169377800Y-99282974D01*
X169377800Y-98337026D01*
X169015802Y-97463084D01*
X168346916Y-96794198D01*
X167472974Y-96432200D01*
X166527026Y-96432200D01*
X165653084Y-96794198D01*
X164984198Y-97463084D01*
X164622200Y-98337026D01*
X155000816Y-98337026D01*
X155461091Y-97876751D01*
X155532830Y-97948490D01*
X155965721Y-98127800D01*
X156434279Y-98127800D01*
X156867170Y-97948490D01*
X157198490Y-97617170D01*
X157377800Y-97184279D01*
X157377800Y-96715721D01*
X157198490Y-96282830D01*
X156867170Y-95951510D01*
X156434279Y-95772200D01*
X155965721Y-95772200D01*
X155532830Y-95951510D01*
X155201510Y-96282830D01*
X155147115Y-96414152D01*
X155097382Y-96447382D01*
X155062358Y-96499799D01*
X154377745Y-97184413D01*
X154377800Y-97184279D01*
X154377800Y-96715721D01*
X154198490Y-96282830D01*
X153867170Y-95951510D01*
X153434279Y-95772200D01*
X152965721Y-95772200D01*
X152532830Y-95951510D01*
X152201510Y-96282830D01*
X152022200Y-96715721D01*
X152022200Y-97084358D01*
X151437644Y-96499802D01*
X151402618Y-96447382D01*
X151214617Y-96321764D01*
X151198490Y-96282830D01*
X150867170Y-95951510D01*
X150434279Y-95772200D01*
X149965721Y-95772200D01*
X149532830Y-95951510D01*
X149201510Y-96282830D01*
X149022200Y-96715721D01*
X148377800Y-96715721D01*
X148198490Y-96282830D01*
X147867170Y-95951510D01*
X147434279Y-95772200D01*
X146965721Y-95772200D01*
X146532830Y-95951510D01*
X146201510Y-96282830D01*
X146022200Y-96715721D01*
X139553554Y-96715721D01*
X139300199Y-96462367D01*
X139277800Y-96439968D01*
X139277800Y-96395296D01*
X139159387Y-96109422D01*
X138940588Y-95890623D01*
X138654714Y-95772210D01*
X138345286Y-95772210D01*
X138059412Y-95890623D01*
X137840613Y-96109422D01*
X137722200Y-96395296D01*
X98250519Y-96395296D01*
X98252749Y-95128895D01*
X98320601Y-94591779D01*
X98489289Y-94165721D01*
X144622200Y-94165721D01*
X144622200Y-94634279D01*
X144801510Y-95067170D01*
X145132830Y-95398490D01*
X145565721Y-95577800D01*
X146034279Y-95577800D01*
X146467170Y-95398490D01*
X146798490Y-95067170D01*
X146977800Y-94634279D01*
X146977800Y-94165721D01*
X156422200Y-94165721D01*
X156422200Y-94634279D01*
X156601510Y-95067170D01*
X156932830Y-95398490D01*
X157365721Y-95577800D01*
X157834279Y-95577800D01*
X158267170Y-95398490D01*
X158598490Y-95067170D01*
X158777800Y-94634279D01*
X158777800Y-94165721D01*
X158598490Y-93732830D01*
X158267170Y-93401510D01*
X157834279Y-93222200D01*
X157365721Y-93222200D01*
X156932830Y-93401510D01*
X156601510Y-93732830D01*
X156422200Y-94165721D01*
X146977800Y-94165721D01*
X146798490Y-93732830D01*
X146467170Y-93401510D01*
X146034279Y-93222200D01*
X145565721Y-93222200D01*
X145132830Y-93401510D01*
X144801510Y-93732830D01*
X144622200Y-94165721D01*
X98489289Y-94165721D01*
X98509178Y-94115488D01*
X98810278Y-93701059D01*
X99204984Y-93374530D01*
X99668491Y-93156421D01*
X100192866Y-93056391D01*
X100307126Y-93052800D01*
X171271509Y-93052800D01*
X171808221Y-93120601D01*
X171808221Y-93120601D01*
G37*
X171808221Y-93120601D02*
X172284512Y-93309178D01*
X172698941Y-93610278D01*
X173025470Y-94004984D01*
X173243579Y-94468491D01*
X173343609Y-94992866D01*
X173347200Y-95107126D01*
X173347201Y-123471502D01*
X173279397Y-124008224D01*
X173090821Y-124484513D01*
X172789721Y-124898942D01*
X172395017Y-125225469D01*
X171931509Y-125443579D01*
X171407134Y-125543609D01*
X171292874Y-125547200D01*
X100278491Y-125547200D01*
X99741776Y-125479397D01*
X99265487Y-125290821D01*
X98851058Y-124989721D01*
X98524754Y-124595286D01*
X142222200Y-124595286D01*
X142222200Y-124904714D01*
X142340613Y-125190588D01*
X142559412Y-125409387D01*
X142845286Y-125527800D01*
X143154714Y-125527800D01*
X143440588Y-125409387D01*
X143659387Y-125190588D01*
X143777800Y-124904714D01*
X143777800Y-124595286D01*
X143659387Y-124309412D01*
X143627800Y-124277825D01*
X143627800Y-121185395D01*
X143690588Y-121159387D01*
X143909387Y-120940588D01*
X144027800Y-120654714D01*
X144027800Y-120595286D01*
X146722200Y-120595286D01*
X146722200Y-120904714D01*
X146840613Y-121190588D01*
X147059412Y-121409387D01*
X147345286Y-121527800D01*
X147389958Y-121527800D01*
X147662355Y-121800197D01*
X147697381Y-121852617D01*
X147905044Y-121991373D01*
X148088168Y-122027799D01*
X148088172Y-122027799D01*
X148149998Y-122040097D01*
X148211824Y-122027799D01*
X150038175Y-122027799D01*
X150100001Y-122040097D01*
X150161827Y-122027799D01*
X150161832Y-122027799D01*
X150344956Y-121991373D01*
X150552619Y-121852617D01*
X150587645Y-121800197D01*
X150610042Y-121777800D01*
X150654714Y-121777800D01*
X150872201Y-121687714D01*
X150872201Y-123439947D01*
X150639958Y-123672190D01*
X150595286Y-123672190D01*
X150309412Y-123790603D01*
X150090613Y-124009402D01*
X149972200Y-124295276D01*
X149972200Y-124604704D01*
X150090613Y-124890578D01*
X150309412Y-125109377D01*
X150595286Y-125227790D01*
X150904714Y-125227790D01*
X151190588Y-125109377D01*
X151409387Y-124890578D01*
X151527800Y-124604704D01*
X151527800Y-124595286D01*
X151722200Y-124595286D01*
X151722200Y-124904714D01*
X151840613Y-125190588D01*
X152059412Y-125409387D01*
X152345286Y-125527800D01*
X152654714Y-125527800D01*
X152940588Y-125409387D01*
X152972175Y-125377800D01*
X157688174Y-125377800D01*
X157750000Y-125390098D01*
X157811826Y-125377800D01*
X157811831Y-125377800D01*
X157994955Y-125341374D01*
X158202618Y-125202618D01*
X158237643Y-125150199D01*
X158860043Y-124527800D01*
X158904714Y-124527800D01*
X159190588Y-124409387D01*
X159409387Y-124190588D01*
X159527800Y-123904714D01*
X159527800Y-123595286D01*
X159409387Y-123309412D01*
X159190588Y-123090613D01*
X158904714Y-122972200D01*
X158595286Y-122972200D01*
X158309412Y-123090613D01*
X158090613Y-123309412D01*
X157972200Y-123595286D01*
X157972200Y-123639957D01*
X157489958Y-124122200D01*
X152972175Y-124122200D01*
X152940588Y-124090613D01*
X152654714Y-123972200D01*
X152345286Y-123972200D01*
X152059412Y-124090613D01*
X151840613Y-124309412D01*
X151722200Y-124595286D01*
X151527800Y-124595286D01*
X151527800Y-124560032D01*
X151900198Y-124187634D01*
X151952618Y-124152608D01*
X152091374Y-123944945D01*
X152127800Y-123761821D01*
X152127800Y-123761817D01*
X152140098Y-123699991D01*
X152127800Y-123638165D01*
X152127800Y-117387026D01*
X164622200Y-117387026D01*
X164622200Y-118332974D01*
X164984198Y-119206916D01*
X165653084Y-119875802D01*
X166527026Y-120237800D01*
X167472974Y-120237800D01*
X168346916Y-119875802D01*
X169015802Y-119206916D01*
X169377800Y-118332974D01*
X169377800Y-117387026D01*
X169015802Y-116513084D01*
X168346916Y-115844198D01*
X167472974Y-115482200D01*
X166527026Y-115482200D01*
X165653084Y-115844198D01*
X164984198Y-116513084D01*
X164622200Y-117387026D01*
X152127800Y-117387026D01*
X152127800Y-117061830D01*
X152140099Y-117000000D01*
X152127800Y-116938169D01*
X152127800Y-115685395D01*
X152190588Y-115659387D01*
X152409387Y-115440588D01*
X152527800Y-115154714D01*
X152527800Y-114845286D01*
X152409387Y-114559412D01*
X152190588Y-114340613D01*
X151904714Y-114222200D01*
X151595286Y-114222200D01*
X151309412Y-114340613D01*
X151090613Y-114559412D01*
X150972200Y-114845286D01*
X150972200Y-114909901D01*
X150908627Y-115005045D01*
X150859902Y-115250000D01*
X150872201Y-115311830D01*
X150872200Y-116222200D01*
X150595286Y-116222200D01*
X150377800Y-116312286D01*
X150377800Y-115222175D01*
X150409387Y-115190588D01*
X150527800Y-114904714D01*
X150527800Y-114595286D01*
X150409387Y-114309412D01*
X150190588Y-114090613D01*
X149904714Y-113972200D01*
X149595286Y-113972200D01*
X149309412Y-114090613D01*
X149090613Y-114309412D01*
X148972200Y-114595286D01*
X148972200Y-114904714D01*
X149090613Y-115190588D01*
X149122200Y-115222175D01*
X149122201Y-119690314D01*
X149090613Y-119721902D01*
X148972200Y-120007776D01*
X148972200Y-120317204D01*
X149090613Y-120603078D01*
X149259734Y-120772199D01*
X148410041Y-120772199D01*
X148277800Y-120639958D01*
X148277800Y-120595286D01*
X148159387Y-120309412D01*
X147940588Y-120090613D01*
X147654714Y-119972200D01*
X147345286Y-119972200D01*
X147059412Y-120090613D01*
X146840613Y-120309412D01*
X146722200Y-120595286D01*
X144027800Y-120595286D01*
X144027800Y-120345286D01*
X143909387Y-120059412D01*
X143877800Y-120027825D01*
X143877800Y-117760042D01*
X144360043Y-117277800D01*
X144404714Y-117277800D01*
X144597833Y-117197808D01*
X144622200Y-117222175D01*
X144622201Y-118277824D01*
X144590613Y-118309412D01*
X144472200Y-118595286D01*
X144472200Y-118904714D01*
X144590613Y-119190588D01*
X144809412Y-119409387D01*
X145095286Y-119527800D01*
X145404714Y-119527800D01*
X145690588Y-119409387D01*
X145909387Y-119190588D01*
X146027800Y-118904714D01*
X146027800Y-118595286D01*
X145909387Y-118309412D01*
X145877800Y-118277825D01*
X145877800Y-117222175D01*
X145909387Y-117190588D01*
X146027800Y-116904714D01*
X146027800Y-116595286D01*
X145909387Y-116309412D01*
X145690588Y-116090613D01*
X145404714Y-115972200D01*
X145095286Y-115972200D01*
X144902167Y-116052192D01*
X144690588Y-115840613D01*
X144404714Y-115722200D01*
X144095286Y-115722200D01*
X143809412Y-115840613D01*
X143590613Y-116059412D01*
X143472200Y-116345286D01*
X143472200Y-116389957D01*
X142849799Y-117012359D01*
X142797383Y-117047382D01*
X142762359Y-117099799D01*
X142762358Y-117099800D01*
X142658627Y-117255045D01*
X142609902Y-117500000D01*
X142622201Y-117561831D01*
X142622200Y-120027825D01*
X142590613Y-120059412D01*
X142472200Y-120345286D01*
X142472200Y-120409901D01*
X142408627Y-120505045D01*
X142359902Y-120750000D01*
X142372201Y-120811831D01*
X142372200Y-124277825D01*
X142340613Y-124309412D01*
X142222200Y-124595286D01*
X98524754Y-124595286D01*
X98524531Y-124595017D01*
X98306421Y-124131509D01*
X98206391Y-123607134D01*
X98202812Y-123493250D01*
X98211801Y-118387026D01*
X102422200Y-118387026D01*
X102422200Y-119332974D01*
X102784198Y-120206916D01*
X103453084Y-120875802D01*
X104327026Y-121237800D01*
X105272974Y-121237800D01*
X106146916Y-120875802D01*
X106815802Y-120206916D01*
X107177800Y-119332974D01*
X107177800Y-118387026D01*
X107056958Y-118095286D01*
X134722200Y-118095286D01*
X134722200Y-118404714D01*
X134840613Y-118690588D01*
X135059412Y-118909387D01*
X135345286Y-119027800D01*
X135654714Y-119027800D01*
X135940588Y-118909387D01*
X135972175Y-118877800D01*
X135989958Y-118877800D01*
X137222200Y-120110043D01*
X137222200Y-120154714D01*
X137340613Y-120440588D01*
X137559412Y-120659387D01*
X137845286Y-120777800D01*
X138154714Y-120777800D01*
X138440588Y-120659387D01*
X138659387Y-120440588D01*
X138777800Y-120154714D01*
X138777800Y-119845286D01*
X138659387Y-119559412D01*
X138440588Y-119340613D01*
X138154714Y-119222200D01*
X138110043Y-119222200D01*
X136737644Y-117849802D01*
X136702618Y-117797382D01*
X136494955Y-117658626D01*
X136311831Y-117622200D01*
X136311826Y-117622200D01*
X136250000Y-117609902D01*
X136188174Y-117622200D01*
X135972175Y-117622200D01*
X135940588Y-117590613D01*
X135654714Y-117472200D01*
X135345286Y-117472200D01*
X135059412Y-117590613D01*
X134840613Y-117809412D01*
X134722200Y-118095286D01*
X107056958Y-118095286D01*
X106815802Y-117513084D01*
X106146916Y-116844198D01*
X105272974Y-116482200D01*
X104327026Y-116482200D01*
X103453084Y-116844198D01*
X102784198Y-117513084D01*
X102422200Y-118387026D01*
X98211801Y-118387026D01*
X98234489Y-105500000D01*
X126114799Y-105500000D01*
X126114799Y-113500000D01*
X126144121Y-113647410D01*
X126227622Y-113772378D01*
X126352590Y-113855879D01*
X126500000Y-113885201D01*
X129722200Y-113885201D01*
X129722200Y-114154714D01*
X129840613Y-114440588D01*
X130059412Y-114659387D01*
X130345286Y-114777800D01*
X130654714Y-114777800D01*
X130940588Y-114659387D01*
X131159387Y-114440588D01*
X131277800Y-114154714D01*
X131277800Y-113885201D01*
X134500000Y-113885201D01*
X134647410Y-113855879D01*
X134772378Y-113772378D01*
X134855879Y-113647410D01*
X134885201Y-113500000D01*
X134885201Y-108345286D01*
X151972200Y-108345286D01*
X151972200Y-108654714D01*
X152090613Y-108940588D01*
X152122200Y-108972175D01*
X152122201Y-110438170D01*
X152109902Y-110500000D01*
X152122201Y-110561831D01*
X152158627Y-110744955D01*
X152222200Y-110840099D01*
X152222200Y-110904714D01*
X152340613Y-111190588D01*
X152559412Y-111409387D01*
X152845286Y-111527800D01*
X153154714Y-111527800D01*
X153440588Y-111409387D01*
X153659387Y-111190588D01*
X153777800Y-110904714D01*
X153777800Y-110595286D01*
X153659387Y-110309412D01*
X153440588Y-110090613D01*
X153377800Y-110064605D01*
X153377800Y-108972175D01*
X153409387Y-108940588D01*
X153527800Y-108654714D01*
X153527800Y-108345286D01*
X153409387Y-108059412D01*
X153190588Y-107840613D01*
X152904714Y-107722200D01*
X152595286Y-107722200D01*
X152309412Y-107840613D01*
X152090613Y-108059412D01*
X151972200Y-108345286D01*
X134885201Y-108345286D01*
X134885201Y-105500000D01*
X134855879Y-105352590D01*
X134772378Y-105227622D01*
X134647410Y-105144121D01*
X134500000Y-105114799D01*
X126500000Y-105114799D01*
X126352590Y-105144121D01*
X126227622Y-105227622D01*
X126144121Y-105352590D01*
X126114799Y-105500000D01*
X98234489Y-105500000D01*
X98237894Y-103565721D01*
X144622200Y-103565721D01*
X144622200Y-104034279D01*
X144801510Y-104467170D01*
X145132830Y-104798490D01*
X145565721Y-104977800D01*
X146034279Y-104977800D01*
X146467170Y-104798490D01*
X146798490Y-104467170D01*
X146977800Y-104034279D01*
X146977800Y-103565721D01*
X156422200Y-103565721D01*
X156422200Y-104034279D01*
X156601510Y-104467170D01*
X156932830Y-104798490D01*
X157365721Y-104977800D01*
X157834279Y-104977800D01*
X158267170Y-104798490D01*
X158598490Y-104467170D01*
X158777800Y-104034279D01*
X158777800Y-103565721D01*
X158598490Y-103132830D01*
X158267170Y-102801510D01*
X157834279Y-102622200D01*
X157365721Y-102622200D01*
X156932830Y-102801510D01*
X156601510Y-103132830D01*
X156422200Y-103565721D01*
X146977800Y-103565721D01*
X146798490Y-103132830D01*
X146467170Y-102801510D01*
X146034279Y-102622200D01*
X145565721Y-102622200D01*
X145132830Y-102801510D01*
X144801510Y-103132830D01*
X144622200Y-103565721D01*
X98237894Y-103565721D01*
X98245340Y-99337026D01*
X102422200Y-99337026D01*
X102422200Y-100282974D01*
X102784198Y-101156916D01*
X103453084Y-101825802D01*
X104327026Y-102187800D01*
X105272974Y-102187800D01*
X106146916Y-101825802D01*
X106815802Y-101156916D01*
X106874286Y-101015721D01*
X146022200Y-101015721D01*
X146022200Y-101484279D01*
X146201510Y-101917170D01*
X146532830Y-102248490D01*
X146965721Y-102427800D01*
X147434279Y-102427800D01*
X147867170Y-102248490D01*
X148198490Y-101917170D01*
X148377800Y-101484279D01*
X148377800Y-101015721D01*
X148198490Y-100582830D01*
X147867170Y-100251510D01*
X147434279Y-100072200D01*
X146965721Y-100072200D01*
X146532830Y-100251510D01*
X146201510Y-100582830D01*
X146022200Y-101015721D01*
X106874286Y-101015721D01*
X107177800Y-100282974D01*
X107177800Y-99337026D01*
X106815802Y-98463084D01*
X106146916Y-97794198D01*
X105272974Y-97432200D01*
X104327026Y-97432200D01*
X103453084Y-97794198D01*
X102784198Y-98463084D01*
X102422200Y-99337026D01*
X98245340Y-99337026D01*
X98250519Y-96395296D01*
X137722200Y-96395296D01*
X137722200Y-96704724D01*
X137840613Y-96990598D01*
X138059412Y-97209397D01*
X138345286Y-97327810D01*
X138389958Y-97327810D01*
X138412357Y-97350209D01*
X139112358Y-98050211D01*
X139147382Y-98102628D01*
X139355045Y-98241384D01*
X139538169Y-98277810D01*
X139538174Y-98277810D01*
X139600000Y-98290108D01*
X139661826Y-98277810D01*
X140277825Y-98277810D01*
X140309412Y-98309397D01*
X140595286Y-98427810D01*
X140904714Y-98427810D01*
X141190588Y-98309397D01*
X141409387Y-98090598D01*
X141527800Y-97804724D01*
X141527800Y-97495296D01*
X141409387Y-97209422D01*
X141190588Y-96990623D01*
X140904714Y-96872210D01*
X140595286Y-96872210D01*
X140309412Y-96990623D01*
X140277825Y-97022210D01*
X139860043Y-97022210D01*
X139553554Y-96715721D01*
X146022200Y-96715721D01*
X146022200Y-97184279D01*
X146201510Y-97617170D01*
X146532830Y-97948490D01*
X146965721Y-98127800D01*
X147434279Y-98127800D01*
X147867170Y-97948490D01*
X148198490Y-97617170D01*
X148377800Y-97184279D01*
X148377800Y-96715721D01*
X149022200Y-96715721D01*
X149022200Y-97184279D01*
X149201510Y-97617170D01*
X149532830Y-97948490D01*
X149622200Y-97985509D01*
X149622201Y-100214491D01*
X149532830Y-100251510D01*
X149201510Y-100582830D01*
X149022200Y-101015721D01*
X149022200Y-101484279D01*
X149201510Y-101917170D01*
X149532830Y-102248490D01*
X149965721Y-102427800D01*
X150434279Y-102427800D01*
X150867170Y-102248490D01*
X151198490Y-101917170D01*
X151377800Y-101484279D01*
X151377800Y-101015721D01*
X152022200Y-101015721D01*
X152022200Y-101484279D01*
X152201510Y-101917170D01*
X152532830Y-102248490D01*
X152965721Y-102427800D01*
X153434279Y-102427800D01*
X153867170Y-102248490D01*
X154198490Y-101917170D01*
X154377800Y-101484279D01*
X154377800Y-101015721D01*
X155022200Y-101015721D01*
X155022200Y-101484279D01*
X155201510Y-101917170D01*
X155532830Y-102248490D01*
X155965721Y-102427800D01*
X156434279Y-102427800D01*
X156867170Y-102248490D01*
X157198490Y-101917170D01*
X157377800Y-101484279D01*
X157377800Y-101015721D01*
X157198490Y-100582830D01*
X156867170Y-100251510D01*
X156434279Y-100072200D01*
X155965721Y-100072200D01*
X155532830Y-100251510D01*
X155201510Y-100582830D01*
X155022200Y-101015721D01*
X154377800Y-101015721D01*
X154198490Y-100582830D01*
X153867170Y-100251510D01*
X153434279Y-100072200D01*
X152965721Y-100072200D01*
X152532830Y-100251510D01*
X152201510Y-100582830D01*
X152022200Y-101015721D01*
X151377800Y-101015721D01*
X151198490Y-100582830D01*
X150877800Y-100262140D01*
X150877800Y-97937860D01*
X150988909Y-97826751D01*
X151962358Y-98800201D01*
X151997382Y-98852618D01*
X152205045Y-98991374D01*
X152388169Y-99027800D01*
X152388173Y-99027800D01*
X152449999Y-99040098D01*
X152511825Y-99027800D01*
X153988174Y-99027800D01*
X154050000Y-99040098D01*
X154111826Y-99027800D01*
X154111831Y-99027800D01*
X154294955Y-98991374D01*
X154502618Y-98852618D01*
X154537644Y-98800198D01*
X155000816Y-98337026D01*
X164622200Y-98337026D01*
X164622200Y-99282974D01*
X164984198Y-100156916D01*
X165653084Y-100825802D01*
X166527026Y-101187800D01*
X167472974Y-101187800D01*
X168346916Y-100825802D01*
X169015802Y-100156916D01*
X169377800Y-99282974D01*
X169377800Y-98337026D01*
X169015802Y-97463084D01*
X168346916Y-96794198D01*
X167472974Y-96432200D01*
X166527026Y-96432200D01*
X165653084Y-96794198D01*
X164984198Y-97463084D01*
X164622200Y-98337026D01*
X155000816Y-98337026D01*
X155461091Y-97876751D01*
X155532830Y-97948490D01*
X155965721Y-98127800D01*
X156434279Y-98127800D01*
X156867170Y-97948490D01*
X157198490Y-97617170D01*
X157377800Y-97184279D01*
X157377800Y-96715721D01*
X157198490Y-96282830D01*
X156867170Y-95951510D01*
X156434279Y-95772200D01*
X155965721Y-95772200D01*
X155532830Y-95951510D01*
X155201510Y-96282830D01*
X155147115Y-96414152D01*
X155097382Y-96447382D01*
X155062358Y-96499799D01*
X154377745Y-97184413D01*
X154377800Y-97184279D01*
X154377800Y-96715721D01*
X154198490Y-96282830D01*
X153867170Y-95951510D01*
X153434279Y-95772200D01*
X152965721Y-95772200D01*
X152532830Y-95951510D01*
X152201510Y-96282830D01*
X152022200Y-96715721D01*
X152022200Y-97084358D01*
X151437644Y-96499802D01*
X151402618Y-96447382D01*
X151214617Y-96321764D01*
X151198490Y-96282830D01*
X150867170Y-95951510D01*
X150434279Y-95772200D01*
X149965721Y-95772200D01*
X149532830Y-95951510D01*
X149201510Y-96282830D01*
X149022200Y-96715721D01*
X148377800Y-96715721D01*
X148198490Y-96282830D01*
X147867170Y-95951510D01*
X147434279Y-95772200D01*
X146965721Y-95772200D01*
X146532830Y-95951510D01*
X146201510Y-96282830D01*
X146022200Y-96715721D01*
X139553554Y-96715721D01*
X139300199Y-96462367D01*
X139277800Y-96439968D01*
X139277800Y-96395296D01*
X139159387Y-96109422D01*
X138940588Y-95890623D01*
X138654714Y-95772210D01*
X138345286Y-95772210D01*
X138059412Y-95890623D01*
X137840613Y-96109422D01*
X137722200Y-96395296D01*
X98250519Y-96395296D01*
X98252749Y-95128895D01*
X98320601Y-94591779D01*
X98489289Y-94165721D01*
X144622200Y-94165721D01*
X144622200Y-94634279D01*
X144801510Y-95067170D01*
X145132830Y-95398490D01*
X145565721Y-95577800D01*
X146034279Y-95577800D01*
X146467170Y-95398490D01*
X146798490Y-95067170D01*
X146977800Y-94634279D01*
X146977800Y-94165721D01*
X156422200Y-94165721D01*
X156422200Y-94634279D01*
X156601510Y-95067170D01*
X156932830Y-95398490D01*
X157365721Y-95577800D01*
X157834279Y-95577800D01*
X158267170Y-95398490D01*
X158598490Y-95067170D01*
X158777800Y-94634279D01*
X158777800Y-94165721D01*
X158598490Y-93732830D01*
X158267170Y-93401510D01*
X157834279Y-93222200D01*
X157365721Y-93222200D01*
X156932830Y-93401510D01*
X156601510Y-93732830D01*
X156422200Y-94165721D01*
X146977800Y-94165721D01*
X146798490Y-93732830D01*
X146467170Y-93401510D01*
X146034279Y-93222200D01*
X145565721Y-93222200D01*
X145132830Y-93401510D01*
X144801510Y-93732830D01*
X144622200Y-94165721D01*
X98489289Y-94165721D01*
X98509178Y-94115488D01*
X98810278Y-93701059D01*
X99204984Y-93374530D01*
X99668491Y-93156421D01*
X100192866Y-93056391D01*
X100307126Y-93052800D01*
X171271509Y-93052800D01*
X171808221Y-93120601D01*
G04 #@! TD*
M02*
