G04 #@! TF.GenerationSoftware,KiCad,Pcbnew,(5.1.0)-1*
G04 #@! TF.CreationDate,2019-05-10T18:55:54+02:00*
G04 #@! TF.ProjectId,currentscaler,63757272-656e-4747-9363-616c65722e6b,rev?*
G04 #@! TF.SameCoordinates,Original*
G04 #@! TF.FileFunction,Copper,L1,Top*
G04 #@! TF.FilePolarity,Positive*
%FSLAX46Y46*%
G04 Gerber Fmt 4.6, Leading zero omitted, Abs format (unit mm)*
G04 Created by KiCad (PCBNEW (5.1.0)-1) date 2019-05-10 18:55:54*
%MOMM*%
%LPD*%
G04 APERTURE LIST*
%ADD10C,1.600000*%
%ADD11C,7.000000*%
%ADD12C,0.100000*%
%ADD13C,0.875000*%
%ADD14R,0.650000X1.060000*%
%ADD15C,0.800000*%
%ADD16C,0.500000*%
%ADD17C,0.250000*%
%ADD18C,0.254000*%
G04 APERTURE END LIST*
D10*
X145800000Y-103800000D03*
X157600000Y-103800000D03*
X157600000Y-94400000D03*
X145800000Y-94400000D03*
X153200000Y-96450000D03*
X147200000Y-96450000D03*
X150200000Y-96450000D03*
X156200000Y-96450000D03*
X147200000Y-101750000D03*
X150200000Y-101750000D03*
X153200000Y-101750000D03*
X156200000Y-101750000D03*
D11*
X168230000Y-119000000D03*
X168230000Y-99500000D03*
X103460000Y-99390000D03*
X103460000Y-118890000D03*
D12*
G36*
X150127691Y-123188553D02*
G01*
X150148926Y-123191703D01*
X150169750Y-123196919D01*
X150189962Y-123204151D01*
X150209368Y-123213330D01*
X150227781Y-123224366D01*
X150245024Y-123237154D01*
X150260930Y-123251570D01*
X150275346Y-123267476D01*
X150288134Y-123284719D01*
X150299170Y-123303132D01*
X150308349Y-123322538D01*
X150315581Y-123342750D01*
X150320797Y-123363574D01*
X150323947Y-123384809D01*
X150325000Y-123406250D01*
X150325000Y-123843750D01*
X150323947Y-123865191D01*
X150320797Y-123886426D01*
X150315581Y-123907250D01*
X150308349Y-123927462D01*
X150299170Y-123946868D01*
X150288134Y-123965281D01*
X150275346Y-123982524D01*
X150260930Y-123998430D01*
X150245024Y-124012846D01*
X150227781Y-124025634D01*
X150209368Y-124036670D01*
X150189962Y-124045849D01*
X150169750Y-124053081D01*
X150148926Y-124058297D01*
X150127691Y-124061447D01*
X150106250Y-124062500D01*
X149593750Y-124062500D01*
X149572309Y-124061447D01*
X149551074Y-124058297D01*
X149530250Y-124053081D01*
X149510038Y-124045849D01*
X149490632Y-124036670D01*
X149472219Y-124025634D01*
X149454976Y-124012846D01*
X149439070Y-123998430D01*
X149424654Y-123982524D01*
X149411866Y-123965281D01*
X149400830Y-123946868D01*
X149391651Y-123927462D01*
X149384419Y-123907250D01*
X149379203Y-123886426D01*
X149376053Y-123865191D01*
X149375000Y-123843750D01*
X149375000Y-123406250D01*
X149376053Y-123384809D01*
X149379203Y-123363574D01*
X149384419Y-123342750D01*
X149391651Y-123322538D01*
X149400830Y-123303132D01*
X149411866Y-123284719D01*
X149424654Y-123267476D01*
X149439070Y-123251570D01*
X149454976Y-123237154D01*
X149472219Y-123224366D01*
X149490632Y-123213330D01*
X149510038Y-123204151D01*
X149530250Y-123196919D01*
X149551074Y-123191703D01*
X149572309Y-123188553D01*
X149593750Y-123187500D01*
X150106250Y-123187500D01*
X150127691Y-123188553D01*
X150127691Y-123188553D01*
G37*
D13*
X149850000Y-123625000D03*
D12*
G36*
X150127691Y-121613553D02*
G01*
X150148926Y-121616703D01*
X150169750Y-121621919D01*
X150189962Y-121629151D01*
X150209368Y-121638330D01*
X150227781Y-121649366D01*
X150245024Y-121662154D01*
X150260930Y-121676570D01*
X150275346Y-121692476D01*
X150288134Y-121709719D01*
X150299170Y-121728132D01*
X150308349Y-121747538D01*
X150315581Y-121767750D01*
X150320797Y-121788574D01*
X150323947Y-121809809D01*
X150325000Y-121831250D01*
X150325000Y-122268750D01*
X150323947Y-122290191D01*
X150320797Y-122311426D01*
X150315581Y-122332250D01*
X150308349Y-122352462D01*
X150299170Y-122371868D01*
X150288134Y-122390281D01*
X150275346Y-122407524D01*
X150260930Y-122423430D01*
X150245024Y-122437846D01*
X150227781Y-122450634D01*
X150209368Y-122461670D01*
X150189962Y-122470849D01*
X150169750Y-122478081D01*
X150148926Y-122483297D01*
X150127691Y-122486447D01*
X150106250Y-122487500D01*
X149593750Y-122487500D01*
X149572309Y-122486447D01*
X149551074Y-122483297D01*
X149530250Y-122478081D01*
X149510038Y-122470849D01*
X149490632Y-122461670D01*
X149472219Y-122450634D01*
X149454976Y-122437846D01*
X149439070Y-122423430D01*
X149424654Y-122407524D01*
X149411866Y-122390281D01*
X149400830Y-122371868D01*
X149391651Y-122352462D01*
X149384419Y-122332250D01*
X149379203Y-122311426D01*
X149376053Y-122290191D01*
X149375000Y-122268750D01*
X149375000Y-121831250D01*
X149376053Y-121809809D01*
X149379203Y-121788574D01*
X149384419Y-121767750D01*
X149391651Y-121747538D01*
X149400830Y-121728132D01*
X149411866Y-121709719D01*
X149424654Y-121692476D01*
X149439070Y-121676570D01*
X149454976Y-121662154D01*
X149472219Y-121649366D01*
X149490632Y-121638330D01*
X149510038Y-121629151D01*
X149530250Y-121621919D01*
X149551074Y-121616703D01*
X149572309Y-121613553D01*
X149593750Y-121612500D01*
X150106250Y-121612500D01*
X150127691Y-121613553D01*
X150127691Y-121613553D01*
G37*
D13*
X149850000Y-122050000D03*
D14*
X141300000Y-119100000D03*
X142250000Y-119100000D03*
X143200000Y-119100000D03*
X143200000Y-116900000D03*
X141300000Y-116900000D03*
X147750000Y-119100000D03*
X148700000Y-119100000D03*
X146800000Y-119100000D03*
X146800000Y-116900000D03*
X147750000Y-116900000D03*
X148700000Y-116900000D03*
X144700000Y-110850000D03*
X145650000Y-110850000D03*
X146600000Y-110850000D03*
X146600000Y-108650000D03*
X144700000Y-108650000D03*
X145650000Y-108650000D03*
D12*
G36*
X148127691Y-123201053D02*
G01*
X148148926Y-123204203D01*
X148169750Y-123209419D01*
X148189962Y-123216651D01*
X148209368Y-123225830D01*
X148227781Y-123236866D01*
X148245024Y-123249654D01*
X148260930Y-123264070D01*
X148275346Y-123279976D01*
X148288134Y-123297219D01*
X148299170Y-123315632D01*
X148308349Y-123335038D01*
X148315581Y-123355250D01*
X148320797Y-123376074D01*
X148323947Y-123397309D01*
X148325000Y-123418750D01*
X148325000Y-123856250D01*
X148323947Y-123877691D01*
X148320797Y-123898926D01*
X148315581Y-123919750D01*
X148308349Y-123939962D01*
X148299170Y-123959368D01*
X148288134Y-123977781D01*
X148275346Y-123995024D01*
X148260930Y-124010930D01*
X148245024Y-124025346D01*
X148227781Y-124038134D01*
X148209368Y-124049170D01*
X148189962Y-124058349D01*
X148169750Y-124065581D01*
X148148926Y-124070797D01*
X148127691Y-124073947D01*
X148106250Y-124075000D01*
X147593750Y-124075000D01*
X147572309Y-124073947D01*
X147551074Y-124070797D01*
X147530250Y-124065581D01*
X147510038Y-124058349D01*
X147490632Y-124049170D01*
X147472219Y-124038134D01*
X147454976Y-124025346D01*
X147439070Y-124010930D01*
X147424654Y-123995024D01*
X147411866Y-123977781D01*
X147400830Y-123959368D01*
X147391651Y-123939962D01*
X147384419Y-123919750D01*
X147379203Y-123898926D01*
X147376053Y-123877691D01*
X147375000Y-123856250D01*
X147375000Y-123418750D01*
X147376053Y-123397309D01*
X147379203Y-123376074D01*
X147384419Y-123355250D01*
X147391651Y-123335038D01*
X147400830Y-123315632D01*
X147411866Y-123297219D01*
X147424654Y-123279976D01*
X147439070Y-123264070D01*
X147454976Y-123249654D01*
X147472219Y-123236866D01*
X147490632Y-123225830D01*
X147510038Y-123216651D01*
X147530250Y-123209419D01*
X147551074Y-123204203D01*
X147572309Y-123201053D01*
X147593750Y-123200000D01*
X148106250Y-123200000D01*
X148127691Y-123201053D01*
X148127691Y-123201053D01*
G37*
D13*
X147850000Y-123637500D03*
D12*
G36*
X148127691Y-121626053D02*
G01*
X148148926Y-121629203D01*
X148169750Y-121634419D01*
X148189962Y-121641651D01*
X148209368Y-121650830D01*
X148227781Y-121661866D01*
X148245024Y-121674654D01*
X148260930Y-121689070D01*
X148275346Y-121704976D01*
X148288134Y-121722219D01*
X148299170Y-121740632D01*
X148308349Y-121760038D01*
X148315581Y-121780250D01*
X148320797Y-121801074D01*
X148323947Y-121822309D01*
X148325000Y-121843750D01*
X148325000Y-122281250D01*
X148323947Y-122302691D01*
X148320797Y-122323926D01*
X148315581Y-122344750D01*
X148308349Y-122364962D01*
X148299170Y-122384368D01*
X148288134Y-122402781D01*
X148275346Y-122420024D01*
X148260930Y-122435930D01*
X148245024Y-122450346D01*
X148227781Y-122463134D01*
X148209368Y-122474170D01*
X148189962Y-122483349D01*
X148169750Y-122490581D01*
X148148926Y-122495797D01*
X148127691Y-122498947D01*
X148106250Y-122500000D01*
X147593750Y-122500000D01*
X147572309Y-122498947D01*
X147551074Y-122495797D01*
X147530250Y-122490581D01*
X147510038Y-122483349D01*
X147490632Y-122474170D01*
X147472219Y-122463134D01*
X147454976Y-122450346D01*
X147439070Y-122435930D01*
X147424654Y-122420024D01*
X147411866Y-122402781D01*
X147400830Y-122384368D01*
X147391651Y-122364962D01*
X147384419Y-122344750D01*
X147379203Y-122323926D01*
X147376053Y-122302691D01*
X147375000Y-122281250D01*
X147375000Y-121843750D01*
X147376053Y-121822309D01*
X147379203Y-121801074D01*
X147384419Y-121780250D01*
X147391651Y-121760038D01*
X147400830Y-121740632D01*
X147411866Y-121722219D01*
X147424654Y-121704976D01*
X147439070Y-121689070D01*
X147454976Y-121674654D01*
X147472219Y-121661866D01*
X147490632Y-121650830D01*
X147510038Y-121641651D01*
X147530250Y-121634419D01*
X147551074Y-121629203D01*
X147572309Y-121626053D01*
X147593750Y-121625000D01*
X148106250Y-121625000D01*
X148127691Y-121626053D01*
X148127691Y-121626053D01*
G37*
D13*
X147850000Y-122062500D03*
D12*
G36*
X144127691Y-123201053D02*
G01*
X144148926Y-123204203D01*
X144169750Y-123209419D01*
X144189962Y-123216651D01*
X144209368Y-123225830D01*
X144227781Y-123236866D01*
X144245024Y-123249654D01*
X144260930Y-123264070D01*
X144275346Y-123279976D01*
X144288134Y-123297219D01*
X144299170Y-123315632D01*
X144308349Y-123335038D01*
X144315581Y-123355250D01*
X144320797Y-123376074D01*
X144323947Y-123397309D01*
X144325000Y-123418750D01*
X144325000Y-123856250D01*
X144323947Y-123877691D01*
X144320797Y-123898926D01*
X144315581Y-123919750D01*
X144308349Y-123939962D01*
X144299170Y-123959368D01*
X144288134Y-123977781D01*
X144275346Y-123995024D01*
X144260930Y-124010930D01*
X144245024Y-124025346D01*
X144227781Y-124038134D01*
X144209368Y-124049170D01*
X144189962Y-124058349D01*
X144169750Y-124065581D01*
X144148926Y-124070797D01*
X144127691Y-124073947D01*
X144106250Y-124075000D01*
X143593750Y-124075000D01*
X143572309Y-124073947D01*
X143551074Y-124070797D01*
X143530250Y-124065581D01*
X143510038Y-124058349D01*
X143490632Y-124049170D01*
X143472219Y-124038134D01*
X143454976Y-124025346D01*
X143439070Y-124010930D01*
X143424654Y-123995024D01*
X143411866Y-123977781D01*
X143400830Y-123959368D01*
X143391651Y-123939962D01*
X143384419Y-123919750D01*
X143379203Y-123898926D01*
X143376053Y-123877691D01*
X143375000Y-123856250D01*
X143375000Y-123418750D01*
X143376053Y-123397309D01*
X143379203Y-123376074D01*
X143384419Y-123355250D01*
X143391651Y-123335038D01*
X143400830Y-123315632D01*
X143411866Y-123297219D01*
X143424654Y-123279976D01*
X143439070Y-123264070D01*
X143454976Y-123249654D01*
X143472219Y-123236866D01*
X143490632Y-123225830D01*
X143510038Y-123216651D01*
X143530250Y-123209419D01*
X143551074Y-123204203D01*
X143572309Y-123201053D01*
X143593750Y-123200000D01*
X144106250Y-123200000D01*
X144127691Y-123201053D01*
X144127691Y-123201053D01*
G37*
D13*
X143850000Y-123637500D03*
D12*
G36*
X144127691Y-121626053D02*
G01*
X144148926Y-121629203D01*
X144169750Y-121634419D01*
X144189962Y-121641651D01*
X144209368Y-121650830D01*
X144227781Y-121661866D01*
X144245024Y-121674654D01*
X144260930Y-121689070D01*
X144275346Y-121704976D01*
X144288134Y-121722219D01*
X144299170Y-121740632D01*
X144308349Y-121760038D01*
X144315581Y-121780250D01*
X144320797Y-121801074D01*
X144323947Y-121822309D01*
X144325000Y-121843750D01*
X144325000Y-122281250D01*
X144323947Y-122302691D01*
X144320797Y-122323926D01*
X144315581Y-122344750D01*
X144308349Y-122364962D01*
X144299170Y-122384368D01*
X144288134Y-122402781D01*
X144275346Y-122420024D01*
X144260930Y-122435930D01*
X144245024Y-122450346D01*
X144227781Y-122463134D01*
X144209368Y-122474170D01*
X144189962Y-122483349D01*
X144169750Y-122490581D01*
X144148926Y-122495797D01*
X144127691Y-122498947D01*
X144106250Y-122500000D01*
X143593750Y-122500000D01*
X143572309Y-122498947D01*
X143551074Y-122495797D01*
X143530250Y-122490581D01*
X143510038Y-122483349D01*
X143490632Y-122474170D01*
X143472219Y-122463134D01*
X143454976Y-122450346D01*
X143439070Y-122435930D01*
X143424654Y-122420024D01*
X143411866Y-122402781D01*
X143400830Y-122384368D01*
X143391651Y-122364962D01*
X143384419Y-122344750D01*
X143379203Y-122323926D01*
X143376053Y-122302691D01*
X143375000Y-122281250D01*
X143375000Y-121843750D01*
X143376053Y-121822309D01*
X143379203Y-121801074D01*
X143384419Y-121780250D01*
X143391651Y-121760038D01*
X143400830Y-121740632D01*
X143411866Y-121722219D01*
X143424654Y-121704976D01*
X143439070Y-121689070D01*
X143454976Y-121674654D01*
X143472219Y-121661866D01*
X143490632Y-121650830D01*
X143510038Y-121641651D01*
X143530250Y-121634419D01*
X143551074Y-121629203D01*
X143572309Y-121626053D01*
X143593750Y-121625000D01*
X144106250Y-121625000D01*
X144127691Y-121626053D01*
X144127691Y-121626053D01*
G37*
D13*
X143850000Y-122062500D03*
D12*
G36*
X151027691Y-111526053D02*
G01*
X151048926Y-111529203D01*
X151069750Y-111534419D01*
X151089962Y-111541651D01*
X151109368Y-111550830D01*
X151127781Y-111561866D01*
X151145024Y-111574654D01*
X151160930Y-111589070D01*
X151175346Y-111604976D01*
X151188134Y-111622219D01*
X151199170Y-111640632D01*
X151208349Y-111660038D01*
X151215581Y-111680250D01*
X151220797Y-111701074D01*
X151223947Y-111722309D01*
X151225000Y-111743750D01*
X151225000Y-112181250D01*
X151223947Y-112202691D01*
X151220797Y-112223926D01*
X151215581Y-112244750D01*
X151208349Y-112264962D01*
X151199170Y-112284368D01*
X151188134Y-112302781D01*
X151175346Y-112320024D01*
X151160930Y-112335930D01*
X151145024Y-112350346D01*
X151127781Y-112363134D01*
X151109368Y-112374170D01*
X151089962Y-112383349D01*
X151069750Y-112390581D01*
X151048926Y-112395797D01*
X151027691Y-112398947D01*
X151006250Y-112400000D01*
X150493750Y-112400000D01*
X150472309Y-112398947D01*
X150451074Y-112395797D01*
X150430250Y-112390581D01*
X150410038Y-112383349D01*
X150390632Y-112374170D01*
X150372219Y-112363134D01*
X150354976Y-112350346D01*
X150339070Y-112335930D01*
X150324654Y-112320024D01*
X150311866Y-112302781D01*
X150300830Y-112284368D01*
X150291651Y-112264962D01*
X150284419Y-112244750D01*
X150279203Y-112223926D01*
X150276053Y-112202691D01*
X150275000Y-112181250D01*
X150275000Y-111743750D01*
X150276053Y-111722309D01*
X150279203Y-111701074D01*
X150284419Y-111680250D01*
X150291651Y-111660038D01*
X150300830Y-111640632D01*
X150311866Y-111622219D01*
X150324654Y-111604976D01*
X150339070Y-111589070D01*
X150354976Y-111574654D01*
X150372219Y-111561866D01*
X150390632Y-111550830D01*
X150410038Y-111541651D01*
X150430250Y-111534419D01*
X150451074Y-111529203D01*
X150472309Y-111526053D01*
X150493750Y-111525000D01*
X151006250Y-111525000D01*
X151027691Y-111526053D01*
X151027691Y-111526053D01*
G37*
D13*
X150750000Y-111962500D03*
D12*
G36*
X151027691Y-113101053D02*
G01*
X151048926Y-113104203D01*
X151069750Y-113109419D01*
X151089962Y-113116651D01*
X151109368Y-113125830D01*
X151127781Y-113136866D01*
X151145024Y-113149654D01*
X151160930Y-113164070D01*
X151175346Y-113179976D01*
X151188134Y-113197219D01*
X151199170Y-113215632D01*
X151208349Y-113235038D01*
X151215581Y-113255250D01*
X151220797Y-113276074D01*
X151223947Y-113297309D01*
X151225000Y-113318750D01*
X151225000Y-113756250D01*
X151223947Y-113777691D01*
X151220797Y-113798926D01*
X151215581Y-113819750D01*
X151208349Y-113839962D01*
X151199170Y-113859368D01*
X151188134Y-113877781D01*
X151175346Y-113895024D01*
X151160930Y-113910930D01*
X151145024Y-113925346D01*
X151127781Y-113938134D01*
X151109368Y-113949170D01*
X151089962Y-113958349D01*
X151069750Y-113965581D01*
X151048926Y-113970797D01*
X151027691Y-113973947D01*
X151006250Y-113975000D01*
X150493750Y-113975000D01*
X150472309Y-113973947D01*
X150451074Y-113970797D01*
X150430250Y-113965581D01*
X150410038Y-113958349D01*
X150390632Y-113949170D01*
X150372219Y-113938134D01*
X150354976Y-113925346D01*
X150339070Y-113910930D01*
X150324654Y-113895024D01*
X150311866Y-113877781D01*
X150300830Y-113859368D01*
X150291651Y-113839962D01*
X150284419Y-113819750D01*
X150279203Y-113798926D01*
X150276053Y-113777691D01*
X150275000Y-113756250D01*
X150275000Y-113318750D01*
X150276053Y-113297309D01*
X150279203Y-113276074D01*
X150284419Y-113255250D01*
X150291651Y-113235038D01*
X150300830Y-113215632D01*
X150311866Y-113197219D01*
X150324654Y-113179976D01*
X150339070Y-113164070D01*
X150354976Y-113149654D01*
X150372219Y-113136866D01*
X150390632Y-113125830D01*
X150410038Y-113116651D01*
X150430250Y-113109419D01*
X150451074Y-113104203D01*
X150472309Y-113101053D01*
X150493750Y-113100000D01*
X151006250Y-113100000D01*
X151027691Y-113101053D01*
X151027691Y-113101053D01*
G37*
D13*
X150750000Y-113537500D03*
D12*
G36*
X135327691Y-97801053D02*
G01*
X135348926Y-97804203D01*
X135369750Y-97809419D01*
X135389962Y-97816651D01*
X135409368Y-97825830D01*
X135427781Y-97836866D01*
X135445024Y-97849654D01*
X135460930Y-97864070D01*
X135475346Y-97879976D01*
X135488134Y-97897219D01*
X135499170Y-97915632D01*
X135508349Y-97935038D01*
X135515581Y-97955250D01*
X135520797Y-97976074D01*
X135523947Y-97997309D01*
X135525000Y-98018750D01*
X135525000Y-98456250D01*
X135523947Y-98477691D01*
X135520797Y-98498926D01*
X135515581Y-98519750D01*
X135508349Y-98539962D01*
X135499170Y-98559368D01*
X135488134Y-98577781D01*
X135475346Y-98595024D01*
X135460930Y-98610930D01*
X135445024Y-98625346D01*
X135427781Y-98638134D01*
X135409368Y-98649170D01*
X135389962Y-98658349D01*
X135369750Y-98665581D01*
X135348926Y-98670797D01*
X135327691Y-98673947D01*
X135306250Y-98675000D01*
X134793750Y-98675000D01*
X134772309Y-98673947D01*
X134751074Y-98670797D01*
X134730250Y-98665581D01*
X134710038Y-98658349D01*
X134690632Y-98649170D01*
X134672219Y-98638134D01*
X134654976Y-98625346D01*
X134639070Y-98610930D01*
X134624654Y-98595024D01*
X134611866Y-98577781D01*
X134600830Y-98559368D01*
X134591651Y-98539962D01*
X134584419Y-98519750D01*
X134579203Y-98498926D01*
X134576053Y-98477691D01*
X134575000Y-98456250D01*
X134575000Y-98018750D01*
X134576053Y-97997309D01*
X134579203Y-97976074D01*
X134584419Y-97955250D01*
X134591651Y-97935038D01*
X134600830Y-97915632D01*
X134611866Y-97897219D01*
X134624654Y-97879976D01*
X134639070Y-97864070D01*
X134654976Y-97849654D01*
X134672219Y-97836866D01*
X134690632Y-97825830D01*
X134710038Y-97816651D01*
X134730250Y-97809419D01*
X134751074Y-97804203D01*
X134772309Y-97801053D01*
X134793750Y-97800000D01*
X135306250Y-97800000D01*
X135327691Y-97801053D01*
X135327691Y-97801053D01*
G37*
D13*
X135050000Y-98237500D03*
D12*
G36*
X135327691Y-96226053D02*
G01*
X135348926Y-96229203D01*
X135369750Y-96234419D01*
X135389962Y-96241651D01*
X135409368Y-96250830D01*
X135427781Y-96261866D01*
X135445024Y-96274654D01*
X135460930Y-96289070D01*
X135475346Y-96304976D01*
X135488134Y-96322219D01*
X135499170Y-96340632D01*
X135508349Y-96360038D01*
X135515581Y-96380250D01*
X135520797Y-96401074D01*
X135523947Y-96422309D01*
X135525000Y-96443750D01*
X135525000Y-96881250D01*
X135523947Y-96902691D01*
X135520797Y-96923926D01*
X135515581Y-96944750D01*
X135508349Y-96964962D01*
X135499170Y-96984368D01*
X135488134Y-97002781D01*
X135475346Y-97020024D01*
X135460930Y-97035930D01*
X135445024Y-97050346D01*
X135427781Y-97063134D01*
X135409368Y-97074170D01*
X135389962Y-97083349D01*
X135369750Y-97090581D01*
X135348926Y-97095797D01*
X135327691Y-97098947D01*
X135306250Y-97100000D01*
X134793750Y-97100000D01*
X134772309Y-97098947D01*
X134751074Y-97095797D01*
X134730250Y-97090581D01*
X134710038Y-97083349D01*
X134690632Y-97074170D01*
X134672219Y-97063134D01*
X134654976Y-97050346D01*
X134639070Y-97035930D01*
X134624654Y-97020024D01*
X134611866Y-97002781D01*
X134600830Y-96984368D01*
X134591651Y-96964962D01*
X134584419Y-96944750D01*
X134579203Y-96923926D01*
X134576053Y-96902691D01*
X134575000Y-96881250D01*
X134575000Y-96443750D01*
X134576053Y-96422309D01*
X134579203Y-96401074D01*
X134584419Y-96380250D01*
X134591651Y-96360038D01*
X134600830Y-96340632D01*
X134611866Y-96322219D01*
X134624654Y-96304976D01*
X134639070Y-96289070D01*
X134654976Y-96274654D01*
X134672219Y-96261866D01*
X134690632Y-96250830D01*
X134710038Y-96241651D01*
X134730250Y-96234419D01*
X134751074Y-96229203D01*
X134772309Y-96226053D01*
X134793750Y-96225000D01*
X135306250Y-96225000D01*
X135327691Y-96226053D01*
X135327691Y-96226053D01*
G37*
D13*
X135050000Y-96662500D03*
D12*
G36*
X152127691Y-123201053D02*
G01*
X152148926Y-123204203D01*
X152169750Y-123209419D01*
X152189962Y-123216651D01*
X152209368Y-123225830D01*
X152227781Y-123236866D01*
X152245024Y-123249654D01*
X152260930Y-123264070D01*
X152275346Y-123279976D01*
X152288134Y-123297219D01*
X152299170Y-123315632D01*
X152308349Y-123335038D01*
X152315581Y-123355250D01*
X152320797Y-123376074D01*
X152323947Y-123397309D01*
X152325000Y-123418750D01*
X152325000Y-123856250D01*
X152323947Y-123877691D01*
X152320797Y-123898926D01*
X152315581Y-123919750D01*
X152308349Y-123939962D01*
X152299170Y-123959368D01*
X152288134Y-123977781D01*
X152275346Y-123995024D01*
X152260930Y-124010930D01*
X152245024Y-124025346D01*
X152227781Y-124038134D01*
X152209368Y-124049170D01*
X152189962Y-124058349D01*
X152169750Y-124065581D01*
X152148926Y-124070797D01*
X152127691Y-124073947D01*
X152106250Y-124075000D01*
X151593750Y-124075000D01*
X151572309Y-124073947D01*
X151551074Y-124070797D01*
X151530250Y-124065581D01*
X151510038Y-124058349D01*
X151490632Y-124049170D01*
X151472219Y-124038134D01*
X151454976Y-124025346D01*
X151439070Y-124010930D01*
X151424654Y-123995024D01*
X151411866Y-123977781D01*
X151400830Y-123959368D01*
X151391651Y-123939962D01*
X151384419Y-123919750D01*
X151379203Y-123898926D01*
X151376053Y-123877691D01*
X151375000Y-123856250D01*
X151375000Y-123418750D01*
X151376053Y-123397309D01*
X151379203Y-123376074D01*
X151384419Y-123355250D01*
X151391651Y-123335038D01*
X151400830Y-123315632D01*
X151411866Y-123297219D01*
X151424654Y-123279976D01*
X151439070Y-123264070D01*
X151454976Y-123249654D01*
X151472219Y-123236866D01*
X151490632Y-123225830D01*
X151510038Y-123216651D01*
X151530250Y-123209419D01*
X151551074Y-123204203D01*
X151572309Y-123201053D01*
X151593750Y-123200000D01*
X152106250Y-123200000D01*
X152127691Y-123201053D01*
X152127691Y-123201053D01*
G37*
D13*
X151850000Y-123637500D03*
D12*
G36*
X152127691Y-121626053D02*
G01*
X152148926Y-121629203D01*
X152169750Y-121634419D01*
X152189962Y-121641651D01*
X152209368Y-121650830D01*
X152227781Y-121661866D01*
X152245024Y-121674654D01*
X152260930Y-121689070D01*
X152275346Y-121704976D01*
X152288134Y-121722219D01*
X152299170Y-121740632D01*
X152308349Y-121760038D01*
X152315581Y-121780250D01*
X152320797Y-121801074D01*
X152323947Y-121822309D01*
X152325000Y-121843750D01*
X152325000Y-122281250D01*
X152323947Y-122302691D01*
X152320797Y-122323926D01*
X152315581Y-122344750D01*
X152308349Y-122364962D01*
X152299170Y-122384368D01*
X152288134Y-122402781D01*
X152275346Y-122420024D01*
X152260930Y-122435930D01*
X152245024Y-122450346D01*
X152227781Y-122463134D01*
X152209368Y-122474170D01*
X152189962Y-122483349D01*
X152169750Y-122490581D01*
X152148926Y-122495797D01*
X152127691Y-122498947D01*
X152106250Y-122500000D01*
X151593750Y-122500000D01*
X151572309Y-122498947D01*
X151551074Y-122495797D01*
X151530250Y-122490581D01*
X151510038Y-122483349D01*
X151490632Y-122474170D01*
X151472219Y-122463134D01*
X151454976Y-122450346D01*
X151439070Y-122435930D01*
X151424654Y-122420024D01*
X151411866Y-122402781D01*
X151400830Y-122384368D01*
X151391651Y-122364962D01*
X151384419Y-122344750D01*
X151379203Y-122323926D01*
X151376053Y-122302691D01*
X151375000Y-122281250D01*
X151375000Y-121843750D01*
X151376053Y-121822309D01*
X151379203Y-121801074D01*
X151384419Y-121780250D01*
X151391651Y-121760038D01*
X151400830Y-121740632D01*
X151411866Y-121722219D01*
X151424654Y-121704976D01*
X151439070Y-121689070D01*
X151454976Y-121674654D01*
X151472219Y-121661866D01*
X151490632Y-121650830D01*
X151510038Y-121641651D01*
X151530250Y-121634419D01*
X151551074Y-121629203D01*
X151572309Y-121626053D01*
X151593750Y-121625000D01*
X152106250Y-121625000D01*
X152127691Y-121626053D01*
X152127691Y-121626053D01*
G37*
D13*
X151850000Y-122062500D03*
D12*
G36*
X146127691Y-121626053D02*
G01*
X146148926Y-121629203D01*
X146169750Y-121634419D01*
X146189962Y-121641651D01*
X146209368Y-121650830D01*
X146227781Y-121661866D01*
X146245024Y-121674654D01*
X146260930Y-121689070D01*
X146275346Y-121704976D01*
X146288134Y-121722219D01*
X146299170Y-121740632D01*
X146308349Y-121760038D01*
X146315581Y-121780250D01*
X146320797Y-121801074D01*
X146323947Y-121822309D01*
X146325000Y-121843750D01*
X146325000Y-122281250D01*
X146323947Y-122302691D01*
X146320797Y-122323926D01*
X146315581Y-122344750D01*
X146308349Y-122364962D01*
X146299170Y-122384368D01*
X146288134Y-122402781D01*
X146275346Y-122420024D01*
X146260930Y-122435930D01*
X146245024Y-122450346D01*
X146227781Y-122463134D01*
X146209368Y-122474170D01*
X146189962Y-122483349D01*
X146169750Y-122490581D01*
X146148926Y-122495797D01*
X146127691Y-122498947D01*
X146106250Y-122500000D01*
X145593750Y-122500000D01*
X145572309Y-122498947D01*
X145551074Y-122495797D01*
X145530250Y-122490581D01*
X145510038Y-122483349D01*
X145490632Y-122474170D01*
X145472219Y-122463134D01*
X145454976Y-122450346D01*
X145439070Y-122435930D01*
X145424654Y-122420024D01*
X145411866Y-122402781D01*
X145400830Y-122384368D01*
X145391651Y-122364962D01*
X145384419Y-122344750D01*
X145379203Y-122323926D01*
X145376053Y-122302691D01*
X145375000Y-122281250D01*
X145375000Y-121843750D01*
X145376053Y-121822309D01*
X145379203Y-121801074D01*
X145384419Y-121780250D01*
X145391651Y-121760038D01*
X145400830Y-121740632D01*
X145411866Y-121722219D01*
X145424654Y-121704976D01*
X145439070Y-121689070D01*
X145454976Y-121674654D01*
X145472219Y-121661866D01*
X145490632Y-121650830D01*
X145510038Y-121641651D01*
X145530250Y-121634419D01*
X145551074Y-121629203D01*
X145572309Y-121626053D01*
X145593750Y-121625000D01*
X146106250Y-121625000D01*
X146127691Y-121626053D01*
X146127691Y-121626053D01*
G37*
D13*
X145850000Y-122062500D03*
D12*
G36*
X146127691Y-123201053D02*
G01*
X146148926Y-123204203D01*
X146169750Y-123209419D01*
X146189962Y-123216651D01*
X146209368Y-123225830D01*
X146227781Y-123236866D01*
X146245024Y-123249654D01*
X146260930Y-123264070D01*
X146275346Y-123279976D01*
X146288134Y-123297219D01*
X146299170Y-123315632D01*
X146308349Y-123335038D01*
X146315581Y-123355250D01*
X146320797Y-123376074D01*
X146323947Y-123397309D01*
X146325000Y-123418750D01*
X146325000Y-123856250D01*
X146323947Y-123877691D01*
X146320797Y-123898926D01*
X146315581Y-123919750D01*
X146308349Y-123939962D01*
X146299170Y-123959368D01*
X146288134Y-123977781D01*
X146275346Y-123995024D01*
X146260930Y-124010930D01*
X146245024Y-124025346D01*
X146227781Y-124038134D01*
X146209368Y-124049170D01*
X146189962Y-124058349D01*
X146169750Y-124065581D01*
X146148926Y-124070797D01*
X146127691Y-124073947D01*
X146106250Y-124075000D01*
X145593750Y-124075000D01*
X145572309Y-124073947D01*
X145551074Y-124070797D01*
X145530250Y-124065581D01*
X145510038Y-124058349D01*
X145490632Y-124049170D01*
X145472219Y-124038134D01*
X145454976Y-124025346D01*
X145439070Y-124010930D01*
X145424654Y-123995024D01*
X145411866Y-123977781D01*
X145400830Y-123959368D01*
X145391651Y-123939962D01*
X145384419Y-123919750D01*
X145379203Y-123898926D01*
X145376053Y-123877691D01*
X145375000Y-123856250D01*
X145375000Y-123418750D01*
X145376053Y-123397309D01*
X145379203Y-123376074D01*
X145384419Y-123355250D01*
X145391651Y-123335038D01*
X145400830Y-123315632D01*
X145411866Y-123297219D01*
X145424654Y-123279976D01*
X145439070Y-123264070D01*
X145454976Y-123249654D01*
X145472219Y-123236866D01*
X145490632Y-123225830D01*
X145510038Y-123216651D01*
X145530250Y-123209419D01*
X145551074Y-123204203D01*
X145572309Y-123201053D01*
X145593750Y-123200000D01*
X146106250Y-123200000D01*
X146127691Y-123201053D01*
X146127691Y-123201053D01*
G37*
D13*
X145850000Y-123637500D03*
D12*
G36*
X137327691Y-96226053D02*
G01*
X137348926Y-96229203D01*
X137369750Y-96234419D01*
X137389962Y-96241651D01*
X137409368Y-96250830D01*
X137427781Y-96261866D01*
X137445024Y-96274654D01*
X137460930Y-96289070D01*
X137475346Y-96304976D01*
X137488134Y-96322219D01*
X137499170Y-96340632D01*
X137508349Y-96360038D01*
X137515581Y-96380250D01*
X137520797Y-96401074D01*
X137523947Y-96422309D01*
X137525000Y-96443750D01*
X137525000Y-96881250D01*
X137523947Y-96902691D01*
X137520797Y-96923926D01*
X137515581Y-96944750D01*
X137508349Y-96964962D01*
X137499170Y-96984368D01*
X137488134Y-97002781D01*
X137475346Y-97020024D01*
X137460930Y-97035930D01*
X137445024Y-97050346D01*
X137427781Y-97063134D01*
X137409368Y-97074170D01*
X137389962Y-97083349D01*
X137369750Y-97090581D01*
X137348926Y-97095797D01*
X137327691Y-97098947D01*
X137306250Y-97100000D01*
X136793750Y-97100000D01*
X136772309Y-97098947D01*
X136751074Y-97095797D01*
X136730250Y-97090581D01*
X136710038Y-97083349D01*
X136690632Y-97074170D01*
X136672219Y-97063134D01*
X136654976Y-97050346D01*
X136639070Y-97035930D01*
X136624654Y-97020024D01*
X136611866Y-97002781D01*
X136600830Y-96984368D01*
X136591651Y-96964962D01*
X136584419Y-96944750D01*
X136579203Y-96923926D01*
X136576053Y-96902691D01*
X136575000Y-96881250D01*
X136575000Y-96443750D01*
X136576053Y-96422309D01*
X136579203Y-96401074D01*
X136584419Y-96380250D01*
X136591651Y-96360038D01*
X136600830Y-96340632D01*
X136611866Y-96322219D01*
X136624654Y-96304976D01*
X136639070Y-96289070D01*
X136654976Y-96274654D01*
X136672219Y-96261866D01*
X136690632Y-96250830D01*
X136710038Y-96241651D01*
X136730250Y-96234419D01*
X136751074Y-96229203D01*
X136772309Y-96226053D01*
X136793750Y-96225000D01*
X137306250Y-96225000D01*
X137327691Y-96226053D01*
X137327691Y-96226053D01*
G37*
D13*
X137050000Y-96662500D03*
D12*
G36*
X137327691Y-97801053D02*
G01*
X137348926Y-97804203D01*
X137369750Y-97809419D01*
X137389962Y-97816651D01*
X137409368Y-97825830D01*
X137427781Y-97836866D01*
X137445024Y-97849654D01*
X137460930Y-97864070D01*
X137475346Y-97879976D01*
X137488134Y-97897219D01*
X137499170Y-97915632D01*
X137508349Y-97935038D01*
X137515581Y-97955250D01*
X137520797Y-97976074D01*
X137523947Y-97997309D01*
X137525000Y-98018750D01*
X137525000Y-98456250D01*
X137523947Y-98477691D01*
X137520797Y-98498926D01*
X137515581Y-98519750D01*
X137508349Y-98539962D01*
X137499170Y-98559368D01*
X137488134Y-98577781D01*
X137475346Y-98595024D01*
X137460930Y-98610930D01*
X137445024Y-98625346D01*
X137427781Y-98638134D01*
X137409368Y-98649170D01*
X137389962Y-98658349D01*
X137369750Y-98665581D01*
X137348926Y-98670797D01*
X137327691Y-98673947D01*
X137306250Y-98675000D01*
X136793750Y-98675000D01*
X136772309Y-98673947D01*
X136751074Y-98670797D01*
X136730250Y-98665581D01*
X136710038Y-98658349D01*
X136690632Y-98649170D01*
X136672219Y-98638134D01*
X136654976Y-98625346D01*
X136639070Y-98610930D01*
X136624654Y-98595024D01*
X136611866Y-98577781D01*
X136600830Y-98559368D01*
X136591651Y-98539962D01*
X136584419Y-98519750D01*
X136579203Y-98498926D01*
X136576053Y-98477691D01*
X136575000Y-98456250D01*
X136575000Y-98018750D01*
X136576053Y-97997309D01*
X136579203Y-97976074D01*
X136584419Y-97955250D01*
X136591651Y-97935038D01*
X136600830Y-97915632D01*
X136611866Y-97897219D01*
X136624654Y-97879976D01*
X136639070Y-97864070D01*
X136654976Y-97849654D01*
X136672219Y-97836866D01*
X136690632Y-97825830D01*
X136710038Y-97816651D01*
X136730250Y-97809419D01*
X136751074Y-97804203D01*
X136772309Y-97801053D01*
X136793750Y-97800000D01*
X137306250Y-97800000D01*
X137327691Y-97801053D01*
X137327691Y-97801053D01*
G37*
D13*
X137050000Y-98237500D03*
D12*
G36*
X157277691Y-108563553D02*
G01*
X157298926Y-108566703D01*
X157319750Y-108571919D01*
X157339962Y-108579151D01*
X157359368Y-108588330D01*
X157377781Y-108599366D01*
X157395024Y-108612154D01*
X157410930Y-108626570D01*
X157425346Y-108642476D01*
X157438134Y-108659719D01*
X157449170Y-108678132D01*
X157458349Y-108697538D01*
X157465581Y-108717750D01*
X157470797Y-108738574D01*
X157473947Y-108759809D01*
X157475000Y-108781250D01*
X157475000Y-109218750D01*
X157473947Y-109240191D01*
X157470797Y-109261426D01*
X157465581Y-109282250D01*
X157458349Y-109302462D01*
X157449170Y-109321868D01*
X157438134Y-109340281D01*
X157425346Y-109357524D01*
X157410930Y-109373430D01*
X157395024Y-109387846D01*
X157377781Y-109400634D01*
X157359368Y-109411670D01*
X157339962Y-109420849D01*
X157319750Y-109428081D01*
X157298926Y-109433297D01*
X157277691Y-109436447D01*
X157256250Y-109437500D01*
X156743750Y-109437500D01*
X156722309Y-109436447D01*
X156701074Y-109433297D01*
X156680250Y-109428081D01*
X156660038Y-109420849D01*
X156640632Y-109411670D01*
X156622219Y-109400634D01*
X156604976Y-109387846D01*
X156589070Y-109373430D01*
X156574654Y-109357524D01*
X156561866Y-109340281D01*
X156550830Y-109321868D01*
X156541651Y-109302462D01*
X156534419Y-109282250D01*
X156529203Y-109261426D01*
X156526053Y-109240191D01*
X156525000Y-109218750D01*
X156525000Y-108781250D01*
X156526053Y-108759809D01*
X156529203Y-108738574D01*
X156534419Y-108717750D01*
X156541651Y-108697538D01*
X156550830Y-108678132D01*
X156561866Y-108659719D01*
X156574654Y-108642476D01*
X156589070Y-108626570D01*
X156604976Y-108612154D01*
X156622219Y-108599366D01*
X156640632Y-108588330D01*
X156660038Y-108579151D01*
X156680250Y-108571919D01*
X156701074Y-108566703D01*
X156722309Y-108563553D01*
X156743750Y-108562500D01*
X157256250Y-108562500D01*
X157277691Y-108563553D01*
X157277691Y-108563553D01*
G37*
D13*
X157000000Y-109000000D03*
D12*
G36*
X157277691Y-106988553D02*
G01*
X157298926Y-106991703D01*
X157319750Y-106996919D01*
X157339962Y-107004151D01*
X157359368Y-107013330D01*
X157377781Y-107024366D01*
X157395024Y-107037154D01*
X157410930Y-107051570D01*
X157425346Y-107067476D01*
X157438134Y-107084719D01*
X157449170Y-107103132D01*
X157458349Y-107122538D01*
X157465581Y-107142750D01*
X157470797Y-107163574D01*
X157473947Y-107184809D01*
X157475000Y-107206250D01*
X157475000Y-107643750D01*
X157473947Y-107665191D01*
X157470797Y-107686426D01*
X157465581Y-107707250D01*
X157458349Y-107727462D01*
X157449170Y-107746868D01*
X157438134Y-107765281D01*
X157425346Y-107782524D01*
X157410930Y-107798430D01*
X157395024Y-107812846D01*
X157377781Y-107825634D01*
X157359368Y-107836670D01*
X157339962Y-107845849D01*
X157319750Y-107853081D01*
X157298926Y-107858297D01*
X157277691Y-107861447D01*
X157256250Y-107862500D01*
X156743750Y-107862500D01*
X156722309Y-107861447D01*
X156701074Y-107858297D01*
X156680250Y-107853081D01*
X156660038Y-107845849D01*
X156640632Y-107836670D01*
X156622219Y-107825634D01*
X156604976Y-107812846D01*
X156589070Y-107798430D01*
X156574654Y-107782524D01*
X156561866Y-107765281D01*
X156550830Y-107746868D01*
X156541651Y-107727462D01*
X156534419Y-107707250D01*
X156529203Y-107686426D01*
X156526053Y-107665191D01*
X156525000Y-107643750D01*
X156525000Y-107206250D01*
X156526053Y-107184809D01*
X156529203Y-107163574D01*
X156534419Y-107142750D01*
X156541651Y-107122538D01*
X156550830Y-107103132D01*
X156561866Y-107084719D01*
X156574654Y-107067476D01*
X156589070Y-107051570D01*
X156604976Y-107037154D01*
X156622219Y-107024366D01*
X156640632Y-107013330D01*
X156660038Y-107004151D01*
X156680250Y-106996919D01*
X156701074Y-106991703D01*
X156722309Y-106988553D01*
X156743750Y-106987500D01*
X157256250Y-106987500D01*
X157277691Y-106988553D01*
X157277691Y-106988553D01*
G37*
D13*
X157000000Y-107425000D03*
D12*
G36*
X154127691Y-123201053D02*
G01*
X154148926Y-123204203D01*
X154169750Y-123209419D01*
X154189962Y-123216651D01*
X154209368Y-123225830D01*
X154227781Y-123236866D01*
X154245024Y-123249654D01*
X154260930Y-123264070D01*
X154275346Y-123279976D01*
X154288134Y-123297219D01*
X154299170Y-123315632D01*
X154308349Y-123335038D01*
X154315581Y-123355250D01*
X154320797Y-123376074D01*
X154323947Y-123397309D01*
X154325000Y-123418750D01*
X154325000Y-123856250D01*
X154323947Y-123877691D01*
X154320797Y-123898926D01*
X154315581Y-123919750D01*
X154308349Y-123939962D01*
X154299170Y-123959368D01*
X154288134Y-123977781D01*
X154275346Y-123995024D01*
X154260930Y-124010930D01*
X154245024Y-124025346D01*
X154227781Y-124038134D01*
X154209368Y-124049170D01*
X154189962Y-124058349D01*
X154169750Y-124065581D01*
X154148926Y-124070797D01*
X154127691Y-124073947D01*
X154106250Y-124075000D01*
X153593750Y-124075000D01*
X153572309Y-124073947D01*
X153551074Y-124070797D01*
X153530250Y-124065581D01*
X153510038Y-124058349D01*
X153490632Y-124049170D01*
X153472219Y-124038134D01*
X153454976Y-124025346D01*
X153439070Y-124010930D01*
X153424654Y-123995024D01*
X153411866Y-123977781D01*
X153400830Y-123959368D01*
X153391651Y-123939962D01*
X153384419Y-123919750D01*
X153379203Y-123898926D01*
X153376053Y-123877691D01*
X153375000Y-123856250D01*
X153375000Y-123418750D01*
X153376053Y-123397309D01*
X153379203Y-123376074D01*
X153384419Y-123355250D01*
X153391651Y-123335038D01*
X153400830Y-123315632D01*
X153411866Y-123297219D01*
X153424654Y-123279976D01*
X153439070Y-123264070D01*
X153454976Y-123249654D01*
X153472219Y-123236866D01*
X153490632Y-123225830D01*
X153510038Y-123216651D01*
X153530250Y-123209419D01*
X153551074Y-123204203D01*
X153572309Y-123201053D01*
X153593750Y-123200000D01*
X154106250Y-123200000D01*
X154127691Y-123201053D01*
X154127691Y-123201053D01*
G37*
D13*
X153850000Y-123637500D03*
D12*
G36*
X154127691Y-121626053D02*
G01*
X154148926Y-121629203D01*
X154169750Y-121634419D01*
X154189962Y-121641651D01*
X154209368Y-121650830D01*
X154227781Y-121661866D01*
X154245024Y-121674654D01*
X154260930Y-121689070D01*
X154275346Y-121704976D01*
X154288134Y-121722219D01*
X154299170Y-121740632D01*
X154308349Y-121760038D01*
X154315581Y-121780250D01*
X154320797Y-121801074D01*
X154323947Y-121822309D01*
X154325000Y-121843750D01*
X154325000Y-122281250D01*
X154323947Y-122302691D01*
X154320797Y-122323926D01*
X154315581Y-122344750D01*
X154308349Y-122364962D01*
X154299170Y-122384368D01*
X154288134Y-122402781D01*
X154275346Y-122420024D01*
X154260930Y-122435930D01*
X154245024Y-122450346D01*
X154227781Y-122463134D01*
X154209368Y-122474170D01*
X154189962Y-122483349D01*
X154169750Y-122490581D01*
X154148926Y-122495797D01*
X154127691Y-122498947D01*
X154106250Y-122500000D01*
X153593750Y-122500000D01*
X153572309Y-122498947D01*
X153551074Y-122495797D01*
X153530250Y-122490581D01*
X153510038Y-122483349D01*
X153490632Y-122474170D01*
X153472219Y-122463134D01*
X153454976Y-122450346D01*
X153439070Y-122435930D01*
X153424654Y-122420024D01*
X153411866Y-122402781D01*
X153400830Y-122384368D01*
X153391651Y-122364962D01*
X153384419Y-122344750D01*
X153379203Y-122323926D01*
X153376053Y-122302691D01*
X153375000Y-122281250D01*
X153375000Y-121843750D01*
X153376053Y-121822309D01*
X153379203Y-121801074D01*
X153384419Y-121780250D01*
X153391651Y-121760038D01*
X153400830Y-121740632D01*
X153411866Y-121722219D01*
X153424654Y-121704976D01*
X153439070Y-121689070D01*
X153454976Y-121674654D01*
X153472219Y-121661866D01*
X153490632Y-121650830D01*
X153510038Y-121641651D01*
X153530250Y-121634419D01*
X153551074Y-121629203D01*
X153572309Y-121626053D01*
X153593750Y-121625000D01*
X154106250Y-121625000D01*
X154127691Y-121626053D01*
X154127691Y-121626053D01*
G37*
D13*
X153850000Y-122062500D03*
D12*
G36*
X142127691Y-123201053D02*
G01*
X142148926Y-123204203D01*
X142169750Y-123209419D01*
X142189962Y-123216651D01*
X142209368Y-123225830D01*
X142227781Y-123236866D01*
X142245024Y-123249654D01*
X142260930Y-123264070D01*
X142275346Y-123279976D01*
X142288134Y-123297219D01*
X142299170Y-123315632D01*
X142308349Y-123335038D01*
X142315581Y-123355250D01*
X142320797Y-123376074D01*
X142323947Y-123397309D01*
X142325000Y-123418750D01*
X142325000Y-123856250D01*
X142323947Y-123877691D01*
X142320797Y-123898926D01*
X142315581Y-123919750D01*
X142308349Y-123939962D01*
X142299170Y-123959368D01*
X142288134Y-123977781D01*
X142275346Y-123995024D01*
X142260930Y-124010930D01*
X142245024Y-124025346D01*
X142227781Y-124038134D01*
X142209368Y-124049170D01*
X142189962Y-124058349D01*
X142169750Y-124065581D01*
X142148926Y-124070797D01*
X142127691Y-124073947D01*
X142106250Y-124075000D01*
X141593750Y-124075000D01*
X141572309Y-124073947D01*
X141551074Y-124070797D01*
X141530250Y-124065581D01*
X141510038Y-124058349D01*
X141490632Y-124049170D01*
X141472219Y-124038134D01*
X141454976Y-124025346D01*
X141439070Y-124010930D01*
X141424654Y-123995024D01*
X141411866Y-123977781D01*
X141400830Y-123959368D01*
X141391651Y-123939962D01*
X141384419Y-123919750D01*
X141379203Y-123898926D01*
X141376053Y-123877691D01*
X141375000Y-123856250D01*
X141375000Y-123418750D01*
X141376053Y-123397309D01*
X141379203Y-123376074D01*
X141384419Y-123355250D01*
X141391651Y-123335038D01*
X141400830Y-123315632D01*
X141411866Y-123297219D01*
X141424654Y-123279976D01*
X141439070Y-123264070D01*
X141454976Y-123249654D01*
X141472219Y-123236866D01*
X141490632Y-123225830D01*
X141510038Y-123216651D01*
X141530250Y-123209419D01*
X141551074Y-123204203D01*
X141572309Y-123201053D01*
X141593750Y-123200000D01*
X142106250Y-123200000D01*
X142127691Y-123201053D01*
X142127691Y-123201053D01*
G37*
D13*
X141850000Y-123637500D03*
D12*
G36*
X142127691Y-121626053D02*
G01*
X142148926Y-121629203D01*
X142169750Y-121634419D01*
X142189962Y-121641651D01*
X142209368Y-121650830D01*
X142227781Y-121661866D01*
X142245024Y-121674654D01*
X142260930Y-121689070D01*
X142275346Y-121704976D01*
X142288134Y-121722219D01*
X142299170Y-121740632D01*
X142308349Y-121760038D01*
X142315581Y-121780250D01*
X142320797Y-121801074D01*
X142323947Y-121822309D01*
X142325000Y-121843750D01*
X142325000Y-122281250D01*
X142323947Y-122302691D01*
X142320797Y-122323926D01*
X142315581Y-122344750D01*
X142308349Y-122364962D01*
X142299170Y-122384368D01*
X142288134Y-122402781D01*
X142275346Y-122420024D01*
X142260930Y-122435930D01*
X142245024Y-122450346D01*
X142227781Y-122463134D01*
X142209368Y-122474170D01*
X142189962Y-122483349D01*
X142169750Y-122490581D01*
X142148926Y-122495797D01*
X142127691Y-122498947D01*
X142106250Y-122500000D01*
X141593750Y-122500000D01*
X141572309Y-122498947D01*
X141551074Y-122495797D01*
X141530250Y-122490581D01*
X141510038Y-122483349D01*
X141490632Y-122474170D01*
X141472219Y-122463134D01*
X141454976Y-122450346D01*
X141439070Y-122435930D01*
X141424654Y-122420024D01*
X141411866Y-122402781D01*
X141400830Y-122384368D01*
X141391651Y-122364962D01*
X141384419Y-122344750D01*
X141379203Y-122323926D01*
X141376053Y-122302691D01*
X141375000Y-122281250D01*
X141375000Y-121843750D01*
X141376053Y-121822309D01*
X141379203Y-121801074D01*
X141384419Y-121780250D01*
X141391651Y-121760038D01*
X141400830Y-121740632D01*
X141411866Y-121722219D01*
X141424654Y-121704976D01*
X141439070Y-121689070D01*
X141454976Y-121674654D01*
X141472219Y-121661866D01*
X141490632Y-121650830D01*
X141510038Y-121641651D01*
X141530250Y-121634419D01*
X141551074Y-121629203D01*
X141572309Y-121626053D01*
X141593750Y-121625000D01*
X142106250Y-121625000D01*
X142127691Y-121626053D01*
X142127691Y-121626053D01*
G37*
D13*
X141850000Y-122062500D03*
D12*
G36*
X140127691Y-123201053D02*
G01*
X140148926Y-123204203D01*
X140169750Y-123209419D01*
X140189962Y-123216651D01*
X140209368Y-123225830D01*
X140227781Y-123236866D01*
X140245024Y-123249654D01*
X140260930Y-123264070D01*
X140275346Y-123279976D01*
X140288134Y-123297219D01*
X140299170Y-123315632D01*
X140308349Y-123335038D01*
X140315581Y-123355250D01*
X140320797Y-123376074D01*
X140323947Y-123397309D01*
X140325000Y-123418750D01*
X140325000Y-123856250D01*
X140323947Y-123877691D01*
X140320797Y-123898926D01*
X140315581Y-123919750D01*
X140308349Y-123939962D01*
X140299170Y-123959368D01*
X140288134Y-123977781D01*
X140275346Y-123995024D01*
X140260930Y-124010930D01*
X140245024Y-124025346D01*
X140227781Y-124038134D01*
X140209368Y-124049170D01*
X140189962Y-124058349D01*
X140169750Y-124065581D01*
X140148926Y-124070797D01*
X140127691Y-124073947D01*
X140106250Y-124075000D01*
X139593750Y-124075000D01*
X139572309Y-124073947D01*
X139551074Y-124070797D01*
X139530250Y-124065581D01*
X139510038Y-124058349D01*
X139490632Y-124049170D01*
X139472219Y-124038134D01*
X139454976Y-124025346D01*
X139439070Y-124010930D01*
X139424654Y-123995024D01*
X139411866Y-123977781D01*
X139400830Y-123959368D01*
X139391651Y-123939962D01*
X139384419Y-123919750D01*
X139379203Y-123898926D01*
X139376053Y-123877691D01*
X139375000Y-123856250D01*
X139375000Y-123418750D01*
X139376053Y-123397309D01*
X139379203Y-123376074D01*
X139384419Y-123355250D01*
X139391651Y-123335038D01*
X139400830Y-123315632D01*
X139411866Y-123297219D01*
X139424654Y-123279976D01*
X139439070Y-123264070D01*
X139454976Y-123249654D01*
X139472219Y-123236866D01*
X139490632Y-123225830D01*
X139510038Y-123216651D01*
X139530250Y-123209419D01*
X139551074Y-123204203D01*
X139572309Y-123201053D01*
X139593750Y-123200000D01*
X140106250Y-123200000D01*
X140127691Y-123201053D01*
X140127691Y-123201053D01*
G37*
D13*
X139850000Y-123637500D03*
D12*
G36*
X140127691Y-121626053D02*
G01*
X140148926Y-121629203D01*
X140169750Y-121634419D01*
X140189962Y-121641651D01*
X140209368Y-121650830D01*
X140227781Y-121661866D01*
X140245024Y-121674654D01*
X140260930Y-121689070D01*
X140275346Y-121704976D01*
X140288134Y-121722219D01*
X140299170Y-121740632D01*
X140308349Y-121760038D01*
X140315581Y-121780250D01*
X140320797Y-121801074D01*
X140323947Y-121822309D01*
X140325000Y-121843750D01*
X140325000Y-122281250D01*
X140323947Y-122302691D01*
X140320797Y-122323926D01*
X140315581Y-122344750D01*
X140308349Y-122364962D01*
X140299170Y-122384368D01*
X140288134Y-122402781D01*
X140275346Y-122420024D01*
X140260930Y-122435930D01*
X140245024Y-122450346D01*
X140227781Y-122463134D01*
X140209368Y-122474170D01*
X140189962Y-122483349D01*
X140169750Y-122490581D01*
X140148926Y-122495797D01*
X140127691Y-122498947D01*
X140106250Y-122500000D01*
X139593750Y-122500000D01*
X139572309Y-122498947D01*
X139551074Y-122495797D01*
X139530250Y-122490581D01*
X139510038Y-122483349D01*
X139490632Y-122474170D01*
X139472219Y-122463134D01*
X139454976Y-122450346D01*
X139439070Y-122435930D01*
X139424654Y-122420024D01*
X139411866Y-122402781D01*
X139400830Y-122384368D01*
X139391651Y-122364962D01*
X139384419Y-122344750D01*
X139379203Y-122323926D01*
X139376053Y-122302691D01*
X139375000Y-122281250D01*
X139375000Y-121843750D01*
X139376053Y-121822309D01*
X139379203Y-121801074D01*
X139384419Y-121780250D01*
X139391651Y-121760038D01*
X139400830Y-121740632D01*
X139411866Y-121722219D01*
X139424654Y-121704976D01*
X139439070Y-121689070D01*
X139454976Y-121674654D01*
X139472219Y-121661866D01*
X139490632Y-121650830D01*
X139510038Y-121641651D01*
X139530250Y-121634419D01*
X139551074Y-121629203D01*
X139572309Y-121626053D01*
X139593750Y-121625000D01*
X140106250Y-121625000D01*
X140127691Y-121626053D01*
X140127691Y-121626053D01*
G37*
D13*
X139850000Y-122062500D03*
D12*
G36*
X133327691Y-96186053D02*
G01*
X133348926Y-96189203D01*
X133369750Y-96194419D01*
X133389962Y-96201651D01*
X133409368Y-96210830D01*
X133427781Y-96221866D01*
X133445024Y-96234654D01*
X133460930Y-96249070D01*
X133475346Y-96264976D01*
X133488134Y-96282219D01*
X133499170Y-96300632D01*
X133508349Y-96320038D01*
X133515581Y-96340250D01*
X133520797Y-96361074D01*
X133523947Y-96382309D01*
X133525000Y-96403750D01*
X133525000Y-96841250D01*
X133523947Y-96862691D01*
X133520797Y-96883926D01*
X133515581Y-96904750D01*
X133508349Y-96924962D01*
X133499170Y-96944368D01*
X133488134Y-96962781D01*
X133475346Y-96980024D01*
X133460930Y-96995930D01*
X133445024Y-97010346D01*
X133427781Y-97023134D01*
X133409368Y-97034170D01*
X133389962Y-97043349D01*
X133369750Y-97050581D01*
X133348926Y-97055797D01*
X133327691Y-97058947D01*
X133306250Y-97060000D01*
X132793750Y-97060000D01*
X132772309Y-97058947D01*
X132751074Y-97055797D01*
X132730250Y-97050581D01*
X132710038Y-97043349D01*
X132690632Y-97034170D01*
X132672219Y-97023134D01*
X132654976Y-97010346D01*
X132639070Y-96995930D01*
X132624654Y-96980024D01*
X132611866Y-96962781D01*
X132600830Y-96944368D01*
X132591651Y-96924962D01*
X132584419Y-96904750D01*
X132579203Y-96883926D01*
X132576053Y-96862691D01*
X132575000Y-96841250D01*
X132575000Y-96403750D01*
X132576053Y-96382309D01*
X132579203Y-96361074D01*
X132584419Y-96340250D01*
X132591651Y-96320038D01*
X132600830Y-96300632D01*
X132611866Y-96282219D01*
X132624654Y-96264976D01*
X132639070Y-96249070D01*
X132654976Y-96234654D01*
X132672219Y-96221866D01*
X132690632Y-96210830D01*
X132710038Y-96201651D01*
X132730250Y-96194419D01*
X132751074Y-96189203D01*
X132772309Y-96186053D01*
X132793750Y-96185000D01*
X133306250Y-96185000D01*
X133327691Y-96186053D01*
X133327691Y-96186053D01*
G37*
D13*
X133050000Y-96622500D03*
D12*
G36*
X133327691Y-97761053D02*
G01*
X133348926Y-97764203D01*
X133369750Y-97769419D01*
X133389962Y-97776651D01*
X133409368Y-97785830D01*
X133427781Y-97796866D01*
X133445024Y-97809654D01*
X133460930Y-97824070D01*
X133475346Y-97839976D01*
X133488134Y-97857219D01*
X133499170Y-97875632D01*
X133508349Y-97895038D01*
X133515581Y-97915250D01*
X133520797Y-97936074D01*
X133523947Y-97957309D01*
X133525000Y-97978750D01*
X133525000Y-98416250D01*
X133523947Y-98437691D01*
X133520797Y-98458926D01*
X133515581Y-98479750D01*
X133508349Y-98499962D01*
X133499170Y-98519368D01*
X133488134Y-98537781D01*
X133475346Y-98555024D01*
X133460930Y-98570930D01*
X133445024Y-98585346D01*
X133427781Y-98598134D01*
X133409368Y-98609170D01*
X133389962Y-98618349D01*
X133369750Y-98625581D01*
X133348926Y-98630797D01*
X133327691Y-98633947D01*
X133306250Y-98635000D01*
X132793750Y-98635000D01*
X132772309Y-98633947D01*
X132751074Y-98630797D01*
X132730250Y-98625581D01*
X132710038Y-98618349D01*
X132690632Y-98609170D01*
X132672219Y-98598134D01*
X132654976Y-98585346D01*
X132639070Y-98570930D01*
X132624654Y-98555024D01*
X132611866Y-98537781D01*
X132600830Y-98519368D01*
X132591651Y-98499962D01*
X132584419Y-98479750D01*
X132579203Y-98458926D01*
X132576053Y-98437691D01*
X132575000Y-98416250D01*
X132575000Y-97978750D01*
X132576053Y-97957309D01*
X132579203Y-97936074D01*
X132584419Y-97915250D01*
X132591651Y-97895038D01*
X132600830Y-97875632D01*
X132611866Y-97857219D01*
X132624654Y-97839976D01*
X132639070Y-97824070D01*
X132654976Y-97809654D01*
X132672219Y-97796866D01*
X132690632Y-97785830D01*
X132710038Y-97776651D01*
X132730250Y-97769419D01*
X132751074Y-97764203D01*
X132772309Y-97761053D01*
X132793750Y-97760000D01*
X133306250Y-97760000D01*
X133327691Y-97761053D01*
X133327691Y-97761053D01*
G37*
D13*
X133050000Y-98197500D03*
D12*
G36*
X153277691Y-113101053D02*
G01*
X153298926Y-113104203D01*
X153319750Y-113109419D01*
X153339962Y-113116651D01*
X153359368Y-113125830D01*
X153377781Y-113136866D01*
X153395024Y-113149654D01*
X153410930Y-113164070D01*
X153425346Y-113179976D01*
X153438134Y-113197219D01*
X153449170Y-113215632D01*
X153458349Y-113235038D01*
X153465581Y-113255250D01*
X153470797Y-113276074D01*
X153473947Y-113297309D01*
X153475000Y-113318750D01*
X153475000Y-113756250D01*
X153473947Y-113777691D01*
X153470797Y-113798926D01*
X153465581Y-113819750D01*
X153458349Y-113839962D01*
X153449170Y-113859368D01*
X153438134Y-113877781D01*
X153425346Y-113895024D01*
X153410930Y-113910930D01*
X153395024Y-113925346D01*
X153377781Y-113938134D01*
X153359368Y-113949170D01*
X153339962Y-113958349D01*
X153319750Y-113965581D01*
X153298926Y-113970797D01*
X153277691Y-113973947D01*
X153256250Y-113975000D01*
X152743750Y-113975000D01*
X152722309Y-113973947D01*
X152701074Y-113970797D01*
X152680250Y-113965581D01*
X152660038Y-113958349D01*
X152640632Y-113949170D01*
X152622219Y-113938134D01*
X152604976Y-113925346D01*
X152589070Y-113910930D01*
X152574654Y-113895024D01*
X152561866Y-113877781D01*
X152550830Y-113859368D01*
X152541651Y-113839962D01*
X152534419Y-113819750D01*
X152529203Y-113798926D01*
X152526053Y-113777691D01*
X152525000Y-113756250D01*
X152525000Y-113318750D01*
X152526053Y-113297309D01*
X152529203Y-113276074D01*
X152534419Y-113255250D01*
X152541651Y-113235038D01*
X152550830Y-113215632D01*
X152561866Y-113197219D01*
X152574654Y-113179976D01*
X152589070Y-113164070D01*
X152604976Y-113149654D01*
X152622219Y-113136866D01*
X152640632Y-113125830D01*
X152660038Y-113116651D01*
X152680250Y-113109419D01*
X152701074Y-113104203D01*
X152722309Y-113101053D01*
X152743750Y-113100000D01*
X153256250Y-113100000D01*
X153277691Y-113101053D01*
X153277691Y-113101053D01*
G37*
D13*
X153000000Y-113537500D03*
D12*
G36*
X153277691Y-111526053D02*
G01*
X153298926Y-111529203D01*
X153319750Y-111534419D01*
X153339962Y-111541651D01*
X153359368Y-111550830D01*
X153377781Y-111561866D01*
X153395024Y-111574654D01*
X153410930Y-111589070D01*
X153425346Y-111604976D01*
X153438134Y-111622219D01*
X153449170Y-111640632D01*
X153458349Y-111660038D01*
X153465581Y-111680250D01*
X153470797Y-111701074D01*
X153473947Y-111722309D01*
X153475000Y-111743750D01*
X153475000Y-112181250D01*
X153473947Y-112202691D01*
X153470797Y-112223926D01*
X153465581Y-112244750D01*
X153458349Y-112264962D01*
X153449170Y-112284368D01*
X153438134Y-112302781D01*
X153425346Y-112320024D01*
X153410930Y-112335930D01*
X153395024Y-112350346D01*
X153377781Y-112363134D01*
X153359368Y-112374170D01*
X153339962Y-112383349D01*
X153319750Y-112390581D01*
X153298926Y-112395797D01*
X153277691Y-112398947D01*
X153256250Y-112400000D01*
X152743750Y-112400000D01*
X152722309Y-112398947D01*
X152701074Y-112395797D01*
X152680250Y-112390581D01*
X152660038Y-112383349D01*
X152640632Y-112374170D01*
X152622219Y-112363134D01*
X152604976Y-112350346D01*
X152589070Y-112335930D01*
X152574654Y-112320024D01*
X152561866Y-112302781D01*
X152550830Y-112284368D01*
X152541651Y-112264962D01*
X152534419Y-112244750D01*
X152529203Y-112223926D01*
X152526053Y-112202691D01*
X152525000Y-112181250D01*
X152525000Y-111743750D01*
X152526053Y-111722309D01*
X152529203Y-111701074D01*
X152534419Y-111680250D01*
X152541651Y-111660038D01*
X152550830Y-111640632D01*
X152561866Y-111622219D01*
X152574654Y-111604976D01*
X152589070Y-111589070D01*
X152604976Y-111574654D01*
X152622219Y-111561866D01*
X152640632Y-111550830D01*
X152660038Y-111541651D01*
X152680250Y-111534419D01*
X152701074Y-111529203D01*
X152722309Y-111526053D01*
X152743750Y-111525000D01*
X153256250Y-111525000D01*
X153277691Y-111526053D01*
X153277691Y-111526053D01*
G37*
D13*
X153000000Y-111962500D03*
D12*
G36*
X159277691Y-108601053D02*
G01*
X159298926Y-108604203D01*
X159319750Y-108609419D01*
X159339962Y-108616651D01*
X159359368Y-108625830D01*
X159377781Y-108636866D01*
X159395024Y-108649654D01*
X159410930Y-108664070D01*
X159425346Y-108679976D01*
X159438134Y-108697219D01*
X159449170Y-108715632D01*
X159458349Y-108735038D01*
X159465581Y-108755250D01*
X159470797Y-108776074D01*
X159473947Y-108797309D01*
X159475000Y-108818750D01*
X159475000Y-109256250D01*
X159473947Y-109277691D01*
X159470797Y-109298926D01*
X159465581Y-109319750D01*
X159458349Y-109339962D01*
X159449170Y-109359368D01*
X159438134Y-109377781D01*
X159425346Y-109395024D01*
X159410930Y-109410930D01*
X159395024Y-109425346D01*
X159377781Y-109438134D01*
X159359368Y-109449170D01*
X159339962Y-109458349D01*
X159319750Y-109465581D01*
X159298926Y-109470797D01*
X159277691Y-109473947D01*
X159256250Y-109475000D01*
X158743750Y-109475000D01*
X158722309Y-109473947D01*
X158701074Y-109470797D01*
X158680250Y-109465581D01*
X158660038Y-109458349D01*
X158640632Y-109449170D01*
X158622219Y-109438134D01*
X158604976Y-109425346D01*
X158589070Y-109410930D01*
X158574654Y-109395024D01*
X158561866Y-109377781D01*
X158550830Y-109359368D01*
X158541651Y-109339962D01*
X158534419Y-109319750D01*
X158529203Y-109298926D01*
X158526053Y-109277691D01*
X158525000Y-109256250D01*
X158525000Y-108818750D01*
X158526053Y-108797309D01*
X158529203Y-108776074D01*
X158534419Y-108755250D01*
X158541651Y-108735038D01*
X158550830Y-108715632D01*
X158561866Y-108697219D01*
X158574654Y-108679976D01*
X158589070Y-108664070D01*
X158604976Y-108649654D01*
X158622219Y-108636866D01*
X158640632Y-108625830D01*
X158660038Y-108616651D01*
X158680250Y-108609419D01*
X158701074Y-108604203D01*
X158722309Y-108601053D01*
X158743750Y-108600000D01*
X159256250Y-108600000D01*
X159277691Y-108601053D01*
X159277691Y-108601053D01*
G37*
D13*
X159000000Y-109037500D03*
D12*
G36*
X159277691Y-107026053D02*
G01*
X159298926Y-107029203D01*
X159319750Y-107034419D01*
X159339962Y-107041651D01*
X159359368Y-107050830D01*
X159377781Y-107061866D01*
X159395024Y-107074654D01*
X159410930Y-107089070D01*
X159425346Y-107104976D01*
X159438134Y-107122219D01*
X159449170Y-107140632D01*
X159458349Y-107160038D01*
X159465581Y-107180250D01*
X159470797Y-107201074D01*
X159473947Y-107222309D01*
X159475000Y-107243750D01*
X159475000Y-107681250D01*
X159473947Y-107702691D01*
X159470797Y-107723926D01*
X159465581Y-107744750D01*
X159458349Y-107764962D01*
X159449170Y-107784368D01*
X159438134Y-107802781D01*
X159425346Y-107820024D01*
X159410930Y-107835930D01*
X159395024Y-107850346D01*
X159377781Y-107863134D01*
X159359368Y-107874170D01*
X159339962Y-107883349D01*
X159319750Y-107890581D01*
X159298926Y-107895797D01*
X159277691Y-107898947D01*
X159256250Y-107900000D01*
X158743750Y-107900000D01*
X158722309Y-107898947D01*
X158701074Y-107895797D01*
X158680250Y-107890581D01*
X158660038Y-107883349D01*
X158640632Y-107874170D01*
X158622219Y-107863134D01*
X158604976Y-107850346D01*
X158589070Y-107835930D01*
X158574654Y-107820024D01*
X158561866Y-107802781D01*
X158550830Y-107784368D01*
X158541651Y-107764962D01*
X158534419Y-107744750D01*
X158529203Y-107723926D01*
X158526053Y-107702691D01*
X158525000Y-107681250D01*
X158525000Y-107243750D01*
X158526053Y-107222309D01*
X158529203Y-107201074D01*
X158534419Y-107180250D01*
X158541651Y-107160038D01*
X158550830Y-107140632D01*
X158561866Y-107122219D01*
X158574654Y-107104976D01*
X158589070Y-107089070D01*
X158604976Y-107074654D01*
X158622219Y-107061866D01*
X158640632Y-107050830D01*
X158660038Y-107041651D01*
X158680250Y-107034419D01*
X158701074Y-107029203D01*
X158722309Y-107026053D01*
X158743750Y-107025000D01*
X159256250Y-107025000D01*
X159277691Y-107026053D01*
X159277691Y-107026053D01*
G37*
D13*
X159000000Y-107462500D03*
D12*
G36*
X158127691Y-121626053D02*
G01*
X158148926Y-121629203D01*
X158169750Y-121634419D01*
X158189962Y-121641651D01*
X158209368Y-121650830D01*
X158227781Y-121661866D01*
X158245024Y-121674654D01*
X158260930Y-121689070D01*
X158275346Y-121704976D01*
X158288134Y-121722219D01*
X158299170Y-121740632D01*
X158308349Y-121760038D01*
X158315581Y-121780250D01*
X158320797Y-121801074D01*
X158323947Y-121822309D01*
X158325000Y-121843750D01*
X158325000Y-122281250D01*
X158323947Y-122302691D01*
X158320797Y-122323926D01*
X158315581Y-122344750D01*
X158308349Y-122364962D01*
X158299170Y-122384368D01*
X158288134Y-122402781D01*
X158275346Y-122420024D01*
X158260930Y-122435930D01*
X158245024Y-122450346D01*
X158227781Y-122463134D01*
X158209368Y-122474170D01*
X158189962Y-122483349D01*
X158169750Y-122490581D01*
X158148926Y-122495797D01*
X158127691Y-122498947D01*
X158106250Y-122500000D01*
X157593750Y-122500000D01*
X157572309Y-122498947D01*
X157551074Y-122495797D01*
X157530250Y-122490581D01*
X157510038Y-122483349D01*
X157490632Y-122474170D01*
X157472219Y-122463134D01*
X157454976Y-122450346D01*
X157439070Y-122435930D01*
X157424654Y-122420024D01*
X157411866Y-122402781D01*
X157400830Y-122384368D01*
X157391651Y-122364962D01*
X157384419Y-122344750D01*
X157379203Y-122323926D01*
X157376053Y-122302691D01*
X157375000Y-122281250D01*
X157375000Y-121843750D01*
X157376053Y-121822309D01*
X157379203Y-121801074D01*
X157384419Y-121780250D01*
X157391651Y-121760038D01*
X157400830Y-121740632D01*
X157411866Y-121722219D01*
X157424654Y-121704976D01*
X157439070Y-121689070D01*
X157454976Y-121674654D01*
X157472219Y-121661866D01*
X157490632Y-121650830D01*
X157510038Y-121641651D01*
X157530250Y-121634419D01*
X157551074Y-121629203D01*
X157572309Y-121626053D01*
X157593750Y-121625000D01*
X158106250Y-121625000D01*
X158127691Y-121626053D01*
X158127691Y-121626053D01*
G37*
D13*
X157850000Y-122062500D03*
D12*
G36*
X158127691Y-123201053D02*
G01*
X158148926Y-123204203D01*
X158169750Y-123209419D01*
X158189962Y-123216651D01*
X158209368Y-123225830D01*
X158227781Y-123236866D01*
X158245024Y-123249654D01*
X158260930Y-123264070D01*
X158275346Y-123279976D01*
X158288134Y-123297219D01*
X158299170Y-123315632D01*
X158308349Y-123335038D01*
X158315581Y-123355250D01*
X158320797Y-123376074D01*
X158323947Y-123397309D01*
X158325000Y-123418750D01*
X158325000Y-123856250D01*
X158323947Y-123877691D01*
X158320797Y-123898926D01*
X158315581Y-123919750D01*
X158308349Y-123939962D01*
X158299170Y-123959368D01*
X158288134Y-123977781D01*
X158275346Y-123995024D01*
X158260930Y-124010930D01*
X158245024Y-124025346D01*
X158227781Y-124038134D01*
X158209368Y-124049170D01*
X158189962Y-124058349D01*
X158169750Y-124065581D01*
X158148926Y-124070797D01*
X158127691Y-124073947D01*
X158106250Y-124075000D01*
X157593750Y-124075000D01*
X157572309Y-124073947D01*
X157551074Y-124070797D01*
X157530250Y-124065581D01*
X157510038Y-124058349D01*
X157490632Y-124049170D01*
X157472219Y-124038134D01*
X157454976Y-124025346D01*
X157439070Y-124010930D01*
X157424654Y-123995024D01*
X157411866Y-123977781D01*
X157400830Y-123959368D01*
X157391651Y-123939962D01*
X157384419Y-123919750D01*
X157379203Y-123898926D01*
X157376053Y-123877691D01*
X157375000Y-123856250D01*
X157375000Y-123418750D01*
X157376053Y-123397309D01*
X157379203Y-123376074D01*
X157384419Y-123355250D01*
X157391651Y-123335038D01*
X157400830Y-123315632D01*
X157411866Y-123297219D01*
X157424654Y-123279976D01*
X157439070Y-123264070D01*
X157454976Y-123249654D01*
X157472219Y-123236866D01*
X157490632Y-123225830D01*
X157510038Y-123216651D01*
X157530250Y-123209419D01*
X157551074Y-123204203D01*
X157572309Y-123201053D01*
X157593750Y-123200000D01*
X158106250Y-123200000D01*
X158127691Y-123201053D01*
X158127691Y-123201053D01*
G37*
D13*
X157850000Y-123637500D03*
D12*
G36*
X152277691Y-118351053D02*
G01*
X152298926Y-118354203D01*
X152319750Y-118359419D01*
X152339962Y-118366651D01*
X152359368Y-118375830D01*
X152377781Y-118386866D01*
X152395024Y-118399654D01*
X152410930Y-118414070D01*
X152425346Y-118429976D01*
X152438134Y-118447219D01*
X152449170Y-118465632D01*
X152458349Y-118485038D01*
X152465581Y-118505250D01*
X152470797Y-118526074D01*
X152473947Y-118547309D01*
X152475000Y-118568750D01*
X152475000Y-119006250D01*
X152473947Y-119027691D01*
X152470797Y-119048926D01*
X152465581Y-119069750D01*
X152458349Y-119089962D01*
X152449170Y-119109368D01*
X152438134Y-119127781D01*
X152425346Y-119145024D01*
X152410930Y-119160930D01*
X152395024Y-119175346D01*
X152377781Y-119188134D01*
X152359368Y-119199170D01*
X152339962Y-119208349D01*
X152319750Y-119215581D01*
X152298926Y-119220797D01*
X152277691Y-119223947D01*
X152256250Y-119225000D01*
X151743750Y-119225000D01*
X151722309Y-119223947D01*
X151701074Y-119220797D01*
X151680250Y-119215581D01*
X151660038Y-119208349D01*
X151640632Y-119199170D01*
X151622219Y-119188134D01*
X151604976Y-119175346D01*
X151589070Y-119160930D01*
X151574654Y-119145024D01*
X151561866Y-119127781D01*
X151550830Y-119109368D01*
X151541651Y-119089962D01*
X151534419Y-119069750D01*
X151529203Y-119048926D01*
X151526053Y-119027691D01*
X151525000Y-119006250D01*
X151525000Y-118568750D01*
X151526053Y-118547309D01*
X151529203Y-118526074D01*
X151534419Y-118505250D01*
X151541651Y-118485038D01*
X151550830Y-118465632D01*
X151561866Y-118447219D01*
X151574654Y-118429976D01*
X151589070Y-118414070D01*
X151604976Y-118399654D01*
X151622219Y-118386866D01*
X151640632Y-118375830D01*
X151660038Y-118366651D01*
X151680250Y-118359419D01*
X151701074Y-118354203D01*
X151722309Y-118351053D01*
X151743750Y-118350000D01*
X152256250Y-118350000D01*
X152277691Y-118351053D01*
X152277691Y-118351053D01*
G37*
D13*
X152000000Y-118787500D03*
D12*
G36*
X152277691Y-116776053D02*
G01*
X152298926Y-116779203D01*
X152319750Y-116784419D01*
X152339962Y-116791651D01*
X152359368Y-116800830D01*
X152377781Y-116811866D01*
X152395024Y-116824654D01*
X152410930Y-116839070D01*
X152425346Y-116854976D01*
X152438134Y-116872219D01*
X152449170Y-116890632D01*
X152458349Y-116910038D01*
X152465581Y-116930250D01*
X152470797Y-116951074D01*
X152473947Y-116972309D01*
X152475000Y-116993750D01*
X152475000Y-117431250D01*
X152473947Y-117452691D01*
X152470797Y-117473926D01*
X152465581Y-117494750D01*
X152458349Y-117514962D01*
X152449170Y-117534368D01*
X152438134Y-117552781D01*
X152425346Y-117570024D01*
X152410930Y-117585930D01*
X152395024Y-117600346D01*
X152377781Y-117613134D01*
X152359368Y-117624170D01*
X152339962Y-117633349D01*
X152319750Y-117640581D01*
X152298926Y-117645797D01*
X152277691Y-117648947D01*
X152256250Y-117650000D01*
X151743750Y-117650000D01*
X151722309Y-117648947D01*
X151701074Y-117645797D01*
X151680250Y-117640581D01*
X151660038Y-117633349D01*
X151640632Y-117624170D01*
X151622219Y-117613134D01*
X151604976Y-117600346D01*
X151589070Y-117585930D01*
X151574654Y-117570024D01*
X151561866Y-117552781D01*
X151550830Y-117534368D01*
X151541651Y-117514962D01*
X151534419Y-117494750D01*
X151529203Y-117473926D01*
X151526053Y-117452691D01*
X151525000Y-117431250D01*
X151525000Y-116993750D01*
X151526053Y-116972309D01*
X151529203Y-116951074D01*
X151534419Y-116930250D01*
X151541651Y-116910038D01*
X151550830Y-116890632D01*
X151561866Y-116872219D01*
X151574654Y-116854976D01*
X151589070Y-116839070D01*
X151604976Y-116824654D01*
X151622219Y-116811866D01*
X151640632Y-116800830D01*
X151660038Y-116791651D01*
X151680250Y-116784419D01*
X151701074Y-116779203D01*
X151722309Y-116776053D01*
X151743750Y-116775000D01*
X152256250Y-116775000D01*
X152277691Y-116776053D01*
X152277691Y-116776053D01*
G37*
D13*
X152000000Y-117212500D03*
D12*
G36*
X156127691Y-121626053D02*
G01*
X156148926Y-121629203D01*
X156169750Y-121634419D01*
X156189962Y-121641651D01*
X156209368Y-121650830D01*
X156227781Y-121661866D01*
X156245024Y-121674654D01*
X156260930Y-121689070D01*
X156275346Y-121704976D01*
X156288134Y-121722219D01*
X156299170Y-121740632D01*
X156308349Y-121760038D01*
X156315581Y-121780250D01*
X156320797Y-121801074D01*
X156323947Y-121822309D01*
X156325000Y-121843750D01*
X156325000Y-122281250D01*
X156323947Y-122302691D01*
X156320797Y-122323926D01*
X156315581Y-122344750D01*
X156308349Y-122364962D01*
X156299170Y-122384368D01*
X156288134Y-122402781D01*
X156275346Y-122420024D01*
X156260930Y-122435930D01*
X156245024Y-122450346D01*
X156227781Y-122463134D01*
X156209368Y-122474170D01*
X156189962Y-122483349D01*
X156169750Y-122490581D01*
X156148926Y-122495797D01*
X156127691Y-122498947D01*
X156106250Y-122500000D01*
X155593750Y-122500000D01*
X155572309Y-122498947D01*
X155551074Y-122495797D01*
X155530250Y-122490581D01*
X155510038Y-122483349D01*
X155490632Y-122474170D01*
X155472219Y-122463134D01*
X155454976Y-122450346D01*
X155439070Y-122435930D01*
X155424654Y-122420024D01*
X155411866Y-122402781D01*
X155400830Y-122384368D01*
X155391651Y-122364962D01*
X155384419Y-122344750D01*
X155379203Y-122323926D01*
X155376053Y-122302691D01*
X155375000Y-122281250D01*
X155375000Y-121843750D01*
X155376053Y-121822309D01*
X155379203Y-121801074D01*
X155384419Y-121780250D01*
X155391651Y-121760038D01*
X155400830Y-121740632D01*
X155411866Y-121722219D01*
X155424654Y-121704976D01*
X155439070Y-121689070D01*
X155454976Y-121674654D01*
X155472219Y-121661866D01*
X155490632Y-121650830D01*
X155510038Y-121641651D01*
X155530250Y-121634419D01*
X155551074Y-121629203D01*
X155572309Y-121626053D01*
X155593750Y-121625000D01*
X156106250Y-121625000D01*
X156127691Y-121626053D01*
X156127691Y-121626053D01*
G37*
D13*
X155850000Y-122062500D03*
D12*
G36*
X156127691Y-123201053D02*
G01*
X156148926Y-123204203D01*
X156169750Y-123209419D01*
X156189962Y-123216651D01*
X156209368Y-123225830D01*
X156227781Y-123236866D01*
X156245024Y-123249654D01*
X156260930Y-123264070D01*
X156275346Y-123279976D01*
X156288134Y-123297219D01*
X156299170Y-123315632D01*
X156308349Y-123335038D01*
X156315581Y-123355250D01*
X156320797Y-123376074D01*
X156323947Y-123397309D01*
X156325000Y-123418750D01*
X156325000Y-123856250D01*
X156323947Y-123877691D01*
X156320797Y-123898926D01*
X156315581Y-123919750D01*
X156308349Y-123939962D01*
X156299170Y-123959368D01*
X156288134Y-123977781D01*
X156275346Y-123995024D01*
X156260930Y-124010930D01*
X156245024Y-124025346D01*
X156227781Y-124038134D01*
X156209368Y-124049170D01*
X156189962Y-124058349D01*
X156169750Y-124065581D01*
X156148926Y-124070797D01*
X156127691Y-124073947D01*
X156106250Y-124075000D01*
X155593750Y-124075000D01*
X155572309Y-124073947D01*
X155551074Y-124070797D01*
X155530250Y-124065581D01*
X155510038Y-124058349D01*
X155490632Y-124049170D01*
X155472219Y-124038134D01*
X155454976Y-124025346D01*
X155439070Y-124010930D01*
X155424654Y-123995024D01*
X155411866Y-123977781D01*
X155400830Y-123959368D01*
X155391651Y-123939962D01*
X155384419Y-123919750D01*
X155379203Y-123898926D01*
X155376053Y-123877691D01*
X155375000Y-123856250D01*
X155375000Y-123418750D01*
X155376053Y-123397309D01*
X155379203Y-123376074D01*
X155384419Y-123355250D01*
X155391651Y-123335038D01*
X155400830Y-123315632D01*
X155411866Y-123297219D01*
X155424654Y-123279976D01*
X155439070Y-123264070D01*
X155454976Y-123249654D01*
X155472219Y-123236866D01*
X155490632Y-123225830D01*
X155510038Y-123216651D01*
X155530250Y-123209419D01*
X155551074Y-123204203D01*
X155572309Y-123201053D01*
X155593750Y-123200000D01*
X156106250Y-123200000D01*
X156127691Y-123201053D01*
X156127691Y-123201053D01*
G37*
D13*
X155850000Y-123637500D03*
D12*
G36*
X138277691Y-116776053D02*
G01*
X138298926Y-116779203D01*
X138319750Y-116784419D01*
X138339962Y-116791651D01*
X138359368Y-116800830D01*
X138377781Y-116811866D01*
X138395024Y-116824654D01*
X138410930Y-116839070D01*
X138425346Y-116854976D01*
X138438134Y-116872219D01*
X138449170Y-116890632D01*
X138458349Y-116910038D01*
X138465581Y-116930250D01*
X138470797Y-116951074D01*
X138473947Y-116972309D01*
X138475000Y-116993750D01*
X138475000Y-117431250D01*
X138473947Y-117452691D01*
X138470797Y-117473926D01*
X138465581Y-117494750D01*
X138458349Y-117514962D01*
X138449170Y-117534368D01*
X138438134Y-117552781D01*
X138425346Y-117570024D01*
X138410930Y-117585930D01*
X138395024Y-117600346D01*
X138377781Y-117613134D01*
X138359368Y-117624170D01*
X138339962Y-117633349D01*
X138319750Y-117640581D01*
X138298926Y-117645797D01*
X138277691Y-117648947D01*
X138256250Y-117650000D01*
X137743750Y-117650000D01*
X137722309Y-117648947D01*
X137701074Y-117645797D01*
X137680250Y-117640581D01*
X137660038Y-117633349D01*
X137640632Y-117624170D01*
X137622219Y-117613134D01*
X137604976Y-117600346D01*
X137589070Y-117585930D01*
X137574654Y-117570024D01*
X137561866Y-117552781D01*
X137550830Y-117534368D01*
X137541651Y-117514962D01*
X137534419Y-117494750D01*
X137529203Y-117473926D01*
X137526053Y-117452691D01*
X137525000Y-117431250D01*
X137525000Y-116993750D01*
X137526053Y-116972309D01*
X137529203Y-116951074D01*
X137534419Y-116930250D01*
X137541651Y-116910038D01*
X137550830Y-116890632D01*
X137561866Y-116872219D01*
X137574654Y-116854976D01*
X137589070Y-116839070D01*
X137604976Y-116824654D01*
X137622219Y-116811866D01*
X137640632Y-116800830D01*
X137660038Y-116791651D01*
X137680250Y-116784419D01*
X137701074Y-116779203D01*
X137722309Y-116776053D01*
X137743750Y-116775000D01*
X138256250Y-116775000D01*
X138277691Y-116776053D01*
X138277691Y-116776053D01*
G37*
D13*
X138000000Y-117212500D03*
D12*
G36*
X138277691Y-118351053D02*
G01*
X138298926Y-118354203D01*
X138319750Y-118359419D01*
X138339962Y-118366651D01*
X138359368Y-118375830D01*
X138377781Y-118386866D01*
X138395024Y-118399654D01*
X138410930Y-118414070D01*
X138425346Y-118429976D01*
X138438134Y-118447219D01*
X138449170Y-118465632D01*
X138458349Y-118485038D01*
X138465581Y-118505250D01*
X138470797Y-118526074D01*
X138473947Y-118547309D01*
X138475000Y-118568750D01*
X138475000Y-119006250D01*
X138473947Y-119027691D01*
X138470797Y-119048926D01*
X138465581Y-119069750D01*
X138458349Y-119089962D01*
X138449170Y-119109368D01*
X138438134Y-119127781D01*
X138425346Y-119145024D01*
X138410930Y-119160930D01*
X138395024Y-119175346D01*
X138377781Y-119188134D01*
X138359368Y-119199170D01*
X138339962Y-119208349D01*
X138319750Y-119215581D01*
X138298926Y-119220797D01*
X138277691Y-119223947D01*
X138256250Y-119225000D01*
X137743750Y-119225000D01*
X137722309Y-119223947D01*
X137701074Y-119220797D01*
X137680250Y-119215581D01*
X137660038Y-119208349D01*
X137640632Y-119199170D01*
X137622219Y-119188134D01*
X137604976Y-119175346D01*
X137589070Y-119160930D01*
X137574654Y-119145024D01*
X137561866Y-119127781D01*
X137550830Y-119109368D01*
X137541651Y-119089962D01*
X137534419Y-119069750D01*
X137529203Y-119048926D01*
X137526053Y-119027691D01*
X137525000Y-119006250D01*
X137525000Y-118568750D01*
X137526053Y-118547309D01*
X137529203Y-118526074D01*
X137534419Y-118505250D01*
X137541651Y-118485038D01*
X137550830Y-118465632D01*
X137561866Y-118447219D01*
X137574654Y-118429976D01*
X137589070Y-118414070D01*
X137604976Y-118399654D01*
X137622219Y-118386866D01*
X137640632Y-118375830D01*
X137660038Y-118366651D01*
X137680250Y-118359419D01*
X137701074Y-118354203D01*
X137722309Y-118351053D01*
X137743750Y-118350000D01*
X138256250Y-118350000D01*
X138277691Y-118351053D01*
X138277691Y-118351053D01*
G37*
D13*
X138000000Y-118787500D03*
D12*
G36*
X138127691Y-123188553D02*
G01*
X138148926Y-123191703D01*
X138169750Y-123196919D01*
X138189962Y-123204151D01*
X138209368Y-123213330D01*
X138227781Y-123224366D01*
X138245024Y-123237154D01*
X138260930Y-123251570D01*
X138275346Y-123267476D01*
X138288134Y-123284719D01*
X138299170Y-123303132D01*
X138308349Y-123322538D01*
X138315581Y-123342750D01*
X138320797Y-123363574D01*
X138323947Y-123384809D01*
X138325000Y-123406250D01*
X138325000Y-123843750D01*
X138323947Y-123865191D01*
X138320797Y-123886426D01*
X138315581Y-123907250D01*
X138308349Y-123927462D01*
X138299170Y-123946868D01*
X138288134Y-123965281D01*
X138275346Y-123982524D01*
X138260930Y-123998430D01*
X138245024Y-124012846D01*
X138227781Y-124025634D01*
X138209368Y-124036670D01*
X138189962Y-124045849D01*
X138169750Y-124053081D01*
X138148926Y-124058297D01*
X138127691Y-124061447D01*
X138106250Y-124062500D01*
X137593750Y-124062500D01*
X137572309Y-124061447D01*
X137551074Y-124058297D01*
X137530250Y-124053081D01*
X137510038Y-124045849D01*
X137490632Y-124036670D01*
X137472219Y-124025634D01*
X137454976Y-124012846D01*
X137439070Y-123998430D01*
X137424654Y-123982524D01*
X137411866Y-123965281D01*
X137400830Y-123946868D01*
X137391651Y-123927462D01*
X137384419Y-123907250D01*
X137379203Y-123886426D01*
X137376053Y-123865191D01*
X137375000Y-123843750D01*
X137375000Y-123406250D01*
X137376053Y-123384809D01*
X137379203Y-123363574D01*
X137384419Y-123342750D01*
X137391651Y-123322538D01*
X137400830Y-123303132D01*
X137411866Y-123284719D01*
X137424654Y-123267476D01*
X137439070Y-123251570D01*
X137454976Y-123237154D01*
X137472219Y-123224366D01*
X137490632Y-123213330D01*
X137510038Y-123204151D01*
X137530250Y-123196919D01*
X137551074Y-123191703D01*
X137572309Y-123188553D01*
X137593750Y-123187500D01*
X138106250Y-123187500D01*
X138127691Y-123188553D01*
X138127691Y-123188553D01*
G37*
D13*
X137850000Y-123625000D03*
D12*
G36*
X138127691Y-121613553D02*
G01*
X138148926Y-121616703D01*
X138169750Y-121621919D01*
X138189962Y-121629151D01*
X138209368Y-121638330D01*
X138227781Y-121649366D01*
X138245024Y-121662154D01*
X138260930Y-121676570D01*
X138275346Y-121692476D01*
X138288134Y-121709719D01*
X138299170Y-121728132D01*
X138308349Y-121747538D01*
X138315581Y-121767750D01*
X138320797Y-121788574D01*
X138323947Y-121809809D01*
X138325000Y-121831250D01*
X138325000Y-122268750D01*
X138323947Y-122290191D01*
X138320797Y-122311426D01*
X138315581Y-122332250D01*
X138308349Y-122352462D01*
X138299170Y-122371868D01*
X138288134Y-122390281D01*
X138275346Y-122407524D01*
X138260930Y-122423430D01*
X138245024Y-122437846D01*
X138227781Y-122450634D01*
X138209368Y-122461670D01*
X138189962Y-122470849D01*
X138169750Y-122478081D01*
X138148926Y-122483297D01*
X138127691Y-122486447D01*
X138106250Y-122487500D01*
X137593750Y-122487500D01*
X137572309Y-122486447D01*
X137551074Y-122483297D01*
X137530250Y-122478081D01*
X137510038Y-122470849D01*
X137490632Y-122461670D01*
X137472219Y-122450634D01*
X137454976Y-122437846D01*
X137439070Y-122423430D01*
X137424654Y-122407524D01*
X137411866Y-122390281D01*
X137400830Y-122371868D01*
X137391651Y-122352462D01*
X137384419Y-122332250D01*
X137379203Y-122311426D01*
X137376053Y-122290191D01*
X137375000Y-122268750D01*
X137375000Y-121831250D01*
X137376053Y-121809809D01*
X137379203Y-121788574D01*
X137384419Y-121767750D01*
X137391651Y-121747538D01*
X137400830Y-121728132D01*
X137411866Y-121709719D01*
X137424654Y-121692476D01*
X137439070Y-121676570D01*
X137454976Y-121662154D01*
X137472219Y-121649366D01*
X137490632Y-121638330D01*
X137510038Y-121629151D01*
X137530250Y-121621919D01*
X137551074Y-121616703D01*
X137572309Y-121613553D01*
X137593750Y-121612500D01*
X138106250Y-121612500D01*
X138127691Y-121613553D01*
X138127691Y-121613553D01*
G37*
D13*
X137850000Y-122050000D03*
D15*
X135500000Y-118250000D03*
X138000000Y-120000000D03*
X130500000Y-114000000D03*
X149750000Y-114750000D03*
X149750000Y-120162490D03*
X145250000Y-115500000D03*
X148351505Y-120162490D03*
X142000000Y-111750008D03*
X158750000Y-123750000D03*
X152500000Y-124750000D03*
X152750000Y-108500000D03*
X153000000Y-110750000D03*
X145250000Y-116750000D03*
X145250000Y-118750000D03*
X151750000Y-115000000D03*
X150750000Y-117000000D03*
X150750000Y-124449990D03*
X150500000Y-121000000D03*
X147500000Y-120750000D03*
X143250000Y-120500000D03*
X144250000Y-116500000D03*
X142840000Y-124840000D03*
X142000000Y-96000000D03*
D16*
X148014999Y-115919999D02*
X147750000Y-116184998D01*
X151244999Y-115919999D02*
X148014999Y-115919999D01*
X152000000Y-116675000D02*
X151244999Y-115919999D01*
X152000000Y-117212500D02*
X152000000Y-116675000D01*
X138311612Y-124086612D02*
X137850000Y-123625000D01*
X138750010Y-124525010D02*
X138311612Y-124086612D01*
X140962490Y-124525010D02*
X138750010Y-124525010D01*
X141850000Y-123637500D02*
X140962490Y-124525010D01*
X142311612Y-123175888D02*
X141850000Y-123637500D01*
X142775010Y-122712490D02*
X142311612Y-123175888D01*
X142775010Y-121566738D02*
X142775010Y-122712490D01*
X142250000Y-121041728D02*
X142775010Y-121566738D01*
X142250000Y-119100000D02*
X142250000Y-121041728D01*
X142250000Y-118384998D02*
X142250000Y-119100000D01*
X141985001Y-118119999D02*
X142250000Y-118384998D01*
X138667501Y-118119999D02*
X141985001Y-118119999D01*
X138000000Y-118787500D02*
X138667501Y-118119999D01*
X142754997Y-117880001D02*
X142250000Y-118384998D01*
X147485001Y-117880001D02*
X142754997Y-117880001D01*
X147750000Y-117615002D02*
X147485001Y-117880001D01*
X147750000Y-116900000D02*
X147750000Y-117615002D01*
X147750000Y-116184998D02*
X147750000Y-116900000D01*
X138000000Y-120000000D02*
X138000000Y-118787500D01*
X135500000Y-121275000D02*
X137850000Y-123625000D01*
X135500000Y-120250000D02*
X135500000Y-121250000D01*
X134500000Y-119250000D02*
X135500000Y-120250000D01*
X134500000Y-118000000D02*
X134500000Y-119250000D01*
X130500000Y-114000000D02*
X134500000Y-118000000D01*
X145650000Y-114084998D02*
X147750000Y-116184998D01*
X145650000Y-110850000D02*
X145650000Y-114084998D01*
X150750000Y-113537500D02*
X150750000Y-113750000D01*
X150750000Y-113750000D02*
X149750000Y-114750000D01*
X147850000Y-123637500D02*
X148775010Y-122712490D01*
X148775010Y-122712490D02*
X148775010Y-121137480D01*
X148775010Y-121137480D02*
X149350001Y-120562489D01*
X149350001Y-120562489D02*
X149750000Y-120162490D01*
X149012500Y-118787500D02*
X148700000Y-119100000D01*
X152000000Y-118787500D02*
X149012500Y-118787500D01*
X138312500Y-116900000D02*
X138000000Y-117212500D01*
X141300000Y-116900000D02*
X138312500Y-116900000D01*
X139837500Y-122050000D02*
X139850000Y-122062500D01*
X137850000Y-122050000D02*
X139837500Y-122050000D01*
X137388388Y-121588388D02*
X137850000Y-122050000D01*
X137074990Y-121274990D02*
X137388388Y-121588388D01*
X137074990Y-117562510D02*
X137074990Y-121274990D01*
X137425000Y-117212500D02*
X137074990Y-117562510D01*
X138000000Y-117212500D02*
X137425000Y-117212500D01*
X142700000Y-115500000D02*
X141300000Y-116900000D01*
X145250000Y-115500000D02*
X142700000Y-115500000D01*
X148667510Y-120162490D02*
X148351505Y-120162490D01*
X148700000Y-120130000D02*
X148667510Y-120162490D01*
X148700000Y-119100000D02*
X148700000Y-120130000D01*
X144700000Y-108650000D02*
X144700000Y-108855000D01*
X142000000Y-111555000D02*
X142000000Y-111750008D01*
X144700000Y-108855000D02*
X142000000Y-111555000D01*
X142000000Y-112315693D02*
X142000000Y-111750008D01*
X138000000Y-117212500D02*
X142000000Y-113212500D01*
X142000000Y-113212500D02*
X142000000Y-112315693D01*
D17*
X152400001Y-100950001D02*
X153200000Y-101750000D01*
X149025001Y-97575001D02*
X152400001Y-100950001D01*
X137962501Y-97575001D02*
X149025001Y-97575001D01*
X137050000Y-96662500D02*
X137962501Y-97575001D01*
X140562500Y-101750000D02*
X147200000Y-101750000D01*
X137050000Y-98237500D02*
X140562500Y-101750000D01*
X135475000Y-96662500D02*
X135050000Y-96662500D01*
X137050000Y-98237500D02*
X135475000Y-96662500D01*
D16*
X133090000Y-98237500D02*
X133050000Y-98197500D01*
X157850000Y-123637500D02*
X158637500Y-123637500D01*
X158637500Y-123637500D02*
X158750000Y-123750000D01*
X152500000Y-124287500D02*
X151850000Y-123637500D01*
X152500000Y-124750000D02*
X152500000Y-124287500D01*
X144425000Y-122062500D02*
X143850000Y-122062500D01*
X144924990Y-124424990D02*
X144924990Y-122562490D01*
X145800000Y-125300000D02*
X144924990Y-124424990D01*
X151950000Y-125300000D02*
X145800000Y-125300000D01*
X152500000Y-124750000D02*
X151950000Y-125300000D01*
X144924990Y-122562490D02*
X144425000Y-122062500D01*
X157037500Y-107462500D02*
X157000000Y-107425000D01*
X159000000Y-107462500D02*
X157037500Y-107462500D01*
X159000000Y-107462500D02*
X159000000Y-106810000D01*
X168230000Y-116692500D02*
X168230000Y-119000000D01*
X159000000Y-107462500D02*
X168230000Y-116692500D01*
X155850000Y-114812500D02*
X153000000Y-111962500D01*
X155850000Y-122062500D02*
X155850000Y-114812500D01*
X155850000Y-122062500D02*
X157850000Y-122062500D01*
X146600000Y-108650000D02*
X152600000Y-108650000D01*
X152600000Y-108650000D02*
X152750000Y-108500000D01*
X153000000Y-110750000D02*
X153000000Y-111962500D01*
X146800000Y-116900000D02*
X145400000Y-116900000D01*
X145400000Y-116900000D02*
X145250000Y-116750000D01*
X145850000Y-123637500D02*
X146775010Y-122712490D01*
X146024999Y-119524999D02*
X145250000Y-118750000D01*
X146024999Y-120533001D02*
X146024999Y-119524999D01*
X146775010Y-121283012D02*
X146024999Y-120533001D01*
X146775010Y-122712490D02*
X146775010Y-121283012D01*
X141425000Y-122062500D02*
X139850000Y-123637500D01*
X141850000Y-122062500D02*
X141425000Y-122062500D01*
X141300000Y-121512500D02*
X141300000Y-119100000D01*
X141850000Y-122062500D02*
X141300000Y-121512500D01*
X153850000Y-123637500D02*
X155850000Y-123637500D01*
X159600002Y-123341998D02*
X159500000Y-123241996D01*
X159500000Y-111500000D02*
X157461612Y-109461612D01*
X157461612Y-109461612D02*
X157000000Y-109000000D01*
X159500000Y-123241996D02*
X159500000Y-110750000D01*
X159158002Y-124850002D02*
X159600002Y-124408002D01*
X157062502Y-124850002D02*
X159158002Y-124850002D01*
X155850000Y-123637500D02*
X157062502Y-124850002D01*
X159600002Y-124408002D02*
X159600002Y-123341998D01*
X156538388Y-109461612D02*
X157000000Y-109000000D01*
X156250000Y-109750000D02*
X156538388Y-109461612D01*
X145084998Y-109750000D02*
X156250000Y-109750000D01*
X144700000Y-110850000D02*
X144700000Y-110134998D01*
X144700000Y-110134998D02*
X145084998Y-109750000D01*
X153000000Y-121212500D02*
X153850000Y-122062500D01*
X153000000Y-113537500D02*
X153000000Y-121212500D01*
X146600000Y-111055000D02*
X146600000Y-110850000D01*
X148700000Y-116900000D02*
X150650000Y-116900000D01*
X150650000Y-116900000D02*
X150750000Y-117000000D01*
X147712500Y-111962500D02*
X146600000Y-110850000D01*
X150750000Y-111962500D02*
X147712500Y-111962500D01*
X151750000Y-112962500D02*
X151750000Y-115000000D01*
X150750000Y-111962500D02*
X151750000Y-112962500D01*
X149850000Y-123625000D02*
X150674990Y-124449990D01*
X150674990Y-124449990D02*
X150750000Y-124449990D01*
X151837500Y-122050000D02*
X151850000Y-122062500D01*
X149850000Y-122050000D02*
X151837500Y-122050000D01*
X149850000Y-122050000D02*
X149850000Y-121650000D01*
X149850000Y-121650000D02*
X150500000Y-121000000D01*
X147420000Y-120750000D02*
X147500000Y-120750000D01*
X147850000Y-121100000D02*
X147500000Y-120750000D01*
X147850000Y-122062500D02*
X147850000Y-121100000D01*
X146800000Y-119100000D02*
X146800000Y-120130000D01*
X146800000Y-120130000D02*
X147420000Y-120750000D01*
X143250000Y-119150000D02*
X143200000Y-119100000D01*
X143250000Y-120500000D02*
X143250000Y-119150000D01*
X143684315Y-116500000D02*
X143500000Y-116684315D01*
X144250000Y-116500000D02*
X143684315Y-116500000D01*
X143415685Y-116684315D02*
X143200000Y-116900000D01*
X143500000Y-116684315D02*
X143415685Y-116684315D01*
X143850000Y-123637500D02*
X142840000Y-124647500D01*
X142840000Y-124647500D02*
X142840000Y-124840000D01*
X107987500Y-96622500D02*
X133050000Y-96622500D01*
X104800000Y-99810000D02*
X107987500Y-96622500D01*
D17*
X151325001Y-102875001D02*
X153874999Y-102875001D01*
X150200000Y-101750000D02*
X151325001Y-102875001D01*
X155400001Y-97249999D02*
X156200000Y-96450000D01*
X155074999Y-97575001D02*
X155400001Y-97249999D01*
X155074999Y-101675001D02*
X155074999Y-97575001D01*
X153874999Y-102875001D02*
X155074999Y-101675001D01*
X133050000Y-96622500D02*
X134172500Y-95500000D01*
X134172500Y-95500000D02*
X141500000Y-95500000D01*
X141500000Y-95500000D02*
X142000000Y-96000000D01*
D18*
G36*
X171697216Y-93093919D02*
G01*
X172079297Y-93209276D01*
X172431701Y-93396652D01*
X172740996Y-93648906D01*
X172995405Y-93956433D01*
X173185238Y-94307522D01*
X173303259Y-94688787D01*
X173347200Y-95106854D01*
X173347201Y-123477844D01*
X173306081Y-123897217D01*
X173190723Y-124279301D01*
X173003347Y-124631702D01*
X172751092Y-124940998D01*
X172443566Y-125195405D01*
X172092479Y-125385237D01*
X171711213Y-125503259D01*
X171293138Y-125547200D01*
X143165156Y-125547200D01*
X143208426Y-125529277D01*
X143335818Y-125444156D01*
X143444156Y-125335818D01*
X143529277Y-125208426D01*
X143587909Y-125066876D01*
X143617800Y-124916607D01*
X143617800Y-124763393D01*
X143616829Y-124758513D01*
X143920715Y-124454628D01*
X144106250Y-124454628D01*
X144222988Y-124443130D01*
X144335239Y-124409079D01*
X144438691Y-124353783D01*
X144529367Y-124279367D01*
X144603783Y-124188691D01*
X144659079Y-124085239D01*
X144693130Y-123972988D01*
X144704628Y-123856250D01*
X144704628Y-123418750D01*
X144693130Y-123302012D01*
X144659079Y-123189761D01*
X144603783Y-123086309D01*
X144529367Y-122995633D01*
X144438691Y-122921217D01*
X144335239Y-122865921D01*
X144222988Y-122831870D01*
X144106250Y-122820372D01*
X143593750Y-122820372D01*
X143477012Y-122831870D01*
X143386518Y-122859321D01*
X143393726Y-122835560D01*
X143402810Y-122743326D01*
X143402810Y-122743324D01*
X143405847Y-122712490D01*
X143402810Y-122681657D01*
X143402810Y-121597563D01*
X143405846Y-121566737D01*
X143402810Y-121535911D01*
X143402810Y-121535902D01*
X143393726Y-121443668D01*
X143357827Y-121325327D01*
X143331864Y-121276754D01*
X143476876Y-121247909D01*
X143618426Y-121189277D01*
X143745818Y-121104156D01*
X143854156Y-120995818D01*
X143939277Y-120868426D01*
X143997909Y-120726876D01*
X144027800Y-120576607D01*
X144027800Y-120423393D01*
X143997909Y-120273124D01*
X143939277Y-120131574D01*
X143877800Y-120039568D01*
X143877800Y-119768456D01*
X143897334Y-119704062D01*
X143904628Y-119630000D01*
X143904628Y-118570000D01*
X143898502Y-118507801D01*
X144508438Y-118507801D01*
X144502091Y-118523124D01*
X144472200Y-118673393D01*
X144472200Y-118826607D01*
X144502091Y-118976876D01*
X144560723Y-119118426D01*
X144645844Y-119245818D01*
X144754182Y-119354156D01*
X144881574Y-119439277D01*
X145023124Y-119497909D01*
X145131655Y-119519498D01*
X145397200Y-119785042D01*
X145397199Y-120502175D01*
X145394163Y-120533001D01*
X145397199Y-120563827D01*
X145397199Y-120563836D01*
X145406283Y-120656070D01*
X145442182Y-120774411D01*
X145500477Y-120883474D01*
X145578930Y-120979070D01*
X145602887Y-120998731D01*
X145849527Y-121245372D01*
X145593750Y-121245372D01*
X145477012Y-121256870D01*
X145364761Y-121290921D01*
X145261309Y-121346217D01*
X145170633Y-121420633D01*
X145096217Y-121511309D01*
X145040921Y-121614761D01*
X145006870Y-121727012D01*
X144995372Y-121843750D01*
X144995372Y-122281250D01*
X145006870Y-122397988D01*
X145040921Y-122510239D01*
X145096217Y-122613691D01*
X145170633Y-122704367D01*
X145261309Y-122778783D01*
X145364761Y-122834079D01*
X145417245Y-122850000D01*
X145364761Y-122865921D01*
X145261309Y-122921217D01*
X145170633Y-122995633D01*
X145096217Y-123086309D01*
X145040921Y-123189761D01*
X145006870Y-123302012D01*
X144995372Y-123418750D01*
X144995372Y-123856250D01*
X145006870Y-123972988D01*
X145040921Y-124085239D01*
X145096217Y-124188691D01*
X145170633Y-124279367D01*
X145261309Y-124353783D01*
X145364761Y-124409079D01*
X145477012Y-124443130D01*
X145593750Y-124454628D01*
X146106250Y-124454628D01*
X146222988Y-124443130D01*
X146335239Y-124409079D01*
X146438691Y-124353783D01*
X146529367Y-124279367D01*
X146603783Y-124188691D01*
X146659079Y-124085239D01*
X146693130Y-123972988D01*
X146704628Y-123856250D01*
X146704628Y-123670715D01*
X146999609Y-123375735D01*
X146995372Y-123418750D01*
X146995372Y-123856250D01*
X147006870Y-123972988D01*
X147040921Y-124085239D01*
X147096217Y-124188691D01*
X147170633Y-124279367D01*
X147261309Y-124353783D01*
X147364761Y-124409079D01*
X147477012Y-124443130D01*
X147593750Y-124454628D01*
X148106250Y-124454628D01*
X148222988Y-124443130D01*
X148335239Y-124409079D01*
X148438691Y-124353783D01*
X148529367Y-124279367D01*
X148603783Y-124188691D01*
X148659079Y-124085239D01*
X148693130Y-123972988D01*
X148704628Y-123856250D01*
X148704628Y-123670715D01*
X148998243Y-123377100D01*
X148995372Y-123406250D01*
X148995372Y-123843750D01*
X149006870Y-123960488D01*
X149040921Y-124072739D01*
X149096217Y-124176191D01*
X149170633Y-124266867D01*
X149261309Y-124341283D01*
X149364761Y-124396579D01*
X149477012Y-124430630D01*
X149593750Y-124442128D01*
X149779286Y-124442128D01*
X149999128Y-124661971D01*
X150002091Y-124676866D01*
X150060723Y-124818416D01*
X150145844Y-124945808D01*
X150254182Y-125054146D01*
X150381574Y-125139267D01*
X150523124Y-125197899D01*
X150673393Y-125227790D01*
X150826607Y-125227790D01*
X150976876Y-125197899D01*
X151118426Y-125139267D01*
X151245818Y-125054146D01*
X151354156Y-124945808D01*
X151439277Y-124818416D01*
X151497909Y-124676866D01*
X151527800Y-124526597D01*
X151527800Y-124373383D01*
X151497909Y-124223114D01*
X151439277Y-124081564D01*
X151354156Y-123954172D01*
X151245818Y-123845834D01*
X151118426Y-123760713D01*
X150976876Y-123702081D01*
X150826607Y-123672190D01*
X150785033Y-123672190D01*
X150704628Y-123591786D01*
X150704628Y-123406250D01*
X150693130Y-123289512D01*
X150659079Y-123177261D01*
X150603783Y-123073809D01*
X150529367Y-122983133D01*
X150438691Y-122908717D01*
X150335239Y-122853421D01*
X150282755Y-122837500D01*
X150335239Y-122821579D01*
X150438691Y-122766283D01*
X150529367Y-122691867D01*
X150540912Y-122677800D01*
X151148830Y-122677800D01*
X151170633Y-122704367D01*
X151261309Y-122778783D01*
X151364761Y-122834079D01*
X151477012Y-122868130D01*
X151593750Y-122879628D01*
X152106250Y-122879628D01*
X152222988Y-122868130D01*
X152335239Y-122834079D01*
X152438691Y-122778783D01*
X152529367Y-122704367D01*
X152603783Y-122613691D01*
X152659079Y-122510239D01*
X152693130Y-122397988D01*
X152704628Y-122281250D01*
X152704628Y-121843750D01*
X152700391Y-121800733D01*
X152995372Y-122095715D01*
X152995372Y-122281250D01*
X153006870Y-122397988D01*
X153040921Y-122510239D01*
X153096217Y-122613691D01*
X153170633Y-122704367D01*
X153261309Y-122778783D01*
X153364761Y-122834079D01*
X153417245Y-122850000D01*
X153364761Y-122865921D01*
X153261309Y-122921217D01*
X153170633Y-122995633D01*
X153096217Y-123086309D01*
X153040921Y-123189761D01*
X153006870Y-123302012D01*
X152995372Y-123418750D01*
X152995372Y-123856250D01*
X153006870Y-123972988D01*
X153040921Y-124085239D01*
X153096217Y-124188691D01*
X153170633Y-124279367D01*
X153261309Y-124353783D01*
X153364761Y-124409079D01*
X153477012Y-124443130D01*
X153593750Y-124454628D01*
X154106250Y-124454628D01*
X154222988Y-124443130D01*
X154335239Y-124409079D01*
X154438691Y-124353783D01*
X154529367Y-124279367D01*
X154540912Y-124265300D01*
X155159088Y-124265300D01*
X155170633Y-124279367D01*
X155261309Y-124353783D01*
X155364761Y-124409079D01*
X155477012Y-124443130D01*
X155593750Y-124454628D01*
X155779285Y-124454628D01*
X156596781Y-125272124D01*
X156616433Y-125296071D01*
X156640379Y-125315723D01*
X156640384Y-125315728D01*
X156712027Y-125374524D01*
X156771576Y-125406353D01*
X156821091Y-125432819D01*
X156939432Y-125468718D01*
X157031666Y-125477802D01*
X157031676Y-125477802D01*
X157062502Y-125480838D01*
X157093328Y-125477802D01*
X159127176Y-125477802D01*
X159158002Y-125480838D01*
X159188828Y-125477802D01*
X159188838Y-125477802D01*
X159281072Y-125468718D01*
X159399413Y-125432819D01*
X159508476Y-125374524D01*
X159604071Y-125296071D01*
X159623732Y-125272114D01*
X160022120Y-124873727D01*
X160046071Y-124854071D01*
X160124524Y-124758476D01*
X160182819Y-124649413D01*
X160218718Y-124531072D01*
X160227802Y-124438838D01*
X160227802Y-124438829D01*
X160230838Y-124408003D01*
X160227802Y-124377177D01*
X160227802Y-123372823D01*
X160230838Y-123341997D01*
X160227802Y-123311171D01*
X160227802Y-123311162D01*
X160218718Y-123218928D01*
X160182819Y-123100587D01*
X160127800Y-122997653D01*
X160127800Y-111530826D01*
X160130836Y-111500000D01*
X160127800Y-111469174D01*
X160127800Y-110719164D01*
X160118716Y-110626930D01*
X160082817Y-110508589D01*
X160024522Y-110399526D01*
X159946069Y-110303931D01*
X159850474Y-110225478D01*
X159741411Y-110167183D01*
X159623070Y-110131284D01*
X159500000Y-110119163D01*
X159376931Y-110131284D01*
X159258590Y-110167183D01*
X159149527Y-110225478D01*
X159129641Y-110241798D01*
X157927347Y-109039505D01*
X157927338Y-109039494D01*
X157854628Y-108966784D01*
X157854628Y-108781250D01*
X157843130Y-108664512D01*
X157809079Y-108552261D01*
X157753783Y-108448809D01*
X157679367Y-108358133D01*
X157588691Y-108283717D01*
X157485239Y-108228421D01*
X157432755Y-108212500D01*
X157485239Y-108196579D01*
X157588691Y-108141283D01*
X157650814Y-108090300D01*
X158309088Y-108090300D01*
X158320633Y-108104367D01*
X158411309Y-108178783D01*
X158514761Y-108234079D01*
X158627012Y-108268130D01*
X158743750Y-108279628D01*
X158929286Y-108279628D01*
X166285284Y-115635627D01*
X165758047Y-115987916D01*
X165217916Y-116528047D01*
X164793538Y-117163173D01*
X164501222Y-117868887D01*
X164352200Y-118618070D01*
X164352200Y-119381930D01*
X164501222Y-120131113D01*
X164793538Y-120836827D01*
X165217916Y-121471953D01*
X165758047Y-122012084D01*
X166393173Y-122436462D01*
X167098887Y-122728778D01*
X167848070Y-122877800D01*
X168611930Y-122877800D01*
X169361113Y-122728778D01*
X170066827Y-122436462D01*
X170701953Y-122012084D01*
X171242084Y-121471953D01*
X171666462Y-120836827D01*
X171958778Y-120131113D01*
X172107800Y-119381930D01*
X172107800Y-118618070D01*
X171958778Y-117868887D01*
X171666462Y-117163173D01*
X171242084Y-116528047D01*
X170701953Y-115987916D01*
X170066827Y-115563538D01*
X169361113Y-115271222D01*
X168611930Y-115122200D01*
X167848070Y-115122200D01*
X167597404Y-115172061D01*
X159854628Y-107429286D01*
X159854628Y-107243750D01*
X159843130Y-107127012D01*
X159809079Y-107014761D01*
X159753783Y-106911309D01*
X159679367Y-106820633D01*
X159627709Y-106778238D01*
X159618716Y-106686930D01*
X159582817Y-106568589D01*
X159524522Y-106459526D01*
X159446069Y-106363931D01*
X159350474Y-106285478D01*
X159241411Y-106227183D01*
X159123070Y-106191284D01*
X159000000Y-106179163D01*
X158876931Y-106191284D01*
X158758590Y-106227183D01*
X158649527Y-106285478D01*
X158553932Y-106363931D01*
X158475479Y-106459526D01*
X158417183Y-106568589D01*
X158381284Y-106686930D01*
X158372291Y-106778238D01*
X158320633Y-106820633D01*
X158309088Y-106834700D01*
X157721687Y-106834700D01*
X157679367Y-106783133D01*
X157588691Y-106708717D01*
X157485239Y-106653421D01*
X157372988Y-106619370D01*
X157256250Y-106607872D01*
X156743750Y-106607872D01*
X156627012Y-106619370D01*
X156514761Y-106653421D01*
X156411309Y-106708717D01*
X156320633Y-106783133D01*
X156246217Y-106873809D01*
X156190921Y-106977261D01*
X156156870Y-107089512D01*
X156145372Y-107206250D01*
X156145372Y-107643750D01*
X156156870Y-107760488D01*
X156190921Y-107872739D01*
X156246217Y-107976191D01*
X156320633Y-108066867D01*
X156411309Y-108141283D01*
X156514761Y-108196579D01*
X156567245Y-108212500D01*
X156514761Y-108228421D01*
X156411309Y-108283717D01*
X156320633Y-108358133D01*
X156246217Y-108448809D01*
X156190921Y-108552261D01*
X156156870Y-108664512D01*
X156145372Y-108781250D01*
X156145372Y-108966786D01*
X155989958Y-109122200D01*
X153218813Y-109122200D01*
X153245818Y-109104156D01*
X153354156Y-108995818D01*
X153439277Y-108868426D01*
X153497909Y-108726876D01*
X153527800Y-108576607D01*
X153527800Y-108423393D01*
X153497909Y-108273124D01*
X153439277Y-108131574D01*
X153354156Y-108004182D01*
X153245818Y-107895844D01*
X153118426Y-107810723D01*
X152976876Y-107752091D01*
X152826607Y-107722200D01*
X152673393Y-107722200D01*
X152523124Y-107752091D01*
X152381574Y-107810723D01*
X152254182Y-107895844D01*
X152145844Y-108004182D01*
X152133805Y-108022200D01*
X147290133Y-108022200D01*
X147275731Y-107974723D01*
X147240649Y-107909090D01*
X147193438Y-107851562D01*
X147135910Y-107804351D01*
X147070277Y-107769269D01*
X146999062Y-107747666D01*
X146925000Y-107740372D01*
X146275000Y-107740372D01*
X146200938Y-107747666D01*
X146129723Y-107769269D01*
X146125000Y-107771794D01*
X146120277Y-107769269D01*
X146049062Y-107747666D01*
X145975000Y-107740372D01*
X145325000Y-107740372D01*
X145250938Y-107747666D01*
X145179723Y-107769269D01*
X145175000Y-107771794D01*
X145170277Y-107769269D01*
X145099062Y-107747666D01*
X145025000Y-107740372D01*
X144375000Y-107740372D01*
X144300938Y-107747666D01*
X144229723Y-107769269D01*
X144164090Y-107804351D01*
X144106562Y-107851562D01*
X144059351Y-107909090D01*
X144024269Y-107974723D01*
X144002666Y-108045938D01*
X143995372Y-108120000D01*
X143995372Y-108671784D01*
X141577888Y-111089270D01*
X141553931Y-111108931D01*
X141547245Y-111117078D01*
X141504182Y-111145852D01*
X141395844Y-111254190D01*
X141310723Y-111381582D01*
X141252091Y-111523132D01*
X141222200Y-111673401D01*
X141222200Y-111826615D01*
X141252091Y-111976884D01*
X141310723Y-112118434D01*
X141372200Y-112210440D01*
X141372200Y-112952457D01*
X137929286Y-116395372D01*
X137743750Y-116395372D01*
X137627012Y-116406870D01*
X137514761Y-116440921D01*
X137411309Y-116496217D01*
X137320633Y-116570633D01*
X137301535Y-116593904D01*
X137183589Y-116629683D01*
X137074526Y-116687978D01*
X136978931Y-116766431D01*
X136959274Y-116790383D01*
X136652878Y-117096780D01*
X136628921Y-117116441D01*
X136550468Y-117212037D01*
X136492173Y-117321100D01*
X136456274Y-117439441D01*
X136447190Y-117531675D01*
X136447190Y-117531684D01*
X136444154Y-117562510D01*
X136447190Y-117593336D01*
X136447191Y-121244154D01*
X136444154Y-121274990D01*
X136450307Y-121337465D01*
X136127800Y-121014958D01*
X136127800Y-120280833D01*
X136130837Y-120250000D01*
X136127096Y-120212015D01*
X136118716Y-120126930D01*
X136082817Y-120008589D01*
X136048173Y-119943774D01*
X136024522Y-119899525D01*
X135965726Y-119827883D01*
X135946069Y-119803931D01*
X135922118Y-119784275D01*
X135127800Y-118989958D01*
X135127800Y-118936755D01*
X135131574Y-118939277D01*
X135273124Y-118997909D01*
X135423393Y-119027800D01*
X135576607Y-119027800D01*
X135726876Y-118997909D01*
X135868426Y-118939277D01*
X135995818Y-118854156D01*
X136104156Y-118745818D01*
X136189277Y-118618426D01*
X136247909Y-118476876D01*
X136277800Y-118326607D01*
X136277800Y-118173393D01*
X136247909Y-118023124D01*
X136189277Y-117881574D01*
X136104156Y-117754182D01*
X135995818Y-117645844D01*
X135868426Y-117560723D01*
X135726876Y-117502091D01*
X135576607Y-117472200D01*
X135423393Y-117472200D01*
X135273124Y-117502091D01*
X135131574Y-117560723D01*
X135015367Y-117638370D01*
X134946069Y-117553931D01*
X134922118Y-117534275D01*
X131269498Y-113881656D01*
X131247909Y-113773124D01*
X131189277Y-113631574D01*
X131104156Y-113504182D01*
X130995818Y-113395844D01*
X130868426Y-113310723D01*
X130726876Y-113252091D01*
X130576607Y-113222200D01*
X130423393Y-113222200D01*
X130273124Y-113252091D01*
X130131574Y-113310723D01*
X130004182Y-113395844D01*
X129895844Y-113504182D01*
X129810723Y-113631574D01*
X129752091Y-113773124D01*
X129722200Y-113923393D01*
X129722200Y-114076607D01*
X129752091Y-114226876D01*
X129810723Y-114368426D01*
X129895844Y-114495818D01*
X130004182Y-114604156D01*
X130131574Y-114689277D01*
X130273124Y-114747909D01*
X130381656Y-114769498D01*
X133872200Y-118260043D01*
X133872201Y-119219164D01*
X133869164Y-119250000D01*
X133881285Y-119373070D01*
X133917183Y-119491410D01*
X133952955Y-119558334D01*
X133975479Y-119600474D01*
X134053932Y-119696069D01*
X134077883Y-119715726D01*
X134872200Y-120510043D01*
X134872201Y-121244164D01*
X134869164Y-121275000D01*
X134881285Y-121398070D01*
X134917183Y-121516410D01*
X134975479Y-121625474D01*
X135034275Y-121697117D01*
X136995372Y-123658216D01*
X136995372Y-123843750D01*
X137006870Y-123960488D01*
X137040921Y-124072739D01*
X137096217Y-124176191D01*
X137170633Y-124266867D01*
X137261309Y-124341283D01*
X137364761Y-124396579D01*
X137477012Y-124430630D01*
X137593750Y-124442128D01*
X137779284Y-124442128D01*
X137889494Y-124552338D01*
X137889505Y-124552347D01*
X138284284Y-124947127D01*
X138303941Y-124971079D01*
X138399536Y-125049532D01*
X138508599Y-125107827D01*
X138626940Y-125143726D01*
X138719174Y-125152810D01*
X138719183Y-125152810D01*
X138750009Y-125155846D01*
X138780835Y-125152810D01*
X140931664Y-125152810D01*
X140962490Y-125155846D01*
X140993316Y-125152810D01*
X140993326Y-125152810D01*
X141085560Y-125143726D01*
X141203901Y-125107827D01*
X141312964Y-125049532D01*
X141408559Y-124971079D01*
X141428220Y-124947122D01*
X141920715Y-124454628D01*
X142106250Y-124454628D01*
X142165977Y-124448745D01*
X142150723Y-124471574D01*
X142092091Y-124613124D01*
X142062200Y-124763393D01*
X142062200Y-124916607D01*
X142092091Y-125066876D01*
X142150723Y-125208426D01*
X142235844Y-125335818D01*
X142344182Y-125444156D01*
X142471574Y-125529277D01*
X142514844Y-125547200D01*
X100272146Y-125547200D01*
X99852783Y-125506081D01*
X99470699Y-125390723D01*
X99118298Y-125203347D01*
X98809002Y-124951092D01*
X98554595Y-124643566D01*
X98364763Y-124292479D01*
X98246741Y-123911213D01*
X98202812Y-123493256D01*
X98237687Y-103683997D01*
X144622200Y-103683997D01*
X144622200Y-103916003D01*
X144667462Y-104143552D01*
X144756247Y-104357898D01*
X144885143Y-104550804D01*
X145049196Y-104714857D01*
X145242102Y-104843753D01*
X145456448Y-104932538D01*
X145683997Y-104977800D01*
X145916003Y-104977800D01*
X146143552Y-104932538D01*
X146357898Y-104843753D01*
X146550804Y-104714857D01*
X146714857Y-104550804D01*
X146843753Y-104357898D01*
X146932538Y-104143552D01*
X146977800Y-103916003D01*
X146977800Y-103683997D01*
X156422200Y-103683997D01*
X156422200Y-103916003D01*
X156467462Y-104143552D01*
X156556247Y-104357898D01*
X156685143Y-104550804D01*
X156849196Y-104714857D01*
X157042102Y-104843753D01*
X157256448Y-104932538D01*
X157483997Y-104977800D01*
X157716003Y-104977800D01*
X157943552Y-104932538D01*
X158157898Y-104843753D01*
X158350804Y-104714857D01*
X158514857Y-104550804D01*
X158643753Y-104357898D01*
X158732538Y-104143552D01*
X158777800Y-103916003D01*
X158777800Y-103683997D01*
X158732538Y-103456448D01*
X158643753Y-103242102D01*
X158514857Y-103049196D01*
X158350804Y-102885143D01*
X158157898Y-102756247D01*
X157943552Y-102667462D01*
X157716003Y-102622200D01*
X157483997Y-102622200D01*
X157256448Y-102667462D01*
X157042102Y-102756247D01*
X156849196Y-102885143D01*
X156685143Y-103049196D01*
X156556247Y-103242102D01*
X156467462Y-103456448D01*
X156422200Y-103683997D01*
X146977800Y-103683997D01*
X146932538Y-103456448D01*
X146843753Y-103242102D01*
X146714857Y-103049196D01*
X146550804Y-102885143D01*
X146357898Y-102756247D01*
X146143552Y-102667462D01*
X145916003Y-102622200D01*
X145683997Y-102622200D01*
X145456448Y-102667462D01*
X145242102Y-102756247D01*
X145049196Y-102885143D01*
X144885143Y-103049196D01*
X144756247Y-103242102D01*
X144667462Y-103456448D01*
X144622200Y-103683997D01*
X98237687Y-103683997D01*
X98245920Y-99008070D01*
X99582200Y-99008070D01*
X99582200Y-99771930D01*
X99731222Y-100521113D01*
X100023538Y-101226827D01*
X100447916Y-101861953D01*
X100988047Y-102402084D01*
X101623173Y-102826462D01*
X102328887Y-103118778D01*
X103078070Y-103267800D01*
X103841930Y-103267800D01*
X104591113Y-103118778D01*
X105296827Y-102826462D01*
X105931953Y-102402084D01*
X106472084Y-101861953D01*
X106896462Y-101226827D01*
X107188778Y-100521113D01*
X107337800Y-99771930D01*
X107337800Y-99008070D01*
X107197103Y-98300740D01*
X108247544Y-97250300D01*
X132359088Y-97250300D01*
X132370633Y-97264367D01*
X132461309Y-97338783D01*
X132564761Y-97394079D01*
X132677012Y-97428130D01*
X132793750Y-97439628D01*
X133306250Y-97439628D01*
X133422988Y-97428130D01*
X133535239Y-97394079D01*
X133638691Y-97338783D01*
X133729367Y-97264367D01*
X133803783Y-97173691D01*
X133859079Y-97070239D01*
X133893130Y-96957988D01*
X133904628Y-96841250D01*
X133904628Y-96478938D01*
X134380767Y-96002800D01*
X134392363Y-96002800D01*
X134370633Y-96020633D01*
X134296217Y-96111309D01*
X134240921Y-96214761D01*
X134206870Y-96327012D01*
X134195372Y-96443750D01*
X134195372Y-96881250D01*
X134206870Y-96997988D01*
X134240921Y-97110239D01*
X134296217Y-97213691D01*
X134370633Y-97304367D01*
X134461309Y-97378783D01*
X134564761Y-97434079D01*
X134677012Y-97468130D01*
X134793750Y-97479628D01*
X135306250Y-97479628D01*
X135422988Y-97468130D01*
X135535239Y-97434079D01*
X135535418Y-97433984D01*
X136195372Y-98093938D01*
X136195372Y-98456250D01*
X136206870Y-98572988D01*
X136240921Y-98685239D01*
X136296217Y-98788691D01*
X136370633Y-98879367D01*
X136461309Y-98953783D01*
X136564761Y-99009079D01*
X136677012Y-99043130D01*
X136793750Y-99054628D01*
X137156062Y-99054628D01*
X140189506Y-102088073D01*
X140205247Y-102107253D01*
X140281808Y-102170085D01*
X140369156Y-102216774D01*
X140463934Y-102245524D01*
X140537808Y-102252800D01*
X140537815Y-102252800D01*
X140562499Y-102255231D01*
X140587184Y-102252800D01*
X146133425Y-102252800D01*
X146156247Y-102307898D01*
X146285143Y-102500804D01*
X146449196Y-102664857D01*
X146642102Y-102793753D01*
X146856448Y-102882538D01*
X147083997Y-102927800D01*
X147316003Y-102927800D01*
X147543552Y-102882538D01*
X147757898Y-102793753D01*
X147950804Y-102664857D01*
X148114857Y-102500804D01*
X148243753Y-102307898D01*
X148332538Y-102093552D01*
X148377800Y-101866003D01*
X148377800Y-101633997D01*
X148332538Y-101406448D01*
X148243753Y-101192102D01*
X148114857Y-100999196D01*
X147950804Y-100835143D01*
X147757898Y-100706247D01*
X147543552Y-100617462D01*
X147316003Y-100572200D01*
X147083997Y-100572200D01*
X146856448Y-100617462D01*
X146642102Y-100706247D01*
X146449196Y-100835143D01*
X146285143Y-100999196D01*
X146156247Y-101192102D01*
X146133425Y-101247200D01*
X140770767Y-101247200D01*
X137904628Y-98381062D01*
X137904628Y-98074533D01*
X137937809Y-98077801D01*
X137937818Y-98077801D01*
X137962500Y-98080232D01*
X137987182Y-98077801D01*
X148816735Y-98077801D01*
X152061927Y-101322994D01*
X152061933Y-101322999D01*
X152090284Y-101351350D01*
X152067462Y-101406448D01*
X152022200Y-101633997D01*
X152022200Y-101866003D01*
X152067462Y-102093552D01*
X152156247Y-102307898D01*
X152199213Y-102372201D01*
X151533268Y-102372201D01*
X151309716Y-102148649D01*
X151332538Y-102093552D01*
X151377800Y-101866003D01*
X151377800Y-101633997D01*
X151332538Y-101406448D01*
X151243753Y-101192102D01*
X151114857Y-100999196D01*
X150950804Y-100835143D01*
X150757898Y-100706247D01*
X150543552Y-100617462D01*
X150316003Y-100572200D01*
X150083997Y-100572200D01*
X149856448Y-100617462D01*
X149642102Y-100706247D01*
X149449196Y-100835143D01*
X149285143Y-100999196D01*
X149156247Y-101192102D01*
X149067462Y-101406448D01*
X149022200Y-101633997D01*
X149022200Y-101866003D01*
X149067462Y-102093552D01*
X149156247Y-102307898D01*
X149285143Y-102500804D01*
X149449196Y-102664857D01*
X149642102Y-102793753D01*
X149856448Y-102882538D01*
X150083997Y-102927800D01*
X150316003Y-102927800D01*
X150543552Y-102882538D01*
X150598649Y-102859716D01*
X150952009Y-103213076D01*
X150967748Y-103232254D01*
X150986926Y-103247993D01*
X150986927Y-103247994D01*
X151044309Y-103295086D01*
X151131657Y-103341775D01*
X151226435Y-103370525D01*
X151325001Y-103380233D01*
X151349693Y-103377801D01*
X153850307Y-103377801D01*
X153874999Y-103380233D01*
X153899691Y-103377801D01*
X153973565Y-103370525D01*
X154068343Y-103341775D01*
X154155691Y-103295086D01*
X154232252Y-103232254D01*
X154247995Y-103213071D01*
X155155345Y-102305721D01*
X155156247Y-102307898D01*
X155285143Y-102500804D01*
X155449196Y-102664857D01*
X155642102Y-102793753D01*
X155856448Y-102882538D01*
X156083997Y-102927800D01*
X156316003Y-102927800D01*
X156543552Y-102882538D01*
X156757898Y-102793753D01*
X156950804Y-102664857D01*
X157114857Y-102500804D01*
X157243753Y-102307898D01*
X157332538Y-102093552D01*
X157377800Y-101866003D01*
X157377800Y-101633997D01*
X157332538Y-101406448D01*
X157243753Y-101192102D01*
X157114857Y-100999196D01*
X156950804Y-100835143D01*
X156757898Y-100706247D01*
X156543552Y-100617462D01*
X156316003Y-100572200D01*
X156083997Y-100572200D01*
X155856448Y-100617462D01*
X155642102Y-100706247D01*
X155577799Y-100749213D01*
X155577799Y-97783267D01*
X155801350Y-97559716D01*
X155856448Y-97582538D01*
X156083997Y-97627800D01*
X156316003Y-97627800D01*
X156543552Y-97582538D01*
X156757898Y-97493753D01*
X156950804Y-97364857D01*
X157114857Y-97200804D01*
X157243753Y-97007898D01*
X157332538Y-96793552D01*
X157377800Y-96566003D01*
X157377800Y-96333997D01*
X157332538Y-96106448D01*
X157243753Y-95892102D01*
X157114857Y-95699196D01*
X156950804Y-95535143D01*
X156757898Y-95406247D01*
X156543552Y-95317462D01*
X156316003Y-95272200D01*
X156083997Y-95272200D01*
X155856448Y-95317462D01*
X155642102Y-95406247D01*
X155449196Y-95535143D01*
X155285143Y-95699196D01*
X155156247Y-95892102D01*
X155067462Y-96106448D01*
X155022200Y-96333997D01*
X155022200Y-96566003D01*
X155067462Y-96793552D01*
X155090284Y-96848650D01*
X154736926Y-97202008D01*
X154717747Y-97217748D01*
X154702008Y-97236926D01*
X154702006Y-97236928D01*
X154654914Y-97294310D01*
X154608226Y-97381657D01*
X154579475Y-97476436D01*
X154569767Y-97575001D01*
X154572200Y-97599703D01*
X154572199Y-101466735D01*
X154377800Y-101661134D01*
X154377800Y-101633997D01*
X154332538Y-101406448D01*
X154243753Y-101192102D01*
X154114857Y-100999196D01*
X153950804Y-100835143D01*
X153757898Y-100706247D01*
X153543552Y-100617462D01*
X153316003Y-100572200D01*
X153083997Y-100572200D01*
X152856448Y-100617462D01*
X152801350Y-100640284D01*
X152772999Y-100611933D01*
X152772994Y-100611927D01*
X149663811Y-97502745D01*
X149856448Y-97582538D01*
X150083997Y-97627800D01*
X150316003Y-97627800D01*
X150543552Y-97582538D01*
X150757898Y-97493753D01*
X150950804Y-97364857D01*
X151114857Y-97200804D01*
X151243753Y-97007898D01*
X151332538Y-96793552D01*
X151377800Y-96566003D01*
X151377800Y-96333997D01*
X152022200Y-96333997D01*
X152022200Y-96566003D01*
X152067462Y-96793552D01*
X152156247Y-97007898D01*
X152285143Y-97200804D01*
X152449196Y-97364857D01*
X152642102Y-97493753D01*
X152856448Y-97582538D01*
X153083997Y-97627800D01*
X153316003Y-97627800D01*
X153543552Y-97582538D01*
X153757898Y-97493753D01*
X153950804Y-97364857D01*
X154114857Y-97200804D01*
X154243753Y-97007898D01*
X154332538Y-96793552D01*
X154377800Y-96566003D01*
X154377800Y-96333997D01*
X154332538Y-96106448D01*
X154243753Y-95892102D01*
X154114857Y-95699196D01*
X153950804Y-95535143D01*
X153757898Y-95406247D01*
X153543552Y-95317462D01*
X153316003Y-95272200D01*
X153083997Y-95272200D01*
X152856448Y-95317462D01*
X152642102Y-95406247D01*
X152449196Y-95535143D01*
X152285143Y-95699196D01*
X152156247Y-95892102D01*
X152067462Y-96106448D01*
X152022200Y-96333997D01*
X151377800Y-96333997D01*
X151332538Y-96106448D01*
X151243753Y-95892102D01*
X151114857Y-95699196D01*
X150950804Y-95535143D01*
X150757898Y-95406247D01*
X150543552Y-95317462D01*
X150316003Y-95272200D01*
X150083997Y-95272200D01*
X149856448Y-95317462D01*
X149642102Y-95406247D01*
X149449196Y-95535143D01*
X149285143Y-95699196D01*
X149156247Y-95892102D01*
X149067462Y-96106448D01*
X149022200Y-96333997D01*
X149022200Y-96566003D01*
X149067462Y-96793552D01*
X149156247Y-97007898D01*
X149226029Y-97112334D01*
X149218345Y-97108227D01*
X149123567Y-97079477D01*
X149049693Y-97072201D01*
X149025001Y-97069769D01*
X149000309Y-97072201D01*
X148200787Y-97072201D01*
X148243753Y-97007898D01*
X148332538Y-96793552D01*
X148377800Y-96566003D01*
X148377800Y-96333997D01*
X148332538Y-96106448D01*
X148243753Y-95892102D01*
X148114857Y-95699196D01*
X147950804Y-95535143D01*
X147757898Y-95406247D01*
X147543552Y-95317462D01*
X147316003Y-95272200D01*
X147083997Y-95272200D01*
X146856448Y-95317462D01*
X146642102Y-95406247D01*
X146449196Y-95535143D01*
X146285143Y-95699196D01*
X146156247Y-95892102D01*
X146067462Y-96106448D01*
X146022200Y-96333997D01*
X146022200Y-96566003D01*
X146067462Y-96793552D01*
X146156247Y-97007898D01*
X146199213Y-97072201D01*
X138170767Y-97072201D01*
X137904628Y-96806062D01*
X137904628Y-96443750D01*
X137893130Y-96327012D01*
X137859079Y-96214761D01*
X137803783Y-96111309D01*
X137729367Y-96020633D01*
X137707637Y-96002800D01*
X141222200Y-96002800D01*
X141222200Y-96076607D01*
X141252091Y-96226876D01*
X141310723Y-96368426D01*
X141395844Y-96495818D01*
X141504182Y-96604156D01*
X141631574Y-96689277D01*
X141773124Y-96747909D01*
X141923393Y-96777800D01*
X142076607Y-96777800D01*
X142226876Y-96747909D01*
X142368426Y-96689277D01*
X142495818Y-96604156D01*
X142604156Y-96495818D01*
X142689277Y-96368426D01*
X142747909Y-96226876D01*
X142777800Y-96076607D01*
X142777800Y-95923393D01*
X142747909Y-95773124D01*
X142689277Y-95631574D01*
X142604156Y-95504182D01*
X142495818Y-95395844D01*
X142368426Y-95310723D01*
X142226876Y-95252091D01*
X142076607Y-95222200D01*
X141933266Y-95222200D01*
X141872996Y-95161930D01*
X141857253Y-95142747D01*
X141780692Y-95079915D01*
X141693344Y-95033226D01*
X141598566Y-95004476D01*
X141524692Y-94997200D01*
X141500000Y-94994768D01*
X141475308Y-94997200D01*
X134197192Y-94997200D01*
X134172500Y-94994768D01*
X134073934Y-95004476D01*
X133979155Y-95033226D01*
X133891808Y-95079915D01*
X133815247Y-95142747D01*
X133799508Y-95161925D01*
X133156062Y-95805372D01*
X132793750Y-95805372D01*
X132677012Y-95816870D01*
X132564761Y-95850921D01*
X132461309Y-95906217D01*
X132370633Y-95980633D01*
X132359088Y-95994700D01*
X108018333Y-95994700D01*
X107987500Y-95991663D01*
X107956666Y-95994700D01*
X107956664Y-95994700D01*
X107864430Y-96003784D01*
X107746089Y-96039683D01*
X107637025Y-96097978D01*
X107565382Y-96156774D01*
X107565377Y-96156779D01*
X107541431Y-96176431D01*
X107521779Y-96200377D01*
X106605075Y-97117082D01*
X106472084Y-96918047D01*
X105931953Y-96377916D01*
X105296827Y-95953538D01*
X104591113Y-95661222D01*
X103841930Y-95512200D01*
X103078070Y-95512200D01*
X102328887Y-95661222D01*
X101623173Y-95953538D01*
X100988047Y-96377916D01*
X100447916Y-96918047D01*
X100023538Y-97553173D01*
X99731222Y-98258887D01*
X99582200Y-99008070D01*
X98245920Y-99008070D01*
X98252761Y-95122548D01*
X98293919Y-94702784D01*
X98409276Y-94320703D01*
X98428792Y-94283997D01*
X144622200Y-94283997D01*
X144622200Y-94516003D01*
X144667462Y-94743552D01*
X144756247Y-94957898D01*
X144885143Y-95150804D01*
X145049196Y-95314857D01*
X145242102Y-95443753D01*
X145456448Y-95532538D01*
X145683997Y-95577800D01*
X145916003Y-95577800D01*
X146143552Y-95532538D01*
X146357898Y-95443753D01*
X146550804Y-95314857D01*
X146714857Y-95150804D01*
X146843753Y-94957898D01*
X146932538Y-94743552D01*
X146977800Y-94516003D01*
X146977800Y-94283997D01*
X156422200Y-94283997D01*
X156422200Y-94516003D01*
X156467462Y-94743552D01*
X156556247Y-94957898D01*
X156685143Y-95150804D01*
X156849196Y-95314857D01*
X157042102Y-95443753D01*
X157256448Y-95532538D01*
X157483997Y-95577800D01*
X157716003Y-95577800D01*
X157943552Y-95532538D01*
X158157898Y-95443753D01*
X158350804Y-95314857D01*
X158514857Y-95150804D01*
X158643753Y-94957898D01*
X158732538Y-94743552D01*
X158777800Y-94516003D01*
X158777800Y-94283997D01*
X158732538Y-94056448D01*
X158643753Y-93842102D01*
X158514857Y-93649196D01*
X158350804Y-93485143D01*
X158157898Y-93356247D01*
X157943552Y-93267462D01*
X157716003Y-93222200D01*
X157483997Y-93222200D01*
X157256448Y-93267462D01*
X157042102Y-93356247D01*
X156849196Y-93485143D01*
X156685143Y-93649196D01*
X156556247Y-93842102D01*
X156467462Y-94056448D01*
X156422200Y-94283997D01*
X146977800Y-94283997D01*
X146932538Y-94056448D01*
X146843753Y-93842102D01*
X146714857Y-93649196D01*
X146550804Y-93485143D01*
X146357898Y-93356247D01*
X146143552Y-93267462D01*
X145916003Y-93222200D01*
X145683997Y-93222200D01*
X145456448Y-93267462D01*
X145242102Y-93356247D01*
X145049196Y-93485143D01*
X144885143Y-93649196D01*
X144756247Y-93842102D01*
X144667462Y-94056448D01*
X144622200Y-94283997D01*
X98428792Y-94283997D01*
X98596652Y-93968299D01*
X98848906Y-93659004D01*
X99156433Y-93404595D01*
X99507522Y-93214762D01*
X99888787Y-93096741D01*
X100306854Y-93052800D01*
X171277855Y-93052800D01*
X171697216Y-93093919D01*
X171697216Y-93093919D01*
G37*
X171697216Y-93093919D02*
X172079297Y-93209276D01*
X172431701Y-93396652D01*
X172740996Y-93648906D01*
X172995405Y-93956433D01*
X173185238Y-94307522D01*
X173303259Y-94688787D01*
X173347200Y-95106854D01*
X173347201Y-123477844D01*
X173306081Y-123897217D01*
X173190723Y-124279301D01*
X173003347Y-124631702D01*
X172751092Y-124940998D01*
X172443566Y-125195405D01*
X172092479Y-125385237D01*
X171711213Y-125503259D01*
X171293138Y-125547200D01*
X143165156Y-125547200D01*
X143208426Y-125529277D01*
X143335818Y-125444156D01*
X143444156Y-125335818D01*
X143529277Y-125208426D01*
X143587909Y-125066876D01*
X143617800Y-124916607D01*
X143617800Y-124763393D01*
X143616829Y-124758513D01*
X143920715Y-124454628D01*
X144106250Y-124454628D01*
X144222988Y-124443130D01*
X144335239Y-124409079D01*
X144438691Y-124353783D01*
X144529367Y-124279367D01*
X144603783Y-124188691D01*
X144659079Y-124085239D01*
X144693130Y-123972988D01*
X144704628Y-123856250D01*
X144704628Y-123418750D01*
X144693130Y-123302012D01*
X144659079Y-123189761D01*
X144603783Y-123086309D01*
X144529367Y-122995633D01*
X144438691Y-122921217D01*
X144335239Y-122865921D01*
X144222988Y-122831870D01*
X144106250Y-122820372D01*
X143593750Y-122820372D01*
X143477012Y-122831870D01*
X143386518Y-122859321D01*
X143393726Y-122835560D01*
X143402810Y-122743326D01*
X143402810Y-122743324D01*
X143405847Y-122712490D01*
X143402810Y-122681657D01*
X143402810Y-121597563D01*
X143405846Y-121566737D01*
X143402810Y-121535911D01*
X143402810Y-121535902D01*
X143393726Y-121443668D01*
X143357827Y-121325327D01*
X143331864Y-121276754D01*
X143476876Y-121247909D01*
X143618426Y-121189277D01*
X143745818Y-121104156D01*
X143854156Y-120995818D01*
X143939277Y-120868426D01*
X143997909Y-120726876D01*
X144027800Y-120576607D01*
X144027800Y-120423393D01*
X143997909Y-120273124D01*
X143939277Y-120131574D01*
X143877800Y-120039568D01*
X143877800Y-119768456D01*
X143897334Y-119704062D01*
X143904628Y-119630000D01*
X143904628Y-118570000D01*
X143898502Y-118507801D01*
X144508438Y-118507801D01*
X144502091Y-118523124D01*
X144472200Y-118673393D01*
X144472200Y-118826607D01*
X144502091Y-118976876D01*
X144560723Y-119118426D01*
X144645844Y-119245818D01*
X144754182Y-119354156D01*
X144881574Y-119439277D01*
X145023124Y-119497909D01*
X145131655Y-119519498D01*
X145397200Y-119785042D01*
X145397199Y-120502175D01*
X145394163Y-120533001D01*
X145397199Y-120563827D01*
X145397199Y-120563836D01*
X145406283Y-120656070D01*
X145442182Y-120774411D01*
X145500477Y-120883474D01*
X145578930Y-120979070D01*
X145602887Y-120998731D01*
X145849527Y-121245372D01*
X145593750Y-121245372D01*
X145477012Y-121256870D01*
X145364761Y-121290921D01*
X145261309Y-121346217D01*
X145170633Y-121420633D01*
X145096217Y-121511309D01*
X145040921Y-121614761D01*
X145006870Y-121727012D01*
X144995372Y-121843750D01*
X144995372Y-122281250D01*
X145006870Y-122397988D01*
X145040921Y-122510239D01*
X145096217Y-122613691D01*
X145170633Y-122704367D01*
X145261309Y-122778783D01*
X145364761Y-122834079D01*
X145417245Y-122850000D01*
X145364761Y-122865921D01*
X145261309Y-122921217D01*
X145170633Y-122995633D01*
X145096217Y-123086309D01*
X145040921Y-123189761D01*
X145006870Y-123302012D01*
X144995372Y-123418750D01*
X144995372Y-123856250D01*
X145006870Y-123972988D01*
X145040921Y-124085239D01*
X145096217Y-124188691D01*
X145170633Y-124279367D01*
X145261309Y-124353783D01*
X145364761Y-124409079D01*
X145477012Y-124443130D01*
X145593750Y-124454628D01*
X146106250Y-124454628D01*
X146222988Y-124443130D01*
X146335239Y-124409079D01*
X146438691Y-124353783D01*
X146529367Y-124279367D01*
X146603783Y-124188691D01*
X146659079Y-124085239D01*
X146693130Y-123972988D01*
X146704628Y-123856250D01*
X146704628Y-123670715D01*
X146999609Y-123375735D01*
X146995372Y-123418750D01*
X146995372Y-123856250D01*
X147006870Y-123972988D01*
X147040921Y-124085239D01*
X147096217Y-124188691D01*
X147170633Y-124279367D01*
X147261309Y-124353783D01*
X147364761Y-124409079D01*
X147477012Y-124443130D01*
X147593750Y-124454628D01*
X148106250Y-124454628D01*
X148222988Y-124443130D01*
X148335239Y-124409079D01*
X148438691Y-124353783D01*
X148529367Y-124279367D01*
X148603783Y-124188691D01*
X148659079Y-124085239D01*
X148693130Y-123972988D01*
X148704628Y-123856250D01*
X148704628Y-123670715D01*
X148998243Y-123377100D01*
X148995372Y-123406250D01*
X148995372Y-123843750D01*
X149006870Y-123960488D01*
X149040921Y-124072739D01*
X149096217Y-124176191D01*
X149170633Y-124266867D01*
X149261309Y-124341283D01*
X149364761Y-124396579D01*
X149477012Y-124430630D01*
X149593750Y-124442128D01*
X149779286Y-124442128D01*
X149999128Y-124661971D01*
X150002091Y-124676866D01*
X150060723Y-124818416D01*
X150145844Y-124945808D01*
X150254182Y-125054146D01*
X150381574Y-125139267D01*
X150523124Y-125197899D01*
X150673393Y-125227790D01*
X150826607Y-125227790D01*
X150976876Y-125197899D01*
X151118426Y-125139267D01*
X151245818Y-125054146D01*
X151354156Y-124945808D01*
X151439277Y-124818416D01*
X151497909Y-124676866D01*
X151527800Y-124526597D01*
X151527800Y-124373383D01*
X151497909Y-124223114D01*
X151439277Y-124081564D01*
X151354156Y-123954172D01*
X151245818Y-123845834D01*
X151118426Y-123760713D01*
X150976876Y-123702081D01*
X150826607Y-123672190D01*
X150785033Y-123672190D01*
X150704628Y-123591786D01*
X150704628Y-123406250D01*
X150693130Y-123289512D01*
X150659079Y-123177261D01*
X150603783Y-123073809D01*
X150529367Y-122983133D01*
X150438691Y-122908717D01*
X150335239Y-122853421D01*
X150282755Y-122837500D01*
X150335239Y-122821579D01*
X150438691Y-122766283D01*
X150529367Y-122691867D01*
X150540912Y-122677800D01*
X151148830Y-122677800D01*
X151170633Y-122704367D01*
X151261309Y-122778783D01*
X151364761Y-122834079D01*
X151477012Y-122868130D01*
X151593750Y-122879628D01*
X152106250Y-122879628D01*
X152222988Y-122868130D01*
X152335239Y-122834079D01*
X152438691Y-122778783D01*
X152529367Y-122704367D01*
X152603783Y-122613691D01*
X152659079Y-122510239D01*
X152693130Y-122397988D01*
X152704628Y-122281250D01*
X152704628Y-121843750D01*
X152700391Y-121800733D01*
X152995372Y-122095715D01*
X152995372Y-122281250D01*
X153006870Y-122397988D01*
X153040921Y-122510239D01*
X153096217Y-122613691D01*
X153170633Y-122704367D01*
X153261309Y-122778783D01*
X153364761Y-122834079D01*
X153417245Y-122850000D01*
X153364761Y-122865921D01*
X153261309Y-122921217D01*
X153170633Y-122995633D01*
X153096217Y-123086309D01*
X153040921Y-123189761D01*
X153006870Y-123302012D01*
X152995372Y-123418750D01*
X152995372Y-123856250D01*
X153006870Y-123972988D01*
X153040921Y-124085239D01*
X153096217Y-124188691D01*
X153170633Y-124279367D01*
X153261309Y-124353783D01*
X153364761Y-124409079D01*
X153477012Y-124443130D01*
X153593750Y-124454628D01*
X154106250Y-124454628D01*
X154222988Y-124443130D01*
X154335239Y-124409079D01*
X154438691Y-124353783D01*
X154529367Y-124279367D01*
X154540912Y-124265300D01*
X155159088Y-124265300D01*
X155170633Y-124279367D01*
X155261309Y-124353783D01*
X155364761Y-124409079D01*
X155477012Y-124443130D01*
X155593750Y-124454628D01*
X155779285Y-124454628D01*
X156596781Y-125272124D01*
X156616433Y-125296071D01*
X156640379Y-125315723D01*
X156640384Y-125315728D01*
X156712027Y-125374524D01*
X156771576Y-125406353D01*
X156821091Y-125432819D01*
X156939432Y-125468718D01*
X157031666Y-125477802D01*
X157031676Y-125477802D01*
X157062502Y-125480838D01*
X157093328Y-125477802D01*
X159127176Y-125477802D01*
X159158002Y-125480838D01*
X159188828Y-125477802D01*
X159188838Y-125477802D01*
X159281072Y-125468718D01*
X159399413Y-125432819D01*
X159508476Y-125374524D01*
X159604071Y-125296071D01*
X159623732Y-125272114D01*
X160022120Y-124873727D01*
X160046071Y-124854071D01*
X160124524Y-124758476D01*
X160182819Y-124649413D01*
X160218718Y-124531072D01*
X160227802Y-124438838D01*
X160227802Y-124438829D01*
X160230838Y-124408003D01*
X160227802Y-124377177D01*
X160227802Y-123372823D01*
X160230838Y-123341997D01*
X160227802Y-123311171D01*
X160227802Y-123311162D01*
X160218718Y-123218928D01*
X160182819Y-123100587D01*
X160127800Y-122997653D01*
X160127800Y-111530826D01*
X160130836Y-111500000D01*
X160127800Y-111469174D01*
X160127800Y-110719164D01*
X160118716Y-110626930D01*
X160082817Y-110508589D01*
X160024522Y-110399526D01*
X159946069Y-110303931D01*
X159850474Y-110225478D01*
X159741411Y-110167183D01*
X159623070Y-110131284D01*
X159500000Y-110119163D01*
X159376931Y-110131284D01*
X159258590Y-110167183D01*
X159149527Y-110225478D01*
X159129641Y-110241798D01*
X157927347Y-109039505D01*
X157927338Y-109039494D01*
X157854628Y-108966784D01*
X157854628Y-108781250D01*
X157843130Y-108664512D01*
X157809079Y-108552261D01*
X157753783Y-108448809D01*
X157679367Y-108358133D01*
X157588691Y-108283717D01*
X157485239Y-108228421D01*
X157432755Y-108212500D01*
X157485239Y-108196579D01*
X157588691Y-108141283D01*
X157650814Y-108090300D01*
X158309088Y-108090300D01*
X158320633Y-108104367D01*
X158411309Y-108178783D01*
X158514761Y-108234079D01*
X158627012Y-108268130D01*
X158743750Y-108279628D01*
X158929286Y-108279628D01*
X166285284Y-115635627D01*
X165758047Y-115987916D01*
X165217916Y-116528047D01*
X164793538Y-117163173D01*
X164501222Y-117868887D01*
X164352200Y-118618070D01*
X164352200Y-119381930D01*
X164501222Y-120131113D01*
X164793538Y-120836827D01*
X165217916Y-121471953D01*
X165758047Y-122012084D01*
X166393173Y-122436462D01*
X167098887Y-122728778D01*
X167848070Y-122877800D01*
X168611930Y-122877800D01*
X169361113Y-122728778D01*
X170066827Y-122436462D01*
X170701953Y-122012084D01*
X171242084Y-121471953D01*
X171666462Y-120836827D01*
X171958778Y-120131113D01*
X172107800Y-119381930D01*
X172107800Y-118618070D01*
X171958778Y-117868887D01*
X171666462Y-117163173D01*
X171242084Y-116528047D01*
X170701953Y-115987916D01*
X170066827Y-115563538D01*
X169361113Y-115271222D01*
X168611930Y-115122200D01*
X167848070Y-115122200D01*
X167597404Y-115172061D01*
X159854628Y-107429286D01*
X159854628Y-107243750D01*
X159843130Y-107127012D01*
X159809079Y-107014761D01*
X159753783Y-106911309D01*
X159679367Y-106820633D01*
X159627709Y-106778238D01*
X159618716Y-106686930D01*
X159582817Y-106568589D01*
X159524522Y-106459526D01*
X159446069Y-106363931D01*
X159350474Y-106285478D01*
X159241411Y-106227183D01*
X159123070Y-106191284D01*
X159000000Y-106179163D01*
X158876931Y-106191284D01*
X158758590Y-106227183D01*
X158649527Y-106285478D01*
X158553932Y-106363931D01*
X158475479Y-106459526D01*
X158417183Y-106568589D01*
X158381284Y-106686930D01*
X158372291Y-106778238D01*
X158320633Y-106820633D01*
X158309088Y-106834700D01*
X157721687Y-106834700D01*
X157679367Y-106783133D01*
X157588691Y-106708717D01*
X157485239Y-106653421D01*
X157372988Y-106619370D01*
X157256250Y-106607872D01*
X156743750Y-106607872D01*
X156627012Y-106619370D01*
X156514761Y-106653421D01*
X156411309Y-106708717D01*
X156320633Y-106783133D01*
X156246217Y-106873809D01*
X156190921Y-106977261D01*
X156156870Y-107089512D01*
X156145372Y-107206250D01*
X156145372Y-107643750D01*
X156156870Y-107760488D01*
X156190921Y-107872739D01*
X156246217Y-107976191D01*
X156320633Y-108066867D01*
X156411309Y-108141283D01*
X156514761Y-108196579D01*
X156567245Y-108212500D01*
X156514761Y-108228421D01*
X156411309Y-108283717D01*
X156320633Y-108358133D01*
X156246217Y-108448809D01*
X156190921Y-108552261D01*
X156156870Y-108664512D01*
X156145372Y-108781250D01*
X156145372Y-108966786D01*
X155989958Y-109122200D01*
X153218813Y-109122200D01*
X153245818Y-109104156D01*
X153354156Y-108995818D01*
X153439277Y-108868426D01*
X153497909Y-108726876D01*
X153527800Y-108576607D01*
X153527800Y-108423393D01*
X153497909Y-108273124D01*
X153439277Y-108131574D01*
X153354156Y-108004182D01*
X153245818Y-107895844D01*
X153118426Y-107810723D01*
X152976876Y-107752091D01*
X152826607Y-107722200D01*
X152673393Y-107722200D01*
X152523124Y-107752091D01*
X152381574Y-107810723D01*
X152254182Y-107895844D01*
X152145844Y-108004182D01*
X152133805Y-108022200D01*
X147290133Y-108022200D01*
X147275731Y-107974723D01*
X147240649Y-107909090D01*
X147193438Y-107851562D01*
X147135910Y-107804351D01*
X147070277Y-107769269D01*
X146999062Y-107747666D01*
X146925000Y-107740372D01*
X146275000Y-107740372D01*
X146200938Y-107747666D01*
X146129723Y-107769269D01*
X146125000Y-107771794D01*
X146120277Y-107769269D01*
X146049062Y-107747666D01*
X145975000Y-107740372D01*
X145325000Y-107740372D01*
X145250938Y-107747666D01*
X145179723Y-107769269D01*
X145175000Y-107771794D01*
X145170277Y-107769269D01*
X145099062Y-107747666D01*
X145025000Y-107740372D01*
X144375000Y-107740372D01*
X144300938Y-107747666D01*
X144229723Y-107769269D01*
X144164090Y-107804351D01*
X144106562Y-107851562D01*
X144059351Y-107909090D01*
X144024269Y-107974723D01*
X144002666Y-108045938D01*
X143995372Y-108120000D01*
X143995372Y-108671784D01*
X141577888Y-111089270D01*
X141553931Y-111108931D01*
X141547245Y-111117078D01*
X141504182Y-111145852D01*
X141395844Y-111254190D01*
X141310723Y-111381582D01*
X141252091Y-111523132D01*
X141222200Y-111673401D01*
X141222200Y-111826615D01*
X141252091Y-111976884D01*
X141310723Y-112118434D01*
X141372200Y-112210440D01*
X141372200Y-112952457D01*
X137929286Y-116395372D01*
X137743750Y-116395372D01*
X137627012Y-116406870D01*
X137514761Y-116440921D01*
X137411309Y-116496217D01*
X137320633Y-116570633D01*
X137301535Y-116593904D01*
X137183589Y-116629683D01*
X137074526Y-116687978D01*
X136978931Y-116766431D01*
X136959274Y-116790383D01*
X136652878Y-117096780D01*
X136628921Y-117116441D01*
X136550468Y-117212037D01*
X136492173Y-117321100D01*
X136456274Y-117439441D01*
X136447190Y-117531675D01*
X136447190Y-117531684D01*
X136444154Y-117562510D01*
X136447190Y-117593336D01*
X136447191Y-121244154D01*
X136444154Y-121274990D01*
X136450307Y-121337465D01*
X136127800Y-121014958D01*
X136127800Y-120280833D01*
X136130837Y-120250000D01*
X136127096Y-120212015D01*
X136118716Y-120126930D01*
X136082817Y-120008589D01*
X136048173Y-119943774D01*
X136024522Y-119899525D01*
X135965726Y-119827883D01*
X135946069Y-119803931D01*
X135922118Y-119784275D01*
X135127800Y-118989958D01*
X135127800Y-118936755D01*
X135131574Y-118939277D01*
X135273124Y-118997909D01*
X135423393Y-119027800D01*
X135576607Y-119027800D01*
X135726876Y-118997909D01*
X135868426Y-118939277D01*
X135995818Y-118854156D01*
X136104156Y-118745818D01*
X136189277Y-118618426D01*
X136247909Y-118476876D01*
X136277800Y-118326607D01*
X136277800Y-118173393D01*
X136247909Y-118023124D01*
X136189277Y-117881574D01*
X136104156Y-117754182D01*
X135995818Y-117645844D01*
X135868426Y-117560723D01*
X135726876Y-117502091D01*
X135576607Y-117472200D01*
X135423393Y-117472200D01*
X135273124Y-117502091D01*
X135131574Y-117560723D01*
X135015367Y-117638370D01*
X134946069Y-117553931D01*
X134922118Y-117534275D01*
X131269498Y-113881656D01*
X131247909Y-113773124D01*
X131189277Y-113631574D01*
X131104156Y-113504182D01*
X130995818Y-113395844D01*
X130868426Y-113310723D01*
X130726876Y-113252091D01*
X130576607Y-113222200D01*
X130423393Y-113222200D01*
X130273124Y-113252091D01*
X130131574Y-113310723D01*
X130004182Y-113395844D01*
X129895844Y-113504182D01*
X129810723Y-113631574D01*
X129752091Y-113773124D01*
X129722200Y-113923393D01*
X129722200Y-114076607D01*
X129752091Y-114226876D01*
X129810723Y-114368426D01*
X129895844Y-114495818D01*
X130004182Y-114604156D01*
X130131574Y-114689277D01*
X130273124Y-114747909D01*
X130381656Y-114769498D01*
X133872200Y-118260043D01*
X133872201Y-119219164D01*
X133869164Y-119250000D01*
X133881285Y-119373070D01*
X133917183Y-119491410D01*
X133952955Y-119558334D01*
X133975479Y-119600474D01*
X134053932Y-119696069D01*
X134077883Y-119715726D01*
X134872200Y-120510043D01*
X134872201Y-121244164D01*
X134869164Y-121275000D01*
X134881285Y-121398070D01*
X134917183Y-121516410D01*
X134975479Y-121625474D01*
X135034275Y-121697117D01*
X136995372Y-123658216D01*
X136995372Y-123843750D01*
X137006870Y-123960488D01*
X137040921Y-124072739D01*
X137096217Y-124176191D01*
X137170633Y-124266867D01*
X137261309Y-124341283D01*
X137364761Y-124396579D01*
X137477012Y-124430630D01*
X137593750Y-124442128D01*
X137779284Y-124442128D01*
X137889494Y-124552338D01*
X137889505Y-124552347D01*
X138284284Y-124947127D01*
X138303941Y-124971079D01*
X138399536Y-125049532D01*
X138508599Y-125107827D01*
X138626940Y-125143726D01*
X138719174Y-125152810D01*
X138719183Y-125152810D01*
X138750009Y-125155846D01*
X138780835Y-125152810D01*
X140931664Y-125152810D01*
X140962490Y-125155846D01*
X140993316Y-125152810D01*
X140993326Y-125152810D01*
X141085560Y-125143726D01*
X141203901Y-125107827D01*
X141312964Y-125049532D01*
X141408559Y-124971079D01*
X141428220Y-124947122D01*
X141920715Y-124454628D01*
X142106250Y-124454628D01*
X142165977Y-124448745D01*
X142150723Y-124471574D01*
X142092091Y-124613124D01*
X142062200Y-124763393D01*
X142062200Y-124916607D01*
X142092091Y-125066876D01*
X142150723Y-125208426D01*
X142235844Y-125335818D01*
X142344182Y-125444156D01*
X142471574Y-125529277D01*
X142514844Y-125547200D01*
X100272146Y-125547200D01*
X99852783Y-125506081D01*
X99470699Y-125390723D01*
X99118298Y-125203347D01*
X98809002Y-124951092D01*
X98554595Y-124643566D01*
X98364763Y-124292479D01*
X98246741Y-123911213D01*
X98202812Y-123493256D01*
X98237687Y-103683997D01*
X144622200Y-103683997D01*
X144622200Y-103916003D01*
X144667462Y-104143552D01*
X144756247Y-104357898D01*
X144885143Y-104550804D01*
X145049196Y-104714857D01*
X145242102Y-104843753D01*
X145456448Y-104932538D01*
X145683997Y-104977800D01*
X145916003Y-104977800D01*
X146143552Y-104932538D01*
X146357898Y-104843753D01*
X146550804Y-104714857D01*
X146714857Y-104550804D01*
X146843753Y-104357898D01*
X146932538Y-104143552D01*
X146977800Y-103916003D01*
X146977800Y-103683997D01*
X156422200Y-103683997D01*
X156422200Y-103916003D01*
X156467462Y-104143552D01*
X156556247Y-104357898D01*
X156685143Y-104550804D01*
X156849196Y-104714857D01*
X157042102Y-104843753D01*
X157256448Y-104932538D01*
X157483997Y-104977800D01*
X157716003Y-104977800D01*
X157943552Y-104932538D01*
X158157898Y-104843753D01*
X158350804Y-104714857D01*
X158514857Y-104550804D01*
X158643753Y-104357898D01*
X158732538Y-104143552D01*
X158777800Y-103916003D01*
X158777800Y-103683997D01*
X158732538Y-103456448D01*
X158643753Y-103242102D01*
X158514857Y-103049196D01*
X158350804Y-102885143D01*
X158157898Y-102756247D01*
X157943552Y-102667462D01*
X157716003Y-102622200D01*
X157483997Y-102622200D01*
X157256448Y-102667462D01*
X157042102Y-102756247D01*
X156849196Y-102885143D01*
X156685143Y-103049196D01*
X156556247Y-103242102D01*
X156467462Y-103456448D01*
X156422200Y-103683997D01*
X146977800Y-103683997D01*
X146932538Y-103456448D01*
X146843753Y-103242102D01*
X146714857Y-103049196D01*
X146550804Y-102885143D01*
X146357898Y-102756247D01*
X146143552Y-102667462D01*
X145916003Y-102622200D01*
X145683997Y-102622200D01*
X145456448Y-102667462D01*
X145242102Y-102756247D01*
X145049196Y-102885143D01*
X144885143Y-103049196D01*
X144756247Y-103242102D01*
X144667462Y-103456448D01*
X144622200Y-103683997D01*
X98237687Y-103683997D01*
X98245920Y-99008070D01*
X99582200Y-99008070D01*
X99582200Y-99771930D01*
X99731222Y-100521113D01*
X100023538Y-101226827D01*
X100447916Y-101861953D01*
X100988047Y-102402084D01*
X101623173Y-102826462D01*
X102328887Y-103118778D01*
X103078070Y-103267800D01*
X103841930Y-103267800D01*
X104591113Y-103118778D01*
X105296827Y-102826462D01*
X105931953Y-102402084D01*
X106472084Y-101861953D01*
X106896462Y-101226827D01*
X107188778Y-100521113D01*
X107337800Y-99771930D01*
X107337800Y-99008070D01*
X107197103Y-98300740D01*
X108247544Y-97250300D01*
X132359088Y-97250300D01*
X132370633Y-97264367D01*
X132461309Y-97338783D01*
X132564761Y-97394079D01*
X132677012Y-97428130D01*
X132793750Y-97439628D01*
X133306250Y-97439628D01*
X133422988Y-97428130D01*
X133535239Y-97394079D01*
X133638691Y-97338783D01*
X133729367Y-97264367D01*
X133803783Y-97173691D01*
X133859079Y-97070239D01*
X133893130Y-96957988D01*
X133904628Y-96841250D01*
X133904628Y-96478938D01*
X134380767Y-96002800D01*
X134392363Y-96002800D01*
X134370633Y-96020633D01*
X134296217Y-96111309D01*
X134240921Y-96214761D01*
X134206870Y-96327012D01*
X134195372Y-96443750D01*
X134195372Y-96881250D01*
X134206870Y-96997988D01*
X134240921Y-97110239D01*
X134296217Y-97213691D01*
X134370633Y-97304367D01*
X134461309Y-97378783D01*
X134564761Y-97434079D01*
X134677012Y-97468130D01*
X134793750Y-97479628D01*
X135306250Y-97479628D01*
X135422988Y-97468130D01*
X135535239Y-97434079D01*
X135535418Y-97433984D01*
X136195372Y-98093938D01*
X136195372Y-98456250D01*
X136206870Y-98572988D01*
X136240921Y-98685239D01*
X136296217Y-98788691D01*
X136370633Y-98879367D01*
X136461309Y-98953783D01*
X136564761Y-99009079D01*
X136677012Y-99043130D01*
X136793750Y-99054628D01*
X137156062Y-99054628D01*
X140189506Y-102088073D01*
X140205247Y-102107253D01*
X140281808Y-102170085D01*
X140369156Y-102216774D01*
X140463934Y-102245524D01*
X140537808Y-102252800D01*
X140537815Y-102252800D01*
X140562499Y-102255231D01*
X140587184Y-102252800D01*
X146133425Y-102252800D01*
X146156247Y-102307898D01*
X146285143Y-102500804D01*
X146449196Y-102664857D01*
X146642102Y-102793753D01*
X146856448Y-102882538D01*
X147083997Y-102927800D01*
X147316003Y-102927800D01*
X147543552Y-102882538D01*
X147757898Y-102793753D01*
X147950804Y-102664857D01*
X148114857Y-102500804D01*
X148243753Y-102307898D01*
X148332538Y-102093552D01*
X148377800Y-101866003D01*
X148377800Y-101633997D01*
X148332538Y-101406448D01*
X148243753Y-101192102D01*
X148114857Y-100999196D01*
X147950804Y-100835143D01*
X147757898Y-100706247D01*
X147543552Y-100617462D01*
X147316003Y-100572200D01*
X147083997Y-100572200D01*
X146856448Y-100617462D01*
X146642102Y-100706247D01*
X146449196Y-100835143D01*
X146285143Y-100999196D01*
X146156247Y-101192102D01*
X146133425Y-101247200D01*
X140770767Y-101247200D01*
X137904628Y-98381062D01*
X137904628Y-98074533D01*
X137937809Y-98077801D01*
X137937818Y-98077801D01*
X137962500Y-98080232D01*
X137987182Y-98077801D01*
X148816735Y-98077801D01*
X152061927Y-101322994D01*
X152061933Y-101322999D01*
X152090284Y-101351350D01*
X152067462Y-101406448D01*
X152022200Y-101633997D01*
X152022200Y-101866003D01*
X152067462Y-102093552D01*
X152156247Y-102307898D01*
X152199213Y-102372201D01*
X151533268Y-102372201D01*
X151309716Y-102148649D01*
X151332538Y-102093552D01*
X151377800Y-101866003D01*
X151377800Y-101633997D01*
X151332538Y-101406448D01*
X151243753Y-101192102D01*
X151114857Y-100999196D01*
X150950804Y-100835143D01*
X150757898Y-100706247D01*
X150543552Y-100617462D01*
X150316003Y-100572200D01*
X150083997Y-100572200D01*
X149856448Y-100617462D01*
X149642102Y-100706247D01*
X149449196Y-100835143D01*
X149285143Y-100999196D01*
X149156247Y-101192102D01*
X149067462Y-101406448D01*
X149022200Y-101633997D01*
X149022200Y-101866003D01*
X149067462Y-102093552D01*
X149156247Y-102307898D01*
X149285143Y-102500804D01*
X149449196Y-102664857D01*
X149642102Y-102793753D01*
X149856448Y-102882538D01*
X150083997Y-102927800D01*
X150316003Y-102927800D01*
X150543552Y-102882538D01*
X150598649Y-102859716D01*
X150952009Y-103213076D01*
X150967748Y-103232254D01*
X150986926Y-103247993D01*
X150986927Y-103247994D01*
X151044309Y-103295086D01*
X151131657Y-103341775D01*
X151226435Y-103370525D01*
X151325001Y-103380233D01*
X151349693Y-103377801D01*
X153850307Y-103377801D01*
X153874999Y-103380233D01*
X153899691Y-103377801D01*
X153973565Y-103370525D01*
X154068343Y-103341775D01*
X154155691Y-103295086D01*
X154232252Y-103232254D01*
X154247995Y-103213071D01*
X155155345Y-102305721D01*
X155156247Y-102307898D01*
X155285143Y-102500804D01*
X155449196Y-102664857D01*
X155642102Y-102793753D01*
X155856448Y-102882538D01*
X156083997Y-102927800D01*
X156316003Y-102927800D01*
X156543552Y-102882538D01*
X156757898Y-102793753D01*
X156950804Y-102664857D01*
X157114857Y-102500804D01*
X157243753Y-102307898D01*
X157332538Y-102093552D01*
X157377800Y-101866003D01*
X157377800Y-101633997D01*
X157332538Y-101406448D01*
X157243753Y-101192102D01*
X157114857Y-100999196D01*
X156950804Y-100835143D01*
X156757898Y-100706247D01*
X156543552Y-100617462D01*
X156316003Y-100572200D01*
X156083997Y-100572200D01*
X155856448Y-100617462D01*
X155642102Y-100706247D01*
X155577799Y-100749213D01*
X155577799Y-97783267D01*
X155801350Y-97559716D01*
X155856448Y-97582538D01*
X156083997Y-97627800D01*
X156316003Y-97627800D01*
X156543552Y-97582538D01*
X156757898Y-97493753D01*
X156950804Y-97364857D01*
X157114857Y-97200804D01*
X157243753Y-97007898D01*
X157332538Y-96793552D01*
X157377800Y-96566003D01*
X157377800Y-96333997D01*
X157332538Y-96106448D01*
X157243753Y-95892102D01*
X157114857Y-95699196D01*
X156950804Y-95535143D01*
X156757898Y-95406247D01*
X156543552Y-95317462D01*
X156316003Y-95272200D01*
X156083997Y-95272200D01*
X155856448Y-95317462D01*
X155642102Y-95406247D01*
X155449196Y-95535143D01*
X155285143Y-95699196D01*
X155156247Y-95892102D01*
X155067462Y-96106448D01*
X155022200Y-96333997D01*
X155022200Y-96566003D01*
X155067462Y-96793552D01*
X155090284Y-96848650D01*
X154736926Y-97202008D01*
X154717747Y-97217748D01*
X154702008Y-97236926D01*
X154702006Y-97236928D01*
X154654914Y-97294310D01*
X154608226Y-97381657D01*
X154579475Y-97476436D01*
X154569767Y-97575001D01*
X154572200Y-97599703D01*
X154572199Y-101466735D01*
X154377800Y-101661134D01*
X154377800Y-101633997D01*
X154332538Y-101406448D01*
X154243753Y-101192102D01*
X154114857Y-100999196D01*
X153950804Y-100835143D01*
X153757898Y-100706247D01*
X153543552Y-100617462D01*
X153316003Y-100572200D01*
X153083997Y-100572200D01*
X152856448Y-100617462D01*
X152801350Y-100640284D01*
X152772999Y-100611933D01*
X152772994Y-100611927D01*
X149663811Y-97502745D01*
X149856448Y-97582538D01*
X150083997Y-97627800D01*
X150316003Y-97627800D01*
X150543552Y-97582538D01*
X150757898Y-97493753D01*
X150950804Y-97364857D01*
X151114857Y-97200804D01*
X151243753Y-97007898D01*
X151332538Y-96793552D01*
X151377800Y-96566003D01*
X151377800Y-96333997D01*
X152022200Y-96333997D01*
X152022200Y-96566003D01*
X152067462Y-96793552D01*
X152156247Y-97007898D01*
X152285143Y-97200804D01*
X152449196Y-97364857D01*
X152642102Y-97493753D01*
X152856448Y-97582538D01*
X153083997Y-97627800D01*
X153316003Y-97627800D01*
X153543552Y-97582538D01*
X153757898Y-97493753D01*
X153950804Y-97364857D01*
X154114857Y-97200804D01*
X154243753Y-97007898D01*
X154332538Y-96793552D01*
X154377800Y-96566003D01*
X154377800Y-96333997D01*
X154332538Y-96106448D01*
X154243753Y-95892102D01*
X154114857Y-95699196D01*
X153950804Y-95535143D01*
X153757898Y-95406247D01*
X153543552Y-95317462D01*
X153316003Y-95272200D01*
X153083997Y-95272200D01*
X152856448Y-95317462D01*
X152642102Y-95406247D01*
X152449196Y-95535143D01*
X152285143Y-95699196D01*
X152156247Y-95892102D01*
X152067462Y-96106448D01*
X152022200Y-96333997D01*
X151377800Y-96333997D01*
X151332538Y-96106448D01*
X151243753Y-95892102D01*
X151114857Y-95699196D01*
X150950804Y-95535143D01*
X150757898Y-95406247D01*
X150543552Y-95317462D01*
X150316003Y-95272200D01*
X150083997Y-95272200D01*
X149856448Y-95317462D01*
X149642102Y-95406247D01*
X149449196Y-95535143D01*
X149285143Y-95699196D01*
X149156247Y-95892102D01*
X149067462Y-96106448D01*
X149022200Y-96333997D01*
X149022200Y-96566003D01*
X149067462Y-96793552D01*
X149156247Y-97007898D01*
X149226029Y-97112334D01*
X149218345Y-97108227D01*
X149123567Y-97079477D01*
X149049693Y-97072201D01*
X149025001Y-97069769D01*
X149000309Y-97072201D01*
X148200787Y-97072201D01*
X148243753Y-97007898D01*
X148332538Y-96793552D01*
X148377800Y-96566003D01*
X148377800Y-96333997D01*
X148332538Y-96106448D01*
X148243753Y-95892102D01*
X148114857Y-95699196D01*
X147950804Y-95535143D01*
X147757898Y-95406247D01*
X147543552Y-95317462D01*
X147316003Y-95272200D01*
X147083997Y-95272200D01*
X146856448Y-95317462D01*
X146642102Y-95406247D01*
X146449196Y-95535143D01*
X146285143Y-95699196D01*
X146156247Y-95892102D01*
X146067462Y-96106448D01*
X146022200Y-96333997D01*
X146022200Y-96566003D01*
X146067462Y-96793552D01*
X146156247Y-97007898D01*
X146199213Y-97072201D01*
X138170767Y-97072201D01*
X137904628Y-96806062D01*
X137904628Y-96443750D01*
X137893130Y-96327012D01*
X137859079Y-96214761D01*
X137803783Y-96111309D01*
X137729367Y-96020633D01*
X137707637Y-96002800D01*
X141222200Y-96002800D01*
X141222200Y-96076607D01*
X141252091Y-96226876D01*
X141310723Y-96368426D01*
X141395844Y-96495818D01*
X141504182Y-96604156D01*
X141631574Y-96689277D01*
X141773124Y-96747909D01*
X141923393Y-96777800D01*
X142076607Y-96777800D01*
X142226876Y-96747909D01*
X142368426Y-96689277D01*
X142495818Y-96604156D01*
X142604156Y-96495818D01*
X142689277Y-96368426D01*
X142747909Y-96226876D01*
X142777800Y-96076607D01*
X142777800Y-95923393D01*
X142747909Y-95773124D01*
X142689277Y-95631574D01*
X142604156Y-95504182D01*
X142495818Y-95395844D01*
X142368426Y-95310723D01*
X142226876Y-95252091D01*
X142076607Y-95222200D01*
X141933266Y-95222200D01*
X141872996Y-95161930D01*
X141857253Y-95142747D01*
X141780692Y-95079915D01*
X141693344Y-95033226D01*
X141598566Y-95004476D01*
X141524692Y-94997200D01*
X141500000Y-94994768D01*
X141475308Y-94997200D01*
X134197192Y-94997200D01*
X134172500Y-94994768D01*
X134073934Y-95004476D01*
X133979155Y-95033226D01*
X133891808Y-95079915D01*
X133815247Y-95142747D01*
X133799508Y-95161925D01*
X133156062Y-95805372D01*
X132793750Y-95805372D01*
X132677012Y-95816870D01*
X132564761Y-95850921D01*
X132461309Y-95906217D01*
X132370633Y-95980633D01*
X132359088Y-95994700D01*
X108018333Y-95994700D01*
X107987500Y-95991663D01*
X107956666Y-95994700D01*
X107956664Y-95994700D01*
X107864430Y-96003784D01*
X107746089Y-96039683D01*
X107637025Y-96097978D01*
X107565382Y-96156774D01*
X107565377Y-96156779D01*
X107541431Y-96176431D01*
X107521779Y-96200377D01*
X106605075Y-97117082D01*
X106472084Y-96918047D01*
X105931953Y-96377916D01*
X105296827Y-95953538D01*
X104591113Y-95661222D01*
X103841930Y-95512200D01*
X103078070Y-95512200D01*
X102328887Y-95661222D01*
X101623173Y-95953538D01*
X100988047Y-96377916D01*
X100447916Y-96918047D01*
X100023538Y-97553173D01*
X99731222Y-98258887D01*
X99582200Y-99008070D01*
X98245920Y-99008070D01*
X98252761Y-95122548D01*
X98293919Y-94702784D01*
X98409276Y-94320703D01*
X98428792Y-94283997D01*
X144622200Y-94283997D01*
X144622200Y-94516003D01*
X144667462Y-94743552D01*
X144756247Y-94957898D01*
X144885143Y-95150804D01*
X145049196Y-95314857D01*
X145242102Y-95443753D01*
X145456448Y-95532538D01*
X145683997Y-95577800D01*
X145916003Y-95577800D01*
X146143552Y-95532538D01*
X146357898Y-95443753D01*
X146550804Y-95314857D01*
X146714857Y-95150804D01*
X146843753Y-94957898D01*
X146932538Y-94743552D01*
X146977800Y-94516003D01*
X146977800Y-94283997D01*
X156422200Y-94283997D01*
X156422200Y-94516003D01*
X156467462Y-94743552D01*
X156556247Y-94957898D01*
X156685143Y-95150804D01*
X156849196Y-95314857D01*
X157042102Y-95443753D01*
X157256448Y-95532538D01*
X157483997Y-95577800D01*
X157716003Y-95577800D01*
X157943552Y-95532538D01*
X158157898Y-95443753D01*
X158350804Y-95314857D01*
X158514857Y-95150804D01*
X158643753Y-94957898D01*
X158732538Y-94743552D01*
X158777800Y-94516003D01*
X158777800Y-94283997D01*
X158732538Y-94056448D01*
X158643753Y-93842102D01*
X158514857Y-93649196D01*
X158350804Y-93485143D01*
X158157898Y-93356247D01*
X157943552Y-93267462D01*
X157716003Y-93222200D01*
X157483997Y-93222200D01*
X157256448Y-93267462D01*
X157042102Y-93356247D01*
X156849196Y-93485143D01*
X156685143Y-93649196D01*
X156556247Y-93842102D01*
X156467462Y-94056448D01*
X156422200Y-94283997D01*
X146977800Y-94283997D01*
X146932538Y-94056448D01*
X146843753Y-93842102D01*
X146714857Y-93649196D01*
X146550804Y-93485143D01*
X146357898Y-93356247D01*
X146143552Y-93267462D01*
X145916003Y-93222200D01*
X145683997Y-93222200D01*
X145456448Y-93267462D01*
X145242102Y-93356247D01*
X145049196Y-93485143D01*
X144885143Y-93649196D01*
X144756247Y-93842102D01*
X144667462Y-94056448D01*
X144622200Y-94283997D01*
X98428792Y-94283997D01*
X98596652Y-93968299D01*
X98848906Y-93659004D01*
X99156433Y-93404595D01*
X99507522Y-93214762D01*
X99888787Y-93096741D01*
X100306854Y-93052800D01*
X171277855Y-93052800D01*
X171697216Y-93093919D01*
G36*
X157039494Y-109927338D02*
G01*
X157039505Y-109927347D01*
X158872201Y-111760045D01*
X158872200Y-123211170D01*
X158869164Y-123241996D01*
X158872200Y-123272822D01*
X158872200Y-123272831D01*
X158881284Y-123365065D01*
X158917183Y-123483406D01*
X158972203Y-123586341D01*
X158972202Y-124147959D01*
X158897960Y-124222202D01*
X157322546Y-124222202D01*
X156704628Y-123604285D01*
X156704628Y-123418750D01*
X156693130Y-123302012D01*
X156659079Y-123189761D01*
X156603783Y-123086309D01*
X156529367Y-122995633D01*
X156438691Y-122921217D01*
X156335239Y-122865921D01*
X156282755Y-122850000D01*
X156335239Y-122834079D01*
X156438691Y-122778783D01*
X156529367Y-122704367D01*
X156540912Y-122690300D01*
X157159088Y-122690300D01*
X157170633Y-122704367D01*
X157261309Y-122778783D01*
X157364761Y-122834079D01*
X157477012Y-122868130D01*
X157593750Y-122879628D01*
X158106250Y-122879628D01*
X158222988Y-122868130D01*
X158335239Y-122834079D01*
X158438691Y-122778783D01*
X158529367Y-122704367D01*
X158603783Y-122613691D01*
X158659079Y-122510239D01*
X158693130Y-122397988D01*
X158704628Y-122281250D01*
X158704628Y-121843750D01*
X158693130Y-121727012D01*
X158659079Y-121614761D01*
X158603783Y-121511309D01*
X158529367Y-121420633D01*
X158438691Y-121346217D01*
X158335239Y-121290921D01*
X158222988Y-121256870D01*
X158106250Y-121245372D01*
X157593750Y-121245372D01*
X157477012Y-121256870D01*
X157364761Y-121290921D01*
X157261309Y-121346217D01*
X157170633Y-121420633D01*
X157159088Y-121434700D01*
X156540912Y-121434700D01*
X156529367Y-121420633D01*
X156477800Y-121378313D01*
X156477800Y-114843333D01*
X156480837Y-114812500D01*
X156474681Y-114750000D01*
X156468716Y-114689430D01*
X156432817Y-114571089D01*
X156411425Y-114531067D01*
X156374522Y-114462025D01*
X156315726Y-114390382D01*
X156315721Y-114390377D01*
X156296069Y-114366431D01*
X156272123Y-114346779D01*
X153854628Y-111929286D01*
X153854628Y-111743750D01*
X153843130Y-111627012D01*
X153809079Y-111514761D01*
X153753783Y-111411309D01*
X153679367Y-111320633D01*
X153627800Y-111278313D01*
X153627800Y-111210432D01*
X153689277Y-111118426D01*
X153747909Y-110976876D01*
X153777800Y-110826607D01*
X153777800Y-110673393D01*
X153747909Y-110523124D01*
X153689277Y-110381574D01*
X153686755Y-110377800D01*
X156219174Y-110377800D01*
X156250000Y-110380836D01*
X156280826Y-110377800D01*
X156280836Y-110377800D01*
X156373070Y-110368716D01*
X156491411Y-110332817D01*
X156600474Y-110274522D01*
X156696069Y-110196069D01*
X156715730Y-110172112D01*
X156999999Y-109887843D01*
X157039494Y-109927338D01*
X157039494Y-109927338D01*
G37*
X157039494Y-109927338D02*
X157039505Y-109927347D01*
X158872201Y-111760045D01*
X158872200Y-123211170D01*
X158869164Y-123241996D01*
X158872200Y-123272822D01*
X158872200Y-123272831D01*
X158881284Y-123365065D01*
X158917183Y-123483406D01*
X158972203Y-123586341D01*
X158972202Y-124147959D01*
X158897960Y-124222202D01*
X157322546Y-124222202D01*
X156704628Y-123604285D01*
X156704628Y-123418750D01*
X156693130Y-123302012D01*
X156659079Y-123189761D01*
X156603783Y-123086309D01*
X156529367Y-122995633D01*
X156438691Y-122921217D01*
X156335239Y-122865921D01*
X156282755Y-122850000D01*
X156335239Y-122834079D01*
X156438691Y-122778783D01*
X156529367Y-122704367D01*
X156540912Y-122690300D01*
X157159088Y-122690300D01*
X157170633Y-122704367D01*
X157261309Y-122778783D01*
X157364761Y-122834079D01*
X157477012Y-122868130D01*
X157593750Y-122879628D01*
X158106250Y-122879628D01*
X158222988Y-122868130D01*
X158335239Y-122834079D01*
X158438691Y-122778783D01*
X158529367Y-122704367D01*
X158603783Y-122613691D01*
X158659079Y-122510239D01*
X158693130Y-122397988D01*
X158704628Y-122281250D01*
X158704628Y-121843750D01*
X158693130Y-121727012D01*
X158659079Y-121614761D01*
X158603783Y-121511309D01*
X158529367Y-121420633D01*
X158438691Y-121346217D01*
X158335239Y-121290921D01*
X158222988Y-121256870D01*
X158106250Y-121245372D01*
X157593750Y-121245372D01*
X157477012Y-121256870D01*
X157364761Y-121290921D01*
X157261309Y-121346217D01*
X157170633Y-121420633D01*
X157159088Y-121434700D01*
X156540912Y-121434700D01*
X156529367Y-121420633D01*
X156477800Y-121378313D01*
X156477800Y-114843333D01*
X156480837Y-114812500D01*
X156474681Y-114750000D01*
X156468716Y-114689430D01*
X156432817Y-114571089D01*
X156411425Y-114531067D01*
X156374522Y-114462025D01*
X156315726Y-114390382D01*
X156315721Y-114390377D01*
X156296069Y-114366431D01*
X156272123Y-114346779D01*
X153854628Y-111929286D01*
X153854628Y-111743750D01*
X153843130Y-111627012D01*
X153809079Y-111514761D01*
X153753783Y-111411309D01*
X153679367Y-111320633D01*
X153627800Y-111278313D01*
X153627800Y-111210432D01*
X153689277Y-111118426D01*
X153747909Y-110976876D01*
X153777800Y-110826607D01*
X153777800Y-110673393D01*
X153747909Y-110523124D01*
X153689277Y-110381574D01*
X153686755Y-110377800D01*
X156219174Y-110377800D01*
X156250000Y-110380836D01*
X156280826Y-110377800D01*
X156280836Y-110377800D01*
X156373070Y-110368716D01*
X156491411Y-110332817D01*
X156600474Y-110274522D01*
X156696069Y-110196069D01*
X156715730Y-110172112D01*
X156999999Y-109887843D01*
X157039494Y-109927338D01*
M02*
