G04 #@! TF.GenerationSoftware,KiCad,Pcbnew,(5.1.0)-1*
G04 #@! TF.CreationDate,2019-05-21T21:29:46+02:00*
G04 #@! TF.ProjectId,currentscaler,63757272-656e-4747-9363-616c65722e6b,rev?*
G04 #@! TF.SameCoordinates,Original*
G04 #@! TF.FileFunction,Legend,Top*
G04 #@! TF.FilePolarity,Positive*
%FSLAX46Y46*%
G04 Gerber Fmt 4.6, Leading zero omitted, Abs format (unit mm)*
G04 Created by KiCad (PCBNEW (5.1.0)-1) date 2019-05-21 21:29:46*
%MOMM*%
%LPD*%
G04 APERTURE LIST*
%ADD10C,0.300000*%
%ADD11C,0.120000*%
%ADD12C,0.150000*%
G04 APERTURE END LIST*
D10*
X149128571Y-108285714D02*
X148128571Y-108285714D01*
X148271428Y-108285714D02*
X148200000Y-108214285D01*
X148128571Y-108071428D01*
X148128571Y-107857142D01*
X148200000Y-107714285D01*
X148342857Y-107642857D01*
X149128571Y-107642857D01*
X148342857Y-107642857D02*
X148200000Y-107571428D01*
X148128571Y-107428571D01*
X148128571Y-107214285D01*
X148200000Y-107071428D01*
X148342857Y-107000000D01*
X149128571Y-107000000D01*
X148700000Y-106357142D02*
X148700000Y-105642857D01*
X149128571Y-106500000D02*
X147628571Y-106000000D01*
X149128571Y-105500000D01*
X150678571Y-107321428D02*
X151678571Y-107321428D01*
X150678571Y-107964285D02*
X151464285Y-107964285D01*
X151607142Y-107892857D01*
X151678571Y-107750000D01*
X151678571Y-107535714D01*
X151607142Y-107392857D01*
X151535714Y-107321428D01*
X151250000Y-106678571D02*
X151250000Y-105964285D01*
X151678571Y-106821428D02*
X150178571Y-106321428D01*
X151678571Y-105821428D01*
X153228571Y-107964285D02*
X154228571Y-107964285D01*
X153371428Y-107964285D02*
X153300000Y-107892857D01*
X153228571Y-107750000D01*
X153228571Y-107535714D01*
X153300000Y-107392857D01*
X153442857Y-107321428D01*
X154228571Y-107321428D01*
X153800000Y-106678571D02*
X153800000Y-105964285D01*
X154228571Y-106821428D02*
X152728571Y-106321428D01*
X154228571Y-105821428D01*
X114400000Y-118485714D02*
X114328571Y-118557142D01*
X114114285Y-118628571D01*
X113971428Y-118628571D01*
X113757142Y-118557142D01*
X113614285Y-118414285D01*
X113542857Y-118271428D01*
X113471428Y-117985714D01*
X113471428Y-117771428D01*
X113542857Y-117485714D01*
X113614285Y-117342857D01*
X113757142Y-117200000D01*
X113971428Y-117128571D01*
X114114285Y-117128571D01*
X114328571Y-117200000D01*
X114400000Y-117271428D01*
X115685714Y-117628571D02*
X115685714Y-118628571D01*
X115042857Y-117628571D02*
X115042857Y-118414285D01*
X115114285Y-118557142D01*
X115257142Y-118628571D01*
X115471428Y-118628571D01*
X115614285Y-118557142D01*
X115685714Y-118485714D01*
X116400000Y-118628571D02*
X116400000Y-117628571D01*
X116400000Y-117914285D02*
X116471428Y-117771428D01*
X116542857Y-117700000D01*
X116685714Y-117628571D01*
X116828571Y-117628571D01*
X117328571Y-118628571D02*
X117328571Y-117628571D01*
X117328571Y-117914285D02*
X117400000Y-117771428D01*
X117471428Y-117700000D01*
X117614285Y-117628571D01*
X117757142Y-117628571D01*
X118828571Y-118557142D02*
X118685714Y-118628571D01*
X118400000Y-118628571D01*
X118257142Y-118557142D01*
X118185714Y-118414285D01*
X118185714Y-117842857D01*
X118257142Y-117700000D01*
X118400000Y-117628571D01*
X118685714Y-117628571D01*
X118828571Y-117700000D01*
X118900000Y-117842857D01*
X118900000Y-117985714D01*
X118185714Y-118128571D01*
X119542857Y-117628571D02*
X119542857Y-118628571D01*
X119542857Y-117771428D02*
X119614285Y-117700000D01*
X119757142Y-117628571D01*
X119971428Y-117628571D01*
X120114285Y-117700000D01*
X120185714Y-117842857D01*
X120185714Y-118628571D01*
X120685714Y-117628571D02*
X121257142Y-117628571D01*
X120900000Y-117128571D02*
X120900000Y-118414285D01*
X120971428Y-118557142D01*
X121114285Y-118628571D01*
X121257142Y-118628571D01*
X122828571Y-118557142D02*
X123042857Y-118628571D01*
X123400000Y-118628571D01*
X123542857Y-118557142D01*
X123614285Y-118485714D01*
X123685714Y-118342857D01*
X123685714Y-118200000D01*
X123614285Y-118057142D01*
X123542857Y-117985714D01*
X123400000Y-117914285D01*
X123114285Y-117842857D01*
X122971428Y-117771428D01*
X122900000Y-117700000D01*
X122828571Y-117557142D01*
X122828571Y-117414285D01*
X122900000Y-117271428D01*
X122971428Y-117200000D01*
X123114285Y-117128571D01*
X123471428Y-117128571D01*
X123685714Y-117200000D01*
X124971428Y-118557142D02*
X124828571Y-118628571D01*
X124542857Y-118628571D01*
X124400000Y-118557142D01*
X124328571Y-118485714D01*
X124257142Y-118342857D01*
X124257142Y-117914285D01*
X124328571Y-117771428D01*
X124400000Y-117700000D01*
X124542857Y-117628571D01*
X124828571Y-117628571D01*
X124971428Y-117700000D01*
X126257142Y-118628571D02*
X126257142Y-117842857D01*
X126185714Y-117700000D01*
X126042857Y-117628571D01*
X125757142Y-117628571D01*
X125614285Y-117700000D01*
X126257142Y-118557142D02*
X126114285Y-118628571D01*
X125757142Y-118628571D01*
X125614285Y-118557142D01*
X125542857Y-118414285D01*
X125542857Y-118271428D01*
X125614285Y-118128571D01*
X125757142Y-118057142D01*
X126114285Y-118057142D01*
X126257142Y-117985714D01*
X127185714Y-118628571D02*
X127042857Y-118557142D01*
X126971428Y-118414285D01*
X126971428Y-117128571D01*
X128328571Y-118557142D02*
X128185714Y-118628571D01*
X127900000Y-118628571D01*
X127757142Y-118557142D01*
X127685714Y-118414285D01*
X127685714Y-117842857D01*
X127757142Y-117700000D01*
X127900000Y-117628571D01*
X128185714Y-117628571D01*
X128328571Y-117700000D01*
X128400000Y-117842857D01*
X128400000Y-117985714D01*
X127685714Y-118128571D01*
X129042857Y-118628571D02*
X129042857Y-117628571D01*
X129042857Y-117914285D02*
X129114285Y-117771428D01*
X129185714Y-117700000D01*
X129328571Y-117628571D01*
X129471428Y-117628571D01*
X114435714Y-121178571D02*
X113935714Y-120464285D01*
X113578571Y-121178571D02*
X113578571Y-119678571D01*
X114150000Y-119678571D01*
X114292857Y-119750000D01*
X114364285Y-119821428D01*
X114435714Y-119964285D01*
X114435714Y-120178571D01*
X114364285Y-120321428D01*
X114292857Y-120392857D01*
X114150000Y-120464285D01*
X113578571Y-120464285D01*
X115650000Y-121107142D02*
X115507142Y-121178571D01*
X115221428Y-121178571D01*
X115078571Y-121107142D01*
X115007142Y-120964285D01*
X115007142Y-120392857D01*
X115078571Y-120250000D01*
X115221428Y-120178571D01*
X115507142Y-120178571D01*
X115650000Y-120250000D01*
X115721428Y-120392857D01*
X115721428Y-120535714D01*
X115007142Y-120678571D01*
X116221428Y-120178571D02*
X116578571Y-121178571D01*
X116935714Y-120178571D01*
X119292857Y-120178571D02*
X119292857Y-121178571D01*
X118935714Y-119607142D02*
X118578571Y-120678571D01*
X119507142Y-120678571D01*
X121221428Y-120607142D02*
X122364285Y-120607142D01*
X125007142Y-121178571D02*
X124150000Y-121178571D01*
X124578571Y-121178571D02*
X124578571Y-119678571D01*
X124435714Y-119892857D01*
X124292857Y-120035714D01*
X124150000Y-120107142D01*
X125721428Y-121178571D02*
X126007142Y-121178571D01*
X126150000Y-121107142D01*
X126221428Y-121035714D01*
X126364285Y-120821428D01*
X126435714Y-120535714D01*
X126435714Y-119964285D01*
X126364285Y-119821428D01*
X126292857Y-119750000D01*
X126150000Y-119678571D01*
X125864285Y-119678571D01*
X125721428Y-119750000D01*
X125650000Y-119821428D01*
X125578571Y-119964285D01*
X125578571Y-120321428D01*
X125650000Y-120464285D01*
X125721428Y-120535714D01*
X125864285Y-120607142D01*
X126150000Y-120607142D01*
X126292857Y-120535714D01*
X126364285Y-120464285D01*
X126435714Y-120321428D01*
X127864285Y-121178571D02*
X127007142Y-121178571D01*
X127435714Y-121178571D02*
X127435714Y-119678571D01*
X127292857Y-119892857D01*
X127150000Y-120035714D01*
X127007142Y-120107142D01*
X128578571Y-121178571D02*
X128864285Y-121178571D01*
X129007142Y-121107142D01*
X129078571Y-121035714D01*
X129221428Y-120821428D01*
X129292857Y-120535714D01*
X129292857Y-119964285D01*
X129221428Y-119821428D01*
X129150000Y-119750000D01*
X129007142Y-119678571D01*
X128721428Y-119678571D01*
X128578571Y-119750000D01*
X128507142Y-119821428D01*
X128435714Y-119964285D01*
X128435714Y-120321428D01*
X128507142Y-120464285D01*
X128578571Y-120535714D01*
X128721428Y-120607142D01*
X129007142Y-120607142D01*
X129150000Y-120535714D01*
X129221428Y-120464285D01*
X129292857Y-120321428D01*
X118578571Y-123300000D02*
X119292857Y-123300000D01*
X118435714Y-123728571D02*
X118935714Y-122228571D01*
X119435714Y-123728571D01*
X119721428Y-122228571D02*
X120578571Y-122228571D01*
X120150000Y-123728571D02*
X120150000Y-122228571D01*
X121078571Y-123728571D02*
X121078571Y-122228571D01*
X121078571Y-122942857D02*
X121935714Y-122942857D01*
X121935714Y-123728571D02*
X121935714Y-122228571D01*
X122650000Y-123728571D02*
X122650000Y-122228571D01*
X124221428Y-123728571D02*
X123721428Y-123014285D01*
X123364285Y-123728571D02*
X123364285Y-122228571D01*
X123935714Y-122228571D01*
X124078571Y-122300000D01*
X124150000Y-122371428D01*
X124221428Y-122514285D01*
X124221428Y-122728571D01*
X124150000Y-122871428D01*
X124078571Y-122942857D01*
X123935714Y-123014285D01*
X123364285Y-123014285D01*
D11*
X155490000Y-107953922D02*
X155490000Y-108471078D01*
X156910000Y-107953922D02*
X156910000Y-108471078D01*
X146560000Y-123108578D02*
X146560000Y-122591422D01*
X145140000Y-123108578D02*
X145140000Y-122591422D01*
X142690000Y-122591422D02*
X142690000Y-123108578D01*
X144110000Y-122591422D02*
X144110000Y-123108578D01*
D12*
X160230000Y-99500000D02*
X160230000Y-119000000D01*
X176230000Y-119000000D02*
X176230000Y-99500000D01*
X176230000Y-119000000D02*
G75*
G02X160230000Y-119000000I-8000000J0D01*
G01*
X160230000Y-99500000D02*
G75*
G02X176230000Y-99500000I8000000J0D01*
G01*
X111460000Y-118890000D02*
X111460000Y-99390000D01*
X95460000Y-99390000D02*
X95460000Y-118890000D01*
X95460000Y-99390000D02*
G75*
G02X111460000Y-99390000I8000000J0D01*
G01*
X111460000Y-118890000D02*
G75*
G02X95460000Y-118890000I-8000000J0D01*
G01*
D11*
X149340000Y-123000279D02*
X149340000Y-122674721D01*
X150360000Y-123000279D02*
X150360000Y-122674721D01*
X143860000Y-118900000D02*
X143860000Y-117100000D01*
X140640000Y-117100000D02*
X140640000Y-119550000D01*
X149360000Y-118900000D02*
X149360000Y-116450000D01*
X146140000Y-117100000D02*
X146140000Y-118900000D01*
X147260000Y-110650000D02*
X147260000Y-108850000D01*
X144040000Y-108850000D02*
X144040000Y-111300000D01*
X147340000Y-123012779D02*
X147340000Y-122687221D01*
X148360000Y-123012779D02*
X148360000Y-122687221D01*
X151260000Y-112587221D02*
X151260000Y-112912779D01*
X150240000Y-112587221D02*
X150240000Y-112912779D01*
X132240000Y-97287221D02*
X132240000Y-97612779D01*
X133260000Y-97287221D02*
X133260000Y-97612779D01*
X151340000Y-123012779D02*
X151340000Y-122687221D01*
X152360000Y-123012779D02*
X152360000Y-122687221D01*
X137560000Y-97287221D02*
X137560000Y-97612779D01*
X136540000Y-97287221D02*
X136540000Y-97612779D01*
X153340000Y-123012779D02*
X153340000Y-122687221D01*
X154360000Y-123012779D02*
X154360000Y-122687221D01*
X140490000Y-122687221D02*
X140490000Y-123012779D01*
X141510000Y-122687221D02*
X141510000Y-123012779D01*
X138540000Y-122687221D02*
X138540000Y-123012779D01*
X139560000Y-122687221D02*
X139560000Y-123012779D01*
X129510000Y-97247221D02*
X129510000Y-97572779D01*
X128490000Y-97247221D02*
X128490000Y-97572779D01*
X152490000Y-112912779D02*
X152490000Y-112587221D01*
X153510000Y-112912779D02*
X153510000Y-112587221D01*
X157890000Y-108087221D02*
X157890000Y-108412779D01*
X158910000Y-108087221D02*
X158910000Y-108412779D01*
X158360000Y-123012779D02*
X158360000Y-122687221D01*
X157340000Y-123012779D02*
X157340000Y-122687221D01*
X151490000Y-118162779D02*
X151490000Y-117837221D01*
X152510000Y-118162779D02*
X152510000Y-117837221D01*
X156360000Y-123012779D02*
X156360000Y-122687221D01*
X155340000Y-123012779D02*
X155340000Y-122687221D01*
X142910000Y-109837221D02*
X142910000Y-110162779D01*
X141890000Y-109837221D02*
X141890000Y-110162779D01*
X136540000Y-122674721D02*
X136540000Y-123000279D01*
X137560000Y-122674721D02*
X137560000Y-123000279D01*
D12*
X158302380Y-108855357D02*
X157826190Y-109188690D01*
X158302380Y-109426785D02*
X157302380Y-109426785D01*
X157302380Y-109045833D01*
X157350000Y-108950595D01*
X157397619Y-108902976D01*
X157492857Y-108855357D01*
X157635714Y-108855357D01*
X157730952Y-108902976D01*
X157778571Y-108950595D01*
X157826190Y-109045833D01*
X157826190Y-109426785D01*
X158302380Y-107902976D02*
X158302380Y-108474404D01*
X158302380Y-108188690D02*
X157302380Y-108188690D01*
X157445238Y-108283928D01*
X157540476Y-108379166D01*
X157588095Y-108474404D01*
X157635714Y-107045833D02*
X158302380Y-107045833D01*
X157254761Y-107283928D02*
X157969047Y-107522023D01*
X157969047Y-106902976D01*
X145633333Y-125652380D02*
X145300000Y-125176190D01*
X145061904Y-125652380D02*
X145061904Y-124652380D01*
X145442857Y-124652380D01*
X145538095Y-124700000D01*
X145585714Y-124747619D01*
X145633333Y-124842857D01*
X145633333Y-124985714D01*
X145585714Y-125080952D01*
X145538095Y-125128571D01*
X145442857Y-125176190D01*
X145061904Y-125176190D01*
X146204761Y-125080952D02*
X146109523Y-125033333D01*
X146061904Y-124985714D01*
X146014285Y-124890476D01*
X146014285Y-124842857D01*
X146061904Y-124747619D01*
X146109523Y-124700000D01*
X146204761Y-124652380D01*
X146395238Y-124652380D01*
X146490476Y-124700000D01*
X146538095Y-124747619D01*
X146585714Y-124842857D01*
X146585714Y-124890476D01*
X146538095Y-124985714D01*
X146490476Y-125033333D01*
X146395238Y-125080952D01*
X146204761Y-125080952D01*
X146109523Y-125128571D01*
X146061904Y-125176190D01*
X146014285Y-125271428D01*
X146014285Y-125461904D01*
X146061904Y-125557142D01*
X146109523Y-125604761D01*
X146204761Y-125652380D01*
X146395238Y-125652380D01*
X146490476Y-125604761D01*
X146538095Y-125557142D01*
X146585714Y-125461904D01*
X146585714Y-125271428D01*
X146538095Y-125176190D01*
X146490476Y-125128571D01*
X146395238Y-125080952D01*
X143233333Y-125652380D02*
X142900000Y-125176190D01*
X142661904Y-125652380D02*
X142661904Y-124652380D01*
X143042857Y-124652380D01*
X143138095Y-124700000D01*
X143185714Y-124747619D01*
X143233333Y-124842857D01*
X143233333Y-124985714D01*
X143185714Y-125080952D01*
X143138095Y-125128571D01*
X143042857Y-125176190D01*
X142661904Y-125176190D01*
X144090476Y-124652380D02*
X143900000Y-124652380D01*
X143804761Y-124700000D01*
X143757142Y-124747619D01*
X143661904Y-124890476D01*
X143614285Y-125080952D01*
X143614285Y-125461904D01*
X143661904Y-125557142D01*
X143709523Y-125604761D01*
X143804761Y-125652380D01*
X143995238Y-125652380D01*
X144090476Y-125604761D01*
X144138095Y-125557142D01*
X144185714Y-125461904D01*
X144185714Y-125223809D01*
X144138095Y-125128571D01*
X144090476Y-125080952D01*
X143995238Y-125033333D01*
X143804761Y-125033333D01*
X143709523Y-125080952D01*
X143661904Y-125128571D01*
X143614285Y-125223809D01*
X149254761Y-94702380D02*
X149254761Y-93702380D01*
X149492857Y-93702380D01*
X149635714Y-93750000D01*
X149730952Y-93845238D01*
X149778571Y-93940476D01*
X149826190Y-94130952D01*
X149826190Y-94273809D01*
X149778571Y-94464285D01*
X149730952Y-94559523D01*
X149635714Y-94654761D01*
X149492857Y-94702380D01*
X149254761Y-94702380D01*
X150254761Y-94702380D02*
X150254761Y-93702380D01*
X150635714Y-93702380D01*
X150730952Y-93750000D01*
X150778571Y-93797619D01*
X150826190Y-93892857D01*
X150826190Y-94035714D01*
X150778571Y-94130952D01*
X150730952Y-94178571D01*
X150635714Y-94226190D01*
X150254761Y-94226190D01*
X151159523Y-93702380D02*
X151778571Y-93702380D01*
X151445238Y-94083333D01*
X151588095Y-94083333D01*
X151683333Y-94130952D01*
X151730952Y-94178571D01*
X151778571Y-94273809D01*
X151778571Y-94511904D01*
X151730952Y-94607142D01*
X151683333Y-94654761D01*
X151588095Y-94702380D01*
X151302380Y-94702380D01*
X151207142Y-94654761D01*
X151159523Y-94607142D01*
X152064285Y-93702380D02*
X152635714Y-93702380D01*
X152350000Y-94702380D02*
X152350000Y-93702380D01*
X153492857Y-94702380D02*
X152921428Y-94702380D01*
X153207142Y-94702380D02*
X153207142Y-93702380D01*
X153111904Y-93845238D01*
X153016666Y-93940476D01*
X152921428Y-93988095D01*
X168657142Y-110504285D02*
X168704761Y-110551904D01*
X168752380Y-110694761D01*
X168752380Y-110790000D01*
X168704761Y-110932857D01*
X168609523Y-111028095D01*
X168514285Y-111075714D01*
X168323809Y-111123333D01*
X168180952Y-111123333D01*
X167990476Y-111075714D01*
X167895238Y-111028095D01*
X167800000Y-110932857D01*
X167752380Y-110790000D01*
X167752380Y-110694761D01*
X167800000Y-110551904D01*
X167847619Y-110504285D01*
X167752380Y-109885238D02*
X167752380Y-109694761D01*
X167800000Y-109599523D01*
X167895238Y-109504285D01*
X168085714Y-109456666D01*
X168419047Y-109456666D01*
X168609523Y-109504285D01*
X168704761Y-109599523D01*
X168752380Y-109694761D01*
X168752380Y-109885238D01*
X168704761Y-109980476D01*
X168609523Y-110075714D01*
X168419047Y-110123333D01*
X168085714Y-110123333D01*
X167895238Y-110075714D01*
X167800000Y-109980476D01*
X167752380Y-109885238D01*
X168752380Y-109028095D02*
X167752380Y-109028095D01*
X168752380Y-108456666D01*
X167752380Y-108456666D01*
X167847619Y-108028095D02*
X167800000Y-107980476D01*
X167752380Y-107885238D01*
X167752380Y-107647142D01*
X167800000Y-107551904D01*
X167847619Y-107504285D01*
X167942857Y-107456666D01*
X168038095Y-107456666D01*
X168180952Y-107504285D01*
X168752380Y-108075714D01*
X168752380Y-107456666D01*
X163658571Y-101011904D02*
X163706190Y-100869047D01*
X163753809Y-100821428D01*
X163849047Y-100773809D01*
X163991904Y-100773809D01*
X164087142Y-100821428D01*
X164134761Y-100869047D01*
X164182380Y-100964285D01*
X164182380Y-101345238D01*
X163182380Y-101345238D01*
X163182380Y-101011904D01*
X163230000Y-100916666D01*
X163277619Y-100869047D01*
X163372857Y-100821428D01*
X163468095Y-100821428D01*
X163563333Y-100869047D01*
X163610952Y-100916666D01*
X163658571Y-101011904D01*
X163658571Y-101345238D01*
X164182380Y-99869047D02*
X164182380Y-100345238D01*
X163182380Y-100345238D01*
X163896666Y-99583333D02*
X163896666Y-99107142D01*
X164182380Y-99678571D02*
X163182380Y-99345238D01*
X164182380Y-99011904D01*
X164087142Y-98107142D02*
X164134761Y-98154761D01*
X164182380Y-98297619D01*
X164182380Y-98392857D01*
X164134761Y-98535714D01*
X164039523Y-98630952D01*
X163944285Y-98678571D01*
X163753809Y-98726190D01*
X163610952Y-98726190D01*
X163420476Y-98678571D01*
X163325238Y-98630952D01*
X163230000Y-98535714D01*
X163182380Y-98392857D01*
X163182380Y-98297619D01*
X163230000Y-98154761D01*
X163277619Y-98107142D01*
X164182380Y-97678571D02*
X163182380Y-97678571D01*
X164182380Y-97107142D02*
X163610952Y-97535714D01*
X163182380Y-97107142D02*
X163753809Y-97678571D01*
X164182380Y-119892857D02*
X163706190Y-120226190D01*
X164182380Y-120464285D02*
X163182380Y-120464285D01*
X163182380Y-120083333D01*
X163230000Y-119988095D01*
X163277619Y-119940476D01*
X163372857Y-119892857D01*
X163515714Y-119892857D01*
X163610952Y-119940476D01*
X163658571Y-119988095D01*
X163706190Y-120083333D01*
X163706190Y-120464285D01*
X163658571Y-119464285D02*
X163658571Y-119130952D01*
X164182380Y-118988095D02*
X164182380Y-119464285D01*
X163182380Y-119464285D01*
X163182380Y-118988095D01*
X164182380Y-118559523D02*
X163182380Y-118559523D01*
X163182380Y-118321428D01*
X163230000Y-118178571D01*
X163325238Y-118083333D01*
X163420476Y-118035714D01*
X163610952Y-117988095D01*
X163753809Y-117988095D01*
X163944285Y-118035714D01*
X164039523Y-118083333D01*
X164134761Y-118178571D01*
X164182380Y-118321428D01*
X164182380Y-118559523D01*
X103647142Y-110224285D02*
X103694761Y-110271904D01*
X103742380Y-110414761D01*
X103742380Y-110510000D01*
X103694761Y-110652857D01*
X103599523Y-110748095D01*
X103504285Y-110795714D01*
X103313809Y-110843333D01*
X103170952Y-110843333D01*
X102980476Y-110795714D01*
X102885238Y-110748095D01*
X102790000Y-110652857D01*
X102742380Y-110510000D01*
X102742380Y-110414761D01*
X102790000Y-110271904D01*
X102837619Y-110224285D01*
X102742380Y-109605238D02*
X102742380Y-109414761D01*
X102790000Y-109319523D01*
X102885238Y-109224285D01*
X103075714Y-109176666D01*
X103409047Y-109176666D01*
X103599523Y-109224285D01*
X103694761Y-109319523D01*
X103742380Y-109414761D01*
X103742380Y-109605238D01*
X103694761Y-109700476D01*
X103599523Y-109795714D01*
X103409047Y-109843333D01*
X103075714Y-109843333D01*
X102885238Y-109795714D01*
X102790000Y-109700476D01*
X102742380Y-109605238D01*
X103742380Y-108748095D02*
X102742380Y-108748095D01*
X103742380Y-108176666D01*
X102742380Y-108176666D01*
X103742380Y-107176666D02*
X103742380Y-107748095D01*
X103742380Y-107462380D02*
X102742380Y-107462380D01*
X102885238Y-107557619D01*
X102980476Y-107652857D01*
X103028095Y-107748095D01*
X107888571Y-120901904D02*
X107936190Y-120759047D01*
X107983809Y-120711428D01*
X108079047Y-120663809D01*
X108221904Y-120663809D01*
X108317142Y-120711428D01*
X108364761Y-120759047D01*
X108412380Y-120854285D01*
X108412380Y-121235238D01*
X107412380Y-121235238D01*
X107412380Y-120901904D01*
X107460000Y-120806666D01*
X107507619Y-120759047D01*
X107602857Y-120711428D01*
X107698095Y-120711428D01*
X107793333Y-120759047D01*
X107840952Y-120806666D01*
X107888571Y-120901904D01*
X107888571Y-121235238D01*
X108412380Y-119759047D02*
X108412380Y-120235238D01*
X107412380Y-120235238D01*
X108126666Y-119473333D02*
X108126666Y-118997142D01*
X108412380Y-119568571D02*
X107412380Y-119235238D01*
X108412380Y-118901904D01*
X108317142Y-117997142D02*
X108364761Y-118044761D01*
X108412380Y-118187619D01*
X108412380Y-118282857D01*
X108364761Y-118425714D01*
X108269523Y-118520952D01*
X108174285Y-118568571D01*
X107983809Y-118616190D01*
X107840952Y-118616190D01*
X107650476Y-118568571D01*
X107555238Y-118520952D01*
X107460000Y-118425714D01*
X107412380Y-118282857D01*
X107412380Y-118187619D01*
X107460000Y-118044761D01*
X107507619Y-117997142D01*
X108412380Y-117568571D02*
X107412380Y-117568571D01*
X108412380Y-116997142D02*
X107840952Y-117425714D01*
X107412380Y-116997142D02*
X107983809Y-117568571D01*
X108412380Y-99782857D02*
X107936190Y-100116190D01*
X108412380Y-100354285D02*
X107412380Y-100354285D01*
X107412380Y-99973333D01*
X107460000Y-99878095D01*
X107507619Y-99830476D01*
X107602857Y-99782857D01*
X107745714Y-99782857D01*
X107840952Y-99830476D01*
X107888571Y-99878095D01*
X107936190Y-99973333D01*
X107936190Y-100354285D01*
X107888571Y-99354285D02*
X107888571Y-99020952D01*
X108412380Y-98878095D02*
X108412380Y-99354285D01*
X107412380Y-99354285D01*
X107412380Y-98878095D01*
X108412380Y-98449523D02*
X107412380Y-98449523D01*
X107412380Y-98211428D01*
X107460000Y-98068571D01*
X107555238Y-97973333D01*
X107650476Y-97925714D01*
X107840952Y-97878095D01*
X107983809Y-97878095D01*
X108174285Y-97925714D01*
X108269523Y-97973333D01*
X108364761Y-98068571D01*
X108412380Y-98211428D01*
X108412380Y-98449523D01*
X149433333Y-125577142D02*
X149385714Y-125624761D01*
X149242857Y-125672380D01*
X149147619Y-125672380D01*
X149004761Y-125624761D01*
X148909523Y-125529523D01*
X148861904Y-125434285D01*
X148814285Y-125243809D01*
X148814285Y-125100952D01*
X148861904Y-124910476D01*
X148909523Y-124815238D01*
X149004761Y-124720000D01*
X149147619Y-124672380D01*
X149242857Y-124672380D01*
X149385714Y-124720000D01*
X149433333Y-124767619D01*
X149814285Y-124767619D02*
X149861904Y-124720000D01*
X149957142Y-124672380D01*
X150195238Y-124672380D01*
X150290476Y-124720000D01*
X150338095Y-124767619D01*
X150385714Y-124862857D01*
X150385714Y-124958095D01*
X150338095Y-125100952D01*
X149766666Y-125672380D01*
X150385714Y-125672380D01*
X144158095Y-119872380D02*
X144158095Y-120681904D01*
X144205714Y-120777142D01*
X144253333Y-120824761D01*
X144348571Y-120872380D01*
X144539047Y-120872380D01*
X144634285Y-120824761D01*
X144681904Y-120777142D01*
X144729523Y-120681904D01*
X144729523Y-119872380D01*
X145729523Y-120872380D02*
X145158095Y-120872380D01*
X145443809Y-120872380D02*
X145443809Y-119872380D01*
X145348571Y-120015238D01*
X145253333Y-120110476D01*
X145158095Y-120158095D01*
X146968095Y-114842380D02*
X146968095Y-115651904D01*
X147015714Y-115747142D01*
X147063333Y-115794761D01*
X147158571Y-115842380D01*
X147349047Y-115842380D01*
X147444285Y-115794761D01*
X147491904Y-115747142D01*
X147539523Y-115651904D01*
X147539523Y-114842380D01*
X147968095Y-114937619D02*
X148015714Y-114890000D01*
X148110952Y-114842380D01*
X148349047Y-114842380D01*
X148444285Y-114890000D01*
X148491904Y-114937619D01*
X148539523Y-115032857D01*
X148539523Y-115128095D01*
X148491904Y-115270952D01*
X147920476Y-115842380D01*
X148539523Y-115842380D01*
X144828095Y-112072380D02*
X144828095Y-112881904D01*
X144875714Y-112977142D01*
X144923333Y-113024761D01*
X145018571Y-113072380D01*
X145209047Y-113072380D01*
X145304285Y-113024761D01*
X145351904Y-112977142D01*
X145399523Y-112881904D01*
X145399523Y-112072380D01*
X145780476Y-112072380D02*
X146399523Y-112072380D01*
X146066190Y-112453333D01*
X146209047Y-112453333D01*
X146304285Y-112500952D01*
X146351904Y-112548571D01*
X146399523Y-112643809D01*
X146399523Y-112881904D01*
X146351904Y-112977142D01*
X146304285Y-113024761D01*
X146209047Y-113072380D01*
X145923333Y-113072380D01*
X145828095Y-113024761D01*
X145780476Y-112977142D01*
X147663333Y-125602380D02*
X147330000Y-125126190D01*
X147091904Y-125602380D02*
X147091904Y-124602380D01*
X147472857Y-124602380D01*
X147568095Y-124650000D01*
X147615714Y-124697619D01*
X147663333Y-124792857D01*
X147663333Y-124935714D01*
X147615714Y-125030952D01*
X147568095Y-125078571D01*
X147472857Y-125126190D01*
X147091904Y-125126190D01*
X148139523Y-125602380D02*
X148330000Y-125602380D01*
X148425238Y-125554761D01*
X148472857Y-125507142D01*
X148568095Y-125364285D01*
X148615714Y-125173809D01*
X148615714Y-124792857D01*
X148568095Y-124697619D01*
X148520476Y-124650000D01*
X148425238Y-124602380D01*
X148234761Y-124602380D01*
X148139523Y-124650000D01*
X148091904Y-124697619D01*
X148044285Y-124792857D01*
X148044285Y-125030952D01*
X148091904Y-125126190D01*
X148139523Y-125173809D01*
X148234761Y-125221428D01*
X148425238Y-125221428D01*
X148520476Y-125173809D01*
X148568095Y-125126190D01*
X148615714Y-125030952D01*
X150087142Y-111032380D02*
X149753809Y-110556190D01*
X149515714Y-111032380D02*
X149515714Y-110032380D01*
X149896666Y-110032380D01*
X149991904Y-110080000D01*
X150039523Y-110127619D01*
X150087142Y-110222857D01*
X150087142Y-110365714D01*
X150039523Y-110460952D01*
X149991904Y-110508571D01*
X149896666Y-110556190D01*
X149515714Y-110556190D01*
X151039523Y-111032380D02*
X150468095Y-111032380D01*
X150753809Y-111032380D02*
X150753809Y-110032380D01*
X150658571Y-110175238D01*
X150563333Y-110270476D01*
X150468095Y-110318095D01*
X151658571Y-110032380D02*
X151753809Y-110032380D01*
X151849047Y-110080000D01*
X151896666Y-110127619D01*
X151944285Y-110222857D01*
X151991904Y-110413333D01*
X151991904Y-110651428D01*
X151944285Y-110841904D01*
X151896666Y-110937142D01*
X151849047Y-110984761D01*
X151753809Y-111032380D01*
X151658571Y-111032380D01*
X151563333Y-110984761D01*
X151515714Y-110937142D01*
X151468095Y-110841904D01*
X151420476Y-110651428D01*
X151420476Y-110413333D01*
X151468095Y-110222857D01*
X151515714Y-110127619D01*
X151563333Y-110080000D01*
X151658571Y-110032380D01*
X132573333Y-100302380D02*
X132240000Y-99826190D01*
X132001904Y-100302380D02*
X132001904Y-99302380D01*
X132382857Y-99302380D01*
X132478095Y-99350000D01*
X132525714Y-99397619D01*
X132573333Y-99492857D01*
X132573333Y-99635714D01*
X132525714Y-99730952D01*
X132478095Y-99778571D01*
X132382857Y-99826190D01*
X132001904Y-99826190D01*
X133430476Y-99635714D02*
X133430476Y-100302380D01*
X133192380Y-99254761D02*
X132954285Y-99969047D01*
X133573333Y-99969047D01*
X133252380Y-107400000D02*
X133252380Y-107971428D01*
X133252380Y-107685714D02*
X132252380Y-107685714D01*
X132395238Y-107780952D01*
X132490476Y-107876190D01*
X132538095Y-107971428D01*
X132252380Y-106780952D02*
X132252380Y-106685714D01*
X132300000Y-106590476D01*
X132347619Y-106542857D01*
X132442857Y-106495238D01*
X132633333Y-106447619D01*
X132871428Y-106447619D01*
X133061904Y-106495238D01*
X133157142Y-106542857D01*
X133204761Y-106590476D01*
X133252380Y-106685714D01*
X133252380Y-106780952D01*
X133204761Y-106876190D01*
X133157142Y-106923809D01*
X133061904Y-106971428D01*
X132871428Y-107019047D01*
X132633333Y-107019047D01*
X132442857Y-106971428D01*
X132347619Y-106923809D01*
X132300000Y-106876190D01*
X132252380Y-106780952D01*
X133252380Y-106019047D02*
X132585714Y-106019047D01*
X132680952Y-106019047D02*
X132633333Y-105971428D01*
X132585714Y-105876190D01*
X132585714Y-105733333D01*
X132633333Y-105638095D01*
X132728571Y-105590476D01*
X133252380Y-105590476D01*
X132728571Y-105590476D02*
X132633333Y-105542857D01*
X132585714Y-105447619D01*
X132585714Y-105304761D01*
X132633333Y-105209523D01*
X132728571Y-105161904D01*
X133252380Y-105161904D01*
X133157142Y-103923809D02*
X133204761Y-103876190D01*
X133252380Y-103923809D01*
X133204761Y-103971428D01*
X133157142Y-103923809D01*
X133252380Y-103923809D01*
X132252380Y-103257142D02*
X132252380Y-103161904D01*
X132300000Y-103066666D01*
X132347619Y-103019047D01*
X132442857Y-102971428D01*
X132633333Y-102923809D01*
X132871428Y-102923809D01*
X133061904Y-102971428D01*
X133157142Y-103019047D01*
X133204761Y-103066666D01*
X133252380Y-103161904D01*
X133252380Y-103257142D01*
X133204761Y-103352380D01*
X133157142Y-103400000D01*
X133061904Y-103447619D01*
X132871428Y-103495238D01*
X132633333Y-103495238D01*
X132442857Y-103447619D01*
X132347619Y-103400000D01*
X132300000Y-103352380D01*
X132252380Y-103257142D01*
X132252380Y-102019047D02*
X132252380Y-102495238D01*
X132728571Y-102542857D01*
X132680952Y-102495238D01*
X132633333Y-102400000D01*
X132633333Y-102161904D01*
X132680952Y-102066666D01*
X132728571Y-102019047D01*
X132823809Y-101971428D01*
X133061904Y-101971428D01*
X133157142Y-102019047D01*
X133204761Y-102066666D01*
X133252380Y-102161904D01*
X133252380Y-102400000D01*
X133204761Y-102495238D01*
X133157142Y-102542857D01*
X133252380Y-101590476D02*
X132252380Y-100828571D01*
X132252380Y-101447619D02*
X132300000Y-101352380D01*
X132395238Y-101304761D01*
X132490476Y-101352380D01*
X132538095Y-101447619D01*
X132490476Y-101542857D01*
X132395238Y-101590476D01*
X132300000Y-101542857D01*
X132252380Y-101447619D01*
X133204761Y-100876190D02*
X133109523Y-100828571D01*
X133014285Y-100876190D01*
X132966666Y-100971428D01*
X133014285Y-101066666D01*
X133109523Y-101114285D01*
X133204761Y-101066666D01*
X133252380Y-100971428D01*
X133204761Y-100876190D01*
X151773333Y-121212380D02*
X151440000Y-120736190D01*
X151201904Y-121212380D02*
X151201904Y-120212380D01*
X151582857Y-120212380D01*
X151678095Y-120260000D01*
X151725714Y-120307619D01*
X151773333Y-120402857D01*
X151773333Y-120545714D01*
X151725714Y-120640952D01*
X151678095Y-120688571D01*
X151582857Y-120736190D01*
X151201904Y-120736190D01*
X152106666Y-120212380D02*
X152773333Y-120212380D01*
X152344761Y-121212380D01*
X136933333Y-100342380D02*
X136600000Y-99866190D01*
X136361904Y-100342380D02*
X136361904Y-99342380D01*
X136742857Y-99342380D01*
X136838095Y-99390000D01*
X136885714Y-99437619D01*
X136933333Y-99532857D01*
X136933333Y-99675714D01*
X136885714Y-99770952D01*
X136838095Y-99818571D01*
X136742857Y-99866190D01*
X136361904Y-99866190D01*
X137838095Y-99342380D02*
X137361904Y-99342380D01*
X137314285Y-99818571D01*
X137361904Y-99770952D01*
X137457142Y-99723333D01*
X137695238Y-99723333D01*
X137790476Y-99770952D01*
X137838095Y-99818571D01*
X137885714Y-99913809D01*
X137885714Y-100151904D01*
X137838095Y-100247142D01*
X137790476Y-100294761D01*
X137695238Y-100342380D01*
X137457142Y-100342380D01*
X137361904Y-100294761D01*
X137314285Y-100247142D01*
X137652380Y-107333333D02*
X137652380Y-107904761D01*
X137652380Y-107619047D02*
X136652380Y-107619047D01*
X136795238Y-107714285D01*
X136890476Y-107809523D01*
X136938095Y-107904761D01*
X136652380Y-106714285D02*
X136652380Y-106619047D01*
X136700000Y-106523809D01*
X136747619Y-106476190D01*
X136842857Y-106428571D01*
X137033333Y-106380952D01*
X137271428Y-106380952D01*
X137461904Y-106428571D01*
X137557142Y-106476190D01*
X137604761Y-106523809D01*
X137652380Y-106619047D01*
X137652380Y-106714285D01*
X137604761Y-106809523D01*
X137557142Y-106857142D01*
X137461904Y-106904761D01*
X137271428Y-106952380D01*
X137033333Y-106952380D01*
X136842857Y-106904761D01*
X136747619Y-106857142D01*
X136700000Y-106809523D01*
X136652380Y-106714285D01*
X137557142Y-105190476D02*
X137604761Y-105142857D01*
X137652380Y-105190476D01*
X137604761Y-105238095D01*
X137557142Y-105190476D01*
X137652380Y-105190476D01*
X136652380Y-104523809D02*
X136652380Y-104428571D01*
X136700000Y-104333333D01*
X136747619Y-104285714D01*
X136842857Y-104238095D01*
X137033333Y-104190476D01*
X137271428Y-104190476D01*
X137461904Y-104238095D01*
X137557142Y-104285714D01*
X137604761Y-104333333D01*
X137652380Y-104428571D01*
X137652380Y-104523809D01*
X137604761Y-104619047D01*
X137557142Y-104666666D01*
X137461904Y-104714285D01*
X137271428Y-104761904D01*
X137033333Y-104761904D01*
X136842857Y-104714285D01*
X136747619Y-104666666D01*
X136700000Y-104619047D01*
X136652380Y-104523809D01*
X136652380Y-103285714D02*
X136652380Y-103761904D01*
X137128571Y-103809523D01*
X137080952Y-103761904D01*
X137033333Y-103666666D01*
X137033333Y-103428571D01*
X137080952Y-103333333D01*
X137128571Y-103285714D01*
X137223809Y-103238095D01*
X137461904Y-103238095D01*
X137557142Y-103285714D01*
X137604761Y-103333333D01*
X137652380Y-103428571D01*
X137652380Y-103666666D01*
X137604761Y-103761904D01*
X137557142Y-103809523D01*
X137652380Y-102857142D02*
X136652380Y-102095238D01*
X136652380Y-102714285D02*
X136700000Y-102619047D01*
X136795238Y-102571428D01*
X136890476Y-102619047D01*
X136938095Y-102714285D01*
X136890476Y-102809523D01*
X136795238Y-102857142D01*
X136700000Y-102809523D01*
X136652380Y-102714285D01*
X137604761Y-102142857D02*
X137509523Y-102095238D01*
X137414285Y-102142857D01*
X137366666Y-102238095D01*
X137414285Y-102333333D01*
X137509523Y-102380952D01*
X137604761Y-102333333D01*
X137652380Y-102238095D01*
X137604761Y-102142857D01*
X153657142Y-125672380D02*
X153323809Y-125196190D01*
X153085714Y-125672380D02*
X153085714Y-124672380D01*
X153466666Y-124672380D01*
X153561904Y-124720000D01*
X153609523Y-124767619D01*
X153657142Y-124862857D01*
X153657142Y-125005714D01*
X153609523Y-125100952D01*
X153561904Y-125148571D01*
X153466666Y-125196190D01*
X153085714Y-125196190D01*
X154609523Y-125672380D02*
X154038095Y-125672380D01*
X154323809Y-125672380D02*
X154323809Y-124672380D01*
X154228571Y-124815238D01*
X154133333Y-124910476D01*
X154038095Y-124958095D01*
X154942857Y-124672380D02*
X155561904Y-124672380D01*
X155228571Y-125053333D01*
X155371428Y-125053333D01*
X155466666Y-125100952D01*
X155514285Y-125148571D01*
X155561904Y-125243809D01*
X155561904Y-125481904D01*
X155514285Y-125577142D01*
X155466666Y-125624761D01*
X155371428Y-125672380D01*
X155085714Y-125672380D01*
X154990476Y-125624761D01*
X154942857Y-125577142D01*
X140603333Y-125622380D02*
X140270000Y-125146190D01*
X140031904Y-125622380D02*
X140031904Y-124622380D01*
X140412857Y-124622380D01*
X140508095Y-124670000D01*
X140555714Y-124717619D01*
X140603333Y-124812857D01*
X140603333Y-124955714D01*
X140555714Y-125050952D01*
X140508095Y-125098571D01*
X140412857Y-125146190D01*
X140031904Y-125146190D01*
X140936666Y-124622380D02*
X141555714Y-124622380D01*
X141222380Y-125003333D01*
X141365238Y-125003333D01*
X141460476Y-125050952D01*
X141508095Y-125098571D01*
X141555714Y-125193809D01*
X141555714Y-125431904D01*
X141508095Y-125527142D01*
X141460476Y-125574761D01*
X141365238Y-125622380D01*
X141079523Y-125622380D01*
X140984285Y-125574761D01*
X140936666Y-125527142D01*
X138893333Y-121122380D02*
X138560000Y-120646190D01*
X138321904Y-121122380D02*
X138321904Y-120122380D01*
X138702857Y-120122380D01*
X138798095Y-120170000D01*
X138845714Y-120217619D01*
X138893333Y-120312857D01*
X138893333Y-120455714D01*
X138845714Y-120550952D01*
X138798095Y-120598571D01*
X138702857Y-120646190D01*
X138321904Y-120646190D01*
X139274285Y-120217619D02*
X139321904Y-120170000D01*
X139417142Y-120122380D01*
X139655238Y-120122380D01*
X139750476Y-120170000D01*
X139798095Y-120217619D01*
X139845714Y-120312857D01*
X139845714Y-120408095D01*
X139798095Y-120550952D01*
X139226666Y-121122380D01*
X139845714Y-121122380D01*
X128813333Y-100162380D02*
X128480000Y-99686190D01*
X128241904Y-100162380D02*
X128241904Y-99162380D01*
X128622857Y-99162380D01*
X128718095Y-99210000D01*
X128765714Y-99257619D01*
X128813333Y-99352857D01*
X128813333Y-99495714D01*
X128765714Y-99590952D01*
X128718095Y-99638571D01*
X128622857Y-99686190D01*
X128241904Y-99686190D01*
X129765714Y-100162380D02*
X129194285Y-100162380D01*
X129480000Y-100162380D02*
X129480000Y-99162380D01*
X129384761Y-99305238D01*
X129289523Y-99400476D01*
X129194285Y-99448095D01*
X129452380Y-107338095D02*
X129452380Y-107909523D01*
X129452380Y-107623809D02*
X128452380Y-107623809D01*
X128595238Y-107719047D01*
X128690476Y-107814285D01*
X128738095Y-107909523D01*
X128452380Y-106719047D02*
X128452380Y-106623809D01*
X128500000Y-106528571D01*
X128547619Y-106480952D01*
X128642857Y-106433333D01*
X128833333Y-106385714D01*
X129071428Y-106385714D01*
X129261904Y-106433333D01*
X129357142Y-106480952D01*
X129404761Y-106528571D01*
X129452380Y-106623809D01*
X129452380Y-106719047D01*
X129404761Y-106814285D01*
X129357142Y-106861904D01*
X129261904Y-106909523D01*
X129071428Y-106957142D01*
X128833333Y-106957142D01*
X128642857Y-106909523D01*
X128547619Y-106861904D01*
X128500000Y-106814285D01*
X128452380Y-106719047D01*
X129452380Y-105957142D02*
X128452380Y-105957142D01*
X129071428Y-105861904D02*
X129452380Y-105576190D01*
X128785714Y-105576190D02*
X129166666Y-105957142D01*
X129357142Y-104385714D02*
X129404761Y-104338095D01*
X129452380Y-104385714D01*
X129404761Y-104433333D01*
X129357142Y-104385714D01*
X129452380Y-104385714D01*
X128452380Y-103719047D02*
X128452380Y-103623809D01*
X128500000Y-103528571D01*
X128547619Y-103480952D01*
X128642857Y-103433333D01*
X128833333Y-103385714D01*
X129071428Y-103385714D01*
X129261904Y-103433333D01*
X129357142Y-103480952D01*
X129404761Y-103528571D01*
X129452380Y-103623809D01*
X129452380Y-103719047D01*
X129404761Y-103814285D01*
X129357142Y-103861904D01*
X129261904Y-103909523D01*
X129071428Y-103957142D01*
X128833333Y-103957142D01*
X128642857Y-103909523D01*
X128547619Y-103861904D01*
X128500000Y-103814285D01*
X128452380Y-103719047D01*
X128452380Y-102480952D02*
X128452380Y-102957142D01*
X128928571Y-103004761D01*
X128880952Y-102957142D01*
X128833333Y-102861904D01*
X128833333Y-102623809D01*
X128880952Y-102528571D01*
X128928571Y-102480952D01*
X129023809Y-102433333D01*
X129261904Y-102433333D01*
X129357142Y-102480952D01*
X129404761Y-102528571D01*
X129452380Y-102623809D01*
X129452380Y-102861904D01*
X129404761Y-102957142D01*
X129357142Y-103004761D01*
X129452380Y-102052380D02*
X128452380Y-101290476D01*
X128452380Y-101909523D02*
X128500000Y-101814285D01*
X128595238Y-101766666D01*
X128690476Y-101814285D01*
X128738095Y-101909523D01*
X128690476Y-102004761D01*
X128595238Y-102052380D01*
X128500000Y-102004761D01*
X128452380Y-101909523D01*
X129404761Y-101338095D02*
X129309523Y-101290476D01*
X129214285Y-101338095D01*
X129166666Y-101433333D01*
X129214285Y-101528571D01*
X129309523Y-101576190D01*
X129404761Y-101528571D01*
X129452380Y-101433333D01*
X129404761Y-101338095D01*
X153067142Y-115472380D02*
X152733809Y-114996190D01*
X152495714Y-115472380D02*
X152495714Y-114472380D01*
X152876666Y-114472380D01*
X152971904Y-114520000D01*
X153019523Y-114567619D01*
X153067142Y-114662857D01*
X153067142Y-114805714D01*
X153019523Y-114900952D01*
X152971904Y-114948571D01*
X152876666Y-114996190D01*
X152495714Y-114996190D01*
X154019523Y-115472380D02*
X153448095Y-115472380D01*
X153733809Y-115472380D02*
X153733809Y-114472380D01*
X153638571Y-114615238D01*
X153543333Y-114710476D01*
X153448095Y-114758095D01*
X154400476Y-114567619D02*
X154448095Y-114520000D01*
X154543333Y-114472380D01*
X154781428Y-114472380D01*
X154876666Y-114520000D01*
X154924285Y-114567619D01*
X154971904Y-114662857D01*
X154971904Y-114758095D01*
X154924285Y-114900952D01*
X154352857Y-115472380D01*
X154971904Y-115472380D01*
X158213333Y-106497142D02*
X158165714Y-106544761D01*
X158022857Y-106592380D01*
X157927619Y-106592380D01*
X157784761Y-106544761D01*
X157689523Y-106449523D01*
X157641904Y-106354285D01*
X157594285Y-106163809D01*
X157594285Y-106020952D01*
X157641904Y-105830476D01*
X157689523Y-105735238D01*
X157784761Y-105640000D01*
X157927619Y-105592380D01*
X158022857Y-105592380D01*
X158165714Y-105640000D01*
X158213333Y-105687619D01*
X159070476Y-105592380D02*
X158880000Y-105592380D01*
X158784761Y-105640000D01*
X158737142Y-105687619D01*
X158641904Y-105830476D01*
X158594285Y-106020952D01*
X158594285Y-106401904D01*
X158641904Y-106497142D01*
X158689523Y-106544761D01*
X158784761Y-106592380D01*
X158975238Y-106592380D01*
X159070476Y-106544761D01*
X159118095Y-106497142D01*
X159165714Y-106401904D01*
X159165714Y-106163809D01*
X159118095Y-106068571D01*
X159070476Y-106020952D01*
X158975238Y-105973333D01*
X158784761Y-105973333D01*
X158689523Y-106020952D01*
X158641904Y-106068571D01*
X158594285Y-106163809D01*
X157237142Y-125582380D02*
X156903809Y-125106190D01*
X156665714Y-125582380D02*
X156665714Y-124582380D01*
X157046666Y-124582380D01*
X157141904Y-124630000D01*
X157189523Y-124677619D01*
X157237142Y-124772857D01*
X157237142Y-124915714D01*
X157189523Y-125010952D01*
X157141904Y-125058571D01*
X157046666Y-125106190D01*
X156665714Y-125106190D01*
X158189523Y-125582380D02*
X157618095Y-125582380D01*
X157903809Y-125582380D02*
X157903809Y-124582380D01*
X157808571Y-124725238D01*
X157713333Y-124820476D01*
X157618095Y-124868095D01*
X159141904Y-125582380D02*
X158570476Y-125582380D01*
X158856190Y-125582380D02*
X158856190Y-124582380D01*
X158760952Y-124725238D01*
X158665714Y-124820476D01*
X158570476Y-124868095D01*
X153573333Y-118357142D02*
X153525714Y-118404761D01*
X153382857Y-118452380D01*
X153287619Y-118452380D01*
X153144761Y-118404761D01*
X153049523Y-118309523D01*
X153001904Y-118214285D01*
X152954285Y-118023809D01*
X152954285Y-117880952D01*
X153001904Y-117690476D01*
X153049523Y-117595238D01*
X153144761Y-117500000D01*
X153287619Y-117452380D01*
X153382857Y-117452380D01*
X153525714Y-117500000D01*
X153573333Y-117547619D01*
X154478095Y-117452380D02*
X154001904Y-117452380D01*
X153954285Y-117928571D01*
X154001904Y-117880952D01*
X154097142Y-117833333D01*
X154335238Y-117833333D01*
X154430476Y-117880952D01*
X154478095Y-117928571D01*
X154525714Y-118023809D01*
X154525714Y-118261904D01*
X154478095Y-118357142D01*
X154430476Y-118404761D01*
X154335238Y-118452380D01*
X154097142Y-118452380D01*
X154001904Y-118404761D01*
X153954285Y-118357142D01*
X155633333Y-121007142D02*
X155585714Y-121054761D01*
X155442857Y-121102380D01*
X155347619Y-121102380D01*
X155204761Y-121054761D01*
X155109523Y-120959523D01*
X155061904Y-120864285D01*
X155014285Y-120673809D01*
X155014285Y-120530952D01*
X155061904Y-120340476D01*
X155109523Y-120245238D01*
X155204761Y-120150000D01*
X155347619Y-120102380D01*
X155442857Y-120102380D01*
X155585714Y-120150000D01*
X155633333Y-120197619D01*
X156490476Y-120435714D02*
X156490476Y-121102380D01*
X156252380Y-120054761D02*
X156014285Y-120769047D01*
X156633333Y-120769047D01*
X142203333Y-108127142D02*
X142155714Y-108174761D01*
X142012857Y-108222380D01*
X141917619Y-108222380D01*
X141774761Y-108174761D01*
X141679523Y-108079523D01*
X141631904Y-107984285D01*
X141584285Y-107793809D01*
X141584285Y-107650952D01*
X141631904Y-107460476D01*
X141679523Y-107365238D01*
X141774761Y-107270000D01*
X141917619Y-107222380D01*
X142012857Y-107222380D01*
X142155714Y-107270000D01*
X142203333Y-107317619D01*
X142536666Y-107222380D02*
X143155714Y-107222380D01*
X142822380Y-107603333D01*
X142965238Y-107603333D01*
X143060476Y-107650952D01*
X143108095Y-107698571D01*
X143155714Y-107793809D01*
X143155714Y-108031904D01*
X143108095Y-108127142D01*
X143060476Y-108174761D01*
X142965238Y-108222380D01*
X142679523Y-108222380D01*
X142584285Y-108174761D01*
X142536666Y-108127142D01*
X136843333Y-125547142D02*
X136795714Y-125594761D01*
X136652857Y-125642380D01*
X136557619Y-125642380D01*
X136414761Y-125594761D01*
X136319523Y-125499523D01*
X136271904Y-125404285D01*
X136224285Y-125213809D01*
X136224285Y-125070952D01*
X136271904Y-124880476D01*
X136319523Y-124785238D01*
X136414761Y-124690000D01*
X136557619Y-124642380D01*
X136652857Y-124642380D01*
X136795714Y-124690000D01*
X136843333Y-124737619D01*
X137795714Y-125642380D02*
X137224285Y-125642380D01*
X137510000Y-125642380D02*
X137510000Y-124642380D01*
X137414761Y-124785238D01*
X137319523Y-124880476D01*
X137224285Y-124928095D01*
M02*
