M48
; DRILL file {KiCad (5.1.4)-1} date 05-09-2019 18:56:45
; FORMAT={-:-/ absolute / metric / decimal}
; #@! TF.CreationDate,2019-09-05T18:56:45+02:00
; #@! TF.GenerationSoftware,Kicad,Pcbnew,(5.1.4)-1
FMAT,2
METRIC
T1C0.400
T2C0.800
T3C1.000
T4C1.300
T5C5.000
T6C1.300
%
G90
G05
T1
X130.5Y-114.0
X135.5Y-118.25
X137.75Y-116.5
X138.0Y-120.0
X139.6Y-109.2
X139.6Y-113.2
X141.0Y-109.2
X141.488Y-116.375
X141.5Y-112.25
X142.84Y-124.84
X143.25Y-120.5
X143.41Y-96.462
X143.525Y-116.974
X144.5Y-120.25
X145.25Y-118.75
X145.47Y-116.832
X145.85Y-123.787
X146.025Y-120.533
X146.2Y-115.2
X146.6Y-113.2
X147.5Y-120.75
X148.25Y-100.0
X148.4Y-120.2
X148.762Y-111.962
X149.75Y-114.75
X149.75Y-120.162
X150.5Y-121.0
X150.75Y-117.0
X150.75Y-124.45
X151.75Y-115.0
X152.5Y-124.75
X152.75Y-108.5
X153.0Y-110.75
X153.25Y-119.25
X158.75Y-123.75
T2
X119.0Y-98.5
X119.0Y-106.12
X134.25Y-98.75
X134.25Y-106.37
X130.5Y-98.73
X130.5Y-106.35
T3
X118.0Y-117.5
X118.0Y-120.0
T4
X147.2Y-96.45
X147.2Y-101.75
X150.2Y-96.45
X150.2Y-101.75
X153.2Y-96.45
X153.2Y-101.75
X156.2Y-96.45
X156.2Y-101.75
T5
X168.23Y-99.5
X168.23Y-119.0
X103.46Y-99.39
X103.46Y-118.89
T6
X145.8Y-94.4
X145.8Y-103.8
X157.6Y-94.4
X157.6Y-103.8
T0
M30
