G04 #@! TF.GenerationSoftware,KiCad,Pcbnew,(5.1.4)-1*
G04 #@! TF.CreationDate,2019-09-05T18:56:40+02:00*
G04 #@! TF.ProjectId,currentscaler,63757272-656e-4747-9363-616c65722e6b,rev?*
G04 #@! TF.SameCoordinates,Original*
G04 #@! TF.FileFunction,Soldermask,Top*
G04 #@! TF.FilePolarity,Negative*
%FSLAX46Y46*%
G04 Gerber Fmt 4.6, Leading zero omitted, Abs format (unit mm)*
G04 Created by KiCad (PCBNEW (5.1.4)-1) date 2019-09-05 18:56:40*
%MOMM*%
%LPD*%
G04 APERTURE LIST*
%ADD10O,2.000000X2.000000*%
%ADD11C,2.000000*%
%ADD12O,2.400000X2.100000*%
%ADD13C,0.100000*%
%ADD14C,2.100000*%
%ADD15R,1.060000X0.760000*%
%ADD16C,1.275000*%
%ADD17C,1.375000*%
%ADD18C,9.400000*%
%ADD19R,1.050000X1.460000*%
G04 APERTURE END LIST*
D10*
X134250000Y-106370000D03*
D11*
X134250000Y-98750000D03*
D10*
X130500000Y-98730000D03*
D11*
X130500000Y-106350000D03*
D10*
X119000000Y-106120000D03*
D11*
X119000000Y-98500000D03*
D12*
X118000000Y-117500000D03*
D13*
G36*
X118921447Y-118951487D02*
G01*
X118951425Y-118955934D01*
X118980824Y-118963298D01*
X119009358Y-118973508D01*
X119036755Y-118986465D01*
X119062750Y-119002046D01*
X119087092Y-119020100D01*
X119109548Y-119040452D01*
X119129900Y-119062908D01*
X119147954Y-119087250D01*
X119163535Y-119113245D01*
X119176492Y-119140642D01*
X119186702Y-119169176D01*
X119194066Y-119198575D01*
X119198513Y-119228553D01*
X119200000Y-119258823D01*
X119200000Y-120741177D01*
X119198513Y-120771447D01*
X119194066Y-120801425D01*
X119186702Y-120830824D01*
X119176492Y-120859358D01*
X119163535Y-120886755D01*
X119147954Y-120912750D01*
X119129900Y-120937092D01*
X119109548Y-120959548D01*
X119087092Y-120979900D01*
X119062750Y-120997954D01*
X119036755Y-121013535D01*
X119009358Y-121026492D01*
X118980824Y-121036702D01*
X118951425Y-121044066D01*
X118921447Y-121048513D01*
X118891177Y-121050000D01*
X117108823Y-121050000D01*
X117078553Y-121048513D01*
X117048575Y-121044066D01*
X117019176Y-121036702D01*
X116990642Y-121026492D01*
X116963245Y-121013535D01*
X116937250Y-120997954D01*
X116912908Y-120979900D01*
X116890452Y-120959548D01*
X116870100Y-120937092D01*
X116852046Y-120912750D01*
X116836465Y-120886755D01*
X116823508Y-120859358D01*
X116813298Y-120830824D01*
X116805934Y-120801425D01*
X116801487Y-120771447D01*
X116800000Y-120741177D01*
X116800000Y-119258823D01*
X116801487Y-119228553D01*
X116805934Y-119198575D01*
X116813298Y-119169176D01*
X116823508Y-119140642D01*
X116836465Y-119113245D01*
X116852046Y-119087250D01*
X116870100Y-119062908D01*
X116890452Y-119040452D01*
X116912908Y-119020100D01*
X116937250Y-119002046D01*
X116963245Y-118986465D01*
X116990642Y-118973508D01*
X117019176Y-118963298D01*
X117048575Y-118955934D01*
X117078553Y-118951487D01*
X117108823Y-118950000D01*
X118891177Y-118950000D01*
X118921447Y-118951487D01*
X118921447Y-118951487D01*
G37*
D14*
X118000000Y-120000000D03*
D15*
X133714999Y-111850000D03*
X133714999Y-112500000D03*
X133714999Y-113800000D03*
X133714999Y-113145000D03*
X138164999Y-113155000D03*
X138164999Y-113810000D03*
X138164999Y-112510000D03*
X138164999Y-111860000D03*
D13*
G36*
X141374993Y-112926535D02*
G01*
X141405935Y-112931125D01*
X141436278Y-112938725D01*
X141465730Y-112949263D01*
X141494008Y-112962638D01*
X141520838Y-112978719D01*
X141545963Y-112997353D01*
X141569140Y-113018360D01*
X141590147Y-113041537D01*
X141608781Y-113066662D01*
X141624862Y-113093492D01*
X141638237Y-113121770D01*
X141648775Y-113151222D01*
X141656375Y-113181565D01*
X141660965Y-113212507D01*
X141662500Y-113243750D01*
X141662500Y-113956250D01*
X141660965Y-113987493D01*
X141656375Y-114018435D01*
X141648775Y-114048778D01*
X141638237Y-114078230D01*
X141624862Y-114106508D01*
X141608781Y-114133338D01*
X141590147Y-114158463D01*
X141569140Y-114181640D01*
X141545963Y-114202647D01*
X141520838Y-114221281D01*
X141494008Y-114237362D01*
X141465730Y-114250737D01*
X141436278Y-114261275D01*
X141405935Y-114268875D01*
X141374993Y-114273465D01*
X141343750Y-114275000D01*
X140706250Y-114275000D01*
X140675007Y-114273465D01*
X140644065Y-114268875D01*
X140613722Y-114261275D01*
X140584270Y-114250737D01*
X140555992Y-114237362D01*
X140529162Y-114221281D01*
X140504037Y-114202647D01*
X140480860Y-114181640D01*
X140459853Y-114158463D01*
X140441219Y-114133338D01*
X140425138Y-114106508D01*
X140411763Y-114078230D01*
X140401225Y-114048778D01*
X140393625Y-114018435D01*
X140389035Y-113987493D01*
X140387500Y-113956250D01*
X140387500Y-113243750D01*
X140389035Y-113212507D01*
X140393625Y-113181565D01*
X140401225Y-113151222D01*
X140411763Y-113121770D01*
X140425138Y-113093492D01*
X140441219Y-113066662D01*
X140459853Y-113041537D01*
X140480860Y-113018360D01*
X140504037Y-112997353D01*
X140529162Y-112978719D01*
X140555992Y-112962638D01*
X140584270Y-112949263D01*
X140613722Y-112938725D01*
X140644065Y-112931125D01*
X140675007Y-112926535D01*
X140706250Y-112925000D01*
X141343750Y-112925000D01*
X141374993Y-112926535D01*
X141374993Y-112926535D01*
G37*
D16*
X141025000Y-113600000D03*
D13*
G36*
X142949993Y-112926535D02*
G01*
X142980935Y-112931125D01*
X143011278Y-112938725D01*
X143040730Y-112949263D01*
X143069008Y-112962638D01*
X143095838Y-112978719D01*
X143120963Y-112997353D01*
X143144140Y-113018360D01*
X143165147Y-113041537D01*
X143183781Y-113066662D01*
X143199862Y-113093492D01*
X143213237Y-113121770D01*
X143223775Y-113151222D01*
X143231375Y-113181565D01*
X143235965Y-113212507D01*
X143237500Y-113243750D01*
X143237500Y-113956250D01*
X143235965Y-113987493D01*
X143231375Y-114018435D01*
X143223775Y-114048778D01*
X143213237Y-114078230D01*
X143199862Y-114106508D01*
X143183781Y-114133338D01*
X143165147Y-114158463D01*
X143144140Y-114181640D01*
X143120963Y-114202647D01*
X143095838Y-114221281D01*
X143069008Y-114237362D01*
X143040730Y-114250737D01*
X143011278Y-114261275D01*
X142980935Y-114268875D01*
X142949993Y-114273465D01*
X142918750Y-114275000D01*
X142281250Y-114275000D01*
X142250007Y-114273465D01*
X142219065Y-114268875D01*
X142188722Y-114261275D01*
X142159270Y-114250737D01*
X142130992Y-114237362D01*
X142104162Y-114221281D01*
X142079037Y-114202647D01*
X142055860Y-114181640D01*
X142034853Y-114158463D01*
X142016219Y-114133338D01*
X142000138Y-114106508D01*
X141986763Y-114078230D01*
X141976225Y-114048778D01*
X141968625Y-114018435D01*
X141964035Y-113987493D01*
X141962500Y-113956250D01*
X141962500Y-113243750D01*
X141964035Y-113212507D01*
X141968625Y-113181565D01*
X141976225Y-113151222D01*
X141986763Y-113121770D01*
X142000138Y-113093492D01*
X142016219Y-113066662D01*
X142034853Y-113041537D01*
X142055860Y-113018360D01*
X142079037Y-112997353D01*
X142104162Y-112978719D01*
X142130992Y-112962638D01*
X142159270Y-112949263D01*
X142188722Y-112938725D01*
X142219065Y-112931125D01*
X142250007Y-112926535D01*
X142281250Y-112925000D01*
X142918750Y-112925000D01*
X142949993Y-112926535D01*
X142949993Y-112926535D01*
G37*
D16*
X142600000Y-113600000D03*
D13*
G36*
X156789943Y-108464155D02*
G01*
X156823312Y-108469105D01*
X156856035Y-108477302D01*
X156887797Y-108488666D01*
X156918293Y-108503090D01*
X156947227Y-108520432D01*
X156974323Y-108540528D01*
X156999318Y-108563182D01*
X157021972Y-108588177D01*
X157042068Y-108615273D01*
X157059410Y-108644207D01*
X157073834Y-108674703D01*
X157085198Y-108706465D01*
X157093395Y-108739188D01*
X157098345Y-108772557D01*
X157100000Y-108806250D01*
X157100000Y-109493750D01*
X157098345Y-109527443D01*
X157093395Y-109560812D01*
X157085198Y-109593535D01*
X157073834Y-109625297D01*
X157059410Y-109655793D01*
X157042068Y-109684727D01*
X157021972Y-109711823D01*
X156999318Y-109736818D01*
X156974323Y-109759472D01*
X156947227Y-109779568D01*
X156918293Y-109796910D01*
X156887797Y-109811334D01*
X156856035Y-109822698D01*
X156823312Y-109830895D01*
X156789943Y-109835845D01*
X156756250Y-109837500D01*
X155643750Y-109837500D01*
X155610057Y-109835845D01*
X155576688Y-109830895D01*
X155543965Y-109822698D01*
X155512203Y-109811334D01*
X155481707Y-109796910D01*
X155452773Y-109779568D01*
X155425677Y-109759472D01*
X155400682Y-109736818D01*
X155378028Y-109711823D01*
X155357932Y-109684727D01*
X155340590Y-109655793D01*
X155326166Y-109625297D01*
X155314802Y-109593535D01*
X155306605Y-109560812D01*
X155301655Y-109527443D01*
X155300000Y-109493750D01*
X155300000Y-108806250D01*
X155301655Y-108772557D01*
X155306605Y-108739188D01*
X155314802Y-108706465D01*
X155326166Y-108674703D01*
X155340590Y-108644207D01*
X155357932Y-108615273D01*
X155378028Y-108588177D01*
X155400682Y-108563182D01*
X155425677Y-108540528D01*
X155452773Y-108520432D01*
X155481707Y-108503090D01*
X155512203Y-108488666D01*
X155543965Y-108477302D01*
X155576688Y-108469105D01*
X155610057Y-108464155D01*
X155643750Y-108462500D01*
X156756250Y-108462500D01*
X156789943Y-108464155D01*
X156789943Y-108464155D01*
G37*
D17*
X156200000Y-109150000D03*
D13*
G36*
X156789943Y-106589155D02*
G01*
X156823312Y-106594105D01*
X156856035Y-106602302D01*
X156887797Y-106613666D01*
X156918293Y-106628090D01*
X156947227Y-106645432D01*
X156974323Y-106665528D01*
X156999318Y-106688182D01*
X157021972Y-106713177D01*
X157042068Y-106740273D01*
X157059410Y-106769207D01*
X157073834Y-106799703D01*
X157085198Y-106831465D01*
X157093395Y-106864188D01*
X157098345Y-106897557D01*
X157100000Y-106931250D01*
X157100000Y-107618750D01*
X157098345Y-107652443D01*
X157093395Y-107685812D01*
X157085198Y-107718535D01*
X157073834Y-107750297D01*
X157059410Y-107780793D01*
X157042068Y-107809727D01*
X157021972Y-107836823D01*
X156999318Y-107861818D01*
X156974323Y-107884472D01*
X156947227Y-107904568D01*
X156918293Y-107921910D01*
X156887797Y-107936334D01*
X156856035Y-107947698D01*
X156823312Y-107955895D01*
X156789943Y-107960845D01*
X156756250Y-107962500D01*
X155643750Y-107962500D01*
X155610057Y-107960845D01*
X155576688Y-107955895D01*
X155543965Y-107947698D01*
X155512203Y-107936334D01*
X155481707Y-107921910D01*
X155452773Y-107904568D01*
X155425677Y-107884472D01*
X155400682Y-107861818D01*
X155378028Y-107836823D01*
X155357932Y-107809727D01*
X155340590Y-107780793D01*
X155326166Y-107750297D01*
X155314802Y-107718535D01*
X155306605Y-107685812D01*
X155301655Y-107652443D01*
X155300000Y-107618750D01*
X155300000Y-106931250D01*
X155301655Y-106897557D01*
X155306605Y-106864188D01*
X155314802Y-106831465D01*
X155326166Y-106799703D01*
X155340590Y-106769207D01*
X155357932Y-106740273D01*
X155378028Y-106713177D01*
X155400682Y-106688182D01*
X155425677Y-106665528D01*
X155452773Y-106645432D01*
X155481707Y-106628090D01*
X155512203Y-106613666D01*
X155543965Y-106602302D01*
X155576688Y-106594105D01*
X155610057Y-106589155D01*
X155643750Y-106587500D01*
X156756250Y-106587500D01*
X156789943Y-106589155D01*
X156789943Y-106589155D01*
G37*
D17*
X156200000Y-107275000D03*
D13*
G36*
X146439943Y-121226655D02*
G01*
X146473312Y-121231605D01*
X146506035Y-121239802D01*
X146537797Y-121251166D01*
X146568293Y-121265590D01*
X146597227Y-121282932D01*
X146624323Y-121303028D01*
X146649318Y-121325682D01*
X146671972Y-121350677D01*
X146692068Y-121377773D01*
X146709410Y-121406707D01*
X146723834Y-121437203D01*
X146735198Y-121468965D01*
X146743395Y-121501688D01*
X146748345Y-121535057D01*
X146750000Y-121568750D01*
X146750000Y-122256250D01*
X146748345Y-122289943D01*
X146743395Y-122323312D01*
X146735198Y-122356035D01*
X146723834Y-122387797D01*
X146709410Y-122418293D01*
X146692068Y-122447227D01*
X146671972Y-122474323D01*
X146649318Y-122499318D01*
X146624323Y-122521972D01*
X146597227Y-122542068D01*
X146568293Y-122559410D01*
X146537797Y-122573834D01*
X146506035Y-122585198D01*
X146473312Y-122593395D01*
X146439943Y-122598345D01*
X146406250Y-122600000D01*
X145293750Y-122600000D01*
X145260057Y-122598345D01*
X145226688Y-122593395D01*
X145193965Y-122585198D01*
X145162203Y-122573834D01*
X145131707Y-122559410D01*
X145102773Y-122542068D01*
X145075677Y-122521972D01*
X145050682Y-122499318D01*
X145028028Y-122474323D01*
X145007932Y-122447227D01*
X144990590Y-122418293D01*
X144976166Y-122387797D01*
X144964802Y-122356035D01*
X144956605Y-122323312D01*
X144951655Y-122289943D01*
X144950000Y-122256250D01*
X144950000Y-121568750D01*
X144951655Y-121535057D01*
X144956605Y-121501688D01*
X144964802Y-121468965D01*
X144976166Y-121437203D01*
X144990590Y-121406707D01*
X145007932Y-121377773D01*
X145028028Y-121350677D01*
X145050682Y-121325682D01*
X145075677Y-121303028D01*
X145102773Y-121282932D01*
X145131707Y-121265590D01*
X145162203Y-121251166D01*
X145193965Y-121239802D01*
X145226688Y-121231605D01*
X145260057Y-121226655D01*
X145293750Y-121225000D01*
X146406250Y-121225000D01*
X146439943Y-121226655D01*
X146439943Y-121226655D01*
G37*
D17*
X145850000Y-121912500D03*
D13*
G36*
X146439943Y-123101655D02*
G01*
X146473312Y-123106605D01*
X146506035Y-123114802D01*
X146537797Y-123126166D01*
X146568293Y-123140590D01*
X146597227Y-123157932D01*
X146624323Y-123178028D01*
X146649318Y-123200682D01*
X146671972Y-123225677D01*
X146692068Y-123252773D01*
X146709410Y-123281707D01*
X146723834Y-123312203D01*
X146735198Y-123343965D01*
X146743395Y-123376688D01*
X146748345Y-123410057D01*
X146750000Y-123443750D01*
X146750000Y-124131250D01*
X146748345Y-124164943D01*
X146743395Y-124198312D01*
X146735198Y-124231035D01*
X146723834Y-124262797D01*
X146709410Y-124293293D01*
X146692068Y-124322227D01*
X146671972Y-124349323D01*
X146649318Y-124374318D01*
X146624323Y-124396972D01*
X146597227Y-124417068D01*
X146568293Y-124434410D01*
X146537797Y-124448834D01*
X146506035Y-124460198D01*
X146473312Y-124468395D01*
X146439943Y-124473345D01*
X146406250Y-124475000D01*
X145293750Y-124475000D01*
X145260057Y-124473345D01*
X145226688Y-124468395D01*
X145193965Y-124460198D01*
X145162203Y-124448834D01*
X145131707Y-124434410D01*
X145102773Y-124417068D01*
X145075677Y-124396972D01*
X145050682Y-124374318D01*
X145028028Y-124349323D01*
X145007932Y-124322227D01*
X144990590Y-124293293D01*
X144976166Y-124262797D01*
X144964802Y-124231035D01*
X144956605Y-124198312D01*
X144951655Y-124164943D01*
X144950000Y-124131250D01*
X144950000Y-123443750D01*
X144951655Y-123410057D01*
X144956605Y-123376688D01*
X144964802Y-123343965D01*
X144976166Y-123312203D01*
X144990590Y-123281707D01*
X145007932Y-123252773D01*
X145028028Y-123225677D01*
X145050682Y-123200682D01*
X145075677Y-123178028D01*
X145102773Y-123157932D01*
X145131707Y-123140590D01*
X145162203Y-123126166D01*
X145193965Y-123114802D01*
X145226688Y-123106605D01*
X145260057Y-123101655D01*
X145293750Y-123100000D01*
X146406250Y-123100000D01*
X146439943Y-123101655D01*
X146439943Y-123101655D01*
G37*
D17*
X145850000Y-123787500D03*
D13*
G36*
X143989943Y-123101655D02*
G01*
X144023312Y-123106605D01*
X144056035Y-123114802D01*
X144087797Y-123126166D01*
X144118293Y-123140590D01*
X144147227Y-123157932D01*
X144174323Y-123178028D01*
X144199318Y-123200682D01*
X144221972Y-123225677D01*
X144242068Y-123252773D01*
X144259410Y-123281707D01*
X144273834Y-123312203D01*
X144285198Y-123343965D01*
X144293395Y-123376688D01*
X144298345Y-123410057D01*
X144300000Y-123443750D01*
X144300000Y-124131250D01*
X144298345Y-124164943D01*
X144293395Y-124198312D01*
X144285198Y-124231035D01*
X144273834Y-124262797D01*
X144259410Y-124293293D01*
X144242068Y-124322227D01*
X144221972Y-124349323D01*
X144199318Y-124374318D01*
X144174323Y-124396972D01*
X144147227Y-124417068D01*
X144118293Y-124434410D01*
X144087797Y-124448834D01*
X144056035Y-124460198D01*
X144023312Y-124468395D01*
X143989943Y-124473345D01*
X143956250Y-124475000D01*
X142843750Y-124475000D01*
X142810057Y-124473345D01*
X142776688Y-124468395D01*
X142743965Y-124460198D01*
X142712203Y-124448834D01*
X142681707Y-124434410D01*
X142652773Y-124417068D01*
X142625677Y-124396972D01*
X142600682Y-124374318D01*
X142578028Y-124349323D01*
X142557932Y-124322227D01*
X142540590Y-124293293D01*
X142526166Y-124262797D01*
X142514802Y-124231035D01*
X142506605Y-124198312D01*
X142501655Y-124164943D01*
X142500000Y-124131250D01*
X142500000Y-123443750D01*
X142501655Y-123410057D01*
X142506605Y-123376688D01*
X142514802Y-123343965D01*
X142526166Y-123312203D01*
X142540590Y-123281707D01*
X142557932Y-123252773D01*
X142578028Y-123225677D01*
X142600682Y-123200682D01*
X142625677Y-123178028D01*
X142652773Y-123157932D01*
X142681707Y-123140590D01*
X142712203Y-123126166D01*
X142743965Y-123114802D01*
X142776688Y-123106605D01*
X142810057Y-123101655D01*
X142843750Y-123100000D01*
X143956250Y-123100000D01*
X143989943Y-123101655D01*
X143989943Y-123101655D01*
G37*
D17*
X143400000Y-123787500D03*
D13*
G36*
X143989943Y-121226655D02*
G01*
X144023312Y-121231605D01*
X144056035Y-121239802D01*
X144087797Y-121251166D01*
X144118293Y-121265590D01*
X144147227Y-121282932D01*
X144174323Y-121303028D01*
X144199318Y-121325682D01*
X144221972Y-121350677D01*
X144242068Y-121377773D01*
X144259410Y-121406707D01*
X144273834Y-121437203D01*
X144285198Y-121468965D01*
X144293395Y-121501688D01*
X144298345Y-121535057D01*
X144300000Y-121568750D01*
X144300000Y-122256250D01*
X144298345Y-122289943D01*
X144293395Y-122323312D01*
X144285198Y-122356035D01*
X144273834Y-122387797D01*
X144259410Y-122418293D01*
X144242068Y-122447227D01*
X144221972Y-122474323D01*
X144199318Y-122499318D01*
X144174323Y-122521972D01*
X144147227Y-122542068D01*
X144118293Y-122559410D01*
X144087797Y-122573834D01*
X144056035Y-122585198D01*
X144023312Y-122593395D01*
X143989943Y-122598345D01*
X143956250Y-122600000D01*
X142843750Y-122600000D01*
X142810057Y-122598345D01*
X142776688Y-122593395D01*
X142743965Y-122585198D01*
X142712203Y-122573834D01*
X142681707Y-122559410D01*
X142652773Y-122542068D01*
X142625677Y-122521972D01*
X142600682Y-122499318D01*
X142578028Y-122474323D01*
X142557932Y-122447227D01*
X142540590Y-122418293D01*
X142526166Y-122387797D01*
X142514802Y-122356035D01*
X142506605Y-122323312D01*
X142501655Y-122289943D01*
X142500000Y-122256250D01*
X142500000Y-121568750D01*
X142501655Y-121535057D01*
X142506605Y-121501688D01*
X142514802Y-121468965D01*
X142526166Y-121437203D01*
X142540590Y-121406707D01*
X142557932Y-121377773D01*
X142578028Y-121350677D01*
X142600682Y-121325682D01*
X142625677Y-121303028D01*
X142652773Y-121282932D01*
X142681707Y-121265590D01*
X142712203Y-121251166D01*
X142743965Y-121239802D01*
X142776688Y-121231605D01*
X142810057Y-121226655D01*
X142843750Y-121225000D01*
X143956250Y-121225000D01*
X143989943Y-121226655D01*
X143989943Y-121226655D01*
G37*
D17*
X143400000Y-121912500D03*
D11*
X156200000Y-101750000D03*
X153200000Y-101750000D03*
X150200000Y-101750000D03*
X147200000Y-101750000D03*
X156200000Y-96450000D03*
X150200000Y-96450000D03*
X147200000Y-96450000D03*
X153200000Y-96450000D03*
X145800000Y-94400000D03*
X157600000Y-94400000D03*
X157600000Y-103800000D03*
X145800000Y-103800000D03*
D18*
X168230000Y-119000000D03*
X168230000Y-99500000D03*
X103460000Y-99390000D03*
X103460000Y-118890000D03*
D13*
G36*
X150237493Y-122989035D02*
G01*
X150268435Y-122993625D01*
X150298778Y-123001225D01*
X150328230Y-123011763D01*
X150356508Y-123025138D01*
X150383338Y-123041219D01*
X150408463Y-123059853D01*
X150431640Y-123080860D01*
X150452647Y-123104037D01*
X150471281Y-123129162D01*
X150487362Y-123155992D01*
X150500737Y-123184270D01*
X150511275Y-123213722D01*
X150518875Y-123244065D01*
X150523465Y-123275007D01*
X150525000Y-123306250D01*
X150525000Y-123943750D01*
X150523465Y-123974993D01*
X150518875Y-124005935D01*
X150511275Y-124036278D01*
X150500737Y-124065730D01*
X150487362Y-124094008D01*
X150471281Y-124120838D01*
X150452647Y-124145963D01*
X150431640Y-124169140D01*
X150408463Y-124190147D01*
X150383338Y-124208781D01*
X150356508Y-124224862D01*
X150328230Y-124238237D01*
X150298778Y-124248775D01*
X150268435Y-124256375D01*
X150237493Y-124260965D01*
X150206250Y-124262500D01*
X149493750Y-124262500D01*
X149462507Y-124260965D01*
X149431565Y-124256375D01*
X149401222Y-124248775D01*
X149371770Y-124238237D01*
X149343492Y-124224862D01*
X149316662Y-124208781D01*
X149291537Y-124190147D01*
X149268360Y-124169140D01*
X149247353Y-124145963D01*
X149228719Y-124120838D01*
X149212638Y-124094008D01*
X149199263Y-124065730D01*
X149188725Y-124036278D01*
X149181125Y-124005935D01*
X149176535Y-123974993D01*
X149175000Y-123943750D01*
X149175000Y-123306250D01*
X149176535Y-123275007D01*
X149181125Y-123244065D01*
X149188725Y-123213722D01*
X149199263Y-123184270D01*
X149212638Y-123155992D01*
X149228719Y-123129162D01*
X149247353Y-123104037D01*
X149268360Y-123080860D01*
X149291537Y-123059853D01*
X149316662Y-123041219D01*
X149343492Y-123025138D01*
X149371770Y-123011763D01*
X149401222Y-123001225D01*
X149431565Y-122993625D01*
X149462507Y-122989035D01*
X149493750Y-122987500D01*
X150206250Y-122987500D01*
X150237493Y-122989035D01*
X150237493Y-122989035D01*
G37*
D16*
X149850000Y-123625000D03*
D13*
G36*
X150237493Y-121414035D02*
G01*
X150268435Y-121418625D01*
X150298778Y-121426225D01*
X150328230Y-121436763D01*
X150356508Y-121450138D01*
X150383338Y-121466219D01*
X150408463Y-121484853D01*
X150431640Y-121505860D01*
X150452647Y-121529037D01*
X150471281Y-121554162D01*
X150487362Y-121580992D01*
X150500737Y-121609270D01*
X150511275Y-121638722D01*
X150518875Y-121669065D01*
X150523465Y-121700007D01*
X150525000Y-121731250D01*
X150525000Y-122368750D01*
X150523465Y-122399993D01*
X150518875Y-122430935D01*
X150511275Y-122461278D01*
X150500737Y-122490730D01*
X150487362Y-122519008D01*
X150471281Y-122545838D01*
X150452647Y-122570963D01*
X150431640Y-122594140D01*
X150408463Y-122615147D01*
X150383338Y-122633781D01*
X150356508Y-122649862D01*
X150328230Y-122663237D01*
X150298778Y-122673775D01*
X150268435Y-122681375D01*
X150237493Y-122685965D01*
X150206250Y-122687500D01*
X149493750Y-122687500D01*
X149462507Y-122685965D01*
X149431565Y-122681375D01*
X149401222Y-122673775D01*
X149371770Y-122663237D01*
X149343492Y-122649862D01*
X149316662Y-122633781D01*
X149291537Y-122615147D01*
X149268360Y-122594140D01*
X149247353Y-122570963D01*
X149228719Y-122545838D01*
X149212638Y-122519008D01*
X149199263Y-122490730D01*
X149188725Y-122461278D01*
X149181125Y-122430935D01*
X149176535Y-122399993D01*
X149175000Y-122368750D01*
X149175000Y-121731250D01*
X149176535Y-121700007D01*
X149181125Y-121669065D01*
X149188725Y-121638722D01*
X149199263Y-121609270D01*
X149212638Y-121580992D01*
X149228719Y-121554162D01*
X149247353Y-121529037D01*
X149268360Y-121505860D01*
X149291537Y-121484853D01*
X149316662Y-121466219D01*
X149343492Y-121450138D01*
X149371770Y-121436763D01*
X149401222Y-121426225D01*
X149431565Y-121418625D01*
X149462507Y-121414035D01*
X149493750Y-121412500D01*
X150206250Y-121412500D01*
X150237493Y-121414035D01*
X150237493Y-121414035D01*
G37*
D16*
X149850000Y-122050000D03*
D19*
X141300000Y-119100000D03*
X142250000Y-119100000D03*
X143200000Y-119100000D03*
X143200000Y-116900000D03*
X141300000Y-116900000D03*
X147750000Y-119100000D03*
X148700000Y-119100000D03*
X146800000Y-119100000D03*
X146800000Y-116900000D03*
X147750000Y-116900000D03*
X148700000Y-116900000D03*
X144700000Y-110850000D03*
X145650000Y-110850000D03*
X146600000Y-110850000D03*
X146600000Y-108650000D03*
X144700000Y-108650000D03*
X145650000Y-108650000D03*
D13*
G36*
X148237493Y-123001535D02*
G01*
X148268435Y-123006125D01*
X148298778Y-123013725D01*
X148328230Y-123024263D01*
X148356508Y-123037638D01*
X148383338Y-123053719D01*
X148408463Y-123072353D01*
X148431640Y-123093360D01*
X148452647Y-123116537D01*
X148471281Y-123141662D01*
X148487362Y-123168492D01*
X148500737Y-123196770D01*
X148511275Y-123226222D01*
X148518875Y-123256565D01*
X148523465Y-123287507D01*
X148525000Y-123318750D01*
X148525000Y-123956250D01*
X148523465Y-123987493D01*
X148518875Y-124018435D01*
X148511275Y-124048778D01*
X148500737Y-124078230D01*
X148487362Y-124106508D01*
X148471281Y-124133338D01*
X148452647Y-124158463D01*
X148431640Y-124181640D01*
X148408463Y-124202647D01*
X148383338Y-124221281D01*
X148356508Y-124237362D01*
X148328230Y-124250737D01*
X148298778Y-124261275D01*
X148268435Y-124268875D01*
X148237493Y-124273465D01*
X148206250Y-124275000D01*
X147493750Y-124275000D01*
X147462507Y-124273465D01*
X147431565Y-124268875D01*
X147401222Y-124261275D01*
X147371770Y-124250737D01*
X147343492Y-124237362D01*
X147316662Y-124221281D01*
X147291537Y-124202647D01*
X147268360Y-124181640D01*
X147247353Y-124158463D01*
X147228719Y-124133338D01*
X147212638Y-124106508D01*
X147199263Y-124078230D01*
X147188725Y-124048778D01*
X147181125Y-124018435D01*
X147176535Y-123987493D01*
X147175000Y-123956250D01*
X147175000Y-123318750D01*
X147176535Y-123287507D01*
X147181125Y-123256565D01*
X147188725Y-123226222D01*
X147199263Y-123196770D01*
X147212638Y-123168492D01*
X147228719Y-123141662D01*
X147247353Y-123116537D01*
X147268360Y-123093360D01*
X147291537Y-123072353D01*
X147316662Y-123053719D01*
X147343492Y-123037638D01*
X147371770Y-123024263D01*
X147401222Y-123013725D01*
X147431565Y-123006125D01*
X147462507Y-123001535D01*
X147493750Y-123000000D01*
X148206250Y-123000000D01*
X148237493Y-123001535D01*
X148237493Y-123001535D01*
G37*
D16*
X147850000Y-123637500D03*
D13*
G36*
X148237493Y-121426535D02*
G01*
X148268435Y-121431125D01*
X148298778Y-121438725D01*
X148328230Y-121449263D01*
X148356508Y-121462638D01*
X148383338Y-121478719D01*
X148408463Y-121497353D01*
X148431640Y-121518360D01*
X148452647Y-121541537D01*
X148471281Y-121566662D01*
X148487362Y-121593492D01*
X148500737Y-121621770D01*
X148511275Y-121651222D01*
X148518875Y-121681565D01*
X148523465Y-121712507D01*
X148525000Y-121743750D01*
X148525000Y-122381250D01*
X148523465Y-122412493D01*
X148518875Y-122443435D01*
X148511275Y-122473778D01*
X148500737Y-122503230D01*
X148487362Y-122531508D01*
X148471281Y-122558338D01*
X148452647Y-122583463D01*
X148431640Y-122606640D01*
X148408463Y-122627647D01*
X148383338Y-122646281D01*
X148356508Y-122662362D01*
X148328230Y-122675737D01*
X148298778Y-122686275D01*
X148268435Y-122693875D01*
X148237493Y-122698465D01*
X148206250Y-122700000D01*
X147493750Y-122700000D01*
X147462507Y-122698465D01*
X147431565Y-122693875D01*
X147401222Y-122686275D01*
X147371770Y-122675737D01*
X147343492Y-122662362D01*
X147316662Y-122646281D01*
X147291537Y-122627647D01*
X147268360Y-122606640D01*
X147247353Y-122583463D01*
X147228719Y-122558338D01*
X147212638Y-122531508D01*
X147199263Y-122503230D01*
X147188725Y-122473778D01*
X147181125Y-122443435D01*
X147176535Y-122412493D01*
X147175000Y-122381250D01*
X147175000Y-121743750D01*
X147176535Y-121712507D01*
X147181125Y-121681565D01*
X147188725Y-121651222D01*
X147199263Y-121621770D01*
X147212638Y-121593492D01*
X147228719Y-121566662D01*
X147247353Y-121541537D01*
X147268360Y-121518360D01*
X147291537Y-121497353D01*
X147316662Y-121478719D01*
X147343492Y-121462638D01*
X147371770Y-121449263D01*
X147401222Y-121438725D01*
X147431565Y-121431125D01*
X147462507Y-121426535D01*
X147493750Y-121425000D01*
X148206250Y-121425000D01*
X148237493Y-121426535D01*
X148237493Y-121426535D01*
G37*
D16*
X147850000Y-122062500D03*
D13*
G36*
X151137493Y-111326535D02*
G01*
X151168435Y-111331125D01*
X151198778Y-111338725D01*
X151228230Y-111349263D01*
X151256508Y-111362638D01*
X151283338Y-111378719D01*
X151308463Y-111397353D01*
X151331640Y-111418360D01*
X151352647Y-111441537D01*
X151371281Y-111466662D01*
X151387362Y-111493492D01*
X151400737Y-111521770D01*
X151411275Y-111551222D01*
X151418875Y-111581565D01*
X151423465Y-111612507D01*
X151425000Y-111643750D01*
X151425000Y-112281250D01*
X151423465Y-112312493D01*
X151418875Y-112343435D01*
X151411275Y-112373778D01*
X151400737Y-112403230D01*
X151387362Y-112431508D01*
X151371281Y-112458338D01*
X151352647Y-112483463D01*
X151331640Y-112506640D01*
X151308463Y-112527647D01*
X151283338Y-112546281D01*
X151256508Y-112562362D01*
X151228230Y-112575737D01*
X151198778Y-112586275D01*
X151168435Y-112593875D01*
X151137493Y-112598465D01*
X151106250Y-112600000D01*
X150393750Y-112600000D01*
X150362507Y-112598465D01*
X150331565Y-112593875D01*
X150301222Y-112586275D01*
X150271770Y-112575737D01*
X150243492Y-112562362D01*
X150216662Y-112546281D01*
X150191537Y-112527647D01*
X150168360Y-112506640D01*
X150147353Y-112483463D01*
X150128719Y-112458338D01*
X150112638Y-112431508D01*
X150099263Y-112403230D01*
X150088725Y-112373778D01*
X150081125Y-112343435D01*
X150076535Y-112312493D01*
X150075000Y-112281250D01*
X150075000Y-111643750D01*
X150076535Y-111612507D01*
X150081125Y-111581565D01*
X150088725Y-111551222D01*
X150099263Y-111521770D01*
X150112638Y-111493492D01*
X150128719Y-111466662D01*
X150147353Y-111441537D01*
X150168360Y-111418360D01*
X150191537Y-111397353D01*
X150216662Y-111378719D01*
X150243492Y-111362638D01*
X150271770Y-111349263D01*
X150301222Y-111338725D01*
X150331565Y-111331125D01*
X150362507Y-111326535D01*
X150393750Y-111325000D01*
X151106250Y-111325000D01*
X151137493Y-111326535D01*
X151137493Y-111326535D01*
G37*
D16*
X150750000Y-111962500D03*
D13*
G36*
X151137493Y-112901535D02*
G01*
X151168435Y-112906125D01*
X151198778Y-112913725D01*
X151228230Y-112924263D01*
X151256508Y-112937638D01*
X151283338Y-112953719D01*
X151308463Y-112972353D01*
X151331640Y-112993360D01*
X151352647Y-113016537D01*
X151371281Y-113041662D01*
X151387362Y-113068492D01*
X151400737Y-113096770D01*
X151411275Y-113126222D01*
X151418875Y-113156565D01*
X151423465Y-113187507D01*
X151425000Y-113218750D01*
X151425000Y-113856250D01*
X151423465Y-113887493D01*
X151418875Y-113918435D01*
X151411275Y-113948778D01*
X151400737Y-113978230D01*
X151387362Y-114006508D01*
X151371281Y-114033338D01*
X151352647Y-114058463D01*
X151331640Y-114081640D01*
X151308463Y-114102647D01*
X151283338Y-114121281D01*
X151256508Y-114137362D01*
X151228230Y-114150737D01*
X151198778Y-114161275D01*
X151168435Y-114168875D01*
X151137493Y-114173465D01*
X151106250Y-114175000D01*
X150393750Y-114175000D01*
X150362507Y-114173465D01*
X150331565Y-114168875D01*
X150301222Y-114161275D01*
X150271770Y-114150737D01*
X150243492Y-114137362D01*
X150216662Y-114121281D01*
X150191537Y-114102647D01*
X150168360Y-114081640D01*
X150147353Y-114058463D01*
X150128719Y-114033338D01*
X150112638Y-114006508D01*
X150099263Y-113978230D01*
X150088725Y-113948778D01*
X150081125Y-113918435D01*
X150076535Y-113887493D01*
X150075000Y-113856250D01*
X150075000Y-113218750D01*
X150076535Y-113187507D01*
X150081125Y-113156565D01*
X150088725Y-113126222D01*
X150099263Y-113096770D01*
X150112638Y-113068492D01*
X150128719Y-113041662D01*
X150147353Y-113016537D01*
X150168360Y-112993360D01*
X150191537Y-112972353D01*
X150216662Y-112953719D01*
X150243492Y-112937638D01*
X150271770Y-112924263D01*
X150301222Y-112913725D01*
X150331565Y-112906125D01*
X150362507Y-112901535D01*
X150393750Y-112900000D01*
X151106250Y-112900000D01*
X151137493Y-112901535D01*
X151137493Y-112901535D01*
G37*
D16*
X150750000Y-113537500D03*
D13*
G36*
X139887493Y-99076535D02*
G01*
X139918435Y-99081125D01*
X139948778Y-99088725D01*
X139978230Y-99099263D01*
X140006508Y-99112638D01*
X140033338Y-99128719D01*
X140058463Y-99147353D01*
X140081640Y-99168360D01*
X140102647Y-99191537D01*
X140121281Y-99216662D01*
X140137362Y-99243492D01*
X140150737Y-99271770D01*
X140161275Y-99301222D01*
X140168875Y-99331565D01*
X140173465Y-99362507D01*
X140175000Y-99393750D01*
X140175000Y-100031250D01*
X140173465Y-100062493D01*
X140168875Y-100093435D01*
X140161275Y-100123778D01*
X140150737Y-100153230D01*
X140137362Y-100181508D01*
X140121281Y-100208338D01*
X140102647Y-100233463D01*
X140081640Y-100256640D01*
X140058463Y-100277647D01*
X140033338Y-100296281D01*
X140006508Y-100312362D01*
X139978230Y-100325737D01*
X139948778Y-100336275D01*
X139918435Y-100343875D01*
X139887493Y-100348465D01*
X139856250Y-100350000D01*
X139143750Y-100350000D01*
X139112507Y-100348465D01*
X139081565Y-100343875D01*
X139051222Y-100336275D01*
X139021770Y-100325737D01*
X138993492Y-100312362D01*
X138966662Y-100296281D01*
X138941537Y-100277647D01*
X138918360Y-100256640D01*
X138897353Y-100233463D01*
X138878719Y-100208338D01*
X138862638Y-100181508D01*
X138849263Y-100153230D01*
X138838725Y-100123778D01*
X138831125Y-100093435D01*
X138826535Y-100062493D01*
X138825000Y-100031250D01*
X138825000Y-99393750D01*
X138826535Y-99362507D01*
X138831125Y-99331565D01*
X138838725Y-99301222D01*
X138849263Y-99271770D01*
X138862638Y-99243492D01*
X138878719Y-99216662D01*
X138897353Y-99191537D01*
X138918360Y-99168360D01*
X138941537Y-99147353D01*
X138966662Y-99128719D01*
X138993492Y-99112638D01*
X139021770Y-99099263D01*
X139051222Y-99088725D01*
X139081565Y-99081125D01*
X139112507Y-99076535D01*
X139143750Y-99075000D01*
X139856250Y-99075000D01*
X139887493Y-99076535D01*
X139887493Y-99076535D01*
G37*
D16*
X139500000Y-99712500D03*
D13*
G36*
X139887493Y-100651535D02*
G01*
X139918435Y-100656125D01*
X139948778Y-100663725D01*
X139978230Y-100674263D01*
X140006508Y-100687638D01*
X140033338Y-100703719D01*
X140058463Y-100722353D01*
X140081640Y-100743360D01*
X140102647Y-100766537D01*
X140121281Y-100791662D01*
X140137362Y-100818492D01*
X140150737Y-100846770D01*
X140161275Y-100876222D01*
X140168875Y-100906565D01*
X140173465Y-100937507D01*
X140175000Y-100968750D01*
X140175000Y-101606250D01*
X140173465Y-101637493D01*
X140168875Y-101668435D01*
X140161275Y-101698778D01*
X140150737Y-101728230D01*
X140137362Y-101756508D01*
X140121281Y-101783338D01*
X140102647Y-101808463D01*
X140081640Y-101831640D01*
X140058463Y-101852647D01*
X140033338Y-101871281D01*
X140006508Y-101887362D01*
X139978230Y-101900737D01*
X139948778Y-101911275D01*
X139918435Y-101918875D01*
X139887493Y-101923465D01*
X139856250Y-101925000D01*
X139143750Y-101925000D01*
X139112507Y-101923465D01*
X139081565Y-101918875D01*
X139051222Y-101911275D01*
X139021770Y-101900737D01*
X138993492Y-101887362D01*
X138966662Y-101871281D01*
X138941537Y-101852647D01*
X138918360Y-101831640D01*
X138897353Y-101808463D01*
X138878719Y-101783338D01*
X138862638Y-101756508D01*
X138849263Y-101728230D01*
X138838725Y-101698778D01*
X138831125Y-101668435D01*
X138826535Y-101637493D01*
X138825000Y-101606250D01*
X138825000Y-100968750D01*
X138826535Y-100937507D01*
X138831125Y-100906565D01*
X138838725Y-100876222D01*
X138849263Y-100846770D01*
X138862638Y-100818492D01*
X138878719Y-100791662D01*
X138897353Y-100766537D01*
X138918360Y-100743360D01*
X138941537Y-100722353D01*
X138966662Y-100703719D01*
X138993492Y-100687638D01*
X139021770Y-100674263D01*
X139051222Y-100663725D01*
X139081565Y-100656125D01*
X139112507Y-100651535D01*
X139143750Y-100650000D01*
X139856250Y-100650000D01*
X139887493Y-100651535D01*
X139887493Y-100651535D01*
G37*
D16*
X139500000Y-101287500D03*
D13*
G36*
X152237493Y-123001535D02*
G01*
X152268435Y-123006125D01*
X152298778Y-123013725D01*
X152328230Y-123024263D01*
X152356508Y-123037638D01*
X152383338Y-123053719D01*
X152408463Y-123072353D01*
X152431640Y-123093360D01*
X152452647Y-123116537D01*
X152471281Y-123141662D01*
X152487362Y-123168492D01*
X152500737Y-123196770D01*
X152511275Y-123226222D01*
X152518875Y-123256565D01*
X152523465Y-123287507D01*
X152525000Y-123318750D01*
X152525000Y-123956250D01*
X152523465Y-123987493D01*
X152518875Y-124018435D01*
X152511275Y-124048778D01*
X152500737Y-124078230D01*
X152487362Y-124106508D01*
X152471281Y-124133338D01*
X152452647Y-124158463D01*
X152431640Y-124181640D01*
X152408463Y-124202647D01*
X152383338Y-124221281D01*
X152356508Y-124237362D01*
X152328230Y-124250737D01*
X152298778Y-124261275D01*
X152268435Y-124268875D01*
X152237493Y-124273465D01*
X152206250Y-124275000D01*
X151493750Y-124275000D01*
X151462507Y-124273465D01*
X151431565Y-124268875D01*
X151401222Y-124261275D01*
X151371770Y-124250737D01*
X151343492Y-124237362D01*
X151316662Y-124221281D01*
X151291537Y-124202647D01*
X151268360Y-124181640D01*
X151247353Y-124158463D01*
X151228719Y-124133338D01*
X151212638Y-124106508D01*
X151199263Y-124078230D01*
X151188725Y-124048778D01*
X151181125Y-124018435D01*
X151176535Y-123987493D01*
X151175000Y-123956250D01*
X151175000Y-123318750D01*
X151176535Y-123287507D01*
X151181125Y-123256565D01*
X151188725Y-123226222D01*
X151199263Y-123196770D01*
X151212638Y-123168492D01*
X151228719Y-123141662D01*
X151247353Y-123116537D01*
X151268360Y-123093360D01*
X151291537Y-123072353D01*
X151316662Y-123053719D01*
X151343492Y-123037638D01*
X151371770Y-123024263D01*
X151401222Y-123013725D01*
X151431565Y-123006125D01*
X151462507Y-123001535D01*
X151493750Y-123000000D01*
X152206250Y-123000000D01*
X152237493Y-123001535D01*
X152237493Y-123001535D01*
G37*
D16*
X151850000Y-123637500D03*
D13*
G36*
X152237493Y-121426535D02*
G01*
X152268435Y-121431125D01*
X152298778Y-121438725D01*
X152328230Y-121449263D01*
X152356508Y-121462638D01*
X152383338Y-121478719D01*
X152408463Y-121497353D01*
X152431640Y-121518360D01*
X152452647Y-121541537D01*
X152471281Y-121566662D01*
X152487362Y-121593492D01*
X152500737Y-121621770D01*
X152511275Y-121651222D01*
X152518875Y-121681565D01*
X152523465Y-121712507D01*
X152525000Y-121743750D01*
X152525000Y-122381250D01*
X152523465Y-122412493D01*
X152518875Y-122443435D01*
X152511275Y-122473778D01*
X152500737Y-122503230D01*
X152487362Y-122531508D01*
X152471281Y-122558338D01*
X152452647Y-122583463D01*
X152431640Y-122606640D01*
X152408463Y-122627647D01*
X152383338Y-122646281D01*
X152356508Y-122662362D01*
X152328230Y-122675737D01*
X152298778Y-122686275D01*
X152268435Y-122693875D01*
X152237493Y-122698465D01*
X152206250Y-122700000D01*
X151493750Y-122700000D01*
X151462507Y-122698465D01*
X151431565Y-122693875D01*
X151401222Y-122686275D01*
X151371770Y-122675737D01*
X151343492Y-122662362D01*
X151316662Y-122646281D01*
X151291537Y-122627647D01*
X151268360Y-122606640D01*
X151247353Y-122583463D01*
X151228719Y-122558338D01*
X151212638Y-122531508D01*
X151199263Y-122503230D01*
X151188725Y-122473778D01*
X151181125Y-122443435D01*
X151176535Y-122412493D01*
X151175000Y-122381250D01*
X151175000Y-121743750D01*
X151176535Y-121712507D01*
X151181125Y-121681565D01*
X151188725Y-121651222D01*
X151199263Y-121621770D01*
X151212638Y-121593492D01*
X151228719Y-121566662D01*
X151247353Y-121541537D01*
X151268360Y-121518360D01*
X151291537Y-121497353D01*
X151316662Y-121478719D01*
X151343492Y-121462638D01*
X151371770Y-121449263D01*
X151401222Y-121438725D01*
X151431565Y-121431125D01*
X151462507Y-121426535D01*
X151493750Y-121425000D01*
X152206250Y-121425000D01*
X152237493Y-121426535D01*
X152237493Y-121426535D01*
G37*
D16*
X151850000Y-122062500D03*
D13*
G36*
X142387493Y-99076535D02*
G01*
X142418435Y-99081125D01*
X142448778Y-99088725D01*
X142478230Y-99099263D01*
X142506508Y-99112638D01*
X142533338Y-99128719D01*
X142558463Y-99147353D01*
X142581640Y-99168360D01*
X142602647Y-99191537D01*
X142621281Y-99216662D01*
X142637362Y-99243492D01*
X142650737Y-99271770D01*
X142661275Y-99301222D01*
X142668875Y-99331565D01*
X142673465Y-99362507D01*
X142675000Y-99393750D01*
X142675000Y-100031250D01*
X142673465Y-100062493D01*
X142668875Y-100093435D01*
X142661275Y-100123778D01*
X142650737Y-100153230D01*
X142637362Y-100181508D01*
X142621281Y-100208338D01*
X142602647Y-100233463D01*
X142581640Y-100256640D01*
X142558463Y-100277647D01*
X142533338Y-100296281D01*
X142506508Y-100312362D01*
X142478230Y-100325737D01*
X142448778Y-100336275D01*
X142418435Y-100343875D01*
X142387493Y-100348465D01*
X142356250Y-100350000D01*
X141643750Y-100350000D01*
X141612507Y-100348465D01*
X141581565Y-100343875D01*
X141551222Y-100336275D01*
X141521770Y-100325737D01*
X141493492Y-100312362D01*
X141466662Y-100296281D01*
X141441537Y-100277647D01*
X141418360Y-100256640D01*
X141397353Y-100233463D01*
X141378719Y-100208338D01*
X141362638Y-100181508D01*
X141349263Y-100153230D01*
X141338725Y-100123778D01*
X141331125Y-100093435D01*
X141326535Y-100062493D01*
X141325000Y-100031250D01*
X141325000Y-99393750D01*
X141326535Y-99362507D01*
X141331125Y-99331565D01*
X141338725Y-99301222D01*
X141349263Y-99271770D01*
X141362638Y-99243492D01*
X141378719Y-99216662D01*
X141397353Y-99191537D01*
X141418360Y-99168360D01*
X141441537Y-99147353D01*
X141466662Y-99128719D01*
X141493492Y-99112638D01*
X141521770Y-99099263D01*
X141551222Y-99088725D01*
X141581565Y-99081125D01*
X141612507Y-99076535D01*
X141643750Y-99075000D01*
X142356250Y-99075000D01*
X142387493Y-99076535D01*
X142387493Y-99076535D01*
G37*
D16*
X142000000Y-99712500D03*
D13*
G36*
X142387493Y-100651535D02*
G01*
X142418435Y-100656125D01*
X142448778Y-100663725D01*
X142478230Y-100674263D01*
X142506508Y-100687638D01*
X142533338Y-100703719D01*
X142558463Y-100722353D01*
X142581640Y-100743360D01*
X142602647Y-100766537D01*
X142621281Y-100791662D01*
X142637362Y-100818492D01*
X142650737Y-100846770D01*
X142661275Y-100876222D01*
X142668875Y-100906565D01*
X142673465Y-100937507D01*
X142675000Y-100968750D01*
X142675000Y-101606250D01*
X142673465Y-101637493D01*
X142668875Y-101668435D01*
X142661275Y-101698778D01*
X142650737Y-101728230D01*
X142637362Y-101756508D01*
X142621281Y-101783338D01*
X142602647Y-101808463D01*
X142581640Y-101831640D01*
X142558463Y-101852647D01*
X142533338Y-101871281D01*
X142506508Y-101887362D01*
X142478230Y-101900737D01*
X142448778Y-101911275D01*
X142418435Y-101918875D01*
X142387493Y-101923465D01*
X142356250Y-101925000D01*
X141643750Y-101925000D01*
X141612507Y-101923465D01*
X141581565Y-101918875D01*
X141551222Y-101911275D01*
X141521770Y-101900737D01*
X141493492Y-101887362D01*
X141466662Y-101871281D01*
X141441537Y-101852647D01*
X141418360Y-101831640D01*
X141397353Y-101808463D01*
X141378719Y-101783338D01*
X141362638Y-101756508D01*
X141349263Y-101728230D01*
X141338725Y-101698778D01*
X141331125Y-101668435D01*
X141326535Y-101637493D01*
X141325000Y-101606250D01*
X141325000Y-100968750D01*
X141326535Y-100937507D01*
X141331125Y-100906565D01*
X141338725Y-100876222D01*
X141349263Y-100846770D01*
X141362638Y-100818492D01*
X141378719Y-100791662D01*
X141397353Y-100766537D01*
X141418360Y-100743360D01*
X141441537Y-100722353D01*
X141466662Y-100703719D01*
X141493492Y-100687638D01*
X141521770Y-100674263D01*
X141551222Y-100663725D01*
X141581565Y-100656125D01*
X141612507Y-100651535D01*
X141643750Y-100650000D01*
X142356250Y-100650000D01*
X142387493Y-100651535D01*
X142387493Y-100651535D01*
G37*
D16*
X142000000Y-101287500D03*
D13*
G36*
X154237493Y-123001535D02*
G01*
X154268435Y-123006125D01*
X154298778Y-123013725D01*
X154328230Y-123024263D01*
X154356508Y-123037638D01*
X154383338Y-123053719D01*
X154408463Y-123072353D01*
X154431640Y-123093360D01*
X154452647Y-123116537D01*
X154471281Y-123141662D01*
X154487362Y-123168492D01*
X154500737Y-123196770D01*
X154511275Y-123226222D01*
X154518875Y-123256565D01*
X154523465Y-123287507D01*
X154525000Y-123318750D01*
X154525000Y-123956250D01*
X154523465Y-123987493D01*
X154518875Y-124018435D01*
X154511275Y-124048778D01*
X154500737Y-124078230D01*
X154487362Y-124106508D01*
X154471281Y-124133338D01*
X154452647Y-124158463D01*
X154431640Y-124181640D01*
X154408463Y-124202647D01*
X154383338Y-124221281D01*
X154356508Y-124237362D01*
X154328230Y-124250737D01*
X154298778Y-124261275D01*
X154268435Y-124268875D01*
X154237493Y-124273465D01*
X154206250Y-124275000D01*
X153493750Y-124275000D01*
X153462507Y-124273465D01*
X153431565Y-124268875D01*
X153401222Y-124261275D01*
X153371770Y-124250737D01*
X153343492Y-124237362D01*
X153316662Y-124221281D01*
X153291537Y-124202647D01*
X153268360Y-124181640D01*
X153247353Y-124158463D01*
X153228719Y-124133338D01*
X153212638Y-124106508D01*
X153199263Y-124078230D01*
X153188725Y-124048778D01*
X153181125Y-124018435D01*
X153176535Y-123987493D01*
X153175000Y-123956250D01*
X153175000Y-123318750D01*
X153176535Y-123287507D01*
X153181125Y-123256565D01*
X153188725Y-123226222D01*
X153199263Y-123196770D01*
X153212638Y-123168492D01*
X153228719Y-123141662D01*
X153247353Y-123116537D01*
X153268360Y-123093360D01*
X153291537Y-123072353D01*
X153316662Y-123053719D01*
X153343492Y-123037638D01*
X153371770Y-123024263D01*
X153401222Y-123013725D01*
X153431565Y-123006125D01*
X153462507Y-123001535D01*
X153493750Y-123000000D01*
X154206250Y-123000000D01*
X154237493Y-123001535D01*
X154237493Y-123001535D01*
G37*
D16*
X153850000Y-123637500D03*
D13*
G36*
X154237493Y-121426535D02*
G01*
X154268435Y-121431125D01*
X154298778Y-121438725D01*
X154328230Y-121449263D01*
X154356508Y-121462638D01*
X154383338Y-121478719D01*
X154408463Y-121497353D01*
X154431640Y-121518360D01*
X154452647Y-121541537D01*
X154471281Y-121566662D01*
X154487362Y-121593492D01*
X154500737Y-121621770D01*
X154511275Y-121651222D01*
X154518875Y-121681565D01*
X154523465Y-121712507D01*
X154525000Y-121743750D01*
X154525000Y-122381250D01*
X154523465Y-122412493D01*
X154518875Y-122443435D01*
X154511275Y-122473778D01*
X154500737Y-122503230D01*
X154487362Y-122531508D01*
X154471281Y-122558338D01*
X154452647Y-122583463D01*
X154431640Y-122606640D01*
X154408463Y-122627647D01*
X154383338Y-122646281D01*
X154356508Y-122662362D01*
X154328230Y-122675737D01*
X154298778Y-122686275D01*
X154268435Y-122693875D01*
X154237493Y-122698465D01*
X154206250Y-122700000D01*
X153493750Y-122700000D01*
X153462507Y-122698465D01*
X153431565Y-122693875D01*
X153401222Y-122686275D01*
X153371770Y-122675737D01*
X153343492Y-122662362D01*
X153316662Y-122646281D01*
X153291537Y-122627647D01*
X153268360Y-122606640D01*
X153247353Y-122583463D01*
X153228719Y-122558338D01*
X153212638Y-122531508D01*
X153199263Y-122503230D01*
X153188725Y-122473778D01*
X153181125Y-122443435D01*
X153176535Y-122412493D01*
X153175000Y-122381250D01*
X153175000Y-121743750D01*
X153176535Y-121712507D01*
X153181125Y-121681565D01*
X153188725Y-121651222D01*
X153199263Y-121621770D01*
X153212638Y-121593492D01*
X153228719Y-121566662D01*
X153247353Y-121541537D01*
X153268360Y-121518360D01*
X153291537Y-121497353D01*
X153316662Y-121478719D01*
X153343492Y-121462638D01*
X153371770Y-121449263D01*
X153401222Y-121438725D01*
X153431565Y-121431125D01*
X153462507Y-121426535D01*
X153493750Y-121425000D01*
X154206250Y-121425000D01*
X154237493Y-121426535D01*
X154237493Y-121426535D01*
G37*
D16*
X153850000Y-122062500D03*
D13*
G36*
X141387493Y-123001535D02*
G01*
X141418435Y-123006125D01*
X141448778Y-123013725D01*
X141478230Y-123024263D01*
X141506508Y-123037638D01*
X141533338Y-123053719D01*
X141558463Y-123072353D01*
X141581640Y-123093360D01*
X141602647Y-123116537D01*
X141621281Y-123141662D01*
X141637362Y-123168492D01*
X141650737Y-123196770D01*
X141661275Y-123226222D01*
X141668875Y-123256565D01*
X141673465Y-123287507D01*
X141675000Y-123318750D01*
X141675000Y-123956250D01*
X141673465Y-123987493D01*
X141668875Y-124018435D01*
X141661275Y-124048778D01*
X141650737Y-124078230D01*
X141637362Y-124106508D01*
X141621281Y-124133338D01*
X141602647Y-124158463D01*
X141581640Y-124181640D01*
X141558463Y-124202647D01*
X141533338Y-124221281D01*
X141506508Y-124237362D01*
X141478230Y-124250737D01*
X141448778Y-124261275D01*
X141418435Y-124268875D01*
X141387493Y-124273465D01*
X141356250Y-124275000D01*
X140643750Y-124275000D01*
X140612507Y-124273465D01*
X140581565Y-124268875D01*
X140551222Y-124261275D01*
X140521770Y-124250737D01*
X140493492Y-124237362D01*
X140466662Y-124221281D01*
X140441537Y-124202647D01*
X140418360Y-124181640D01*
X140397353Y-124158463D01*
X140378719Y-124133338D01*
X140362638Y-124106508D01*
X140349263Y-124078230D01*
X140338725Y-124048778D01*
X140331125Y-124018435D01*
X140326535Y-123987493D01*
X140325000Y-123956250D01*
X140325000Y-123318750D01*
X140326535Y-123287507D01*
X140331125Y-123256565D01*
X140338725Y-123226222D01*
X140349263Y-123196770D01*
X140362638Y-123168492D01*
X140378719Y-123141662D01*
X140397353Y-123116537D01*
X140418360Y-123093360D01*
X140441537Y-123072353D01*
X140466662Y-123053719D01*
X140493492Y-123037638D01*
X140521770Y-123024263D01*
X140551222Y-123013725D01*
X140581565Y-123006125D01*
X140612507Y-123001535D01*
X140643750Y-123000000D01*
X141356250Y-123000000D01*
X141387493Y-123001535D01*
X141387493Y-123001535D01*
G37*
D16*
X141000000Y-123637500D03*
D13*
G36*
X141387493Y-121426535D02*
G01*
X141418435Y-121431125D01*
X141448778Y-121438725D01*
X141478230Y-121449263D01*
X141506508Y-121462638D01*
X141533338Y-121478719D01*
X141558463Y-121497353D01*
X141581640Y-121518360D01*
X141602647Y-121541537D01*
X141621281Y-121566662D01*
X141637362Y-121593492D01*
X141650737Y-121621770D01*
X141661275Y-121651222D01*
X141668875Y-121681565D01*
X141673465Y-121712507D01*
X141675000Y-121743750D01*
X141675000Y-122381250D01*
X141673465Y-122412493D01*
X141668875Y-122443435D01*
X141661275Y-122473778D01*
X141650737Y-122503230D01*
X141637362Y-122531508D01*
X141621281Y-122558338D01*
X141602647Y-122583463D01*
X141581640Y-122606640D01*
X141558463Y-122627647D01*
X141533338Y-122646281D01*
X141506508Y-122662362D01*
X141478230Y-122675737D01*
X141448778Y-122686275D01*
X141418435Y-122693875D01*
X141387493Y-122698465D01*
X141356250Y-122700000D01*
X140643750Y-122700000D01*
X140612507Y-122698465D01*
X140581565Y-122693875D01*
X140551222Y-122686275D01*
X140521770Y-122675737D01*
X140493492Y-122662362D01*
X140466662Y-122646281D01*
X140441537Y-122627647D01*
X140418360Y-122606640D01*
X140397353Y-122583463D01*
X140378719Y-122558338D01*
X140362638Y-122531508D01*
X140349263Y-122503230D01*
X140338725Y-122473778D01*
X140331125Y-122443435D01*
X140326535Y-122412493D01*
X140325000Y-122381250D01*
X140325000Y-121743750D01*
X140326535Y-121712507D01*
X140331125Y-121681565D01*
X140338725Y-121651222D01*
X140349263Y-121621770D01*
X140362638Y-121593492D01*
X140378719Y-121566662D01*
X140397353Y-121541537D01*
X140418360Y-121518360D01*
X140441537Y-121497353D01*
X140466662Y-121478719D01*
X140493492Y-121462638D01*
X140521770Y-121449263D01*
X140551222Y-121438725D01*
X140581565Y-121431125D01*
X140612507Y-121426535D01*
X140643750Y-121425000D01*
X141356250Y-121425000D01*
X141387493Y-121426535D01*
X141387493Y-121426535D01*
G37*
D16*
X141000000Y-122062500D03*
D13*
G36*
X139437493Y-123001535D02*
G01*
X139468435Y-123006125D01*
X139498778Y-123013725D01*
X139528230Y-123024263D01*
X139556508Y-123037638D01*
X139583338Y-123053719D01*
X139608463Y-123072353D01*
X139631640Y-123093360D01*
X139652647Y-123116537D01*
X139671281Y-123141662D01*
X139687362Y-123168492D01*
X139700737Y-123196770D01*
X139711275Y-123226222D01*
X139718875Y-123256565D01*
X139723465Y-123287507D01*
X139725000Y-123318750D01*
X139725000Y-123956250D01*
X139723465Y-123987493D01*
X139718875Y-124018435D01*
X139711275Y-124048778D01*
X139700737Y-124078230D01*
X139687362Y-124106508D01*
X139671281Y-124133338D01*
X139652647Y-124158463D01*
X139631640Y-124181640D01*
X139608463Y-124202647D01*
X139583338Y-124221281D01*
X139556508Y-124237362D01*
X139528230Y-124250737D01*
X139498778Y-124261275D01*
X139468435Y-124268875D01*
X139437493Y-124273465D01*
X139406250Y-124275000D01*
X138693750Y-124275000D01*
X138662507Y-124273465D01*
X138631565Y-124268875D01*
X138601222Y-124261275D01*
X138571770Y-124250737D01*
X138543492Y-124237362D01*
X138516662Y-124221281D01*
X138491537Y-124202647D01*
X138468360Y-124181640D01*
X138447353Y-124158463D01*
X138428719Y-124133338D01*
X138412638Y-124106508D01*
X138399263Y-124078230D01*
X138388725Y-124048778D01*
X138381125Y-124018435D01*
X138376535Y-123987493D01*
X138375000Y-123956250D01*
X138375000Y-123318750D01*
X138376535Y-123287507D01*
X138381125Y-123256565D01*
X138388725Y-123226222D01*
X138399263Y-123196770D01*
X138412638Y-123168492D01*
X138428719Y-123141662D01*
X138447353Y-123116537D01*
X138468360Y-123093360D01*
X138491537Y-123072353D01*
X138516662Y-123053719D01*
X138543492Y-123037638D01*
X138571770Y-123024263D01*
X138601222Y-123013725D01*
X138631565Y-123006125D01*
X138662507Y-123001535D01*
X138693750Y-123000000D01*
X139406250Y-123000000D01*
X139437493Y-123001535D01*
X139437493Y-123001535D01*
G37*
D16*
X139050000Y-123637500D03*
D13*
G36*
X139437493Y-121426535D02*
G01*
X139468435Y-121431125D01*
X139498778Y-121438725D01*
X139528230Y-121449263D01*
X139556508Y-121462638D01*
X139583338Y-121478719D01*
X139608463Y-121497353D01*
X139631640Y-121518360D01*
X139652647Y-121541537D01*
X139671281Y-121566662D01*
X139687362Y-121593492D01*
X139700737Y-121621770D01*
X139711275Y-121651222D01*
X139718875Y-121681565D01*
X139723465Y-121712507D01*
X139725000Y-121743750D01*
X139725000Y-122381250D01*
X139723465Y-122412493D01*
X139718875Y-122443435D01*
X139711275Y-122473778D01*
X139700737Y-122503230D01*
X139687362Y-122531508D01*
X139671281Y-122558338D01*
X139652647Y-122583463D01*
X139631640Y-122606640D01*
X139608463Y-122627647D01*
X139583338Y-122646281D01*
X139556508Y-122662362D01*
X139528230Y-122675737D01*
X139498778Y-122686275D01*
X139468435Y-122693875D01*
X139437493Y-122698465D01*
X139406250Y-122700000D01*
X138693750Y-122700000D01*
X138662507Y-122698465D01*
X138631565Y-122693875D01*
X138601222Y-122686275D01*
X138571770Y-122675737D01*
X138543492Y-122662362D01*
X138516662Y-122646281D01*
X138491537Y-122627647D01*
X138468360Y-122606640D01*
X138447353Y-122583463D01*
X138428719Y-122558338D01*
X138412638Y-122531508D01*
X138399263Y-122503230D01*
X138388725Y-122473778D01*
X138381125Y-122443435D01*
X138376535Y-122412493D01*
X138375000Y-122381250D01*
X138375000Y-121743750D01*
X138376535Y-121712507D01*
X138381125Y-121681565D01*
X138388725Y-121651222D01*
X138399263Y-121621770D01*
X138412638Y-121593492D01*
X138428719Y-121566662D01*
X138447353Y-121541537D01*
X138468360Y-121518360D01*
X138491537Y-121497353D01*
X138516662Y-121478719D01*
X138543492Y-121462638D01*
X138571770Y-121449263D01*
X138601222Y-121438725D01*
X138631565Y-121431125D01*
X138662507Y-121426535D01*
X138693750Y-121425000D01*
X139406250Y-121425000D01*
X139437493Y-121426535D01*
X139437493Y-121426535D01*
G37*
D16*
X139050000Y-122062500D03*
D13*
G36*
X115387493Y-95826535D02*
G01*
X115418435Y-95831125D01*
X115448778Y-95838725D01*
X115478230Y-95849263D01*
X115506508Y-95862638D01*
X115533338Y-95878719D01*
X115558463Y-95897353D01*
X115581640Y-95918360D01*
X115602647Y-95941537D01*
X115621281Y-95966662D01*
X115637362Y-95993492D01*
X115650737Y-96021770D01*
X115661275Y-96051222D01*
X115668875Y-96081565D01*
X115673465Y-96112507D01*
X115675000Y-96143750D01*
X115675000Y-96781250D01*
X115673465Y-96812493D01*
X115668875Y-96843435D01*
X115661275Y-96873778D01*
X115650737Y-96903230D01*
X115637362Y-96931508D01*
X115621281Y-96958338D01*
X115602647Y-96983463D01*
X115581640Y-97006640D01*
X115558463Y-97027647D01*
X115533338Y-97046281D01*
X115506508Y-97062362D01*
X115478230Y-97075737D01*
X115448778Y-97086275D01*
X115418435Y-97093875D01*
X115387493Y-97098465D01*
X115356250Y-97100000D01*
X114643750Y-97100000D01*
X114612507Y-97098465D01*
X114581565Y-97093875D01*
X114551222Y-97086275D01*
X114521770Y-97075737D01*
X114493492Y-97062362D01*
X114466662Y-97046281D01*
X114441537Y-97027647D01*
X114418360Y-97006640D01*
X114397353Y-96983463D01*
X114378719Y-96958338D01*
X114362638Y-96931508D01*
X114349263Y-96903230D01*
X114338725Y-96873778D01*
X114331125Y-96843435D01*
X114326535Y-96812493D01*
X114325000Y-96781250D01*
X114325000Y-96143750D01*
X114326535Y-96112507D01*
X114331125Y-96081565D01*
X114338725Y-96051222D01*
X114349263Y-96021770D01*
X114362638Y-95993492D01*
X114378719Y-95966662D01*
X114397353Y-95941537D01*
X114418360Y-95918360D01*
X114441537Y-95897353D01*
X114466662Y-95878719D01*
X114493492Y-95862638D01*
X114521770Y-95849263D01*
X114551222Y-95838725D01*
X114581565Y-95831125D01*
X114612507Y-95826535D01*
X114643750Y-95825000D01*
X115356250Y-95825000D01*
X115387493Y-95826535D01*
X115387493Y-95826535D01*
G37*
D16*
X115000000Y-96462500D03*
D13*
G36*
X115387493Y-97401535D02*
G01*
X115418435Y-97406125D01*
X115448778Y-97413725D01*
X115478230Y-97424263D01*
X115506508Y-97437638D01*
X115533338Y-97453719D01*
X115558463Y-97472353D01*
X115581640Y-97493360D01*
X115602647Y-97516537D01*
X115621281Y-97541662D01*
X115637362Y-97568492D01*
X115650737Y-97596770D01*
X115661275Y-97626222D01*
X115668875Y-97656565D01*
X115673465Y-97687507D01*
X115675000Y-97718750D01*
X115675000Y-98356250D01*
X115673465Y-98387493D01*
X115668875Y-98418435D01*
X115661275Y-98448778D01*
X115650737Y-98478230D01*
X115637362Y-98506508D01*
X115621281Y-98533338D01*
X115602647Y-98558463D01*
X115581640Y-98581640D01*
X115558463Y-98602647D01*
X115533338Y-98621281D01*
X115506508Y-98637362D01*
X115478230Y-98650737D01*
X115448778Y-98661275D01*
X115418435Y-98668875D01*
X115387493Y-98673465D01*
X115356250Y-98675000D01*
X114643750Y-98675000D01*
X114612507Y-98673465D01*
X114581565Y-98668875D01*
X114551222Y-98661275D01*
X114521770Y-98650737D01*
X114493492Y-98637362D01*
X114466662Y-98621281D01*
X114441537Y-98602647D01*
X114418360Y-98581640D01*
X114397353Y-98558463D01*
X114378719Y-98533338D01*
X114362638Y-98506508D01*
X114349263Y-98478230D01*
X114338725Y-98448778D01*
X114331125Y-98418435D01*
X114326535Y-98387493D01*
X114325000Y-98356250D01*
X114325000Y-97718750D01*
X114326535Y-97687507D01*
X114331125Y-97656565D01*
X114338725Y-97626222D01*
X114349263Y-97596770D01*
X114362638Y-97568492D01*
X114378719Y-97541662D01*
X114397353Y-97516537D01*
X114418360Y-97493360D01*
X114441537Y-97472353D01*
X114466662Y-97453719D01*
X114493492Y-97437638D01*
X114521770Y-97424263D01*
X114551222Y-97413725D01*
X114581565Y-97406125D01*
X114612507Y-97401535D01*
X114643750Y-97400000D01*
X115356250Y-97400000D01*
X115387493Y-97401535D01*
X115387493Y-97401535D01*
G37*
D16*
X115000000Y-98037500D03*
D13*
G36*
X153387493Y-112901535D02*
G01*
X153418435Y-112906125D01*
X153448778Y-112913725D01*
X153478230Y-112924263D01*
X153506508Y-112937638D01*
X153533338Y-112953719D01*
X153558463Y-112972353D01*
X153581640Y-112993360D01*
X153602647Y-113016537D01*
X153621281Y-113041662D01*
X153637362Y-113068492D01*
X153650737Y-113096770D01*
X153661275Y-113126222D01*
X153668875Y-113156565D01*
X153673465Y-113187507D01*
X153675000Y-113218750D01*
X153675000Y-113856250D01*
X153673465Y-113887493D01*
X153668875Y-113918435D01*
X153661275Y-113948778D01*
X153650737Y-113978230D01*
X153637362Y-114006508D01*
X153621281Y-114033338D01*
X153602647Y-114058463D01*
X153581640Y-114081640D01*
X153558463Y-114102647D01*
X153533338Y-114121281D01*
X153506508Y-114137362D01*
X153478230Y-114150737D01*
X153448778Y-114161275D01*
X153418435Y-114168875D01*
X153387493Y-114173465D01*
X153356250Y-114175000D01*
X152643750Y-114175000D01*
X152612507Y-114173465D01*
X152581565Y-114168875D01*
X152551222Y-114161275D01*
X152521770Y-114150737D01*
X152493492Y-114137362D01*
X152466662Y-114121281D01*
X152441537Y-114102647D01*
X152418360Y-114081640D01*
X152397353Y-114058463D01*
X152378719Y-114033338D01*
X152362638Y-114006508D01*
X152349263Y-113978230D01*
X152338725Y-113948778D01*
X152331125Y-113918435D01*
X152326535Y-113887493D01*
X152325000Y-113856250D01*
X152325000Y-113218750D01*
X152326535Y-113187507D01*
X152331125Y-113156565D01*
X152338725Y-113126222D01*
X152349263Y-113096770D01*
X152362638Y-113068492D01*
X152378719Y-113041662D01*
X152397353Y-113016537D01*
X152418360Y-112993360D01*
X152441537Y-112972353D01*
X152466662Y-112953719D01*
X152493492Y-112937638D01*
X152521770Y-112924263D01*
X152551222Y-112913725D01*
X152581565Y-112906125D01*
X152612507Y-112901535D01*
X152643750Y-112900000D01*
X153356250Y-112900000D01*
X153387493Y-112901535D01*
X153387493Y-112901535D01*
G37*
D16*
X153000000Y-113537500D03*
D13*
G36*
X153387493Y-111326535D02*
G01*
X153418435Y-111331125D01*
X153448778Y-111338725D01*
X153478230Y-111349263D01*
X153506508Y-111362638D01*
X153533338Y-111378719D01*
X153558463Y-111397353D01*
X153581640Y-111418360D01*
X153602647Y-111441537D01*
X153621281Y-111466662D01*
X153637362Y-111493492D01*
X153650737Y-111521770D01*
X153661275Y-111551222D01*
X153668875Y-111581565D01*
X153673465Y-111612507D01*
X153675000Y-111643750D01*
X153675000Y-112281250D01*
X153673465Y-112312493D01*
X153668875Y-112343435D01*
X153661275Y-112373778D01*
X153650737Y-112403230D01*
X153637362Y-112431508D01*
X153621281Y-112458338D01*
X153602647Y-112483463D01*
X153581640Y-112506640D01*
X153558463Y-112527647D01*
X153533338Y-112546281D01*
X153506508Y-112562362D01*
X153478230Y-112575737D01*
X153448778Y-112586275D01*
X153418435Y-112593875D01*
X153387493Y-112598465D01*
X153356250Y-112600000D01*
X152643750Y-112600000D01*
X152612507Y-112598465D01*
X152581565Y-112593875D01*
X152551222Y-112586275D01*
X152521770Y-112575737D01*
X152493492Y-112562362D01*
X152466662Y-112546281D01*
X152441537Y-112527647D01*
X152418360Y-112506640D01*
X152397353Y-112483463D01*
X152378719Y-112458338D01*
X152362638Y-112431508D01*
X152349263Y-112403230D01*
X152338725Y-112373778D01*
X152331125Y-112343435D01*
X152326535Y-112312493D01*
X152325000Y-112281250D01*
X152325000Y-111643750D01*
X152326535Y-111612507D01*
X152331125Y-111581565D01*
X152338725Y-111551222D01*
X152349263Y-111521770D01*
X152362638Y-111493492D01*
X152378719Y-111466662D01*
X152397353Y-111441537D01*
X152418360Y-111418360D01*
X152441537Y-111397353D01*
X152466662Y-111378719D01*
X152493492Y-111362638D01*
X152521770Y-111349263D01*
X152551222Y-111338725D01*
X152581565Y-111331125D01*
X152612507Y-111326535D01*
X152643750Y-111325000D01*
X153356250Y-111325000D01*
X153387493Y-111326535D01*
X153387493Y-111326535D01*
G37*
D16*
X153000000Y-111962500D03*
D13*
G36*
X158787493Y-108401535D02*
G01*
X158818435Y-108406125D01*
X158848778Y-108413725D01*
X158878230Y-108424263D01*
X158906508Y-108437638D01*
X158933338Y-108453719D01*
X158958463Y-108472353D01*
X158981640Y-108493360D01*
X159002647Y-108516537D01*
X159021281Y-108541662D01*
X159037362Y-108568492D01*
X159050737Y-108596770D01*
X159061275Y-108626222D01*
X159068875Y-108656565D01*
X159073465Y-108687507D01*
X159075000Y-108718750D01*
X159075000Y-109356250D01*
X159073465Y-109387493D01*
X159068875Y-109418435D01*
X159061275Y-109448778D01*
X159050737Y-109478230D01*
X159037362Y-109506508D01*
X159021281Y-109533338D01*
X159002647Y-109558463D01*
X158981640Y-109581640D01*
X158958463Y-109602647D01*
X158933338Y-109621281D01*
X158906508Y-109637362D01*
X158878230Y-109650737D01*
X158848778Y-109661275D01*
X158818435Y-109668875D01*
X158787493Y-109673465D01*
X158756250Y-109675000D01*
X158043750Y-109675000D01*
X158012507Y-109673465D01*
X157981565Y-109668875D01*
X157951222Y-109661275D01*
X157921770Y-109650737D01*
X157893492Y-109637362D01*
X157866662Y-109621281D01*
X157841537Y-109602647D01*
X157818360Y-109581640D01*
X157797353Y-109558463D01*
X157778719Y-109533338D01*
X157762638Y-109506508D01*
X157749263Y-109478230D01*
X157738725Y-109448778D01*
X157731125Y-109418435D01*
X157726535Y-109387493D01*
X157725000Y-109356250D01*
X157725000Y-108718750D01*
X157726535Y-108687507D01*
X157731125Y-108656565D01*
X157738725Y-108626222D01*
X157749263Y-108596770D01*
X157762638Y-108568492D01*
X157778719Y-108541662D01*
X157797353Y-108516537D01*
X157818360Y-108493360D01*
X157841537Y-108472353D01*
X157866662Y-108453719D01*
X157893492Y-108437638D01*
X157921770Y-108424263D01*
X157951222Y-108413725D01*
X157981565Y-108406125D01*
X158012507Y-108401535D01*
X158043750Y-108400000D01*
X158756250Y-108400000D01*
X158787493Y-108401535D01*
X158787493Y-108401535D01*
G37*
D16*
X158400000Y-109037500D03*
D13*
G36*
X158787493Y-106826535D02*
G01*
X158818435Y-106831125D01*
X158848778Y-106838725D01*
X158878230Y-106849263D01*
X158906508Y-106862638D01*
X158933338Y-106878719D01*
X158958463Y-106897353D01*
X158981640Y-106918360D01*
X159002647Y-106941537D01*
X159021281Y-106966662D01*
X159037362Y-106993492D01*
X159050737Y-107021770D01*
X159061275Y-107051222D01*
X159068875Y-107081565D01*
X159073465Y-107112507D01*
X159075000Y-107143750D01*
X159075000Y-107781250D01*
X159073465Y-107812493D01*
X159068875Y-107843435D01*
X159061275Y-107873778D01*
X159050737Y-107903230D01*
X159037362Y-107931508D01*
X159021281Y-107958338D01*
X159002647Y-107983463D01*
X158981640Y-108006640D01*
X158958463Y-108027647D01*
X158933338Y-108046281D01*
X158906508Y-108062362D01*
X158878230Y-108075737D01*
X158848778Y-108086275D01*
X158818435Y-108093875D01*
X158787493Y-108098465D01*
X158756250Y-108100000D01*
X158043750Y-108100000D01*
X158012507Y-108098465D01*
X157981565Y-108093875D01*
X157951222Y-108086275D01*
X157921770Y-108075737D01*
X157893492Y-108062362D01*
X157866662Y-108046281D01*
X157841537Y-108027647D01*
X157818360Y-108006640D01*
X157797353Y-107983463D01*
X157778719Y-107958338D01*
X157762638Y-107931508D01*
X157749263Y-107903230D01*
X157738725Y-107873778D01*
X157731125Y-107843435D01*
X157726535Y-107812493D01*
X157725000Y-107781250D01*
X157725000Y-107143750D01*
X157726535Y-107112507D01*
X157731125Y-107081565D01*
X157738725Y-107051222D01*
X157749263Y-107021770D01*
X157762638Y-106993492D01*
X157778719Y-106966662D01*
X157797353Y-106941537D01*
X157818360Y-106918360D01*
X157841537Y-106897353D01*
X157866662Y-106878719D01*
X157893492Y-106862638D01*
X157921770Y-106849263D01*
X157951222Y-106838725D01*
X157981565Y-106831125D01*
X158012507Y-106826535D01*
X158043750Y-106825000D01*
X158756250Y-106825000D01*
X158787493Y-106826535D01*
X158787493Y-106826535D01*
G37*
D16*
X158400000Y-107462500D03*
D13*
G36*
X158237493Y-121426535D02*
G01*
X158268435Y-121431125D01*
X158298778Y-121438725D01*
X158328230Y-121449263D01*
X158356508Y-121462638D01*
X158383338Y-121478719D01*
X158408463Y-121497353D01*
X158431640Y-121518360D01*
X158452647Y-121541537D01*
X158471281Y-121566662D01*
X158487362Y-121593492D01*
X158500737Y-121621770D01*
X158511275Y-121651222D01*
X158518875Y-121681565D01*
X158523465Y-121712507D01*
X158525000Y-121743750D01*
X158525000Y-122381250D01*
X158523465Y-122412493D01*
X158518875Y-122443435D01*
X158511275Y-122473778D01*
X158500737Y-122503230D01*
X158487362Y-122531508D01*
X158471281Y-122558338D01*
X158452647Y-122583463D01*
X158431640Y-122606640D01*
X158408463Y-122627647D01*
X158383338Y-122646281D01*
X158356508Y-122662362D01*
X158328230Y-122675737D01*
X158298778Y-122686275D01*
X158268435Y-122693875D01*
X158237493Y-122698465D01*
X158206250Y-122700000D01*
X157493750Y-122700000D01*
X157462507Y-122698465D01*
X157431565Y-122693875D01*
X157401222Y-122686275D01*
X157371770Y-122675737D01*
X157343492Y-122662362D01*
X157316662Y-122646281D01*
X157291537Y-122627647D01*
X157268360Y-122606640D01*
X157247353Y-122583463D01*
X157228719Y-122558338D01*
X157212638Y-122531508D01*
X157199263Y-122503230D01*
X157188725Y-122473778D01*
X157181125Y-122443435D01*
X157176535Y-122412493D01*
X157175000Y-122381250D01*
X157175000Y-121743750D01*
X157176535Y-121712507D01*
X157181125Y-121681565D01*
X157188725Y-121651222D01*
X157199263Y-121621770D01*
X157212638Y-121593492D01*
X157228719Y-121566662D01*
X157247353Y-121541537D01*
X157268360Y-121518360D01*
X157291537Y-121497353D01*
X157316662Y-121478719D01*
X157343492Y-121462638D01*
X157371770Y-121449263D01*
X157401222Y-121438725D01*
X157431565Y-121431125D01*
X157462507Y-121426535D01*
X157493750Y-121425000D01*
X158206250Y-121425000D01*
X158237493Y-121426535D01*
X158237493Y-121426535D01*
G37*
D16*
X157850000Y-122062500D03*
D13*
G36*
X158237493Y-123001535D02*
G01*
X158268435Y-123006125D01*
X158298778Y-123013725D01*
X158328230Y-123024263D01*
X158356508Y-123037638D01*
X158383338Y-123053719D01*
X158408463Y-123072353D01*
X158431640Y-123093360D01*
X158452647Y-123116537D01*
X158471281Y-123141662D01*
X158487362Y-123168492D01*
X158500737Y-123196770D01*
X158511275Y-123226222D01*
X158518875Y-123256565D01*
X158523465Y-123287507D01*
X158525000Y-123318750D01*
X158525000Y-123956250D01*
X158523465Y-123987493D01*
X158518875Y-124018435D01*
X158511275Y-124048778D01*
X158500737Y-124078230D01*
X158487362Y-124106508D01*
X158471281Y-124133338D01*
X158452647Y-124158463D01*
X158431640Y-124181640D01*
X158408463Y-124202647D01*
X158383338Y-124221281D01*
X158356508Y-124237362D01*
X158328230Y-124250737D01*
X158298778Y-124261275D01*
X158268435Y-124268875D01*
X158237493Y-124273465D01*
X158206250Y-124275000D01*
X157493750Y-124275000D01*
X157462507Y-124273465D01*
X157431565Y-124268875D01*
X157401222Y-124261275D01*
X157371770Y-124250737D01*
X157343492Y-124237362D01*
X157316662Y-124221281D01*
X157291537Y-124202647D01*
X157268360Y-124181640D01*
X157247353Y-124158463D01*
X157228719Y-124133338D01*
X157212638Y-124106508D01*
X157199263Y-124078230D01*
X157188725Y-124048778D01*
X157181125Y-124018435D01*
X157176535Y-123987493D01*
X157175000Y-123956250D01*
X157175000Y-123318750D01*
X157176535Y-123287507D01*
X157181125Y-123256565D01*
X157188725Y-123226222D01*
X157199263Y-123196770D01*
X157212638Y-123168492D01*
X157228719Y-123141662D01*
X157247353Y-123116537D01*
X157268360Y-123093360D01*
X157291537Y-123072353D01*
X157316662Y-123053719D01*
X157343492Y-123037638D01*
X157371770Y-123024263D01*
X157401222Y-123013725D01*
X157431565Y-123006125D01*
X157462507Y-123001535D01*
X157493750Y-123000000D01*
X158206250Y-123000000D01*
X158237493Y-123001535D01*
X158237493Y-123001535D01*
G37*
D16*
X157850000Y-123637500D03*
D13*
G36*
X152387493Y-118151535D02*
G01*
X152418435Y-118156125D01*
X152448778Y-118163725D01*
X152478230Y-118174263D01*
X152506508Y-118187638D01*
X152533338Y-118203719D01*
X152558463Y-118222353D01*
X152581640Y-118243360D01*
X152602647Y-118266537D01*
X152621281Y-118291662D01*
X152637362Y-118318492D01*
X152650737Y-118346770D01*
X152661275Y-118376222D01*
X152668875Y-118406565D01*
X152673465Y-118437507D01*
X152675000Y-118468750D01*
X152675000Y-119106250D01*
X152673465Y-119137493D01*
X152668875Y-119168435D01*
X152661275Y-119198778D01*
X152650737Y-119228230D01*
X152637362Y-119256508D01*
X152621281Y-119283338D01*
X152602647Y-119308463D01*
X152581640Y-119331640D01*
X152558463Y-119352647D01*
X152533338Y-119371281D01*
X152506508Y-119387362D01*
X152478230Y-119400737D01*
X152448778Y-119411275D01*
X152418435Y-119418875D01*
X152387493Y-119423465D01*
X152356250Y-119425000D01*
X151643750Y-119425000D01*
X151612507Y-119423465D01*
X151581565Y-119418875D01*
X151551222Y-119411275D01*
X151521770Y-119400737D01*
X151493492Y-119387362D01*
X151466662Y-119371281D01*
X151441537Y-119352647D01*
X151418360Y-119331640D01*
X151397353Y-119308463D01*
X151378719Y-119283338D01*
X151362638Y-119256508D01*
X151349263Y-119228230D01*
X151338725Y-119198778D01*
X151331125Y-119168435D01*
X151326535Y-119137493D01*
X151325000Y-119106250D01*
X151325000Y-118468750D01*
X151326535Y-118437507D01*
X151331125Y-118406565D01*
X151338725Y-118376222D01*
X151349263Y-118346770D01*
X151362638Y-118318492D01*
X151378719Y-118291662D01*
X151397353Y-118266537D01*
X151418360Y-118243360D01*
X151441537Y-118222353D01*
X151466662Y-118203719D01*
X151493492Y-118187638D01*
X151521770Y-118174263D01*
X151551222Y-118163725D01*
X151581565Y-118156125D01*
X151612507Y-118151535D01*
X151643750Y-118150000D01*
X152356250Y-118150000D01*
X152387493Y-118151535D01*
X152387493Y-118151535D01*
G37*
D16*
X152000000Y-118787500D03*
D13*
G36*
X152387493Y-116576535D02*
G01*
X152418435Y-116581125D01*
X152448778Y-116588725D01*
X152478230Y-116599263D01*
X152506508Y-116612638D01*
X152533338Y-116628719D01*
X152558463Y-116647353D01*
X152581640Y-116668360D01*
X152602647Y-116691537D01*
X152621281Y-116716662D01*
X152637362Y-116743492D01*
X152650737Y-116771770D01*
X152661275Y-116801222D01*
X152668875Y-116831565D01*
X152673465Y-116862507D01*
X152675000Y-116893750D01*
X152675000Y-117531250D01*
X152673465Y-117562493D01*
X152668875Y-117593435D01*
X152661275Y-117623778D01*
X152650737Y-117653230D01*
X152637362Y-117681508D01*
X152621281Y-117708338D01*
X152602647Y-117733463D01*
X152581640Y-117756640D01*
X152558463Y-117777647D01*
X152533338Y-117796281D01*
X152506508Y-117812362D01*
X152478230Y-117825737D01*
X152448778Y-117836275D01*
X152418435Y-117843875D01*
X152387493Y-117848465D01*
X152356250Y-117850000D01*
X151643750Y-117850000D01*
X151612507Y-117848465D01*
X151581565Y-117843875D01*
X151551222Y-117836275D01*
X151521770Y-117825737D01*
X151493492Y-117812362D01*
X151466662Y-117796281D01*
X151441537Y-117777647D01*
X151418360Y-117756640D01*
X151397353Y-117733463D01*
X151378719Y-117708338D01*
X151362638Y-117681508D01*
X151349263Y-117653230D01*
X151338725Y-117623778D01*
X151331125Y-117593435D01*
X151326535Y-117562493D01*
X151325000Y-117531250D01*
X151325000Y-116893750D01*
X151326535Y-116862507D01*
X151331125Y-116831565D01*
X151338725Y-116801222D01*
X151349263Y-116771770D01*
X151362638Y-116743492D01*
X151378719Y-116716662D01*
X151397353Y-116691537D01*
X151418360Y-116668360D01*
X151441537Y-116647353D01*
X151466662Y-116628719D01*
X151493492Y-116612638D01*
X151521770Y-116599263D01*
X151551222Y-116588725D01*
X151581565Y-116581125D01*
X151612507Y-116576535D01*
X151643750Y-116575000D01*
X152356250Y-116575000D01*
X152387493Y-116576535D01*
X152387493Y-116576535D01*
G37*
D16*
X152000000Y-117212500D03*
D13*
G36*
X156237493Y-121426535D02*
G01*
X156268435Y-121431125D01*
X156298778Y-121438725D01*
X156328230Y-121449263D01*
X156356508Y-121462638D01*
X156383338Y-121478719D01*
X156408463Y-121497353D01*
X156431640Y-121518360D01*
X156452647Y-121541537D01*
X156471281Y-121566662D01*
X156487362Y-121593492D01*
X156500737Y-121621770D01*
X156511275Y-121651222D01*
X156518875Y-121681565D01*
X156523465Y-121712507D01*
X156525000Y-121743750D01*
X156525000Y-122381250D01*
X156523465Y-122412493D01*
X156518875Y-122443435D01*
X156511275Y-122473778D01*
X156500737Y-122503230D01*
X156487362Y-122531508D01*
X156471281Y-122558338D01*
X156452647Y-122583463D01*
X156431640Y-122606640D01*
X156408463Y-122627647D01*
X156383338Y-122646281D01*
X156356508Y-122662362D01*
X156328230Y-122675737D01*
X156298778Y-122686275D01*
X156268435Y-122693875D01*
X156237493Y-122698465D01*
X156206250Y-122700000D01*
X155493750Y-122700000D01*
X155462507Y-122698465D01*
X155431565Y-122693875D01*
X155401222Y-122686275D01*
X155371770Y-122675737D01*
X155343492Y-122662362D01*
X155316662Y-122646281D01*
X155291537Y-122627647D01*
X155268360Y-122606640D01*
X155247353Y-122583463D01*
X155228719Y-122558338D01*
X155212638Y-122531508D01*
X155199263Y-122503230D01*
X155188725Y-122473778D01*
X155181125Y-122443435D01*
X155176535Y-122412493D01*
X155175000Y-122381250D01*
X155175000Y-121743750D01*
X155176535Y-121712507D01*
X155181125Y-121681565D01*
X155188725Y-121651222D01*
X155199263Y-121621770D01*
X155212638Y-121593492D01*
X155228719Y-121566662D01*
X155247353Y-121541537D01*
X155268360Y-121518360D01*
X155291537Y-121497353D01*
X155316662Y-121478719D01*
X155343492Y-121462638D01*
X155371770Y-121449263D01*
X155401222Y-121438725D01*
X155431565Y-121431125D01*
X155462507Y-121426535D01*
X155493750Y-121425000D01*
X156206250Y-121425000D01*
X156237493Y-121426535D01*
X156237493Y-121426535D01*
G37*
D16*
X155850000Y-122062500D03*
D13*
G36*
X156237493Y-123001535D02*
G01*
X156268435Y-123006125D01*
X156298778Y-123013725D01*
X156328230Y-123024263D01*
X156356508Y-123037638D01*
X156383338Y-123053719D01*
X156408463Y-123072353D01*
X156431640Y-123093360D01*
X156452647Y-123116537D01*
X156471281Y-123141662D01*
X156487362Y-123168492D01*
X156500737Y-123196770D01*
X156511275Y-123226222D01*
X156518875Y-123256565D01*
X156523465Y-123287507D01*
X156525000Y-123318750D01*
X156525000Y-123956250D01*
X156523465Y-123987493D01*
X156518875Y-124018435D01*
X156511275Y-124048778D01*
X156500737Y-124078230D01*
X156487362Y-124106508D01*
X156471281Y-124133338D01*
X156452647Y-124158463D01*
X156431640Y-124181640D01*
X156408463Y-124202647D01*
X156383338Y-124221281D01*
X156356508Y-124237362D01*
X156328230Y-124250737D01*
X156298778Y-124261275D01*
X156268435Y-124268875D01*
X156237493Y-124273465D01*
X156206250Y-124275000D01*
X155493750Y-124275000D01*
X155462507Y-124273465D01*
X155431565Y-124268875D01*
X155401222Y-124261275D01*
X155371770Y-124250737D01*
X155343492Y-124237362D01*
X155316662Y-124221281D01*
X155291537Y-124202647D01*
X155268360Y-124181640D01*
X155247353Y-124158463D01*
X155228719Y-124133338D01*
X155212638Y-124106508D01*
X155199263Y-124078230D01*
X155188725Y-124048778D01*
X155181125Y-124018435D01*
X155176535Y-123987493D01*
X155175000Y-123956250D01*
X155175000Y-123318750D01*
X155176535Y-123287507D01*
X155181125Y-123256565D01*
X155188725Y-123226222D01*
X155199263Y-123196770D01*
X155212638Y-123168492D01*
X155228719Y-123141662D01*
X155247353Y-123116537D01*
X155268360Y-123093360D01*
X155291537Y-123072353D01*
X155316662Y-123053719D01*
X155343492Y-123037638D01*
X155371770Y-123024263D01*
X155401222Y-123013725D01*
X155431565Y-123006125D01*
X155462507Y-123001535D01*
X155493750Y-123000000D01*
X156206250Y-123000000D01*
X156237493Y-123001535D01*
X156237493Y-123001535D01*
G37*
D16*
X155850000Y-123637500D03*
D13*
G36*
X142787493Y-108576535D02*
G01*
X142818435Y-108581125D01*
X142848778Y-108588725D01*
X142878230Y-108599263D01*
X142906508Y-108612638D01*
X142933338Y-108628719D01*
X142958463Y-108647353D01*
X142981640Y-108668360D01*
X143002647Y-108691537D01*
X143021281Y-108716662D01*
X143037362Y-108743492D01*
X143050737Y-108771770D01*
X143061275Y-108801222D01*
X143068875Y-108831565D01*
X143073465Y-108862507D01*
X143075000Y-108893750D01*
X143075000Y-109531250D01*
X143073465Y-109562493D01*
X143068875Y-109593435D01*
X143061275Y-109623778D01*
X143050737Y-109653230D01*
X143037362Y-109681508D01*
X143021281Y-109708338D01*
X143002647Y-109733463D01*
X142981640Y-109756640D01*
X142958463Y-109777647D01*
X142933338Y-109796281D01*
X142906508Y-109812362D01*
X142878230Y-109825737D01*
X142848778Y-109836275D01*
X142818435Y-109843875D01*
X142787493Y-109848465D01*
X142756250Y-109850000D01*
X142043750Y-109850000D01*
X142012507Y-109848465D01*
X141981565Y-109843875D01*
X141951222Y-109836275D01*
X141921770Y-109825737D01*
X141893492Y-109812362D01*
X141866662Y-109796281D01*
X141841537Y-109777647D01*
X141818360Y-109756640D01*
X141797353Y-109733463D01*
X141778719Y-109708338D01*
X141762638Y-109681508D01*
X141749263Y-109653230D01*
X141738725Y-109623778D01*
X141731125Y-109593435D01*
X141726535Y-109562493D01*
X141725000Y-109531250D01*
X141725000Y-108893750D01*
X141726535Y-108862507D01*
X141731125Y-108831565D01*
X141738725Y-108801222D01*
X141749263Y-108771770D01*
X141762638Y-108743492D01*
X141778719Y-108716662D01*
X141797353Y-108691537D01*
X141818360Y-108668360D01*
X141841537Y-108647353D01*
X141866662Y-108628719D01*
X141893492Y-108612638D01*
X141921770Y-108599263D01*
X141951222Y-108588725D01*
X141981565Y-108581125D01*
X142012507Y-108576535D01*
X142043750Y-108575000D01*
X142756250Y-108575000D01*
X142787493Y-108576535D01*
X142787493Y-108576535D01*
G37*
D16*
X142400000Y-109212500D03*
D13*
G36*
X142787493Y-110151535D02*
G01*
X142818435Y-110156125D01*
X142848778Y-110163725D01*
X142878230Y-110174263D01*
X142906508Y-110187638D01*
X142933338Y-110203719D01*
X142958463Y-110222353D01*
X142981640Y-110243360D01*
X143002647Y-110266537D01*
X143021281Y-110291662D01*
X143037362Y-110318492D01*
X143050737Y-110346770D01*
X143061275Y-110376222D01*
X143068875Y-110406565D01*
X143073465Y-110437507D01*
X143075000Y-110468750D01*
X143075000Y-111106250D01*
X143073465Y-111137493D01*
X143068875Y-111168435D01*
X143061275Y-111198778D01*
X143050737Y-111228230D01*
X143037362Y-111256508D01*
X143021281Y-111283338D01*
X143002647Y-111308463D01*
X142981640Y-111331640D01*
X142958463Y-111352647D01*
X142933338Y-111371281D01*
X142906508Y-111387362D01*
X142878230Y-111400737D01*
X142848778Y-111411275D01*
X142818435Y-111418875D01*
X142787493Y-111423465D01*
X142756250Y-111425000D01*
X142043750Y-111425000D01*
X142012507Y-111423465D01*
X141981565Y-111418875D01*
X141951222Y-111411275D01*
X141921770Y-111400737D01*
X141893492Y-111387362D01*
X141866662Y-111371281D01*
X141841537Y-111352647D01*
X141818360Y-111331640D01*
X141797353Y-111308463D01*
X141778719Y-111283338D01*
X141762638Y-111256508D01*
X141749263Y-111228230D01*
X141738725Y-111198778D01*
X141731125Y-111168435D01*
X141726535Y-111137493D01*
X141725000Y-111106250D01*
X141725000Y-110468750D01*
X141726535Y-110437507D01*
X141731125Y-110406565D01*
X141738725Y-110376222D01*
X141749263Y-110346770D01*
X141762638Y-110318492D01*
X141778719Y-110291662D01*
X141797353Y-110266537D01*
X141818360Y-110243360D01*
X141841537Y-110222353D01*
X141866662Y-110203719D01*
X141893492Y-110187638D01*
X141921770Y-110174263D01*
X141951222Y-110163725D01*
X141981565Y-110156125D01*
X142012507Y-110151535D01*
X142043750Y-110150000D01*
X142756250Y-110150000D01*
X142787493Y-110151535D01*
X142787493Y-110151535D01*
G37*
D16*
X142400000Y-110787500D03*
D13*
G36*
X137437493Y-122989035D02*
G01*
X137468435Y-122993625D01*
X137498778Y-123001225D01*
X137528230Y-123011763D01*
X137556508Y-123025138D01*
X137583338Y-123041219D01*
X137608463Y-123059853D01*
X137631640Y-123080860D01*
X137652647Y-123104037D01*
X137671281Y-123129162D01*
X137687362Y-123155992D01*
X137700737Y-123184270D01*
X137711275Y-123213722D01*
X137718875Y-123244065D01*
X137723465Y-123275007D01*
X137725000Y-123306250D01*
X137725000Y-123943750D01*
X137723465Y-123974993D01*
X137718875Y-124005935D01*
X137711275Y-124036278D01*
X137700737Y-124065730D01*
X137687362Y-124094008D01*
X137671281Y-124120838D01*
X137652647Y-124145963D01*
X137631640Y-124169140D01*
X137608463Y-124190147D01*
X137583338Y-124208781D01*
X137556508Y-124224862D01*
X137528230Y-124238237D01*
X137498778Y-124248775D01*
X137468435Y-124256375D01*
X137437493Y-124260965D01*
X137406250Y-124262500D01*
X136693750Y-124262500D01*
X136662507Y-124260965D01*
X136631565Y-124256375D01*
X136601222Y-124248775D01*
X136571770Y-124238237D01*
X136543492Y-124224862D01*
X136516662Y-124208781D01*
X136491537Y-124190147D01*
X136468360Y-124169140D01*
X136447353Y-124145963D01*
X136428719Y-124120838D01*
X136412638Y-124094008D01*
X136399263Y-124065730D01*
X136388725Y-124036278D01*
X136381125Y-124005935D01*
X136376535Y-123974993D01*
X136375000Y-123943750D01*
X136375000Y-123306250D01*
X136376535Y-123275007D01*
X136381125Y-123244065D01*
X136388725Y-123213722D01*
X136399263Y-123184270D01*
X136412638Y-123155992D01*
X136428719Y-123129162D01*
X136447353Y-123104037D01*
X136468360Y-123080860D01*
X136491537Y-123059853D01*
X136516662Y-123041219D01*
X136543492Y-123025138D01*
X136571770Y-123011763D01*
X136601222Y-123001225D01*
X136631565Y-122993625D01*
X136662507Y-122989035D01*
X136693750Y-122987500D01*
X137406250Y-122987500D01*
X137437493Y-122989035D01*
X137437493Y-122989035D01*
G37*
D16*
X137050000Y-123625000D03*
D13*
G36*
X137437493Y-121414035D02*
G01*
X137468435Y-121418625D01*
X137498778Y-121426225D01*
X137528230Y-121436763D01*
X137556508Y-121450138D01*
X137583338Y-121466219D01*
X137608463Y-121484853D01*
X137631640Y-121505860D01*
X137652647Y-121529037D01*
X137671281Y-121554162D01*
X137687362Y-121580992D01*
X137700737Y-121609270D01*
X137711275Y-121638722D01*
X137718875Y-121669065D01*
X137723465Y-121700007D01*
X137725000Y-121731250D01*
X137725000Y-122368750D01*
X137723465Y-122399993D01*
X137718875Y-122430935D01*
X137711275Y-122461278D01*
X137700737Y-122490730D01*
X137687362Y-122519008D01*
X137671281Y-122545838D01*
X137652647Y-122570963D01*
X137631640Y-122594140D01*
X137608463Y-122615147D01*
X137583338Y-122633781D01*
X137556508Y-122649862D01*
X137528230Y-122663237D01*
X137498778Y-122673775D01*
X137468435Y-122681375D01*
X137437493Y-122685965D01*
X137406250Y-122687500D01*
X136693750Y-122687500D01*
X136662507Y-122685965D01*
X136631565Y-122681375D01*
X136601222Y-122673775D01*
X136571770Y-122663237D01*
X136543492Y-122649862D01*
X136516662Y-122633781D01*
X136491537Y-122615147D01*
X136468360Y-122594140D01*
X136447353Y-122570963D01*
X136428719Y-122545838D01*
X136412638Y-122519008D01*
X136399263Y-122490730D01*
X136388725Y-122461278D01*
X136381125Y-122430935D01*
X136376535Y-122399993D01*
X136375000Y-122368750D01*
X136375000Y-121731250D01*
X136376535Y-121700007D01*
X136381125Y-121669065D01*
X136388725Y-121638722D01*
X136399263Y-121609270D01*
X136412638Y-121580992D01*
X136428719Y-121554162D01*
X136447353Y-121529037D01*
X136468360Y-121505860D01*
X136491537Y-121484853D01*
X136516662Y-121466219D01*
X136543492Y-121450138D01*
X136571770Y-121436763D01*
X136601222Y-121426225D01*
X136631565Y-121418625D01*
X136662507Y-121414035D01*
X136693750Y-121412500D01*
X137406250Y-121412500D01*
X137437493Y-121414035D01*
X137437493Y-121414035D01*
G37*
D16*
X137050000Y-122050000D03*
M02*
