G04 #@! TF.GenerationSoftware,KiCad,Pcbnew,(5.1.4)-1*
G04 #@! TF.CreationDate,2019-09-05T18:56:40+02:00*
G04 #@! TF.ProjectId,currentscaler,63757272-656e-4747-9363-616c65722e6b,rev?*
G04 #@! TF.SameCoordinates,Original*
G04 #@! TF.FileFunction,Legend,Bot*
G04 #@! TF.FilePolarity,Positive*
%FSLAX46Y46*%
G04 Gerber Fmt 4.6, Leading zero omitted, Abs format (unit mm)*
G04 Created by KiCad (PCBNEW (5.1.4)-1) date 2019-09-05 18:56:40*
%MOMM*%
%LPD*%
G04 APERTURE LIST*
%ADD10C,0.300000*%
%ADD11C,0.120000*%
G04 APERTURE END LIST*
D10*
X123035714Y-122678571D02*
X123750000Y-122678571D01*
X123821428Y-123392857D01*
X123750000Y-123321428D01*
X123607142Y-123250000D01*
X123250000Y-123250000D01*
X123107142Y-123321428D01*
X123035714Y-123392857D01*
X122964285Y-123535714D01*
X122964285Y-123892857D01*
X123035714Y-124035714D01*
X123107142Y-124107142D01*
X123250000Y-124178571D01*
X123607142Y-124178571D01*
X123750000Y-124107142D01*
X123821428Y-124035714D01*
X122535714Y-122678571D02*
X122035714Y-124178571D01*
X121535714Y-122678571D01*
X124642857Y-113250000D02*
X124785714Y-113178571D01*
X125000000Y-113178571D01*
X125214285Y-113250000D01*
X125357142Y-113392857D01*
X125428571Y-113535714D01*
X125500000Y-113821428D01*
X125500000Y-114035714D01*
X125428571Y-114321428D01*
X125357142Y-114464285D01*
X125214285Y-114607142D01*
X125000000Y-114678571D01*
X124857142Y-114678571D01*
X124642857Y-114607142D01*
X124571428Y-114535714D01*
X124571428Y-114035714D01*
X124857142Y-114035714D01*
X123928571Y-114678571D02*
X123928571Y-113178571D01*
X123071428Y-114678571D01*
X123071428Y-113178571D01*
X122357142Y-114678571D02*
X122357142Y-113178571D01*
X122000000Y-113178571D01*
X121785714Y-113250000D01*
X121642857Y-113392857D01*
X121571428Y-113535714D01*
X121500000Y-113821428D01*
X121500000Y-114035714D01*
X121571428Y-114321428D01*
X121642857Y-114464285D01*
X121785714Y-114607142D01*
X122000000Y-114678571D01*
X122357142Y-114678571D01*
D11*
X115340000Y-122636252D02*
X115340000Y-114863748D01*
X120660000Y-122636252D02*
X120660000Y-114863748D01*
M02*
