G04 #@! TF.GenerationSoftware,KiCad,Pcbnew,(5.1.4)-1*
G04 #@! TF.CreationDate,2019-09-05T18:56:40+02:00*
G04 #@! TF.ProjectId,currentscaler,63757272-656e-4747-9363-616c65722e6b,rev?*
G04 #@! TF.SameCoordinates,Original*
G04 #@! TF.FileFunction,Paste,Bot*
G04 #@! TF.FilePolarity,Positive*
%FSLAX46Y46*%
G04 Gerber Fmt 4.6, Leading zero omitted, Abs format (unit mm)*
G04 Created by KiCad (PCBNEW (5.1.4)-1) date 2019-09-05 18:56:40*
%MOMM*%
%LPD*%
G04 APERTURE LIST*
%ADD10C,0.100000*%
%ADD11C,1.475000*%
G04 APERTURE END LIST*
D10*
G36*
X120424504Y-113201204D02*
G01*
X120448773Y-113204804D01*
X120472571Y-113210765D01*
X120495671Y-113219030D01*
X120517849Y-113229520D01*
X120538893Y-113242133D01*
X120558598Y-113256747D01*
X120576777Y-113273223D01*
X120593253Y-113291402D01*
X120607867Y-113311107D01*
X120620480Y-113332151D01*
X120630970Y-113354329D01*
X120639235Y-113377429D01*
X120645196Y-113401227D01*
X120648796Y-113425496D01*
X120650000Y-113450000D01*
X120650000Y-114425000D01*
X120648796Y-114449504D01*
X120645196Y-114473773D01*
X120639235Y-114497571D01*
X120630970Y-114520671D01*
X120620480Y-114542849D01*
X120607867Y-114563893D01*
X120593253Y-114583598D01*
X120576777Y-114601777D01*
X120558598Y-114618253D01*
X120538893Y-114632867D01*
X120517849Y-114645480D01*
X120495671Y-114655970D01*
X120472571Y-114664235D01*
X120448773Y-114670196D01*
X120424504Y-114673796D01*
X120400000Y-114675000D01*
X115600000Y-114675000D01*
X115575496Y-114673796D01*
X115551227Y-114670196D01*
X115527429Y-114664235D01*
X115504329Y-114655970D01*
X115482151Y-114645480D01*
X115461107Y-114632867D01*
X115441402Y-114618253D01*
X115423223Y-114601777D01*
X115406747Y-114583598D01*
X115392133Y-114563893D01*
X115379520Y-114542849D01*
X115369030Y-114520671D01*
X115360765Y-114497571D01*
X115354804Y-114473773D01*
X115351204Y-114449504D01*
X115350000Y-114425000D01*
X115350000Y-113450000D01*
X115351204Y-113425496D01*
X115354804Y-113401227D01*
X115360765Y-113377429D01*
X115369030Y-113354329D01*
X115379520Y-113332151D01*
X115392133Y-113311107D01*
X115406747Y-113291402D01*
X115423223Y-113273223D01*
X115441402Y-113256747D01*
X115461107Y-113242133D01*
X115482151Y-113229520D01*
X115504329Y-113219030D01*
X115527429Y-113210765D01*
X115551227Y-113204804D01*
X115575496Y-113201204D01*
X115600000Y-113200000D01*
X120400000Y-113200000D01*
X120424504Y-113201204D01*
X120424504Y-113201204D01*
G37*
D11*
X118000000Y-113937500D03*
D10*
G36*
X120424504Y-122826204D02*
G01*
X120448773Y-122829804D01*
X120472571Y-122835765D01*
X120495671Y-122844030D01*
X120517849Y-122854520D01*
X120538893Y-122867133D01*
X120558598Y-122881747D01*
X120576777Y-122898223D01*
X120593253Y-122916402D01*
X120607867Y-122936107D01*
X120620480Y-122957151D01*
X120630970Y-122979329D01*
X120639235Y-123002429D01*
X120645196Y-123026227D01*
X120648796Y-123050496D01*
X120650000Y-123075000D01*
X120650000Y-124050000D01*
X120648796Y-124074504D01*
X120645196Y-124098773D01*
X120639235Y-124122571D01*
X120630970Y-124145671D01*
X120620480Y-124167849D01*
X120607867Y-124188893D01*
X120593253Y-124208598D01*
X120576777Y-124226777D01*
X120558598Y-124243253D01*
X120538893Y-124257867D01*
X120517849Y-124270480D01*
X120495671Y-124280970D01*
X120472571Y-124289235D01*
X120448773Y-124295196D01*
X120424504Y-124298796D01*
X120400000Y-124300000D01*
X115600000Y-124300000D01*
X115575496Y-124298796D01*
X115551227Y-124295196D01*
X115527429Y-124289235D01*
X115504329Y-124280970D01*
X115482151Y-124270480D01*
X115461107Y-124257867D01*
X115441402Y-124243253D01*
X115423223Y-124226777D01*
X115406747Y-124208598D01*
X115392133Y-124188893D01*
X115379520Y-124167849D01*
X115369030Y-124145671D01*
X115360765Y-124122571D01*
X115354804Y-124098773D01*
X115351204Y-124074504D01*
X115350000Y-124050000D01*
X115350000Y-123075000D01*
X115351204Y-123050496D01*
X115354804Y-123026227D01*
X115360765Y-123002429D01*
X115369030Y-122979329D01*
X115379520Y-122957151D01*
X115392133Y-122936107D01*
X115406747Y-122916402D01*
X115423223Y-122898223D01*
X115441402Y-122881747D01*
X115461107Y-122867133D01*
X115482151Y-122854520D01*
X115504329Y-122844030D01*
X115527429Y-122835765D01*
X115551227Y-122829804D01*
X115575496Y-122826204D01*
X115600000Y-122825000D01*
X120400000Y-122825000D01*
X120424504Y-122826204D01*
X120424504Y-122826204D01*
G37*
D11*
X118000000Y-123562500D03*
M02*
