G04 #@! TF.GenerationSoftware,KiCad,Pcbnew,(5.1.4)-1*
G04 #@! TF.CreationDate,2019-09-05T18:56:40+02:00*
G04 #@! TF.ProjectId,currentscaler,63757272-656e-4747-9363-616c65722e6b,rev?*
G04 #@! TF.SameCoordinates,Original*
G04 #@! TF.FileFunction,Legend,Top*
G04 #@! TF.FilePolarity,Positive*
%FSLAX46Y46*%
G04 Gerber Fmt 4.6, Leading zero omitted, Abs format (unit mm)*
G04 Created by KiCad (PCBNEW (5.1.4)-1) date 2019-09-05 18:56:40*
%MOMM*%
%LPD*%
G04 APERTURE LIST*
%ADD10C,0.300000*%
%ADD11C,0.120000*%
%ADD12C,0.150000*%
G04 APERTURE END LIST*
D10*
X149128571Y-108285714D02*
X148128571Y-108285714D01*
X148271428Y-108285714D02*
X148200000Y-108214285D01*
X148128571Y-108071428D01*
X148128571Y-107857142D01*
X148200000Y-107714285D01*
X148342857Y-107642857D01*
X149128571Y-107642857D01*
X148342857Y-107642857D02*
X148200000Y-107571428D01*
X148128571Y-107428571D01*
X148128571Y-107214285D01*
X148200000Y-107071428D01*
X148342857Y-107000000D01*
X149128571Y-107000000D01*
X148700000Y-106357142D02*
X148700000Y-105642857D01*
X149128571Y-106500000D02*
X147628571Y-106000000D01*
X149128571Y-105500000D01*
X150678571Y-107321428D02*
X151678571Y-107321428D01*
X150678571Y-107964285D02*
X151464285Y-107964285D01*
X151607142Y-107892857D01*
X151678571Y-107750000D01*
X151678571Y-107535714D01*
X151607142Y-107392857D01*
X151535714Y-107321428D01*
X151250000Y-106678571D02*
X151250000Y-105964285D01*
X151678571Y-106821428D02*
X150178571Y-106321428D01*
X151678571Y-105821428D01*
X153228571Y-107964285D02*
X154228571Y-107964285D01*
X153371428Y-107964285D02*
X153300000Y-107892857D01*
X153228571Y-107750000D01*
X153228571Y-107535714D01*
X153300000Y-107392857D01*
X153442857Y-107321428D01*
X154228571Y-107321428D01*
X153800000Y-106678571D02*
X153800000Y-105964285D01*
X154228571Y-106821428D02*
X152728571Y-106321428D01*
X154228571Y-105821428D01*
X122735714Y-111000000D02*
X122807142Y-111071428D01*
X122878571Y-111285714D01*
X122878571Y-111428571D01*
X122807142Y-111642857D01*
X122664285Y-111785714D01*
X122521428Y-111857142D01*
X122235714Y-111928571D01*
X122021428Y-111928571D01*
X121735714Y-111857142D01*
X121592857Y-111785714D01*
X121450000Y-111642857D01*
X121378571Y-111428571D01*
X121378571Y-111285714D01*
X121450000Y-111071428D01*
X121521428Y-111000000D01*
X121878571Y-109714285D02*
X122878571Y-109714285D01*
X121878571Y-110357142D02*
X122664285Y-110357142D01*
X122807142Y-110285714D01*
X122878571Y-110142857D01*
X122878571Y-109928571D01*
X122807142Y-109785714D01*
X122735714Y-109714285D01*
X122878571Y-109000000D02*
X121878571Y-109000000D01*
X122164285Y-109000000D02*
X122021428Y-108928571D01*
X121950000Y-108857142D01*
X121878571Y-108714285D01*
X121878571Y-108571428D01*
X122878571Y-108071428D02*
X121878571Y-108071428D01*
X122164285Y-108071428D02*
X122021428Y-108000000D01*
X121950000Y-107928571D01*
X121878571Y-107785714D01*
X121878571Y-107642857D01*
X122807142Y-106571428D02*
X122878571Y-106714285D01*
X122878571Y-107000000D01*
X122807142Y-107142857D01*
X122664285Y-107214285D01*
X122092857Y-107214285D01*
X121950000Y-107142857D01*
X121878571Y-107000000D01*
X121878571Y-106714285D01*
X121950000Y-106571428D01*
X122092857Y-106500000D01*
X122235714Y-106500000D01*
X122378571Y-107214285D01*
X121878571Y-105857142D02*
X122878571Y-105857142D01*
X122021428Y-105857142D02*
X121950000Y-105785714D01*
X121878571Y-105642857D01*
X121878571Y-105428571D01*
X121950000Y-105285714D01*
X122092857Y-105214285D01*
X122878571Y-105214285D01*
X121878571Y-104714285D02*
X121878571Y-104142857D01*
X121378571Y-104500000D02*
X122664285Y-104500000D01*
X122807142Y-104428571D01*
X122878571Y-104285714D01*
X122878571Y-104142857D01*
X122807142Y-102571428D02*
X122878571Y-102357142D01*
X122878571Y-102000000D01*
X122807142Y-101857142D01*
X122735714Y-101785714D01*
X122592857Y-101714285D01*
X122450000Y-101714285D01*
X122307142Y-101785714D01*
X122235714Y-101857142D01*
X122164285Y-102000000D01*
X122092857Y-102285714D01*
X122021428Y-102428571D01*
X121950000Y-102500000D01*
X121807142Y-102571428D01*
X121664285Y-102571428D01*
X121521428Y-102500000D01*
X121450000Y-102428571D01*
X121378571Y-102285714D01*
X121378571Y-101928571D01*
X121450000Y-101714285D01*
X122807142Y-100428571D02*
X122878571Y-100571428D01*
X122878571Y-100857142D01*
X122807142Y-101000000D01*
X122735714Y-101071428D01*
X122592857Y-101142857D01*
X122164285Y-101142857D01*
X122021428Y-101071428D01*
X121950000Y-101000000D01*
X121878571Y-100857142D01*
X121878571Y-100571428D01*
X121950000Y-100428571D01*
X122878571Y-99142857D02*
X122092857Y-99142857D01*
X121950000Y-99214285D01*
X121878571Y-99357142D01*
X121878571Y-99642857D01*
X121950000Y-99785714D01*
X122807142Y-99142857D02*
X122878571Y-99285714D01*
X122878571Y-99642857D01*
X122807142Y-99785714D01*
X122664285Y-99857142D01*
X122521428Y-99857142D01*
X122378571Y-99785714D01*
X122307142Y-99642857D01*
X122307142Y-99285714D01*
X122235714Y-99142857D01*
X122878571Y-98214285D02*
X122807142Y-98357142D01*
X122664285Y-98428571D01*
X121378571Y-98428571D01*
X122807142Y-97071428D02*
X122878571Y-97214285D01*
X122878571Y-97500000D01*
X122807142Y-97642857D01*
X122664285Y-97714285D01*
X122092857Y-97714285D01*
X121950000Y-97642857D01*
X121878571Y-97500000D01*
X121878571Y-97214285D01*
X121950000Y-97071428D01*
X122092857Y-97000000D01*
X122235714Y-97000000D01*
X122378571Y-97714285D01*
X122878571Y-96357142D02*
X121878571Y-96357142D01*
X122164285Y-96357142D02*
X122021428Y-96285714D01*
X121950000Y-96214285D01*
X121878571Y-96071428D01*
X121878571Y-95928571D01*
X125428571Y-110964285D02*
X124714285Y-111464285D01*
X125428571Y-111821428D02*
X123928571Y-111821428D01*
X123928571Y-111250000D01*
X124000000Y-111107142D01*
X124071428Y-111035714D01*
X124214285Y-110964285D01*
X124428571Y-110964285D01*
X124571428Y-111035714D01*
X124642857Y-111107142D01*
X124714285Y-111250000D01*
X124714285Y-111821428D01*
X125357142Y-109750000D02*
X125428571Y-109892857D01*
X125428571Y-110178571D01*
X125357142Y-110321428D01*
X125214285Y-110392857D01*
X124642857Y-110392857D01*
X124500000Y-110321428D01*
X124428571Y-110178571D01*
X124428571Y-109892857D01*
X124500000Y-109750000D01*
X124642857Y-109678571D01*
X124785714Y-109678571D01*
X124928571Y-110392857D01*
X124428571Y-109178571D02*
X125428571Y-108821428D01*
X124428571Y-108464285D01*
X123928571Y-106035714D02*
X123928571Y-106750000D01*
X124642857Y-106821428D01*
X124571428Y-106750000D01*
X124500000Y-106607142D01*
X124500000Y-106250000D01*
X124571428Y-106107142D01*
X124642857Y-106035714D01*
X124785714Y-105964285D01*
X125142857Y-105964285D01*
X125285714Y-106035714D01*
X125357142Y-106107142D01*
X125428571Y-106250000D01*
X125428571Y-106607142D01*
X125357142Y-106750000D01*
X125285714Y-106821428D01*
X124857142Y-104178571D02*
X124857142Y-103035714D01*
X125428571Y-100392857D02*
X125428571Y-101250000D01*
X125428571Y-100821428D02*
X123928571Y-100821428D01*
X124142857Y-100964285D01*
X124285714Y-101107142D01*
X124357142Y-101250000D01*
X125428571Y-99678571D02*
X125428571Y-99392857D01*
X125357142Y-99250000D01*
X125285714Y-99178571D01*
X125071428Y-99035714D01*
X124785714Y-98964285D01*
X124214285Y-98964285D01*
X124071428Y-99035714D01*
X124000000Y-99107142D01*
X123928571Y-99250000D01*
X123928571Y-99535714D01*
X124000000Y-99678571D01*
X124071428Y-99750000D01*
X124214285Y-99821428D01*
X124571428Y-99821428D01*
X124714285Y-99750000D01*
X124785714Y-99678571D01*
X124857142Y-99535714D01*
X124857142Y-99250000D01*
X124785714Y-99107142D01*
X124714285Y-99035714D01*
X124571428Y-98964285D01*
X123928571Y-98464285D02*
X123928571Y-97535714D01*
X124500000Y-98035714D01*
X124500000Y-97821428D01*
X124571428Y-97678571D01*
X124642857Y-97607142D01*
X124785714Y-97535714D01*
X125142857Y-97535714D01*
X125285714Y-97607142D01*
X125357142Y-97678571D01*
X125428571Y-97821428D01*
X125428571Y-98250000D01*
X125357142Y-98392857D01*
X125285714Y-98464285D01*
X123928571Y-96250000D02*
X123928571Y-96535714D01*
X124000000Y-96678571D01*
X124071428Y-96750000D01*
X124285714Y-96892857D01*
X124571428Y-96964285D01*
X125142857Y-96964285D01*
X125285714Y-96892857D01*
X125357142Y-96821428D01*
X125428571Y-96678571D01*
X125428571Y-96392857D01*
X125357142Y-96250000D01*
X125285714Y-96178571D01*
X125142857Y-96107142D01*
X124785714Y-96107142D01*
X124642857Y-96178571D01*
X124571428Y-96250000D01*
X124500000Y-96392857D01*
X124500000Y-96678571D01*
X124571428Y-96821428D01*
X124642857Y-96892857D01*
X124785714Y-96964285D01*
X127550000Y-106821428D02*
X127550000Y-106107142D01*
X127978571Y-106964285D02*
X126478571Y-106464285D01*
X127978571Y-105964285D01*
X126478571Y-105678571D02*
X126478571Y-104821428D01*
X127978571Y-105250000D02*
X126478571Y-105250000D01*
X127978571Y-104321428D02*
X126478571Y-104321428D01*
X127192857Y-104321428D02*
X127192857Y-103464285D01*
X127978571Y-103464285D02*
X126478571Y-103464285D01*
X127978571Y-102750000D02*
X126478571Y-102750000D01*
X127978571Y-101178571D02*
X127264285Y-101678571D01*
X127978571Y-102035714D02*
X126478571Y-102035714D01*
X126478571Y-101464285D01*
X126550000Y-101321428D01*
X126621428Y-101250000D01*
X126764285Y-101178571D01*
X126978571Y-101178571D01*
X127121428Y-101250000D01*
X127192857Y-101321428D01*
X127264285Y-101464285D01*
X127264285Y-102035714D01*
D11*
X132880000Y-105830000D02*
X133210000Y-105830000D01*
X132880000Y-99290000D02*
X132880000Y-105830000D01*
X133210000Y-99290000D02*
X132880000Y-99290000D01*
X135620000Y-105830000D02*
X135290000Y-105830000D01*
X135620000Y-99290000D02*
X135620000Y-105830000D01*
X135290000Y-99290000D02*
X135620000Y-99290000D01*
X131870000Y-99270000D02*
X131540000Y-99270000D01*
X131870000Y-105810000D02*
X131870000Y-99270000D01*
X131540000Y-105810000D02*
X131870000Y-105810000D01*
X129130000Y-99270000D02*
X129460000Y-99270000D01*
X129130000Y-105810000D02*
X129130000Y-99270000D01*
X129460000Y-105810000D02*
X129130000Y-105810000D01*
X117630000Y-105580000D02*
X117960000Y-105580000D01*
X117630000Y-99040000D02*
X117630000Y-105580000D01*
X117960000Y-99040000D02*
X117630000Y-99040000D01*
X120370000Y-105580000D02*
X120040000Y-105580000D01*
X120370000Y-99040000D02*
X120370000Y-105580000D01*
X120040000Y-99040000D02*
X120370000Y-99040000D01*
X115250000Y-122850000D02*
X116500000Y-122850000D01*
X115250000Y-121600000D02*
X115250000Y-122850000D01*
X120750000Y-115700000D02*
X120750000Y-118750000D01*
X117800000Y-115700000D02*
X120750000Y-115700000D01*
X117800000Y-114950000D02*
X117800000Y-115700000D01*
X120750000Y-121800000D02*
X120750000Y-118750000D01*
X117800000Y-121800000D02*
X120750000Y-121800000D01*
X117800000Y-122550000D02*
X117800000Y-121800000D01*
X115550000Y-114950000D02*
X115550000Y-116750000D01*
X116300000Y-114950000D02*
X115550000Y-114950000D01*
X116300000Y-116750000D02*
X116300000Y-114950000D01*
X115550000Y-116750000D02*
X116300000Y-116750000D01*
X115550000Y-120750000D02*
X115550000Y-122550000D01*
X116300000Y-120750000D02*
X115550000Y-120750000D01*
X116300000Y-122550000D02*
X116300000Y-120750000D01*
X115550000Y-122550000D02*
X116300000Y-122550000D01*
X115550000Y-118250000D02*
X115550000Y-119250000D01*
X116300000Y-118250000D02*
X115550000Y-118250000D01*
X116300000Y-119250000D02*
X116300000Y-118250000D01*
X115550000Y-119250000D02*
X116300000Y-119250000D01*
X115540000Y-114940000D02*
X115540000Y-122560000D01*
X121510000Y-114940000D02*
X115540000Y-114940000D01*
X121510000Y-122560000D02*
X121510000Y-114940000D01*
X115540000Y-122560000D02*
X121510000Y-122560000D01*
D12*
X134404999Y-114330000D02*
X134394999Y-111320000D01*
X137404999Y-114330000D02*
X134404999Y-114330000D01*
X137404999Y-111320000D02*
X137404999Y-114330000D01*
X134394999Y-111320000D02*
X137404999Y-111320000D01*
D11*
X141975279Y-113090000D02*
X141649721Y-113090000D01*
X141975279Y-114110000D02*
X141649721Y-114110000D01*
X155490000Y-107953922D02*
X155490000Y-108471078D01*
X156910000Y-107953922D02*
X156910000Y-108471078D01*
X146560000Y-123108578D02*
X146560000Y-122591422D01*
X145140000Y-123108578D02*
X145140000Y-122591422D01*
X142690000Y-122591422D02*
X142690000Y-123108578D01*
X144110000Y-122591422D02*
X144110000Y-123108578D01*
D12*
X160230000Y-99500000D02*
X160230000Y-119000000D01*
X176230000Y-119000000D02*
X176230000Y-99500000D01*
X176230000Y-119000000D02*
G75*
G02X160230000Y-119000000I-8000000J0D01*
G01*
X160230000Y-99500000D02*
G75*
G02X176230000Y-99500000I8000000J0D01*
G01*
X111460000Y-118890000D02*
X111460000Y-99390000D01*
X95460000Y-99390000D02*
X95460000Y-118890000D01*
X95460000Y-99390000D02*
G75*
G02X111460000Y-99390000I8000000J0D01*
G01*
X111460000Y-118890000D02*
G75*
G02X95460000Y-118890000I-8000000J0D01*
G01*
D11*
X149340000Y-123000279D02*
X149340000Y-122674721D01*
X150360000Y-123000279D02*
X150360000Y-122674721D01*
X143860000Y-118900000D02*
X143860000Y-117100000D01*
X140640000Y-117100000D02*
X140640000Y-119550000D01*
X149360000Y-118900000D02*
X149360000Y-116450000D01*
X146140000Y-117100000D02*
X146140000Y-118900000D01*
X147260000Y-110650000D02*
X147260000Y-108850000D01*
X144040000Y-108850000D02*
X144040000Y-111300000D01*
X147340000Y-123012779D02*
X147340000Y-122687221D01*
X148360000Y-123012779D02*
X148360000Y-122687221D01*
X151260000Y-112587221D02*
X151260000Y-112912779D01*
X150240000Y-112587221D02*
X150240000Y-112912779D01*
X140010000Y-100662779D02*
X140010000Y-100337221D01*
X138990000Y-100662779D02*
X138990000Y-100337221D01*
X151340000Y-123012779D02*
X151340000Y-122687221D01*
X152360000Y-123012779D02*
X152360000Y-122687221D01*
X142510000Y-100337221D02*
X142510000Y-100662779D01*
X141490000Y-100337221D02*
X141490000Y-100662779D01*
X153340000Y-123012779D02*
X153340000Y-122687221D01*
X154360000Y-123012779D02*
X154360000Y-122687221D01*
X140490000Y-122687221D02*
X140490000Y-123012779D01*
X141510000Y-122687221D02*
X141510000Y-123012779D01*
X138540000Y-122687221D02*
X138540000Y-123012779D01*
X139560000Y-122687221D02*
X139560000Y-123012779D01*
X115510000Y-97087221D02*
X115510000Y-97412779D01*
X114490000Y-97087221D02*
X114490000Y-97412779D01*
X152490000Y-112912779D02*
X152490000Y-112587221D01*
X153510000Y-112912779D02*
X153510000Y-112587221D01*
X157890000Y-108087221D02*
X157890000Y-108412779D01*
X158910000Y-108087221D02*
X158910000Y-108412779D01*
X158360000Y-123012779D02*
X158360000Y-122687221D01*
X157340000Y-123012779D02*
X157340000Y-122687221D01*
X151490000Y-118162779D02*
X151490000Y-117837221D01*
X152510000Y-118162779D02*
X152510000Y-117837221D01*
X156360000Y-123012779D02*
X156360000Y-122687221D01*
X155340000Y-123012779D02*
X155340000Y-122687221D01*
X142910000Y-109837221D02*
X142910000Y-110162779D01*
X141890000Y-109837221D02*
X141890000Y-110162779D01*
X136540000Y-122674721D02*
X136540000Y-123000279D01*
X137560000Y-122674721D02*
X137560000Y-123000279D01*
D12*
X134702380Y-102892857D02*
X134226190Y-103226190D01*
X134702380Y-103464285D02*
X133702380Y-103464285D01*
X133702380Y-103083333D01*
X133750000Y-102988095D01*
X133797619Y-102940476D01*
X133892857Y-102892857D01*
X134035714Y-102892857D01*
X134130952Y-102940476D01*
X134178571Y-102988095D01*
X134226190Y-103083333D01*
X134226190Y-103464285D01*
X134702380Y-101940476D02*
X134702380Y-102511904D01*
X134702380Y-102226190D02*
X133702380Y-102226190D01*
X133845238Y-102321428D01*
X133940476Y-102416666D01*
X133988095Y-102511904D01*
X133702380Y-101607142D02*
X133702380Y-100940476D01*
X134702380Y-101369047D01*
X130952380Y-102892857D02*
X130476190Y-103226190D01*
X130952380Y-103464285D02*
X129952380Y-103464285D01*
X129952380Y-103083333D01*
X130000000Y-102988095D01*
X130047619Y-102940476D01*
X130142857Y-102892857D01*
X130285714Y-102892857D01*
X130380952Y-102940476D01*
X130428571Y-102988095D01*
X130476190Y-103083333D01*
X130476190Y-103464285D01*
X130952380Y-101940476D02*
X130952380Y-102511904D01*
X130952380Y-102226190D02*
X129952380Y-102226190D01*
X130095238Y-102321428D01*
X130190476Y-102416666D01*
X130238095Y-102511904D01*
X129952380Y-101083333D02*
X129952380Y-101273809D01*
X130000000Y-101369047D01*
X130047619Y-101416666D01*
X130190476Y-101511904D01*
X130380952Y-101559523D01*
X130761904Y-101559523D01*
X130857142Y-101511904D01*
X130904761Y-101464285D01*
X130952380Y-101369047D01*
X130952380Y-101178571D01*
X130904761Y-101083333D01*
X130857142Y-101035714D01*
X130761904Y-100988095D01*
X130523809Y-100988095D01*
X130428571Y-101035714D01*
X130380952Y-101083333D01*
X130333333Y-101178571D01*
X130333333Y-101369047D01*
X130380952Y-101464285D01*
X130428571Y-101511904D01*
X130523809Y-101559523D01*
X119452380Y-102952857D02*
X118976190Y-103286190D01*
X119452380Y-103524285D02*
X118452380Y-103524285D01*
X118452380Y-103143333D01*
X118500000Y-103048095D01*
X118547619Y-103000476D01*
X118642857Y-102952857D01*
X118785714Y-102952857D01*
X118880952Y-103000476D01*
X118928571Y-103048095D01*
X118976190Y-103143333D01*
X118976190Y-103524285D01*
X119452380Y-102000476D02*
X119452380Y-102571904D01*
X119452380Y-102286190D02*
X118452380Y-102286190D01*
X118595238Y-102381428D01*
X118690476Y-102476666D01*
X118738095Y-102571904D01*
X118452380Y-101095714D02*
X118452380Y-101571904D01*
X118928571Y-101619523D01*
X118880952Y-101571904D01*
X118833333Y-101476666D01*
X118833333Y-101238571D01*
X118880952Y-101143333D01*
X118928571Y-101095714D01*
X119023809Y-101048095D01*
X119261904Y-101048095D01*
X119357142Y-101095714D01*
X119404761Y-101143333D01*
X119452380Y-101238571D01*
X119452380Y-101476666D01*
X119404761Y-101571904D01*
X119357142Y-101619523D01*
X114378571Y-119535714D02*
X114426190Y-119392857D01*
X114473809Y-119345238D01*
X114569047Y-119297619D01*
X114711904Y-119297619D01*
X114807142Y-119345238D01*
X114854761Y-119392857D01*
X114902380Y-119488095D01*
X114902380Y-119869047D01*
X113902380Y-119869047D01*
X113902380Y-119535714D01*
X113950000Y-119440476D01*
X113997619Y-119392857D01*
X114092857Y-119345238D01*
X114188095Y-119345238D01*
X114283333Y-119392857D01*
X114330952Y-119440476D01*
X114378571Y-119535714D01*
X114378571Y-119869047D01*
X113902380Y-119011904D02*
X113902380Y-118440476D01*
X114902380Y-118726190D02*
X113902380Y-118726190D01*
X113997619Y-118154761D02*
X113950000Y-118107142D01*
X113902380Y-118011904D01*
X113902380Y-117773809D01*
X113950000Y-117678571D01*
X113997619Y-117630952D01*
X114092857Y-117583333D01*
X114188095Y-117583333D01*
X114330952Y-117630952D01*
X114902380Y-118202380D01*
X114902380Y-117583333D01*
X135783094Y-114902380D02*
X135783094Y-115711904D01*
X135830713Y-115807142D01*
X135878332Y-115854761D01*
X135973570Y-115902380D01*
X136164046Y-115902380D01*
X136259284Y-115854761D01*
X136306903Y-115807142D01*
X136354522Y-115711904D01*
X136354522Y-114902380D01*
X137259284Y-115235714D02*
X137259284Y-115902380D01*
X137021189Y-114854761D02*
X136783094Y-115569047D01*
X137402141Y-115569047D01*
X141645833Y-115387142D02*
X141598214Y-115434761D01*
X141455357Y-115482380D01*
X141360119Y-115482380D01*
X141217261Y-115434761D01*
X141122023Y-115339523D01*
X141074404Y-115244285D01*
X141026785Y-115053809D01*
X141026785Y-114910952D01*
X141074404Y-114720476D01*
X141122023Y-114625238D01*
X141217261Y-114530000D01*
X141360119Y-114482380D01*
X141455357Y-114482380D01*
X141598214Y-114530000D01*
X141645833Y-114577619D01*
X141979166Y-114482380D02*
X142645833Y-114482380D01*
X142217261Y-115482380D01*
X158302380Y-108855357D02*
X157826190Y-109188690D01*
X158302380Y-109426785D02*
X157302380Y-109426785D01*
X157302380Y-109045833D01*
X157350000Y-108950595D01*
X157397619Y-108902976D01*
X157492857Y-108855357D01*
X157635714Y-108855357D01*
X157730952Y-108902976D01*
X157778571Y-108950595D01*
X157826190Y-109045833D01*
X157826190Y-109426785D01*
X158302380Y-107902976D02*
X158302380Y-108474404D01*
X158302380Y-108188690D02*
X157302380Y-108188690D01*
X157445238Y-108283928D01*
X157540476Y-108379166D01*
X157588095Y-108474404D01*
X157635714Y-107045833D02*
X158302380Y-107045833D01*
X157254761Y-107283928D02*
X157969047Y-107522023D01*
X157969047Y-106902976D01*
X145633333Y-125652380D02*
X145300000Y-125176190D01*
X145061904Y-125652380D02*
X145061904Y-124652380D01*
X145442857Y-124652380D01*
X145538095Y-124700000D01*
X145585714Y-124747619D01*
X145633333Y-124842857D01*
X145633333Y-124985714D01*
X145585714Y-125080952D01*
X145538095Y-125128571D01*
X145442857Y-125176190D01*
X145061904Y-125176190D01*
X146204761Y-125080952D02*
X146109523Y-125033333D01*
X146061904Y-124985714D01*
X146014285Y-124890476D01*
X146014285Y-124842857D01*
X146061904Y-124747619D01*
X146109523Y-124700000D01*
X146204761Y-124652380D01*
X146395238Y-124652380D01*
X146490476Y-124700000D01*
X146538095Y-124747619D01*
X146585714Y-124842857D01*
X146585714Y-124890476D01*
X146538095Y-124985714D01*
X146490476Y-125033333D01*
X146395238Y-125080952D01*
X146204761Y-125080952D01*
X146109523Y-125128571D01*
X146061904Y-125176190D01*
X146014285Y-125271428D01*
X146014285Y-125461904D01*
X146061904Y-125557142D01*
X146109523Y-125604761D01*
X146204761Y-125652380D01*
X146395238Y-125652380D01*
X146490476Y-125604761D01*
X146538095Y-125557142D01*
X146585714Y-125461904D01*
X146585714Y-125271428D01*
X146538095Y-125176190D01*
X146490476Y-125128571D01*
X146395238Y-125080952D01*
X143233333Y-125652380D02*
X142900000Y-125176190D01*
X142661904Y-125652380D02*
X142661904Y-124652380D01*
X143042857Y-124652380D01*
X143138095Y-124700000D01*
X143185714Y-124747619D01*
X143233333Y-124842857D01*
X143233333Y-124985714D01*
X143185714Y-125080952D01*
X143138095Y-125128571D01*
X143042857Y-125176190D01*
X142661904Y-125176190D01*
X144090476Y-124652380D02*
X143900000Y-124652380D01*
X143804761Y-124700000D01*
X143757142Y-124747619D01*
X143661904Y-124890476D01*
X143614285Y-125080952D01*
X143614285Y-125461904D01*
X143661904Y-125557142D01*
X143709523Y-125604761D01*
X143804761Y-125652380D01*
X143995238Y-125652380D01*
X144090476Y-125604761D01*
X144138095Y-125557142D01*
X144185714Y-125461904D01*
X144185714Y-125223809D01*
X144138095Y-125128571D01*
X144090476Y-125080952D01*
X143995238Y-125033333D01*
X143804761Y-125033333D01*
X143709523Y-125080952D01*
X143661904Y-125128571D01*
X143614285Y-125223809D01*
X149254761Y-94702380D02*
X149254761Y-93702380D01*
X149492857Y-93702380D01*
X149635714Y-93750000D01*
X149730952Y-93845238D01*
X149778571Y-93940476D01*
X149826190Y-94130952D01*
X149826190Y-94273809D01*
X149778571Y-94464285D01*
X149730952Y-94559523D01*
X149635714Y-94654761D01*
X149492857Y-94702380D01*
X149254761Y-94702380D01*
X150254761Y-94702380D02*
X150254761Y-93702380D01*
X150635714Y-93702380D01*
X150730952Y-93750000D01*
X150778571Y-93797619D01*
X150826190Y-93892857D01*
X150826190Y-94035714D01*
X150778571Y-94130952D01*
X150730952Y-94178571D01*
X150635714Y-94226190D01*
X150254761Y-94226190D01*
X151159523Y-93702380D02*
X151778571Y-93702380D01*
X151445238Y-94083333D01*
X151588095Y-94083333D01*
X151683333Y-94130952D01*
X151730952Y-94178571D01*
X151778571Y-94273809D01*
X151778571Y-94511904D01*
X151730952Y-94607142D01*
X151683333Y-94654761D01*
X151588095Y-94702380D01*
X151302380Y-94702380D01*
X151207142Y-94654761D01*
X151159523Y-94607142D01*
X152064285Y-93702380D02*
X152635714Y-93702380D01*
X152350000Y-94702380D02*
X152350000Y-93702380D01*
X153492857Y-94702380D02*
X152921428Y-94702380D01*
X153207142Y-94702380D02*
X153207142Y-93702380D01*
X153111904Y-93845238D01*
X153016666Y-93940476D01*
X152921428Y-93988095D01*
X168657142Y-110504285D02*
X168704761Y-110551904D01*
X168752380Y-110694761D01*
X168752380Y-110790000D01*
X168704761Y-110932857D01*
X168609523Y-111028095D01*
X168514285Y-111075714D01*
X168323809Y-111123333D01*
X168180952Y-111123333D01*
X167990476Y-111075714D01*
X167895238Y-111028095D01*
X167800000Y-110932857D01*
X167752380Y-110790000D01*
X167752380Y-110694761D01*
X167800000Y-110551904D01*
X167847619Y-110504285D01*
X167752380Y-109885238D02*
X167752380Y-109694761D01*
X167800000Y-109599523D01*
X167895238Y-109504285D01*
X168085714Y-109456666D01*
X168419047Y-109456666D01*
X168609523Y-109504285D01*
X168704761Y-109599523D01*
X168752380Y-109694761D01*
X168752380Y-109885238D01*
X168704761Y-109980476D01*
X168609523Y-110075714D01*
X168419047Y-110123333D01*
X168085714Y-110123333D01*
X167895238Y-110075714D01*
X167800000Y-109980476D01*
X167752380Y-109885238D01*
X168752380Y-109028095D02*
X167752380Y-109028095D01*
X168752380Y-108456666D01*
X167752380Y-108456666D01*
X167847619Y-108028095D02*
X167800000Y-107980476D01*
X167752380Y-107885238D01*
X167752380Y-107647142D01*
X167800000Y-107551904D01*
X167847619Y-107504285D01*
X167942857Y-107456666D01*
X168038095Y-107456666D01*
X168180952Y-107504285D01*
X168752380Y-108075714D01*
X168752380Y-107456666D01*
X162678571Y-101011904D02*
X162726190Y-100869047D01*
X162773809Y-100821428D01*
X162869047Y-100773809D01*
X163011904Y-100773809D01*
X163107142Y-100821428D01*
X163154761Y-100869047D01*
X163202380Y-100964285D01*
X163202380Y-101345238D01*
X162202380Y-101345238D01*
X162202380Y-101011904D01*
X162250000Y-100916666D01*
X162297619Y-100869047D01*
X162392857Y-100821428D01*
X162488095Y-100821428D01*
X162583333Y-100869047D01*
X162630952Y-100916666D01*
X162678571Y-101011904D01*
X162678571Y-101345238D01*
X163202380Y-99869047D02*
X163202380Y-100345238D01*
X162202380Y-100345238D01*
X162916666Y-99583333D02*
X162916666Y-99107142D01*
X163202380Y-99678571D02*
X162202380Y-99345238D01*
X163202380Y-99011904D01*
X163107142Y-98107142D02*
X163154761Y-98154761D01*
X163202380Y-98297619D01*
X163202380Y-98392857D01*
X163154761Y-98535714D01*
X163059523Y-98630952D01*
X162964285Y-98678571D01*
X162773809Y-98726190D01*
X162630952Y-98726190D01*
X162440476Y-98678571D01*
X162345238Y-98630952D01*
X162250000Y-98535714D01*
X162202380Y-98392857D01*
X162202380Y-98297619D01*
X162250000Y-98154761D01*
X162297619Y-98107142D01*
X163202380Y-97678571D02*
X162202380Y-97678571D01*
X163202380Y-97107142D02*
X162630952Y-97535714D01*
X162202380Y-97107142D02*
X162773809Y-97678571D01*
X162952380Y-119892857D02*
X162476190Y-120226190D01*
X162952380Y-120464285D02*
X161952380Y-120464285D01*
X161952380Y-120083333D01*
X162000000Y-119988095D01*
X162047619Y-119940476D01*
X162142857Y-119892857D01*
X162285714Y-119892857D01*
X162380952Y-119940476D01*
X162428571Y-119988095D01*
X162476190Y-120083333D01*
X162476190Y-120464285D01*
X162428571Y-119464285D02*
X162428571Y-119130952D01*
X162952380Y-118988095D02*
X162952380Y-119464285D01*
X161952380Y-119464285D01*
X161952380Y-118988095D01*
X162952380Y-118559523D02*
X161952380Y-118559523D01*
X161952380Y-118321428D01*
X162000000Y-118178571D01*
X162095238Y-118083333D01*
X162190476Y-118035714D01*
X162380952Y-117988095D01*
X162523809Y-117988095D01*
X162714285Y-118035714D01*
X162809523Y-118083333D01*
X162904761Y-118178571D01*
X162952380Y-118321428D01*
X162952380Y-118559523D01*
X103647142Y-110224285D02*
X103694761Y-110271904D01*
X103742380Y-110414761D01*
X103742380Y-110510000D01*
X103694761Y-110652857D01*
X103599523Y-110748095D01*
X103504285Y-110795714D01*
X103313809Y-110843333D01*
X103170952Y-110843333D01*
X102980476Y-110795714D01*
X102885238Y-110748095D01*
X102790000Y-110652857D01*
X102742380Y-110510000D01*
X102742380Y-110414761D01*
X102790000Y-110271904D01*
X102837619Y-110224285D01*
X102742380Y-109605238D02*
X102742380Y-109414761D01*
X102790000Y-109319523D01*
X102885238Y-109224285D01*
X103075714Y-109176666D01*
X103409047Y-109176666D01*
X103599523Y-109224285D01*
X103694761Y-109319523D01*
X103742380Y-109414761D01*
X103742380Y-109605238D01*
X103694761Y-109700476D01*
X103599523Y-109795714D01*
X103409047Y-109843333D01*
X103075714Y-109843333D01*
X102885238Y-109795714D01*
X102790000Y-109700476D01*
X102742380Y-109605238D01*
X103742380Y-108748095D02*
X102742380Y-108748095D01*
X103742380Y-108176666D01*
X102742380Y-108176666D01*
X103742380Y-107176666D02*
X103742380Y-107748095D01*
X103742380Y-107462380D02*
X102742380Y-107462380D01*
X102885238Y-107557619D01*
X102980476Y-107652857D01*
X103028095Y-107748095D01*
X109178571Y-120901904D02*
X109226190Y-120759047D01*
X109273809Y-120711428D01*
X109369047Y-120663809D01*
X109511904Y-120663809D01*
X109607142Y-120711428D01*
X109654761Y-120759047D01*
X109702380Y-120854285D01*
X109702380Y-121235238D01*
X108702380Y-121235238D01*
X108702380Y-120901904D01*
X108750000Y-120806666D01*
X108797619Y-120759047D01*
X108892857Y-120711428D01*
X108988095Y-120711428D01*
X109083333Y-120759047D01*
X109130952Y-120806666D01*
X109178571Y-120901904D01*
X109178571Y-121235238D01*
X109702380Y-119759047D02*
X109702380Y-120235238D01*
X108702380Y-120235238D01*
X109416666Y-119473333D02*
X109416666Y-118997142D01*
X109702380Y-119568571D02*
X108702380Y-119235238D01*
X109702380Y-118901904D01*
X109607142Y-117997142D02*
X109654761Y-118044761D01*
X109702380Y-118187619D01*
X109702380Y-118282857D01*
X109654761Y-118425714D01*
X109559523Y-118520952D01*
X109464285Y-118568571D01*
X109273809Y-118616190D01*
X109130952Y-118616190D01*
X108940476Y-118568571D01*
X108845238Y-118520952D01*
X108750000Y-118425714D01*
X108702380Y-118282857D01*
X108702380Y-118187619D01*
X108750000Y-118044761D01*
X108797619Y-117997142D01*
X109702380Y-117568571D02*
X108702380Y-117568571D01*
X109702380Y-116997142D02*
X109130952Y-117425714D01*
X108702380Y-116997142D02*
X109273809Y-117568571D01*
X109452380Y-99782857D02*
X108976190Y-100116190D01*
X109452380Y-100354285D02*
X108452380Y-100354285D01*
X108452380Y-99973333D01*
X108500000Y-99878095D01*
X108547619Y-99830476D01*
X108642857Y-99782857D01*
X108785714Y-99782857D01*
X108880952Y-99830476D01*
X108928571Y-99878095D01*
X108976190Y-99973333D01*
X108976190Y-100354285D01*
X108928571Y-99354285D02*
X108928571Y-99020952D01*
X109452380Y-98878095D02*
X109452380Y-99354285D01*
X108452380Y-99354285D01*
X108452380Y-98878095D01*
X109452380Y-98449523D02*
X108452380Y-98449523D01*
X108452380Y-98211428D01*
X108500000Y-98068571D01*
X108595238Y-97973333D01*
X108690476Y-97925714D01*
X108880952Y-97878095D01*
X109023809Y-97878095D01*
X109214285Y-97925714D01*
X109309523Y-97973333D01*
X109404761Y-98068571D01*
X109452380Y-98211428D01*
X109452380Y-98449523D01*
X149433333Y-125577142D02*
X149385714Y-125624761D01*
X149242857Y-125672380D01*
X149147619Y-125672380D01*
X149004761Y-125624761D01*
X148909523Y-125529523D01*
X148861904Y-125434285D01*
X148814285Y-125243809D01*
X148814285Y-125100952D01*
X148861904Y-124910476D01*
X148909523Y-124815238D01*
X149004761Y-124720000D01*
X149147619Y-124672380D01*
X149242857Y-124672380D01*
X149385714Y-124720000D01*
X149433333Y-124767619D01*
X149814285Y-124767619D02*
X149861904Y-124720000D01*
X149957142Y-124672380D01*
X150195238Y-124672380D01*
X150290476Y-124720000D01*
X150338095Y-124767619D01*
X150385714Y-124862857D01*
X150385714Y-124958095D01*
X150338095Y-125100952D01*
X149766666Y-125672380D01*
X150385714Y-125672380D01*
X144158095Y-119872380D02*
X144158095Y-120681904D01*
X144205714Y-120777142D01*
X144253333Y-120824761D01*
X144348571Y-120872380D01*
X144539047Y-120872380D01*
X144634285Y-120824761D01*
X144681904Y-120777142D01*
X144729523Y-120681904D01*
X144729523Y-119872380D01*
X145729523Y-120872380D02*
X145158095Y-120872380D01*
X145443809Y-120872380D02*
X145443809Y-119872380D01*
X145348571Y-120015238D01*
X145253333Y-120110476D01*
X145158095Y-120158095D01*
X146968095Y-114842380D02*
X146968095Y-115651904D01*
X147015714Y-115747142D01*
X147063333Y-115794761D01*
X147158571Y-115842380D01*
X147349047Y-115842380D01*
X147444285Y-115794761D01*
X147491904Y-115747142D01*
X147539523Y-115651904D01*
X147539523Y-114842380D01*
X147968095Y-114937619D02*
X148015714Y-114890000D01*
X148110952Y-114842380D01*
X148349047Y-114842380D01*
X148444285Y-114890000D01*
X148491904Y-114937619D01*
X148539523Y-115032857D01*
X148539523Y-115128095D01*
X148491904Y-115270952D01*
X147920476Y-115842380D01*
X148539523Y-115842380D01*
X144828095Y-112072380D02*
X144828095Y-112881904D01*
X144875714Y-112977142D01*
X144923333Y-113024761D01*
X145018571Y-113072380D01*
X145209047Y-113072380D01*
X145304285Y-113024761D01*
X145351904Y-112977142D01*
X145399523Y-112881904D01*
X145399523Y-112072380D01*
X145780476Y-112072380D02*
X146399523Y-112072380D01*
X146066190Y-112453333D01*
X146209047Y-112453333D01*
X146304285Y-112500952D01*
X146351904Y-112548571D01*
X146399523Y-112643809D01*
X146399523Y-112881904D01*
X146351904Y-112977142D01*
X146304285Y-113024761D01*
X146209047Y-113072380D01*
X145923333Y-113072380D01*
X145828095Y-113024761D01*
X145780476Y-112977142D01*
X147663333Y-125602380D02*
X147330000Y-125126190D01*
X147091904Y-125602380D02*
X147091904Y-124602380D01*
X147472857Y-124602380D01*
X147568095Y-124650000D01*
X147615714Y-124697619D01*
X147663333Y-124792857D01*
X147663333Y-124935714D01*
X147615714Y-125030952D01*
X147568095Y-125078571D01*
X147472857Y-125126190D01*
X147091904Y-125126190D01*
X148139523Y-125602380D02*
X148330000Y-125602380D01*
X148425238Y-125554761D01*
X148472857Y-125507142D01*
X148568095Y-125364285D01*
X148615714Y-125173809D01*
X148615714Y-124792857D01*
X148568095Y-124697619D01*
X148520476Y-124650000D01*
X148425238Y-124602380D01*
X148234761Y-124602380D01*
X148139523Y-124650000D01*
X148091904Y-124697619D01*
X148044285Y-124792857D01*
X148044285Y-125030952D01*
X148091904Y-125126190D01*
X148139523Y-125173809D01*
X148234761Y-125221428D01*
X148425238Y-125221428D01*
X148520476Y-125173809D01*
X148568095Y-125126190D01*
X148615714Y-125030952D01*
X150087142Y-111032380D02*
X149753809Y-110556190D01*
X149515714Y-111032380D02*
X149515714Y-110032380D01*
X149896666Y-110032380D01*
X149991904Y-110080000D01*
X150039523Y-110127619D01*
X150087142Y-110222857D01*
X150087142Y-110365714D01*
X150039523Y-110460952D01*
X149991904Y-110508571D01*
X149896666Y-110556190D01*
X149515714Y-110556190D01*
X151039523Y-111032380D02*
X150468095Y-111032380D01*
X150753809Y-111032380D02*
X150753809Y-110032380D01*
X150658571Y-110175238D01*
X150563333Y-110270476D01*
X150468095Y-110318095D01*
X151658571Y-110032380D02*
X151753809Y-110032380D01*
X151849047Y-110080000D01*
X151896666Y-110127619D01*
X151944285Y-110222857D01*
X151991904Y-110413333D01*
X151991904Y-110651428D01*
X151944285Y-110841904D01*
X151896666Y-110937142D01*
X151849047Y-110984761D01*
X151753809Y-111032380D01*
X151658571Y-111032380D01*
X151563333Y-110984761D01*
X151515714Y-110937142D01*
X151468095Y-110841904D01*
X151420476Y-110651428D01*
X151420476Y-110413333D01*
X151468095Y-110222857D01*
X151515714Y-110127619D01*
X151563333Y-110080000D01*
X151658571Y-110032380D01*
X139343333Y-98552380D02*
X139010000Y-98076190D01*
X138771904Y-98552380D02*
X138771904Y-97552380D01*
X139152857Y-97552380D01*
X139248095Y-97600000D01*
X139295714Y-97647619D01*
X139343333Y-97742857D01*
X139343333Y-97885714D01*
X139295714Y-97980952D01*
X139248095Y-98028571D01*
X139152857Y-98076190D01*
X138771904Y-98076190D01*
X140200476Y-97885714D02*
X140200476Y-98552380D01*
X139962380Y-97504761D02*
X139724285Y-98219047D01*
X140343333Y-98219047D01*
X138202380Y-103500000D02*
X138202380Y-104071428D01*
X138202380Y-103785714D02*
X137202380Y-103785714D01*
X137345238Y-103880952D01*
X137440476Y-103976190D01*
X137488095Y-104071428D01*
X137202380Y-102880952D02*
X137202380Y-102785714D01*
X137250000Y-102690476D01*
X137297619Y-102642857D01*
X137392857Y-102595238D01*
X137583333Y-102547619D01*
X137821428Y-102547619D01*
X138011904Y-102595238D01*
X138107142Y-102642857D01*
X138154761Y-102690476D01*
X138202380Y-102785714D01*
X138202380Y-102880952D01*
X138154761Y-102976190D01*
X138107142Y-103023809D01*
X138011904Y-103071428D01*
X137821428Y-103119047D01*
X137583333Y-103119047D01*
X137392857Y-103071428D01*
X137297619Y-103023809D01*
X137250000Y-102976190D01*
X137202380Y-102880952D01*
X138202380Y-102119047D02*
X137535714Y-102119047D01*
X137630952Y-102119047D02*
X137583333Y-102071428D01*
X137535714Y-101976190D01*
X137535714Y-101833333D01*
X137583333Y-101738095D01*
X137678571Y-101690476D01*
X138202380Y-101690476D01*
X137678571Y-101690476D02*
X137583333Y-101642857D01*
X137535714Y-101547619D01*
X137535714Y-101404761D01*
X137583333Y-101309523D01*
X137678571Y-101261904D01*
X138202380Y-101261904D01*
X138107142Y-100023809D02*
X138154761Y-99976190D01*
X138202380Y-100023809D01*
X138154761Y-100071428D01*
X138107142Y-100023809D01*
X138202380Y-100023809D01*
X137202380Y-99357142D02*
X137202380Y-99261904D01*
X137250000Y-99166666D01*
X137297619Y-99119047D01*
X137392857Y-99071428D01*
X137583333Y-99023809D01*
X137821428Y-99023809D01*
X138011904Y-99071428D01*
X138107142Y-99119047D01*
X138154761Y-99166666D01*
X138202380Y-99261904D01*
X138202380Y-99357142D01*
X138154761Y-99452380D01*
X138107142Y-99500000D01*
X138011904Y-99547619D01*
X137821428Y-99595238D01*
X137583333Y-99595238D01*
X137392857Y-99547619D01*
X137297619Y-99500000D01*
X137250000Y-99452380D01*
X137202380Y-99357142D01*
X137202380Y-98119047D02*
X137202380Y-98595238D01*
X137678571Y-98642857D01*
X137630952Y-98595238D01*
X137583333Y-98500000D01*
X137583333Y-98261904D01*
X137630952Y-98166666D01*
X137678571Y-98119047D01*
X137773809Y-98071428D01*
X138011904Y-98071428D01*
X138107142Y-98119047D01*
X138154761Y-98166666D01*
X138202380Y-98261904D01*
X138202380Y-98500000D01*
X138154761Y-98595238D01*
X138107142Y-98642857D01*
X138202380Y-97690476D02*
X137202380Y-96928571D01*
X137202380Y-97547619D02*
X137250000Y-97452380D01*
X137345238Y-97404761D01*
X137440476Y-97452380D01*
X137488095Y-97547619D01*
X137440476Y-97642857D01*
X137345238Y-97690476D01*
X137250000Y-97642857D01*
X137202380Y-97547619D01*
X138154761Y-96976190D02*
X138059523Y-96928571D01*
X137964285Y-96976190D01*
X137916666Y-97071428D01*
X137964285Y-97166666D01*
X138059523Y-97214285D01*
X138154761Y-97166666D01*
X138202380Y-97071428D01*
X138154761Y-96976190D01*
X151773333Y-121212380D02*
X151440000Y-120736190D01*
X151201904Y-121212380D02*
X151201904Y-120212380D01*
X151582857Y-120212380D01*
X151678095Y-120260000D01*
X151725714Y-120307619D01*
X151773333Y-120402857D01*
X151773333Y-120545714D01*
X151725714Y-120640952D01*
X151678095Y-120688571D01*
X151582857Y-120736190D01*
X151201904Y-120736190D01*
X152106666Y-120212380D02*
X152773333Y-120212380D01*
X152344761Y-121212380D01*
X141883333Y-103392380D02*
X141550000Y-102916190D01*
X141311904Y-103392380D02*
X141311904Y-102392380D01*
X141692857Y-102392380D01*
X141788095Y-102440000D01*
X141835714Y-102487619D01*
X141883333Y-102582857D01*
X141883333Y-102725714D01*
X141835714Y-102820952D01*
X141788095Y-102868571D01*
X141692857Y-102916190D01*
X141311904Y-102916190D01*
X142788095Y-102392380D02*
X142311904Y-102392380D01*
X142264285Y-102868571D01*
X142311904Y-102820952D01*
X142407142Y-102773333D01*
X142645238Y-102773333D01*
X142740476Y-102820952D01*
X142788095Y-102868571D01*
X142835714Y-102963809D01*
X142835714Y-103201904D01*
X142788095Y-103297142D01*
X142740476Y-103344761D01*
X142645238Y-103392380D01*
X142407142Y-103392380D01*
X142311904Y-103344761D01*
X142264285Y-103297142D01*
X144202380Y-102833333D02*
X144202380Y-103404761D01*
X144202380Y-103119047D02*
X143202380Y-103119047D01*
X143345238Y-103214285D01*
X143440476Y-103309523D01*
X143488095Y-103404761D01*
X143202380Y-102214285D02*
X143202380Y-102119047D01*
X143250000Y-102023809D01*
X143297619Y-101976190D01*
X143392857Y-101928571D01*
X143583333Y-101880952D01*
X143821428Y-101880952D01*
X144011904Y-101928571D01*
X144107142Y-101976190D01*
X144154761Y-102023809D01*
X144202380Y-102119047D01*
X144202380Y-102214285D01*
X144154761Y-102309523D01*
X144107142Y-102357142D01*
X144011904Y-102404761D01*
X143821428Y-102452380D01*
X143583333Y-102452380D01*
X143392857Y-102404761D01*
X143297619Y-102357142D01*
X143250000Y-102309523D01*
X143202380Y-102214285D01*
X144107142Y-100690476D02*
X144154761Y-100642857D01*
X144202380Y-100690476D01*
X144154761Y-100738095D01*
X144107142Y-100690476D01*
X144202380Y-100690476D01*
X143202380Y-100023809D02*
X143202380Y-99928571D01*
X143250000Y-99833333D01*
X143297619Y-99785714D01*
X143392857Y-99738095D01*
X143583333Y-99690476D01*
X143821428Y-99690476D01*
X144011904Y-99738095D01*
X144107142Y-99785714D01*
X144154761Y-99833333D01*
X144202380Y-99928571D01*
X144202380Y-100023809D01*
X144154761Y-100119047D01*
X144107142Y-100166666D01*
X144011904Y-100214285D01*
X143821428Y-100261904D01*
X143583333Y-100261904D01*
X143392857Y-100214285D01*
X143297619Y-100166666D01*
X143250000Y-100119047D01*
X143202380Y-100023809D01*
X143202380Y-98785714D02*
X143202380Y-99261904D01*
X143678571Y-99309523D01*
X143630952Y-99261904D01*
X143583333Y-99166666D01*
X143583333Y-98928571D01*
X143630952Y-98833333D01*
X143678571Y-98785714D01*
X143773809Y-98738095D01*
X144011904Y-98738095D01*
X144107142Y-98785714D01*
X144154761Y-98833333D01*
X144202380Y-98928571D01*
X144202380Y-99166666D01*
X144154761Y-99261904D01*
X144107142Y-99309523D01*
X144202380Y-98357142D02*
X143202380Y-97595238D01*
X143202380Y-98214285D02*
X143250000Y-98119047D01*
X143345238Y-98071428D01*
X143440476Y-98119047D01*
X143488095Y-98214285D01*
X143440476Y-98309523D01*
X143345238Y-98357142D01*
X143250000Y-98309523D01*
X143202380Y-98214285D01*
X144154761Y-97642857D02*
X144059523Y-97595238D01*
X143964285Y-97642857D01*
X143916666Y-97738095D01*
X143964285Y-97833333D01*
X144059523Y-97880952D01*
X144154761Y-97833333D01*
X144202380Y-97738095D01*
X144154761Y-97642857D01*
X153657142Y-125672380D02*
X153323809Y-125196190D01*
X153085714Y-125672380D02*
X153085714Y-124672380D01*
X153466666Y-124672380D01*
X153561904Y-124720000D01*
X153609523Y-124767619D01*
X153657142Y-124862857D01*
X153657142Y-125005714D01*
X153609523Y-125100952D01*
X153561904Y-125148571D01*
X153466666Y-125196190D01*
X153085714Y-125196190D01*
X154609523Y-125672380D02*
X154038095Y-125672380D01*
X154323809Y-125672380D02*
X154323809Y-124672380D01*
X154228571Y-124815238D01*
X154133333Y-124910476D01*
X154038095Y-124958095D01*
X154942857Y-124672380D02*
X155561904Y-124672380D01*
X155228571Y-125053333D01*
X155371428Y-125053333D01*
X155466666Y-125100952D01*
X155514285Y-125148571D01*
X155561904Y-125243809D01*
X155561904Y-125481904D01*
X155514285Y-125577142D01*
X155466666Y-125624761D01*
X155371428Y-125672380D01*
X155085714Y-125672380D01*
X154990476Y-125624761D01*
X154942857Y-125577142D01*
X140603333Y-125622380D02*
X140270000Y-125146190D01*
X140031904Y-125622380D02*
X140031904Y-124622380D01*
X140412857Y-124622380D01*
X140508095Y-124670000D01*
X140555714Y-124717619D01*
X140603333Y-124812857D01*
X140603333Y-124955714D01*
X140555714Y-125050952D01*
X140508095Y-125098571D01*
X140412857Y-125146190D01*
X140031904Y-125146190D01*
X140936666Y-124622380D02*
X141555714Y-124622380D01*
X141222380Y-125003333D01*
X141365238Y-125003333D01*
X141460476Y-125050952D01*
X141508095Y-125098571D01*
X141555714Y-125193809D01*
X141555714Y-125431904D01*
X141508095Y-125527142D01*
X141460476Y-125574761D01*
X141365238Y-125622380D01*
X141079523Y-125622380D01*
X140984285Y-125574761D01*
X140936666Y-125527142D01*
X138893333Y-121122380D02*
X138560000Y-120646190D01*
X138321904Y-121122380D02*
X138321904Y-120122380D01*
X138702857Y-120122380D01*
X138798095Y-120170000D01*
X138845714Y-120217619D01*
X138893333Y-120312857D01*
X138893333Y-120455714D01*
X138845714Y-120550952D01*
X138798095Y-120598571D01*
X138702857Y-120646190D01*
X138321904Y-120646190D01*
X139274285Y-120217619D02*
X139321904Y-120170000D01*
X139417142Y-120122380D01*
X139655238Y-120122380D01*
X139750476Y-120170000D01*
X139798095Y-120217619D01*
X139845714Y-120312857D01*
X139845714Y-120408095D01*
X139798095Y-120550952D01*
X139226666Y-121122380D01*
X139845714Y-121122380D01*
X114813333Y-100002380D02*
X114480000Y-99526190D01*
X114241904Y-100002380D02*
X114241904Y-99002380D01*
X114622857Y-99002380D01*
X114718095Y-99050000D01*
X114765714Y-99097619D01*
X114813333Y-99192857D01*
X114813333Y-99335714D01*
X114765714Y-99430952D01*
X114718095Y-99478571D01*
X114622857Y-99526190D01*
X114241904Y-99526190D01*
X115765714Y-100002380D02*
X115194285Y-100002380D01*
X115480000Y-100002380D02*
X115480000Y-99002380D01*
X115384761Y-99145238D01*
X115289523Y-99240476D01*
X115194285Y-99288095D01*
X115452380Y-107178095D02*
X115452380Y-107749523D01*
X115452380Y-107463809D02*
X114452380Y-107463809D01*
X114595238Y-107559047D01*
X114690476Y-107654285D01*
X114738095Y-107749523D01*
X114452380Y-106559047D02*
X114452380Y-106463809D01*
X114500000Y-106368571D01*
X114547619Y-106320952D01*
X114642857Y-106273333D01*
X114833333Y-106225714D01*
X115071428Y-106225714D01*
X115261904Y-106273333D01*
X115357142Y-106320952D01*
X115404761Y-106368571D01*
X115452380Y-106463809D01*
X115452380Y-106559047D01*
X115404761Y-106654285D01*
X115357142Y-106701904D01*
X115261904Y-106749523D01*
X115071428Y-106797142D01*
X114833333Y-106797142D01*
X114642857Y-106749523D01*
X114547619Y-106701904D01*
X114500000Y-106654285D01*
X114452380Y-106559047D01*
X115452380Y-105797142D02*
X114452380Y-105797142D01*
X115071428Y-105701904D02*
X115452380Y-105416190D01*
X114785714Y-105416190D02*
X115166666Y-105797142D01*
X115357142Y-104225714D02*
X115404761Y-104178095D01*
X115452380Y-104225714D01*
X115404761Y-104273333D01*
X115357142Y-104225714D01*
X115452380Y-104225714D01*
X114452380Y-103559047D02*
X114452380Y-103463809D01*
X114500000Y-103368571D01*
X114547619Y-103320952D01*
X114642857Y-103273333D01*
X114833333Y-103225714D01*
X115071428Y-103225714D01*
X115261904Y-103273333D01*
X115357142Y-103320952D01*
X115404761Y-103368571D01*
X115452380Y-103463809D01*
X115452380Y-103559047D01*
X115404761Y-103654285D01*
X115357142Y-103701904D01*
X115261904Y-103749523D01*
X115071428Y-103797142D01*
X114833333Y-103797142D01*
X114642857Y-103749523D01*
X114547619Y-103701904D01*
X114500000Y-103654285D01*
X114452380Y-103559047D01*
X114452380Y-102320952D02*
X114452380Y-102797142D01*
X114928571Y-102844761D01*
X114880952Y-102797142D01*
X114833333Y-102701904D01*
X114833333Y-102463809D01*
X114880952Y-102368571D01*
X114928571Y-102320952D01*
X115023809Y-102273333D01*
X115261904Y-102273333D01*
X115357142Y-102320952D01*
X115404761Y-102368571D01*
X115452380Y-102463809D01*
X115452380Y-102701904D01*
X115404761Y-102797142D01*
X115357142Y-102844761D01*
X115452380Y-101892380D02*
X114452380Y-101130476D01*
X114452380Y-101749523D02*
X114500000Y-101654285D01*
X114595238Y-101606666D01*
X114690476Y-101654285D01*
X114738095Y-101749523D01*
X114690476Y-101844761D01*
X114595238Y-101892380D01*
X114500000Y-101844761D01*
X114452380Y-101749523D01*
X115404761Y-101178095D02*
X115309523Y-101130476D01*
X115214285Y-101178095D01*
X115166666Y-101273333D01*
X115214285Y-101368571D01*
X115309523Y-101416190D01*
X115404761Y-101368571D01*
X115452380Y-101273333D01*
X115404761Y-101178095D01*
X153067142Y-115472380D02*
X152733809Y-114996190D01*
X152495714Y-115472380D02*
X152495714Y-114472380D01*
X152876666Y-114472380D01*
X152971904Y-114520000D01*
X153019523Y-114567619D01*
X153067142Y-114662857D01*
X153067142Y-114805714D01*
X153019523Y-114900952D01*
X152971904Y-114948571D01*
X152876666Y-114996190D01*
X152495714Y-114996190D01*
X154019523Y-115472380D02*
X153448095Y-115472380D01*
X153733809Y-115472380D02*
X153733809Y-114472380D01*
X153638571Y-114615238D01*
X153543333Y-114710476D01*
X153448095Y-114758095D01*
X154400476Y-114567619D02*
X154448095Y-114520000D01*
X154543333Y-114472380D01*
X154781428Y-114472380D01*
X154876666Y-114520000D01*
X154924285Y-114567619D01*
X154971904Y-114662857D01*
X154971904Y-114758095D01*
X154924285Y-114900952D01*
X154352857Y-115472380D01*
X154971904Y-115472380D01*
X158213333Y-106497142D02*
X158165714Y-106544761D01*
X158022857Y-106592380D01*
X157927619Y-106592380D01*
X157784761Y-106544761D01*
X157689523Y-106449523D01*
X157641904Y-106354285D01*
X157594285Y-106163809D01*
X157594285Y-106020952D01*
X157641904Y-105830476D01*
X157689523Y-105735238D01*
X157784761Y-105640000D01*
X157927619Y-105592380D01*
X158022857Y-105592380D01*
X158165714Y-105640000D01*
X158213333Y-105687619D01*
X159070476Y-105592380D02*
X158880000Y-105592380D01*
X158784761Y-105640000D01*
X158737142Y-105687619D01*
X158641904Y-105830476D01*
X158594285Y-106020952D01*
X158594285Y-106401904D01*
X158641904Y-106497142D01*
X158689523Y-106544761D01*
X158784761Y-106592380D01*
X158975238Y-106592380D01*
X159070476Y-106544761D01*
X159118095Y-106497142D01*
X159165714Y-106401904D01*
X159165714Y-106163809D01*
X159118095Y-106068571D01*
X159070476Y-106020952D01*
X158975238Y-105973333D01*
X158784761Y-105973333D01*
X158689523Y-106020952D01*
X158641904Y-106068571D01*
X158594285Y-106163809D01*
X157237142Y-125582380D02*
X156903809Y-125106190D01*
X156665714Y-125582380D02*
X156665714Y-124582380D01*
X157046666Y-124582380D01*
X157141904Y-124630000D01*
X157189523Y-124677619D01*
X157237142Y-124772857D01*
X157237142Y-124915714D01*
X157189523Y-125010952D01*
X157141904Y-125058571D01*
X157046666Y-125106190D01*
X156665714Y-125106190D01*
X158189523Y-125582380D02*
X157618095Y-125582380D01*
X157903809Y-125582380D02*
X157903809Y-124582380D01*
X157808571Y-124725238D01*
X157713333Y-124820476D01*
X157618095Y-124868095D01*
X159141904Y-125582380D02*
X158570476Y-125582380D01*
X158856190Y-125582380D02*
X158856190Y-124582380D01*
X158760952Y-124725238D01*
X158665714Y-124820476D01*
X158570476Y-124868095D01*
X153573333Y-118357142D02*
X153525714Y-118404761D01*
X153382857Y-118452380D01*
X153287619Y-118452380D01*
X153144761Y-118404761D01*
X153049523Y-118309523D01*
X153001904Y-118214285D01*
X152954285Y-118023809D01*
X152954285Y-117880952D01*
X153001904Y-117690476D01*
X153049523Y-117595238D01*
X153144761Y-117500000D01*
X153287619Y-117452380D01*
X153382857Y-117452380D01*
X153525714Y-117500000D01*
X153573333Y-117547619D01*
X154478095Y-117452380D02*
X154001904Y-117452380D01*
X153954285Y-117928571D01*
X154001904Y-117880952D01*
X154097142Y-117833333D01*
X154335238Y-117833333D01*
X154430476Y-117880952D01*
X154478095Y-117928571D01*
X154525714Y-118023809D01*
X154525714Y-118261904D01*
X154478095Y-118357142D01*
X154430476Y-118404761D01*
X154335238Y-118452380D01*
X154097142Y-118452380D01*
X154001904Y-118404761D01*
X153954285Y-118357142D01*
X155633333Y-121007142D02*
X155585714Y-121054761D01*
X155442857Y-121102380D01*
X155347619Y-121102380D01*
X155204761Y-121054761D01*
X155109523Y-120959523D01*
X155061904Y-120864285D01*
X155014285Y-120673809D01*
X155014285Y-120530952D01*
X155061904Y-120340476D01*
X155109523Y-120245238D01*
X155204761Y-120150000D01*
X155347619Y-120102380D01*
X155442857Y-120102380D01*
X155585714Y-120150000D01*
X155633333Y-120197619D01*
X156490476Y-120435714D02*
X156490476Y-121102380D01*
X156252380Y-120054761D02*
X156014285Y-120769047D01*
X156633333Y-120769047D01*
X142203333Y-108127142D02*
X142155714Y-108174761D01*
X142012857Y-108222380D01*
X141917619Y-108222380D01*
X141774761Y-108174761D01*
X141679523Y-108079523D01*
X141631904Y-107984285D01*
X141584285Y-107793809D01*
X141584285Y-107650952D01*
X141631904Y-107460476D01*
X141679523Y-107365238D01*
X141774761Y-107270000D01*
X141917619Y-107222380D01*
X142012857Y-107222380D01*
X142155714Y-107270000D01*
X142203333Y-107317619D01*
X142536666Y-107222380D02*
X143155714Y-107222380D01*
X142822380Y-107603333D01*
X142965238Y-107603333D01*
X143060476Y-107650952D01*
X143108095Y-107698571D01*
X143155714Y-107793809D01*
X143155714Y-108031904D01*
X143108095Y-108127142D01*
X143060476Y-108174761D01*
X142965238Y-108222380D01*
X142679523Y-108222380D01*
X142584285Y-108174761D01*
X142536666Y-108127142D01*
X136843333Y-125547142D02*
X136795714Y-125594761D01*
X136652857Y-125642380D01*
X136557619Y-125642380D01*
X136414761Y-125594761D01*
X136319523Y-125499523D01*
X136271904Y-125404285D01*
X136224285Y-125213809D01*
X136224285Y-125070952D01*
X136271904Y-124880476D01*
X136319523Y-124785238D01*
X136414761Y-124690000D01*
X136557619Y-124642380D01*
X136652857Y-124642380D01*
X136795714Y-124690000D01*
X136843333Y-124737619D01*
X137795714Y-125642380D02*
X137224285Y-125642380D01*
X137510000Y-125642380D02*
X137510000Y-124642380D01*
X137414761Y-124785238D01*
X137319523Y-124880476D01*
X137224285Y-124928095D01*
M02*
